G04 #@! TF.FileFunction,Copper,L1,Top,Signal*
%FSLAX46Y46*%
G04 Gerber Fmt 4.6, Leading zero omitted, Abs format (unit mm)*
G04 Created by KiCad (PCBNEW 4.0.2+dfsg1-stable) date ti  8. elokuuta 2017 08.50.32*
%MOMM*%
G01*
G04 APERTURE LIST*
%ADD10C,0.100000*%
%ADD11R,1.524000X1.524000*%
%ADD12C,1.524000*%
%ADD13R,1.270000X1.270000*%
%ADD14C,1.270000*%
%ADD15C,1.000000*%
%ADD16C,0.250000*%
G04 APERTURE END LIST*
D10*
D11*
X114300000Y-110490000D03*
D12*
X116840000Y-110490000D03*
X119380000Y-110490000D03*
D13*
X137160000Y-153670000D03*
D14*
X129540000Y-153670000D03*
D13*
X121920000Y-151130000D03*
D14*
X124460000Y-151130000D03*
D13*
X165100000Y-90170000D03*
D14*
X170180000Y-90170000D03*
D13*
X168910000Y-147320000D03*
D14*
X168910000Y-142240000D03*
D13*
X151130000Y-147320000D03*
D14*
X151130000Y-142240000D03*
D12*
X143510000Y-148590000D03*
X146050000Y-148590000D03*
X140970000Y-148590000D03*
D11*
X153670000Y-147320000D03*
D12*
X158750000Y-147320000D03*
X161290000Y-147320000D03*
X163830000Y-147320000D03*
X166370000Y-147320000D03*
X166370000Y-142240000D03*
X163830000Y-142240000D03*
X161290000Y-142240000D03*
X158750000Y-142240000D03*
X153670000Y-142240000D03*
D11*
X149860000Y-95250000D03*
D12*
X152400000Y-95250000D03*
X154940000Y-95250000D03*
X157480000Y-95250000D03*
D11*
X115570000Y-142240000D03*
D12*
X118110000Y-142240000D03*
X120650000Y-142240000D03*
X123190000Y-142240000D03*
X125730000Y-142240000D03*
X128270000Y-142240000D03*
X130810000Y-142240000D03*
D11*
X105410000Y-142240000D03*
D12*
X107950000Y-142240000D03*
X110490000Y-142240000D03*
X113030000Y-142240000D03*
D11*
X153670000Y-163830000D03*
D12*
X156210000Y-163830000D03*
X158750000Y-163830000D03*
X161290000Y-163830000D03*
D11*
X133350000Y-163830000D03*
D12*
X135890000Y-163830000D03*
X138430000Y-163830000D03*
X140970000Y-163830000D03*
X143510000Y-163830000D03*
X146050000Y-163830000D03*
X148590000Y-163830000D03*
D11*
X110490000Y-163830000D03*
D12*
X113030000Y-163830000D03*
X115570000Y-163830000D03*
X118110000Y-163830000D03*
X120650000Y-163830000D03*
X123190000Y-163830000D03*
X125730000Y-163830000D03*
X128270000Y-163830000D03*
D11*
X148590000Y-86360000D03*
D12*
X153670000Y-86360000D03*
X156210000Y-86360000D03*
X158750000Y-86360000D03*
X158750000Y-81280000D03*
X156210000Y-81280000D03*
X153670000Y-81280000D03*
X148590000Y-81280000D03*
D15*
X110490000Y-160020000D03*
X110490000Y-150020000D03*
X107950000Y-160020000D03*
X107950000Y-150020000D03*
X105410000Y-160020000D03*
X105410000Y-150020000D03*
X142240000Y-157480000D03*
X152240000Y-157480000D03*
D12*
X116840000Y-106680000D03*
X119380000Y-106680000D03*
X114300000Y-106680000D03*
D11*
X140970000Y-142240000D03*
D12*
X143510000Y-142240000D03*
X146050000Y-142240000D03*
D16*
X121920000Y-151130000D02*
X121920000Y-155575000D01*
X135890000Y-165735000D02*
X135890000Y-163830000D01*
X132080000Y-165735000D02*
X135890000Y-165735000D01*
X121920000Y-155575000D02*
X132080000Y-165735000D01*
X128270000Y-142240000D02*
X121920000Y-148590000D01*
X121920000Y-148590000D02*
X121920000Y-151130000D01*
X110490000Y-160020000D02*
X111760000Y-160020000D01*
X111760000Y-160020000D02*
X115570000Y-163830000D01*
X107950000Y-160020000D02*
X107950000Y-161290000D01*
X111125000Y-161925000D02*
X113030000Y-163830000D01*
X108585000Y-161925000D02*
X111125000Y-161925000D01*
X107950000Y-161290000D02*
X108585000Y-161925000D01*
X105410000Y-160020000D02*
X105410000Y-160655000D01*
X108585000Y-163830000D02*
X110490000Y-163830000D01*
X105410000Y-160655000D02*
X108585000Y-163830000D01*
X118110000Y-163830000D02*
X115570000Y-161290000D01*
X115570000Y-161290000D02*
X115570000Y-142240000D01*
X120650000Y-163830000D02*
X116840000Y-160020000D01*
X116840000Y-143510000D02*
X118110000Y-142240000D01*
X116840000Y-160020000D02*
X116840000Y-143510000D01*
X123190000Y-163830000D02*
X118110000Y-158750000D01*
X118110000Y-144780000D02*
X120650000Y-142240000D01*
X118110000Y-158750000D02*
X118110000Y-144780000D01*
X125730000Y-163830000D02*
X119380000Y-157480000D01*
X119380000Y-146050000D02*
X123190000Y-142240000D01*
X119380000Y-157480000D02*
X119380000Y-146050000D01*
X128270000Y-163830000D02*
X120650000Y-156210000D01*
X120650000Y-156210000D02*
X120650000Y-147320000D01*
X120650000Y-147320000D02*
X125730000Y-142240000D01*
M02*
