G04 #@! TF.GenerationSoftware,KiCad,Pcbnew,5.1.6-c6e7f7d~86~ubuntu19.10.1*
G04 #@! TF.CreationDate,2021-02-01T15:35:38+02:00*
G04 #@! TF.ProjectId,authenticator2.0,61757468-656e-4746-9963-61746f72322e,rev?*
G04 #@! TF.SameCoordinates,Original*
G04 #@! TF.FileFunction,Legend,Top*
G04 #@! TF.FilePolarity,Positive*
%FSLAX46Y46*%
G04 Gerber Fmt 4.6, Leading zero omitted, Abs format (unit mm)*
G04 Created by KiCad (PCBNEW 5.1.6-c6e7f7d~86~ubuntu19.10.1) date 2021-02-01 15:35:38*
%MOMM*%
%LPD*%
G01*
G04 APERTURE LIST*
%ADD10C,0.200000*%
%ADD11C,0.150000*%
%ADD12C,0.250000*%
%ADD13C,0.300000*%
%ADD14C,0.050000*%
G04 APERTURE END LIST*
D10*
X82496428Y-18015000D02*
X82420238Y-17976904D01*
X82305952Y-17976904D01*
X82191666Y-18015000D01*
X82115476Y-18091190D01*
X82077380Y-18167380D01*
X82039285Y-18319761D01*
X82039285Y-18434047D01*
X82077380Y-18586428D01*
X82115476Y-18662619D01*
X82191666Y-18738809D01*
X82305952Y-18776904D01*
X82382142Y-18776904D01*
X82496428Y-18738809D01*
X82534523Y-18700714D01*
X82534523Y-18434047D01*
X82382142Y-18434047D01*
X82877380Y-18776904D02*
X82877380Y-17976904D01*
X83334523Y-18776904D01*
X83334523Y-17976904D01*
X83715476Y-18776904D02*
X83715476Y-17976904D01*
X83905952Y-17976904D01*
X84020238Y-18015000D01*
X84096428Y-18091190D01*
X84134523Y-18167380D01*
X84172619Y-18319761D01*
X84172619Y-18434047D01*
X84134523Y-18586428D01*
X84096428Y-18662619D01*
X84020238Y-18738809D01*
X83905952Y-18776904D01*
X83715476Y-18776904D01*
D11*
X30615238Y-58237380D02*
X30615238Y-57237380D01*
X30948571Y-57951666D01*
X31281904Y-57237380D01*
X31281904Y-58237380D01*
X31710476Y-57332619D02*
X31758095Y-57285000D01*
X31853333Y-57237380D01*
X32091428Y-57237380D01*
X32186666Y-57285000D01*
X32234285Y-57332619D01*
X32281904Y-57427857D01*
X32281904Y-57523095D01*
X32234285Y-57665952D01*
X31662857Y-58237380D01*
X32281904Y-58237380D01*
X32710476Y-58142142D02*
X32758095Y-58189761D01*
X32710476Y-58237380D01*
X32662857Y-58189761D01*
X32710476Y-58142142D01*
X32710476Y-58237380D01*
X33662857Y-57237380D02*
X33186666Y-57237380D01*
X33139047Y-57713571D01*
X33186666Y-57665952D01*
X33281904Y-57618333D01*
X33520000Y-57618333D01*
X33615238Y-57665952D01*
X33662857Y-57713571D01*
X33710476Y-57808809D01*
X33710476Y-58046904D01*
X33662857Y-58142142D01*
X33615238Y-58189761D01*
X33520000Y-58237380D01*
X33281904Y-58237380D01*
X33186666Y-58189761D01*
X33139047Y-58142142D01*
X34043809Y-58237380D02*
X34567619Y-57570714D01*
X34043809Y-57570714D02*
X34567619Y-58237380D01*
X35091428Y-57665952D02*
X34996190Y-57618333D01*
X34948571Y-57570714D01*
X34900952Y-57475476D01*
X34900952Y-57427857D01*
X34948571Y-57332619D01*
X34996190Y-57285000D01*
X35091428Y-57237380D01*
X35281904Y-57237380D01*
X35377142Y-57285000D01*
X35424761Y-57332619D01*
X35472380Y-57427857D01*
X35472380Y-57475476D01*
X35424761Y-57570714D01*
X35377142Y-57618333D01*
X35281904Y-57665952D01*
X35091428Y-57665952D01*
X34996190Y-57713571D01*
X34948571Y-57761190D01*
X34900952Y-57856428D01*
X34900952Y-58046904D01*
X34948571Y-58142142D01*
X34996190Y-58189761D01*
X35091428Y-58237380D01*
X35281904Y-58237380D01*
X35377142Y-58189761D01*
X35424761Y-58142142D01*
X35472380Y-58046904D01*
X35472380Y-57856428D01*
X35424761Y-57761190D01*
X35377142Y-57713571D01*
X35281904Y-57665952D01*
X64674285Y-147758095D02*
X64407619Y-146958095D01*
X64140952Y-147758095D01*
X63874285Y-146958095D02*
X63874285Y-147758095D01*
X63683809Y-147758095D01*
X63569523Y-147720000D01*
X63493333Y-147643809D01*
X63455238Y-147567619D01*
X63417142Y-147415238D01*
X63417142Y-147300952D01*
X63455238Y-147148571D01*
X63493333Y-147072380D01*
X63569523Y-146996190D01*
X63683809Y-146958095D01*
X63874285Y-146958095D01*
X63074285Y-146958095D02*
X63074285Y-147758095D01*
X62883809Y-147758095D01*
X62769523Y-147720000D01*
X62693333Y-147643809D01*
X62655238Y-147567619D01*
X62617142Y-147415238D01*
X62617142Y-147300952D01*
X62655238Y-147148571D01*
X62693333Y-147072380D01*
X62769523Y-146996190D01*
X62883809Y-146958095D01*
X63074285Y-146958095D01*
X61664761Y-146958095D02*
X61664761Y-147758095D01*
X61474285Y-147758095D01*
X61360000Y-147720000D01*
X61283809Y-147643809D01*
X61245714Y-147567619D01*
X61207619Y-147415238D01*
X61207619Y-147300952D01*
X61245714Y-147148571D01*
X61283809Y-147072380D01*
X61360000Y-146996190D01*
X61474285Y-146958095D01*
X61664761Y-146958095D01*
X60331428Y-146881904D02*
X60407619Y-146920000D01*
X60483809Y-146996190D01*
X60598095Y-147110476D01*
X60674285Y-147148571D01*
X60750476Y-147148571D01*
X60712380Y-146958095D02*
X60788571Y-146996190D01*
X60864761Y-147072380D01*
X60902857Y-147224761D01*
X60902857Y-147491428D01*
X60864761Y-147643809D01*
X60788571Y-147720000D01*
X60712380Y-147758095D01*
X60560000Y-147758095D01*
X60483809Y-147720000D01*
X60407619Y-147643809D01*
X60369523Y-147491428D01*
X60369523Y-147224761D01*
X60407619Y-147072380D01*
X60483809Y-146996190D01*
X60560000Y-146958095D01*
X60712380Y-146958095D01*
X58998095Y-147720000D02*
X59074285Y-147758095D01*
X59188571Y-147758095D01*
X59302857Y-147720000D01*
X59379047Y-147643809D01*
X59417142Y-147567619D01*
X59455238Y-147415238D01*
X59455238Y-147300952D01*
X59417142Y-147148571D01*
X59379047Y-147072380D01*
X59302857Y-146996190D01*
X59188571Y-146958095D01*
X59112380Y-146958095D01*
X58998095Y-146996190D01*
X58960000Y-147034285D01*
X58960000Y-147300952D01*
X59112380Y-147300952D01*
X58617142Y-146958095D02*
X58617142Y-147758095D01*
X58160000Y-146958095D01*
X58160000Y-147758095D01*
X57779047Y-146958095D02*
X57779047Y-147758095D01*
X57588571Y-147758095D01*
X57474285Y-147720000D01*
X57398095Y-147643809D01*
X57360000Y-147567619D01*
X57321904Y-147415238D01*
X57321904Y-147300952D01*
X57360000Y-147148571D01*
X57398095Y-147072380D01*
X57474285Y-146996190D01*
X57588571Y-146958095D01*
X57779047Y-146958095D01*
D10*
X46837619Y-55606904D02*
X46380476Y-55606904D01*
X46609047Y-55606904D02*
X46609047Y-54806904D01*
X46532857Y-54921190D01*
X46456666Y-54997380D01*
X46380476Y-55035476D01*
X47218571Y-55606904D02*
X47370952Y-55606904D01*
X47447142Y-55568809D01*
X47485238Y-55530714D01*
X47561428Y-55416428D01*
X47599523Y-55264047D01*
X47599523Y-54959285D01*
X47561428Y-54883095D01*
X47523333Y-54845000D01*
X47447142Y-54806904D01*
X47294761Y-54806904D01*
X47218571Y-54845000D01*
X47180476Y-54883095D01*
X47142380Y-54959285D01*
X47142380Y-55149761D01*
X47180476Y-55225952D01*
X47218571Y-55264047D01*
X47294761Y-55302142D01*
X47447142Y-55302142D01*
X47523333Y-55264047D01*
X47561428Y-55225952D01*
X47599523Y-55149761D01*
X43840476Y-54883095D02*
X43878571Y-54845000D01*
X43954761Y-54806904D01*
X44145238Y-54806904D01*
X44221428Y-54845000D01*
X44259523Y-54883095D01*
X44297619Y-54959285D01*
X44297619Y-55035476D01*
X44259523Y-55149761D01*
X43802380Y-55606904D01*
X44297619Y-55606904D01*
X44792857Y-54806904D02*
X44869047Y-54806904D01*
X44945238Y-54845000D01*
X44983333Y-54883095D01*
X45021428Y-54959285D01*
X45059523Y-55111666D01*
X45059523Y-55302142D01*
X45021428Y-55454523D01*
X44983333Y-55530714D01*
X44945238Y-55568809D01*
X44869047Y-55606904D01*
X44792857Y-55606904D01*
X44716666Y-55568809D01*
X44678571Y-55530714D01*
X44640476Y-55454523D01*
X44602380Y-55302142D01*
X44602380Y-55111666D01*
X44640476Y-54959285D01*
X44678571Y-54883095D01*
X44716666Y-54845000D01*
X44792857Y-54806904D01*
X80036190Y-54806904D02*
X79883809Y-54806904D01*
X79807619Y-54845000D01*
X79769523Y-54883095D01*
X79693333Y-54997380D01*
X79655238Y-55149761D01*
X79655238Y-55454523D01*
X79693333Y-55530714D01*
X79731428Y-55568809D01*
X79807619Y-55606904D01*
X79959999Y-55606904D01*
X80036190Y-55568809D01*
X80074285Y-55530714D01*
X80112380Y-55454523D01*
X80112380Y-55264047D01*
X80074285Y-55187857D01*
X80036190Y-55149761D01*
X79959999Y-55111666D01*
X79807619Y-55111666D01*
X79731428Y-55149761D01*
X79693333Y-55187857D01*
X79655238Y-55264047D01*
X82664761Y-54806904D02*
X82283809Y-54806904D01*
X82245714Y-55187857D01*
X82283809Y-55149761D01*
X82359999Y-55111666D01*
X82550476Y-55111666D01*
X82626666Y-55149761D01*
X82664761Y-55187857D01*
X82702857Y-55264047D01*
X82702857Y-55454523D01*
X82664761Y-55530714D01*
X82626666Y-55568809D01*
X82550476Y-55606904D01*
X82359999Y-55606904D01*
X82283809Y-55568809D01*
X82245714Y-55530714D01*
X85217142Y-55073571D02*
X85217142Y-55606904D01*
X85026666Y-54768809D02*
X84836190Y-55340238D01*
X85331428Y-55340238D01*
X87388571Y-54806904D02*
X87883809Y-54806904D01*
X87617142Y-55111666D01*
X87731428Y-55111666D01*
X87807619Y-55149761D01*
X87845714Y-55187857D01*
X87883809Y-55264047D01*
X87883809Y-55454523D01*
X87845714Y-55530714D01*
X87807619Y-55568809D01*
X87731428Y-55606904D01*
X87502857Y-55606904D01*
X87426666Y-55568809D01*
X87388571Y-55530714D01*
X90017142Y-54883095D02*
X90055238Y-54845000D01*
X90131428Y-54806904D01*
X90321904Y-54806904D01*
X90398095Y-54845000D01*
X90436190Y-54883095D01*
X90474285Y-54959285D01*
X90474285Y-55035476D01*
X90436190Y-55149761D01*
X89979047Y-55606904D01*
X90474285Y-55606904D01*
X93064761Y-55606904D02*
X92607619Y-55606904D01*
X92836190Y-55606904D02*
X92836190Y-54806904D01*
X92760000Y-54921190D01*
X92683809Y-54997380D01*
X92607619Y-55035476D01*
X101468095Y-87884761D02*
X100820476Y-87884761D01*
X100744285Y-87922857D01*
X100706190Y-87960952D01*
X100668095Y-88037142D01*
X100668095Y-88189523D01*
X100706190Y-88265714D01*
X100744285Y-88303809D01*
X100820476Y-88341904D01*
X101468095Y-88341904D01*
X100706190Y-88684761D02*
X100668095Y-88799047D01*
X100668095Y-88989523D01*
X100706190Y-89065714D01*
X100744285Y-89103809D01*
X100820476Y-89141904D01*
X100896666Y-89141904D01*
X100972857Y-89103809D01*
X101010952Y-89065714D01*
X101049047Y-88989523D01*
X101087142Y-88837142D01*
X101125238Y-88760952D01*
X101163333Y-88722857D01*
X101239523Y-88684761D01*
X101315714Y-88684761D01*
X101391904Y-88722857D01*
X101430000Y-88760952D01*
X101468095Y-88837142D01*
X101468095Y-89027619D01*
X101430000Y-89141904D01*
X101087142Y-89751428D02*
X101049047Y-89865714D01*
X101010952Y-89903809D01*
X100934761Y-89941904D01*
X100820476Y-89941904D01*
X100744285Y-89903809D01*
X100706190Y-89865714D01*
X100668095Y-89789523D01*
X100668095Y-89484761D01*
X101468095Y-89484761D01*
X101468095Y-89751428D01*
X101430000Y-89827619D01*
X101391904Y-89865714D01*
X101315714Y-89903809D01*
X101239523Y-89903809D01*
X101163333Y-89865714D01*
X101125238Y-89827619D01*
X101087142Y-89751428D01*
X101087142Y-89484761D01*
X101087142Y-91160952D02*
X101049047Y-91275238D01*
X101010952Y-91313333D01*
X100934761Y-91351428D01*
X100820476Y-91351428D01*
X100744285Y-91313333D01*
X100706190Y-91275238D01*
X100668095Y-91199047D01*
X100668095Y-90894285D01*
X101468095Y-90894285D01*
X101468095Y-91160952D01*
X101430000Y-91237142D01*
X101391904Y-91275238D01*
X101315714Y-91313333D01*
X101239523Y-91313333D01*
X101163333Y-91275238D01*
X101125238Y-91237142D01*
X101087142Y-91160952D01*
X101087142Y-90894285D01*
X100668095Y-92037142D02*
X101087142Y-92037142D01*
X101163333Y-91999047D01*
X101201428Y-91922857D01*
X101201428Y-91770476D01*
X101163333Y-91694285D01*
X100706190Y-92037142D02*
X100668095Y-91960952D01*
X100668095Y-91770476D01*
X100706190Y-91694285D01*
X100782380Y-91656190D01*
X100858571Y-91656190D01*
X100934761Y-91694285D01*
X100972857Y-91770476D01*
X100972857Y-91960952D01*
X101010952Y-92037142D01*
X100668095Y-92418095D02*
X101201428Y-92418095D01*
X101049047Y-92418095D02*
X101125238Y-92456190D01*
X101163333Y-92494285D01*
X101201428Y-92570476D01*
X101201428Y-92646666D01*
X100706190Y-93256190D02*
X100668095Y-93180000D01*
X100668095Y-93027619D01*
X100706190Y-92951428D01*
X100744285Y-92913333D01*
X100820476Y-92875238D01*
X101049047Y-92875238D01*
X101125238Y-92913333D01*
X101163333Y-92951428D01*
X101201428Y-93027619D01*
X101201428Y-93180000D01*
X101163333Y-93256190D01*
X100668095Y-93713333D02*
X100706190Y-93637142D01*
X100744285Y-93599047D01*
X100820476Y-93560952D01*
X101049047Y-93560952D01*
X101125238Y-93599047D01*
X101163333Y-93637142D01*
X101201428Y-93713333D01*
X101201428Y-93827619D01*
X101163333Y-93903809D01*
X101125238Y-93941904D01*
X101049047Y-93980000D01*
X100820476Y-93980000D01*
X100744285Y-93941904D01*
X100706190Y-93903809D01*
X100668095Y-93827619D01*
X100668095Y-93713333D01*
X100668095Y-94665714D02*
X101468095Y-94665714D01*
X100706190Y-94665714D02*
X100668095Y-94589523D01*
X100668095Y-94437142D01*
X100706190Y-94360952D01*
X100744285Y-94322857D01*
X100820476Y-94284761D01*
X101049047Y-94284761D01*
X101125238Y-94322857D01*
X101163333Y-94360952D01*
X101201428Y-94437142D01*
X101201428Y-94589523D01*
X101163333Y-94665714D01*
X100706190Y-95351428D02*
X100668095Y-95275238D01*
X100668095Y-95122857D01*
X100706190Y-95046666D01*
X100782380Y-95008571D01*
X101087142Y-95008571D01*
X101163333Y-95046666D01*
X101201428Y-95122857D01*
X101201428Y-95275238D01*
X101163333Y-95351428D01*
X101087142Y-95389523D01*
X101010952Y-95389523D01*
X100934761Y-95008571D01*
X100668095Y-96799047D02*
X101049047Y-96532380D01*
X100668095Y-96341904D02*
X101468095Y-96341904D01*
X101468095Y-96646666D01*
X101430000Y-96722857D01*
X101391904Y-96760952D01*
X101315714Y-96799047D01*
X101201428Y-96799047D01*
X101125238Y-96760952D01*
X101087142Y-96722857D01*
X101049047Y-96646666D01*
X101049047Y-96341904D01*
X100706190Y-97446666D02*
X100668095Y-97370476D01*
X100668095Y-97218095D01*
X100706190Y-97141904D01*
X100782380Y-97103809D01*
X101087142Y-97103809D01*
X101163333Y-97141904D01*
X101201428Y-97218095D01*
X101201428Y-97370476D01*
X101163333Y-97446666D01*
X101087142Y-97484761D01*
X101010952Y-97484761D01*
X100934761Y-97103809D01*
X100668095Y-98170476D02*
X101087142Y-98170476D01*
X101163333Y-98132380D01*
X101201428Y-98056190D01*
X101201428Y-97903809D01*
X101163333Y-97827619D01*
X100706190Y-98170476D02*
X100668095Y-98094285D01*
X100668095Y-97903809D01*
X100706190Y-97827619D01*
X100782380Y-97789523D01*
X100858571Y-97789523D01*
X100934761Y-97827619D01*
X100972857Y-97903809D01*
X100972857Y-98094285D01*
X101010952Y-98170476D01*
X100668095Y-98894285D02*
X101468095Y-98894285D01*
X100706190Y-98894285D02*
X100668095Y-98818095D01*
X100668095Y-98665714D01*
X100706190Y-98589523D01*
X100744285Y-98551428D01*
X100820476Y-98513333D01*
X101049047Y-98513333D01*
X101125238Y-98551428D01*
X101163333Y-98589523D01*
X101201428Y-98665714D01*
X101201428Y-98818095D01*
X101163333Y-98894285D01*
X100706190Y-99580000D02*
X100668095Y-99503809D01*
X100668095Y-99351428D01*
X100706190Y-99275238D01*
X100782380Y-99237142D01*
X101087142Y-99237142D01*
X101163333Y-99275238D01*
X101201428Y-99351428D01*
X101201428Y-99503809D01*
X101163333Y-99580000D01*
X101087142Y-99618095D01*
X101010952Y-99618095D01*
X100934761Y-99237142D01*
X100668095Y-99960952D02*
X101201428Y-99960952D01*
X101049047Y-99960952D02*
X101125238Y-99999047D01*
X101163333Y-100037142D01*
X101201428Y-100113333D01*
X101201428Y-100189523D01*
X100068095Y-86246666D02*
X100068095Y-85865714D01*
X99687142Y-85827619D01*
X99725238Y-85865714D01*
X99763333Y-85941904D01*
X99763333Y-86132380D01*
X99725238Y-86208571D01*
X99687142Y-86246666D01*
X99610952Y-86284761D01*
X99420476Y-86284761D01*
X99344285Y-86246666D01*
X99306190Y-86208571D01*
X99268095Y-86132380D01*
X99268095Y-85941904D01*
X99306190Y-85865714D01*
X99344285Y-85827619D01*
X100068095Y-86513333D02*
X99268095Y-86780000D01*
X100068095Y-87046666D01*
X99268095Y-90360952D02*
X100068095Y-90360952D01*
X100068095Y-90551428D01*
X100030000Y-90665714D01*
X99953809Y-90741904D01*
X99877619Y-90780000D01*
X99725238Y-90818095D01*
X99610952Y-90818095D01*
X99458571Y-90780000D01*
X99382380Y-90741904D01*
X99306190Y-90665714D01*
X99268095Y-90551428D01*
X99268095Y-90360952D01*
X99572857Y-91160952D02*
X99572857Y-91770476D01*
X99268095Y-95199047D02*
X100068095Y-95199047D01*
X100068095Y-95389523D01*
X100030000Y-95503809D01*
X99953809Y-95580000D01*
X99877619Y-95618095D01*
X99725238Y-95656190D01*
X99610952Y-95656190D01*
X99458571Y-95618095D01*
X99382380Y-95580000D01*
X99306190Y-95503809D01*
X99268095Y-95389523D01*
X99268095Y-95199047D01*
X99572857Y-95999047D02*
X99572857Y-96608571D01*
X99268095Y-96303809D02*
X99877619Y-96303809D01*
X100030000Y-100456190D02*
X100068095Y-100380000D01*
X100068095Y-100265714D01*
X100030000Y-100151428D01*
X99953809Y-100075238D01*
X99877619Y-100037142D01*
X99725238Y-99999047D01*
X99610952Y-99999047D01*
X99458571Y-100037142D01*
X99382380Y-100075238D01*
X99306190Y-100151428D01*
X99268095Y-100265714D01*
X99268095Y-100341904D01*
X99306190Y-100456190D01*
X99344285Y-100494285D01*
X99610952Y-100494285D01*
X99610952Y-100341904D01*
X99268095Y-100837142D02*
X100068095Y-100837142D01*
X99268095Y-101294285D01*
X100068095Y-101294285D01*
X99268095Y-101675238D02*
X100068095Y-101675238D01*
X100068095Y-101865714D01*
X100030000Y-101980000D01*
X99953809Y-102056190D01*
X99877619Y-102094285D01*
X99725238Y-102132380D01*
X99610952Y-102132380D01*
X99458571Y-102094285D01*
X99382380Y-102056190D01*
X99306190Y-101980000D01*
X99268095Y-101865714D01*
X99268095Y-101675238D01*
X30245476Y-112121904D02*
X30245476Y-111321904D01*
X30245476Y-111702857D02*
X30702619Y-111702857D01*
X30702619Y-112121904D02*
X30702619Y-111321904D01*
X31083571Y-111702857D02*
X31350238Y-111702857D01*
X31464523Y-112121904D02*
X31083571Y-112121904D01*
X31083571Y-111321904D01*
X31464523Y-111321904D01*
X31769285Y-111893333D02*
X32150238Y-111893333D01*
X31693095Y-112121904D02*
X31959761Y-111321904D01*
X32226428Y-112121904D01*
X32378809Y-111321904D02*
X32835952Y-111321904D01*
X32607380Y-112121904D02*
X32607380Y-111321904D01*
X33102619Y-111702857D02*
X33369285Y-111702857D01*
X33483571Y-112121904D02*
X33102619Y-112121904D01*
X33102619Y-111321904D01*
X33483571Y-111321904D01*
X34283571Y-112121904D02*
X34016904Y-111740952D01*
X33826428Y-112121904D02*
X33826428Y-111321904D01*
X34131190Y-111321904D01*
X34207380Y-111360000D01*
X34245476Y-111398095D01*
X34283571Y-111474285D01*
X34283571Y-111588571D01*
X34245476Y-111664761D01*
X34207380Y-111702857D01*
X34131190Y-111740952D01*
X33826428Y-111740952D01*
X35197857Y-111398095D02*
X35235952Y-111360000D01*
X35312142Y-111321904D01*
X35502619Y-111321904D01*
X35578809Y-111360000D01*
X35616904Y-111398095D01*
X35655000Y-111474285D01*
X35655000Y-111550476D01*
X35616904Y-111664761D01*
X35159761Y-112121904D01*
X35655000Y-112121904D01*
X36340714Y-111588571D02*
X36340714Y-112121904D01*
X36150238Y-111283809D02*
X35959761Y-111855238D01*
X36455000Y-111855238D01*
X36645476Y-111321904D02*
X36912142Y-112121904D01*
X37178809Y-111321904D01*
D11*
X36830000Y-59690000D02*
G75*
G03*
X36830000Y-59690000I-3810000J0D01*
G01*
D10*
X97555476Y-46716904D02*
X97555476Y-45916904D01*
X97555476Y-46297857D02*
X98012619Y-46297857D01*
X98012619Y-46716904D02*
X98012619Y-45916904D01*
X98393571Y-46297857D02*
X98660238Y-46297857D01*
X98774523Y-46716904D02*
X98393571Y-46716904D01*
X98393571Y-45916904D01*
X98774523Y-45916904D01*
X99079285Y-46488333D02*
X99460238Y-46488333D01*
X99003095Y-46716904D02*
X99269761Y-45916904D01*
X99536428Y-46716904D01*
X99688809Y-45916904D02*
X100145952Y-45916904D01*
X99917380Y-46716904D02*
X99917380Y-45916904D01*
X100412619Y-46297857D02*
X100679285Y-46297857D01*
X100793571Y-46716904D02*
X100412619Y-46716904D01*
X100412619Y-45916904D01*
X100793571Y-45916904D01*
X101593571Y-46716904D02*
X101326904Y-46335952D01*
X101136428Y-46716904D02*
X101136428Y-45916904D01*
X101441190Y-45916904D01*
X101517380Y-45955000D01*
X101555476Y-45993095D01*
X101593571Y-46069285D01*
X101593571Y-46183571D01*
X101555476Y-46259761D01*
X101517380Y-46297857D01*
X101441190Y-46335952D01*
X101136428Y-46335952D01*
X102507857Y-45993095D02*
X102545952Y-45955000D01*
X102622142Y-45916904D01*
X102812619Y-45916904D01*
X102888809Y-45955000D01*
X102926904Y-45993095D01*
X102965000Y-46069285D01*
X102965000Y-46145476D01*
X102926904Y-46259761D01*
X102469761Y-46716904D01*
X102965000Y-46716904D01*
X103650714Y-46183571D02*
X103650714Y-46716904D01*
X103460238Y-45878809D02*
X103269761Y-46450238D01*
X103765000Y-46450238D01*
X103955476Y-45916904D02*
X104222142Y-46716904D01*
X104488809Y-45916904D01*
X17441904Y-100177380D02*
X16641904Y-100177380D01*
X17022857Y-100177380D02*
X17022857Y-99720238D01*
X17441904Y-99720238D02*
X16641904Y-99720238D01*
X17403809Y-99034523D02*
X17441904Y-99110714D01*
X17441904Y-99263095D01*
X17403809Y-99339285D01*
X17327619Y-99377380D01*
X17022857Y-99377380D01*
X16946666Y-99339285D01*
X16908571Y-99263095D01*
X16908571Y-99110714D01*
X16946666Y-99034523D01*
X17022857Y-98996428D01*
X17099047Y-98996428D01*
X17175238Y-99377380D01*
X17441904Y-98310714D02*
X17022857Y-98310714D01*
X16946666Y-98348809D01*
X16908571Y-98425000D01*
X16908571Y-98577380D01*
X16946666Y-98653571D01*
X17403809Y-98310714D02*
X17441904Y-98386904D01*
X17441904Y-98577380D01*
X17403809Y-98653571D01*
X17327619Y-98691666D01*
X17251428Y-98691666D01*
X17175238Y-98653571D01*
X17137142Y-98577380D01*
X17137142Y-98386904D01*
X17099047Y-98310714D01*
X16908571Y-98044047D02*
X16908571Y-97739285D01*
X16641904Y-97929761D02*
X17327619Y-97929761D01*
X17403809Y-97891666D01*
X17441904Y-97815476D01*
X17441904Y-97739285D01*
X17403809Y-97167857D02*
X17441904Y-97244047D01*
X17441904Y-97396428D01*
X17403809Y-97472619D01*
X17327619Y-97510714D01*
X17022857Y-97510714D01*
X16946666Y-97472619D01*
X16908571Y-97396428D01*
X16908571Y-97244047D01*
X16946666Y-97167857D01*
X17022857Y-97129761D01*
X17099047Y-97129761D01*
X17175238Y-97510714D01*
X17441904Y-96786904D02*
X16908571Y-96786904D01*
X17060952Y-96786904D02*
X16984761Y-96748809D01*
X16946666Y-96710714D01*
X16908571Y-96634523D01*
X16908571Y-96558333D01*
X18537142Y-100863095D02*
X18537142Y-100253571D01*
X18003809Y-98082142D02*
X19032380Y-98767857D01*
X18537142Y-96596428D02*
X18537142Y-95986904D01*
X18841904Y-96291666D02*
X18232380Y-96291666D01*
X17441904Y-91522142D02*
X16641904Y-91522142D01*
X17022857Y-91522142D02*
X17022857Y-91065000D01*
X17441904Y-91065000D02*
X16641904Y-91065000D01*
X17403809Y-90379285D02*
X17441904Y-90455476D01*
X17441904Y-90607857D01*
X17403809Y-90684047D01*
X17327619Y-90722142D01*
X17022857Y-90722142D01*
X16946666Y-90684047D01*
X16908571Y-90607857D01*
X16908571Y-90455476D01*
X16946666Y-90379285D01*
X17022857Y-90341190D01*
X17099047Y-90341190D01*
X17175238Y-90722142D01*
X17441904Y-89655476D02*
X17022857Y-89655476D01*
X16946666Y-89693571D01*
X16908571Y-89769761D01*
X16908571Y-89922142D01*
X16946666Y-89998333D01*
X17403809Y-89655476D02*
X17441904Y-89731666D01*
X17441904Y-89922142D01*
X17403809Y-89998333D01*
X17327619Y-90036428D01*
X17251428Y-90036428D01*
X17175238Y-89998333D01*
X17137142Y-89922142D01*
X17137142Y-89731666D01*
X17099047Y-89655476D01*
X16908571Y-89388809D02*
X16908571Y-89084047D01*
X16641904Y-89274523D02*
X17327619Y-89274523D01*
X17403809Y-89236428D01*
X17441904Y-89160238D01*
X17441904Y-89084047D01*
X17403809Y-88512619D02*
X17441904Y-88588809D01*
X17441904Y-88741190D01*
X17403809Y-88817380D01*
X17327619Y-88855476D01*
X17022857Y-88855476D01*
X16946666Y-88817380D01*
X16908571Y-88741190D01*
X16908571Y-88588809D01*
X16946666Y-88512619D01*
X17022857Y-88474523D01*
X17099047Y-88474523D01*
X17175238Y-88855476D01*
X17441904Y-88131666D02*
X16908571Y-88131666D01*
X17060952Y-88131666D02*
X16984761Y-88093571D01*
X16946666Y-88055476D01*
X16908571Y-87979285D01*
X16908571Y-87903095D01*
X17441904Y-87026904D02*
X16641904Y-87026904D01*
X16641904Y-86722142D01*
X16680000Y-86645952D01*
X16718095Y-86607857D01*
X16794285Y-86569761D01*
X16908571Y-86569761D01*
X16984761Y-86607857D01*
X17022857Y-86645952D01*
X17060952Y-86722142D01*
X17060952Y-87026904D01*
X17403809Y-86265000D02*
X17441904Y-86150714D01*
X17441904Y-85960238D01*
X17403809Y-85884047D01*
X17365714Y-85845952D01*
X17289523Y-85807857D01*
X17213333Y-85807857D01*
X17137142Y-85845952D01*
X17099047Y-85884047D01*
X17060952Y-85960238D01*
X17022857Y-86112619D01*
X16984761Y-86188809D01*
X16946666Y-86226904D01*
X16870476Y-86265000D01*
X16794285Y-86265000D01*
X16718095Y-86226904D01*
X16680000Y-86188809D01*
X16641904Y-86112619D01*
X16641904Y-85922142D01*
X16680000Y-85807857D01*
X16641904Y-85465000D02*
X17289523Y-85465000D01*
X17365714Y-85426904D01*
X17403809Y-85388809D01*
X17441904Y-85312619D01*
X17441904Y-85160238D01*
X17403809Y-85084047D01*
X17365714Y-85045952D01*
X17289523Y-85007857D01*
X16641904Y-85007857D01*
X18537142Y-90703095D02*
X18537142Y-90093571D01*
X18003809Y-87922142D02*
X19032380Y-88607857D01*
X18537142Y-86436428D02*
X18537142Y-85826904D01*
X18841904Y-86131666D02*
X18232380Y-86131666D01*
X21844761Y-16641904D02*
X21844761Y-17289523D01*
X21882857Y-17365714D01*
X21920952Y-17403809D01*
X21997142Y-17441904D01*
X22149523Y-17441904D01*
X22225714Y-17403809D01*
X22263809Y-17365714D01*
X22301904Y-17289523D01*
X22301904Y-16641904D01*
X22644761Y-17403809D02*
X22759047Y-17441904D01*
X22949523Y-17441904D01*
X23025714Y-17403809D01*
X23063809Y-17365714D01*
X23101904Y-17289523D01*
X23101904Y-17213333D01*
X23063809Y-17137142D01*
X23025714Y-17099047D01*
X22949523Y-17060952D01*
X22797142Y-17022857D01*
X22720952Y-16984761D01*
X22682857Y-16946666D01*
X22644761Y-16870476D01*
X22644761Y-16794285D01*
X22682857Y-16718095D01*
X22720952Y-16680000D01*
X22797142Y-16641904D01*
X22987619Y-16641904D01*
X23101904Y-16680000D01*
X23711428Y-17022857D02*
X23825714Y-17060952D01*
X23863809Y-17099047D01*
X23901904Y-17175238D01*
X23901904Y-17289523D01*
X23863809Y-17365714D01*
X23825714Y-17403809D01*
X23749523Y-17441904D01*
X23444761Y-17441904D01*
X23444761Y-16641904D01*
X23711428Y-16641904D01*
X23787619Y-16680000D01*
X23825714Y-16718095D01*
X23863809Y-16794285D01*
X23863809Y-16870476D01*
X23825714Y-16946666D01*
X23787619Y-16984761D01*
X23711428Y-17022857D01*
X23444761Y-17022857D01*
X25120952Y-17022857D02*
X25235238Y-17060952D01*
X25273333Y-17099047D01*
X25311428Y-17175238D01*
X25311428Y-17289523D01*
X25273333Y-17365714D01*
X25235238Y-17403809D01*
X25159047Y-17441904D01*
X24854285Y-17441904D01*
X24854285Y-16641904D01*
X25120952Y-16641904D01*
X25197142Y-16680000D01*
X25235238Y-16718095D01*
X25273333Y-16794285D01*
X25273333Y-16870476D01*
X25235238Y-16946666D01*
X25197142Y-16984761D01*
X25120952Y-17022857D01*
X24854285Y-17022857D01*
X25997142Y-17441904D02*
X25997142Y-17022857D01*
X25959047Y-16946666D01*
X25882857Y-16908571D01*
X25730476Y-16908571D01*
X25654285Y-16946666D01*
X25997142Y-17403809D02*
X25920952Y-17441904D01*
X25730476Y-17441904D01*
X25654285Y-17403809D01*
X25616190Y-17327619D01*
X25616190Y-17251428D01*
X25654285Y-17175238D01*
X25730476Y-17137142D01*
X25920952Y-17137142D01*
X25997142Y-17099047D01*
X26378095Y-17441904D02*
X26378095Y-16908571D01*
X26378095Y-17060952D02*
X26416190Y-16984761D01*
X26454285Y-16946666D01*
X26530476Y-16908571D01*
X26606666Y-16908571D01*
X27216190Y-17403809D02*
X27140000Y-17441904D01*
X26987619Y-17441904D01*
X26911428Y-17403809D01*
X26873333Y-17365714D01*
X26835238Y-17289523D01*
X26835238Y-17060952D01*
X26873333Y-16984761D01*
X26911428Y-16946666D01*
X26987619Y-16908571D01*
X27140000Y-16908571D01*
X27216190Y-16946666D01*
X27673333Y-17441904D02*
X27597142Y-17403809D01*
X27559047Y-17365714D01*
X27520952Y-17289523D01*
X27520952Y-17060952D01*
X27559047Y-16984761D01*
X27597142Y-16946666D01*
X27673333Y-16908571D01*
X27787619Y-16908571D01*
X27863809Y-16946666D01*
X27901904Y-16984761D01*
X27940000Y-17060952D01*
X27940000Y-17289523D01*
X27901904Y-17365714D01*
X27863809Y-17403809D01*
X27787619Y-17441904D01*
X27673333Y-17441904D01*
X28625714Y-17441904D02*
X28625714Y-16641904D01*
X28625714Y-17403809D02*
X28549523Y-17441904D01*
X28397142Y-17441904D01*
X28320952Y-17403809D01*
X28282857Y-17365714D01*
X28244761Y-17289523D01*
X28244761Y-17060952D01*
X28282857Y-16984761D01*
X28320952Y-16946666D01*
X28397142Y-16908571D01*
X28549523Y-16908571D01*
X28625714Y-16946666D01*
X29311428Y-17403809D02*
X29235238Y-17441904D01*
X29082857Y-17441904D01*
X29006666Y-17403809D01*
X28968571Y-17327619D01*
X28968571Y-17022857D01*
X29006666Y-16946666D01*
X29082857Y-16908571D01*
X29235238Y-16908571D01*
X29311428Y-16946666D01*
X29349523Y-17022857D01*
X29349523Y-17099047D01*
X28968571Y-17175238D01*
X30759047Y-17441904D02*
X30492380Y-17060952D01*
X30301904Y-17441904D02*
X30301904Y-16641904D01*
X30606666Y-16641904D01*
X30682857Y-16680000D01*
X30720952Y-16718095D01*
X30759047Y-16794285D01*
X30759047Y-16908571D01*
X30720952Y-16984761D01*
X30682857Y-17022857D01*
X30606666Y-17060952D01*
X30301904Y-17060952D01*
X31406666Y-17403809D02*
X31330476Y-17441904D01*
X31178095Y-17441904D01*
X31101904Y-17403809D01*
X31063809Y-17327619D01*
X31063809Y-17022857D01*
X31101904Y-16946666D01*
X31178095Y-16908571D01*
X31330476Y-16908571D01*
X31406666Y-16946666D01*
X31444761Y-17022857D01*
X31444761Y-17099047D01*
X31063809Y-17175238D01*
X32130476Y-17441904D02*
X32130476Y-17022857D01*
X32092380Y-16946666D01*
X32016190Y-16908571D01*
X31863809Y-16908571D01*
X31787619Y-16946666D01*
X32130476Y-17403809D02*
X32054285Y-17441904D01*
X31863809Y-17441904D01*
X31787619Y-17403809D01*
X31749523Y-17327619D01*
X31749523Y-17251428D01*
X31787619Y-17175238D01*
X31863809Y-17137142D01*
X32054285Y-17137142D01*
X32130476Y-17099047D01*
X32854285Y-17441904D02*
X32854285Y-16641904D01*
X32854285Y-17403809D02*
X32778095Y-17441904D01*
X32625714Y-17441904D01*
X32549523Y-17403809D01*
X32511428Y-17365714D01*
X32473333Y-17289523D01*
X32473333Y-17060952D01*
X32511428Y-16984761D01*
X32549523Y-16946666D01*
X32625714Y-16908571D01*
X32778095Y-16908571D01*
X32854285Y-16946666D01*
X33540000Y-17403809D02*
X33463809Y-17441904D01*
X33311428Y-17441904D01*
X33235238Y-17403809D01*
X33197142Y-17327619D01*
X33197142Y-17022857D01*
X33235238Y-16946666D01*
X33311428Y-16908571D01*
X33463809Y-16908571D01*
X33540000Y-16946666D01*
X33578095Y-17022857D01*
X33578095Y-17099047D01*
X33197142Y-17175238D01*
X33920952Y-17441904D02*
X33920952Y-16908571D01*
X33920952Y-17060952D02*
X33959047Y-16984761D01*
X33997142Y-16946666D01*
X34073333Y-16908571D01*
X34149523Y-16908571D01*
X20206666Y-18041904D02*
X19825714Y-18041904D01*
X19787619Y-18422857D01*
X19825714Y-18384761D01*
X19901904Y-18346666D01*
X20092380Y-18346666D01*
X20168571Y-18384761D01*
X20206666Y-18422857D01*
X20244761Y-18499047D01*
X20244761Y-18689523D01*
X20206666Y-18765714D01*
X20168571Y-18803809D01*
X20092380Y-18841904D01*
X19901904Y-18841904D01*
X19825714Y-18803809D01*
X19787619Y-18765714D01*
X20473333Y-18041904D02*
X20740000Y-18841904D01*
X21006666Y-18041904D01*
X24320952Y-18841904D02*
X24320952Y-18041904D01*
X24511428Y-18041904D01*
X24625714Y-18080000D01*
X24701904Y-18156190D01*
X24740000Y-18232380D01*
X24778095Y-18384761D01*
X24778095Y-18499047D01*
X24740000Y-18651428D01*
X24701904Y-18727619D01*
X24625714Y-18803809D01*
X24511428Y-18841904D01*
X24320952Y-18841904D01*
X25120952Y-18537142D02*
X25730476Y-18537142D01*
X29159047Y-18841904D02*
X29159047Y-18041904D01*
X29349523Y-18041904D01*
X29463809Y-18080000D01*
X29540000Y-18156190D01*
X29578095Y-18232380D01*
X29616190Y-18384761D01*
X29616190Y-18499047D01*
X29578095Y-18651428D01*
X29540000Y-18727619D01*
X29463809Y-18803809D01*
X29349523Y-18841904D01*
X29159047Y-18841904D01*
X29959047Y-18537142D02*
X30568571Y-18537142D01*
X30263809Y-18841904D02*
X30263809Y-18232380D01*
X34416190Y-18080000D02*
X34340000Y-18041904D01*
X34225714Y-18041904D01*
X34111428Y-18080000D01*
X34035238Y-18156190D01*
X33997142Y-18232380D01*
X33959047Y-18384761D01*
X33959047Y-18499047D01*
X33997142Y-18651428D01*
X34035238Y-18727619D01*
X34111428Y-18803809D01*
X34225714Y-18841904D01*
X34301904Y-18841904D01*
X34416190Y-18803809D01*
X34454285Y-18765714D01*
X34454285Y-18499047D01*
X34301904Y-18499047D01*
X34797142Y-18841904D02*
X34797142Y-18041904D01*
X35254285Y-18841904D01*
X35254285Y-18041904D01*
X35635238Y-18841904D02*
X35635238Y-18041904D01*
X35825714Y-18041904D01*
X35940000Y-18080000D01*
X36016190Y-18156190D01*
X36054285Y-18232380D01*
X36092380Y-18384761D01*
X36092380Y-18499047D01*
X36054285Y-18651428D01*
X36016190Y-18727619D01*
X35940000Y-18803809D01*
X35825714Y-18841904D01*
X35635238Y-18841904D01*
D12*
X100822857Y-65857380D02*
X100822857Y-64857380D01*
X100822857Y-65333571D02*
X101394285Y-65333571D01*
X101394285Y-65857380D02*
X101394285Y-64857380D01*
X102251428Y-65809761D02*
X102156190Y-65857380D01*
X101965714Y-65857380D01*
X101870476Y-65809761D01*
X101822857Y-65714523D01*
X101822857Y-65333571D01*
X101870476Y-65238333D01*
X101965714Y-65190714D01*
X102156190Y-65190714D01*
X102251428Y-65238333D01*
X102299047Y-65333571D01*
X102299047Y-65428809D01*
X101822857Y-65524047D01*
X103156190Y-65857380D02*
X103156190Y-65333571D01*
X103108571Y-65238333D01*
X103013333Y-65190714D01*
X102822857Y-65190714D01*
X102727619Y-65238333D01*
X103156190Y-65809761D02*
X103060952Y-65857380D01*
X102822857Y-65857380D01*
X102727619Y-65809761D01*
X102680000Y-65714523D01*
X102680000Y-65619285D01*
X102727619Y-65524047D01*
X102822857Y-65476428D01*
X103060952Y-65476428D01*
X103156190Y-65428809D01*
X103489523Y-65190714D02*
X103870476Y-65190714D01*
X103632380Y-64857380D02*
X103632380Y-65714523D01*
X103680000Y-65809761D01*
X103775238Y-65857380D01*
X103870476Y-65857380D01*
X104584761Y-65809761D02*
X104489523Y-65857380D01*
X104299047Y-65857380D01*
X104203809Y-65809761D01*
X104156190Y-65714523D01*
X104156190Y-65333571D01*
X104203809Y-65238333D01*
X104299047Y-65190714D01*
X104489523Y-65190714D01*
X104584761Y-65238333D01*
X104632380Y-65333571D01*
X104632380Y-65428809D01*
X104156190Y-65524047D01*
X105060952Y-65857380D02*
X105060952Y-65190714D01*
X105060952Y-65381190D02*
X105108571Y-65285952D01*
X105156190Y-65238333D01*
X105251428Y-65190714D01*
X105346666Y-65190714D01*
X106441904Y-65476428D02*
X107203809Y-65476428D01*
X109918095Y-64809761D02*
X109060952Y-66095476D01*
X111775238Y-65476428D02*
X112537142Y-65476428D01*
X112156190Y-65857380D02*
X112156190Y-65095476D01*
D10*
X68688095Y-16641904D02*
X68840476Y-16641904D01*
X68916666Y-16680000D01*
X68992857Y-16756190D01*
X69030952Y-16908571D01*
X69030952Y-17175238D01*
X68992857Y-17327619D01*
X68916666Y-17403809D01*
X68840476Y-17441904D01*
X68688095Y-17441904D01*
X68611904Y-17403809D01*
X68535714Y-17327619D01*
X68497619Y-17175238D01*
X68497619Y-16908571D01*
X68535714Y-16756190D01*
X68611904Y-16680000D01*
X68688095Y-16641904D01*
X69754761Y-17441904D02*
X69373809Y-17441904D01*
X69373809Y-16641904D01*
X70021428Y-17022857D02*
X70288095Y-17022857D01*
X70402380Y-17441904D02*
X70021428Y-17441904D01*
X70021428Y-16641904D01*
X70402380Y-16641904D01*
X70745238Y-17441904D02*
X70745238Y-16641904D01*
X70935714Y-16641904D01*
X71050000Y-16680000D01*
X71126190Y-16756190D01*
X71164285Y-16832380D01*
X71202380Y-16984761D01*
X71202380Y-17099047D01*
X71164285Y-17251428D01*
X71126190Y-17327619D01*
X71050000Y-17403809D01*
X70935714Y-17441904D01*
X70745238Y-17441904D01*
X61469047Y-18841904D02*
X61202380Y-18460952D01*
X61011904Y-18841904D02*
X61011904Y-18041904D01*
X61316666Y-18041904D01*
X61392857Y-18080000D01*
X61430952Y-18118095D01*
X61469047Y-18194285D01*
X61469047Y-18308571D01*
X61430952Y-18384761D01*
X61392857Y-18422857D01*
X61316666Y-18460952D01*
X61011904Y-18460952D01*
X61811904Y-18422857D02*
X62078571Y-18422857D01*
X62192857Y-18841904D02*
X61811904Y-18841904D01*
X61811904Y-18041904D01*
X62192857Y-18041904D01*
X62497619Y-18803809D02*
X62611904Y-18841904D01*
X62802380Y-18841904D01*
X62878571Y-18803809D01*
X62916666Y-18765714D01*
X62954761Y-18689523D01*
X62954761Y-18613333D01*
X62916666Y-18537142D01*
X62878571Y-18499047D01*
X62802380Y-18460952D01*
X62649999Y-18422857D01*
X62573809Y-18384761D01*
X62535714Y-18346666D01*
X62497619Y-18270476D01*
X62497619Y-18194285D01*
X62535714Y-18118095D01*
X62573809Y-18080000D01*
X62649999Y-18041904D01*
X62840476Y-18041904D01*
X62954761Y-18080000D01*
X64364285Y-18765714D02*
X64326190Y-18803809D01*
X64211904Y-18841904D01*
X64135714Y-18841904D01*
X64021428Y-18803809D01*
X63945238Y-18727619D01*
X63907142Y-18651428D01*
X63869047Y-18499047D01*
X63869047Y-18384761D01*
X63907142Y-18232380D01*
X63945238Y-18156190D01*
X64021428Y-18080000D01*
X64135714Y-18041904D01*
X64211904Y-18041904D01*
X64326190Y-18080000D01*
X64364285Y-18118095D01*
X64669047Y-18803809D02*
X64783333Y-18841904D01*
X64973809Y-18841904D01*
X65049999Y-18803809D01*
X65088095Y-18765714D01*
X65126190Y-18689523D01*
X65126190Y-18613333D01*
X65088095Y-18537142D01*
X65049999Y-18499047D01*
X64973809Y-18460952D01*
X64821428Y-18422857D01*
X64745238Y-18384761D01*
X64707142Y-18346666D01*
X64669047Y-18270476D01*
X64669047Y-18194285D01*
X64707142Y-18118095D01*
X64745238Y-18080000D01*
X64821428Y-18041904D01*
X65011904Y-18041904D01*
X65126190Y-18080000D01*
X66078571Y-18841904D02*
X66078571Y-18041904D01*
X66269047Y-18041904D01*
X66383333Y-18080000D01*
X66459523Y-18156190D01*
X66497619Y-18232380D01*
X66535714Y-18384761D01*
X66535714Y-18499047D01*
X66497619Y-18651428D01*
X66459523Y-18727619D01*
X66383333Y-18803809D01*
X66269047Y-18841904D01*
X66078571Y-18841904D01*
X66840476Y-18118095D02*
X66878571Y-18080000D01*
X66954761Y-18041904D01*
X67145238Y-18041904D01*
X67221428Y-18080000D01*
X67259523Y-18118095D01*
X67297619Y-18194285D01*
X67297619Y-18270476D01*
X67259523Y-18384761D01*
X66802380Y-18841904D01*
X67297619Y-18841904D01*
X68859523Y-18841904D02*
X68859523Y-18041904D01*
X69050000Y-18041904D01*
X69164285Y-18080000D01*
X69240476Y-18156190D01*
X69278571Y-18232380D01*
X69316666Y-18384761D01*
X69316666Y-18499047D01*
X69278571Y-18651428D01*
X69240476Y-18727619D01*
X69164285Y-18803809D01*
X69050000Y-18841904D01*
X68859523Y-18841904D01*
X70078571Y-18841904D02*
X69621428Y-18841904D01*
X69850000Y-18841904D02*
X69850000Y-18041904D01*
X69773809Y-18156190D01*
X69697619Y-18232380D01*
X69621428Y-18270476D01*
X71640476Y-18841904D02*
X71640476Y-18041904D01*
X71830952Y-18041904D01*
X71945238Y-18080000D01*
X72021428Y-18156190D01*
X72059523Y-18232380D01*
X72097619Y-18384761D01*
X72097619Y-18499047D01*
X72059523Y-18651428D01*
X72021428Y-18727619D01*
X71945238Y-18803809D01*
X71830952Y-18841904D01*
X71640476Y-18841904D01*
X72592857Y-18041904D02*
X72669047Y-18041904D01*
X72745238Y-18080000D01*
X72783333Y-18118095D01*
X72821428Y-18194285D01*
X72859523Y-18346666D01*
X72859523Y-18537142D01*
X72821428Y-18689523D01*
X72783333Y-18765714D01*
X72745238Y-18803809D01*
X72669047Y-18841904D01*
X72592857Y-18841904D01*
X72516666Y-18803809D01*
X72478571Y-18765714D01*
X72440476Y-18689523D01*
X72402380Y-18537142D01*
X72402380Y-18346666D01*
X72440476Y-18194285D01*
X72478571Y-18118095D01*
X72516666Y-18080000D01*
X72592857Y-18041904D01*
X74230952Y-18080000D02*
X74154761Y-18041904D01*
X74040476Y-18041904D01*
X73926190Y-18080000D01*
X73850000Y-18156190D01*
X73811904Y-18232380D01*
X73773809Y-18384761D01*
X73773809Y-18499047D01*
X73811904Y-18651428D01*
X73850000Y-18727619D01*
X73926190Y-18803809D01*
X74040476Y-18841904D01*
X74116666Y-18841904D01*
X74230952Y-18803809D01*
X74269047Y-18765714D01*
X74269047Y-18499047D01*
X74116666Y-18499047D01*
X74611904Y-18841904D02*
X74611904Y-18041904D01*
X75069047Y-18841904D01*
X75069047Y-18041904D01*
X75450000Y-18841904D02*
X75450000Y-18041904D01*
X75640476Y-18041904D01*
X75754761Y-18080000D01*
X75830952Y-18156190D01*
X75869047Y-18232380D01*
X75907142Y-18384761D01*
X75907142Y-18499047D01*
X75869047Y-18651428D01*
X75830952Y-18727619D01*
X75754761Y-18803809D01*
X75640476Y-18841904D01*
X75450000Y-18841904D01*
X76783333Y-18041904D02*
X77278571Y-18041904D01*
X77011904Y-18346666D01*
X77126190Y-18346666D01*
X77202380Y-18384761D01*
X77240476Y-18422857D01*
X77278571Y-18499047D01*
X77278571Y-18689523D01*
X77240476Y-18765714D01*
X77202380Y-18803809D01*
X77126190Y-18841904D01*
X76897619Y-18841904D01*
X76821428Y-18803809D01*
X76783333Y-18765714D01*
X77507142Y-18041904D02*
X77773809Y-18841904D01*
X78040476Y-18041904D01*
X78230952Y-18041904D02*
X78726190Y-18041904D01*
X78459523Y-18346666D01*
X78573809Y-18346666D01*
X78650000Y-18384761D01*
X78688095Y-18422857D01*
X78726190Y-18499047D01*
X78726190Y-18689523D01*
X78688095Y-18765714D01*
X78650000Y-18803809D01*
X78573809Y-18841904D01*
X78345238Y-18841904D01*
X78269047Y-18803809D01*
X78230952Y-18765714D01*
X85570714Y-18292857D02*
X85837380Y-18292857D01*
X85951666Y-18711904D02*
X85570714Y-18711904D01*
X85570714Y-17911904D01*
X85951666Y-17911904D01*
X86294523Y-18178571D02*
X86294523Y-18711904D01*
X86294523Y-18254761D02*
X86332619Y-18216666D01*
X86408809Y-18178571D01*
X86523095Y-18178571D01*
X86599285Y-18216666D01*
X86637380Y-18292857D01*
X86637380Y-18711904D01*
X87361190Y-18673809D02*
X87285000Y-18711904D01*
X87132619Y-18711904D01*
X87056428Y-18673809D01*
X87018333Y-18635714D01*
X86980238Y-18559523D01*
X86980238Y-18330952D01*
X87018333Y-18254761D01*
X87056428Y-18216666D01*
X87132619Y-18178571D01*
X87285000Y-18178571D01*
X87361190Y-18216666D01*
X87818333Y-18711904D02*
X87742142Y-18673809D01*
X87704047Y-18597619D01*
X87704047Y-17911904D01*
X88237380Y-18711904D02*
X88161190Y-18673809D01*
X88123095Y-18635714D01*
X88085000Y-18559523D01*
X88085000Y-18330952D01*
X88123095Y-18254761D01*
X88161190Y-18216666D01*
X88237380Y-18178571D01*
X88351666Y-18178571D01*
X88427857Y-18216666D01*
X88465952Y-18254761D01*
X88504047Y-18330952D01*
X88504047Y-18559523D01*
X88465952Y-18635714D01*
X88427857Y-18673809D01*
X88351666Y-18711904D01*
X88237380Y-18711904D01*
X88808809Y-18673809D02*
X88885000Y-18711904D01*
X89037380Y-18711904D01*
X89113571Y-18673809D01*
X89151666Y-18597619D01*
X89151666Y-18559523D01*
X89113571Y-18483333D01*
X89037380Y-18445238D01*
X88923095Y-18445238D01*
X88846904Y-18407142D01*
X88808809Y-18330952D01*
X88808809Y-18292857D01*
X88846904Y-18216666D01*
X88923095Y-18178571D01*
X89037380Y-18178571D01*
X89113571Y-18216666D01*
X89837380Y-18178571D02*
X89837380Y-18711904D01*
X89494523Y-18178571D02*
X89494523Y-18597619D01*
X89532619Y-18673809D01*
X89608809Y-18711904D01*
X89723095Y-18711904D01*
X89799285Y-18673809D01*
X89837380Y-18635714D01*
X90218333Y-18711904D02*
X90218333Y-18178571D01*
X90218333Y-18330952D02*
X90256428Y-18254761D01*
X90294523Y-18216666D01*
X90370714Y-18178571D01*
X90446904Y-18178571D01*
X91018333Y-18673809D02*
X90942142Y-18711904D01*
X90789761Y-18711904D01*
X90713571Y-18673809D01*
X90675476Y-18597619D01*
X90675476Y-18292857D01*
X90713571Y-18216666D01*
X90789761Y-18178571D01*
X90942142Y-18178571D01*
X91018333Y-18216666D01*
X91056428Y-18292857D01*
X91056428Y-18369047D01*
X90675476Y-18445238D01*
X92351666Y-18711904D02*
X92351666Y-17911904D01*
X92351666Y-18673809D02*
X92275476Y-18711904D01*
X92123095Y-18711904D01*
X92046904Y-18673809D01*
X92008809Y-18635714D01*
X91970714Y-18559523D01*
X91970714Y-18330952D01*
X92008809Y-18254761D01*
X92046904Y-18216666D01*
X92123095Y-18178571D01*
X92275476Y-18178571D01*
X92351666Y-18216666D01*
X92846904Y-18711904D02*
X92770714Y-18673809D01*
X92732619Y-18635714D01*
X92694523Y-18559523D01*
X92694523Y-18330952D01*
X92732619Y-18254761D01*
X92770714Y-18216666D01*
X92846904Y-18178571D01*
X92961190Y-18178571D01*
X93037380Y-18216666D01*
X93075476Y-18254761D01*
X93113571Y-18330952D01*
X93113571Y-18559523D01*
X93075476Y-18635714D01*
X93037380Y-18673809D01*
X92961190Y-18711904D01*
X92846904Y-18711904D01*
X93570714Y-18711904D02*
X93494523Y-18673809D01*
X93456428Y-18635714D01*
X93418333Y-18559523D01*
X93418333Y-18330952D01*
X93456428Y-18254761D01*
X93494523Y-18216666D01*
X93570714Y-18178571D01*
X93685000Y-18178571D01*
X93761190Y-18216666D01*
X93799285Y-18254761D01*
X93837380Y-18330952D01*
X93837380Y-18559523D01*
X93799285Y-18635714D01*
X93761190Y-18673809D01*
X93685000Y-18711904D01*
X93570714Y-18711904D01*
X94180238Y-18711904D02*
X94180238Y-18178571D01*
X94180238Y-18330952D02*
X94218333Y-18254761D01*
X94256428Y-18216666D01*
X94332619Y-18178571D01*
X94408809Y-18178571D01*
X90713571Y-20073809D02*
X90789761Y-20111904D01*
X90942142Y-20111904D01*
X91018333Y-20073809D01*
X91056428Y-19997619D01*
X91056428Y-19959523D01*
X91018333Y-19883333D01*
X90942142Y-19845238D01*
X90827857Y-19845238D01*
X90751666Y-19807142D01*
X90713571Y-19730952D01*
X90713571Y-19692857D01*
X90751666Y-19616666D01*
X90827857Y-19578571D01*
X90942142Y-19578571D01*
X91018333Y-19616666D01*
X91704047Y-20073809D02*
X91627857Y-20111904D01*
X91475476Y-20111904D01*
X91399285Y-20073809D01*
X91361190Y-19997619D01*
X91361190Y-19692857D01*
X91399285Y-19616666D01*
X91475476Y-19578571D01*
X91627857Y-19578571D01*
X91704047Y-19616666D01*
X91742142Y-19692857D01*
X91742142Y-19769047D01*
X91361190Y-19845238D01*
X92085000Y-19578571D02*
X92085000Y-20111904D01*
X92085000Y-19654761D02*
X92123095Y-19616666D01*
X92199285Y-19578571D01*
X92313571Y-19578571D01*
X92389761Y-19616666D01*
X92427857Y-19692857D01*
X92427857Y-20111904D01*
X92770714Y-20073809D02*
X92846904Y-20111904D01*
X92999285Y-20111904D01*
X93075476Y-20073809D01*
X93113571Y-19997619D01*
X93113571Y-19959523D01*
X93075476Y-19883333D01*
X92999285Y-19845238D01*
X92885000Y-19845238D01*
X92808809Y-19807142D01*
X92770714Y-19730952D01*
X92770714Y-19692857D01*
X92808809Y-19616666D01*
X92885000Y-19578571D01*
X92999285Y-19578571D01*
X93075476Y-19616666D01*
X93570714Y-20111904D02*
X93494523Y-20073809D01*
X93456428Y-20035714D01*
X93418333Y-19959523D01*
X93418333Y-19730952D01*
X93456428Y-19654761D01*
X93494523Y-19616666D01*
X93570714Y-19578571D01*
X93685000Y-19578571D01*
X93761190Y-19616666D01*
X93799285Y-19654761D01*
X93837380Y-19730952D01*
X93837380Y-19959523D01*
X93799285Y-20035714D01*
X93761190Y-20073809D01*
X93685000Y-20111904D01*
X93570714Y-20111904D01*
X94180238Y-20111904D02*
X94180238Y-19578571D01*
X94180238Y-19730952D02*
X94218333Y-19654761D01*
X94256428Y-19616666D01*
X94332619Y-19578571D01*
X94408809Y-19578571D01*
D13*
X101008571Y-80319285D02*
X99508571Y-80319285D01*
X99508571Y-79962142D01*
X99580000Y-79747857D01*
X99722857Y-79605000D01*
X99865714Y-79533571D01*
X100151428Y-79462142D01*
X100365714Y-79462142D01*
X100651428Y-79533571D01*
X100794285Y-79605000D01*
X100937142Y-79747857D01*
X101008571Y-79962142D01*
X101008571Y-80319285D01*
X101008571Y-78605000D02*
X100937142Y-78747857D01*
X100865714Y-78819285D01*
X100722857Y-78890714D01*
X100294285Y-78890714D01*
X100151428Y-78819285D01*
X100080000Y-78747857D01*
X100008571Y-78605000D01*
X100008571Y-78390714D01*
X100080000Y-78247857D01*
X100151428Y-78176428D01*
X100294285Y-78105000D01*
X100722857Y-78105000D01*
X100865714Y-78176428D01*
X100937142Y-78247857D01*
X101008571Y-78390714D01*
X101008571Y-78605000D01*
X101008571Y-77247857D02*
X100937142Y-77390714D01*
X100865714Y-77462142D01*
X100722857Y-77533571D01*
X100294285Y-77533571D01*
X100151428Y-77462142D01*
X100080000Y-77390714D01*
X100008571Y-77247857D01*
X100008571Y-77033571D01*
X100080000Y-76890714D01*
X100151428Y-76819285D01*
X100294285Y-76747857D01*
X100722857Y-76747857D01*
X100865714Y-76819285D01*
X100937142Y-76890714D01*
X101008571Y-77033571D01*
X101008571Y-77247857D01*
X101008571Y-76105000D02*
X100008571Y-76105000D01*
X100294285Y-76105000D02*
X100151428Y-76033571D01*
X100080000Y-75962142D01*
X100008571Y-75819285D01*
X100008571Y-75676428D01*
D12*
X18867380Y-59641904D02*
X17867380Y-59641904D01*
X17867380Y-59403809D01*
X17915000Y-59260952D01*
X18010238Y-59165714D01*
X18105476Y-59118095D01*
X18295952Y-59070476D01*
X18438809Y-59070476D01*
X18629285Y-59118095D01*
X18724523Y-59165714D01*
X18819761Y-59260952D01*
X18867380Y-59403809D01*
X18867380Y-59641904D01*
X18819761Y-58689523D02*
X18867380Y-58546666D01*
X18867380Y-58308571D01*
X18819761Y-58213333D01*
X18772142Y-58165714D01*
X18676904Y-58118095D01*
X18581666Y-58118095D01*
X18486428Y-58165714D01*
X18438809Y-58213333D01*
X18391190Y-58308571D01*
X18343571Y-58499047D01*
X18295952Y-58594285D01*
X18248333Y-58641904D01*
X18153095Y-58689523D01*
X18057857Y-58689523D01*
X17962619Y-58641904D01*
X17915000Y-58594285D01*
X17867380Y-58499047D01*
X17867380Y-58260952D01*
X17915000Y-58118095D01*
X18867380Y-57165714D02*
X18867380Y-57737142D01*
X18867380Y-57451428D02*
X17867380Y-57451428D01*
X18010238Y-57546666D01*
X18105476Y-57641904D01*
X18153095Y-57737142D01*
X18295952Y-56594285D02*
X18248333Y-56689523D01*
X18200714Y-56737142D01*
X18105476Y-56784761D01*
X18057857Y-56784761D01*
X17962619Y-56737142D01*
X17915000Y-56689523D01*
X17867380Y-56594285D01*
X17867380Y-56403809D01*
X17915000Y-56308571D01*
X17962619Y-56260952D01*
X18057857Y-56213333D01*
X18105476Y-56213333D01*
X18200714Y-56260952D01*
X18248333Y-56308571D01*
X18295952Y-56403809D01*
X18295952Y-56594285D01*
X18343571Y-56689523D01*
X18391190Y-56737142D01*
X18486428Y-56784761D01*
X18676904Y-56784761D01*
X18772142Y-56737142D01*
X18819761Y-56689523D01*
X18867380Y-56594285D01*
X18867380Y-56403809D01*
X18819761Y-56308571D01*
X18772142Y-56260952D01*
X18676904Y-56213333D01*
X18486428Y-56213333D01*
X18391190Y-56260952D01*
X18343571Y-56308571D01*
X18295952Y-56403809D01*
X18343571Y-55451428D02*
X18391190Y-55308571D01*
X18438809Y-55260952D01*
X18534047Y-55213333D01*
X18676904Y-55213333D01*
X18772142Y-55260952D01*
X18819761Y-55308571D01*
X18867380Y-55403809D01*
X18867380Y-55784761D01*
X17867380Y-55784761D01*
X17867380Y-55451428D01*
X17915000Y-55356190D01*
X17962619Y-55308571D01*
X18057857Y-55260952D01*
X18153095Y-55260952D01*
X18248333Y-55308571D01*
X18295952Y-55356190D01*
X18343571Y-55451428D01*
X18343571Y-55784761D01*
X17962619Y-54832380D02*
X17915000Y-54784761D01*
X17867380Y-54689523D01*
X17867380Y-54451428D01*
X17915000Y-54356190D01*
X17962619Y-54308571D01*
X18057857Y-54260952D01*
X18153095Y-54260952D01*
X18295952Y-54308571D01*
X18867380Y-54880000D01*
X18867380Y-54260952D01*
X17867380Y-53641904D02*
X17867380Y-53546666D01*
X17915000Y-53451428D01*
X17962619Y-53403809D01*
X18057857Y-53356190D01*
X18248333Y-53308571D01*
X18486428Y-53308571D01*
X18676904Y-53356190D01*
X18772142Y-53403809D01*
X18819761Y-53451428D01*
X18867380Y-53546666D01*
X18867380Y-53641904D01*
X18819761Y-53737142D01*
X18772142Y-53784761D01*
X18676904Y-53832380D01*
X18486428Y-53880000D01*
X18248333Y-53880000D01*
X18057857Y-53832380D01*
X17962619Y-53784761D01*
X17915000Y-53737142D01*
X17867380Y-53641904D01*
X18486428Y-52880000D02*
X18486428Y-52118095D01*
X18867380Y-52499047D02*
X18105476Y-52499047D01*
D10*
X17441904Y-35000952D02*
X16641904Y-35000952D01*
X17441904Y-34543809D02*
X16984761Y-34886666D01*
X16641904Y-34543809D02*
X17099047Y-35000952D01*
X17403809Y-33896190D02*
X17441904Y-33972380D01*
X17441904Y-34124761D01*
X17403809Y-34200952D01*
X17327619Y-34239047D01*
X17022857Y-34239047D01*
X16946666Y-34200952D01*
X16908571Y-34124761D01*
X16908571Y-33972380D01*
X16946666Y-33896190D01*
X17022857Y-33858095D01*
X17099047Y-33858095D01*
X17175238Y-34239047D01*
X16908571Y-33591428D02*
X17441904Y-33400952D01*
X16908571Y-33210476D02*
X17441904Y-33400952D01*
X17632380Y-33477142D01*
X17670476Y-33515238D01*
X17708571Y-33591428D01*
X17441904Y-32905714D02*
X16641904Y-32905714D01*
X16641904Y-32600952D01*
X16680000Y-32524761D01*
X16718095Y-32486666D01*
X16794285Y-32448571D01*
X16908571Y-32448571D01*
X16984761Y-32486666D01*
X17022857Y-32524761D01*
X17060952Y-32600952D01*
X17060952Y-32905714D01*
X17441904Y-31762857D02*
X17022857Y-31762857D01*
X16946666Y-31800952D01*
X16908571Y-31877142D01*
X16908571Y-32029523D01*
X16946666Y-32105714D01*
X17403809Y-31762857D02*
X17441904Y-31839047D01*
X17441904Y-32029523D01*
X17403809Y-32105714D01*
X17327619Y-32143809D01*
X17251428Y-32143809D01*
X17175238Y-32105714D01*
X17137142Y-32029523D01*
X17137142Y-31839047D01*
X17099047Y-31762857D01*
X17441904Y-31039047D02*
X16641904Y-31039047D01*
X17403809Y-31039047D02*
X17441904Y-31115238D01*
X17441904Y-31267619D01*
X17403809Y-31343809D01*
X17365714Y-31381904D01*
X17289523Y-31420000D01*
X17060952Y-31420000D01*
X16984761Y-31381904D01*
X16946666Y-31343809D01*
X16908571Y-31267619D01*
X16908571Y-31115238D01*
X16946666Y-31039047D01*
X18841904Y-36962857D02*
X18460952Y-37229523D01*
X18841904Y-37420000D02*
X18041904Y-37420000D01*
X18041904Y-37115238D01*
X18080000Y-37039047D01*
X18118095Y-37000952D01*
X18194285Y-36962857D01*
X18308571Y-36962857D01*
X18384761Y-37000952D01*
X18422857Y-37039047D01*
X18460952Y-37115238D01*
X18460952Y-37420000D01*
X18041904Y-36696190D02*
X18841904Y-36162857D01*
X18041904Y-36162857D02*
X18841904Y-36696190D01*
X18041904Y-34753333D02*
X18041904Y-34296190D01*
X18841904Y-34524761D02*
X18041904Y-34524761D01*
X18041904Y-34105714D02*
X18841904Y-33572380D01*
X18041904Y-33572380D02*
X18841904Y-34105714D01*
X18537142Y-32048571D02*
X18537142Y-31439047D01*
X18537142Y-29229523D02*
X18537142Y-28620000D01*
X18841904Y-28924761D02*
X18232380Y-28924761D01*
X45047142Y-17441904D02*
X44780476Y-17060952D01*
X44590000Y-17441904D02*
X44590000Y-16641904D01*
X44894761Y-16641904D01*
X44970952Y-16680000D01*
X45009047Y-16718095D01*
X45047142Y-16794285D01*
X45047142Y-16908571D01*
X45009047Y-16984761D01*
X44970952Y-17022857D01*
X44894761Y-17060952D01*
X44590000Y-17060952D01*
X45809047Y-16680000D02*
X45732857Y-16641904D01*
X45618571Y-16641904D01*
X45504285Y-16680000D01*
X45428095Y-16756190D01*
X45390000Y-16832380D01*
X45351904Y-16984761D01*
X45351904Y-17099047D01*
X45390000Y-17251428D01*
X45428095Y-17327619D01*
X45504285Y-17403809D01*
X45618571Y-17441904D01*
X45694761Y-17441904D01*
X45809047Y-17403809D01*
X45847142Y-17365714D01*
X45847142Y-17099047D01*
X45694761Y-17099047D01*
X46456666Y-17022857D02*
X46570952Y-17060952D01*
X46609047Y-17099047D01*
X46647142Y-17175238D01*
X46647142Y-17289523D01*
X46609047Y-17365714D01*
X46570952Y-17403809D01*
X46494761Y-17441904D01*
X46190000Y-17441904D01*
X46190000Y-16641904D01*
X46456666Y-16641904D01*
X46532857Y-16680000D01*
X46570952Y-16718095D01*
X46609047Y-16794285D01*
X46609047Y-16870476D01*
X46570952Y-16946666D01*
X46532857Y-16984761D01*
X46456666Y-17022857D01*
X46190000Y-17022857D01*
X47980476Y-17441904D02*
X47599523Y-17441904D01*
X47599523Y-16641904D01*
X48247142Y-17022857D02*
X48513809Y-17022857D01*
X48628095Y-17441904D02*
X48247142Y-17441904D01*
X48247142Y-16641904D01*
X48628095Y-16641904D01*
X48970952Y-17441904D02*
X48970952Y-16641904D01*
X49161428Y-16641904D01*
X49275714Y-16680000D01*
X49351904Y-16756190D01*
X49390000Y-16832380D01*
X49428095Y-16984761D01*
X49428095Y-17099047D01*
X49390000Y-17251428D01*
X49351904Y-17327619D01*
X49275714Y-17403809D01*
X49161428Y-17441904D01*
X48970952Y-17441904D01*
X42437619Y-18080000D02*
X42361428Y-18041904D01*
X42247142Y-18041904D01*
X42132857Y-18080000D01*
X42056666Y-18156190D01*
X42018571Y-18232380D01*
X41980476Y-18384761D01*
X41980476Y-18499047D01*
X42018571Y-18651428D01*
X42056666Y-18727619D01*
X42132857Y-18803809D01*
X42247142Y-18841904D01*
X42323333Y-18841904D01*
X42437619Y-18803809D01*
X42475714Y-18765714D01*
X42475714Y-18499047D01*
X42323333Y-18499047D01*
X44913809Y-18422857D02*
X45028095Y-18460952D01*
X45066190Y-18499047D01*
X45104285Y-18575238D01*
X45104285Y-18689523D01*
X45066190Y-18765714D01*
X45028095Y-18803809D01*
X44951904Y-18841904D01*
X44647142Y-18841904D01*
X44647142Y-18041904D01*
X44913809Y-18041904D01*
X44990000Y-18080000D01*
X45028095Y-18118095D01*
X45066190Y-18194285D01*
X45066190Y-18270476D01*
X45028095Y-18346666D01*
X44990000Y-18384761D01*
X44913809Y-18422857D01*
X44647142Y-18422857D01*
X47085238Y-18080000D02*
X47009047Y-18041904D01*
X46894761Y-18041904D01*
X46780476Y-18080000D01*
X46704285Y-18156190D01*
X46666190Y-18232380D01*
X46628095Y-18384761D01*
X46628095Y-18499047D01*
X46666190Y-18651428D01*
X46704285Y-18727619D01*
X46780476Y-18803809D01*
X46894761Y-18841904D01*
X46970952Y-18841904D01*
X47085238Y-18803809D01*
X47123333Y-18765714D01*
X47123333Y-18499047D01*
X46970952Y-18499047D01*
X47466190Y-18841904D02*
X47466190Y-18041904D01*
X47923333Y-18841904D01*
X47923333Y-18041904D01*
X48304285Y-18841904D02*
X48304285Y-18041904D01*
X48494761Y-18041904D01*
X48609047Y-18080000D01*
X48685238Y-18156190D01*
X48723333Y-18232380D01*
X48761428Y-18384761D01*
X48761428Y-18499047D01*
X48723333Y-18651428D01*
X48685238Y-18727619D01*
X48609047Y-18803809D01*
X48494761Y-18841904D01*
X48304285Y-18841904D01*
X50780476Y-18841904D02*
X50513809Y-18460952D01*
X50323333Y-18841904D02*
X50323333Y-18041904D01*
X50628095Y-18041904D01*
X50704285Y-18080000D01*
X50742380Y-18118095D01*
X50780476Y-18194285D01*
X50780476Y-18308571D01*
X50742380Y-18384761D01*
X50704285Y-18422857D01*
X50628095Y-18460952D01*
X50323333Y-18460952D01*
X61469047Y-51796904D02*
X61202380Y-51415952D01*
X61011904Y-51796904D02*
X61011904Y-50996904D01*
X61316666Y-50996904D01*
X61392857Y-51035000D01*
X61430952Y-51073095D01*
X61469047Y-51149285D01*
X61469047Y-51263571D01*
X61430952Y-51339761D01*
X61392857Y-51377857D01*
X61316666Y-51415952D01*
X61011904Y-51415952D01*
X61811904Y-51377857D02*
X62078571Y-51377857D01*
X62192857Y-51796904D02*
X61811904Y-51796904D01*
X61811904Y-50996904D01*
X62192857Y-50996904D01*
X62497619Y-51758809D02*
X62611904Y-51796904D01*
X62802380Y-51796904D01*
X62878571Y-51758809D01*
X62916666Y-51720714D01*
X62954761Y-51644523D01*
X62954761Y-51568333D01*
X62916666Y-51492142D01*
X62878571Y-51454047D01*
X62802380Y-51415952D01*
X62649999Y-51377857D01*
X62573809Y-51339761D01*
X62535714Y-51301666D01*
X62497619Y-51225476D01*
X62497619Y-51149285D01*
X62535714Y-51073095D01*
X62573809Y-51035000D01*
X62649999Y-50996904D01*
X62840476Y-50996904D01*
X62954761Y-51035000D01*
X64364285Y-51720714D02*
X64326190Y-51758809D01*
X64211904Y-51796904D01*
X64135714Y-51796904D01*
X64021428Y-51758809D01*
X63945238Y-51682619D01*
X63907142Y-51606428D01*
X63869047Y-51454047D01*
X63869047Y-51339761D01*
X63907142Y-51187380D01*
X63945238Y-51111190D01*
X64021428Y-51035000D01*
X64135714Y-50996904D01*
X64211904Y-50996904D01*
X64326190Y-51035000D01*
X64364285Y-51073095D01*
X64669047Y-51758809D02*
X64783333Y-51796904D01*
X64973809Y-51796904D01*
X65049999Y-51758809D01*
X65088095Y-51720714D01*
X65126190Y-51644523D01*
X65126190Y-51568333D01*
X65088095Y-51492142D01*
X65049999Y-51454047D01*
X64973809Y-51415952D01*
X64821428Y-51377857D01*
X64745238Y-51339761D01*
X64707142Y-51301666D01*
X64669047Y-51225476D01*
X64669047Y-51149285D01*
X64707142Y-51073095D01*
X64745238Y-51035000D01*
X64821428Y-50996904D01*
X65011904Y-50996904D01*
X65126190Y-51035000D01*
X66078571Y-51796904D02*
X66078571Y-50996904D01*
X66269047Y-50996904D01*
X66383333Y-51035000D01*
X66459523Y-51111190D01*
X66497619Y-51187380D01*
X66535714Y-51339761D01*
X66535714Y-51454047D01*
X66497619Y-51606428D01*
X66459523Y-51682619D01*
X66383333Y-51758809D01*
X66269047Y-51796904D01*
X66078571Y-51796904D01*
X66840476Y-51073095D02*
X66878571Y-51035000D01*
X66954761Y-50996904D01*
X67145238Y-50996904D01*
X67221428Y-51035000D01*
X67259523Y-51073095D01*
X67297619Y-51149285D01*
X67297619Y-51225476D01*
X67259523Y-51339761D01*
X66802380Y-51796904D01*
X67297619Y-51796904D01*
X68859523Y-51796904D02*
X68859523Y-50996904D01*
X69050000Y-50996904D01*
X69164285Y-51035000D01*
X69240476Y-51111190D01*
X69278571Y-51187380D01*
X69316666Y-51339761D01*
X69316666Y-51454047D01*
X69278571Y-51606428D01*
X69240476Y-51682619D01*
X69164285Y-51758809D01*
X69050000Y-51796904D01*
X68859523Y-51796904D01*
X70078571Y-51796904D02*
X69621428Y-51796904D01*
X69850000Y-51796904D02*
X69850000Y-50996904D01*
X69773809Y-51111190D01*
X69697619Y-51187380D01*
X69621428Y-51225476D01*
X71640476Y-51796904D02*
X71640476Y-50996904D01*
X71830952Y-50996904D01*
X71945238Y-51035000D01*
X72021428Y-51111190D01*
X72059523Y-51187380D01*
X72097619Y-51339761D01*
X72097619Y-51454047D01*
X72059523Y-51606428D01*
X72021428Y-51682619D01*
X71945238Y-51758809D01*
X71830952Y-51796904D01*
X71640476Y-51796904D01*
X72592857Y-50996904D02*
X72669047Y-50996904D01*
X72745238Y-51035000D01*
X72783333Y-51073095D01*
X72821428Y-51149285D01*
X72859523Y-51301666D01*
X72859523Y-51492142D01*
X72821428Y-51644523D01*
X72783333Y-51720714D01*
X72745238Y-51758809D01*
X72669047Y-51796904D01*
X72592857Y-51796904D01*
X72516666Y-51758809D01*
X72478571Y-51720714D01*
X72440476Y-51644523D01*
X72402380Y-51492142D01*
X72402380Y-51301666D01*
X72440476Y-51149285D01*
X72478571Y-51073095D01*
X72516666Y-51035000D01*
X72592857Y-50996904D01*
X74230952Y-51035000D02*
X74154761Y-50996904D01*
X74040476Y-50996904D01*
X73926190Y-51035000D01*
X73850000Y-51111190D01*
X73811904Y-51187380D01*
X73773809Y-51339761D01*
X73773809Y-51454047D01*
X73811904Y-51606428D01*
X73850000Y-51682619D01*
X73926190Y-51758809D01*
X74040476Y-51796904D01*
X74116666Y-51796904D01*
X74230952Y-51758809D01*
X74269047Y-51720714D01*
X74269047Y-51454047D01*
X74116666Y-51454047D01*
X74611904Y-51796904D02*
X74611904Y-50996904D01*
X75069047Y-51796904D01*
X75069047Y-50996904D01*
X75450000Y-51796904D02*
X75450000Y-50996904D01*
X75640476Y-50996904D01*
X75754761Y-51035000D01*
X75830952Y-51111190D01*
X75869047Y-51187380D01*
X75907142Y-51339761D01*
X75907142Y-51454047D01*
X75869047Y-51606428D01*
X75830952Y-51682619D01*
X75754761Y-51758809D01*
X75640476Y-51796904D01*
X75450000Y-51796904D01*
X76783333Y-50996904D02*
X77278571Y-50996904D01*
X77011904Y-51301666D01*
X77126190Y-51301666D01*
X77202380Y-51339761D01*
X77240476Y-51377857D01*
X77278571Y-51454047D01*
X77278571Y-51644523D01*
X77240476Y-51720714D01*
X77202380Y-51758809D01*
X77126190Y-51796904D01*
X76897619Y-51796904D01*
X76821428Y-51758809D01*
X76783333Y-51720714D01*
X77507142Y-50996904D02*
X77773809Y-51796904D01*
X78040476Y-50996904D01*
X78230952Y-50996904D02*
X78726190Y-50996904D01*
X78459523Y-51301666D01*
X78573809Y-51301666D01*
X78650000Y-51339761D01*
X78688095Y-51377857D01*
X78726190Y-51454047D01*
X78726190Y-51644523D01*
X78688095Y-51720714D01*
X78650000Y-51758809D01*
X78573809Y-51796904D01*
X78345238Y-51796904D01*
X78269047Y-51758809D01*
X78230952Y-51720714D01*
D11*
X80010000Y-128905000D02*
X78740000Y-127000000D01*
X78740000Y-127000000D02*
X77470000Y-128905000D01*
X78740000Y-135255000D02*
X78740000Y-127000000D01*
X77470000Y-128905000D02*
X80010000Y-128905000D01*
X66040000Y-128905000D02*
X64770000Y-127000000D01*
X63500000Y-128905000D02*
X66040000Y-128905000D01*
X64770000Y-127000000D02*
X63500000Y-128905000D01*
X64770000Y-135255000D02*
X64770000Y-127000000D01*
X71755000Y-135490000D02*
X71755000Y-114220000D01*
X56195000Y-135490000D02*
X87315000Y-135490000D01*
X87315000Y-114220000D02*
X87315000Y-135490000D01*
X71755000Y-114220000D02*
X87315000Y-114220000D01*
X56195000Y-114220000D02*
X56195000Y-135490000D01*
X71755000Y-114220000D02*
X56195000Y-114220000D01*
X23495000Y-75565000D02*
X23495000Y-70485000D01*
X23495000Y-70485000D02*
X74295000Y-70485000D01*
X74295000Y-70485000D02*
X74295000Y-75565000D01*
X74295000Y-75565000D02*
X23495000Y-75565000D01*
X40640000Y-22860000D02*
G75*
G03*
X40640000Y-22860000I-1270000J0D01*
G01*
X40640000Y-20955000D02*
X40640000Y-19685000D01*
X41275000Y-19050000D02*
X41275000Y-21590000D01*
X51435000Y-21590000D02*
X41275000Y-21590000D01*
X51435000Y-19050000D02*
X51435000Y-21590000D01*
X41275000Y-19050000D02*
X51435000Y-19050000D01*
X44450000Y-22860000D02*
G75*
G03*
X44450000Y-22860000I-1270000J0D01*
G01*
X45085000Y-24130000D02*
X46355000Y-24130000D01*
X27940000Y-88265000D02*
X35560000Y-88265000D01*
X35560000Y-88265000D02*
X35560000Y-103505000D01*
X35560000Y-103505000D02*
X27940000Y-103505000D01*
X27940000Y-103505000D02*
X27940000Y-88265000D01*
X80655000Y-142871600D02*
X80655000Y-140331600D01*
X70495000Y-140331600D02*
X80655000Y-140331600D01*
X70495000Y-142871600D02*
X70495000Y-140331600D01*
X80655000Y-142871600D02*
X70495000Y-142871600D01*
X73035000Y-145411600D02*
X73035000Y-142871600D01*
D14*
X78075000Y-144141600D02*
G75*
G03*
X78075000Y-144141600I-2500000J0D01*
G01*
D11*
X73014452Y-142780132D02*
G75*
G02*
X75575000Y-141241600I2560548J-1361468D01*
G01*
X73014452Y-145503068D02*
G75*
G03*
X75575000Y-147041600I2560548J1361468D01*
G01*
X75575000Y-147041600D02*
G75*
G03*
X78475000Y-144141600I0J2900000D01*
G01*
X78475000Y-144141600D02*
G75*
G03*
X75575000Y-141241600I-2900000J0D01*
G01*
X19255000Y-61390000D02*
X22655000Y-61390000D01*
X18767305Y-60686990D02*
G75*
G03*
X19255000Y-61390000I2187695J996990D01*
G01*
X23142695Y-60686990D02*
G75*
G02*
X22655000Y-61390000I-2187695J996990D01*
G01*
X18770121Y-58696873D02*
G75*
G02*
X20955000Y-57290000I2184879J-993127D01*
G01*
X23139879Y-58696873D02*
G75*
G03*
X20955000Y-57290000I-2184879J-993127D01*
G01*
X40005000Y-114220000D02*
X24445000Y-114220000D01*
X24445000Y-114220000D02*
X24445000Y-135490000D01*
X40005000Y-114220000D02*
X55565000Y-114220000D01*
X55565000Y-114220000D02*
X55565000Y-135490000D01*
X24445000Y-135490000D02*
X55565000Y-135490000D01*
X40005000Y-135490000D02*
X40005000Y-114220000D01*
X33020000Y-135255000D02*
X33020000Y-127000000D01*
X33020000Y-127000000D02*
X31750000Y-128905000D01*
X31750000Y-128905000D02*
X34290000Y-128905000D01*
X34290000Y-128905000D02*
X33020000Y-127000000D01*
X45720000Y-128905000D02*
X48260000Y-128905000D01*
X46990000Y-135255000D02*
X46990000Y-127000000D01*
X46990000Y-127000000D02*
X45720000Y-128905000D01*
X48260000Y-128905000D02*
X46990000Y-127000000D01*
X33210000Y-86995000D02*
X33460000Y-86995000D01*
X30210000Y-86995000D02*
X29960000Y-86995000D01*
X30710000Y-87995000D02*
X30710000Y-85995000D01*
X30210000Y-85995000D02*
X30210000Y-87995000D01*
X30210000Y-87995000D02*
X33210000Y-87995000D01*
X33210000Y-87995000D02*
X33210000Y-85995000D01*
X33210000Y-85995000D02*
X30210000Y-85995000D01*
X85280000Y-81915000D02*
X85530000Y-81915000D01*
X82280000Y-81915000D02*
X82030000Y-81915000D01*
X82780000Y-82915000D02*
X82780000Y-80915000D01*
X82280000Y-80915000D02*
X82280000Y-82915000D01*
X82280000Y-82915000D02*
X85280000Y-82915000D01*
X85280000Y-82915000D02*
X85280000Y-80915000D01*
X85280000Y-80915000D02*
X82280000Y-80915000D01*
X68580000Y-58420000D02*
X43180000Y-58420000D01*
X43180000Y-58420000D02*
X43180000Y-55880000D01*
X43180000Y-55880000D02*
X68580000Y-55880000D01*
X76200000Y-58420000D02*
X68580000Y-58420000D01*
X68580000Y-55880000D02*
X76200000Y-55880000D01*
X93980000Y-58420000D02*
X93980000Y-55880000D01*
X93980000Y-55880000D02*
X76200000Y-55880000D01*
X76200000Y-58420000D02*
X93980000Y-58420000D01*
X18400000Y-158195000D02*
X18400000Y-140195000D01*
X21590000Y-147955000D02*
X24130000Y-149225000D01*
X21590000Y-150495000D02*
X21590000Y-147955000D01*
X24130000Y-149225000D02*
X21590000Y-150495000D01*
X20320000Y-149225000D02*
X24130000Y-149225000D01*
X26400000Y-140195000D02*
X26400000Y-158195000D01*
X18400000Y-140195000D02*
X26400000Y-140195000D01*
X20200000Y-158195000D02*
X20200000Y-140195000D01*
X26400000Y-158195000D02*
X18400000Y-158195000D01*
X99060000Y-88900000D02*
X90860000Y-88900000D01*
X94615000Y-93980000D02*
X90860000Y-93980000D01*
X99060000Y-99060000D02*
X90860000Y-99060000D01*
X96520000Y-93345000D02*
X95250000Y-93980000D01*
X96520000Y-94615000D02*
X96520000Y-93345000D01*
X95250000Y-93980000D02*
X96520000Y-94615000D01*
X99060000Y-93980000D02*
X95250000Y-93980000D01*
X96760000Y-86360000D02*
G75*
G03*
X96760000Y-86360000I-1500000J0D01*
G01*
X96760000Y-91440000D02*
G75*
G03*
X96760000Y-91440000I-1500000J0D01*
G01*
X96760000Y-96520000D02*
G75*
G03*
X96760000Y-96520000I-1500000J0D01*
G01*
X98060000Y-104140000D02*
X98060000Y-83840000D01*
X96760000Y-101600000D02*
G75*
G03*
X96760000Y-101600000I-1500000J0D01*
G01*
X99060000Y-83840000D02*
X99060000Y-104140000D01*
X90860000Y-83840000D02*
X99060000Y-83840000D01*
X90860000Y-104140000D02*
X90860000Y-83840000D01*
X99060000Y-104140000D02*
X90860000Y-104140000D01*
X85280000Y-98695000D02*
X82280000Y-98695000D01*
X85280000Y-100695000D02*
X85280000Y-98695000D01*
X82280000Y-100695000D02*
X85280000Y-100695000D01*
X82280000Y-98695000D02*
X82280000Y-100695000D01*
X82780000Y-100695000D02*
X82780000Y-98695000D01*
X82280000Y-99695000D02*
X82030000Y-99695000D01*
X85280000Y-99695000D02*
X85530000Y-99695000D01*
X24765000Y-29210000D02*
G75*
G03*
X24765000Y-29210000I-1270000J0D01*
G01*
X25400000Y-30480000D02*
X26670000Y-30480000D01*
X84415000Y-20320000D02*
G75*
G03*
X84415000Y-20320000I-2500000J0D01*
G01*
X33900000Y-47625000D02*
G75*
G03*
X33900000Y-47625000I-8500000J0D01*
G01*
X33210000Y-103775000D02*
X30210000Y-103775000D01*
X33210000Y-105775000D02*
X33210000Y-103775000D01*
X30210000Y-105775000D02*
X33210000Y-105775000D01*
X30210000Y-103775000D02*
X30210000Y-105775000D01*
X30710000Y-105775000D02*
X30710000Y-103775000D01*
X30210000Y-104775000D02*
X29960000Y-104775000D01*
X33210000Y-104775000D02*
X33460000Y-104775000D01*
X56515000Y-20320000D02*
G75*
G03*
X56515000Y-20320000I-1270000J0D01*
G01*
X53340000Y-19050000D02*
X52070000Y-19050000D01*
X60960000Y-19050000D02*
X60960000Y-21590000D01*
X60960000Y-21590000D02*
X78740000Y-21590000D01*
X78740000Y-21590000D02*
X78740000Y-19050000D01*
X78740000Y-19050000D02*
X60960000Y-19050000D01*
X17145000Y-61595000D02*
X24765000Y-61595000D01*
X24765000Y-61595000D02*
X24765000Y-64135000D01*
X24765000Y-64135000D02*
X17145000Y-64135000D01*
X17145000Y-61595000D02*
X17145000Y-64135000D01*
X59259400Y-143295600D02*
X62659400Y-143295600D01*
X63144279Y-140602473D02*
G75*
G03*
X60959400Y-139195600I-2184879J-993127D01*
G01*
X58774521Y-140602473D02*
G75*
G02*
X60959400Y-139195600I2184879J-993127D01*
G01*
X63147095Y-142592590D02*
G75*
G02*
X62659400Y-143295600I-2187695J996990D01*
G01*
X58771705Y-142592590D02*
G75*
G03*
X59259400Y-143295600I2187695J996990D01*
G01*
X37465000Y-19050000D02*
X37465000Y-27250000D01*
X37465000Y-27250000D02*
X17165000Y-27250000D01*
X17165000Y-27250000D02*
X17165000Y-19050000D01*
X17165000Y-19050000D02*
X37465000Y-19050000D01*
X36425000Y-22850000D02*
G75*
G03*
X36425000Y-22850000I-1500000J0D01*
G01*
X37465000Y-20050000D02*
X17165000Y-20050000D01*
X31345000Y-22850000D02*
G75*
G03*
X31345000Y-22850000I-1500000J0D01*
G01*
X26265000Y-22850000D02*
G75*
G03*
X26265000Y-22850000I-1500000J0D01*
G01*
X21185000Y-22850000D02*
G75*
G03*
X21185000Y-22850000I-1500000J0D01*
G01*
X27305000Y-19050000D02*
X27305000Y-22860000D01*
X27305000Y-22860000D02*
X27940000Y-21590000D01*
X27940000Y-21590000D02*
X26670000Y-21590000D01*
X26670000Y-21590000D02*
X27305000Y-22860000D01*
X32385000Y-19050000D02*
X32385000Y-27250000D01*
X27305000Y-23495000D02*
X27305000Y-27250000D01*
X22225000Y-19050000D02*
X22225000Y-27250000D01*
X56705000Y-85995000D02*
X53705000Y-85995000D01*
X56705000Y-87995000D02*
X56705000Y-85995000D01*
X53705000Y-87995000D02*
X56705000Y-87995000D01*
X53705000Y-85995000D02*
X53705000Y-87995000D01*
X54205000Y-87995000D02*
X54205000Y-85995000D01*
X53705000Y-86995000D02*
X53455000Y-86995000D01*
X56705000Y-86995000D02*
X56955000Y-86995000D01*
X56705000Y-103775000D02*
X53705000Y-103775000D01*
X56705000Y-105775000D02*
X56705000Y-103775000D01*
X53705000Y-105775000D02*
X56705000Y-105775000D01*
X53705000Y-103775000D02*
X53705000Y-105775000D01*
X54205000Y-105775000D02*
X54205000Y-103775000D01*
X53705000Y-104775000D02*
X53455000Y-104775000D01*
X56705000Y-104775000D02*
X56955000Y-104775000D01*
X60960000Y-52070000D02*
X60960000Y-54610000D01*
X60960000Y-54610000D02*
X78740000Y-54610000D01*
X78740000Y-54610000D02*
X78740000Y-52070000D01*
X78740000Y-52070000D02*
X60960000Y-52070000D01*
X21590000Y-27940000D02*
X19050000Y-27940000D01*
X19050000Y-38100000D02*
X19050000Y-27940000D01*
X21590000Y-38100000D02*
X19050000Y-38100000D01*
X21590000Y-27940000D02*
X21590000Y-38100000D01*
X24765000Y-57150000D02*
G75*
G03*
X24765000Y-57150000I-1270000J0D01*
G01*
X21590000Y-55880000D02*
X20320000Y-55880000D01*
X19050000Y-83185000D02*
X27250000Y-83185000D01*
X27250000Y-83185000D02*
X27250000Y-103485000D01*
X27250000Y-103485000D02*
X19050000Y-103485000D01*
X19050000Y-103485000D02*
X19050000Y-83185000D01*
X24350000Y-85725000D02*
G75*
G03*
X24350000Y-85725000I-1500000J0D01*
G01*
X20050000Y-83185000D02*
X20050000Y-103485000D01*
X24350000Y-90805000D02*
G75*
G03*
X24350000Y-90805000I-1500000J0D01*
G01*
X24350000Y-95885000D02*
G75*
G03*
X24350000Y-95885000I-1500000J0D01*
G01*
X24350000Y-100965000D02*
G75*
G03*
X24350000Y-100965000I-1500000J0D01*
G01*
X19050000Y-93345000D02*
X22860000Y-93345000D01*
X22860000Y-93345000D02*
X21590000Y-92710000D01*
X21590000Y-92710000D02*
X21590000Y-93980000D01*
X21590000Y-93980000D02*
X22860000Y-93345000D01*
X19050000Y-88265000D02*
X27250000Y-88265000D01*
X23495000Y-93345000D02*
X27250000Y-93345000D01*
X19050000Y-98425000D02*
X27250000Y-98425000D01*
X99060000Y-73005000D02*
X99060000Y-83205000D01*
X90860000Y-83205000D02*
X90860000Y-73005000D01*
X98060000Y-83105000D02*
X98060000Y-73005000D01*
X99060000Y-73025000D02*
X90860000Y-73025000D01*
X94615000Y-78105000D02*
X90860000Y-78105000D01*
X96760000Y-80645000D02*
G75*
G03*
X96760000Y-80645000I-1500000J0D01*
G01*
X96520000Y-77470000D02*
X95250000Y-78105000D01*
X96760000Y-75565000D02*
G75*
G03*
X96760000Y-75565000I-1500000J0D01*
G01*
X96520000Y-78740000D02*
X96520000Y-77470000D01*
X95250000Y-78105000D02*
X96520000Y-78740000D01*
X99060000Y-78105000D02*
X95250000Y-78105000D01*
X99060000Y-83185000D02*
X90860000Y-83185000D01*
X51435000Y-103505000D02*
X51435000Y-88265000D01*
X59055000Y-103505000D02*
X51435000Y-103505000D01*
X59055000Y-88265000D02*
X59055000Y-103505000D01*
X51435000Y-88265000D02*
X59055000Y-88265000D01*
X85090000Y-19050000D02*
X90170000Y-19050000D01*
X90170000Y-19050000D02*
X90170000Y-21590000D01*
X90170000Y-21590000D02*
X85090000Y-21590000D01*
X85090000Y-19050000D02*
X85090000Y-21590000D01*
X104775000Y-64770000D02*
X104775000Y-56570000D01*
X109855000Y-64770000D02*
X109855000Y-60960000D01*
X109855000Y-60960000D02*
X109220000Y-62230000D01*
X109220000Y-62230000D02*
X110490000Y-62230000D01*
X113895000Y-60970000D02*
G75*
G03*
X113895000Y-60970000I-1500000J0D01*
G01*
X110490000Y-62230000D02*
X109855000Y-60960000D01*
X108815000Y-60970000D02*
G75*
G03*
X108815000Y-60970000I-1500000J0D01*
G01*
X109855000Y-60325000D02*
X109855000Y-56570000D01*
X114935000Y-64770000D02*
X114935000Y-56570000D01*
X104855000Y-63770000D02*
X114955000Y-63770000D01*
X104755000Y-56570000D02*
X114955000Y-56570000D01*
X114955000Y-64770000D02*
X104755000Y-64770000D01*
X57302400Y-143865600D02*
X64922400Y-143865600D01*
X64922400Y-143865600D02*
X64922400Y-146405600D01*
X64922400Y-146405600D02*
X57302400Y-146405600D01*
X57302400Y-143865600D02*
X57302400Y-146405600D01*
X46625000Y-140255000D02*
X54625000Y-140255000D01*
X52825000Y-140255000D02*
X52825000Y-158255000D01*
X54625000Y-158255000D02*
X46625000Y-158255000D01*
X46625000Y-158255000D02*
X46625000Y-140255000D01*
X52705000Y-149225000D02*
X48895000Y-149225000D01*
X48895000Y-149225000D02*
X51435000Y-147955000D01*
X51435000Y-147955000D02*
X51435000Y-150495000D01*
X51435000Y-150495000D02*
X48895000Y-149225000D01*
X54625000Y-140255000D02*
X54625000Y-158255000D01*
X53340000Y-24050000D02*
X37780000Y-24050000D01*
X37780000Y-24050000D02*
X37780000Y-45320000D01*
X53340000Y-24050000D02*
X68900000Y-24050000D01*
X68900000Y-24050000D02*
X68900000Y-45320000D01*
X37780000Y-45320000D02*
X68900000Y-45320000D01*
X53340000Y-45320000D02*
X53340000Y-24050000D01*
X46355000Y-45085000D02*
X46355000Y-36830000D01*
X46355000Y-36830000D02*
X45085000Y-38735000D01*
X45085000Y-38735000D02*
X47625000Y-38735000D01*
X47625000Y-38735000D02*
X46355000Y-36830000D01*
X59055000Y-38735000D02*
X61595000Y-38735000D01*
X60325000Y-45085000D02*
X60325000Y-36830000D01*
X60325000Y-36830000D02*
X59055000Y-38735000D01*
X61595000Y-38735000D02*
X60325000Y-36830000D01*
X80010000Y-83185000D02*
X87630000Y-83185000D01*
X87630000Y-83185000D02*
X87630000Y-98425000D01*
X87630000Y-98425000D02*
X80010000Y-98425000D01*
X80010000Y-98425000D02*
X80010000Y-83185000D01*
X93345000Y-38735000D02*
X92075000Y-36830000D01*
X92075000Y-36830000D02*
X90805000Y-38735000D01*
X92075000Y-45085000D02*
X92075000Y-36830000D01*
X90805000Y-38735000D02*
X93345000Y-38735000D01*
X79375000Y-38735000D02*
X78105000Y-36830000D01*
X76835000Y-38735000D02*
X79375000Y-38735000D01*
X78105000Y-36830000D02*
X76835000Y-38735000D01*
X78105000Y-45085000D02*
X78105000Y-36830000D01*
X85090000Y-45320000D02*
X85090000Y-24050000D01*
X69530000Y-45320000D02*
X100650000Y-45320000D01*
X100650000Y-24050000D02*
X100650000Y-45320000D01*
X85090000Y-24050000D02*
X100650000Y-24050000D01*
X69530000Y-24050000D02*
X69530000Y-45320000D01*
X85090000Y-24050000D02*
X69530000Y-24050000D01*
X30050000Y-109015000D02*
X33450000Y-109015000D01*
X29562305Y-108311990D02*
G75*
G03*
X30050000Y-109015000I2187695J996990D01*
G01*
X33937695Y-108311990D02*
G75*
G02*
X33450000Y-109015000I-2187695J996990D01*
G01*
X29565121Y-106321873D02*
G75*
G02*
X31750000Y-104915000I2184879J-993127D01*
G01*
X33934879Y-106321873D02*
G75*
G03*
X31750000Y-104915000I-2184879J-993127D01*
G01*
X30050000Y-86155000D02*
X33450000Y-86155000D01*
X29562305Y-85451990D02*
G75*
G03*
X30050000Y-86155000I2187695J996990D01*
G01*
X33937695Y-85451990D02*
G75*
G02*
X33450000Y-86155000I-2187695J996990D01*
G01*
X29565121Y-83461873D02*
G75*
G02*
X31750000Y-82055000I2184879J-993127D01*
G01*
X33934879Y-83461873D02*
G75*
G03*
X31750000Y-82055000I-2184879J-993127D01*
G01*
X53545000Y-109015000D02*
X56945000Y-109015000D01*
X57429879Y-106321873D02*
G75*
G03*
X55245000Y-104915000I-2184879J-993127D01*
G01*
X53060121Y-106321873D02*
G75*
G02*
X55245000Y-104915000I2184879J-993127D01*
G01*
X57432695Y-108311990D02*
G75*
G02*
X56945000Y-109015000I-2187695J996990D01*
G01*
X53057305Y-108311990D02*
G75*
G03*
X53545000Y-109015000I2187695J996990D01*
G01*
X53545000Y-86155000D02*
X56945000Y-86155000D01*
X57429879Y-83461873D02*
G75*
G03*
X55245000Y-82055000I-2184879J-993127D01*
G01*
X53060121Y-83461873D02*
G75*
G02*
X55245000Y-82055000I2184879J-993127D01*
G01*
X57432695Y-85451990D02*
G75*
G02*
X56945000Y-86155000I-2187695J996990D01*
G01*
X53057305Y-85451990D02*
G75*
G03*
X53545000Y-86155000I2187695J996990D01*
G01*
X82120000Y-103935000D02*
X85520000Y-103935000D01*
X81632305Y-103231990D02*
G75*
G03*
X82120000Y-103935000I2187695J996990D01*
G01*
X86007695Y-103231990D02*
G75*
G02*
X85520000Y-103935000I-2187695J996990D01*
G01*
X81635121Y-101241873D02*
G75*
G02*
X83820000Y-99835000I2184879J-993127D01*
G01*
X86004879Y-101241873D02*
G75*
G03*
X83820000Y-99835000I-2184879J-993127D01*
G01*
X82120000Y-81075000D02*
X85520000Y-81075000D01*
X86004879Y-78381873D02*
G75*
G03*
X83820000Y-76975000I-2184879J-993127D01*
G01*
X81635121Y-78381873D02*
G75*
G02*
X83820000Y-76975000I2184879J-993127D01*
G01*
X86007695Y-80371990D02*
G75*
G02*
X85520000Y-81075000I-2187695J996990D01*
G01*
X81632305Y-80371990D02*
G75*
G03*
X82120000Y-81075000I2187695J996990D01*
G01*
X36195000Y-99060000D02*
X36830000Y-99060000D01*
X35560000Y-99695000D02*
X36195000Y-99060000D01*
X35560000Y-104775000D02*
X35560000Y-99695000D01*
X36195000Y-105410000D02*
X35560000Y-104775000D01*
X37465000Y-105410000D02*
X36195000Y-105410000D01*
X38100000Y-104775000D02*
X37465000Y-105410000D01*
X38100000Y-99695000D02*
X38100000Y-104775000D01*
X37465000Y-99060000D02*
X38100000Y-99695000D01*
X36830000Y-99060000D02*
X37465000Y-99060000D01*
X36830000Y-99060000D02*
X36830000Y-98425000D01*
X36830000Y-105410000D02*
X36830000Y-106045000D01*
X36830000Y-92710000D02*
X36830000Y-93345000D01*
X36830000Y-86360000D02*
X36830000Y-85725000D01*
X36830000Y-86360000D02*
X37465000Y-86360000D01*
X37465000Y-86360000D02*
X38100000Y-86995000D01*
X38100000Y-86995000D02*
X38100000Y-92075000D01*
X38100000Y-92075000D02*
X37465000Y-92710000D01*
X37465000Y-92710000D02*
X36195000Y-92710000D01*
X36195000Y-92710000D02*
X35560000Y-92075000D01*
X35560000Y-92075000D02*
X35560000Y-86995000D01*
X35560000Y-86995000D02*
X36195000Y-86360000D01*
X36195000Y-86360000D02*
X36830000Y-86360000D01*
X68580000Y-106680000D02*
X68580000Y-107315000D01*
X67945000Y-106045000D02*
X68580000Y-106680000D01*
X62865000Y-106045000D02*
X67945000Y-106045000D01*
X62230000Y-106680000D02*
X62865000Y-106045000D01*
X62230000Y-107950000D02*
X62230000Y-106680000D01*
X62865000Y-108585000D02*
X62230000Y-107950000D01*
X67945000Y-108585000D02*
X62865000Y-108585000D01*
X68580000Y-107950000D02*
X67945000Y-108585000D01*
X68580000Y-107315000D02*
X68580000Y-107950000D01*
X68580000Y-107315000D02*
X69215000Y-107315000D01*
X62230000Y-107315000D02*
X61595000Y-107315000D01*
X60325000Y-86360000D02*
X60325000Y-85725000D01*
X60325000Y-92710000D02*
X60325000Y-93345000D01*
X60325000Y-92710000D02*
X59690000Y-92710000D01*
X59690000Y-92710000D02*
X59055000Y-92075000D01*
X59055000Y-92075000D02*
X59055000Y-86995000D01*
X59055000Y-86995000D02*
X59690000Y-86360000D01*
X59690000Y-86360000D02*
X60960000Y-86360000D01*
X60960000Y-86360000D02*
X61595000Y-86995000D01*
X61595000Y-86995000D02*
X61595000Y-92075000D01*
X61595000Y-92075000D02*
X60960000Y-92710000D01*
X60960000Y-92710000D02*
X60325000Y-92710000D01*
X88265000Y-93980000D02*
X88900000Y-93980000D01*
X87630000Y-94615000D02*
X88265000Y-93980000D01*
X87630000Y-99695000D02*
X87630000Y-94615000D01*
X88265000Y-100330000D02*
X87630000Y-99695000D01*
X89535000Y-100330000D02*
X88265000Y-100330000D01*
X90170000Y-99695000D02*
X89535000Y-100330000D01*
X90170000Y-94615000D02*
X90170000Y-99695000D01*
X89535000Y-93980000D02*
X90170000Y-94615000D01*
X88900000Y-93980000D02*
X89535000Y-93980000D01*
X88900000Y-93980000D02*
X88900000Y-93345000D01*
X88900000Y-100330000D02*
X88900000Y-100965000D01*
X88900000Y-87630000D02*
X88900000Y-88265000D01*
X88900000Y-81280000D02*
X88900000Y-80645000D01*
X88900000Y-81280000D02*
X89535000Y-81280000D01*
X89535000Y-81280000D02*
X90170000Y-81915000D01*
X90170000Y-81915000D02*
X90170000Y-86995000D01*
X90170000Y-86995000D02*
X89535000Y-87630000D01*
X89535000Y-87630000D02*
X88265000Y-87630000D01*
X88265000Y-87630000D02*
X87630000Y-86995000D01*
X87630000Y-86995000D02*
X87630000Y-81915000D01*
X87630000Y-81915000D02*
X88265000Y-81280000D01*
X88265000Y-81280000D02*
X88900000Y-81280000D01*
X71207380Y-124277380D02*
X70874047Y-123801190D01*
X70635952Y-124277380D02*
X70635952Y-123277380D01*
X71016904Y-123277380D01*
X71112142Y-123325000D01*
X71159761Y-123372619D01*
X71207380Y-123467857D01*
X71207380Y-123610714D01*
X71159761Y-123705952D01*
X71112142Y-123753571D01*
X71016904Y-123801190D01*
X70635952Y-123801190D01*
X71921666Y-123277380D02*
X71921666Y-123991666D01*
X71874047Y-124134523D01*
X71778809Y-124229761D01*
X71635952Y-124277380D01*
X71540714Y-124277380D01*
X72302619Y-123277380D02*
X72921666Y-123277380D01*
X72588333Y-123658333D01*
X72731190Y-123658333D01*
X72826428Y-123705952D01*
X72874047Y-123753571D01*
X72921666Y-123848809D01*
X72921666Y-124086904D01*
X72874047Y-124182142D01*
X72826428Y-124229761D01*
X72731190Y-124277380D01*
X72445476Y-124277380D01*
X72350238Y-124229761D01*
X72302619Y-124182142D01*
X30559761Y-113387142D02*
X30512142Y-113434761D01*
X30369285Y-113482380D01*
X30274047Y-113482380D01*
X30131190Y-113434761D01*
X30035952Y-113339523D01*
X29988333Y-113244285D01*
X29940714Y-113053809D01*
X29940714Y-112910952D01*
X29988333Y-112720476D01*
X30035952Y-112625238D01*
X30131190Y-112530000D01*
X30274047Y-112482380D01*
X30369285Y-112482380D01*
X30512142Y-112530000D01*
X30559761Y-112577619D01*
X31416904Y-113482380D02*
X31416904Y-112958571D01*
X31369285Y-112863333D01*
X31274047Y-112815714D01*
X31083571Y-112815714D01*
X30988333Y-112863333D01*
X31416904Y-113434761D02*
X31321666Y-113482380D01*
X31083571Y-113482380D01*
X30988333Y-113434761D01*
X30940714Y-113339523D01*
X30940714Y-113244285D01*
X30988333Y-113149047D01*
X31083571Y-113101428D01*
X31321666Y-113101428D01*
X31416904Y-113053809D01*
X31893095Y-113482380D02*
X31893095Y-112482380D01*
X31893095Y-112863333D02*
X31988333Y-112815714D01*
X32178809Y-112815714D01*
X32274047Y-112863333D01*
X32321666Y-112910952D01*
X32369285Y-113006190D01*
X32369285Y-113291904D01*
X32321666Y-113387142D01*
X32274047Y-113434761D01*
X32178809Y-113482380D01*
X31988333Y-113482380D01*
X31893095Y-113434761D01*
X32940714Y-113482380D02*
X32845476Y-113434761D01*
X32797857Y-113339523D01*
X32797857Y-112482380D01*
X33702619Y-113434761D02*
X33607380Y-113482380D01*
X33416904Y-113482380D01*
X33321666Y-113434761D01*
X33274047Y-113339523D01*
X33274047Y-112958571D01*
X33321666Y-112863333D01*
X33416904Y-112815714D01*
X33607380Y-112815714D01*
X33702619Y-112863333D01*
X33750238Y-112958571D01*
X33750238Y-113053809D01*
X33274047Y-113149047D01*
X35464523Y-113482380D02*
X34893095Y-113482380D01*
X35178809Y-113482380D02*
X35178809Y-112482380D01*
X35083571Y-112625238D01*
X34988333Y-112720476D01*
X34893095Y-112768095D01*
X36607380Y-112434761D02*
X35750238Y-113720476D01*
X37131190Y-113006190D02*
X37131190Y-113482380D01*
X36797857Y-112482380D02*
X37131190Y-113006190D01*
X37464523Y-112482380D01*
X61603333Y-113387142D02*
X61555714Y-113434761D01*
X61412857Y-113482380D01*
X61317619Y-113482380D01*
X61174761Y-113434761D01*
X61079523Y-113339523D01*
X61031904Y-113244285D01*
X60984285Y-113053809D01*
X60984285Y-112910952D01*
X61031904Y-112720476D01*
X61079523Y-112625238D01*
X61174761Y-112530000D01*
X61317619Y-112482380D01*
X61412857Y-112482380D01*
X61555714Y-112530000D01*
X61603333Y-112577619D01*
X62460476Y-113482380D02*
X62460476Y-112958571D01*
X62412857Y-112863333D01*
X62317619Y-112815714D01*
X62127142Y-112815714D01*
X62031904Y-112863333D01*
X62460476Y-113434761D02*
X62365238Y-113482380D01*
X62127142Y-113482380D01*
X62031904Y-113434761D01*
X61984285Y-113339523D01*
X61984285Y-113244285D01*
X62031904Y-113149047D01*
X62127142Y-113101428D01*
X62365238Y-113101428D01*
X62460476Y-113053809D01*
X62936666Y-113482380D02*
X62936666Y-112482380D01*
X62936666Y-112863333D02*
X63031904Y-112815714D01*
X63222380Y-112815714D01*
X63317619Y-112863333D01*
X63365238Y-112910952D01*
X63412857Y-113006190D01*
X63412857Y-113291904D01*
X63365238Y-113387142D01*
X63317619Y-113434761D01*
X63222380Y-113482380D01*
X63031904Y-113482380D01*
X62936666Y-113434761D01*
X63984285Y-113482380D02*
X63889047Y-113434761D01*
X63841428Y-113339523D01*
X63841428Y-112482380D01*
X64746190Y-113434761D02*
X64650952Y-113482380D01*
X64460476Y-113482380D01*
X64365238Y-113434761D01*
X64317619Y-113339523D01*
X64317619Y-112958571D01*
X64365238Y-112863333D01*
X64460476Y-112815714D01*
X64650952Y-112815714D01*
X64746190Y-112863333D01*
X64793809Y-112958571D01*
X64793809Y-113053809D01*
X64317619Y-113149047D01*
X65936666Y-112577619D02*
X65984285Y-112530000D01*
X66079523Y-112482380D01*
X66317619Y-112482380D01*
X66412857Y-112530000D01*
X66460476Y-112577619D01*
X66508095Y-112672857D01*
X66508095Y-112768095D01*
X66460476Y-112910952D01*
X65889047Y-113482380D01*
X66508095Y-113482380D01*
X67650952Y-112434761D02*
X66793809Y-113720476D01*
X68508095Y-112530000D02*
X68412857Y-112482380D01*
X68270000Y-112482380D01*
X68127142Y-112530000D01*
X68031904Y-112625238D01*
X67984285Y-112720476D01*
X67936666Y-112910952D01*
X67936666Y-113053809D01*
X67984285Y-113244285D01*
X68031904Y-113339523D01*
X68127142Y-113434761D01*
X68270000Y-113482380D01*
X68365238Y-113482380D01*
X68508095Y-113434761D01*
X68555714Y-113387142D01*
X68555714Y-113053809D01*
X68365238Y-113053809D01*
X76017380Y-73929761D02*
X75541190Y-74263095D01*
X76017380Y-74501190D02*
X75017380Y-74501190D01*
X75017380Y-74120238D01*
X75065000Y-74025000D01*
X75112619Y-73977380D01*
X75207857Y-73929761D01*
X75350714Y-73929761D01*
X75445952Y-73977380D01*
X75493571Y-74025000D01*
X75541190Y-74120238D01*
X75541190Y-74501190D01*
X76017380Y-73501190D02*
X75017380Y-73501190D01*
X75017380Y-73120238D01*
X75065000Y-73025000D01*
X75112619Y-72977380D01*
X75207857Y-72929761D01*
X75350714Y-72929761D01*
X75445952Y-72977380D01*
X75493571Y-73025000D01*
X75541190Y-73120238D01*
X75541190Y-73501190D01*
X76017380Y-72501190D02*
X75350714Y-72501190D01*
X75017380Y-72501190D02*
X75065000Y-72548809D01*
X75112619Y-72501190D01*
X75065000Y-72453571D01*
X75017380Y-72501190D01*
X75112619Y-72501190D01*
X76017380Y-71501190D02*
X76017380Y-72072619D01*
X76017380Y-71786904D02*
X75017380Y-71786904D01*
X75160238Y-71882142D01*
X75255476Y-71977380D01*
X75303095Y-72072619D01*
X39187380Y-18581666D02*
X38711190Y-18915000D01*
X39187380Y-19153095D02*
X38187380Y-19153095D01*
X38187380Y-18772142D01*
X38235000Y-18676904D01*
X38282619Y-18629285D01*
X38377857Y-18581666D01*
X38520714Y-18581666D01*
X38615952Y-18629285D01*
X38663571Y-18676904D01*
X38711190Y-18772142D01*
X38711190Y-19153095D01*
X38187380Y-18248333D02*
X38187380Y-17629285D01*
X38568333Y-17962619D01*
X38568333Y-17819761D01*
X38615952Y-17724523D01*
X38663571Y-17676904D01*
X38758809Y-17629285D01*
X38996904Y-17629285D01*
X39092142Y-17676904D01*
X39139761Y-17724523D01*
X39187380Y-17819761D01*
X39187380Y-18105476D01*
X39139761Y-18200714D01*
X39092142Y-18248333D01*
X39552619Y-19018095D02*
X39505000Y-18970476D01*
X39457380Y-18875238D01*
X39457380Y-18637142D01*
X39505000Y-18541904D01*
X39552619Y-18494285D01*
X39647857Y-18446666D01*
X39743095Y-18446666D01*
X39885952Y-18494285D01*
X40457380Y-19065714D01*
X40457380Y-18446666D01*
X39552619Y-18065714D02*
X39505000Y-18018095D01*
X39457380Y-17922857D01*
X39457380Y-17684761D01*
X39505000Y-17589523D01*
X39552619Y-17541904D01*
X39647857Y-17494285D01*
X39743095Y-17494285D01*
X39885952Y-17541904D01*
X40457380Y-18113333D01*
X40457380Y-17494285D01*
X39457380Y-16875238D02*
X39457380Y-16780000D01*
X39505000Y-16684761D01*
X39552619Y-16637142D01*
X39647857Y-16589523D01*
X39838333Y-16541904D01*
X40076428Y-16541904D01*
X40266904Y-16589523D01*
X40362142Y-16637142D01*
X40409761Y-16684761D01*
X40457380Y-16780000D01*
X40457380Y-16875238D01*
X40409761Y-16970476D01*
X40362142Y-17018095D01*
X40266904Y-17065714D01*
X40076428Y-17113333D01*
X39838333Y-17113333D01*
X39647857Y-17065714D01*
X39552619Y-17018095D01*
X39505000Y-16970476D01*
X39457380Y-16875238D01*
X47458333Y-22677380D02*
X47125000Y-22201190D01*
X46886904Y-22677380D02*
X46886904Y-21677380D01*
X47267857Y-21677380D01*
X47363095Y-21725000D01*
X47410714Y-21772619D01*
X47458333Y-21867857D01*
X47458333Y-22010714D01*
X47410714Y-22105952D01*
X47363095Y-22153571D01*
X47267857Y-22201190D01*
X46886904Y-22201190D01*
X47839285Y-21772619D02*
X47886904Y-21725000D01*
X47982142Y-21677380D01*
X48220238Y-21677380D01*
X48315476Y-21725000D01*
X48363095Y-21772619D01*
X48410714Y-21867857D01*
X48410714Y-21963095D01*
X48363095Y-22105952D01*
X47791666Y-22677380D01*
X48410714Y-22677380D01*
X47021904Y-23042619D02*
X47069523Y-22995000D01*
X47164761Y-22947380D01*
X47402857Y-22947380D01*
X47498095Y-22995000D01*
X47545714Y-23042619D01*
X47593333Y-23137857D01*
X47593333Y-23233095D01*
X47545714Y-23375952D01*
X46974285Y-23947380D01*
X47593333Y-23947380D01*
X47974285Y-23042619D02*
X48021904Y-22995000D01*
X48117142Y-22947380D01*
X48355238Y-22947380D01*
X48450476Y-22995000D01*
X48498095Y-23042619D01*
X48545714Y-23137857D01*
X48545714Y-23233095D01*
X48498095Y-23375952D01*
X47926666Y-23947380D01*
X48545714Y-23947380D01*
X49164761Y-22947380D02*
X49260000Y-22947380D01*
X49355238Y-22995000D01*
X49402857Y-23042619D01*
X49450476Y-23137857D01*
X49498095Y-23328333D01*
X49498095Y-23566428D01*
X49450476Y-23756904D01*
X49402857Y-23852142D01*
X49355238Y-23899761D01*
X49260000Y-23947380D01*
X49164761Y-23947380D01*
X49069523Y-23899761D01*
X49021904Y-23852142D01*
X48974285Y-23756904D01*
X48926666Y-23566428D01*
X48926666Y-23328333D01*
X48974285Y-23137857D01*
X49021904Y-23042619D01*
X49069523Y-22995000D01*
X49164761Y-22947380D01*
X27233571Y-90725476D02*
X27233571Y-90392142D01*
X27757380Y-90249285D02*
X27757380Y-90725476D01*
X26757380Y-90725476D01*
X26757380Y-90249285D01*
X27662142Y-89249285D02*
X27709761Y-89296904D01*
X27757380Y-89439761D01*
X27757380Y-89535000D01*
X27709761Y-89677857D01*
X27614523Y-89773095D01*
X27519285Y-89820714D01*
X27328809Y-89868333D01*
X27185952Y-89868333D01*
X26995476Y-89820714D01*
X26900238Y-89773095D01*
X26805000Y-89677857D01*
X26757380Y-89535000D01*
X26757380Y-89439761D01*
X26805000Y-89296904D01*
X26852619Y-89249285D01*
X27757380Y-88296904D02*
X27757380Y-88868333D01*
X27757380Y-88582619D02*
X26757380Y-88582619D01*
X26900238Y-88677857D01*
X26995476Y-88773095D01*
X27043095Y-88868333D01*
X31186380Y-99234523D02*
X30186380Y-99234523D01*
X31186380Y-98663095D01*
X30186380Y-98663095D01*
X30186380Y-97996428D02*
X30186380Y-97805952D01*
X30234000Y-97710714D01*
X30329238Y-97615476D01*
X30519714Y-97567857D01*
X30853047Y-97567857D01*
X31043523Y-97615476D01*
X31138761Y-97710714D01*
X31186380Y-97805952D01*
X31186380Y-97996428D01*
X31138761Y-98091666D01*
X31043523Y-98186904D01*
X30853047Y-98234523D01*
X30519714Y-98234523D01*
X30329238Y-98186904D01*
X30234000Y-98091666D01*
X30186380Y-97996428D01*
X31186380Y-96670714D02*
X30186380Y-96670714D01*
X31186380Y-96099285D01*
X30186380Y-96099285D01*
X31091142Y-95051666D02*
X31138761Y-95099285D01*
X31186380Y-95242142D01*
X31186380Y-95337380D01*
X31138761Y-95480238D01*
X31043523Y-95575476D01*
X30948285Y-95623095D01*
X30757809Y-95670714D01*
X30614952Y-95670714D01*
X30424476Y-95623095D01*
X30329238Y-95575476D01*
X30234000Y-95480238D01*
X30186380Y-95337380D01*
X30186380Y-95242142D01*
X30234000Y-95099285D01*
X30281619Y-95051666D01*
X32837428Y-103568333D02*
X32837428Y-102806428D01*
X32218380Y-102139761D02*
X32218380Y-101949285D01*
X32266000Y-101854047D01*
X32361238Y-101758809D01*
X32551714Y-101711190D01*
X32885047Y-101711190D01*
X33075523Y-101758809D01*
X33170761Y-101854047D01*
X33218380Y-101949285D01*
X33218380Y-102139761D01*
X33170761Y-102235000D01*
X33075523Y-102330238D01*
X32885047Y-102377857D01*
X32551714Y-102377857D01*
X32361238Y-102330238D01*
X32266000Y-102235000D01*
X32218380Y-102139761D01*
X32694571Y-100949285D02*
X32694571Y-101282619D01*
X33218380Y-101282619D02*
X32218380Y-101282619D01*
X32218380Y-100806428D01*
X32837428Y-90963571D02*
X32837428Y-90201666D01*
X32218380Y-89535000D02*
X32218380Y-89344523D01*
X32266000Y-89249285D01*
X32361238Y-89154047D01*
X32551714Y-89106428D01*
X32885047Y-89106428D01*
X33075523Y-89154047D01*
X33170761Y-89249285D01*
X33218380Y-89344523D01*
X33218380Y-89535000D01*
X33170761Y-89630238D01*
X33075523Y-89725476D01*
X32885047Y-89773095D01*
X32551714Y-89773095D01*
X32361238Y-89725476D01*
X32266000Y-89630238D01*
X32218380Y-89535000D01*
X33218380Y-88677857D02*
X32218380Y-88677857D01*
X33218380Y-88106428D01*
X32218380Y-88106428D01*
X30805428Y-103568333D02*
X30805428Y-102806428D01*
X31186380Y-103187380D02*
X30424476Y-103187380D01*
X30186380Y-102139761D02*
X30186380Y-101949285D01*
X30234000Y-101854047D01*
X30329238Y-101758809D01*
X30519714Y-101711190D01*
X30853047Y-101711190D01*
X31043523Y-101758809D01*
X31138761Y-101854047D01*
X31186380Y-101949285D01*
X31186380Y-102139761D01*
X31138761Y-102235000D01*
X31043523Y-102330238D01*
X30853047Y-102377857D01*
X30519714Y-102377857D01*
X30329238Y-102330238D01*
X30234000Y-102235000D01*
X30186380Y-102139761D01*
X30662571Y-100949285D02*
X30662571Y-101282619D01*
X31186380Y-101282619D02*
X30186380Y-101282619D01*
X30186380Y-100806428D01*
X30805428Y-90963571D02*
X30805428Y-90201666D01*
X31186380Y-90582619D02*
X30424476Y-90582619D01*
X30186380Y-89535000D02*
X30186380Y-89344523D01*
X30234000Y-89249285D01*
X30329238Y-89154047D01*
X30519714Y-89106428D01*
X30853047Y-89106428D01*
X31043523Y-89154047D01*
X31138761Y-89249285D01*
X31186380Y-89344523D01*
X31186380Y-89535000D01*
X31138761Y-89630238D01*
X31043523Y-89725476D01*
X30853047Y-89773095D01*
X30519714Y-89773095D01*
X30329238Y-89725476D01*
X30234000Y-89630238D01*
X30186380Y-89535000D01*
X31186380Y-88677857D02*
X30186380Y-88677857D01*
X31186380Y-88106428D01*
X30186380Y-88106428D01*
X79258095Y-143958980D02*
X79258095Y-142958980D01*
X79258095Y-143435171D02*
X79829523Y-143435171D01*
X79829523Y-143958980D02*
X79829523Y-142958980D01*
X80210476Y-142958980D02*
X80829523Y-142958980D01*
X80496190Y-143339933D01*
X80639047Y-143339933D01*
X80734285Y-143387552D01*
X80781904Y-143435171D01*
X80829523Y-143530409D01*
X80829523Y-143768504D01*
X80781904Y-143863742D01*
X80734285Y-143911361D01*
X80639047Y-143958980D01*
X80353333Y-143958980D01*
X80258095Y-143911361D01*
X80210476Y-143863742D01*
X74455952Y-146498980D02*
X73979761Y-146498980D01*
X73979761Y-145498980D01*
X74789285Y-145975171D02*
X75122619Y-145975171D01*
X75265476Y-146498980D02*
X74789285Y-146498980D01*
X74789285Y-145498980D01*
X75265476Y-145498980D01*
X75694047Y-146498980D02*
X75694047Y-145498980D01*
X75932142Y-145498980D01*
X76075000Y-145546600D01*
X76170238Y-145641838D01*
X76217857Y-145737076D01*
X76265476Y-145927552D01*
X76265476Y-146070409D01*
X76217857Y-146260885D01*
X76170238Y-146356123D01*
X76075000Y-146451361D01*
X75932142Y-146498980D01*
X75694047Y-146498980D01*
X77217857Y-146498980D02*
X76646428Y-146498980D01*
X76932142Y-146498980D02*
X76932142Y-145498980D01*
X76836904Y-145641838D01*
X76741666Y-145737076D01*
X76646428Y-145784695D01*
X79646904Y-139196600D02*
X79551666Y-139148980D01*
X79408809Y-139148980D01*
X79265952Y-139196600D01*
X79170714Y-139291838D01*
X79123095Y-139387076D01*
X79075476Y-139577552D01*
X79075476Y-139720409D01*
X79123095Y-139910885D01*
X79170714Y-140006123D01*
X79265952Y-140101361D01*
X79408809Y-140148980D01*
X79504047Y-140148980D01*
X79646904Y-140101361D01*
X79694523Y-140053742D01*
X79694523Y-139720409D01*
X79504047Y-139720409D01*
X76916428Y-139625171D02*
X77059285Y-139672790D01*
X77106904Y-139720409D01*
X77154523Y-139815647D01*
X77154523Y-139958504D01*
X77106904Y-140053742D01*
X77059285Y-140101361D01*
X76964047Y-140148980D01*
X76583095Y-140148980D01*
X76583095Y-139148980D01*
X76916428Y-139148980D01*
X77011666Y-139196600D01*
X77059285Y-139244219D01*
X77106904Y-139339457D01*
X77106904Y-139434695D01*
X77059285Y-139529933D01*
X77011666Y-139577552D01*
X76916428Y-139625171D01*
X76583095Y-139625171D01*
X73543095Y-139196600D02*
X73447857Y-139148980D01*
X73305000Y-139148980D01*
X73162142Y-139196600D01*
X73066904Y-139291838D01*
X73019285Y-139387076D01*
X72971666Y-139577552D01*
X72971666Y-139720409D01*
X73019285Y-139910885D01*
X73066904Y-140006123D01*
X73162142Y-140101361D01*
X73305000Y-140148980D01*
X73400238Y-140148980D01*
X73543095Y-140101361D01*
X73590714Y-140053742D01*
X73590714Y-139720409D01*
X73400238Y-139720409D01*
X74019285Y-140148980D02*
X74019285Y-139148980D01*
X74590714Y-140148980D01*
X74590714Y-139148980D01*
X75066904Y-140148980D02*
X75066904Y-139148980D01*
X75305000Y-139148980D01*
X75447857Y-139196600D01*
X75543095Y-139291838D01*
X75590714Y-139387076D01*
X75638333Y-139577552D01*
X75638333Y-139720409D01*
X75590714Y-139910885D01*
X75543095Y-140006123D01*
X75447857Y-140101361D01*
X75305000Y-140148980D01*
X75066904Y-140148980D01*
X72074523Y-140148980D02*
X71741190Y-139672790D01*
X71503095Y-140148980D02*
X71503095Y-139148980D01*
X71884047Y-139148980D01*
X71979285Y-139196600D01*
X72026904Y-139244219D01*
X72074523Y-139339457D01*
X72074523Y-139482314D01*
X72026904Y-139577552D01*
X71979285Y-139625171D01*
X71884047Y-139672790D01*
X71503095Y-139672790D01*
X13390714Y-60142380D02*
X13390714Y-59142380D01*
X13628809Y-59142380D01*
X13771666Y-59190000D01*
X13866904Y-59285238D01*
X13914523Y-59380476D01*
X13962142Y-59570952D01*
X13962142Y-59713809D01*
X13914523Y-59904285D01*
X13866904Y-59999523D01*
X13771666Y-60094761D01*
X13628809Y-60142380D01*
X13390714Y-60142380D01*
X14343095Y-60094761D02*
X14485952Y-60142380D01*
X14724047Y-60142380D01*
X14819285Y-60094761D01*
X14866904Y-60047142D01*
X14914523Y-59951904D01*
X14914523Y-59856666D01*
X14866904Y-59761428D01*
X14819285Y-59713809D01*
X14724047Y-59666190D01*
X14533571Y-59618571D01*
X14438333Y-59570952D01*
X14390714Y-59523333D01*
X14343095Y-59428095D01*
X14343095Y-59332857D01*
X14390714Y-59237619D01*
X14438333Y-59190000D01*
X14533571Y-59142380D01*
X14771666Y-59142380D01*
X14914523Y-59190000D01*
X15866904Y-60142380D02*
X15295476Y-60142380D01*
X15581190Y-60142380D02*
X15581190Y-59142380D01*
X15485952Y-59285238D01*
X15390714Y-59380476D01*
X15295476Y-59428095D01*
X39457380Y-124277380D02*
X39124047Y-123801190D01*
X38885952Y-124277380D02*
X38885952Y-123277380D01*
X39266904Y-123277380D01*
X39362142Y-123325000D01*
X39409761Y-123372619D01*
X39457380Y-123467857D01*
X39457380Y-123610714D01*
X39409761Y-123705952D01*
X39362142Y-123753571D01*
X39266904Y-123801190D01*
X38885952Y-123801190D01*
X40171666Y-123277380D02*
X40171666Y-123991666D01*
X40124047Y-124134523D01*
X40028809Y-124229761D01*
X39885952Y-124277380D01*
X39790714Y-124277380D01*
X41076428Y-123610714D02*
X41076428Y-124277380D01*
X40838333Y-123229761D02*
X40600238Y-123944047D01*
X41219285Y-123944047D01*
X75573333Y-113387142D02*
X75525714Y-113434761D01*
X75382857Y-113482380D01*
X75287619Y-113482380D01*
X75144761Y-113434761D01*
X75049523Y-113339523D01*
X75001904Y-113244285D01*
X74954285Y-113053809D01*
X74954285Y-112910952D01*
X75001904Y-112720476D01*
X75049523Y-112625238D01*
X75144761Y-112530000D01*
X75287619Y-112482380D01*
X75382857Y-112482380D01*
X75525714Y-112530000D01*
X75573333Y-112577619D01*
X76430476Y-113482380D02*
X76430476Y-112958571D01*
X76382857Y-112863333D01*
X76287619Y-112815714D01*
X76097142Y-112815714D01*
X76001904Y-112863333D01*
X76430476Y-113434761D02*
X76335238Y-113482380D01*
X76097142Y-113482380D01*
X76001904Y-113434761D01*
X75954285Y-113339523D01*
X75954285Y-113244285D01*
X76001904Y-113149047D01*
X76097142Y-113101428D01*
X76335238Y-113101428D01*
X76430476Y-113053809D01*
X76906666Y-113482380D02*
X76906666Y-112482380D01*
X76906666Y-112863333D02*
X77001904Y-112815714D01*
X77192380Y-112815714D01*
X77287619Y-112863333D01*
X77335238Y-112910952D01*
X77382857Y-113006190D01*
X77382857Y-113291904D01*
X77335238Y-113387142D01*
X77287619Y-113434761D01*
X77192380Y-113482380D01*
X77001904Y-113482380D01*
X76906666Y-113434761D01*
X77954285Y-113482380D02*
X77859047Y-113434761D01*
X77811428Y-113339523D01*
X77811428Y-112482380D01*
X78716190Y-113434761D02*
X78620952Y-113482380D01*
X78430476Y-113482380D01*
X78335238Y-113434761D01*
X78287619Y-113339523D01*
X78287619Y-112958571D01*
X78335238Y-112863333D01*
X78430476Y-112815714D01*
X78620952Y-112815714D01*
X78716190Y-112863333D01*
X78763809Y-112958571D01*
X78763809Y-113053809D01*
X78287619Y-113149047D01*
X80382857Y-112815714D02*
X80382857Y-113482380D01*
X80144761Y-112434761D02*
X79906666Y-113149047D01*
X80525714Y-113149047D01*
X81620952Y-112434761D02*
X80763809Y-113720476D01*
X82525714Y-113482380D02*
X82192380Y-113006190D01*
X81954285Y-113482380D02*
X81954285Y-112482380D01*
X82335238Y-112482380D01*
X82430476Y-112530000D01*
X82478095Y-112577619D01*
X82525714Y-112672857D01*
X82525714Y-112815714D01*
X82478095Y-112910952D01*
X82430476Y-112958571D01*
X82335238Y-113006190D01*
X81954285Y-113006190D01*
X43823333Y-113387142D02*
X43775714Y-113434761D01*
X43632857Y-113482380D01*
X43537619Y-113482380D01*
X43394761Y-113434761D01*
X43299523Y-113339523D01*
X43251904Y-113244285D01*
X43204285Y-113053809D01*
X43204285Y-112910952D01*
X43251904Y-112720476D01*
X43299523Y-112625238D01*
X43394761Y-112530000D01*
X43537619Y-112482380D01*
X43632857Y-112482380D01*
X43775714Y-112530000D01*
X43823333Y-112577619D01*
X44680476Y-113482380D02*
X44680476Y-112958571D01*
X44632857Y-112863333D01*
X44537619Y-112815714D01*
X44347142Y-112815714D01*
X44251904Y-112863333D01*
X44680476Y-113434761D02*
X44585238Y-113482380D01*
X44347142Y-113482380D01*
X44251904Y-113434761D01*
X44204285Y-113339523D01*
X44204285Y-113244285D01*
X44251904Y-113149047D01*
X44347142Y-113101428D01*
X44585238Y-113101428D01*
X44680476Y-113053809D01*
X45156666Y-113482380D02*
X45156666Y-112482380D01*
X45156666Y-112863333D02*
X45251904Y-112815714D01*
X45442380Y-112815714D01*
X45537619Y-112863333D01*
X45585238Y-112910952D01*
X45632857Y-113006190D01*
X45632857Y-113291904D01*
X45585238Y-113387142D01*
X45537619Y-113434761D01*
X45442380Y-113482380D01*
X45251904Y-113482380D01*
X45156666Y-113434761D01*
X46204285Y-113482380D02*
X46109047Y-113434761D01*
X46061428Y-113339523D01*
X46061428Y-112482380D01*
X46966190Y-113434761D02*
X46870952Y-113482380D01*
X46680476Y-113482380D01*
X46585238Y-113434761D01*
X46537619Y-113339523D01*
X46537619Y-112958571D01*
X46585238Y-112863333D01*
X46680476Y-112815714D01*
X46870952Y-112815714D01*
X46966190Y-112863333D01*
X47013809Y-112958571D01*
X47013809Y-113053809D01*
X46537619Y-113149047D01*
X48109047Y-112482380D02*
X48728095Y-112482380D01*
X48394761Y-112863333D01*
X48537619Y-112863333D01*
X48632857Y-112910952D01*
X48680476Y-112958571D01*
X48728095Y-113053809D01*
X48728095Y-113291904D01*
X48680476Y-113387142D01*
X48632857Y-113434761D01*
X48537619Y-113482380D01*
X48251904Y-113482380D01*
X48156666Y-113434761D01*
X48109047Y-113387142D01*
X49870952Y-112434761D02*
X49013809Y-113720476D01*
X50537619Y-112958571D02*
X50680476Y-113006190D01*
X50728095Y-113053809D01*
X50775714Y-113149047D01*
X50775714Y-113291904D01*
X50728095Y-113387142D01*
X50680476Y-113434761D01*
X50585238Y-113482380D01*
X50204285Y-113482380D01*
X50204285Y-112482380D01*
X50537619Y-112482380D01*
X50632857Y-112530000D01*
X50680476Y-112577619D01*
X50728095Y-112672857D01*
X50728095Y-112768095D01*
X50680476Y-112863333D01*
X50632857Y-112910952D01*
X50537619Y-112958571D01*
X50204285Y-112958571D01*
X31011904Y-87447380D02*
X31011904Y-86447380D01*
X31250000Y-86447380D01*
X31392857Y-86495000D01*
X31488095Y-86590238D01*
X31535714Y-86685476D01*
X31583333Y-86875952D01*
X31583333Y-87018809D01*
X31535714Y-87209285D01*
X31488095Y-87304523D01*
X31392857Y-87399761D01*
X31250000Y-87447380D01*
X31011904Y-87447380D01*
X32440476Y-86780714D02*
X32440476Y-87447380D01*
X32202380Y-86399761D02*
X31964285Y-87114047D01*
X32583333Y-87114047D01*
X83081904Y-82367380D02*
X83081904Y-81367380D01*
X83320000Y-81367380D01*
X83462857Y-81415000D01*
X83558095Y-81510238D01*
X83605714Y-81605476D01*
X83653333Y-81795952D01*
X83653333Y-81938809D01*
X83605714Y-82129285D01*
X83558095Y-82224523D01*
X83462857Y-82319761D01*
X83320000Y-82367380D01*
X83081904Y-82367380D01*
X84034285Y-81462619D02*
X84081904Y-81415000D01*
X84177142Y-81367380D01*
X84415238Y-81367380D01*
X84510476Y-81415000D01*
X84558095Y-81462619D01*
X84605714Y-81557857D01*
X84605714Y-81653095D01*
X84558095Y-81795952D01*
X83986666Y-82367380D01*
X84605714Y-82367380D01*
X64254285Y-59507380D02*
X64254285Y-58507380D01*
X64825714Y-59507380D01*
X64825714Y-58507380D01*
X65301904Y-59507380D02*
X65301904Y-58507380D01*
X65301904Y-58983571D02*
X65873333Y-58983571D01*
X65873333Y-59507380D02*
X65873333Y-58507380D01*
X66349523Y-59507380D02*
X66349523Y-58507380D01*
X66587619Y-58507380D01*
X66730476Y-58555000D01*
X66825714Y-58650238D01*
X66873333Y-58745476D01*
X66920952Y-58935952D01*
X66920952Y-59078809D01*
X66873333Y-59269285D01*
X66825714Y-59364523D01*
X66730476Y-59459761D01*
X66587619Y-59507380D01*
X66349523Y-59507380D01*
X67873333Y-59507380D02*
X67301904Y-59507380D01*
X67587619Y-59507380D02*
X67587619Y-58507380D01*
X67492380Y-58650238D01*
X67397142Y-58745476D01*
X67301904Y-58793095D01*
X22042380Y-157606904D02*
X21042380Y-157606904D01*
X21518571Y-157606904D02*
X21518571Y-157035476D01*
X22042380Y-157035476D02*
X21042380Y-157035476D01*
X21042380Y-156130714D02*
X21042380Y-156321190D01*
X21090000Y-156416428D01*
X21137619Y-156464047D01*
X21280476Y-156559285D01*
X21470952Y-156606904D01*
X21851904Y-156606904D01*
X21947142Y-156559285D01*
X21994761Y-156511666D01*
X22042380Y-156416428D01*
X22042380Y-156225952D01*
X21994761Y-156130714D01*
X21947142Y-156083095D01*
X21851904Y-156035476D01*
X21613809Y-156035476D01*
X21518571Y-156083095D01*
X21470952Y-156130714D01*
X21423333Y-156225952D01*
X21423333Y-156416428D01*
X21470952Y-156511666D01*
X21518571Y-156559285D01*
X21613809Y-156606904D01*
X18502380Y-154844047D02*
X18502380Y-154653571D01*
X18550000Y-154558333D01*
X18645238Y-154463095D01*
X18835714Y-154415476D01*
X19169047Y-154415476D01*
X19359523Y-154463095D01*
X19454761Y-154558333D01*
X19502380Y-154653571D01*
X19502380Y-154844047D01*
X19454761Y-154939285D01*
X19359523Y-155034523D01*
X19169047Y-155082142D01*
X18835714Y-155082142D01*
X18645238Y-155034523D01*
X18550000Y-154939285D01*
X18502380Y-154844047D01*
X18835714Y-153558333D02*
X19502380Y-153558333D01*
X18835714Y-153986904D02*
X19359523Y-153986904D01*
X19454761Y-153939285D01*
X19502380Y-153844047D01*
X19502380Y-153701190D01*
X19454761Y-153605952D01*
X19407142Y-153558333D01*
X18835714Y-153225000D02*
X18835714Y-152844047D01*
X18502380Y-153082142D02*
X19359523Y-153082142D01*
X19454761Y-153034523D01*
X19502380Y-152939285D01*
X19502380Y-152844047D01*
X19454761Y-152558333D02*
X19502380Y-152463095D01*
X19502380Y-152272619D01*
X19454761Y-152177380D01*
X19359523Y-152129761D01*
X19311904Y-152129761D01*
X19216666Y-152177380D01*
X19169047Y-152272619D01*
X19169047Y-152415476D01*
X19121428Y-152510714D01*
X19026190Y-152558333D01*
X18978571Y-152558333D01*
X18883333Y-152510714D01*
X18835714Y-152415476D01*
X18835714Y-152272619D01*
X18883333Y-152177380D01*
X19502380Y-151701190D02*
X18835714Y-151701190D01*
X18502380Y-151701190D02*
X18550000Y-151748809D01*
X18597619Y-151701190D01*
X18550000Y-151653571D01*
X18502380Y-151701190D01*
X18597619Y-151701190D01*
X19502380Y-150796428D02*
X18502380Y-150796428D01*
X19454761Y-150796428D02*
X19502380Y-150891666D01*
X19502380Y-151082142D01*
X19454761Y-151177380D01*
X19407142Y-151225000D01*
X19311904Y-151272619D01*
X19026190Y-151272619D01*
X18930952Y-151225000D01*
X18883333Y-151177380D01*
X18835714Y-151082142D01*
X18835714Y-150891666D01*
X18883333Y-150796428D01*
X19454761Y-149939285D02*
X19502380Y-150034523D01*
X19502380Y-150225000D01*
X19454761Y-150320238D01*
X19359523Y-150367857D01*
X18978571Y-150367857D01*
X18883333Y-150320238D01*
X18835714Y-150225000D01*
X18835714Y-150034523D01*
X18883333Y-149939285D01*
X18978571Y-149891666D01*
X19073809Y-149891666D01*
X19169047Y-150367857D01*
X18835714Y-148844047D02*
X18835714Y-148463095D01*
X18502380Y-148701190D02*
X19359523Y-148701190D01*
X19454761Y-148653571D01*
X19502380Y-148558333D01*
X19502380Y-148463095D01*
X19502380Y-148129761D02*
X18502380Y-148129761D01*
X19502380Y-147701190D02*
X18978571Y-147701190D01*
X18883333Y-147748809D01*
X18835714Y-147844047D01*
X18835714Y-147986904D01*
X18883333Y-148082142D01*
X18930952Y-148129761D01*
X19454761Y-146844047D02*
X19502380Y-146939285D01*
X19502380Y-147129761D01*
X19454761Y-147225000D01*
X19359523Y-147272619D01*
X18978571Y-147272619D01*
X18883333Y-147225000D01*
X18835714Y-147129761D01*
X18835714Y-146939285D01*
X18883333Y-146844047D01*
X18978571Y-146796428D01*
X19073809Y-146796428D01*
X19169047Y-147272619D01*
X18835714Y-145605952D02*
X19835714Y-145605952D01*
X18883333Y-145605952D02*
X18835714Y-145510714D01*
X18835714Y-145320238D01*
X18883333Y-145225000D01*
X18930952Y-145177380D01*
X19026190Y-145129761D01*
X19311904Y-145129761D01*
X19407142Y-145177380D01*
X19454761Y-145225000D01*
X19502380Y-145320238D01*
X19502380Y-145510714D01*
X19454761Y-145605952D01*
X19454761Y-144272619D02*
X19502380Y-144367857D01*
X19502380Y-144558333D01*
X19454761Y-144653571D01*
X19407142Y-144701190D01*
X19311904Y-144748809D01*
X19026190Y-144748809D01*
X18930952Y-144701190D01*
X18883333Y-144653571D01*
X18835714Y-144558333D01*
X18835714Y-144367857D01*
X18883333Y-144272619D01*
X19502380Y-143844047D02*
X18502380Y-143844047D01*
X18883333Y-143844047D02*
X18835714Y-143748809D01*
X18835714Y-143558333D01*
X18883333Y-143463095D01*
X18930952Y-143415476D01*
X19026190Y-143367857D01*
X19311904Y-143367857D01*
X19407142Y-143415476D01*
X19454761Y-143463095D01*
X19502380Y-143558333D01*
X19502380Y-143748809D01*
X19454761Y-143844047D01*
X83081904Y-100147380D02*
X83081904Y-99147380D01*
X83320000Y-99147380D01*
X83462857Y-99195000D01*
X83558095Y-99290238D01*
X83605714Y-99385476D01*
X83653333Y-99575952D01*
X83653333Y-99718809D01*
X83605714Y-99909285D01*
X83558095Y-100004523D01*
X83462857Y-100099761D01*
X83320000Y-100147380D01*
X83081904Y-100147380D01*
X84605714Y-100147380D02*
X84034285Y-100147380D01*
X84320000Y-100147380D02*
X84320000Y-99147380D01*
X84224761Y-99290238D01*
X84129523Y-99385476D01*
X84034285Y-99433095D01*
X24598333Y-31567380D02*
X24265000Y-31091190D01*
X24026904Y-31567380D02*
X24026904Y-30567380D01*
X24407857Y-30567380D01*
X24503095Y-30615000D01*
X24550714Y-30662619D01*
X24598333Y-30757857D01*
X24598333Y-30900714D01*
X24550714Y-30995952D01*
X24503095Y-31043571D01*
X24407857Y-31091190D01*
X24026904Y-31091190D01*
X25503095Y-30567380D02*
X25026904Y-30567380D01*
X24979285Y-31043571D01*
X25026904Y-30995952D01*
X25122142Y-30948333D01*
X25360238Y-30948333D01*
X25455476Y-30995952D01*
X25503095Y-31043571D01*
X25550714Y-31138809D01*
X25550714Y-31376904D01*
X25503095Y-31472142D01*
X25455476Y-31519761D01*
X25360238Y-31567380D01*
X25122142Y-31567380D01*
X25026904Y-31519761D01*
X24979285Y-31472142D01*
X24526904Y-31837380D02*
X24050714Y-31837380D01*
X24003095Y-32313571D01*
X24050714Y-32265952D01*
X24145952Y-32218333D01*
X24384047Y-32218333D01*
X24479285Y-32265952D01*
X24526904Y-32313571D01*
X24574523Y-32408809D01*
X24574523Y-32646904D01*
X24526904Y-32742142D01*
X24479285Y-32789761D01*
X24384047Y-32837380D01*
X24145952Y-32837380D01*
X24050714Y-32789761D01*
X24003095Y-32742142D01*
X25193571Y-31837380D02*
X25288809Y-31837380D01*
X25384047Y-31885000D01*
X25431666Y-31932619D01*
X25479285Y-32027857D01*
X25526904Y-32218333D01*
X25526904Y-32456428D01*
X25479285Y-32646904D01*
X25431666Y-32742142D01*
X25384047Y-32789761D01*
X25288809Y-32837380D01*
X25193571Y-32837380D01*
X25098333Y-32789761D01*
X25050714Y-32742142D01*
X25003095Y-32646904D01*
X24955476Y-32456428D01*
X24955476Y-32218333D01*
X25003095Y-32027857D01*
X25050714Y-31932619D01*
X25098333Y-31885000D01*
X25193571Y-31837380D01*
X79986428Y-17597380D02*
X79415000Y-17597380D01*
X79700714Y-17597380D02*
X79700714Y-16597380D01*
X79605476Y-16740238D01*
X79510238Y-16835476D01*
X79415000Y-16883095D01*
X80605476Y-16597380D02*
X80700714Y-16597380D01*
X80795952Y-16645000D01*
X80843571Y-16692619D01*
X80891190Y-16787857D01*
X80938809Y-16978333D01*
X80938809Y-17216428D01*
X80891190Y-17406904D01*
X80843571Y-17502142D01*
X80795952Y-17549761D01*
X80700714Y-17597380D01*
X80605476Y-17597380D01*
X80510238Y-17549761D01*
X80462619Y-17502142D01*
X80415000Y-17406904D01*
X80367380Y-17216428D01*
X80367380Y-16978333D01*
X80415000Y-16787857D01*
X80462619Y-16692619D01*
X80510238Y-16645000D01*
X80605476Y-16597380D01*
X81557857Y-16597380D02*
X81653095Y-16597380D01*
X81748333Y-16645000D01*
X81795952Y-16692619D01*
X81843571Y-16787857D01*
X81891190Y-16978333D01*
X81891190Y-17216428D01*
X81843571Y-17406904D01*
X81795952Y-17502142D01*
X81748333Y-17549761D01*
X81653095Y-17597380D01*
X81557857Y-17597380D01*
X81462619Y-17549761D01*
X81415000Y-17502142D01*
X81367380Y-17406904D01*
X81319761Y-17216428D01*
X81319761Y-16978333D01*
X81367380Y-16787857D01*
X81415000Y-16692619D01*
X81462619Y-16645000D01*
X81557857Y-16597380D01*
X83510238Y-16930714D02*
X83510238Y-17597380D01*
X83081666Y-16930714D02*
X83081666Y-17454523D01*
X83129285Y-17549761D01*
X83224523Y-17597380D01*
X83367380Y-17597380D01*
X83462619Y-17549761D01*
X83510238Y-17502142D01*
X84319761Y-17073571D02*
X83986428Y-17073571D01*
X83986428Y-17597380D02*
X83986428Y-16597380D01*
X84462619Y-16597380D01*
X25566666Y-49196428D02*
X25566666Y-48720238D01*
X25852380Y-49291666D02*
X24852380Y-48958333D01*
X25852380Y-48625000D01*
X25804761Y-48339285D02*
X25852380Y-48196428D01*
X25852380Y-47958333D01*
X25804761Y-47863095D01*
X25757142Y-47815476D01*
X25661904Y-47767857D01*
X25566666Y-47767857D01*
X25471428Y-47815476D01*
X25423809Y-47863095D01*
X25376190Y-47958333D01*
X25328571Y-48148809D01*
X25280952Y-48244047D01*
X25233333Y-48291666D01*
X25138095Y-48339285D01*
X25042857Y-48339285D01*
X24947619Y-48291666D01*
X24900000Y-48244047D01*
X24852380Y-48148809D01*
X24852380Y-47910714D01*
X24900000Y-47767857D01*
X24852380Y-47482142D02*
X24852380Y-46910714D01*
X25852380Y-47196428D02*
X24852380Y-47196428D01*
X25852380Y-46053571D02*
X25852380Y-46625000D01*
X25852380Y-46339285D02*
X24852380Y-46339285D01*
X24995238Y-46434523D01*
X25090476Y-46529761D01*
X25138095Y-46625000D01*
X23947428Y-51815952D02*
X23947428Y-51054047D01*
X24328380Y-51435000D02*
X23566476Y-51435000D01*
X23947428Y-44195952D02*
X23947428Y-43434047D01*
X31011904Y-105227380D02*
X31011904Y-104227380D01*
X31250000Y-104227380D01*
X31392857Y-104275000D01*
X31488095Y-104370238D01*
X31535714Y-104465476D01*
X31583333Y-104655952D01*
X31583333Y-104798809D01*
X31535714Y-104989285D01*
X31488095Y-105084523D01*
X31392857Y-105179761D01*
X31250000Y-105227380D01*
X31011904Y-105227380D01*
X31916666Y-104227380D02*
X32535714Y-104227380D01*
X32202380Y-104608333D01*
X32345238Y-104608333D01*
X32440476Y-104655952D01*
X32488095Y-104703571D01*
X32535714Y-104798809D01*
X32535714Y-105036904D01*
X32488095Y-105132142D01*
X32440476Y-105179761D01*
X32345238Y-105227380D01*
X32059523Y-105227380D01*
X31964285Y-105179761D01*
X31916666Y-105132142D01*
X56983333Y-20137380D02*
X56650000Y-19661190D01*
X56411904Y-20137380D02*
X56411904Y-19137380D01*
X56792857Y-19137380D01*
X56888095Y-19185000D01*
X56935714Y-19232619D01*
X56983333Y-19327857D01*
X56983333Y-19470714D01*
X56935714Y-19565952D01*
X56888095Y-19613571D01*
X56792857Y-19661190D01*
X56411904Y-19661190D01*
X57935714Y-20137380D02*
X57364285Y-20137380D01*
X57650000Y-20137380D02*
X57650000Y-19137380D01*
X57554761Y-19280238D01*
X57459523Y-19375476D01*
X57364285Y-19423095D01*
X57118333Y-21407380D02*
X56546904Y-21407380D01*
X56832619Y-21407380D02*
X56832619Y-20407380D01*
X56737380Y-20550238D01*
X56642142Y-20645476D01*
X56546904Y-20693095D01*
X58070714Y-21407380D02*
X57499285Y-21407380D01*
X57785000Y-21407380D02*
X57785000Y-20407380D01*
X57689761Y-20550238D01*
X57594523Y-20645476D01*
X57499285Y-20693095D01*
X58689761Y-20407380D02*
X58785000Y-20407380D01*
X58880238Y-20455000D01*
X58927857Y-20502619D01*
X58975476Y-20597857D01*
X59023095Y-20788333D01*
X59023095Y-21026428D01*
X58975476Y-21216904D01*
X58927857Y-21312142D01*
X58880238Y-21359761D01*
X58785000Y-21407380D01*
X58689761Y-21407380D01*
X58594523Y-21359761D01*
X58546904Y-21312142D01*
X58499285Y-21216904D01*
X58451666Y-21026428D01*
X58451666Y-20788333D01*
X58499285Y-20597857D01*
X58546904Y-20502619D01*
X58594523Y-20455000D01*
X58689761Y-20407380D01*
X61468095Y-22677380D02*
X61468095Y-21677380D01*
X61468095Y-22153571D02*
X62039523Y-22153571D01*
X62039523Y-22677380D02*
X62039523Y-21677380D01*
X62563333Y-22677380D02*
X62753809Y-22677380D01*
X62849047Y-22629761D01*
X62896666Y-22582142D01*
X62991904Y-22439285D01*
X63039523Y-22248809D01*
X63039523Y-21867857D01*
X62991904Y-21772619D01*
X62944285Y-21725000D01*
X62849047Y-21677380D01*
X62658571Y-21677380D01*
X62563333Y-21725000D01*
X62515714Y-21772619D01*
X62468095Y-21867857D01*
X62468095Y-22105952D01*
X62515714Y-22201190D01*
X62563333Y-22248809D01*
X62658571Y-22296428D01*
X62849047Y-22296428D01*
X62944285Y-22248809D01*
X62991904Y-22201190D01*
X63039523Y-22105952D01*
X13843095Y-63317380D02*
X13843095Y-62317380D01*
X13843095Y-62793571D02*
X14414523Y-62793571D01*
X14414523Y-63317380D02*
X14414523Y-62317380D01*
X15033571Y-62745952D02*
X14938333Y-62698333D01*
X14890714Y-62650714D01*
X14843095Y-62555476D01*
X14843095Y-62507857D01*
X14890714Y-62412619D01*
X14938333Y-62365000D01*
X15033571Y-62317380D01*
X15224047Y-62317380D01*
X15319285Y-62365000D01*
X15366904Y-62412619D01*
X15414523Y-62507857D01*
X15414523Y-62555476D01*
X15366904Y-62650714D01*
X15319285Y-62698333D01*
X15224047Y-62745952D01*
X15033571Y-62745952D01*
X14938333Y-62793571D01*
X14890714Y-62841190D01*
X14843095Y-62936428D01*
X14843095Y-63126904D01*
X14890714Y-63222142D01*
X14938333Y-63269761D01*
X15033571Y-63317380D01*
X15224047Y-63317380D01*
X15319285Y-63269761D01*
X15366904Y-63222142D01*
X15414523Y-63126904D01*
X15414523Y-62936428D01*
X15366904Y-62841190D01*
X15319285Y-62793571D01*
X15224047Y-62745952D01*
X57205714Y-140152380D02*
X57205714Y-139152380D01*
X57443809Y-139152380D01*
X57586666Y-139200000D01*
X57681904Y-139295238D01*
X57729523Y-139390476D01*
X57777142Y-139580952D01*
X57777142Y-139723809D01*
X57729523Y-139914285D01*
X57681904Y-140009523D01*
X57586666Y-140104761D01*
X57443809Y-140152380D01*
X57205714Y-140152380D01*
X58158095Y-140104761D02*
X58300952Y-140152380D01*
X58539047Y-140152380D01*
X58634285Y-140104761D01*
X58681904Y-140057142D01*
X58729523Y-139961904D01*
X58729523Y-139866666D01*
X58681904Y-139771428D01*
X58634285Y-139723809D01*
X58539047Y-139676190D01*
X58348571Y-139628571D01*
X58253333Y-139580952D01*
X58205714Y-139533333D01*
X58158095Y-139438095D01*
X58158095Y-139342857D01*
X58205714Y-139247619D01*
X58253333Y-139200000D01*
X58348571Y-139152380D01*
X58586666Y-139152380D01*
X58729523Y-139200000D01*
X59110476Y-139247619D02*
X59158095Y-139200000D01*
X59253333Y-139152380D01*
X59491428Y-139152380D01*
X59586666Y-139200000D01*
X59634285Y-139247619D01*
X59681904Y-139342857D01*
X59681904Y-139438095D01*
X59634285Y-139580952D01*
X59062857Y-140152380D01*
X59681904Y-140152380D01*
X34591666Y-25487380D02*
X34591666Y-26201666D01*
X34544047Y-26344523D01*
X34448809Y-26439761D01*
X34305952Y-26487380D01*
X34210714Y-26487380D01*
X35020238Y-25582619D02*
X35067857Y-25535000D01*
X35163095Y-25487380D01*
X35401190Y-25487380D01*
X35496428Y-25535000D01*
X35544047Y-25582619D01*
X35591666Y-25677857D01*
X35591666Y-25773095D01*
X35544047Y-25915952D01*
X34972619Y-26487380D01*
X35591666Y-26487380D01*
X54506904Y-87447380D02*
X54506904Y-86447380D01*
X54745000Y-86447380D01*
X54887857Y-86495000D01*
X54983095Y-86590238D01*
X55030714Y-86685476D01*
X55078333Y-86875952D01*
X55078333Y-87018809D01*
X55030714Y-87209285D01*
X54983095Y-87304523D01*
X54887857Y-87399761D01*
X54745000Y-87447380D01*
X54506904Y-87447380D01*
X55935476Y-86447380D02*
X55745000Y-86447380D01*
X55649761Y-86495000D01*
X55602142Y-86542619D01*
X55506904Y-86685476D01*
X55459285Y-86875952D01*
X55459285Y-87256904D01*
X55506904Y-87352142D01*
X55554523Y-87399761D01*
X55649761Y-87447380D01*
X55840238Y-87447380D01*
X55935476Y-87399761D01*
X55983095Y-87352142D01*
X56030714Y-87256904D01*
X56030714Y-87018809D01*
X55983095Y-86923571D01*
X55935476Y-86875952D01*
X55840238Y-86828333D01*
X55649761Y-86828333D01*
X55554523Y-86875952D01*
X55506904Y-86923571D01*
X55459285Y-87018809D01*
X54506904Y-105227380D02*
X54506904Y-104227380D01*
X54745000Y-104227380D01*
X54887857Y-104275000D01*
X54983095Y-104370238D01*
X55030714Y-104465476D01*
X55078333Y-104655952D01*
X55078333Y-104798809D01*
X55030714Y-104989285D01*
X54983095Y-105084523D01*
X54887857Y-105179761D01*
X54745000Y-105227380D01*
X54506904Y-105227380D01*
X55983095Y-104227380D02*
X55506904Y-104227380D01*
X55459285Y-104703571D01*
X55506904Y-104655952D01*
X55602142Y-104608333D01*
X55840238Y-104608333D01*
X55935476Y-104655952D01*
X55983095Y-104703571D01*
X56030714Y-104798809D01*
X56030714Y-105036904D01*
X55983095Y-105132142D01*
X55935476Y-105179761D01*
X55840238Y-105227380D01*
X55602142Y-105227380D01*
X55506904Y-105179761D01*
X55459285Y-105132142D01*
X65278095Y-55697380D02*
X65278095Y-54697380D01*
X65278095Y-55173571D02*
X65849523Y-55173571D01*
X65849523Y-55697380D02*
X65849523Y-54697380D01*
X66754285Y-55030714D02*
X66754285Y-55697380D01*
X66516190Y-54649761D02*
X66278095Y-55364047D01*
X66897142Y-55364047D01*
X22677380Y-37591904D02*
X21677380Y-37591904D01*
X22153571Y-37591904D02*
X22153571Y-37020476D01*
X22677380Y-37020476D02*
X21677380Y-37020476D01*
X22677380Y-36020476D02*
X22677380Y-36591904D01*
X22677380Y-36306190D02*
X21677380Y-36306190D01*
X21820238Y-36401428D01*
X21915476Y-36496666D01*
X21963095Y-36591904D01*
X23963333Y-59507380D02*
X23630000Y-59031190D01*
X23391904Y-59507380D02*
X23391904Y-58507380D01*
X23772857Y-58507380D01*
X23868095Y-58555000D01*
X23915714Y-58602619D01*
X23963333Y-58697857D01*
X23963333Y-58840714D01*
X23915714Y-58935952D01*
X23868095Y-58983571D01*
X23772857Y-59031190D01*
X23391904Y-59031190D01*
X24820476Y-58840714D02*
X24820476Y-59507380D01*
X24582380Y-58459761D02*
X24344285Y-59174047D01*
X24963333Y-59174047D01*
X20026428Y-58840714D02*
X20026428Y-59507380D01*
X19788333Y-58459761D02*
X19550238Y-59174047D01*
X20169285Y-59174047D01*
X20550238Y-59412142D02*
X20597857Y-59459761D01*
X20550238Y-59507380D01*
X20502619Y-59459761D01*
X20550238Y-59412142D01*
X20550238Y-59507380D01*
X20931190Y-58507380D02*
X21597857Y-58507380D01*
X21169285Y-59507380D01*
X21978809Y-59507380D02*
X21978809Y-58507380D01*
X22074047Y-59126428D02*
X22359761Y-59507380D01*
X22359761Y-58840714D02*
X21978809Y-59221666D01*
X25487380Y-86058333D02*
X26201666Y-86058333D01*
X26344523Y-86105952D01*
X26439761Y-86201190D01*
X26487380Y-86344047D01*
X26487380Y-86439285D01*
X25487380Y-85677380D02*
X25487380Y-85058333D01*
X25868333Y-85391666D01*
X25868333Y-85248809D01*
X25915952Y-85153571D01*
X25963571Y-85105952D01*
X26058809Y-85058333D01*
X26296904Y-85058333D01*
X26392142Y-85105952D01*
X26439761Y-85153571D01*
X26487380Y-85248809D01*
X26487380Y-85534523D01*
X26439761Y-85629761D01*
X26392142Y-85677380D01*
X91527380Y-81406904D02*
X91527380Y-80835476D01*
X92527380Y-81121190D02*
X91527380Y-81121190D01*
X91622619Y-80549761D02*
X91575000Y-80502142D01*
X91527380Y-80406904D01*
X91527380Y-80168809D01*
X91575000Y-80073571D01*
X91622619Y-80025952D01*
X91717857Y-79978333D01*
X91813095Y-79978333D01*
X91955952Y-80025952D01*
X92527380Y-80597380D01*
X92527380Y-79978333D01*
X50093571Y-97075476D02*
X50093571Y-96742142D01*
X50617380Y-96599285D02*
X50617380Y-97075476D01*
X49617380Y-97075476D01*
X49617380Y-96599285D01*
X50522142Y-95599285D02*
X50569761Y-95646904D01*
X50617380Y-95789761D01*
X50617380Y-95885000D01*
X50569761Y-96027857D01*
X50474523Y-96123095D01*
X50379285Y-96170714D01*
X50188809Y-96218333D01*
X50045952Y-96218333D01*
X49855476Y-96170714D01*
X49760238Y-96123095D01*
X49665000Y-96027857D01*
X49617380Y-95885000D01*
X49617380Y-95789761D01*
X49665000Y-95646904D01*
X49712619Y-95599285D01*
X49617380Y-95265952D02*
X49617380Y-94646904D01*
X49998333Y-94980238D01*
X49998333Y-94837380D01*
X50045952Y-94742142D01*
X50093571Y-94694523D01*
X50188809Y-94646904D01*
X50426904Y-94646904D01*
X50522142Y-94694523D01*
X50569761Y-94742142D01*
X50617380Y-94837380D01*
X50617380Y-95123095D01*
X50569761Y-95218333D01*
X50522142Y-95265952D01*
X54300428Y-90963571D02*
X54300428Y-90201666D01*
X54681380Y-90582619D02*
X53919476Y-90582619D01*
X53681380Y-89535000D02*
X53681380Y-89344523D01*
X53729000Y-89249285D01*
X53824238Y-89154047D01*
X54014714Y-89106428D01*
X54348047Y-89106428D01*
X54538523Y-89154047D01*
X54633761Y-89249285D01*
X54681380Y-89344523D01*
X54681380Y-89535000D01*
X54633761Y-89630238D01*
X54538523Y-89725476D01*
X54348047Y-89773095D01*
X54014714Y-89773095D01*
X53824238Y-89725476D01*
X53729000Y-89630238D01*
X53681380Y-89535000D01*
X54681380Y-88677857D02*
X53681380Y-88677857D01*
X54681380Y-88106428D01*
X53681380Y-88106428D01*
X54300428Y-103568333D02*
X54300428Y-102806428D01*
X54681380Y-103187380D02*
X53919476Y-103187380D01*
X53681380Y-102139761D02*
X53681380Y-101949285D01*
X53729000Y-101854047D01*
X53824238Y-101758809D01*
X54014714Y-101711190D01*
X54348047Y-101711190D01*
X54538523Y-101758809D01*
X54633761Y-101854047D01*
X54681380Y-101949285D01*
X54681380Y-102139761D01*
X54633761Y-102235000D01*
X54538523Y-102330238D01*
X54348047Y-102377857D01*
X54014714Y-102377857D01*
X53824238Y-102330238D01*
X53729000Y-102235000D01*
X53681380Y-102139761D01*
X54157571Y-100949285D02*
X54157571Y-101282619D01*
X54681380Y-101282619D02*
X53681380Y-101282619D01*
X53681380Y-100806428D01*
X56332428Y-90963571D02*
X56332428Y-90201666D01*
X55713380Y-89535000D02*
X55713380Y-89344523D01*
X55761000Y-89249285D01*
X55856238Y-89154047D01*
X56046714Y-89106428D01*
X56380047Y-89106428D01*
X56570523Y-89154047D01*
X56665761Y-89249285D01*
X56713380Y-89344523D01*
X56713380Y-89535000D01*
X56665761Y-89630238D01*
X56570523Y-89725476D01*
X56380047Y-89773095D01*
X56046714Y-89773095D01*
X55856238Y-89725476D01*
X55761000Y-89630238D01*
X55713380Y-89535000D01*
X56713380Y-88677857D02*
X55713380Y-88677857D01*
X56713380Y-88106428D01*
X55713380Y-88106428D01*
X56332428Y-103568333D02*
X56332428Y-102806428D01*
X55713380Y-102139761D02*
X55713380Y-101949285D01*
X55761000Y-101854047D01*
X55856238Y-101758809D01*
X56046714Y-101711190D01*
X56380047Y-101711190D01*
X56570523Y-101758809D01*
X56665761Y-101854047D01*
X56713380Y-101949285D01*
X56713380Y-102139761D01*
X56665761Y-102235000D01*
X56570523Y-102330238D01*
X56380047Y-102377857D01*
X56046714Y-102377857D01*
X55856238Y-102330238D01*
X55761000Y-102235000D01*
X55713380Y-102139761D01*
X56189571Y-100949285D02*
X56189571Y-101282619D01*
X56713380Y-101282619D02*
X55713380Y-101282619D01*
X55713380Y-100806428D01*
X54681380Y-96670714D02*
X53681380Y-96670714D01*
X54681380Y-96099285D01*
X53681380Y-96099285D01*
X54586142Y-95051666D02*
X54633761Y-95099285D01*
X54681380Y-95242142D01*
X54681380Y-95337380D01*
X54633761Y-95480238D01*
X54538523Y-95575476D01*
X54443285Y-95623095D01*
X54252809Y-95670714D01*
X54109952Y-95670714D01*
X53919476Y-95623095D01*
X53824238Y-95575476D01*
X53729000Y-95480238D01*
X53681380Y-95337380D01*
X53681380Y-95242142D01*
X53729000Y-95099285D01*
X53776619Y-95051666D01*
X54681380Y-99234523D02*
X53681380Y-99234523D01*
X54681380Y-98663095D01*
X53681380Y-98663095D01*
X53681380Y-97996428D02*
X53681380Y-97805952D01*
X53729000Y-97710714D01*
X53824238Y-97615476D01*
X54014714Y-97567857D01*
X54348047Y-97567857D01*
X54538523Y-97615476D01*
X54633761Y-97710714D01*
X54681380Y-97805952D01*
X54681380Y-97996428D01*
X54633761Y-98091666D01*
X54538523Y-98186904D01*
X54348047Y-98234523D01*
X54014714Y-98234523D01*
X53824238Y-98186904D01*
X53729000Y-98091666D01*
X53681380Y-97996428D01*
X86868095Y-22677380D02*
X86868095Y-21677380D01*
X86868095Y-22153571D02*
X87439523Y-22153571D01*
X87439523Y-22677380D02*
X87439523Y-21677380D01*
X87820476Y-21677380D02*
X88487142Y-21677380D01*
X88058571Y-22677380D01*
X106553095Y-57237380D02*
X107124523Y-57237380D01*
X106838809Y-58237380D02*
X106838809Y-57237380D01*
X107981666Y-58237380D02*
X107410238Y-58237380D01*
X107695952Y-58237380D02*
X107695952Y-57237380D01*
X107600714Y-57380238D01*
X107505476Y-57475476D01*
X107410238Y-57523095D01*
X56388095Y-143962380D02*
X56388095Y-142962380D01*
X56388095Y-143438571D02*
X56959523Y-143438571D01*
X56959523Y-143962380D02*
X56959523Y-142962380D01*
X57388095Y-143057619D02*
X57435714Y-143010000D01*
X57530952Y-142962380D01*
X57769047Y-142962380D01*
X57864285Y-143010000D01*
X57911904Y-143057619D01*
X57959523Y-143152857D01*
X57959523Y-143248095D01*
X57911904Y-143390952D01*
X57340476Y-143962380D01*
X57959523Y-143962380D01*
X51887380Y-142366904D02*
X50887380Y-142366904D01*
X51363571Y-142366904D02*
X51363571Y-141795476D01*
X51887380Y-141795476D02*
X50887380Y-141795476D01*
X50887380Y-140843095D02*
X50887380Y-141319285D01*
X51363571Y-141366904D01*
X51315952Y-141319285D01*
X51268333Y-141224047D01*
X51268333Y-140985952D01*
X51315952Y-140890714D01*
X51363571Y-140843095D01*
X51458809Y-140795476D01*
X51696904Y-140795476D01*
X51792142Y-140843095D01*
X51839761Y-140890714D01*
X51887380Y-140985952D01*
X51887380Y-141224047D01*
X51839761Y-141319285D01*
X51792142Y-141366904D01*
X53427380Y-154844047D02*
X53427380Y-154653571D01*
X53475000Y-154558333D01*
X53570238Y-154463095D01*
X53760714Y-154415476D01*
X54094047Y-154415476D01*
X54284523Y-154463095D01*
X54379761Y-154558333D01*
X54427380Y-154653571D01*
X54427380Y-154844047D01*
X54379761Y-154939285D01*
X54284523Y-155034523D01*
X54094047Y-155082142D01*
X53760714Y-155082142D01*
X53570238Y-155034523D01*
X53475000Y-154939285D01*
X53427380Y-154844047D01*
X53760714Y-153558333D02*
X54427380Y-153558333D01*
X53760714Y-153986904D02*
X54284523Y-153986904D01*
X54379761Y-153939285D01*
X54427380Y-153844047D01*
X54427380Y-153701190D01*
X54379761Y-153605952D01*
X54332142Y-153558333D01*
X53760714Y-153225000D02*
X53760714Y-152844047D01*
X53427380Y-153082142D02*
X54284523Y-153082142D01*
X54379761Y-153034523D01*
X54427380Y-152939285D01*
X54427380Y-152844047D01*
X54379761Y-152558333D02*
X54427380Y-152463095D01*
X54427380Y-152272619D01*
X54379761Y-152177380D01*
X54284523Y-152129761D01*
X54236904Y-152129761D01*
X54141666Y-152177380D01*
X54094047Y-152272619D01*
X54094047Y-152415476D01*
X54046428Y-152510714D01*
X53951190Y-152558333D01*
X53903571Y-152558333D01*
X53808333Y-152510714D01*
X53760714Y-152415476D01*
X53760714Y-152272619D01*
X53808333Y-152177380D01*
X54427380Y-151701190D02*
X53760714Y-151701190D01*
X53427380Y-151701190D02*
X53475000Y-151748809D01*
X53522619Y-151701190D01*
X53475000Y-151653571D01*
X53427380Y-151701190D01*
X53522619Y-151701190D01*
X54427380Y-150796428D02*
X53427380Y-150796428D01*
X54379761Y-150796428D02*
X54427380Y-150891666D01*
X54427380Y-151082142D01*
X54379761Y-151177380D01*
X54332142Y-151225000D01*
X54236904Y-151272619D01*
X53951190Y-151272619D01*
X53855952Y-151225000D01*
X53808333Y-151177380D01*
X53760714Y-151082142D01*
X53760714Y-150891666D01*
X53808333Y-150796428D01*
X54379761Y-149939285D02*
X54427380Y-150034523D01*
X54427380Y-150225000D01*
X54379761Y-150320238D01*
X54284523Y-150367857D01*
X53903571Y-150367857D01*
X53808333Y-150320238D01*
X53760714Y-150225000D01*
X53760714Y-150034523D01*
X53808333Y-149939285D01*
X53903571Y-149891666D01*
X53998809Y-149891666D01*
X54094047Y-150367857D01*
X53760714Y-148844047D02*
X53760714Y-148463095D01*
X53427380Y-148701190D02*
X54284523Y-148701190D01*
X54379761Y-148653571D01*
X54427380Y-148558333D01*
X54427380Y-148463095D01*
X54427380Y-148129761D02*
X53427380Y-148129761D01*
X54427380Y-147701190D02*
X53903571Y-147701190D01*
X53808333Y-147748809D01*
X53760714Y-147844047D01*
X53760714Y-147986904D01*
X53808333Y-148082142D01*
X53855952Y-148129761D01*
X54379761Y-146844047D02*
X54427380Y-146939285D01*
X54427380Y-147129761D01*
X54379761Y-147225000D01*
X54284523Y-147272619D01*
X53903571Y-147272619D01*
X53808333Y-147225000D01*
X53760714Y-147129761D01*
X53760714Y-146939285D01*
X53808333Y-146844047D01*
X53903571Y-146796428D01*
X53998809Y-146796428D01*
X54094047Y-147272619D01*
X53760714Y-145605952D02*
X54760714Y-145605952D01*
X53808333Y-145605952D02*
X53760714Y-145510714D01*
X53760714Y-145320238D01*
X53808333Y-145225000D01*
X53855952Y-145177380D01*
X53951190Y-145129761D01*
X54236904Y-145129761D01*
X54332142Y-145177380D01*
X54379761Y-145225000D01*
X54427380Y-145320238D01*
X54427380Y-145510714D01*
X54379761Y-145605952D01*
X54379761Y-144272619D02*
X54427380Y-144367857D01*
X54427380Y-144558333D01*
X54379761Y-144653571D01*
X54332142Y-144701190D01*
X54236904Y-144748809D01*
X53951190Y-144748809D01*
X53855952Y-144701190D01*
X53808333Y-144653571D01*
X53760714Y-144558333D01*
X53760714Y-144367857D01*
X53808333Y-144272619D01*
X54427380Y-143844047D02*
X53427380Y-143844047D01*
X53808333Y-143844047D02*
X53760714Y-143748809D01*
X53760714Y-143558333D01*
X53808333Y-143463095D01*
X53855952Y-143415476D01*
X53951190Y-143367857D01*
X54236904Y-143367857D01*
X54332142Y-143415476D01*
X54379761Y-143463095D01*
X54427380Y-143558333D01*
X54427380Y-143748809D01*
X54379761Y-143844047D01*
X50252380Y-34107380D02*
X49919047Y-33631190D01*
X49680952Y-34107380D02*
X49680952Y-33107380D01*
X50061904Y-33107380D01*
X50157142Y-33155000D01*
X50204761Y-33202619D01*
X50252380Y-33297857D01*
X50252380Y-33440714D01*
X50204761Y-33535952D01*
X50157142Y-33583571D01*
X50061904Y-33631190D01*
X49680952Y-33631190D01*
X50966666Y-33107380D02*
X50966666Y-33821666D01*
X50919047Y-33964523D01*
X50823809Y-34059761D01*
X50680952Y-34107380D01*
X50585714Y-34107380D01*
X51395238Y-33202619D02*
X51442857Y-33155000D01*
X51538095Y-33107380D01*
X51776190Y-33107380D01*
X51871428Y-33155000D01*
X51919047Y-33202619D01*
X51966666Y-33297857D01*
X51966666Y-33393095D01*
X51919047Y-33535952D01*
X51347619Y-34107380D01*
X51966666Y-34107380D01*
X43188333Y-46712142D02*
X43140714Y-46759761D01*
X42997857Y-46807380D01*
X42902619Y-46807380D01*
X42759761Y-46759761D01*
X42664523Y-46664523D01*
X42616904Y-46569285D01*
X42569285Y-46378809D01*
X42569285Y-46235952D01*
X42616904Y-46045476D01*
X42664523Y-45950238D01*
X42759761Y-45855000D01*
X42902619Y-45807380D01*
X42997857Y-45807380D01*
X43140714Y-45855000D01*
X43188333Y-45902619D01*
X44045476Y-46807380D02*
X44045476Y-46283571D01*
X43997857Y-46188333D01*
X43902619Y-46140714D01*
X43712142Y-46140714D01*
X43616904Y-46188333D01*
X44045476Y-46759761D02*
X43950238Y-46807380D01*
X43712142Y-46807380D01*
X43616904Y-46759761D01*
X43569285Y-46664523D01*
X43569285Y-46569285D01*
X43616904Y-46474047D01*
X43712142Y-46426428D01*
X43950238Y-46426428D01*
X44045476Y-46378809D01*
X44521666Y-46807380D02*
X44521666Y-45807380D01*
X44521666Y-46188333D02*
X44616904Y-46140714D01*
X44807380Y-46140714D01*
X44902619Y-46188333D01*
X44950238Y-46235952D01*
X44997857Y-46331190D01*
X44997857Y-46616904D01*
X44950238Y-46712142D01*
X44902619Y-46759761D01*
X44807380Y-46807380D01*
X44616904Y-46807380D01*
X44521666Y-46759761D01*
X45569285Y-46807380D02*
X45474047Y-46759761D01*
X45426428Y-46664523D01*
X45426428Y-45807380D01*
X46331190Y-46759761D02*
X46235952Y-46807380D01*
X46045476Y-46807380D01*
X45950238Y-46759761D01*
X45902619Y-46664523D01*
X45902619Y-46283571D01*
X45950238Y-46188333D01*
X46045476Y-46140714D01*
X46235952Y-46140714D01*
X46331190Y-46188333D01*
X46378809Y-46283571D01*
X46378809Y-46378809D01*
X45902619Y-46474047D01*
X47997857Y-46140714D02*
X47997857Y-46807380D01*
X47759761Y-45759761D02*
X47521666Y-46474047D01*
X48140714Y-46474047D01*
X49235952Y-45759761D02*
X48378809Y-47045476D01*
X50140714Y-46807380D02*
X49807380Y-46331190D01*
X49569285Y-46807380D02*
X49569285Y-45807380D01*
X49950238Y-45807380D01*
X50045476Y-45855000D01*
X50093095Y-45902619D01*
X50140714Y-45997857D01*
X50140714Y-46140714D01*
X50093095Y-46235952D01*
X50045476Y-46283571D01*
X49950238Y-46331190D01*
X49569285Y-46331190D01*
X57158333Y-46712142D02*
X57110714Y-46759761D01*
X56967857Y-46807380D01*
X56872619Y-46807380D01*
X56729761Y-46759761D01*
X56634523Y-46664523D01*
X56586904Y-46569285D01*
X56539285Y-46378809D01*
X56539285Y-46235952D01*
X56586904Y-46045476D01*
X56634523Y-45950238D01*
X56729761Y-45855000D01*
X56872619Y-45807380D01*
X56967857Y-45807380D01*
X57110714Y-45855000D01*
X57158333Y-45902619D01*
X58015476Y-46807380D02*
X58015476Y-46283571D01*
X57967857Y-46188333D01*
X57872619Y-46140714D01*
X57682142Y-46140714D01*
X57586904Y-46188333D01*
X58015476Y-46759761D02*
X57920238Y-46807380D01*
X57682142Y-46807380D01*
X57586904Y-46759761D01*
X57539285Y-46664523D01*
X57539285Y-46569285D01*
X57586904Y-46474047D01*
X57682142Y-46426428D01*
X57920238Y-46426428D01*
X58015476Y-46378809D01*
X58491666Y-46807380D02*
X58491666Y-45807380D01*
X58491666Y-46188333D02*
X58586904Y-46140714D01*
X58777380Y-46140714D01*
X58872619Y-46188333D01*
X58920238Y-46235952D01*
X58967857Y-46331190D01*
X58967857Y-46616904D01*
X58920238Y-46712142D01*
X58872619Y-46759761D01*
X58777380Y-46807380D01*
X58586904Y-46807380D01*
X58491666Y-46759761D01*
X59539285Y-46807380D02*
X59444047Y-46759761D01*
X59396428Y-46664523D01*
X59396428Y-45807380D01*
X60301190Y-46759761D02*
X60205952Y-46807380D01*
X60015476Y-46807380D01*
X59920238Y-46759761D01*
X59872619Y-46664523D01*
X59872619Y-46283571D01*
X59920238Y-46188333D01*
X60015476Y-46140714D01*
X60205952Y-46140714D01*
X60301190Y-46188333D01*
X60348809Y-46283571D01*
X60348809Y-46378809D01*
X59872619Y-46474047D01*
X61444047Y-45807380D02*
X62063095Y-45807380D01*
X61729761Y-46188333D01*
X61872619Y-46188333D01*
X61967857Y-46235952D01*
X62015476Y-46283571D01*
X62063095Y-46378809D01*
X62063095Y-46616904D01*
X62015476Y-46712142D01*
X61967857Y-46759761D01*
X61872619Y-46807380D01*
X61586904Y-46807380D01*
X61491666Y-46759761D01*
X61444047Y-46712142D01*
X63205952Y-45759761D02*
X62348809Y-47045476D01*
X63872619Y-46283571D02*
X64015476Y-46331190D01*
X64063095Y-46378809D01*
X64110714Y-46474047D01*
X64110714Y-46616904D01*
X64063095Y-46712142D01*
X64015476Y-46759761D01*
X63920238Y-46807380D01*
X63539285Y-46807380D01*
X63539285Y-45807380D01*
X63872619Y-45807380D01*
X63967857Y-45855000D01*
X64015476Y-45902619D01*
X64063095Y-45997857D01*
X64063095Y-46093095D01*
X64015476Y-46188333D01*
X63967857Y-46235952D01*
X63872619Y-46283571D01*
X63539285Y-46283571D01*
X83748571Y-94519285D02*
X83748571Y-94185952D01*
X84272380Y-94043095D02*
X84272380Y-94519285D01*
X83272380Y-94519285D01*
X83272380Y-94043095D01*
X84177142Y-93043095D02*
X84224761Y-93090714D01*
X84272380Y-93233571D01*
X84272380Y-93328809D01*
X84224761Y-93471666D01*
X84129523Y-93566904D01*
X84034285Y-93614523D01*
X83843809Y-93662142D01*
X83700952Y-93662142D01*
X83510476Y-93614523D01*
X83415238Y-93566904D01*
X83320000Y-93471666D01*
X83272380Y-93328809D01*
X83272380Y-93233571D01*
X83320000Y-93090714D01*
X83367619Y-93043095D01*
X83367619Y-92662142D02*
X83320000Y-92614523D01*
X83272380Y-92519285D01*
X83272380Y-92281190D01*
X83320000Y-92185952D01*
X83367619Y-92138333D01*
X83462857Y-92090714D01*
X83558095Y-92090714D01*
X83700952Y-92138333D01*
X84272380Y-92709761D01*
X84272380Y-92090714D01*
X83891428Y-91662142D02*
X83891428Y-90900238D01*
X83272380Y-90519285D02*
X83272380Y-89900238D01*
X83653333Y-90233571D01*
X83653333Y-90090714D01*
X83700952Y-89995476D01*
X83748571Y-89947857D01*
X83843809Y-89900238D01*
X84081904Y-89900238D01*
X84177142Y-89947857D01*
X84224761Y-89995476D01*
X84272380Y-90090714D01*
X84272380Y-90376428D01*
X84224761Y-90471666D01*
X84177142Y-90519285D01*
X83272380Y-89614523D02*
X83272380Y-89043095D01*
X84272380Y-89328809D02*
X83272380Y-89328809D01*
X84272380Y-88709761D02*
X83272380Y-88709761D01*
X84272380Y-88138333D01*
X83272380Y-88138333D01*
X83272380Y-87662142D02*
X84081904Y-87662142D01*
X84177142Y-87614523D01*
X84224761Y-87566904D01*
X84272380Y-87471666D01*
X84272380Y-87281190D01*
X84224761Y-87185952D01*
X84177142Y-87138333D01*
X84081904Y-87090714D01*
X83272380Y-87090714D01*
X82002380Y-34107380D02*
X81669047Y-33631190D01*
X81430952Y-34107380D02*
X81430952Y-33107380D01*
X81811904Y-33107380D01*
X81907142Y-33155000D01*
X81954761Y-33202619D01*
X82002380Y-33297857D01*
X82002380Y-33440714D01*
X81954761Y-33535952D01*
X81907142Y-33583571D01*
X81811904Y-33631190D01*
X81430952Y-33631190D01*
X82716666Y-33107380D02*
X82716666Y-33821666D01*
X82669047Y-33964523D01*
X82573809Y-34059761D01*
X82430952Y-34107380D01*
X82335714Y-34107380D01*
X83716666Y-34107380D02*
X83145238Y-34107380D01*
X83430952Y-34107380D02*
X83430952Y-33107380D01*
X83335714Y-33250238D01*
X83240476Y-33345476D01*
X83145238Y-33393095D01*
X88979761Y-46712142D02*
X88932142Y-46759761D01*
X88789285Y-46807380D01*
X88694047Y-46807380D01*
X88551190Y-46759761D01*
X88455952Y-46664523D01*
X88408333Y-46569285D01*
X88360714Y-46378809D01*
X88360714Y-46235952D01*
X88408333Y-46045476D01*
X88455952Y-45950238D01*
X88551190Y-45855000D01*
X88694047Y-45807380D01*
X88789285Y-45807380D01*
X88932142Y-45855000D01*
X88979761Y-45902619D01*
X89836904Y-46807380D02*
X89836904Y-46283571D01*
X89789285Y-46188333D01*
X89694047Y-46140714D01*
X89503571Y-46140714D01*
X89408333Y-46188333D01*
X89836904Y-46759761D02*
X89741666Y-46807380D01*
X89503571Y-46807380D01*
X89408333Y-46759761D01*
X89360714Y-46664523D01*
X89360714Y-46569285D01*
X89408333Y-46474047D01*
X89503571Y-46426428D01*
X89741666Y-46426428D01*
X89836904Y-46378809D01*
X90313095Y-46807380D02*
X90313095Y-45807380D01*
X90313095Y-46188333D02*
X90408333Y-46140714D01*
X90598809Y-46140714D01*
X90694047Y-46188333D01*
X90741666Y-46235952D01*
X90789285Y-46331190D01*
X90789285Y-46616904D01*
X90741666Y-46712142D01*
X90694047Y-46759761D01*
X90598809Y-46807380D01*
X90408333Y-46807380D01*
X90313095Y-46759761D01*
X91360714Y-46807380D02*
X91265476Y-46759761D01*
X91217857Y-46664523D01*
X91217857Y-45807380D01*
X92122619Y-46759761D02*
X92027380Y-46807380D01*
X91836904Y-46807380D01*
X91741666Y-46759761D01*
X91694047Y-46664523D01*
X91694047Y-46283571D01*
X91741666Y-46188333D01*
X91836904Y-46140714D01*
X92027380Y-46140714D01*
X92122619Y-46188333D01*
X92170238Y-46283571D01*
X92170238Y-46378809D01*
X91694047Y-46474047D01*
X93884523Y-46807380D02*
X93313095Y-46807380D01*
X93598809Y-46807380D02*
X93598809Y-45807380D01*
X93503571Y-45950238D01*
X93408333Y-46045476D01*
X93313095Y-46093095D01*
X95027380Y-45759761D02*
X94170238Y-47045476D01*
X95551190Y-46331190D02*
X95551190Y-46807380D01*
X95217857Y-45807380D02*
X95551190Y-46331190D01*
X95884523Y-45807380D01*
X74938333Y-46712142D02*
X74890714Y-46759761D01*
X74747857Y-46807380D01*
X74652619Y-46807380D01*
X74509761Y-46759761D01*
X74414523Y-46664523D01*
X74366904Y-46569285D01*
X74319285Y-46378809D01*
X74319285Y-46235952D01*
X74366904Y-46045476D01*
X74414523Y-45950238D01*
X74509761Y-45855000D01*
X74652619Y-45807380D01*
X74747857Y-45807380D01*
X74890714Y-45855000D01*
X74938333Y-45902619D01*
X75795476Y-46807380D02*
X75795476Y-46283571D01*
X75747857Y-46188333D01*
X75652619Y-46140714D01*
X75462142Y-46140714D01*
X75366904Y-46188333D01*
X75795476Y-46759761D02*
X75700238Y-46807380D01*
X75462142Y-46807380D01*
X75366904Y-46759761D01*
X75319285Y-46664523D01*
X75319285Y-46569285D01*
X75366904Y-46474047D01*
X75462142Y-46426428D01*
X75700238Y-46426428D01*
X75795476Y-46378809D01*
X76271666Y-46807380D02*
X76271666Y-45807380D01*
X76271666Y-46188333D02*
X76366904Y-46140714D01*
X76557380Y-46140714D01*
X76652619Y-46188333D01*
X76700238Y-46235952D01*
X76747857Y-46331190D01*
X76747857Y-46616904D01*
X76700238Y-46712142D01*
X76652619Y-46759761D01*
X76557380Y-46807380D01*
X76366904Y-46807380D01*
X76271666Y-46759761D01*
X77319285Y-46807380D02*
X77224047Y-46759761D01*
X77176428Y-46664523D01*
X77176428Y-45807380D01*
X78081190Y-46759761D02*
X77985952Y-46807380D01*
X77795476Y-46807380D01*
X77700238Y-46759761D01*
X77652619Y-46664523D01*
X77652619Y-46283571D01*
X77700238Y-46188333D01*
X77795476Y-46140714D01*
X77985952Y-46140714D01*
X78081190Y-46188333D01*
X78128809Y-46283571D01*
X78128809Y-46378809D01*
X77652619Y-46474047D01*
X79271666Y-45902619D02*
X79319285Y-45855000D01*
X79414523Y-45807380D01*
X79652619Y-45807380D01*
X79747857Y-45855000D01*
X79795476Y-45902619D01*
X79843095Y-45997857D01*
X79843095Y-46093095D01*
X79795476Y-46235952D01*
X79224047Y-46807380D01*
X79843095Y-46807380D01*
X80985952Y-45759761D02*
X80128809Y-47045476D01*
X81843095Y-45855000D02*
X81747857Y-45807380D01*
X81605000Y-45807380D01*
X81462142Y-45855000D01*
X81366904Y-45950238D01*
X81319285Y-46045476D01*
X81271666Y-46235952D01*
X81271666Y-46378809D01*
X81319285Y-46569285D01*
X81366904Y-46664523D01*
X81462142Y-46759761D01*
X81605000Y-46807380D01*
X81700238Y-46807380D01*
X81843095Y-46759761D01*
X81890714Y-46712142D01*
X81890714Y-46378809D01*
X81700238Y-46378809D01*
X30583333Y-109783571D02*
X30726190Y-109831190D01*
X30773809Y-109878809D01*
X30821428Y-109974047D01*
X30821428Y-110116904D01*
X30773809Y-110212142D01*
X30726190Y-110259761D01*
X30630952Y-110307380D01*
X30250000Y-110307380D01*
X30250000Y-109307380D01*
X30583333Y-109307380D01*
X30678571Y-109355000D01*
X30726190Y-109402619D01*
X30773809Y-109497857D01*
X30773809Y-109593095D01*
X30726190Y-109688333D01*
X30678571Y-109735952D01*
X30583333Y-109783571D01*
X30250000Y-109783571D01*
X31535714Y-109307380D02*
X31535714Y-110021666D01*
X31488095Y-110164523D01*
X31392857Y-110259761D01*
X31250000Y-110307380D01*
X31154761Y-110307380D01*
X31869047Y-109307380D02*
X32440476Y-109307380D01*
X32154761Y-110307380D02*
X32154761Y-109307380D01*
X33297619Y-110307380D02*
X32726190Y-110307380D01*
X33011904Y-110307380D02*
X33011904Y-109307380D01*
X32916666Y-109450238D01*
X32821428Y-109545476D01*
X32726190Y-109593095D01*
X27725714Y-107243571D02*
X28059047Y-107243571D01*
X28201904Y-107767380D02*
X27725714Y-107767380D01*
X27725714Y-106767380D01*
X28201904Y-106767380D01*
X35869523Y-107672142D02*
X35821904Y-107719761D01*
X35679047Y-107767380D01*
X35583809Y-107767380D01*
X35440952Y-107719761D01*
X35345714Y-107624523D01*
X35298095Y-107529285D01*
X35250476Y-107338809D01*
X35250476Y-107195952D01*
X35298095Y-107005476D01*
X35345714Y-106910238D01*
X35440952Y-106815000D01*
X35583809Y-106767380D01*
X35679047Y-106767380D01*
X35821904Y-106815000D01*
X35869523Y-106862619D01*
X30583333Y-81208571D02*
X30726190Y-81256190D01*
X30773809Y-81303809D01*
X30821428Y-81399047D01*
X30821428Y-81541904D01*
X30773809Y-81637142D01*
X30726190Y-81684761D01*
X30630952Y-81732380D01*
X30250000Y-81732380D01*
X30250000Y-80732380D01*
X30583333Y-80732380D01*
X30678571Y-80780000D01*
X30726190Y-80827619D01*
X30773809Y-80922857D01*
X30773809Y-81018095D01*
X30726190Y-81113333D01*
X30678571Y-81160952D01*
X30583333Y-81208571D01*
X30250000Y-81208571D01*
X31535714Y-80732380D02*
X31535714Y-81446666D01*
X31488095Y-81589523D01*
X31392857Y-81684761D01*
X31250000Y-81732380D01*
X31154761Y-81732380D01*
X31869047Y-80732380D02*
X32440476Y-80732380D01*
X32154761Y-81732380D02*
X32154761Y-80732380D01*
X32726190Y-80827619D02*
X32773809Y-80780000D01*
X32869047Y-80732380D01*
X33107142Y-80732380D01*
X33202380Y-80780000D01*
X33250000Y-80827619D01*
X33297619Y-80922857D01*
X33297619Y-81018095D01*
X33250000Y-81160952D01*
X32678571Y-81732380D01*
X33297619Y-81732380D01*
X27725714Y-84383571D02*
X28059047Y-84383571D01*
X28201904Y-84907380D02*
X27725714Y-84907380D01*
X27725714Y-83907380D01*
X28201904Y-83907380D01*
X35869523Y-84812142D02*
X35821904Y-84859761D01*
X35679047Y-84907380D01*
X35583809Y-84907380D01*
X35440952Y-84859761D01*
X35345714Y-84764523D01*
X35298095Y-84669285D01*
X35250476Y-84478809D01*
X35250476Y-84335952D01*
X35298095Y-84145476D01*
X35345714Y-84050238D01*
X35440952Y-83955000D01*
X35583809Y-83907380D01*
X35679047Y-83907380D01*
X35821904Y-83955000D01*
X35869523Y-84002619D01*
X54078333Y-109783571D02*
X54221190Y-109831190D01*
X54268809Y-109878809D01*
X54316428Y-109974047D01*
X54316428Y-110116904D01*
X54268809Y-110212142D01*
X54221190Y-110259761D01*
X54125952Y-110307380D01*
X53745000Y-110307380D01*
X53745000Y-109307380D01*
X54078333Y-109307380D01*
X54173571Y-109355000D01*
X54221190Y-109402619D01*
X54268809Y-109497857D01*
X54268809Y-109593095D01*
X54221190Y-109688333D01*
X54173571Y-109735952D01*
X54078333Y-109783571D01*
X53745000Y-109783571D01*
X55030714Y-109307380D02*
X55030714Y-110021666D01*
X54983095Y-110164523D01*
X54887857Y-110259761D01*
X54745000Y-110307380D01*
X54649761Y-110307380D01*
X55364047Y-109307380D02*
X55935476Y-109307380D01*
X55649761Y-110307380D02*
X55649761Y-109307380D01*
X56173571Y-109307380D02*
X56792619Y-109307380D01*
X56459285Y-109688333D01*
X56602142Y-109688333D01*
X56697380Y-109735952D01*
X56745000Y-109783571D01*
X56792619Y-109878809D01*
X56792619Y-110116904D01*
X56745000Y-110212142D01*
X56697380Y-110259761D01*
X56602142Y-110307380D01*
X56316428Y-110307380D01*
X56221190Y-110259761D01*
X56173571Y-110212142D01*
X59364523Y-107672142D02*
X59316904Y-107719761D01*
X59174047Y-107767380D01*
X59078809Y-107767380D01*
X58935952Y-107719761D01*
X58840714Y-107624523D01*
X58793095Y-107529285D01*
X58745476Y-107338809D01*
X58745476Y-107195952D01*
X58793095Y-107005476D01*
X58840714Y-106910238D01*
X58935952Y-106815000D01*
X59078809Y-106767380D01*
X59174047Y-106767380D01*
X59316904Y-106815000D01*
X59364523Y-106862619D01*
X51220714Y-107243571D02*
X51554047Y-107243571D01*
X51696904Y-107767380D02*
X51220714Y-107767380D01*
X51220714Y-106767380D01*
X51696904Y-106767380D01*
X57253333Y-82478571D02*
X57396190Y-82526190D01*
X57443809Y-82573809D01*
X57491428Y-82669047D01*
X57491428Y-82811904D01*
X57443809Y-82907142D01*
X57396190Y-82954761D01*
X57300952Y-83002380D01*
X56920000Y-83002380D01*
X56920000Y-82002380D01*
X57253333Y-82002380D01*
X57348571Y-82050000D01*
X57396190Y-82097619D01*
X57443809Y-82192857D01*
X57443809Y-82288095D01*
X57396190Y-82383333D01*
X57348571Y-82430952D01*
X57253333Y-82478571D01*
X56920000Y-82478571D01*
X58205714Y-82002380D02*
X58205714Y-82716666D01*
X58158095Y-82859523D01*
X58062857Y-82954761D01*
X57920000Y-83002380D01*
X57824761Y-83002380D01*
X58539047Y-82002380D02*
X59110476Y-82002380D01*
X58824761Y-83002380D02*
X58824761Y-82002380D01*
X59872380Y-82335714D02*
X59872380Y-83002380D01*
X59634285Y-81954761D02*
X59396190Y-82669047D01*
X60015238Y-82669047D01*
X59364523Y-84812142D02*
X59316904Y-84859761D01*
X59174047Y-84907380D01*
X59078809Y-84907380D01*
X58935952Y-84859761D01*
X58840714Y-84764523D01*
X58793095Y-84669285D01*
X58745476Y-84478809D01*
X58745476Y-84335952D01*
X58793095Y-84145476D01*
X58840714Y-84050238D01*
X58935952Y-83955000D01*
X59078809Y-83907380D01*
X59174047Y-83907380D01*
X59316904Y-83955000D01*
X59364523Y-84002619D01*
X51220714Y-84383571D02*
X51554047Y-84383571D01*
X51696904Y-84907380D02*
X51220714Y-84907380D01*
X51220714Y-83907380D01*
X51696904Y-83907380D01*
X82653333Y-104703571D02*
X82796190Y-104751190D01*
X82843809Y-104798809D01*
X82891428Y-104894047D01*
X82891428Y-105036904D01*
X82843809Y-105132142D01*
X82796190Y-105179761D01*
X82700952Y-105227380D01*
X82320000Y-105227380D01*
X82320000Y-104227380D01*
X82653333Y-104227380D01*
X82748571Y-104275000D01*
X82796190Y-104322619D01*
X82843809Y-104417857D01*
X82843809Y-104513095D01*
X82796190Y-104608333D01*
X82748571Y-104655952D01*
X82653333Y-104703571D01*
X82320000Y-104703571D01*
X83605714Y-104227380D02*
X83605714Y-104941666D01*
X83558095Y-105084523D01*
X83462857Y-105179761D01*
X83320000Y-105227380D01*
X83224761Y-105227380D01*
X83939047Y-104227380D02*
X84510476Y-104227380D01*
X84224761Y-105227380D02*
X84224761Y-104227380D01*
X85320000Y-104227380D02*
X84843809Y-104227380D01*
X84796190Y-104703571D01*
X84843809Y-104655952D01*
X84939047Y-104608333D01*
X85177142Y-104608333D01*
X85272380Y-104655952D01*
X85320000Y-104703571D01*
X85367619Y-104798809D01*
X85367619Y-105036904D01*
X85320000Y-105132142D01*
X85272380Y-105179761D01*
X85177142Y-105227380D01*
X84939047Y-105227380D01*
X84843809Y-105179761D01*
X84796190Y-105132142D01*
X79795714Y-102163571D02*
X80129047Y-102163571D01*
X80271904Y-102687380D02*
X79795714Y-102687380D01*
X79795714Y-101687380D01*
X80271904Y-101687380D01*
X87939523Y-102592142D02*
X87891904Y-102639761D01*
X87749047Y-102687380D01*
X87653809Y-102687380D01*
X87510952Y-102639761D01*
X87415714Y-102544523D01*
X87368095Y-102449285D01*
X87320476Y-102258809D01*
X87320476Y-102115952D01*
X87368095Y-101925476D01*
X87415714Y-101830238D01*
X87510952Y-101735000D01*
X87653809Y-101687380D01*
X87749047Y-101687380D01*
X87891904Y-101735000D01*
X87939523Y-101782619D01*
X82653333Y-76128571D02*
X82796190Y-76176190D01*
X82843809Y-76223809D01*
X82891428Y-76319047D01*
X82891428Y-76461904D01*
X82843809Y-76557142D01*
X82796190Y-76604761D01*
X82700952Y-76652380D01*
X82320000Y-76652380D01*
X82320000Y-75652380D01*
X82653333Y-75652380D01*
X82748571Y-75700000D01*
X82796190Y-75747619D01*
X82843809Y-75842857D01*
X82843809Y-75938095D01*
X82796190Y-76033333D01*
X82748571Y-76080952D01*
X82653333Y-76128571D01*
X82320000Y-76128571D01*
X83605714Y-75652380D02*
X83605714Y-76366666D01*
X83558095Y-76509523D01*
X83462857Y-76604761D01*
X83320000Y-76652380D01*
X83224761Y-76652380D01*
X83939047Y-75652380D02*
X84510476Y-75652380D01*
X84224761Y-76652380D02*
X84224761Y-75652380D01*
X85272380Y-75652380D02*
X85081904Y-75652380D01*
X84986666Y-75700000D01*
X84939047Y-75747619D01*
X84843809Y-75890476D01*
X84796190Y-76080952D01*
X84796190Y-76461904D01*
X84843809Y-76557142D01*
X84891428Y-76604761D01*
X84986666Y-76652380D01*
X85177142Y-76652380D01*
X85272380Y-76604761D01*
X85320000Y-76557142D01*
X85367619Y-76461904D01*
X85367619Y-76223809D01*
X85320000Y-76128571D01*
X85272380Y-76080952D01*
X85177142Y-76033333D01*
X84986666Y-76033333D01*
X84891428Y-76080952D01*
X84843809Y-76128571D01*
X84796190Y-76223809D01*
X87939523Y-79732142D02*
X87891904Y-79779761D01*
X87749047Y-79827380D01*
X87653809Y-79827380D01*
X87510952Y-79779761D01*
X87415714Y-79684523D01*
X87368095Y-79589285D01*
X87320476Y-79398809D01*
X87320476Y-79255952D01*
X87368095Y-79065476D01*
X87415714Y-78970238D01*
X87510952Y-78875000D01*
X87653809Y-78827380D01*
X87749047Y-78827380D01*
X87891904Y-78875000D01*
X87939523Y-78922619D01*
X79795714Y-79303571D02*
X80129047Y-79303571D01*
X80271904Y-79827380D02*
X79795714Y-79827380D01*
X79795714Y-78827380D01*
X80271904Y-78827380D01*
X37282380Y-104306666D02*
X36806190Y-104640000D01*
X37282380Y-104878095D02*
X36282380Y-104878095D01*
X36282380Y-104497142D01*
X36330000Y-104401904D01*
X36377619Y-104354285D01*
X36472857Y-104306666D01*
X36615714Y-104306666D01*
X36710952Y-104354285D01*
X36758571Y-104401904D01*
X36806190Y-104497142D01*
X36806190Y-104878095D01*
X36282380Y-103449523D02*
X36282380Y-103640000D01*
X36330000Y-103735238D01*
X36377619Y-103782857D01*
X36520476Y-103878095D01*
X36710952Y-103925714D01*
X37091904Y-103925714D01*
X37187142Y-103878095D01*
X37234761Y-103830476D01*
X37282380Y-103735238D01*
X37282380Y-103544761D01*
X37234761Y-103449523D01*
X37187142Y-103401904D01*
X37091904Y-103354285D01*
X36853809Y-103354285D01*
X36758571Y-103401904D01*
X36710952Y-103449523D01*
X36663333Y-103544761D01*
X36663333Y-103735238D01*
X36710952Y-103830476D01*
X36758571Y-103878095D01*
X36853809Y-103925714D01*
X36282380Y-102417380D02*
X36282380Y-101798333D01*
X36663333Y-102131666D01*
X36663333Y-101988809D01*
X36710952Y-101893571D01*
X36758571Y-101845952D01*
X36853809Y-101798333D01*
X37091904Y-101798333D01*
X37187142Y-101845952D01*
X37234761Y-101893571D01*
X37282380Y-101988809D01*
X37282380Y-102274523D01*
X37234761Y-102369761D01*
X37187142Y-102417380D01*
X37187142Y-101369761D02*
X37234761Y-101322142D01*
X37282380Y-101369761D01*
X37234761Y-101417380D01*
X37187142Y-101369761D01*
X37282380Y-101369761D01*
X36282380Y-100988809D02*
X36282380Y-100369761D01*
X36663333Y-100703095D01*
X36663333Y-100560238D01*
X36710952Y-100465000D01*
X36758571Y-100417380D01*
X36853809Y-100369761D01*
X37091904Y-100369761D01*
X37187142Y-100417380D01*
X37234761Y-100465000D01*
X37282380Y-100560238D01*
X37282380Y-100845952D01*
X37234761Y-100941190D01*
X37187142Y-100988809D01*
X37282380Y-99941190D02*
X36282380Y-99941190D01*
X36901428Y-99845952D02*
X37282380Y-99560238D01*
X36615714Y-99560238D02*
X36996666Y-99941190D01*
X37282380Y-91606666D02*
X36806190Y-91940000D01*
X37282380Y-92178095D02*
X36282380Y-92178095D01*
X36282380Y-91797142D01*
X36330000Y-91701904D01*
X36377619Y-91654285D01*
X36472857Y-91606666D01*
X36615714Y-91606666D01*
X36710952Y-91654285D01*
X36758571Y-91701904D01*
X36806190Y-91797142D01*
X36806190Y-92178095D01*
X36282380Y-91273333D02*
X36282380Y-90606666D01*
X37282380Y-91035238D01*
X36282380Y-89717380D02*
X36282380Y-89098333D01*
X36663333Y-89431666D01*
X36663333Y-89288809D01*
X36710952Y-89193571D01*
X36758571Y-89145952D01*
X36853809Y-89098333D01*
X37091904Y-89098333D01*
X37187142Y-89145952D01*
X37234761Y-89193571D01*
X37282380Y-89288809D01*
X37282380Y-89574523D01*
X37234761Y-89669761D01*
X37187142Y-89717380D01*
X37187142Y-88669761D02*
X37234761Y-88622142D01*
X37282380Y-88669761D01*
X37234761Y-88717380D01*
X37187142Y-88669761D01*
X37282380Y-88669761D01*
X36282380Y-88288809D02*
X36282380Y-87669761D01*
X36663333Y-88003095D01*
X36663333Y-87860238D01*
X36710952Y-87765000D01*
X36758571Y-87717380D01*
X36853809Y-87669761D01*
X37091904Y-87669761D01*
X37187142Y-87717380D01*
X37234761Y-87765000D01*
X37282380Y-87860238D01*
X37282380Y-88145952D01*
X37234761Y-88241190D01*
X37187142Y-88288809D01*
X37282380Y-87241190D02*
X36282380Y-87241190D01*
X36901428Y-87145952D02*
X37282380Y-86860238D01*
X36615714Y-86860238D02*
X36996666Y-87241190D01*
X63333333Y-107767380D02*
X63000000Y-107291190D01*
X62761904Y-107767380D02*
X62761904Y-106767380D01*
X63142857Y-106767380D01*
X63238095Y-106815000D01*
X63285714Y-106862619D01*
X63333333Y-106957857D01*
X63333333Y-107100714D01*
X63285714Y-107195952D01*
X63238095Y-107243571D01*
X63142857Y-107291190D01*
X62761904Y-107291190D01*
X63904761Y-107195952D02*
X63809523Y-107148333D01*
X63761904Y-107100714D01*
X63714285Y-107005476D01*
X63714285Y-106957857D01*
X63761904Y-106862619D01*
X63809523Y-106815000D01*
X63904761Y-106767380D01*
X64095238Y-106767380D01*
X64190476Y-106815000D01*
X64238095Y-106862619D01*
X64285714Y-106957857D01*
X64285714Y-107005476D01*
X64238095Y-107100714D01*
X64190476Y-107148333D01*
X64095238Y-107195952D01*
X63904761Y-107195952D01*
X63809523Y-107243571D01*
X63761904Y-107291190D01*
X63714285Y-107386428D01*
X63714285Y-107576904D01*
X63761904Y-107672142D01*
X63809523Y-107719761D01*
X63904761Y-107767380D01*
X64095238Y-107767380D01*
X64190476Y-107719761D01*
X64238095Y-107672142D01*
X64285714Y-107576904D01*
X64285714Y-107386428D01*
X64238095Y-107291190D01*
X64190476Y-107243571D01*
X64095238Y-107195952D01*
X65222619Y-106767380D02*
X65841666Y-106767380D01*
X65508333Y-107148333D01*
X65651190Y-107148333D01*
X65746428Y-107195952D01*
X65794047Y-107243571D01*
X65841666Y-107338809D01*
X65841666Y-107576904D01*
X65794047Y-107672142D01*
X65746428Y-107719761D01*
X65651190Y-107767380D01*
X65365476Y-107767380D01*
X65270238Y-107719761D01*
X65222619Y-107672142D01*
X66270238Y-107672142D02*
X66317857Y-107719761D01*
X66270238Y-107767380D01*
X66222619Y-107719761D01*
X66270238Y-107672142D01*
X66270238Y-107767380D01*
X66651190Y-106767380D02*
X67270238Y-106767380D01*
X66936904Y-107148333D01*
X67079761Y-107148333D01*
X67175000Y-107195952D01*
X67222619Y-107243571D01*
X67270238Y-107338809D01*
X67270238Y-107576904D01*
X67222619Y-107672142D01*
X67175000Y-107719761D01*
X67079761Y-107767380D01*
X66794047Y-107767380D01*
X66698809Y-107719761D01*
X66651190Y-107672142D01*
X67698809Y-107767380D02*
X67698809Y-106767380D01*
X67794047Y-107386428D02*
X68079761Y-107767380D01*
X68079761Y-107100714D02*
X67698809Y-107481666D01*
X60777380Y-91606666D02*
X60301190Y-91940000D01*
X60777380Y-92178095D02*
X59777380Y-92178095D01*
X59777380Y-91797142D01*
X59825000Y-91701904D01*
X59872619Y-91654285D01*
X59967857Y-91606666D01*
X60110714Y-91606666D01*
X60205952Y-91654285D01*
X60253571Y-91701904D01*
X60301190Y-91797142D01*
X60301190Y-92178095D01*
X60777380Y-91130476D02*
X60777380Y-90940000D01*
X60729761Y-90844761D01*
X60682142Y-90797142D01*
X60539285Y-90701904D01*
X60348809Y-90654285D01*
X59967857Y-90654285D01*
X59872619Y-90701904D01*
X59825000Y-90749523D01*
X59777380Y-90844761D01*
X59777380Y-91035238D01*
X59825000Y-91130476D01*
X59872619Y-91178095D01*
X59967857Y-91225714D01*
X60205952Y-91225714D01*
X60301190Y-91178095D01*
X60348809Y-91130476D01*
X60396428Y-91035238D01*
X60396428Y-90844761D01*
X60348809Y-90749523D01*
X60301190Y-90701904D01*
X60205952Y-90654285D01*
X59777380Y-89717380D02*
X59777380Y-89098333D01*
X60158333Y-89431666D01*
X60158333Y-89288809D01*
X60205952Y-89193571D01*
X60253571Y-89145952D01*
X60348809Y-89098333D01*
X60586904Y-89098333D01*
X60682142Y-89145952D01*
X60729761Y-89193571D01*
X60777380Y-89288809D01*
X60777380Y-89574523D01*
X60729761Y-89669761D01*
X60682142Y-89717380D01*
X60682142Y-88669761D02*
X60729761Y-88622142D01*
X60777380Y-88669761D01*
X60729761Y-88717380D01*
X60682142Y-88669761D01*
X60777380Y-88669761D01*
X59777380Y-88288809D02*
X59777380Y-87669761D01*
X60158333Y-88003095D01*
X60158333Y-87860238D01*
X60205952Y-87765000D01*
X60253571Y-87717380D01*
X60348809Y-87669761D01*
X60586904Y-87669761D01*
X60682142Y-87717380D01*
X60729761Y-87765000D01*
X60777380Y-87860238D01*
X60777380Y-88145952D01*
X60729761Y-88241190D01*
X60682142Y-88288809D01*
X60777380Y-87241190D02*
X59777380Y-87241190D01*
X60396428Y-87145952D02*
X60777380Y-86860238D01*
X60110714Y-86860238D02*
X60491666Y-87241190D01*
X89352380Y-99702857D02*
X88876190Y-100036190D01*
X89352380Y-100274285D02*
X88352380Y-100274285D01*
X88352380Y-99893333D01*
X88400000Y-99798095D01*
X88447619Y-99750476D01*
X88542857Y-99702857D01*
X88685714Y-99702857D01*
X88780952Y-99750476D01*
X88828571Y-99798095D01*
X88876190Y-99893333D01*
X88876190Y-100274285D01*
X89352380Y-98750476D02*
X89352380Y-99321904D01*
X89352380Y-99036190D02*
X88352380Y-99036190D01*
X88495238Y-99131428D01*
X88590476Y-99226666D01*
X88638095Y-99321904D01*
X88352380Y-98131428D02*
X88352380Y-98036190D01*
X88400000Y-97940952D01*
X88447619Y-97893333D01*
X88542857Y-97845714D01*
X88733333Y-97798095D01*
X88971428Y-97798095D01*
X89161904Y-97845714D01*
X89257142Y-97893333D01*
X89304761Y-97940952D01*
X89352380Y-98036190D01*
X89352380Y-98131428D01*
X89304761Y-98226666D01*
X89257142Y-98274285D01*
X89161904Y-98321904D01*
X88971428Y-98369523D01*
X88733333Y-98369523D01*
X88542857Y-98321904D01*
X88447619Y-98274285D01*
X88400000Y-98226666D01*
X88352380Y-98131428D01*
X88352380Y-97337380D02*
X88352380Y-96718333D01*
X88733333Y-97051666D01*
X88733333Y-96908809D01*
X88780952Y-96813571D01*
X88828571Y-96765952D01*
X88923809Y-96718333D01*
X89161904Y-96718333D01*
X89257142Y-96765952D01*
X89304761Y-96813571D01*
X89352380Y-96908809D01*
X89352380Y-97194523D01*
X89304761Y-97289761D01*
X89257142Y-97337380D01*
X89257142Y-96289761D02*
X89304761Y-96242142D01*
X89352380Y-96289761D01*
X89304761Y-96337380D01*
X89257142Y-96289761D01*
X89352380Y-96289761D01*
X88352380Y-95908809D02*
X88352380Y-95289761D01*
X88733333Y-95623095D01*
X88733333Y-95480238D01*
X88780952Y-95385000D01*
X88828571Y-95337380D01*
X88923809Y-95289761D01*
X89161904Y-95289761D01*
X89257142Y-95337380D01*
X89304761Y-95385000D01*
X89352380Y-95480238D01*
X89352380Y-95765952D01*
X89304761Y-95861190D01*
X89257142Y-95908809D01*
X89352380Y-94861190D02*
X88352380Y-94861190D01*
X88971428Y-94765952D02*
X89352380Y-94480238D01*
X88685714Y-94480238D02*
X89066666Y-94861190D01*
X89352380Y-87002857D02*
X88876190Y-87336190D01*
X89352380Y-87574285D02*
X88352380Y-87574285D01*
X88352380Y-87193333D01*
X88400000Y-87098095D01*
X88447619Y-87050476D01*
X88542857Y-87002857D01*
X88685714Y-87002857D01*
X88780952Y-87050476D01*
X88828571Y-87098095D01*
X88876190Y-87193333D01*
X88876190Y-87574285D01*
X89352380Y-86050476D02*
X89352380Y-86621904D01*
X89352380Y-86336190D02*
X88352380Y-86336190D01*
X88495238Y-86431428D01*
X88590476Y-86526666D01*
X88638095Y-86621904D01*
X89352380Y-85098095D02*
X89352380Y-85669523D01*
X89352380Y-85383809D02*
X88352380Y-85383809D01*
X88495238Y-85479047D01*
X88590476Y-85574285D01*
X88638095Y-85669523D01*
X88352380Y-84637380D02*
X88352380Y-84018333D01*
X88733333Y-84351666D01*
X88733333Y-84208809D01*
X88780952Y-84113571D01*
X88828571Y-84065952D01*
X88923809Y-84018333D01*
X89161904Y-84018333D01*
X89257142Y-84065952D01*
X89304761Y-84113571D01*
X89352380Y-84208809D01*
X89352380Y-84494523D01*
X89304761Y-84589761D01*
X89257142Y-84637380D01*
X89257142Y-83589761D02*
X89304761Y-83542142D01*
X89352380Y-83589761D01*
X89304761Y-83637380D01*
X89257142Y-83589761D01*
X89352380Y-83589761D01*
X88352380Y-83208809D02*
X88352380Y-82589761D01*
X88733333Y-82923095D01*
X88733333Y-82780238D01*
X88780952Y-82685000D01*
X88828571Y-82637380D01*
X88923809Y-82589761D01*
X89161904Y-82589761D01*
X89257142Y-82637380D01*
X89304761Y-82685000D01*
X89352380Y-82780238D01*
X89352380Y-83065952D01*
X89304761Y-83161190D01*
X89257142Y-83208809D01*
X89352380Y-82161190D02*
X88352380Y-82161190D01*
X88971428Y-82065952D02*
X89352380Y-81780238D01*
X88685714Y-81780238D02*
X89066666Y-82161190D01*
M02*
