G04 #@! TF.GenerationSoftware,KiCad,Pcbnew,5.1.6-c6e7f7d~86~ubuntu19.10.1*
G04 #@! TF.CreationDate,2021-01-12T13:09:26+02:00*
G04 #@! TF.ProjectId,authenticator2.0,61757468-656e-4746-9963-61746f72322e,rev?*
G04 #@! TF.SameCoordinates,Original*
G04 #@! TF.FileFunction,Copper,L2,Inr*
G04 #@! TF.FilePolarity,Positive*
%FSLAX46Y46*%
G04 Gerber Fmt 4.6, Leading zero omitted, Abs format (unit mm)*
G04 Created by KiCad (PCBNEW 5.1.6-c6e7f7d~86~ubuntu19.10.1) date 2021-01-12 13:09:26*
%MOMM*%
%LPD*%
G01*
G04 APERTURE LIST*
G04 #@! TA.AperFunction,ViaPad*
%ADD10R,1.200000X1.750000*%
G04 #@! TD*
G04 #@! TA.AperFunction,ViaPad*
%ADD11O,1.200000X1.750000*%
G04 #@! TD*
G04 #@! TA.AperFunction,ViaPad*
%ADD12C,1.750000*%
G04 #@! TD*
G04 #@! TA.AperFunction,ViaPad*
%ADD13R,1.750000X1.750000*%
G04 #@! TD*
G04 #@! TA.AperFunction,ViaPad*
%ADD14O,1.750000X1.200000*%
G04 #@! TD*
G04 #@! TA.AperFunction,ViaPad*
%ADD15R,1.750000X1.200000*%
G04 #@! TD*
G04 #@! TA.AperFunction,ViaPad*
%ADD16C,2.450000*%
G04 #@! TD*
G04 #@! TA.AperFunction,ViaPad*
%ADD17C,1.524000*%
G04 #@! TD*
G04 #@! TA.AperFunction,ViaPad*
%ADD18R,1.250000X1.750000*%
G04 #@! TD*
G04 #@! TA.AperFunction,ViaPad*
%ADD19O,1.250000X1.750000*%
G04 #@! TD*
G04 #@! TA.AperFunction,Conductor*
%ADD20C,2.000000*%
G04 #@! TD*
G04 #@! TA.AperFunction,Conductor*
%ADD21C,1.000000*%
G04 #@! TD*
G04 APERTURE END LIST*
D10*
X24765000Y-74295000D03*
D11*
X24765000Y-71755000D03*
X27305000Y-74295000D03*
X27305000Y-71755000D03*
X29845000Y-74295000D03*
X29845000Y-71755000D03*
X32385000Y-74295000D03*
X32385000Y-71755000D03*
X34925000Y-74295000D03*
X34925000Y-71755000D03*
X37465000Y-74295000D03*
X37465000Y-71755000D03*
X40005000Y-74295000D03*
X40005000Y-71755000D03*
X42545000Y-74295000D03*
X42545000Y-71755000D03*
X45085000Y-74295000D03*
X45085000Y-71755000D03*
X47625000Y-74295000D03*
X47625000Y-71755000D03*
X50165000Y-74295000D03*
X50165000Y-71755000D03*
X52705000Y-74295000D03*
X52705000Y-71755000D03*
X55245000Y-74295000D03*
X55245000Y-71755000D03*
X57785000Y-74295000D03*
X57785000Y-71755000D03*
X60325000Y-74295000D03*
X60325000Y-71755000D03*
X62865000Y-74295000D03*
X62865000Y-71755000D03*
X65405000Y-74295000D03*
X65405000Y-71755000D03*
X67945000Y-74295000D03*
X67945000Y-71755000D03*
X70485000Y-74295000D03*
X70485000Y-71755000D03*
X73025000Y-74295000D03*
X73025000Y-71755000D03*
D12*
X39370000Y-20320000D03*
X39370000Y-22860000D03*
D13*
X42545000Y-20320000D03*
D12*
X45085000Y-20320000D03*
X47625000Y-20320000D03*
X50165000Y-20320000D03*
X45720000Y-22860000D03*
X43180000Y-22860000D03*
D13*
X29210000Y-89535000D03*
D12*
X29210000Y-94615000D03*
X29210000Y-97155000D03*
X29210000Y-99695000D03*
X29210000Y-102235000D03*
X34290000Y-102235000D03*
X34290000Y-99695000D03*
X34290000Y-97155000D03*
X34290000Y-94615000D03*
X34290000Y-89535000D03*
X118106600Y-80635000D03*
X118106600Y-78095000D03*
X118106600Y-75555000D03*
D13*
X118106600Y-73015000D03*
D14*
X120646600Y-74125000D03*
D15*
X120646600Y-79525000D03*
D14*
X120646600Y-77725000D03*
X120646600Y-75925000D03*
D12*
X20955000Y-59690000D03*
X23495000Y-59690000D03*
X18415000Y-59690000D03*
D11*
X51435000Y-115570000D03*
X50165000Y-118110000D03*
X48895000Y-115570000D03*
X47625000Y-118110000D03*
X46355000Y-115570000D03*
X45085000Y-118110000D03*
X43815000Y-115570000D03*
X37465000Y-115570000D03*
X36195000Y-118110000D03*
X34925000Y-115570000D03*
D16*
X24570000Y-129030000D03*
X55440000Y-129030000D03*
D11*
X28575000Y-118110000D03*
X29845000Y-115570000D03*
X31115000Y-118110000D03*
X32385000Y-115570000D03*
X33655000Y-118110000D03*
D16*
X40005000Y-114220000D03*
D11*
X42545000Y-118110000D03*
D13*
X29210000Y-86995000D03*
D12*
X34290000Y-86995000D03*
X86360000Y-81915000D03*
D13*
X81280000Y-81915000D03*
X108585000Y-120650000D03*
D12*
X108585000Y-118110000D03*
X108585000Y-115570000D03*
X108585000Y-113030000D03*
X108585000Y-110490000D03*
X108585000Y-107950000D03*
X108585000Y-105410000D03*
X108585000Y-102870000D03*
X108585000Y-100330000D03*
X108585000Y-97790000D03*
X108585000Y-95250000D03*
X108585000Y-92710000D03*
X108585000Y-90170000D03*
X108585000Y-87630000D03*
X108585000Y-85090000D03*
X108585000Y-82550000D03*
X108585000Y-80010000D03*
X108585000Y-77470000D03*
X108585000Y-74930000D03*
X108585000Y-72390000D03*
D17*
X136525000Y-45720000D03*
X133985000Y-45720000D03*
X131445000Y-45720000D03*
X128905000Y-45720000D03*
X126365000Y-45720000D03*
X123825000Y-45720000D03*
X121285000Y-45720000D03*
D12*
X94960000Y-101600000D03*
X94960000Y-96520000D03*
X94960000Y-91440000D03*
X94960000Y-86360000D03*
D13*
X81280000Y-99695000D03*
D12*
X86360000Y-99695000D03*
X26035000Y-29210000D03*
X23495000Y-29210000D03*
D18*
X80899000Y-20320000D03*
D19*
X82931000Y-20320000D03*
D12*
X25400000Y-43815000D03*
D13*
X25400000Y-51435000D03*
D12*
X34290000Y-104775000D03*
D13*
X29210000Y-104775000D03*
D12*
X52705000Y-20320000D03*
X55245000Y-20320000D03*
X77470000Y-20320000D03*
X74930000Y-20320000D03*
X72390000Y-20320000D03*
X69850000Y-20320000D03*
X67310000Y-20320000D03*
X64770000Y-20320000D03*
D13*
X62230000Y-20320000D03*
D12*
X23495000Y-62865000D03*
X20955000Y-62865000D03*
D13*
X18415000Y-62865000D03*
D12*
X120640600Y-95885600D03*
X120640600Y-90805600D03*
X120640600Y-93345600D03*
X19685000Y-23150000D03*
X24765000Y-23150000D03*
X29845000Y-23150000D03*
X34925000Y-23150000D03*
X57785000Y-86995000D03*
D13*
X52705000Y-86995000D03*
D12*
X57785000Y-104775000D03*
D13*
X52705000Y-104775000D03*
X112395000Y-90170000D03*
D12*
X112395000Y-92710000D03*
X112395000Y-95250000D03*
X112395000Y-97790000D03*
X112395000Y-100330000D03*
X112395000Y-102870000D03*
X112395000Y-105410000D03*
D13*
X20320000Y-29210000D03*
D12*
X20320000Y-31750000D03*
X20320000Y-34290000D03*
X20320000Y-36830000D03*
X20955000Y-57150000D03*
X23495000Y-57150000D03*
X23150000Y-85725000D03*
X23150000Y-90805000D03*
X23150000Y-95885000D03*
X23150000Y-100965000D03*
D13*
X94960000Y-80645000D03*
D12*
X94960000Y-75565000D03*
D11*
X74295000Y-118110000D03*
D16*
X71755000Y-114220000D03*
D11*
X65405000Y-118110000D03*
X64135000Y-115570000D03*
X62865000Y-118110000D03*
X61595000Y-115570000D03*
X60325000Y-118110000D03*
D16*
X87190000Y-129030000D03*
X56320000Y-129030000D03*
D11*
X66675000Y-115570000D03*
X67945000Y-118110000D03*
X69215000Y-115570000D03*
X75565000Y-115570000D03*
X76835000Y-118110000D03*
X78105000Y-115570000D03*
X79375000Y-118110000D03*
X80645000Y-115570000D03*
X81915000Y-118110000D03*
X83185000Y-115570000D03*
D12*
X57785000Y-89535000D03*
X57785000Y-94615000D03*
X57785000Y-97155000D03*
X57785000Y-99695000D03*
X57785000Y-102235000D03*
X52705000Y-102235000D03*
X52705000Y-99695000D03*
X52705000Y-97155000D03*
X52705000Y-94615000D03*
D13*
X52705000Y-89535000D03*
D12*
X88900000Y-20320000D03*
D13*
X86360000Y-20320000D03*
X107315000Y-60670000D03*
D12*
X112395000Y-60670000D03*
X124180600Y-90652600D03*
X124180600Y-93192600D03*
D13*
X124180600Y-95732600D03*
D17*
X136525000Y-23495000D03*
X133985000Y-23495000D03*
X131445000Y-23495000D03*
X128905000Y-23495000D03*
X126365000Y-23495000D03*
X123825000Y-23495000D03*
X121285000Y-23495000D03*
D11*
X64770000Y-25400000D03*
X63500000Y-27940000D03*
X62230000Y-25400000D03*
X60960000Y-27940000D03*
X59690000Y-25400000D03*
X58420000Y-27940000D03*
X57150000Y-25400000D03*
X50800000Y-25400000D03*
X49530000Y-27940000D03*
X48260000Y-25400000D03*
D16*
X37905000Y-38860000D03*
X68775000Y-38860000D03*
D11*
X41910000Y-27940000D03*
X43180000Y-25400000D03*
X44450000Y-27940000D03*
X45720000Y-25400000D03*
X46990000Y-27940000D03*
D16*
X53340000Y-24050000D03*
D11*
X55880000Y-27940000D03*
D12*
X86360000Y-84455000D03*
X86360000Y-89535000D03*
X86360000Y-92075000D03*
X86360000Y-94615000D03*
X86360000Y-97155000D03*
X81280000Y-97155000D03*
X81280000Y-94615000D03*
X81280000Y-92075000D03*
X81280000Y-89535000D03*
D13*
X81280000Y-84455000D03*
D11*
X87630000Y-27940000D03*
D16*
X85090000Y-24050000D03*
D11*
X78740000Y-27940000D03*
X77470000Y-25400000D03*
X76200000Y-27940000D03*
X74930000Y-25400000D03*
X73660000Y-27940000D03*
D16*
X100525000Y-38860000D03*
X69655000Y-38860000D03*
D11*
X80010000Y-25400000D03*
X81280000Y-27940000D03*
X82550000Y-25400000D03*
X88900000Y-25400000D03*
X90170000Y-27940000D03*
X91440000Y-25400000D03*
X92710000Y-27940000D03*
X93980000Y-25400000D03*
X95250000Y-27940000D03*
X96520000Y-25400000D03*
D12*
X31750000Y-107315000D03*
X34290000Y-107315000D03*
X29210000Y-107315000D03*
X31750000Y-84455000D03*
X34290000Y-84455000D03*
X29210000Y-84455000D03*
X52705000Y-107315000D03*
X57785000Y-107315000D03*
X55245000Y-107315000D03*
X52705000Y-84455000D03*
X57785000Y-84455000D03*
X55245000Y-84455000D03*
X83820000Y-102235000D03*
X86360000Y-102235000D03*
X81280000Y-102235000D03*
X81280000Y-79375000D03*
X86360000Y-79375000D03*
X83820000Y-79375000D03*
X36830000Y-97155000D03*
X36830000Y-107315000D03*
X36830000Y-94615000D03*
X36830000Y-84455000D03*
X70485000Y-107315000D03*
X60325000Y-107315000D03*
X60325000Y-84455000D03*
X60325000Y-94615000D03*
X88900000Y-92075000D03*
X88900000Y-102235000D03*
X88900000Y-89535000D03*
X88900000Y-79375000D03*
D20*
X34290000Y-83217564D02*
X38132564Y-79375000D01*
X34290000Y-84455000D02*
X34290000Y-83217564D01*
X45085000Y-77170000D02*
X45085000Y-74295000D01*
X42880000Y-79375000D02*
X45085000Y-77170000D01*
X38132564Y-79375000D02*
X42880000Y-79375000D01*
X57785000Y-81915000D02*
X57785000Y-84455000D01*
X55245000Y-79375000D02*
X57785000Y-81915000D01*
X45085000Y-77170000D02*
X47290000Y-79375000D01*
X47290000Y-79375000D02*
X55245000Y-79375000D01*
X60325000Y-79375000D02*
X57785000Y-81915000D01*
X86360000Y-77470000D02*
X85725000Y-76835000D01*
X86360000Y-79375000D02*
X86360000Y-77470000D01*
X85725000Y-76835000D02*
X79375000Y-76835000D01*
X79375000Y-76835000D02*
X76835000Y-79375000D01*
X76835000Y-79375000D02*
X60325000Y-79375000D01*
D21*
X34290000Y-107315000D02*
X31750000Y-104775000D01*
X31750000Y-86995000D02*
X34290000Y-84455000D01*
X31750000Y-104775000D02*
X31750000Y-86995000D01*
X90800010Y-97794990D02*
X86360000Y-102235000D01*
X90800010Y-83815010D02*
X90800010Y-97794990D01*
X86360000Y-79375000D02*
X90800010Y-83815010D01*
D20*
X92684999Y-98795001D02*
X92684999Y-112420001D01*
X94960000Y-96520000D02*
X92684999Y-98795001D01*
X92684999Y-112420001D02*
X83820000Y-121285000D01*
X83820000Y-121285000D02*
X77470000Y-121285000D01*
X76835000Y-120650000D02*
X76835000Y-118110000D01*
X77470000Y-121285000D02*
X76835000Y-120650000D01*
X55509999Y-91810001D02*
X57785000Y-89535000D01*
X36565001Y-91810001D02*
X55509999Y-91810001D01*
X34290000Y-89535000D02*
X36565001Y-91810001D01*
X55509999Y-101197435D02*
X55509999Y-91810001D01*
X56547564Y-102235000D02*
X55509999Y-101197435D01*
X57785000Y-102235000D02*
X56547564Y-102235000D01*
X87452001Y-87259999D02*
X88900000Y-88707998D01*
X88900000Y-88707998D02*
X88900000Y-89535000D01*
X85797997Y-87259999D02*
X87452001Y-87259999D01*
X83820000Y-85282002D02*
X85797997Y-87259999D01*
X83820000Y-79375000D02*
X83820000Y-85282002D01*
M02*
