%FSLAX45Y45*%
G04 Gerber Fmt 4.5, Leading zero omitted, Abs format (unit mm)*
G04 Created by KiCad (PCBNEW 4.0.7-e2-6376~58~ubuntu16.04.1) date Mon Dec 10 06:00:04 2018*
%MOMM*%
%LPD*%
G01*
G04 APERTURE LIST*
%ADD10C,0.127000*%
%ADD11C,0.150000*%
%ADD12C,0.200000*%
%ADD13C,0.300000*%
G04 APERTURE END LIST*
D10*
D11*
X16827500Y-14160500D02*
X17272000Y-14160500D01*
X16510000Y-14160500D02*
X16573500Y-14160500D01*
X16827500Y-13906500D02*
X16827500Y-14160500D01*
X15049500Y-14160500D02*
X16510000Y-14160500D01*
X15049500Y-13906500D02*
X15303500Y-13906500D01*
X14668500Y-13906500D02*
X14795500Y-13906500D01*
X14732000Y-14160500D02*
X14795500Y-14160500D01*
X13081000Y-14160500D02*
X12763500Y-14160500D01*
X13335000Y-14160500D02*
X14160500Y-14160500D01*
X13335000Y-13906500D02*
X13335000Y-14160500D01*
X17335500Y-14160500D02*
X17272000Y-14160500D01*
X17462500Y-14287500D02*
X17335500Y-14160500D01*
X17462500Y-16573500D02*
X17462500Y-14287500D01*
X17335500Y-16700500D02*
X17462500Y-16573500D01*
X17272000Y-16700500D02*
X17335500Y-16700500D01*
X13081000Y-13906500D02*
X13081000Y-14160500D01*
X13335000Y-13906500D02*
X13525500Y-13906500D01*
X12763500Y-14160500D02*
X12446000Y-14160500D01*
X12890500Y-13906500D02*
X13081000Y-13906500D01*
X15049500Y-13906500D02*
X15049500Y-14160500D01*
X14732000Y-14160500D02*
X14160500Y-14160500D01*
X14795500Y-13906500D02*
X14795500Y-14160500D01*
X14605000Y-13843000D02*
X14478000Y-13843000D01*
X14668500Y-13906500D02*
X14605000Y-13843000D01*
X15303500Y-13906500D02*
X15494000Y-13906500D01*
X15494000Y-13906500D02*
X15557500Y-13906500D01*
X15621000Y-13843000D02*
X15557500Y-13906500D01*
X16383000Y-13843000D02*
X15621000Y-13843000D01*
X16446500Y-13906500D02*
X16383000Y-13843000D01*
X16573500Y-13906500D02*
X16446500Y-13906500D01*
X16573500Y-13906500D02*
X16573500Y-14160500D01*
X16891000Y-13843000D02*
X17145000Y-13843000D01*
X16827500Y-13906500D02*
X16891000Y-13843000D01*
X13589000Y-13843000D02*
X14478000Y-13843000D01*
X13525500Y-13906500D02*
X13589000Y-13843000D01*
X12827000Y-13843000D02*
X12890500Y-13906500D01*
X11811000Y-13843000D02*
X12827000Y-13843000D01*
X11811000Y-13843000D02*
X11811000Y-13779500D01*
X13652500Y-12954000D02*
X13652500Y-13017500D01*
X13716000Y-12954000D02*
X13652500Y-12954000D01*
X13144500Y-13335000D02*
X13081000Y-13335000D01*
X13335000Y-13144500D02*
X13144500Y-13335000D01*
X13652500Y-13144500D02*
X13335000Y-13144500D01*
X13652500Y-13017500D02*
X13652500Y-13144500D01*
X13779500Y-12954000D02*
X13716000Y-12954000D01*
X15494000Y-12954000D02*
X13779500Y-12954000D01*
X15557500Y-13017500D02*
X15494000Y-12954000D01*
X15684500Y-13271500D02*
X16129000Y-13271500D01*
X15684500Y-13144500D02*
X15684500Y-13271500D01*
X15621000Y-13081000D02*
X15684500Y-13144500D01*
X15557500Y-13017500D02*
X15621000Y-13081000D01*
X11493500Y-16510000D02*
X11493500Y-16383000D01*
X11493500Y-15875000D02*
X11493500Y-15684500D01*
X11493500Y-16319500D02*
X11493500Y-16129000D01*
X12065000Y-18542000D02*
X12446000Y-18542000D01*
X12446000Y-18288000D02*
X12065000Y-18288000D01*
X12446000Y-18542000D02*
X12446000Y-18288000D01*
X12700000Y-18288000D02*
X13144500Y-18288000D01*
X12700000Y-18542000D02*
X12700000Y-18288000D01*
X12065000Y-18542000D02*
X12065000Y-18288000D01*
X11811000Y-18542000D02*
X11811000Y-18288000D01*
X14605000Y-19240500D02*
X14414500Y-19240500D01*
X14859000Y-19240500D02*
X15049500Y-19240500D01*
X14986000Y-18224500D02*
X14605000Y-18224500D01*
X14986000Y-18478500D02*
X14986000Y-18224500D01*
X14986000Y-18478500D02*
X14859000Y-18478500D01*
X15240000Y-18224500D02*
X15748000Y-18224500D01*
X15240000Y-18478500D02*
X15240000Y-18224500D01*
X14605000Y-18478500D02*
X14859000Y-18478500D01*
X14605000Y-18224500D02*
X14605000Y-18478500D01*
X14351000Y-18224500D02*
X13208000Y-18224500D01*
X14351000Y-18478500D02*
X14351000Y-18224500D01*
X16827500Y-16700500D02*
X17272000Y-16700500D01*
X14732000Y-16700500D02*
X16573500Y-16700500D01*
X12255500Y-16700500D02*
X14478000Y-16700500D01*
X12001500Y-16700500D02*
X11620500Y-16700500D01*
X16573500Y-16954500D02*
X16256000Y-16954500D01*
X16573500Y-16700500D02*
X16573500Y-16954500D01*
X16827500Y-16954500D02*
X16827500Y-16700500D01*
X17081500Y-16954500D02*
X16827500Y-16954500D01*
X14732000Y-16954500D02*
X16256000Y-16954500D01*
X14732000Y-16700500D02*
X14732000Y-16954500D01*
X14478000Y-16954500D02*
X14478000Y-16700500D01*
X12255500Y-16954500D02*
X14478000Y-16954500D01*
X12255500Y-16700500D02*
X12255500Y-16954500D01*
X12001500Y-16954500D02*
X12001500Y-16700500D01*
X11747500Y-16954500D02*
X12001500Y-16954500D01*
X14097000Y-18796000D02*
X14097000Y-19050000D01*
X11493500Y-14287500D02*
X11557000Y-14224000D01*
X11493500Y-14478000D02*
X11493500Y-14287500D01*
X11811000Y-13462000D02*
X11874500Y-13398500D01*
X11811000Y-13652500D02*
X11811000Y-13462000D01*
X15748000Y-18415000D02*
X15748000Y-18224500D01*
X15811500Y-18478500D02*
X15748000Y-18415000D01*
X15811500Y-19050000D02*
X15811500Y-18478500D01*
X15938500Y-19050000D02*
X15811500Y-19050000D01*
X15938500Y-19113500D02*
X15938500Y-19050000D01*
X16065500Y-19240500D02*
X15938500Y-19113500D01*
X16065500Y-19558000D02*
X16065500Y-19240500D01*
X16192500Y-19558000D02*
X16065500Y-19558000D01*
X16192500Y-19812000D02*
X16192500Y-19558000D01*
X16954500Y-19812000D02*
X16192500Y-19812000D01*
X16954500Y-19558000D02*
X16954500Y-19812000D01*
X17081500Y-19558000D02*
X16954500Y-19558000D01*
X17081500Y-19240500D02*
X17081500Y-19558000D01*
X17145000Y-19177000D02*
X17081500Y-19240500D01*
X17145000Y-18161000D02*
X17145000Y-19177000D01*
X17081500Y-18097500D02*
X17145000Y-18161000D01*
X17081500Y-16954500D02*
X17081500Y-18097500D01*
X11747500Y-17589500D02*
X11747500Y-16954500D01*
X11684000Y-17653000D02*
X11747500Y-17589500D01*
X11684000Y-17780000D02*
X11684000Y-17653000D01*
X13144500Y-18288000D02*
X13208000Y-18224500D01*
X11684000Y-18161000D02*
X11684000Y-17780000D01*
X11811000Y-18288000D02*
X11684000Y-18161000D01*
X11493500Y-16129000D02*
X11493500Y-15875000D01*
X11493500Y-15684500D02*
X11493500Y-15557500D01*
X14859000Y-19240500D02*
X14605000Y-19240500D01*
X14414500Y-19240500D02*
X14287500Y-19240500D01*
X14097000Y-19050000D02*
X14097000Y-19240500D01*
X11493500Y-14541500D02*
X11493500Y-14478000D01*
X11557000Y-14224000D02*
X11620500Y-14160500D01*
X11811000Y-13652500D02*
X11811000Y-13716000D01*
X11938000Y-13335000D02*
X11874500Y-13398500D01*
X11493500Y-14541500D02*
X11493500Y-14605000D01*
X11811000Y-13716000D02*
X11811000Y-13779500D01*
X15430500Y-14160500D02*
X15176500Y-14160500D01*
X12446000Y-14160500D02*
X12192000Y-14160500D01*
X15240000Y-19240500D02*
X15049500Y-19240500D01*
X14097000Y-19240500D02*
X14160500Y-19240500D01*
X14097000Y-18732500D02*
X14097000Y-18796000D01*
X11620500Y-14160500D02*
X12192000Y-14160500D01*
X11684000Y-18669000D02*
X11811000Y-18542000D01*
X15367000Y-19113500D02*
X15367000Y-18859500D01*
X15240000Y-19240500D02*
X15367000Y-19113500D01*
X17145000Y-13335000D02*
X17145000Y-13843000D01*
X16637000Y-13335000D02*
X17145000Y-13335000D01*
X16573500Y-13271500D02*
X16637000Y-13335000D01*
X16510000Y-13271500D02*
X16573500Y-13271500D01*
X16129000Y-13271500D02*
X16510000Y-13271500D01*
X11938000Y-13335000D02*
X13081000Y-13335000D01*
X11493500Y-16383000D02*
X11493500Y-16319500D01*
X11493500Y-15557500D02*
X11493500Y-14605000D01*
X11493500Y-16510000D02*
X11493500Y-16573500D01*
X11493500Y-16573500D02*
X11620500Y-16700500D01*
X14224000Y-18605500D02*
X14224000Y-18732500D01*
X14224000Y-18605500D02*
X14351000Y-18478500D01*
X14287500Y-19240500D02*
X14160500Y-19240500D01*
X14097000Y-18732500D02*
X14224000Y-18732500D01*
X15240000Y-18732500D02*
X15240000Y-18478500D01*
X15367000Y-18859500D02*
X15240000Y-18732500D01*
X12700000Y-18669000D02*
X12700000Y-18542000D01*
X12700000Y-19240500D02*
X12700000Y-18669000D01*
X12573000Y-19367500D02*
X12700000Y-19240500D01*
X11811000Y-19367500D02*
X12573000Y-19367500D01*
X11684000Y-19240500D02*
X11811000Y-19367500D01*
X11684000Y-18669000D02*
X11684000Y-19240500D01*
D12*
X11893000Y-18370000D02*
X11983000Y-18460000D01*
X11983000Y-18370000D02*
X11893000Y-18460000D01*
X12083500Y-16782500D02*
X12173500Y-16872500D01*
X12173500Y-16782500D02*
X12083500Y-16872500D01*
X12528000Y-18370000D02*
X12618000Y-18460000D01*
X12618000Y-18370000D02*
X12528000Y-18460000D01*
X13163000Y-13988500D02*
X13253000Y-14078500D01*
X13253000Y-13988500D02*
X13163000Y-14078500D01*
X14433000Y-18306500D02*
X14523000Y-18396500D01*
X14523000Y-18306500D02*
X14433000Y-18396500D01*
X14560000Y-16782500D02*
X14650000Y-16872500D01*
X14650000Y-16782500D02*
X14560000Y-16872500D01*
X14877500Y-13988500D02*
X14967500Y-14078500D01*
X14967500Y-13988500D02*
X14877500Y-14078500D01*
X15068000Y-18306500D02*
X15158000Y-18396500D01*
X15158000Y-18306500D02*
X15068000Y-18396500D01*
X16655500Y-13988500D02*
X16745500Y-14078500D01*
X16745500Y-13988500D02*
X16655500Y-14078500D01*
X16655500Y-16782500D02*
X16745500Y-16872500D01*
X16745500Y-16782500D02*
X16655500Y-16872500D01*
D13*
X11757428Y-20285214D02*
X11757428Y-19985214D01*
X11828857Y-19985214D01*
X11871714Y-19999500D01*
X11900286Y-20028072D01*
X11914571Y-20056643D01*
X11928857Y-20113786D01*
X11928857Y-20156643D01*
X11914571Y-20213786D01*
X11900286Y-20242357D01*
X11871714Y-20270929D01*
X11828857Y-20285214D01*
X11757428Y-20285214D01*
X12057428Y-20285214D02*
X12057428Y-20085214D01*
X12057428Y-20142357D02*
X12071714Y-20113786D01*
X12086000Y-20099500D01*
X12114571Y-20085214D01*
X12143143Y-20085214D01*
X12243143Y-20285214D02*
X12243143Y-20085214D01*
X12243143Y-19985214D02*
X12228857Y-19999500D01*
X12243143Y-20013786D01*
X12257428Y-19999500D01*
X12243143Y-19985214D01*
X12243143Y-20013786D01*
X12428857Y-20285214D02*
X12400286Y-20270929D01*
X12386000Y-20242357D01*
X12386000Y-19985214D01*
X12586000Y-20285214D02*
X12557428Y-20270929D01*
X12543143Y-20242357D01*
X12543143Y-19985214D01*
X12928857Y-20285214D02*
X12928857Y-19985214D01*
X13028857Y-20199500D01*
X13128857Y-19985214D01*
X13128857Y-20285214D01*
X13400286Y-20285214D02*
X13400286Y-20128072D01*
X13386000Y-20099500D01*
X13357428Y-20085214D01*
X13300286Y-20085214D01*
X13271714Y-20099500D01*
X13400286Y-20270929D02*
X13371714Y-20285214D01*
X13300286Y-20285214D01*
X13271714Y-20270929D01*
X13257428Y-20242357D01*
X13257428Y-20213786D01*
X13271714Y-20185214D01*
X13300286Y-20170929D01*
X13371714Y-20170929D01*
X13400286Y-20156643D01*
X13543143Y-20085214D02*
X13543143Y-20385214D01*
X13543143Y-20099500D02*
X13571714Y-20085214D01*
X13628857Y-20085214D01*
X13657428Y-20099500D01*
X13671714Y-20113786D01*
X13686000Y-20142357D01*
X13686000Y-20228072D01*
X13671714Y-20256643D01*
X13657428Y-20270929D01*
X13628857Y-20285214D01*
X13571714Y-20285214D01*
X13543143Y-20270929D01*
X13814571Y-20256643D02*
X13828857Y-20270929D01*
X13814571Y-20285214D01*
X13800286Y-20270929D01*
X13814571Y-20256643D01*
X13814571Y-20285214D01*
X13814571Y-20099500D02*
X13828857Y-20113786D01*
X13814571Y-20128072D01*
X13800286Y-20113786D01*
X13814571Y-20099500D01*
X13814571Y-20128072D01*
X11396000Y-20734500D02*
X11486000Y-20824500D01*
X11486000Y-20734500D02*
X11396000Y-20824500D01*
X11814571Y-20615214D02*
X11843143Y-20615214D01*
X11871714Y-20629500D01*
X11886000Y-20643786D01*
X11900286Y-20672357D01*
X11914571Y-20729500D01*
X11914571Y-20800929D01*
X11900286Y-20858072D01*
X11886000Y-20886643D01*
X11871714Y-20900929D01*
X11843143Y-20915214D01*
X11814571Y-20915214D01*
X11786000Y-20900929D01*
X11771714Y-20886643D01*
X11757428Y-20858072D01*
X11743143Y-20800929D01*
X11743143Y-20729500D01*
X11757428Y-20672357D01*
X11771714Y-20643786D01*
X11786000Y-20629500D01*
X11814571Y-20615214D01*
X12043143Y-20886643D02*
X12057428Y-20900929D01*
X12043143Y-20915214D01*
X12028857Y-20900929D01*
X12043143Y-20886643D01*
X12043143Y-20915214D01*
X12200286Y-20915214D02*
X12257428Y-20915214D01*
X12286000Y-20900929D01*
X12300286Y-20886643D01*
X12328857Y-20843786D01*
X12343143Y-20786643D01*
X12343143Y-20672357D01*
X12328857Y-20643786D01*
X12314571Y-20629500D01*
X12286000Y-20615214D01*
X12228857Y-20615214D01*
X12200286Y-20629500D01*
X12186000Y-20643786D01*
X12171714Y-20672357D01*
X12171714Y-20743786D01*
X12186000Y-20772357D01*
X12200286Y-20786643D01*
X12228857Y-20800929D01*
X12286000Y-20800929D01*
X12314571Y-20786643D01*
X12328857Y-20772357D01*
X12343143Y-20743786D01*
X12528857Y-20615214D02*
X12557428Y-20615214D01*
X12586000Y-20629500D01*
X12600286Y-20643786D01*
X12614571Y-20672357D01*
X12628857Y-20729500D01*
X12628857Y-20800929D01*
X12614571Y-20858072D01*
X12600286Y-20886643D01*
X12586000Y-20900929D01*
X12557428Y-20915214D01*
X12528857Y-20915214D01*
X12500286Y-20900929D01*
X12486000Y-20886643D01*
X12471714Y-20858072D01*
X12457428Y-20800929D01*
X12457428Y-20729500D01*
X12471714Y-20672357D01*
X12486000Y-20643786D01*
X12500286Y-20629500D01*
X12528857Y-20615214D01*
X12757428Y-20915214D02*
X12757428Y-20715214D01*
X12757428Y-20743786D02*
X12771714Y-20729500D01*
X12800286Y-20715214D01*
X12843143Y-20715214D01*
X12871714Y-20729500D01*
X12886000Y-20758072D01*
X12886000Y-20915214D01*
X12886000Y-20758072D02*
X12900286Y-20729500D01*
X12928857Y-20715214D01*
X12971714Y-20715214D01*
X13000286Y-20729500D01*
X13014571Y-20758072D01*
X13014571Y-20915214D01*
X13157428Y-20915214D02*
X13157428Y-20715214D01*
X13157428Y-20743786D02*
X13171714Y-20729500D01*
X13200286Y-20715214D01*
X13243143Y-20715214D01*
X13271714Y-20729500D01*
X13286000Y-20758072D01*
X13286000Y-20915214D01*
X13286000Y-20758072D02*
X13300286Y-20729500D01*
X13328857Y-20715214D01*
X13371714Y-20715214D01*
X13400286Y-20729500D01*
X13414571Y-20758072D01*
X13414571Y-20915214D01*
X14000286Y-20600929D02*
X13743143Y-20986643D01*
X14386000Y-20615214D02*
X14414571Y-20615214D01*
X14443143Y-20629500D01*
X14457428Y-20643786D01*
X14471714Y-20672357D01*
X14486000Y-20729500D01*
X14486000Y-20800929D01*
X14471714Y-20858072D01*
X14457428Y-20886643D01*
X14443143Y-20900929D01*
X14414571Y-20915214D01*
X14386000Y-20915214D01*
X14357428Y-20900929D01*
X14343143Y-20886643D01*
X14328857Y-20858072D01*
X14314571Y-20800929D01*
X14314571Y-20729500D01*
X14328857Y-20672357D01*
X14343143Y-20643786D01*
X14357428Y-20629500D01*
X14386000Y-20615214D01*
X14614571Y-20886643D02*
X14628857Y-20900929D01*
X14614571Y-20915214D01*
X14600286Y-20900929D01*
X14614571Y-20886643D01*
X14614571Y-20915214D01*
X14814571Y-20615214D02*
X14843143Y-20615214D01*
X14871714Y-20629500D01*
X14886000Y-20643786D01*
X14900285Y-20672357D01*
X14914571Y-20729500D01*
X14914571Y-20800929D01*
X14900285Y-20858072D01*
X14886000Y-20886643D01*
X14871714Y-20900929D01*
X14843143Y-20915214D01*
X14814571Y-20915214D01*
X14786000Y-20900929D01*
X14771714Y-20886643D01*
X14757428Y-20858072D01*
X14743143Y-20800929D01*
X14743143Y-20729500D01*
X14757428Y-20672357D01*
X14771714Y-20643786D01*
X14786000Y-20629500D01*
X14814571Y-20615214D01*
X15014571Y-20615214D02*
X15200285Y-20615214D01*
X15100285Y-20729500D01*
X15143143Y-20729500D01*
X15171714Y-20743786D01*
X15186000Y-20758072D01*
X15200285Y-20786643D01*
X15200285Y-20858072D01*
X15186000Y-20886643D01*
X15171714Y-20900929D01*
X15143143Y-20915214D01*
X15057428Y-20915214D01*
X15028857Y-20900929D01*
X15014571Y-20886643D01*
X15471714Y-20615214D02*
X15328857Y-20615214D01*
X15314571Y-20758072D01*
X15328857Y-20743786D01*
X15357428Y-20729500D01*
X15428857Y-20729500D01*
X15457428Y-20743786D01*
X15471714Y-20758072D01*
X15486000Y-20786643D01*
X15486000Y-20858072D01*
X15471714Y-20886643D01*
X15457428Y-20900929D01*
X15428857Y-20915214D01*
X15357428Y-20915214D01*
X15328857Y-20900929D01*
X15314571Y-20886643D01*
X15600286Y-20615214D02*
X15600286Y-20672357D01*
X15714571Y-20615214D02*
X15714571Y-20672357D01*
X16157428Y-21029500D02*
X16143143Y-21015214D01*
X16114571Y-20972357D01*
X16100285Y-20943786D01*
X16086000Y-20900929D01*
X16071714Y-20829500D01*
X16071714Y-20772357D01*
X16086000Y-20700929D01*
X16100285Y-20658072D01*
X16114571Y-20629500D01*
X16143143Y-20586643D01*
X16157428Y-20572357D01*
X16428857Y-20915214D02*
X16257428Y-20915214D01*
X16343143Y-20915214D02*
X16343143Y-20615214D01*
X16314571Y-20658072D01*
X16286000Y-20686643D01*
X16257428Y-20700929D01*
X16614571Y-20615214D02*
X16643143Y-20615214D01*
X16671714Y-20629500D01*
X16686000Y-20643786D01*
X16700285Y-20672357D01*
X16714571Y-20729500D01*
X16714571Y-20800929D01*
X16700285Y-20858072D01*
X16686000Y-20886643D01*
X16671714Y-20900929D01*
X16643143Y-20915214D01*
X16614571Y-20915214D01*
X16586000Y-20900929D01*
X16571714Y-20886643D01*
X16557428Y-20858072D01*
X16543143Y-20800929D01*
X16543143Y-20729500D01*
X16557428Y-20672357D01*
X16571714Y-20643786D01*
X16586000Y-20629500D01*
X16614571Y-20615214D01*
X17071714Y-20915214D02*
X17071714Y-20615214D01*
X17200286Y-20915214D02*
X17200286Y-20758072D01*
X17186000Y-20729500D01*
X17157428Y-20715214D01*
X17114571Y-20715214D01*
X17086000Y-20729500D01*
X17071714Y-20743786D01*
X17386000Y-20915214D02*
X17357428Y-20900929D01*
X17343143Y-20886643D01*
X17328857Y-20858072D01*
X17328857Y-20772357D01*
X17343143Y-20743786D01*
X17357428Y-20729500D01*
X17386000Y-20715214D01*
X17428857Y-20715214D01*
X17457428Y-20729500D01*
X17471714Y-20743786D01*
X17486000Y-20772357D01*
X17486000Y-20858072D01*
X17471714Y-20886643D01*
X17457428Y-20900929D01*
X17428857Y-20915214D01*
X17386000Y-20915214D01*
X17657428Y-20915214D02*
X17628857Y-20900929D01*
X17614571Y-20872357D01*
X17614571Y-20615214D01*
X17886000Y-20900929D02*
X17857429Y-20915214D01*
X17800286Y-20915214D01*
X17771714Y-20900929D01*
X17757429Y-20872357D01*
X17757429Y-20758072D01*
X17771714Y-20729500D01*
X17800286Y-20715214D01*
X17857429Y-20715214D01*
X17886000Y-20729500D01*
X17900286Y-20758072D01*
X17900286Y-20786643D01*
X17757429Y-20815214D01*
X18014571Y-20900929D02*
X18043143Y-20915214D01*
X18100286Y-20915214D01*
X18128857Y-20900929D01*
X18143143Y-20872357D01*
X18143143Y-20858072D01*
X18128857Y-20829500D01*
X18100286Y-20815214D01*
X18057429Y-20815214D01*
X18028857Y-20800929D01*
X18014571Y-20772357D01*
X18014571Y-20758072D01*
X18028857Y-20729500D01*
X18057429Y-20715214D01*
X18100286Y-20715214D01*
X18128857Y-20729500D01*
X18243143Y-21029500D02*
X18257429Y-21015214D01*
X18286000Y-20972357D01*
X18300286Y-20943786D01*
X18314571Y-20900929D01*
X18328857Y-20829500D01*
X18328857Y-20772357D01*
X18314571Y-20700929D01*
X18300286Y-20658072D01*
X18286000Y-20629500D01*
X18257429Y-20586643D01*
X18243143Y-20572357D01*
X18786000Y-21029500D02*
X18771714Y-21015214D01*
X18743143Y-20972357D01*
X18728857Y-20943786D01*
X18714571Y-20900929D01*
X18700286Y-20829500D01*
X18700286Y-20772357D01*
X18714571Y-20700929D01*
X18728857Y-20658072D01*
X18743143Y-20629500D01*
X18771714Y-20586643D01*
X18786000Y-20572357D01*
X18900286Y-20715214D02*
X18900286Y-20915214D01*
X18900286Y-20743786D02*
X18914571Y-20729500D01*
X18943143Y-20715214D01*
X18986000Y-20715214D01*
X19014571Y-20729500D01*
X19028857Y-20758072D01*
X19028857Y-20915214D01*
X19214571Y-20915214D02*
X19186000Y-20900929D01*
X19171714Y-20886643D01*
X19157429Y-20858072D01*
X19157429Y-20772357D01*
X19171714Y-20743786D01*
X19186000Y-20729500D01*
X19214571Y-20715214D01*
X19257429Y-20715214D01*
X19286000Y-20729500D01*
X19300286Y-20743786D01*
X19314571Y-20772357D01*
X19314571Y-20858072D01*
X19300286Y-20886643D01*
X19286000Y-20900929D01*
X19257429Y-20915214D01*
X19214571Y-20915214D01*
X19400286Y-20715214D02*
X19514571Y-20715214D01*
X19443143Y-20615214D02*
X19443143Y-20872357D01*
X19457429Y-20900929D01*
X19486000Y-20915214D01*
X19514571Y-20915214D01*
X19843143Y-20715214D02*
X19843143Y-21015214D01*
X19843143Y-20729500D02*
X19871714Y-20715214D01*
X19928857Y-20715214D01*
X19957429Y-20729500D01*
X19971714Y-20743786D01*
X19986000Y-20772357D01*
X19986000Y-20858072D01*
X19971714Y-20886643D01*
X19957429Y-20900929D01*
X19928857Y-20915214D01*
X19871714Y-20915214D01*
X19843143Y-20900929D01*
X20157429Y-20915214D02*
X20128857Y-20900929D01*
X20114571Y-20872357D01*
X20114571Y-20615214D01*
X20400286Y-20915214D02*
X20400286Y-20758072D01*
X20386000Y-20729500D01*
X20357429Y-20715214D01*
X20300286Y-20715214D01*
X20271714Y-20729500D01*
X20400286Y-20900929D02*
X20371714Y-20915214D01*
X20300286Y-20915214D01*
X20271714Y-20900929D01*
X20257429Y-20872357D01*
X20257429Y-20843786D01*
X20271714Y-20815214D01*
X20300286Y-20800929D01*
X20371714Y-20800929D01*
X20400286Y-20786643D01*
X20500286Y-20715214D02*
X20614571Y-20715214D01*
X20543143Y-20615214D02*
X20543143Y-20872357D01*
X20557429Y-20900929D01*
X20586000Y-20915214D01*
X20614571Y-20915214D01*
X20828857Y-20900929D02*
X20800286Y-20915214D01*
X20743143Y-20915214D01*
X20714572Y-20900929D01*
X20700286Y-20872357D01*
X20700286Y-20758072D01*
X20714572Y-20729500D01*
X20743143Y-20715214D01*
X20800286Y-20715214D01*
X20828857Y-20729500D01*
X20843143Y-20758072D01*
X20843143Y-20786643D01*
X20700286Y-20815214D01*
X21100286Y-20915214D02*
X21100286Y-20615214D01*
X21100286Y-20900929D02*
X21071714Y-20915214D01*
X21014572Y-20915214D01*
X20986000Y-20900929D01*
X20971714Y-20886643D01*
X20957429Y-20858072D01*
X20957429Y-20772357D01*
X20971714Y-20743786D01*
X20986000Y-20729500D01*
X21014572Y-20715214D01*
X21071714Y-20715214D01*
X21100286Y-20729500D01*
X21214572Y-21029500D02*
X21228857Y-21015214D01*
X21257429Y-20972357D01*
X21271714Y-20943786D01*
X21286000Y-20900929D01*
X21300286Y-20829500D01*
X21300286Y-20772357D01*
X21286000Y-20700929D01*
X21271714Y-20658072D01*
X21257429Y-20629500D01*
X21228857Y-20586643D01*
X21214572Y-20572357D01*
M02*
