G04 #@! TF.GenerationSoftware,KiCad,Pcbnew,5.1.6-c6e7f7d~87~ubuntu19.10.1*
G04 #@! TF.CreationDate,2021-07-01T13:16:57+03:00*
G04 #@! TF.ProjectId,authenticator2.0,61757468-656e-4746-9963-61746f72322e,rev?*
G04 #@! TF.SameCoordinates,Original*
G04 #@! TF.FileFunction,Copper,L3,Inr*
G04 #@! TF.FilePolarity,Positive*
%FSLAX46Y46*%
G04 Gerber Fmt 4.6, Leading zero omitted, Abs format (unit mm)*
G04 Created by KiCad (PCBNEW 5.1.6-c6e7f7d~87~ubuntu19.10.1) date 2021-07-01 13:16:57*
%MOMM*%
%LPD*%
G01*
G04 APERTURE LIST*
G04 #@! TA.AperFunction,ViaPad*
%ADD10C,1.524000*%
G04 #@! TD*
G04 #@! TA.AperFunction,ViaPad*
%ADD11R,1.750000X1.750000*%
G04 #@! TD*
G04 #@! TA.AperFunction,ViaPad*
%ADD12C,1.750000*%
G04 #@! TD*
G04 #@! TA.AperFunction,ViaPad*
%ADD13O,1.200000X1.750000*%
G04 #@! TD*
G04 #@! TA.AperFunction,ViaPad*
%ADD14R,1.200000X1.750000*%
G04 #@! TD*
G04 #@! TA.AperFunction,ViaPad*
%ADD15C,2.450000*%
G04 #@! TD*
G04 #@! TA.AperFunction,ViaPad*
%ADD16R,1.250000X1.750000*%
G04 #@! TD*
G04 #@! TA.AperFunction,ViaPad*
%ADD17O,1.250000X1.750000*%
G04 #@! TD*
G04 #@! TA.AperFunction,ViaPad*
%ADD18O,2.000000X0.700000*%
G04 #@! TD*
G04 #@! TA.AperFunction,ViaPad*
%ADD19R,2.000000X0.700000*%
G04 #@! TD*
G04 #@! TA.AperFunction,Conductor*
%ADD20C,2.000000*%
G04 #@! TD*
G04 #@! TA.AperFunction,Conductor*
%ADD21C,0.500000*%
G04 #@! TD*
G04 #@! TA.AperFunction,Conductor*
%ADD22C,1.000000*%
G04 #@! TD*
G04 APERTURE END LIST*
D10*
X121640000Y-55000000D03*
X119100000Y-55000000D03*
X116560000Y-55000000D03*
X114020000Y-55000000D03*
X111480000Y-55000000D03*
X108940000Y-55000000D03*
X106400000Y-55000000D03*
X121700000Y-82600000D03*
X119160000Y-82600000D03*
X116620000Y-82600000D03*
X114080000Y-82600000D03*
X111540000Y-82600000D03*
X109000000Y-82600000D03*
X106460000Y-82600000D03*
D11*
X88340000Y-96115000D03*
D12*
X88340000Y-91035000D03*
X88340000Y-88495000D03*
X88340000Y-85955000D03*
X88340000Y-83415000D03*
X83260000Y-83415000D03*
X83260000Y-85955000D03*
X83260000Y-88495000D03*
X83260000Y-91035000D03*
X83260000Y-96115000D03*
D13*
X44525000Y-113895000D03*
X44525000Y-111355000D03*
X47065000Y-113895000D03*
X47065000Y-111355000D03*
X49605000Y-113895000D03*
X49605000Y-111355000D03*
X52145000Y-113895000D03*
X52145000Y-111355000D03*
X54685000Y-113895000D03*
X54685000Y-111355000D03*
X57225000Y-113895000D03*
X57225000Y-111355000D03*
X59765000Y-113895000D03*
X59765000Y-111355000D03*
X62305000Y-113895000D03*
X62305000Y-111355000D03*
X64845000Y-113895000D03*
X64845000Y-111355000D03*
X67385000Y-113895000D03*
X67385000Y-111355000D03*
X69925000Y-113895000D03*
X69925000Y-111355000D03*
X72465000Y-113895000D03*
X72465000Y-111355000D03*
X75005000Y-113895000D03*
X75005000Y-111355000D03*
X77545000Y-113895000D03*
X77545000Y-111355000D03*
X80085000Y-113895000D03*
X80085000Y-111355000D03*
X82625000Y-113895000D03*
X82625000Y-111355000D03*
X85165000Y-113895000D03*
X85165000Y-111355000D03*
X87705000Y-113895000D03*
X87705000Y-111355000D03*
X90245000Y-113895000D03*
X90245000Y-111355000D03*
X92785000Y-113895000D03*
D14*
X92785000Y-111355000D03*
D13*
X43255000Y-67540000D03*
D15*
X45795000Y-71430000D03*
D13*
X52145000Y-67540000D03*
X53415000Y-70080000D03*
X54685000Y-67540000D03*
X55955000Y-70080000D03*
X57225000Y-67540000D03*
D15*
X30360000Y-56620000D03*
X61230000Y-56620000D03*
D13*
X50875000Y-70080000D03*
X49605000Y-67540000D03*
X48335000Y-70080000D03*
X41985000Y-70080000D03*
X40715000Y-67540000D03*
X39445000Y-70080000D03*
X38175000Y-67540000D03*
X36905000Y-70080000D03*
X35635000Y-67540000D03*
X34365000Y-70080000D03*
D11*
X88340000Y-98655000D03*
D12*
X83260000Y-98655000D03*
X28650000Y-93575000D03*
X28650000Y-83415000D03*
D11*
X22590000Y-105005000D03*
D12*
X22590000Y-110085000D03*
X64845000Y-78335000D03*
X59765000Y-78335000D03*
X62305000Y-78335000D03*
X47065000Y-78335000D03*
X57225000Y-78335000D03*
X94400000Y-99925000D03*
X94400000Y-94845000D03*
X94400000Y-89765000D03*
X94400000Y-84685000D03*
D11*
X36270000Y-85955000D03*
D12*
X31190000Y-85955000D03*
X57225000Y-101195000D03*
X57225000Y-91035000D03*
X85800000Y-101195000D03*
X83260000Y-101195000D03*
X88340000Y-101195000D03*
X64845000Y-101195000D03*
X59765000Y-101195000D03*
X62305000Y-101195000D03*
X85800000Y-78335000D03*
X83260000Y-78335000D03*
X88340000Y-78335000D03*
X33730000Y-83415000D03*
X31190000Y-83415000D03*
X36270000Y-83415000D03*
X28650000Y-96115000D03*
X28650000Y-106275000D03*
X31190000Y-101195000D03*
X31190000Y-96115000D03*
X31190000Y-93575000D03*
X31190000Y-91035000D03*
X31190000Y-88495000D03*
X36270000Y-88495000D03*
X36270000Y-91035000D03*
X36270000Y-93575000D03*
X36270000Y-96115000D03*
D11*
X36270000Y-101195000D03*
D12*
X36270000Y-106275000D03*
X31190000Y-106275000D03*
X33730000Y-106275000D03*
X80720000Y-88495000D03*
X80720000Y-78335000D03*
X80720000Y-91035000D03*
X80720000Y-101195000D03*
X59765000Y-96115000D03*
X59765000Y-91035000D03*
X59765000Y-88495000D03*
X59765000Y-85955000D03*
X59765000Y-83415000D03*
X64845000Y-83415000D03*
X64845000Y-85955000D03*
X64845000Y-88495000D03*
X64845000Y-91035000D03*
D11*
X64845000Y-96115000D03*
D12*
X22590000Y-84050000D03*
X22590000Y-89130000D03*
X22590000Y-94210000D03*
X22590000Y-99290000D03*
X59765000Y-98655000D03*
D11*
X64845000Y-98655000D03*
D12*
X83260000Y-80875000D03*
D11*
X88340000Y-80875000D03*
D12*
X31190000Y-103735000D03*
D11*
X36270000Y-103735000D03*
D13*
X66115000Y-70080000D03*
X67385000Y-67540000D03*
X68655000Y-70080000D03*
X69925000Y-67540000D03*
X71195000Y-70080000D03*
X72465000Y-67540000D03*
X73735000Y-70080000D03*
X80085000Y-70080000D03*
X81355000Y-67540000D03*
X82625000Y-70080000D03*
D15*
X92980000Y-56620000D03*
X62110000Y-56620000D03*
D13*
X88975000Y-67540000D03*
X87705000Y-70080000D03*
X86435000Y-67540000D03*
X85165000Y-70080000D03*
X83895000Y-67540000D03*
D15*
X77545000Y-71430000D03*
D13*
X75005000Y-67540000D03*
D12*
X77545000Y-75160000D03*
X77545000Y-77700000D03*
D11*
X77545000Y-80240000D03*
D12*
X59765000Y-80875000D03*
D11*
X64845000Y-80875000D03*
D12*
X20320000Y-33020000D03*
X20320000Y-22860000D03*
X20445000Y-20000000D03*
X22985000Y-20000000D03*
X17905000Y-20000000D03*
X43940000Y-15640000D03*
X46480000Y-15640000D03*
X49020000Y-15640000D03*
X51560000Y-15640000D03*
X54100000Y-15640000D03*
X56640000Y-15640000D03*
X59180000Y-15640000D03*
X61720000Y-15640000D03*
X64260000Y-15640000D03*
X66800000Y-15640000D03*
X69340000Y-15640000D03*
X71880000Y-15640000D03*
X74420000Y-15640000D03*
X76960000Y-15640000D03*
X79500000Y-15640000D03*
X82040000Y-15640000D03*
X84580000Y-15640000D03*
X87120000Y-15640000D03*
X89660000Y-15640000D03*
D11*
X92200000Y-15640000D03*
D10*
X48800000Y-44300000D03*
X48800000Y-41760000D03*
X48800000Y-39220000D03*
X48800000Y-36680000D03*
X48800000Y-34140000D03*
X48800000Y-31600000D03*
X48800000Y-29060000D03*
D16*
X80389000Y21190000D03*
D17*
X82421000Y21190000D03*
D12*
X24890000Y-2305000D03*
D11*
X24890000Y-9925000D03*
D12*
X76960000Y21190000D03*
X74420000Y21190000D03*
X71880000Y21190000D03*
X69340000Y21190000D03*
X66800000Y21190000D03*
X64260000Y21190000D03*
D11*
X61720000Y21190000D03*
D12*
X19175000Y18360000D03*
X24255000Y18360000D03*
X29335000Y18360000D03*
X34415000Y18360000D03*
X76960000Y-11830000D03*
X74420000Y-11830000D03*
X71880000Y-11830000D03*
X69340000Y-11830000D03*
X66800000Y-11830000D03*
X64260000Y-11830000D03*
D11*
X61720000Y-11830000D03*
D12*
X20445000Y-16000000D03*
X22985000Y-16000000D03*
X39370000Y21190000D03*
D11*
X41910000Y21190000D03*
X106805000Y-19160000D03*
D12*
X111885000Y-19160000D03*
D10*
X73400000Y-44240000D03*
X73400000Y-41700000D03*
X73400000Y-39160000D03*
X73400000Y-36620000D03*
X73400000Y-34080000D03*
X73400000Y-31540000D03*
X73400000Y-29000000D03*
D13*
X64260000Y16110000D03*
X62990000Y13570000D03*
X61720000Y16110000D03*
X60450000Y13570000D03*
X59180000Y16110000D03*
X57910000Y13570000D03*
X56640000Y16110000D03*
X50290000Y16110000D03*
X49020000Y13570000D03*
X47750000Y16110000D03*
D15*
X37395000Y2650000D03*
X68265000Y2650000D03*
D13*
X41400000Y13570000D03*
X42670000Y16110000D03*
X43940000Y13570000D03*
X45210000Y16110000D03*
X46480000Y13570000D03*
D15*
X52830000Y17460000D03*
D13*
X55370000Y13570000D03*
X87120000Y13570000D03*
D15*
X84580000Y17460000D03*
D13*
X78230000Y13570000D03*
X76960000Y16110000D03*
X75690000Y13570000D03*
X74420000Y16110000D03*
X73150000Y13570000D03*
D15*
X100015000Y2650000D03*
X69145000Y2650000D03*
D13*
X79500000Y16110000D03*
X80770000Y13570000D03*
X82040000Y16110000D03*
X88390000Y16110000D03*
X89660000Y13570000D03*
X90930000Y16110000D03*
X92200000Y13570000D03*
X93470000Y16110000D03*
X94740000Y13570000D03*
X96010000Y16110000D03*
D11*
X130575000Y9075000D03*
D12*
X128035000Y9075000D03*
X125495000Y9075000D03*
X122955000Y9075000D03*
X120415000Y9075000D03*
X117875000Y9075000D03*
X115335000Y9075000D03*
X22800000Y-26600000D03*
X22800000Y-29140000D03*
X22800000Y-31680000D03*
X22800000Y-34220000D03*
X22800000Y-36760000D03*
X22800000Y-39300000D03*
D11*
X22800000Y-41840000D03*
D12*
X28029601Y-16856194D03*
X25400000Y-26670000D03*
X17780000Y-38100000D03*
X17780000Y-27940000D03*
X34608087Y-35711198D03*
X25400000Y-40005000D03*
D11*
X27940000Y-43815000D03*
D12*
X30480000Y-43815000D03*
X33020000Y-43815000D03*
D11*
X97750000Y-29490000D03*
D12*
X97750000Y-32030000D03*
X97750000Y-34570000D03*
X97750000Y-37110000D03*
X97750000Y-39650000D03*
D18*
X137850000Y-35555000D03*
X137850000Y-31745000D03*
D19*
X137850000Y-33015000D03*
D18*
X137850000Y-34285000D03*
D20*
X36270000Y-93575000D02*
X35032564Y-93575000D01*
X35032564Y-93575000D02*
X33465001Y-95142563D01*
X33465001Y-95142563D02*
X33465001Y-97207001D01*
X31752003Y-98919999D02*
X28675001Y-98919999D01*
X33465001Y-97207001D02*
X31752003Y-98919999D01*
X28675001Y-98919999D02*
X22590000Y-105005000D01*
D21*
X79500000Y11665000D02*
X79500000Y16110000D01*
D22*
X77595000Y9760000D02*
X79500000Y11665000D01*
X71880000Y9760000D02*
X77595000Y9760000D01*
X68070000Y13570000D02*
X71880000Y9760000D01*
X68070000Y17380000D02*
X68070000Y13570000D01*
X64260000Y21190000D02*
X68070000Y17380000D01*
X71649990Y12673676D02*
X72658666Y11665000D01*
X66800000Y21190000D02*
X71649990Y16340010D01*
X72658666Y11665000D02*
X75690000Y11665000D01*
D21*
X75827781Y11665000D02*
X76960000Y12797219D01*
D22*
X71649990Y16340010D02*
X71649990Y12673676D01*
D21*
X76960000Y12797219D02*
X76960000Y16110000D01*
D22*
X74420000Y16110000D02*
X69340000Y21190000D01*
D21*
X78230000Y16882781D02*
X77028890Y18083890D01*
X78230000Y13570000D02*
X78230000Y16882781D01*
D22*
X74986110Y18083890D02*
X77028890Y18083890D01*
X71880000Y21190000D02*
X74986110Y18083890D01*
D21*
X52145000Y-67540000D02*
X52145000Y-71350000D01*
D22*
X53415000Y-102465000D02*
X53415000Y-72620000D01*
X53415000Y-72620000D02*
X52145000Y-71350000D01*
X56590000Y-105640000D02*
X53415000Y-102465000D01*
X61670000Y-105640000D02*
X56590000Y-105640000D01*
X64845000Y-108815000D02*
X61670000Y-105640000D01*
X64845000Y-111355000D02*
X64845000Y-108815000D01*
X67385000Y-77700000D02*
X65480000Y-75795000D01*
X67385000Y-105640000D02*
X67385000Y-77700000D01*
X69925000Y-111355000D02*
X69925000Y-108180000D01*
X65480000Y-75795000D02*
X61670000Y-75795000D01*
X61670000Y-75795000D02*
X55955000Y-70080000D01*
X69925000Y-108180000D02*
X67385000Y-105640000D01*
X55320000Y-101917002D02*
X55320000Y-71985000D01*
X55320000Y-71985000D02*
X53415000Y-70080000D01*
X62305000Y-103735000D02*
X57137998Y-103735000D01*
X57137998Y-103735000D02*
X55320000Y-101917002D01*
X67385000Y-108815000D02*
X62305000Y-103735000D01*
X67385000Y-111355000D02*
X67385000Y-108815000D01*
D21*
X63594990Y-112644990D02*
X64845000Y-113895000D01*
D22*
X52014990Y-103044903D02*
X56010097Y-107040010D01*
X50875000Y-72620000D02*
X50875000Y-73255000D01*
X52014990Y-74394990D02*
X52014990Y-103044903D01*
D21*
X62373890Y-109381110D02*
X63594990Y-110602209D01*
D22*
X62373890Y-108883890D02*
X62373890Y-109381110D01*
D21*
X50875000Y-70080000D02*
X50875000Y-72620000D01*
X63594990Y-110602209D02*
X63594990Y-112644990D01*
D22*
X56010097Y-107040010D02*
X60530010Y-107040010D01*
X60530010Y-107040010D02*
X62373890Y-108883890D01*
X50875000Y-73255000D02*
X52014990Y-74394990D01*
D21*
X67385000Y-113895000D02*
X68910010Y-115420010D01*
X71214990Y-110195020D02*
X71325010Y-110085000D01*
X68910010Y-115420010D02*
X70442771Y-115420010D01*
X70442771Y-115420010D02*
X71214990Y-114647791D01*
X71214990Y-114647791D02*
X71214990Y-110195020D01*
D22*
X71325010Y-107600097D02*
X71325010Y-110085000D01*
X71325010Y-79243676D02*
X71325010Y-107600097D01*
X56460010Y-65764990D02*
X57846324Y-65764990D01*
X54685000Y-67540000D02*
X56460010Y-65764990D01*
X57846324Y-65764990D02*
X71325010Y-79243676D01*
X80720000Y-88495000D02*
X77545000Y-91670000D01*
X77545000Y-91670000D02*
X77545000Y-111355000D01*
X80085000Y-101830000D02*
X80085000Y-111355000D01*
X80720000Y-101195000D02*
X80085000Y-101830000D01*
X62305000Y-98655000D02*
X62305000Y-80875000D01*
X62305000Y-80875000D02*
X59765000Y-78335000D01*
X59765000Y-101195000D02*
X62305000Y-98655000D01*
D21*
X49624990Y-73984903D02*
X49624990Y-67559990D01*
D22*
X50370010Y-103379836D02*
X50370010Y-75290010D01*
X55430194Y-108440020D02*
X50370010Y-103379836D01*
X49735010Y-74655010D02*
X49735010Y-74094923D01*
X59246354Y-108440020D02*
X55430194Y-108440020D01*
X62305000Y-111355000D02*
X62161334Y-111355000D01*
X62161334Y-111355000D02*
X59246354Y-108440020D01*
X50370010Y-75290010D02*
X49735010Y-74655010D01*
D21*
X49624990Y-67559990D02*
X49605000Y-67540000D01*
X49735010Y-74094923D02*
X49624990Y-73984903D01*
D22*
X41400000Y13570000D02*
X39205000Y13570000D01*
X39205000Y13570000D02*
X34415000Y18360000D01*
D21*
X37845010Y12044990D02*
X37590000Y12300000D01*
X43940000Y13570000D02*
X42414990Y12044990D01*
X42414990Y12044990D02*
X37845010Y12044990D01*
D22*
X31530000Y18360000D02*
X37590000Y12300000D01*
X29335000Y18360000D02*
X31530000Y18360000D01*
D21*
X34293017Y11144981D02*
X33776499Y11661499D01*
X44054981Y11144981D02*
X34293017Y11144981D01*
X46480000Y13570000D02*
X44054981Y11144981D01*
D22*
X30953501Y11661499D02*
X33776499Y11661499D01*
X24255000Y18360000D02*
X30953501Y11661499D01*
X49020000Y13570000D02*
X45444971Y9994971D01*
X23867003Y16584999D02*
X20950001Y16584999D01*
X45444971Y9994971D02*
X30457031Y9994971D01*
X20950001Y16584999D02*
X19175000Y18360000D01*
X30457031Y9994971D02*
X23867003Y16584999D01*
D20*
X38175000Y-65635000D02*
X38175000Y-67540000D01*
X36905000Y-64365000D02*
X38175000Y-65635000D01*
X33730000Y-64365000D02*
X36905000Y-64365000D01*
X24865001Y-73229999D02*
X33730000Y-64365000D01*
X22590000Y-94210000D02*
X24865001Y-91934999D01*
X24865001Y-91934999D02*
X24865001Y-73229999D01*
X47065000Y-111355000D02*
X47065000Y-78335000D01*
D22*
X48335000Y-70080000D02*
X48335000Y-76917981D01*
X48970000Y-77552981D02*
X48970000Y-108180000D01*
X48335000Y-76917981D02*
X48970000Y-77552981D01*
X48970000Y-108180000D02*
X50875000Y-110085000D01*
D21*
X50875000Y-112127781D02*
X50875000Y-110085000D01*
X49605000Y-113895000D02*
X49605000Y-113397781D01*
X49605000Y-113397781D02*
X50875000Y-112127781D01*
D22*
X54210000Y13570000D02*
X55370000Y13570000D01*
X30226094Y-10413906D02*
X54210000Y13570000D01*
X30226094Y-29463906D02*
X30226094Y-10413906D01*
X27940000Y-31750000D02*
X30226094Y-29463906D01*
X27940000Y-43815000D02*
X27940000Y-31750000D01*
D21*
X56640000Y16110000D02*
X56640000Y11555000D01*
D22*
X30480000Y-31750000D02*
X30480000Y-43815000D01*
X31750000Y-30480000D02*
X30480000Y-31750000D01*
X31750000Y-24130000D02*
X31750000Y-30480000D01*
X34925000Y-20955000D02*
X31750000Y-24130000D01*
X34925000Y-8255000D02*
X34925000Y-20955000D01*
X40005000Y-3175000D02*
X34925000Y-8255000D01*
X41910000Y-3175000D02*
X40005000Y-3175000D01*
X56509990Y11424990D02*
X41910000Y-3175000D01*
X56509990Y11940000D02*
X56509990Y11424990D01*
X32385000Y-41910000D02*
X33020000Y-42545000D01*
X36614990Y-22009990D02*
X36410010Y-22009990D01*
X33020000Y-42545000D02*
X33020000Y-43815000D01*
X36614990Y-8886138D02*
X36614990Y-22009990D01*
X40361137Y-5139991D02*
X36614990Y-8886138D01*
X33655000Y-31115000D02*
X32385000Y-32385000D01*
X33655000Y-24765000D02*
X33655000Y-31115000D01*
X36410010Y-22009990D02*
X33655000Y-24765000D01*
X42485010Y-5139990D02*
X40361137Y-5139991D01*
X32385000Y-32385000D02*
X32385000Y-41910000D01*
X57910000Y10285000D02*
X42485010Y-5139990D01*
X57910000Y13570000D02*
X57910000Y10285000D01*
M02*
