G04 #@! TF.GenerationSoftware,KiCad,Pcbnew,5.1.6-c6e7f7d~87~ubuntu19.10.1*
G04 #@! TF.CreationDate,2021-07-01T13:16:57+03:00*
G04 #@! TF.ProjectId,authenticator2.0,61757468-656e-4746-9963-61746f72322e,rev?*
G04 #@! TF.SameCoordinates,Original*
G04 #@! TF.FileFunction,Legend,Top*
G04 #@! TF.FilePolarity,Positive*
%FSLAX46Y46*%
G04 Gerber Fmt 4.6, Leading zero omitted, Abs format (unit mm)*
G04 Created by KiCad (PCBNEW 5.1.6-c6e7f7d~87~ubuntu19.10.1) date 2021-07-01 13:16:57*
%MOMM*%
%LPD*%
G01*
G04 APERTURE LIST*
%ADD10C,0.150000*%
%ADD11C,0.200000*%
%ADD12C,0.300000*%
%ADD13C,0.250000*%
%ADD14C,0.050000*%
G04 APERTURE END LIST*
D10*
X117895265Y5030033D02*
X117895265Y6030033D01*
X118371456Y5696699D02*
X118371456Y5030033D01*
X118371456Y5601461D02*
X118419075Y5649080D01*
X118514313Y5696699D01*
X118657170Y5696699D01*
X118752408Y5649080D01*
X118800027Y5553842D01*
X118800027Y5030033D01*
X119228599Y5077652D02*
X119323837Y5030033D01*
X119514313Y5030033D01*
X119609551Y5077652D01*
X119657170Y5172890D01*
X119657170Y5220509D01*
X119609551Y5315747D01*
X119514313Y5363366D01*
X119371456Y5363366D01*
X119276218Y5410985D01*
X119228599Y5506223D01*
X119228599Y5553842D01*
X119276218Y5649080D01*
X119371456Y5696699D01*
X119514313Y5696699D01*
X119609551Y5649080D01*
X120466694Y5077652D02*
X120371456Y5030033D01*
X120180980Y5030033D01*
X120085742Y5077652D01*
X120038123Y5172890D01*
X120038123Y5553842D01*
X120085742Y5649080D01*
X120180980Y5696699D01*
X120371456Y5696699D01*
X120466694Y5649080D01*
X120514313Y5553842D01*
X120514313Y5458604D01*
X120038123Y5363366D01*
X120942885Y5030033D02*
X120942885Y5696699D01*
X120942885Y5506223D02*
X120990504Y5601461D01*
X121038123Y5649080D01*
X121133361Y5696699D01*
X121228599Y5696699D01*
X121419075Y5696699D02*
X121800027Y5696699D01*
X121561932Y6030033D02*
X121561932Y5172890D01*
X121609551Y5077652D01*
X121704789Y5030033D01*
X121800027Y5030033D01*
X122895265Y5030033D02*
X122895265Y6030033D01*
X123323837Y5030033D02*
X123323837Y5553842D01*
X123276218Y5649080D01*
X123180980Y5696699D01*
X123038123Y5696699D01*
X122942885Y5649080D01*
X122895265Y5601461D01*
X123942885Y5030033D02*
X123847646Y5077652D01*
X123800027Y5125271D01*
X123752408Y5220509D01*
X123752408Y5506223D01*
X123800027Y5601461D01*
X123847646Y5649080D01*
X123942885Y5696699D01*
X124085742Y5696699D01*
X124180980Y5649080D01*
X124228599Y5601461D01*
X124276218Y5506223D01*
X124276218Y5220509D01*
X124228599Y5125271D01*
X124180980Y5077652D01*
X124085742Y5030033D01*
X123942885Y5030033D01*
X124704789Y5030033D02*
X124704789Y5696699D01*
X124704789Y5601461D02*
X124752408Y5649080D01*
X124847646Y5696699D01*
X124990504Y5696699D01*
X125085742Y5649080D01*
X125133361Y5553842D01*
X125133361Y5030033D01*
X125133361Y5553842D02*
X125180980Y5649080D01*
X125276218Y5696699D01*
X125419075Y5696699D01*
X125514313Y5649080D01*
X125561932Y5553842D01*
X125561932Y5030033D01*
X126180980Y5030033D02*
X126085742Y5077652D01*
X126038123Y5125271D01*
X125990504Y5220509D01*
X125990504Y5506223D01*
X126038123Y5601461D01*
X126085742Y5649080D01*
X126180980Y5696699D01*
X126323837Y5696699D01*
X126419075Y5649080D01*
X126466694Y5601461D01*
X126514313Y5506223D01*
X126514313Y5220509D01*
X126466694Y5125271D01*
X126419075Y5077652D01*
X126323837Y5030033D01*
X126180980Y5030033D01*
X126847646Y5696699D02*
X127038123Y5030033D01*
X127228599Y5506223D01*
X127419075Y5030033D01*
X127609551Y5696699D01*
X128419075Y5030033D02*
X128419075Y5553842D01*
X128371456Y5649080D01*
X128276218Y5696699D01*
X128085742Y5696699D01*
X127990504Y5649080D01*
X128419075Y5077652D02*
X128323837Y5030033D01*
X128085742Y5030033D01*
X127990504Y5077652D01*
X127942885Y5172890D01*
X127942885Y5268128D01*
X127990504Y5363366D01*
X128085742Y5410985D01*
X128323837Y5410985D01*
X128419075Y5458604D01*
X128800027Y5696699D02*
X129038123Y5030033D01*
X129276218Y5696699D02*
X129038123Y5030033D01*
X128942885Y4791937D01*
X128895265Y4744318D01*
X128800027Y4696699D01*
X129609551Y5077652D02*
X129704789Y5030033D01*
X129895265Y5030033D01*
X129990504Y5077652D01*
X130038123Y5172890D01*
X130038123Y5220509D01*
X129990504Y5315747D01*
X129895265Y5363366D01*
X129752408Y5363366D01*
X129657170Y5410985D01*
X129609551Y5506223D01*
X129609551Y5553842D01*
X129657170Y5649080D01*
X129752408Y5696699D01*
X129895265Y5696699D01*
X129990504Y5649080D01*
X62532380Y-109672380D02*
X62532380Y-108672380D01*
X63008571Y-109005714D02*
X63008571Y-109672380D01*
X63008571Y-109100952D02*
X63056190Y-109053333D01*
X63151428Y-109005714D01*
X63294285Y-109005714D01*
X63389523Y-109053333D01*
X63437142Y-109148571D01*
X63437142Y-109672380D01*
X63865714Y-109624761D02*
X63960952Y-109672380D01*
X64151428Y-109672380D01*
X64246666Y-109624761D01*
X64294285Y-109529523D01*
X64294285Y-109481904D01*
X64246666Y-109386666D01*
X64151428Y-109339047D01*
X64008571Y-109339047D01*
X63913333Y-109291428D01*
X63865714Y-109196190D01*
X63865714Y-109148571D01*
X63913333Y-109053333D01*
X64008571Y-109005714D01*
X64151428Y-109005714D01*
X64246666Y-109053333D01*
X65103809Y-109624761D02*
X65008571Y-109672380D01*
X64818095Y-109672380D01*
X64722857Y-109624761D01*
X64675238Y-109529523D01*
X64675238Y-109148571D01*
X64722857Y-109053333D01*
X64818095Y-109005714D01*
X65008571Y-109005714D01*
X65103809Y-109053333D01*
X65151428Y-109148571D01*
X65151428Y-109243809D01*
X64675238Y-109339047D01*
X65580000Y-109672380D02*
X65580000Y-109005714D01*
X65580000Y-109196190D02*
X65627619Y-109100952D01*
X65675238Y-109053333D01*
X65770476Y-109005714D01*
X65865714Y-109005714D01*
X66056190Y-109005714D02*
X66437142Y-109005714D01*
X66199047Y-108672380D02*
X66199047Y-109529523D01*
X66246666Y-109624761D01*
X66341904Y-109672380D01*
X66437142Y-109672380D01*
X67532380Y-109672380D02*
X67532380Y-108672380D01*
X67960952Y-109672380D02*
X67960952Y-109148571D01*
X67913333Y-109053333D01*
X67818095Y-109005714D01*
X67675238Y-109005714D01*
X67580000Y-109053333D01*
X67532380Y-109100952D01*
X68580000Y-109672380D02*
X68484761Y-109624761D01*
X68437142Y-109577142D01*
X68389523Y-109481904D01*
X68389523Y-109196190D01*
X68437142Y-109100952D01*
X68484761Y-109053333D01*
X68580000Y-109005714D01*
X68722857Y-109005714D01*
X68818095Y-109053333D01*
X68865714Y-109100952D01*
X68913333Y-109196190D01*
X68913333Y-109481904D01*
X68865714Y-109577142D01*
X68818095Y-109624761D01*
X68722857Y-109672380D01*
X68580000Y-109672380D01*
X69341904Y-109672380D02*
X69341904Y-109005714D01*
X69341904Y-109100952D02*
X69389523Y-109053333D01*
X69484761Y-109005714D01*
X69627619Y-109005714D01*
X69722857Y-109053333D01*
X69770476Y-109148571D01*
X69770476Y-109672380D01*
X69770476Y-109148571D02*
X69818095Y-109053333D01*
X69913333Y-109005714D01*
X70056190Y-109005714D01*
X70151428Y-109053333D01*
X70199047Y-109148571D01*
X70199047Y-109672380D01*
X70818095Y-109672380D02*
X70722857Y-109624761D01*
X70675238Y-109577142D01*
X70627619Y-109481904D01*
X70627619Y-109196190D01*
X70675238Y-109100952D01*
X70722857Y-109053333D01*
X70818095Y-109005714D01*
X70960952Y-109005714D01*
X71056190Y-109053333D01*
X71103809Y-109100952D01*
X71151428Y-109196190D01*
X71151428Y-109481904D01*
X71103809Y-109577142D01*
X71056190Y-109624761D01*
X70960952Y-109672380D01*
X70818095Y-109672380D01*
X71484761Y-109005714D02*
X71675238Y-109672380D01*
X71865714Y-109196190D01*
X72056190Y-109672380D01*
X72246666Y-109005714D01*
X73056190Y-109672380D02*
X73056190Y-109148571D01*
X73008571Y-109053333D01*
X72913333Y-109005714D01*
X72722857Y-109005714D01*
X72627619Y-109053333D01*
X73056190Y-109624761D02*
X72960952Y-109672380D01*
X72722857Y-109672380D01*
X72627619Y-109624761D01*
X72580000Y-109529523D01*
X72580000Y-109434285D01*
X72627619Y-109339047D01*
X72722857Y-109291428D01*
X72960952Y-109291428D01*
X73056190Y-109243809D01*
X73437142Y-109005714D02*
X73675238Y-109672380D01*
X73913333Y-109005714D02*
X73675238Y-109672380D01*
X73580000Y-109910476D01*
X73532380Y-109958095D01*
X73437142Y-110005714D01*
X74246666Y-109624761D02*
X74341904Y-109672380D01*
X74532380Y-109672380D01*
X74627619Y-109624761D01*
X74675238Y-109529523D01*
X74675238Y-109481904D01*
X74627619Y-109386666D01*
X74532380Y-109339047D01*
X74389523Y-109339047D01*
X74294285Y-109291428D01*
X74246666Y-109196190D01*
X74246666Y-109148571D01*
X74294285Y-109053333D01*
X74389523Y-109005714D01*
X74532380Y-109005714D01*
X74627619Y-109053333D01*
X130442476Y7416380D02*
X130775809Y6940190D01*
X131013904Y7416380D02*
X131013904Y6416380D01*
X130632952Y6416380D01*
X130537714Y6463999D01*
X130490095Y6511619D01*
X130442476Y6606857D01*
X130442476Y6749714D01*
X130490095Y6844952D01*
X130537714Y6892571D01*
X130632952Y6940190D01*
X131013904Y6940190D01*
X128490095Y7035428D02*
X127728190Y7035428D01*
X125394857Y6892571D02*
X125252000Y6940190D01*
X125204380Y6987809D01*
X125156761Y7083047D01*
X125156761Y7225904D01*
X125204380Y7321142D01*
X125252000Y7368761D01*
X125347238Y7416380D01*
X125728190Y7416380D01*
X125728190Y6416380D01*
X125394857Y6416380D01*
X125299619Y6464000D01*
X125252000Y6511619D01*
X125204380Y6606857D01*
X125204380Y6702095D01*
X125252000Y6797333D01*
X125299619Y6844952D01*
X125394857Y6892571D01*
X125728190Y6892571D01*
X122680571Y6464000D02*
X122775809Y6416380D01*
X122918666Y6416380D01*
X123061523Y6464000D01*
X123156761Y6559238D01*
X123204380Y6654476D01*
X123252000Y6844952D01*
X123252000Y6987809D01*
X123204380Y7178285D01*
X123156761Y7273523D01*
X123061523Y7368761D01*
X122918666Y7416380D01*
X122823428Y7416380D01*
X122680571Y7368761D01*
X122632952Y7321142D01*
X122632952Y6987809D01*
X122823428Y6987809D01*
X121585333Y6416380D02*
X121013904Y6416380D01*
X121299619Y7416380D02*
X121299619Y6416380D01*
X120775809Y6416380D02*
X120109142Y7416380D01*
X120109142Y6416380D02*
X120775809Y7416380D01*
X118394857Y7416380D02*
X118728190Y6940190D01*
X118966285Y7416380D02*
X118966285Y6416380D01*
X118585333Y6416380D01*
X118490095Y6464000D01*
X118442476Y6511619D01*
X118394857Y6606857D01*
X118394857Y6749714D01*
X118442476Y6844952D01*
X118490095Y6892571D01*
X118585333Y6940190D01*
X118966285Y6940190D01*
X118061523Y6416380D02*
X117394857Y7416380D01*
X117394857Y6416380D02*
X118061523Y7416380D01*
X116252000Y7416380D02*
X116252000Y6416380D01*
X115680571Y7416380D02*
X116109142Y6844952D01*
X115680571Y6416380D02*
X116252000Y6987809D01*
X115252000Y7035428D02*
X114490095Y7035428D01*
X114871047Y7416380D02*
X114871047Y6654476D01*
X99963428Y-40668190D02*
X99963428Y-39906285D01*
X100344380Y-40287238D02*
X99582476Y-40287238D01*
X99963428Y-37906285D02*
X99963428Y-37144380D01*
X99344380Y-35239619D02*
X100344380Y-34572952D01*
X99344380Y-34572952D02*
X100344380Y-35239619D01*
X99344380Y-32811047D02*
X99344380Y-32239619D01*
X100344380Y-32525333D02*
X99344380Y-32525333D01*
X99344380Y-32001523D02*
X100344380Y-31334857D01*
X99344380Y-31334857D02*
X100344380Y-32001523D01*
X100344380Y-29620571D02*
X99868190Y-29953904D01*
X100344380Y-30192000D02*
X99344380Y-30192000D01*
X99344380Y-29811047D01*
X99392000Y-29715809D01*
X99439619Y-29668190D01*
X99534857Y-29620571D01*
X99677714Y-29620571D01*
X99772952Y-29668190D01*
X99820571Y-29715809D01*
X99868190Y-29811047D01*
X99868190Y-30192000D01*
X99344380Y-29287238D02*
X100344380Y-28620571D01*
X99344380Y-28620571D02*
X100344380Y-29287238D01*
D11*
X111506285Y-69032380D02*
X111030095Y-69032380D01*
X111030095Y-68032380D01*
X111839619Y-69032380D02*
X111839619Y-68032380D01*
X112315809Y-69032380D02*
X112315809Y-68032380D01*
X112553904Y-68032380D01*
X112696761Y-68080000D01*
X112792000Y-68175238D01*
X112839619Y-68270476D01*
X112887238Y-68460952D01*
X112887238Y-68603809D01*
X112839619Y-68794285D01*
X112792000Y-68889523D01*
X112696761Y-68984761D01*
X112553904Y-69032380D01*
X112315809Y-69032380D01*
X114411047Y-68508571D02*
X114553904Y-68556190D01*
X114601523Y-68603809D01*
X114649142Y-68699047D01*
X114649142Y-68841904D01*
X114601523Y-68937142D01*
X114553904Y-68984761D01*
X114458666Y-69032380D01*
X114077714Y-69032380D01*
X114077714Y-68032380D01*
X114411047Y-68032380D01*
X114506285Y-68080000D01*
X114553904Y-68127619D01*
X114601523Y-68222857D01*
X114601523Y-68318095D01*
X114553904Y-68413333D01*
X114506285Y-68460952D01*
X114411047Y-68508571D01*
X114077714Y-68508571D01*
X115030095Y-68127619D02*
X115077714Y-68080000D01*
X115172952Y-68032380D01*
X115411047Y-68032380D01*
X115506285Y-68080000D01*
X115553904Y-68127619D01*
X115601523Y-68222857D01*
X115601523Y-68318095D01*
X115553904Y-68460952D01*
X114982476Y-69032380D01*
X115601523Y-69032380D01*
X116363428Y-68508571D02*
X116506285Y-68556190D01*
X116553904Y-68603809D01*
X116601523Y-68699047D01*
X116601523Y-68841904D01*
X116553904Y-68937142D01*
X116506285Y-68984761D01*
X116411047Y-69032380D01*
X116030095Y-69032380D01*
X116030095Y-68032380D01*
X116363428Y-68032380D01*
X116458666Y-68080000D01*
X116506285Y-68127619D01*
X116553904Y-68222857D01*
X116553904Y-68318095D01*
X116506285Y-68413333D01*
X116458666Y-68460952D01*
X116363428Y-68508571D01*
X116030095Y-68508571D01*
D12*
X16541428Y-105330714D02*
X18041428Y-105330714D01*
X18041428Y-105687857D01*
X17970000Y-105902142D01*
X17827142Y-106045000D01*
X17684285Y-106116428D01*
X17398571Y-106187857D01*
X17184285Y-106187857D01*
X16898571Y-106116428D01*
X16755714Y-106045000D01*
X16612857Y-105902142D01*
X16541428Y-105687857D01*
X16541428Y-105330714D01*
X16541428Y-107045000D02*
X16612857Y-106902142D01*
X16684285Y-106830714D01*
X16827142Y-106759285D01*
X17255714Y-106759285D01*
X17398571Y-106830714D01*
X17470000Y-106902142D01*
X17541428Y-107045000D01*
X17541428Y-107259285D01*
X17470000Y-107402142D01*
X17398571Y-107473571D01*
X17255714Y-107545000D01*
X16827142Y-107545000D01*
X16684285Y-107473571D01*
X16612857Y-107402142D01*
X16541428Y-107259285D01*
X16541428Y-107045000D01*
X16541428Y-108402142D02*
X16612857Y-108259285D01*
X16684285Y-108187857D01*
X16827142Y-108116428D01*
X17255714Y-108116428D01*
X17398571Y-108187857D01*
X17470000Y-108259285D01*
X17541428Y-108402142D01*
X17541428Y-108616428D01*
X17470000Y-108759285D01*
X17398571Y-108830714D01*
X17255714Y-108902142D01*
X16827142Y-108902142D01*
X16684285Y-108830714D01*
X16612857Y-108759285D01*
X16541428Y-108616428D01*
X16541428Y-108402142D01*
X16541428Y-109545000D02*
X17541428Y-109545000D01*
X17255714Y-109545000D02*
X17398571Y-109616428D01*
X17470000Y-109687857D01*
X17541428Y-109830714D01*
X17541428Y-109973571D01*
D11*
X16081904Y-97765238D02*
X16729523Y-97765238D01*
X16805714Y-97727142D01*
X16843809Y-97689047D01*
X16881904Y-97612857D01*
X16881904Y-97460476D01*
X16843809Y-97384285D01*
X16805714Y-97346190D01*
X16729523Y-97308095D01*
X16081904Y-97308095D01*
X16843809Y-96965238D02*
X16881904Y-96850952D01*
X16881904Y-96660476D01*
X16843809Y-96584285D01*
X16805714Y-96546190D01*
X16729523Y-96508095D01*
X16653333Y-96508095D01*
X16577142Y-96546190D01*
X16539047Y-96584285D01*
X16500952Y-96660476D01*
X16462857Y-96812857D01*
X16424761Y-96889047D01*
X16386666Y-96927142D01*
X16310476Y-96965238D01*
X16234285Y-96965238D01*
X16158095Y-96927142D01*
X16120000Y-96889047D01*
X16081904Y-96812857D01*
X16081904Y-96622380D01*
X16120000Y-96508095D01*
X16462857Y-95898571D02*
X16500952Y-95784285D01*
X16539047Y-95746190D01*
X16615238Y-95708095D01*
X16729523Y-95708095D01*
X16805714Y-95746190D01*
X16843809Y-95784285D01*
X16881904Y-95860476D01*
X16881904Y-96165238D01*
X16081904Y-96165238D01*
X16081904Y-95898571D01*
X16120000Y-95822380D01*
X16158095Y-95784285D01*
X16234285Y-95746190D01*
X16310476Y-95746190D01*
X16386666Y-95784285D01*
X16424761Y-95822380D01*
X16462857Y-95898571D01*
X16462857Y-96165238D01*
X16462857Y-94489047D02*
X16500952Y-94374761D01*
X16539047Y-94336666D01*
X16615238Y-94298571D01*
X16729523Y-94298571D01*
X16805714Y-94336666D01*
X16843809Y-94374761D01*
X16881904Y-94450952D01*
X16881904Y-94755714D01*
X16081904Y-94755714D01*
X16081904Y-94489047D01*
X16120000Y-94412857D01*
X16158095Y-94374761D01*
X16234285Y-94336666D01*
X16310476Y-94336666D01*
X16386666Y-94374761D01*
X16424761Y-94412857D01*
X16462857Y-94489047D01*
X16462857Y-94755714D01*
X16881904Y-93612857D02*
X16462857Y-93612857D01*
X16386666Y-93650952D01*
X16348571Y-93727142D01*
X16348571Y-93879523D01*
X16386666Y-93955714D01*
X16843809Y-93612857D02*
X16881904Y-93689047D01*
X16881904Y-93879523D01*
X16843809Y-93955714D01*
X16767619Y-93993809D01*
X16691428Y-93993809D01*
X16615238Y-93955714D01*
X16577142Y-93879523D01*
X16577142Y-93689047D01*
X16539047Y-93612857D01*
X16881904Y-93231904D02*
X16348571Y-93231904D01*
X16500952Y-93231904D02*
X16424761Y-93193809D01*
X16386666Y-93155714D01*
X16348571Y-93079523D01*
X16348571Y-93003333D01*
X16843809Y-92393809D02*
X16881904Y-92470000D01*
X16881904Y-92622380D01*
X16843809Y-92698571D01*
X16805714Y-92736666D01*
X16729523Y-92774761D01*
X16500952Y-92774761D01*
X16424761Y-92736666D01*
X16386666Y-92698571D01*
X16348571Y-92622380D01*
X16348571Y-92470000D01*
X16386666Y-92393809D01*
X16881904Y-91936666D02*
X16843809Y-92012857D01*
X16805714Y-92050952D01*
X16729523Y-92089047D01*
X16500952Y-92089047D01*
X16424761Y-92050952D01*
X16386666Y-92012857D01*
X16348571Y-91936666D01*
X16348571Y-91822380D01*
X16386666Y-91746190D01*
X16424761Y-91708095D01*
X16500952Y-91670000D01*
X16729523Y-91670000D01*
X16805714Y-91708095D01*
X16843809Y-91746190D01*
X16881904Y-91822380D01*
X16881904Y-91936666D01*
X16881904Y-90984285D02*
X16081904Y-90984285D01*
X16843809Y-90984285D02*
X16881904Y-91060476D01*
X16881904Y-91212857D01*
X16843809Y-91289047D01*
X16805714Y-91327142D01*
X16729523Y-91365238D01*
X16500952Y-91365238D01*
X16424761Y-91327142D01*
X16386666Y-91289047D01*
X16348571Y-91212857D01*
X16348571Y-91060476D01*
X16386666Y-90984285D01*
X16843809Y-90298571D02*
X16881904Y-90374761D01*
X16881904Y-90527142D01*
X16843809Y-90603333D01*
X16767619Y-90641428D01*
X16462857Y-90641428D01*
X16386666Y-90603333D01*
X16348571Y-90527142D01*
X16348571Y-90374761D01*
X16386666Y-90298571D01*
X16462857Y-90260476D01*
X16539047Y-90260476D01*
X16615238Y-90641428D01*
X16881904Y-88850952D02*
X16500952Y-89117619D01*
X16881904Y-89308095D02*
X16081904Y-89308095D01*
X16081904Y-89003333D01*
X16120000Y-88927142D01*
X16158095Y-88889047D01*
X16234285Y-88850952D01*
X16348571Y-88850952D01*
X16424761Y-88889047D01*
X16462857Y-88927142D01*
X16500952Y-89003333D01*
X16500952Y-89308095D01*
X16843809Y-88203333D02*
X16881904Y-88279523D01*
X16881904Y-88431904D01*
X16843809Y-88508095D01*
X16767619Y-88546190D01*
X16462857Y-88546190D01*
X16386666Y-88508095D01*
X16348571Y-88431904D01*
X16348571Y-88279523D01*
X16386666Y-88203333D01*
X16462857Y-88165238D01*
X16539047Y-88165238D01*
X16615238Y-88546190D01*
X16881904Y-87479523D02*
X16462857Y-87479523D01*
X16386666Y-87517619D01*
X16348571Y-87593809D01*
X16348571Y-87746190D01*
X16386666Y-87822380D01*
X16843809Y-87479523D02*
X16881904Y-87555714D01*
X16881904Y-87746190D01*
X16843809Y-87822380D01*
X16767619Y-87860476D01*
X16691428Y-87860476D01*
X16615238Y-87822380D01*
X16577142Y-87746190D01*
X16577142Y-87555714D01*
X16539047Y-87479523D01*
X16881904Y-86755714D02*
X16081904Y-86755714D01*
X16843809Y-86755714D02*
X16881904Y-86831904D01*
X16881904Y-86984285D01*
X16843809Y-87060476D01*
X16805714Y-87098571D01*
X16729523Y-87136666D01*
X16500952Y-87136666D01*
X16424761Y-87098571D01*
X16386666Y-87060476D01*
X16348571Y-86984285D01*
X16348571Y-86831904D01*
X16386666Y-86755714D01*
X16843809Y-86070000D02*
X16881904Y-86146190D01*
X16881904Y-86298571D01*
X16843809Y-86374761D01*
X16767619Y-86412857D01*
X16462857Y-86412857D01*
X16386666Y-86374761D01*
X16348571Y-86298571D01*
X16348571Y-86146190D01*
X16386666Y-86070000D01*
X16462857Y-86031904D01*
X16539047Y-86031904D01*
X16615238Y-86412857D01*
X16881904Y-85689047D02*
X16348571Y-85689047D01*
X16500952Y-85689047D02*
X16424761Y-85650952D01*
X16386666Y-85612857D01*
X16348571Y-85536666D01*
X16348571Y-85460476D01*
X17481904Y-99403333D02*
X17481904Y-99784285D01*
X17862857Y-99822380D01*
X17824761Y-99784285D01*
X17786666Y-99708095D01*
X17786666Y-99517619D01*
X17824761Y-99441428D01*
X17862857Y-99403333D01*
X17939047Y-99365238D01*
X18129523Y-99365238D01*
X18205714Y-99403333D01*
X18243809Y-99441428D01*
X18281904Y-99517619D01*
X18281904Y-99708095D01*
X18243809Y-99784285D01*
X18205714Y-99822380D01*
X17481904Y-99136666D02*
X18281904Y-98870000D01*
X17481904Y-98603333D01*
X18281904Y-95289047D02*
X17481904Y-95289047D01*
X17481904Y-95098571D01*
X17520000Y-94984285D01*
X17596190Y-94908095D01*
X17672380Y-94870000D01*
X17824761Y-94831904D01*
X17939047Y-94831904D01*
X18091428Y-94870000D01*
X18167619Y-94908095D01*
X18243809Y-94984285D01*
X18281904Y-95098571D01*
X18281904Y-95289047D01*
X17977142Y-94489047D02*
X17977142Y-93879523D01*
X18281904Y-90450952D02*
X17481904Y-90450952D01*
X17481904Y-90260476D01*
X17520000Y-90146190D01*
X17596190Y-90070000D01*
X17672380Y-90031904D01*
X17824761Y-89993809D01*
X17939047Y-89993809D01*
X18091428Y-90031904D01*
X18167619Y-90070000D01*
X18243809Y-90146190D01*
X18281904Y-90260476D01*
X18281904Y-90450952D01*
X17977142Y-89650952D02*
X17977142Y-89041428D01*
X18281904Y-89346190D02*
X17672380Y-89346190D01*
X17520000Y-85193809D02*
X17481904Y-85270000D01*
X17481904Y-85384285D01*
X17520000Y-85498571D01*
X17596190Y-85574761D01*
X17672380Y-85612857D01*
X17824761Y-85650952D01*
X17939047Y-85650952D01*
X18091428Y-85612857D01*
X18167619Y-85574761D01*
X18243809Y-85498571D01*
X18281904Y-85384285D01*
X18281904Y-85308095D01*
X18243809Y-85193809D01*
X18205714Y-85155714D01*
X17939047Y-85155714D01*
X17939047Y-85308095D01*
X18281904Y-84812857D02*
X17481904Y-84812857D01*
X18281904Y-84355714D01*
X17481904Y-84355714D01*
X18281904Y-83974761D02*
X17481904Y-83974761D01*
X17481904Y-83784285D01*
X17520000Y-83670000D01*
X17596190Y-83593809D01*
X17672380Y-83555714D01*
X17824761Y-83517619D01*
X17939047Y-83517619D01*
X18091428Y-83555714D01*
X18167619Y-83593809D01*
X18243809Y-83670000D01*
X18281904Y-83784285D01*
X18281904Y-83974761D01*
X87304523Y-73528095D02*
X87304523Y-74328095D01*
X87304523Y-73947142D02*
X86847380Y-73947142D01*
X86847380Y-73528095D02*
X86847380Y-74328095D01*
X86466428Y-73947142D02*
X86199761Y-73947142D01*
X86085476Y-73528095D02*
X86466428Y-73528095D01*
X86466428Y-74328095D01*
X86085476Y-74328095D01*
X85780714Y-73756666D02*
X85399761Y-73756666D01*
X85856904Y-73528095D02*
X85590238Y-74328095D01*
X85323571Y-73528095D01*
X85171190Y-74328095D02*
X84714047Y-74328095D01*
X84942619Y-73528095D02*
X84942619Y-74328095D01*
X84447380Y-73947142D02*
X84180714Y-73947142D01*
X84066428Y-73528095D02*
X84447380Y-73528095D01*
X84447380Y-74328095D01*
X84066428Y-74328095D01*
X83266428Y-73528095D02*
X83533095Y-73909047D01*
X83723571Y-73528095D02*
X83723571Y-74328095D01*
X83418809Y-74328095D01*
X83342619Y-74290000D01*
X83304523Y-74251904D01*
X83266428Y-74175714D01*
X83266428Y-74061428D01*
X83304523Y-73985238D01*
X83342619Y-73947142D01*
X83418809Y-73909047D01*
X83723571Y-73909047D01*
X82352142Y-74251904D02*
X82314047Y-74290000D01*
X82237857Y-74328095D01*
X82047380Y-74328095D01*
X81971190Y-74290000D01*
X81933095Y-74251904D01*
X81895000Y-74175714D01*
X81895000Y-74099523D01*
X81933095Y-73985238D01*
X82390238Y-73528095D01*
X81895000Y-73528095D01*
X81209285Y-74061428D02*
X81209285Y-73528095D01*
X81399761Y-74366190D02*
X81590238Y-73794761D01*
X81095000Y-73794761D01*
X80904523Y-74328095D02*
X80637857Y-73528095D01*
X80371190Y-74328095D01*
X100108095Y-85472619D02*
X100908095Y-85472619D01*
X100527142Y-85472619D02*
X100527142Y-85929761D01*
X100108095Y-85929761D02*
X100908095Y-85929761D01*
X100146190Y-86615476D02*
X100108095Y-86539285D01*
X100108095Y-86386904D01*
X100146190Y-86310714D01*
X100222380Y-86272619D01*
X100527142Y-86272619D01*
X100603333Y-86310714D01*
X100641428Y-86386904D01*
X100641428Y-86539285D01*
X100603333Y-86615476D01*
X100527142Y-86653571D01*
X100450952Y-86653571D01*
X100374761Y-86272619D01*
X100108095Y-87339285D02*
X100527142Y-87339285D01*
X100603333Y-87301190D01*
X100641428Y-87225000D01*
X100641428Y-87072619D01*
X100603333Y-86996428D01*
X100146190Y-87339285D02*
X100108095Y-87263095D01*
X100108095Y-87072619D01*
X100146190Y-86996428D01*
X100222380Y-86958333D01*
X100298571Y-86958333D01*
X100374761Y-86996428D01*
X100412857Y-87072619D01*
X100412857Y-87263095D01*
X100450952Y-87339285D01*
X100641428Y-87605952D02*
X100641428Y-87910714D01*
X100908095Y-87720238D02*
X100222380Y-87720238D01*
X100146190Y-87758333D01*
X100108095Y-87834523D01*
X100108095Y-87910714D01*
X100146190Y-88482142D02*
X100108095Y-88405952D01*
X100108095Y-88253571D01*
X100146190Y-88177380D01*
X100222380Y-88139285D01*
X100527142Y-88139285D01*
X100603333Y-88177380D01*
X100641428Y-88253571D01*
X100641428Y-88405952D01*
X100603333Y-88482142D01*
X100527142Y-88520238D01*
X100450952Y-88520238D01*
X100374761Y-88139285D01*
X100108095Y-88863095D02*
X100641428Y-88863095D01*
X100489047Y-88863095D02*
X100565238Y-88901190D01*
X100603333Y-88939285D01*
X100641428Y-89015476D01*
X100641428Y-89091666D01*
X99012857Y-84786904D02*
X99012857Y-85396428D01*
X99546190Y-87567857D02*
X98517619Y-86882142D01*
X99012857Y-89053571D02*
X99012857Y-89663095D01*
X98708095Y-89358333D02*
X99317619Y-89358333D01*
X100108095Y-94127857D02*
X100908095Y-94127857D01*
X100527142Y-94127857D02*
X100527142Y-94585000D01*
X100108095Y-94585000D02*
X100908095Y-94585000D01*
X100146190Y-95270714D02*
X100108095Y-95194523D01*
X100108095Y-95042142D01*
X100146190Y-94965952D01*
X100222380Y-94927857D01*
X100527142Y-94927857D01*
X100603333Y-94965952D01*
X100641428Y-95042142D01*
X100641428Y-95194523D01*
X100603333Y-95270714D01*
X100527142Y-95308809D01*
X100450952Y-95308809D01*
X100374761Y-94927857D01*
X100108095Y-95994523D02*
X100527142Y-95994523D01*
X100603333Y-95956428D01*
X100641428Y-95880238D01*
X100641428Y-95727857D01*
X100603333Y-95651666D01*
X100146190Y-95994523D02*
X100108095Y-95918333D01*
X100108095Y-95727857D01*
X100146190Y-95651666D01*
X100222380Y-95613571D01*
X100298571Y-95613571D01*
X100374761Y-95651666D01*
X100412857Y-95727857D01*
X100412857Y-95918333D01*
X100450952Y-95994523D01*
X100641428Y-96261190D02*
X100641428Y-96565952D01*
X100908095Y-96375476D02*
X100222380Y-96375476D01*
X100146190Y-96413571D01*
X100108095Y-96489761D01*
X100108095Y-96565952D01*
X100146190Y-97137380D02*
X100108095Y-97061190D01*
X100108095Y-96908809D01*
X100146190Y-96832619D01*
X100222380Y-96794523D01*
X100527142Y-96794523D01*
X100603333Y-96832619D01*
X100641428Y-96908809D01*
X100641428Y-97061190D01*
X100603333Y-97137380D01*
X100527142Y-97175476D01*
X100450952Y-97175476D01*
X100374761Y-96794523D01*
X100108095Y-97518333D02*
X100641428Y-97518333D01*
X100489047Y-97518333D02*
X100565238Y-97556428D01*
X100603333Y-97594523D01*
X100641428Y-97670714D01*
X100641428Y-97746904D01*
X100108095Y-98623095D02*
X100908095Y-98623095D01*
X100908095Y-98927857D01*
X100870000Y-99004047D01*
X100831904Y-99042142D01*
X100755714Y-99080238D01*
X100641428Y-99080238D01*
X100565238Y-99042142D01*
X100527142Y-99004047D01*
X100489047Y-98927857D01*
X100489047Y-98623095D01*
X100146190Y-99385000D02*
X100108095Y-99499285D01*
X100108095Y-99689761D01*
X100146190Y-99765952D01*
X100184285Y-99804047D01*
X100260476Y-99842142D01*
X100336666Y-99842142D01*
X100412857Y-99804047D01*
X100450952Y-99765952D01*
X100489047Y-99689761D01*
X100527142Y-99537380D01*
X100565238Y-99461190D01*
X100603333Y-99423095D01*
X100679523Y-99385000D01*
X100755714Y-99385000D01*
X100831904Y-99423095D01*
X100870000Y-99461190D01*
X100908095Y-99537380D01*
X100908095Y-99727857D01*
X100870000Y-99842142D01*
X100908095Y-100185000D02*
X100260476Y-100185000D01*
X100184285Y-100223095D01*
X100146190Y-100261190D01*
X100108095Y-100337380D01*
X100108095Y-100489761D01*
X100146190Y-100565952D01*
X100184285Y-100604047D01*
X100260476Y-100642142D01*
X100908095Y-100642142D01*
X99012857Y-94946904D02*
X99012857Y-95556428D01*
X99546190Y-97727857D02*
X98517619Y-97042142D01*
X99012857Y-99213571D02*
X99012857Y-99823095D01*
X98708095Y-99518333D02*
X99317619Y-99518333D01*
D10*
X73045000Y-78700000D02*
X72997380Y-78795238D01*
X72997380Y-78938095D01*
X73045000Y-79080952D01*
X73140238Y-79176190D01*
X73235476Y-79223809D01*
X73425952Y-79271428D01*
X73568809Y-79271428D01*
X73759285Y-79223809D01*
X73854523Y-79176190D01*
X73949761Y-79080952D01*
X73997380Y-78938095D01*
X73997380Y-78842857D01*
X73949761Y-78700000D01*
X73902142Y-78652380D01*
X73568809Y-78652380D01*
X73568809Y-78842857D01*
X73997380Y-78223809D02*
X72997380Y-78223809D01*
X72997380Y-77842857D01*
X73045000Y-77747619D01*
X73092619Y-77700000D01*
X73187857Y-77652380D01*
X73330714Y-77652380D01*
X73425952Y-77700000D01*
X73473571Y-77747619D01*
X73521190Y-77842857D01*
X73521190Y-78223809D01*
X73997380Y-77223809D02*
X72997380Y-77223809D01*
X72997380Y-76557142D02*
X72997380Y-76366666D01*
X73045000Y-76271428D01*
X73140238Y-76176190D01*
X73330714Y-76128571D01*
X73664047Y-76128571D01*
X73854523Y-76176190D01*
X73949761Y-76271428D01*
X73997380Y-76366666D01*
X73997380Y-76557142D01*
X73949761Y-76652380D01*
X73854523Y-76747619D01*
X73664047Y-76795238D01*
X73330714Y-76795238D01*
X73140238Y-76747619D01*
X73045000Y-76652380D01*
X72997380Y-76557142D01*
X74647380Y-80509523D02*
X74647380Y-79890476D01*
X75028333Y-80223809D01*
X75028333Y-80080952D01*
X75075952Y-79985714D01*
X75123571Y-79938095D01*
X75218809Y-79890476D01*
X75456904Y-79890476D01*
X75552142Y-79938095D01*
X75599761Y-79985714D01*
X75647380Y-80080952D01*
X75647380Y-80366666D01*
X75599761Y-80461904D01*
X75552142Y-80509523D01*
X74742619Y-77985714D02*
X74695000Y-77938095D01*
X74647380Y-77842857D01*
X74647380Y-77604761D01*
X74695000Y-77509523D01*
X74742619Y-77461904D01*
X74837857Y-77414285D01*
X74933095Y-77414285D01*
X75075952Y-77461904D01*
X75647380Y-78033333D01*
X75647380Y-77414285D01*
X75647380Y-74938095D02*
X75647380Y-75509523D01*
X75647380Y-75223809D02*
X74647380Y-75223809D01*
X74790238Y-75319047D01*
X74885476Y-75414285D01*
X74933095Y-75509523D01*
D11*
X61507619Y-32758476D02*
X61507619Y-32948952D01*
X61460000Y-33044190D01*
X61364761Y-33139428D01*
X61174285Y-33187047D01*
X60840952Y-33187047D01*
X60650476Y-33139428D01*
X60555238Y-33044190D01*
X60507619Y-32948952D01*
X60507619Y-32758476D01*
X60555238Y-32663238D01*
X60650476Y-32568000D01*
X60840952Y-32520380D01*
X61174285Y-32520380D01*
X61364761Y-32568000D01*
X61460000Y-32663238D01*
X61507619Y-32758476D01*
X60507619Y-34091809D02*
X60507619Y-33615619D01*
X61507619Y-33615619D01*
X61031428Y-34425142D02*
X61031428Y-34758476D01*
X60507619Y-34901333D02*
X60507619Y-34425142D01*
X61507619Y-34425142D01*
X61507619Y-34901333D01*
X60507619Y-35329904D02*
X61507619Y-35329904D01*
X61507619Y-35568000D01*
X61460000Y-35710857D01*
X61364761Y-35806095D01*
X61269523Y-35853714D01*
X61079047Y-35901333D01*
X60936190Y-35901333D01*
X60745714Y-35853714D01*
X60650476Y-35806095D01*
X60555238Y-35710857D01*
X60507619Y-35568000D01*
X60507619Y-35329904D01*
X61031428Y-37425142D02*
X60983809Y-37568000D01*
X60936190Y-37615619D01*
X60840952Y-37663238D01*
X60698095Y-37663238D01*
X60602857Y-37615619D01*
X60555238Y-37568000D01*
X60507619Y-37472761D01*
X60507619Y-37091809D01*
X61507619Y-37091809D01*
X61507619Y-37425142D01*
X61460000Y-37520380D01*
X61412380Y-37568000D01*
X61317142Y-37615619D01*
X61221904Y-37615619D01*
X61126666Y-37568000D01*
X61079047Y-37520380D01*
X61031428Y-37425142D01*
X61031428Y-37091809D01*
X61412380Y-38044190D02*
X61460000Y-38091809D01*
X61507619Y-38187047D01*
X61507619Y-38425142D01*
X61460000Y-38520380D01*
X61412380Y-38568000D01*
X61317142Y-38615619D01*
X61221904Y-38615619D01*
X61079047Y-38568000D01*
X60507619Y-37996571D01*
X60507619Y-38615619D01*
X61031428Y-39377523D02*
X60983809Y-39520380D01*
X60936190Y-39568000D01*
X60840952Y-39615619D01*
X60698095Y-39615619D01*
X60602857Y-39568000D01*
X60555238Y-39520380D01*
X60507619Y-39425142D01*
X60507619Y-39044190D01*
X61507619Y-39044190D01*
X61507619Y-39377523D01*
X61460000Y-39472761D01*
X61412380Y-39520380D01*
X61317142Y-39568000D01*
X61221904Y-39568000D01*
X61126666Y-39520380D01*
X61079047Y-39472761D01*
X61031428Y-39377523D01*
X61031428Y-39044190D01*
D10*
X29480000Y-39315000D02*
X29384761Y-39267380D01*
X29241904Y-39267380D01*
X29099047Y-39315000D01*
X29003809Y-39410238D01*
X28956190Y-39505476D01*
X28908571Y-39695952D01*
X28908571Y-39838809D01*
X28956190Y-40029285D01*
X29003809Y-40124523D01*
X29099047Y-40219761D01*
X29241904Y-40267380D01*
X29337142Y-40267380D01*
X29480000Y-40219761D01*
X29527619Y-40172142D01*
X29527619Y-39838809D01*
X29337142Y-39838809D01*
X29956190Y-40267380D02*
X29956190Y-39267380D01*
X30337142Y-39267380D01*
X30432380Y-39315000D01*
X30480000Y-39362619D01*
X30527619Y-39457857D01*
X30527619Y-39600714D01*
X30480000Y-39695952D01*
X30432380Y-39743571D01*
X30337142Y-39791190D01*
X29956190Y-39791190D01*
X30956190Y-40267380D02*
X30956190Y-39267380D01*
X31622857Y-39267380D02*
X31813333Y-39267380D01*
X31908571Y-39315000D01*
X32003809Y-39410238D01*
X32051428Y-39600714D01*
X32051428Y-39934047D01*
X32003809Y-40124523D01*
X31908571Y-40219761D01*
X31813333Y-40267380D01*
X31622857Y-40267380D01*
X31527619Y-40219761D01*
X31432380Y-40124523D01*
X31384761Y-39934047D01*
X31384761Y-39600714D01*
X31432380Y-39410238D01*
X31527619Y-39315000D01*
X31622857Y-39267380D01*
X28289523Y-41917380D02*
X27718095Y-41917380D01*
X28003809Y-41917380D02*
X28003809Y-40917380D01*
X27908571Y-41060238D01*
X27813333Y-41155476D01*
X27718095Y-41203095D01*
X30194285Y-41012619D02*
X30241904Y-40965000D01*
X30337142Y-40917380D01*
X30575238Y-40917380D01*
X30670476Y-40965000D01*
X30718095Y-41012619D01*
X30765714Y-41107857D01*
X30765714Y-41203095D01*
X30718095Y-41345952D01*
X30146666Y-41917380D01*
X30765714Y-41917380D01*
X32622857Y-40917380D02*
X33241904Y-40917380D01*
X32908571Y-41298333D01*
X33051428Y-41298333D01*
X33146666Y-41345952D01*
X33194285Y-41393571D01*
X33241904Y-41488809D01*
X33241904Y-41726904D01*
X33194285Y-41822142D01*
X33146666Y-41869761D01*
X33051428Y-41917380D01*
X32765714Y-41917380D01*
X32670476Y-41869761D01*
X32622857Y-41822142D01*
X12747619Y2819047D02*
X12747619Y3295238D01*
X12271428Y3342857D01*
X12319047Y3295238D01*
X12366666Y3200000D01*
X12366666Y2961904D01*
X12319047Y2866666D01*
X12271428Y2819047D01*
X12176190Y2771428D01*
X11938095Y2771428D01*
X11842857Y2819047D01*
X11795238Y2866666D01*
X11747619Y2961904D01*
X11747619Y3200000D01*
X11795238Y3295238D01*
X11842857Y3342857D01*
X11747619Y1819047D02*
X11747619Y2390476D01*
X11747619Y2104761D02*
X12747619Y2104761D01*
X12604761Y2200000D01*
X12509523Y2295238D01*
X12461904Y2390476D01*
X11795238Y1342857D02*
X11747619Y1342857D01*
X11652380Y1390476D01*
X11604761Y1438095D01*
X12747619Y485714D02*
X12747619Y676190D01*
X12700000Y771428D01*
X12652380Y819047D01*
X12509523Y914285D01*
X12319047Y961904D01*
X11938095Y961904D01*
X11842857Y914285D01*
X11795238Y866666D01*
X11747619Y771428D01*
X11747619Y580952D01*
X11795238Y485714D01*
X11842857Y438095D01*
X11938095Y390476D01*
X12176190Y390476D01*
X12271428Y438095D01*
X12319047Y485714D01*
X12366666Y580952D01*
X12366666Y771428D01*
X12319047Y866666D01*
X12271428Y914285D01*
X12176190Y961904D01*
X12747619Y-228571D02*
X12747619Y-323809D01*
X12700000Y-419047D01*
X12652380Y-466666D01*
X12557142Y-514285D01*
X12366666Y-561904D01*
X12128571Y-561904D01*
X11938095Y-514285D01*
X11842857Y-466666D01*
X11795238Y-419047D01*
X11747619Y-323809D01*
X11747619Y-228571D01*
X11795238Y-133333D01*
X11842857Y-85714D01*
X11938095Y-38095D01*
X12128571Y9523D01*
X12366666Y9523D01*
X12557142Y-38095D01*
X12652380Y-85714D01*
X12700000Y-133333D01*
X12747619Y-228571D01*
X12747619Y-1180952D02*
X12747619Y-1276190D01*
X12700000Y-1371428D01*
X12652380Y-1419047D01*
X12557142Y-1466666D01*
X12366666Y-1514285D01*
X12128571Y-1514285D01*
X11938095Y-1466666D01*
X11842857Y-1419047D01*
X11795238Y-1371428D01*
X11747619Y-1276190D01*
X11747619Y-1180952D01*
X11795238Y-1085714D01*
X11842857Y-1038095D01*
X11938095Y-990476D01*
X12128571Y-942857D01*
X12366666Y-942857D01*
X12557142Y-990476D01*
X12652380Y-1038095D01*
X12700000Y-1085714D01*
X12747619Y-1180952D01*
X11747619Y-2704761D02*
X12414285Y-2704761D01*
X12319047Y-2704761D02*
X12366666Y-2752380D01*
X12414285Y-2847619D01*
X12414285Y-2990476D01*
X12366666Y-3085714D01*
X12271428Y-3133333D01*
X11747619Y-3133333D01*
X12271428Y-3133333D02*
X12366666Y-3180952D01*
X12414285Y-3276190D01*
X12414285Y-3419047D01*
X12366666Y-3514285D01*
X12271428Y-3561904D01*
X11747619Y-3561904D01*
X11747619Y-4038095D02*
X12414285Y-4038095D01*
X12319047Y-4038095D02*
X12366666Y-4085714D01*
X12414285Y-4180952D01*
X12414285Y-4323809D01*
X12366666Y-4419047D01*
X12271428Y-4466666D01*
X11747619Y-4466666D01*
X12271428Y-4466666D02*
X12366666Y-4514285D01*
X12414285Y-4609523D01*
X12414285Y-4752380D01*
X12366666Y-4847619D01*
X12271428Y-4895238D01*
X11747619Y-4895238D01*
X13500000Y25000000D02*
X13500000Y-26600000D01*
X16000000Y25000000D02*
X12913579Y25000000D01*
X16000000Y-26600000D02*
X12913579Y-26600000D01*
X13500000Y-26600000D02*
X12913579Y-25473496D01*
X13500000Y-26600000D02*
X14086421Y-25473496D01*
X13500000Y25000000D02*
X12913579Y23873496D01*
X13500000Y25000000D02*
X14086421Y23873496D01*
X66690476Y19571428D02*
X67023809Y19571428D01*
X67166666Y19047619D02*
X66690476Y19047619D01*
X66690476Y20047619D01*
X67166666Y20047619D01*
X67500000Y19047619D02*
X68023809Y19714285D01*
X67500000Y19714285D02*
X68023809Y19047619D01*
X68261904Y19714285D02*
X68642857Y19714285D01*
X68404761Y20047619D02*
X68404761Y19190476D01*
X68452380Y19095238D01*
X68547619Y19047619D01*
X68642857Y19047619D01*
X68976190Y19047619D02*
X68976190Y19714285D01*
X68976190Y19523809D02*
X69023809Y19619047D01*
X69071428Y19666666D01*
X69166666Y19714285D01*
X69261904Y19714285D01*
X70023809Y19047619D02*
X70023809Y19571428D01*
X69976190Y19666666D01*
X69880952Y19714285D01*
X69690476Y19714285D01*
X69595238Y19666666D01*
X70023809Y19095238D02*
X69928571Y19047619D01*
X69690476Y19047619D01*
X69595238Y19095238D01*
X69547619Y19190476D01*
X69547619Y19285714D01*
X69595238Y19380952D01*
X69690476Y19428571D01*
X69928571Y19428571D01*
X70023809Y19476190D01*
X71738095Y19047619D02*
X71261904Y19047619D01*
X71261904Y20047619D01*
X72214285Y19047619D02*
X72119047Y19095238D01*
X72071428Y19142857D01*
X72023809Y19238095D01*
X72023809Y19523809D01*
X72071428Y19619047D01*
X72119047Y19666666D01*
X72214285Y19714285D01*
X72357142Y19714285D01*
X72452380Y19666666D01*
X72500000Y19619047D01*
X72547619Y19523809D01*
X72547619Y19238095D01*
X72500000Y19142857D01*
X72452380Y19095238D01*
X72357142Y19047619D01*
X72214285Y19047619D01*
X72976190Y19714285D02*
X72976190Y19047619D01*
X72976190Y19619047D02*
X73023809Y19666666D01*
X73119047Y19714285D01*
X73261904Y19714285D01*
X73357142Y19666666D01*
X73404761Y19571428D01*
X73404761Y19047619D01*
X74309523Y19714285D02*
X74309523Y18904761D01*
X74261904Y18809523D01*
X74214285Y18761904D01*
X74119047Y18714285D01*
X73976190Y18714285D01*
X73880952Y18761904D01*
X74309523Y19095238D02*
X74214285Y19047619D01*
X74023809Y19047619D01*
X73928571Y19095238D01*
X73880952Y19142857D01*
X73833333Y19238095D01*
X73833333Y19523809D01*
X73880952Y19619047D01*
X73928571Y19666666D01*
X74023809Y19714285D01*
X74214285Y19714285D01*
X74309523Y19666666D01*
D11*
X21393095Y-36265238D02*
X21393095Y-36722380D01*
X20593095Y-36493809D02*
X21393095Y-36493809D01*
X21393095Y-36912857D02*
X20593095Y-37446190D01*
X21393095Y-37446190D02*
X20593095Y-36912857D01*
X20593095Y-39427142D02*
X20974047Y-39160476D01*
X20593095Y-38970000D02*
X21393095Y-38970000D01*
X21393095Y-39274761D01*
X21355000Y-39350952D01*
X21316904Y-39389047D01*
X21240714Y-39427142D01*
X21126428Y-39427142D01*
X21050238Y-39389047D01*
X21012142Y-39350952D01*
X20974047Y-39274761D01*
X20974047Y-38970000D01*
X21393095Y-39693809D02*
X20593095Y-40227142D01*
X21393095Y-40227142D02*
X20593095Y-39693809D01*
X20897857Y-41750952D02*
X20897857Y-42360476D01*
X20593095Y-42055714D02*
X21202619Y-42055714D01*
X79860476Y22942857D02*
X80470000Y22942857D01*
X80165238Y22638095D02*
X80165238Y23247619D01*
X82070000Y22942857D02*
X82679523Y22942857D01*
D10*
X30105238Y-16727380D02*
X30105238Y-15727380D01*
X30438571Y-16441666D01*
X30771904Y-15727380D01*
X30771904Y-16727380D01*
X31200476Y-15822619D02*
X31248095Y-15775000D01*
X31343333Y-15727380D01*
X31581428Y-15727380D01*
X31676666Y-15775000D01*
X31724285Y-15822619D01*
X31771904Y-15917857D01*
X31771904Y-16013095D01*
X31724285Y-16155952D01*
X31152857Y-16727380D01*
X31771904Y-16727380D01*
X32200476Y-16632142D02*
X32248095Y-16679761D01*
X32200476Y-16727380D01*
X32152857Y-16679761D01*
X32200476Y-16632142D01*
X32200476Y-16727380D01*
X33152857Y-15727380D02*
X32676666Y-15727380D01*
X32629047Y-16203571D01*
X32676666Y-16155952D01*
X32771904Y-16108333D01*
X33010000Y-16108333D01*
X33105238Y-16155952D01*
X33152857Y-16203571D01*
X33200476Y-16298809D01*
X33200476Y-16536904D01*
X33152857Y-16632142D01*
X33105238Y-16679761D01*
X33010000Y-16727380D01*
X32771904Y-16727380D01*
X32676666Y-16679761D01*
X32629047Y-16632142D01*
X33533809Y-16727380D02*
X34057619Y-16060714D01*
X33533809Y-16060714D02*
X34057619Y-16727380D01*
X34581428Y-16155952D02*
X34486190Y-16108333D01*
X34438571Y-16060714D01*
X34390952Y-15965476D01*
X34390952Y-15917857D01*
X34438571Y-15822619D01*
X34486190Y-15775000D01*
X34581428Y-15727380D01*
X34771904Y-15727380D01*
X34867142Y-15775000D01*
X34914761Y-15822619D01*
X34962380Y-15917857D01*
X34962380Y-15965476D01*
X34914761Y-16060714D01*
X34867142Y-16108333D01*
X34771904Y-16155952D01*
X34581428Y-16155952D01*
X34486190Y-16203571D01*
X34438571Y-16251190D01*
X34390952Y-16346428D01*
X34390952Y-16536904D01*
X34438571Y-16632142D01*
X34486190Y-16679761D01*
X34581428Y-16727380D01*
X34771904Y-16727380D01*
X34867142Y-16679761D01*
X34914761Y-16632142D01*
X34962380Y-16536904D01*
X34962380Y-16346428D01*
X34914761Y-16251190D01*
X34867142Y-16203571D01*
X34771904Y-16155952D01*
D11*
X46327619Y-14096904D02*
X45870476Y-14096904D01*
X46099047Y-14096904D02*
X46099047Y-13296904D01*
X46022857Y-13411190D01*
X45946666Y-13487380D01*
X45870476Y-13525476D01*
X46708571Y-14096904D02*
X46860952Y-14096904D01*
X46937142Y-14058809D01*
X46975238Y-14020714D01*
X47051428Y-13906428D01*
X47089523Y-13754047D01*
X47089523Y-13449285D01*
X47051428Y-13373095D01*
X47013333Y-13335000D01*
X46937142Y-13296904D01*
X46784761Y-13296904D01*
X46708571Y-13335000D01*
X46670476Y-13373095D01*
X46632380Y-13449285D01*
X46632380Y-13639761D01*
X46670476Y-13715952D01*
X46708571Y-13754047D01*
X46784761Y-13792142D01*
X46937142Y-13792142D01*
X47013333Y-13754047D01*
X47051428Y-13715952D01*
X47089523Y-13639761D01*
X43330476Y-13373095D02*
X43368571Y-13335000D01*
X43444761Y-13296904D01*
X43635238Y-13296904D01*
X43711428Y-13335000D01*
X43749523Y-13373095D01*
X43787619Y-13449285D01*
X43787619Y-13525476D01*
X43749523Y-13639761D01*
X43292380Y-14096904D01*
X43787619Y-14096904D01*
X44282857Y-13296904D02*
X44359047Y-13296904D01*
X44435238Y-13335000D01*
X44473333Y-13373095D01*
X44511428Y-13449285D01*
X44549523Y-13601666D01*
X44549523Y-13792142D01*
X44511428Y-13944523D01*
X44473333Y-14020714D01*
X44435238Y-14058809D01*
X44359047Y-14096904D01*
X44282857Y-14096904D01*
X44206666Y-14058809D01*
X44168571Y-14020714D01*
X44130476Y-13944523D01*
X44092380Y-13792142D01*
X44092380Y-13601666D01*
X44130476Y-13449285D01*
X44168571Y-13373095D01*
X44206666Y-13335000D01*
X44282857Y-13296904D01*
X79526190Y-13296904D02*
X79373809Y-13296904D01*
X79297619Y-13335000D01*
X79259523Y-13373095D01*
X79183333Y-13487380D01*
X79145238Y-13639761D01*
X79145238Y-13944523D01*
X79183333Y-14020714D01*
X79221428Y-14058809D01*
X79297619Y-14096904D01*
X79449999Y-14096904D01*
X79526190Y-14058809D01*
X79564285Y-14020714D01*
X79602380Y-13944523D01*
X79602380Y-13754047D01*
X79564285Y-13677857D01*
X79526190Y-13639761D01*
X79449999Y-13601666D01*
X79297619Y-13601666D01*
X79221428Y-13639761D01*
X79183333Y-13677857D01*
X79145238Y-13754047D01*
X82154761Y-13296904D02*
X81773809Y-13296904D01*
X81735714Y-13677857D01*
X81773809Y-13639761D01*
X81849999Y-13601666D01*
X82040476Y-13601666D01*
X82116666Y-13639761D01*
X82154761Y-13677857D01*
X82192857Y-13754047D01*
X82192857Y-13944523D01*
X82154761Y-14020714D01*
X82116666Y-14058809D01*
X82040476Y-14096904D01*
X81849999Y-14096904D01*
X81773809Y-14058809D01*
X81735714Y-14020714D01*
X84707142Y-13563571D02*
X84707142Y-14096904D01*
X84516666Y-13258809D02*
X84326190Y-13830238D01*
X84821428Y-13830238D01*
X86878571Y-13296904D02*
X87373809Y-13296904D01*
X87107142Y-13601666D01*
X87221428Y-13601666D01*
X87297619Y-13639761D01*
X87335714Y-13677857D01*
X87373809Y-13754047D01*
X87373809Y-13944523D01*
X87335714Y-14020714D01*
X87297619Y-14058809D01*
X87221428Y-14096904D01*
X86992857Y-14096904D01*
X86916666Y-14058809D01*
X86878571Y-14020714D01*
X89507142Y-13373095D02*
X89545238Y-13335000D01*
X89621428Y-13296904D01*
X89811904Y-13296904D01*
X89888095Y-13335000D01*
X89926190Y-13373095D01*
X89964285Y-13449285D01*
X89964285Y-13525476D01*
X89926190Y-13639761D01*
X89469047Y-14096904D01*
X89964285Y-14096904D01*
X92554761Y-14096904D02*
X92097619Y-14096904D01*
X92326190Y-14096904D02*
X92326190Y-13296904D01*
X92250000Y-13411190D01*
X92173809Y-13487380D01*
X92097619Y-13525476D01*
D10*
X36320000Y-18180000D02*
G75*
G03*
X36320000Y-18180000I-3810000J0D01*
G01*
D11*
X97045476Y-5206904D02*
X97045476Y-4406904D01*
X97045476Y-4787857D02*
X97502619Y-4787857D01*
X97502619Y-5206904D02*
X97502619Y-4406904D01*
X97883571Y-4787857D02*
X98150238Y-4787857D01*
X98264523Y-5206904D02*
X97883571Y-5206904D01*
X97883571Y-4406904D01*
X98264523Y-4406904D01*
X98569285Y-4978333D02*
X98950238Y-4978333D01*
X98493095Y-5206904D02*
X98759761Y-4406904D01*
X99026428Y-5206904D01*
X99178809Y-4406904D02*
X99635952Y-4406904D01*
X99407380Y-5206904D02*
X99407380Y-4406904D01*
X99902619Y-4787857D02*
X100169285Y-4787857D01*
X100283571Y-5206904D02*
X99902619Y-5206904D01*
X99902619Y-4406904D01*
X100283571Y-4406904D01*
X101083571Y-5206904D02*
X100816904Y-4825952D01*
X100626428Y-5206904D02*
X100626428Y-4406904D01*
X100931190Y-4406904D01*
X101007380Y-4445000D01*
X101045476Y-4483095D01*
X101083571Y-4559285D01*
X101083571Y-4673571D01*
X101045476Y-4749761D01*
X101007380Y-4787857D01*
X100931190Y-4825952D01*
X100626428Y-4825952D01*
X101997857Y-4483095D02*
X102035952Y-4445000D01*
X102112142Y-4406904D01*
X102302619Y-4406904D01*
X102378809Y-4445000D01*
X102416904Y-4483095D01*
X102455000Y-4559285D01*
X102455000Y-4635476D01*
X102416904Y-4749761D01*
X101959761Y-5206904D01*
X102455000Y-5206904D01*
X103140714Y-4673571D02*
X103140714Y-5206904D01*
X102950238Y-4368809D02*
X102759761Y-4940238D01*
X103255000Y-4940238D01*
X103445476Y-4406904D02*
X103712142Y-5206904D01*
X103978809Y-4406904D01*
X21334761Y24868095D02*
X21334761Y24220476D01*
X21372857Y24144285D01*
X21410952Y24106190D01*
X21487142Y24068095D01*
X21639523Y24068095D01*
X21715714Y24106190D01*
X21753809Y24144285D01*
X21791904Y24220476D01*
X21791904Y24868095D01*
X22134761Y24106190D02*
X22249047Y24068095D01*
X22439523Y24068095D01*
X22515714Y24106190D01*
X22553809Y24144285D01*
X22591904Y24220476D01*
X22591904Y24296666D01*
X22553809Y24372857D01*
X22515714Y24410952D01*
X22439523Y24449047D01*
X22287142Y24487142D01*
X22210952Y24525238D01*
X22172857Y24563333D01*
X22134761Y24639523D01*
X22134761Y24715714D01*
X22172857Y24791904D01*
X22210952Y24830000D01*
X22287142Y24868095D01*
X22477619Y24868095D01*
X22591904Y24830000D01*
X23201428Y24487142D02*
X23315714Y24449047D01*
X23353809Y24410952D01*
X23391904Y24334761D01*
X23391904Y24220476D01*
X23353809Y24144285D01*
X23315714Y24106190D01*
X23239523Y24068095D01*
X22934761Y24068095D01*
X22934761Y24868095D01*
X23201428Y24868095D01*
X23277619Y24830000D01*
X23315714Y24791904D01*
X23353809Y24715714D01*
X23353809Y24639523D01*
X23315714Y24563333D01*
X23277619Y24525238D01*
X23201428Y24487142D01*
X22934761Y24487142D01*
X24610952Y24487142D02*
X24725238Y24449047D01*
X24763333Y24410952D01*
X24801428Y24334761D01*
X24801428Y24220476D01*
X24763333Y24144285D01*
X24725238Y24106190D01*
X24649047Y24068095D01*
X24344285Y24068095D01*
X24344285Y24868095D01*
X24610952Y24868095D01*
X24687142Y24830000D01*
X24725238Y24791904D01*
X24763333Y24715714D01*
X24763333Y24639523D01*
X24725238Y24563333D01*
X24687142Y24525238D01*
X24610952Y24487142D01*
X24344285Y24487142D01*
X25487142Y24068095D02*
X25487142Y24487142D01*
X25449047Y24563333D01*
X25372857Y24601428D01*
X25220476Y24601428D01*
X25144285Y24563333D01*
X25487142Y24106190D02*
X25410952Y24068095D01*
X25220476Y24068095D01*
X25144285Y24106190D01*
X25106190Y24182380D01*
X25106190Y24258571D01*
X25144285Y24334761D01*
X25220476Y24372857D01*
X25410952Y24372857D01*
X25487142Y24410952D01*
X25868095Y24068095D02*
X25868095Y24601428D01*
X25868095Y24449047D02*
X25906190Y24525238D01*
X25944285Y24563333D01*
X26020476Y24601428D01*
X26096666Y24601428D01*
X26706190Y24106190D02*
X26630000Y24068095D01*
X26477619Y24068095D01*
X26401428Y24106190D01*
X26363333Y24144285D01*
X26325238Y24220476D01*
X26325238Y24449047D01*
X26363333Y24525238D01*
X26401428Y24563333D01*
X26477619Y24601428D01*
X26630000Y24601428D01*
X26706190Y24563333D01*
X27163333Y24068095D02*
X27087142Y24106190D01*
X27049047Y24144285D01*
X27010952Y24220476D01*
X27010952Y24449047D01*
X27049047Y24525238D01*
X27087142Y24563333D01*
X27163333Y24601428D01*
X27277619Y24601428D01*
X27353809Y24563333D01*
X27391904Y24525238D01*
X27430000Y24449047D01*
X27430000Y24220476D01*
X27391904Y24144285D01*
X27353809Y24106190D01*
X27277619Y24068095D01*
X27163333Y24068095D01*
X28115714Y24068095D02*
X28115714Y24868095D01*
X28115714Y24106190D02*
X28039523Y24068095D01*
X27887142Y24068095D01*
X27810952Y24106190D01*
X27772857Y24144285D01*
X27734761Y24220476D01*
X27734761Y24449047D01*
X27772857Y24525238D01*
X27810952Y24563333D01*
X27887142Y24601428D01*
X28039523Y24601428D01*
X28115714Y24563333D01*
X28801428Y24106190D02*
X28725238Y24068095D01*
X28572857Y24068095D01*
X28496666Y24106190D01*
X28458571Y24182380D01*
X28458571Y24487142D01*
X28496666Y24563333D01*
X28572857Y24601428D01*
X28725238Y24601428D01*
X28801428Y24563333D01*
X28839523Y24487142D01*
X28839523Y24410952D01*
X28458571Y24334761D01*
X30249047Y24068095D02*
X29982380Y24449047D01*
X29791904Y24068095D02*
X29791904Y24868095D01*
X30096666Y24868095D01*
X30172857Y24830000D01*
X30210952Y24791904D01*
X30249047Y24715714D01*
X30249047Y24601428D01*
X30210952Y24525238D01*
X30172857Y24487142D01*
X30096666Y24449047D01*
X29791904Y24449047D01*
X30896666Y24106190D02*
X30820476Y24068095D01*
X30668095Y24068095D01*
X30591904Y24106190D01*
X30553809Y24182380D01*
X30553809Y24487142D01*
X30591904Y24563333D01*
X30668095Y24601428D01*
X30820476Y24601428D01*
X30896666Y24563333D01*
X30934761Y24487142D01*
X30934761Y24410952D01*
X30553809Y24334761D01*
X31620476Y24068095D02*
X31620476Y24487142D01*
X31582380Y24563333D01*
X31506190Y24601428D01*
X31353809Y24601428D01*
X31277619Y24563333D01*
X31620476Y24106190D02*
X31544285Y24068095D01*
X31353809Y24068095D01*
X31277619Y24106190D01*
X31239523Y24182380D01*
X31239523Y24258571D01*
X31277619Y24334761D01*
X31353809Y24372857D01*
X31544285Y24372857D01*
X31620476Y24410952D01*
X32344285Y24068095D02*
X32344285Y24868095D01*
X32344285Y24106190D02*
X32268095Y24068095D01*
X32115714Y24068095D01*
X32039523Y24106190D01*
X32001428Y24144285D01*
X31963333Y24220476D01*
X31963333Y24449047D01*
X32001428Y24525238D01*
X32039523Y24563333D01*
X32115714Y24601428D01*
X32268095Y24601428D01*
X32344285Y24563333D01*
X33030000Y24106190D02*
X32953809Y24068095D01*
X32801428Y24068095D01*
X32725238Y24106190D01*
X32687142Y24182380D01*
X32687142Y24487142D01*
X32725238Y24563333D01*
X32801428Y24601428D01*
X32953809Y24601428D01*
X33030000Y24563333D01*
X33068095Y24487142D01*
X33068095Y24410952D01*
X32687142Y24334761D01*
X33410952Y24068095D02*
X33410952Y24601428D01*
X33410952Y24449047D02*
X33449047Y24525238D01*
X33487142Y24563333D01*
X33563333Y24601428D01*
X33639523Y24601428D01*
X19696666Y23468095D02*
X19315714Y23468095D01*
X19277619Y23087142D01*
X19315714Y23125238D01*
X19391904Y23163333D01*
X19582380Y23163333D01*
X19658571Y23125238D01*
X19696666Y23087142D01*
X19734761Y23010952D01*
X19734761Y22820476D01*
X19696666Y22744285D01*
X19658571Y22706190D01*
X19582380Y22668095D01*
X19391904Y22668095D01*
X19315714Y22706190D01*
X19277619Y22744285D01*
X19963333Y23468095D02*
X20230000Y22668095D01*
X20496666Y23468095D01*
X23810952Y22668095D02*
X23810952Y23468095D01*
X24001428Y23468095D01*
X24115714Y23430000D01*
X24191904Y23353809D01*
X24230000Y23277619D01*
X24268095Y23125238D01*
X24268095Y23010952D01*
X24230000Y22858571D01*
X24191904Y22782380D01*
X24115714Y22706190D01*
X24001428Y22668095D01*
X23810952Y22668095D01*
X24610952Y22972857D02*
X25220476Y22972857D01*
X28649047Y22668095D02*
X28649047Y23468095D01*
X28839523Y23468095D01*
X28953809Y23430000D01*
X29030000Y23353809D01*
X29068095Y23277619D01*
X29106190Y23125238D01*
X29106190Y23010952D01*
X29068095Y22858571D01*
X29030000Y22782380D01*
X28953809Y22706190D01*
X28839523Y22668095D01*
X28649047Y22668095D01*
X29449047Y22972857D02*
X30058571Y22972857D01*
X29753809Y22668095D02*
X29753809Y23277619D01*
X33906190Y23430000D02*
X33830000Y23468095D01*
X33715714Y23468095D01*
X33601428Y23430000D01*
X33525238Y23353809D01*
X33487142Y23277619D01*
X33449047Y23125238D01*
X33449047Y23010952D01*
X33487142Y22858571D01*
X33525238Y22782380D01*
X33601428Y22706190D01*
X33715714Y22668095D01*
X33791904Y22668095D01*
X33906190Y22706190D01*
X33944285Y22744285D01*
X33944285Y23010952D01*
X33791904Y23010952D01*
X34287142Y22668095D02*
X34287142Y23468095D01*
X34744285Y22668095D01*
X34744285Y23468095D01*
X35125238Y22668095D02*
X35125238Y23468095D01*
X35315714Y23468095D01*
X35430000Y23430000D01*
X35506190Y23353809D01*
X35544285Y23277619D01*
X35582380Y23125238D01*
X35582380Y23010952D01*
X35544285Y22858571D01*
X35506190Y22782380D01*
X35430000Y22706190D01*
X35315714Y22668095D01*
X35125238Y22668095D01*
D13*
X100312857Y-24347380D02*
X100312857Y-23347380D01*
X100312857Y-23823571D02*
X100884285Y-23823571D01*
X100884285Y-24347380D02*
X100884285Y-23347380D01*
X101741428Y-24299761D02*
X101646190Y-24347380D01*
X101455714Y-24347380D01*
X101360476Y-24299761D01*
X101312857Y-24204523D01*
X101312857Y-23823571D01*
X101360476Y-23728333D01*
X101455714Y-23680714D01*
X101646190Y-23680714D01*
X101741428Y-23728333D01*
X101789047Y-23823571D01*
X101789047Y-23918809D01*
X101312857Y-24014047D01*
X102646190Y-24347380D02*
X102646190Y-23823571D01*
X102598571Y-23728333D01*
X102503333Y-23680714D01*
X102312857Y-23680714D01*
X102217619Y-23728333D01*
X102646190Y-24299761D02*
X102550952Y-24347380D01*
X102312857Y-24347380D01*
X102217619Y-24299761D01*
X102170000Y-24204523D01*
X102170000Y-24109285D01*
X102217619Y-24014047D01*
X102312857Y-23966428D01*
X102550952Y-23966428D01*
X102646190Y-23918809D01*
X102979523Y-23680714D02*
X103360476Y-23680714D01*
X103122380Y-23347380D02*
X103122380Y-24204523D01*
X103170000Y-24299761D01*
X103265238Y-24347380D01*
X103360476Y-24347380D01*
X104074761Y-24299761D02*
X103979523Y-24347380D01*
X103789047Y-24347380D01*
X103693809Y-24299761D01*
X103646190Y-24204523D01*
X103646190Y-23823571D01*
X103693809Y-23728333D01*
X103789047Y-23680714D01*
X103979523Y-23680714D01*
X104074761Y-23728333D01*
X104122380Y-23823571D01*
X104122380Y-23918809D01*
X103646190Y-24014047D01*
X104550952Y-24347380D02*
X104550952Y-23680714D01*
X104550952Y-23871190D02*
X104598571Y-23775952D01*
X104646190Y-23728333D01*
X104741428Y-23680714D01*
X104836666Y-23680714D01*
X105931904Y-23966428D02*
X106693809Y-23966428D01*
X109408095Y-23299761D02*
X108550952Y-24585476D01*
X111265238Y-23966428D02*
X112027142Y-23966428D01*
X111646190Y-24347380D02*
X111646190Y-23585476D01*
D11*
X68178095Y24868095D02*
X68330476Y24868095D01*
X68406666Y24830000D01*
X68482857Y24753809D01*
X68520952Y24601428D01*
X68520952Y24334761D01*
X68482857Y24182380D01*
X68406666Y24106190D01*
X68330476Y24068095D01*
X68178095Y24068095D01*
X68101904Y24106190D01*
X68025714Y24182380D01*
X67987619Y24334761D01*
X67987619Y24601428D01*
X68025714Y24753809D01*
X68101904Y24830000D01*
X68178095Y24868095D01*
X69244761Y24068095D02*
X68863809Y24068095D01*
X68863809Y24868095D01*
X69511428Y24487142D02*
X69778095Y24487142D01*
X69892380Y24068095D02*
X69511428Y24068095D01*
X69511428Y24868095D01*
X69892380Y24868095D01*
X70235238Y24068095D02*
X70235238Y24868095D01*
X70425714Y24868095D01*
X70540000Y24830000D01*
X70616190Y24753809D01*
X70654285Y24677619D01*
X70692380Y24525238D01*
X70692380Y24410952D01*
X70654285Y24258571D01*
X70616190Y24182380D01*
X70540000Y24106190D01*
X70425714Y24068095D01*
X70235238Y24068095D01*
X60959047Y22668095D02*
X60692380Y23049047D01*
X60501904Y22668095D02*
X60501904Y23468095D01*
X60806666Y23468095D01*
X60882857Y23430000D01*
X60920952Y23391904D01*
X60959047Y23315714D01*
X60959047Y23201428D01*
X60920952Y23125238D01*
X60882857Y23087142D01*
X60806666Y23049047D01*
X60501904Y23049047D01*
X61301904Y23087142D02*
X61568571Y23087142D01*
X61682857Y22668095D02*
X61301904Y22668095D01*
X61301904Y23468095D01*
X61682857Y23468095D01*
X61987619Y22706190D02*
X62101904Y22668095D01*
X62292380Y22668095D01*
X62368571Y22706190D01*
X62406666Y22744285D01*
X62444761Y22820476D01*
X62444761Y22896666D01*
X62406666Y22972857D01*
X62368571Y23010952D01*
X62292380Y23049047D01*
X62139999Y23087142D01*
X62063809Y23125238D01*
X62025714Y23163333D01*
X61987619Y23239523D01*
X61987619Y23315714D01*
X62025714Y23391904D01*
X62063809Y23430000D01*
X62139999Y23468095D01*
X62330476Y23468095D01*
X62444761Y23430000D01*
X63854285Y22744285D02*
X63816190Y22706190D01*
X63701904Y22668095D01*
X63625714Y22668095D01*
X63511428Y22706190D01*
X63435238Y22782380D01*
X63397142Y22858571D01*
X63359047Y23010952D01*
X63359047Y23125238D01*
X63397142Y23277619D01*
X63435238Y23353809D01*
X63511428Y23430000D01*
X63625714Y23468095D01*
X63701904Y23468095D01*
X63816190Y23430000D01*
X63854285Y23391904D01*
X64159047Y22706190D02*
X64273333Y22668095D01*
X64463809Y22668095D01*
X64539999Y22706190D01*
X64578095Y22744285D01*
X64616190Y22820476D01*
X64616190Y22896666D01*
X64578095Y22972857D01*
X64539999Y23010952D01*
X64463809Y23049047D01*
X64311428Y23087142D01*
X64235238Y23125238D01*
X64197142Y23163333D01*
X64159047Y23239523D01*
X64159047Y23315714D01*
X64197142Y23391904D01*
X64235238Y23430000D01*
X64311428Y23468095D01*
X64501904Y23468095D01*
X64616190Y23430000D01*
X65568571Y22668095D02*
X65568571Y23468095D01*
X65759047Y23468095D01*
X65873333Y23430000D01*
X65949523Y23353809D01*
X65987619Y23277619D01*
X66025714Y23125238D01*
X66025714Y23010952D01*
X65987619Y22858571D01*
X65949523Y22782380D01*
X65873333Y22706190D01*
X65759047Y22668095D01*
X65568571Y22668095D01*
X66330476Y23391904D02*
X66368571Y23430000D01*
X66444761Y23468095D01*
X66635238Y23468095D01*
X66711428Y23430000D01*
X66749523Y23391904D01*
X66787619Y23315714D01*
X66787619Y23239523D01*
X66749523Y23125238D01*
X66292380Y22668095D01*
X66787619Y22668095D01*
X68349523Y22668095D02*
X68349523Y23468095D01*
X68540000Y23468095D01*
X68654285Y23430000D01*
X68730476Y23353809D01*
X68768571Y23277619D01*
X68806666Y23125238D01*
X68806666Y23010952D01*
X68768571Y22858571D01*
X68730476Y22782380D01*
X68654285Y22706190D01*
X68540000Y22668095D01*
X68349523Y22668095D01*
X69568571Y22668095D02*
X69111428Y22668095D01*
X69340000Y22668095D02*
X69340000Y23468095D01*
X69263809Y23353809D01*
X69187619Y23277619D01*
X69111428Y23239523D01*
X71130476Y22668095D02*
X71130476Y23468095D01*
X71320952Y23468095D01*
X71435238Y23430000D01*
X71511428Y23353809D01*
X71549523Y23277619D01*
X71587619Y23125238D01*
X71587619Y23010952D01*
X71549523Y22858571D01*
X71511428Y22782380D01*
X71435238Y22706190D01*
X71320952Y22668095D01*
X71130476Y22668095D01*
X72082857Y23468095D02*
X72159047Y23468095D01*
X72235238Y23430000D01*
X72273333Y23391904D01*
X72311428Y23315714D01*
X72349523Y23163333D01*
X72349523Y22972857D01*
X72311428Y22820476D01*
X72273333Y22744285D01*
X72235238Y22706190D01*
X72159047Y22668095D01*
X72082857Y22668095D01*
X72006666Y22706190D01*
X71968571Y22744285D01*
X71930476Y22820476D01*
X71892380Y22972857D01*
X71892380Y23163333D01*
X71930476Y23315714D01*
X71968571Y23391904D01*
X72006666Y23430000D01*
X72082857Y23468095D01*
X73720952Y23430000D02*
X73644761Y23468095D01*
X73530476Y23468095D01*
X73416190Y23430000D01*
X73340000Y23353809D01*
X73301904Y23277619D01*
X73263809Y23125238D01*
X73263809Y23010952D01*
X73301904Y22858571D01*
X73340000Y22782380D01*
X73416190Y22706190D01*
X73530476Y22668095D01*
X73606666Y22668095D01*
X73720952Y22706190D01*
X73759047Y22744285D01*
X73759047Y23010952D01*
X73606666Y23010952D01*
X74101904Y22668095D02*
X74101904Y23468095D01*
X74559047Y22668095D01*
X74559047Y23468095D01*
X74940000Y22668095D02*
X74940000Y23468095D01*
X75130476Y23468095D01*
X75244761Y23430000D01*
X75320952Y23353809D01*
X75359047Y23277619D01*
X75397142Y23125238D01*
X75397142Y23010952D01*
X75359047Y22858571D01*
X75320952Y22782380D01*
X75244761Y22706190D01*
X75130476Y22668095D01*
X74940000Y22668095D01*
X76273333Y23468095D02*
X76768571Y23468095D01*
X76501904Y23163333D01*
X76616190Y23163333D01*
X76692380Y23125238D01*
X76730476Y23087142D01*
X76768571Y23010952D01*
X76768571Y22820476D01*
X76730476Y22744285D01*
X76692380Y22706190D01*
X76616190Y22668095D01*
X76387619Y22668095D01*
X76311428Y22706190D01*
X76273333Y22744285D01*
X76997142Y23468095D02*
X77263809Y22668095D01*
X77530476Y23468095D01*
X77720952Y23468095D02*
X78216190Y23468095D01*
X77949523Y23163333D01*
X78063809Y23163333D01*
X78140000Y23125238D01*
X78178095Y23087142D01*
X78216190Y23010952D01*
X78216190Y22820476D01*
X78178095Y22744285D01*
X78140000Y22706190D01*
X78063809Y22668095D01*
X77835238Y22668095D01*
X77759047Y22706190D01*
X77720952Y22744285D01*
X38387559Y23808291D02*
X38654225Y23808291D01*
X38768511Y23389244D02*
X38387559Y23389244D01*
X38387559Y24189244D01*
X38768511Y24189244D01*
X39111368Y23922577D02*
X39111368Y23389244D01*
X39111368Y23846387D02*
X39149464Y23884482D01*
X39225654Y23922577D01*
X39339940Y23922577D01*
X39416130Y23884482D01*
X39454225Y23808291D01*
X39454225Y23389244D01*
X40178035Y23427339D02*
X40101845Y23389244D01*
X39949464Y23389244D01*
X39873273Y23427339D01*
X39835178Y23465434D01*
X39797083Y23541625D01*
X39797083Y23770196D01*
X39835178Y23846387D01*
X39873273Y23884482D01*
X39949464Y23922577D01*
X40101845Y23922577D01*
X40178035Y23884482D01*
X40635178Y23389244D02*
X40558987Y23427339D01*
X40520892Y23503529D01*
X40520892Y24189244D01*
X41054225Y23389244D02*
X40978035Y23427339D01*
X40939940Y23465434D01*
X40901845Y23541625D01*
X40901845Y23770196D01*
X40939940Y23846387D01*
X40978035Y23884482D01*
X41054225Y23922577D01*
X41168511Y23922577D01*
X41244702Y23884482D01*
X41282797Y23846387D01*
X41320892Y23770196D01*
X41320892Y23541625D01*
X41282797Y23465434D01*
X41244702Y23427339D01*
X41168511Y23389244D01*
X41054225Y23389244D01*
X41625654Y23427339D02*
X41701845Y23389244D01*
X41854225Y23389244D01*
X41930416Y23427339D01*
X41968511Y23503529D01*
X41968511Y23541625D01*
X41930416Y23617815D01*
X41854225Y23655910D01*
X41739940Y23655910D01*
X41663749Y23694006D01*
X41625654Y23770196D01*
X41625654Y23808291D01*
X41663749Y23884482D01*
X41739940Y23922577D01*
X41854225Y23922577D01*
X41930416Y23884482D01*
X42654225Y23922577D02*
X42654225Y23389244D01*
X42311368Y23922577D02*
X42311368Y23503529D01*
X42349464Y23427339D01*
X42425654Y23389244D01*
X42539940Y23389244D01*
X42616130Y23427339D01*
X42654225Y23465434D01*
X43035178Y23389244D02*
X43035178Y23922577D01*
X43035178Y23770196D02*
X43073273Y23846387D01*
X43111368Y23884482D01*
X43187559Y23922577D01*
X43263749Y23922577D01*
X43835178Y23427339D02*
X43758987Y23389244D01*
X43606606Y23389244D01*
X43530416Y23427339D01*
X43492321Y23503529D01*
X43492321Y23808291D01*
X43530416Y23884482D01*
X43606606Y23922577D01*
X43758987Y23922577D01*
X43835178Y23884482D01*
X43873273Y23808291D01*
X43873273Y23732101D01*
X43492321Y23655910D01*
X45168511Y23389244D02*
X45168511Y24189244D01*
X45168511Y23427339D02*
X45092321Y23389244D01*
X44939940Y23389244D01*
X44863749Y23427339D01*
X44825654Y23465434D01*
X44787559Y23541625D01*
X44787559Y23770196D01*
X44825654Y23846387D01*
X44863749Y23884482D01*
X44939940Y23922577D01*
X45092321Y23922577D01*
X45168511Y23884482D01*
X45663749Y23389244D02*
X45587559Y23427339D01*
X45549464Y23465434D01*
X45511368Y23541625D01*
X45511368Y23770196D01*
X45549464Y23846387D01*
X45587559Y23884482D01*
X45663749Y23922577D01*
X45778035Y23922577D01*
X45854225Y23884482D01*
X45892321Y23846387D01*
X45930416Y23770196D01*
X45930416Y23541625D01*
X45892321Y23465434D01*
X45854225Y23427339D01*
X45778035Y23389244D01*
X45663749Y23389244D01*
X46387559Y23389244D02*
X46311368Y23427339D01*
X46273273Y23465434D01*
X46235178Y23541625D01*
X46235178Y23770196D01*
X46273273Y23846387D01*
X46311368Y23884482D01*
X46387559Y23922577D01*
X46501845Y23922577D01*
X46578035Y23884482D01*
X46616130Y23846387D01*
X46654225Y23770196D01*
X46654225Y23541625D01*
X46616130Y23465434D01*
X46578035Y23427339D01*
X46501845Y23389244D01*
X46387559Y23389244D01*
X46997083Y23389244D02*
X46997083Y23922577D01*
X46997083Y23770196D02*
X47035178Y23846387D01*
X47073273Y23884482D01*
X47149464Y23922577D01*
X47225654Y23922577D01*
X43530416Y22027339D02*
X43606606Y21989244D01*
X43758987Y21989244D01*
X43835178Y22027339D01*
X43873273Y22103529D01*
X43873273Y22141625D01*
X43835178Y22217815D01*
X43758987Y22255910D01*
X43644702Y22255910D01*
X43568511Y22294006D01*
X43530416Y22370196D01*
X43530416Y22408291D01*
X43568511Y22484482D01*
X43644702Y22522577D01*
X43758987Y22522577D01*
X43835178Y22484482D01*
X44520892Y22027339D02*
X44444702Y21989244D01*
X44292321Y21989244D01*
X44216130Y22027339D01*
X44178035Y22103529D01*
X44178035Y22408291D01*
X44216130Y22484482D01*
X44292321Y22522577D01*
X44444702Y22522577D01*
X44520892Y22484482D01*
X44558987Y22408291D01*
X44558987Y22332101D01*
X44178035Y22255910D01*
X44901845Y22522577D02*
X44901845Y21989244D01*
X44901845Y22446387D02*
X44939940Y22484482D01*
X45016130Y22522577D01*
X45130416Y22522577D01*
X45206606Y22484482D01*
X45244702Y22408291D01*
X45244702Y21989244D01*
X45587559Y22027339D02*
X45663749Y21989244D01*
X45816130Y21989244D01*
X45892321Y22027339D01*
X45930416Y22103529D01*
X45930416Y22141625D01*
X45892321Y22217815D01*
X45816130Y22255910D01*
X45701845Y22255910D01*
X45625654Y22294006D01*
X45587559Y22370196D01*
X45587559Y22408291D01*
X45625654Y22484482D01*
X45701845Y22522577D01*
X45816130Y22522577D01*
X45892321Y22484482D01*
X46387559Y21989244D02*
X46311368Y22027339D01*
X46273273Y22065434D01*
X46235178Y22141625D01*
X46235178Y22370196D01*
X46273273Y22446387D01*
X46311368Y22484482D01*
X46387559Y22522577D01*
X46501845Y22522577D01*
X46578035Y22484482D01*
X46616130Y22446387D01*
X46654225Y22370196D01*
X46654225Y22141625D01*
X46616130Y22065434D01*
X46578035Y22027339D01*
X46501845Y21989244D01*
X46387559Y21989244D01*
X46997083Y21989244D02*
X46997083Y22522577D01*
X46997083Y22370196D02*
X47035178Y22446387D01*
X47073273Y22484482D01*
X47149464Y22522577D01*
X47225654Y22522577D01*
D13*
X17238095Y-22952380D02*
X17238095Y-21952380D01*
X17476190Y-21952380D01*
X17619047Y-22000000D01*
X17714285Y-22095238D01*
X17761904Y-22190476D01*
X17809523Y-22380952D01*
X17809523Y-22523809D01*
X17761904Y-22714285D01*
X17714285Y-22809523D01*
X17619047Y-22904761D01*
X17476190Y-22952380D01*
X17238095Y-22952380D01*
X18190476Y-22904761D02*
X18333333Y-22952380D01*
X18571428Y-22952380D01*
X18666666Y-22904761D01*
X18714285Y-22857142D01*
X18761904Y-22761904D01*
X18761904Y-22666666D01*
X18714285Y-22571428D01*
X18666666Y-22523809D01*
X18571428Y-22476190D01*
X18380952Y-22428571D01*
X18285714Y-22380952D01*
X18238095Y-22333333D01*
X18190476Y-22238095D01*
X18190476Y-22142857D01*
X18238095Y-22047619D01*
X18285714Y-22000000D01*
X18380952Y-21952380D01*
X18619047Y-21952380D01*
X18761904Y-22000000D01*
X19714285Y-22952380D02*
X19142857Y-22952380D01*
X19428571Y-22952380D02*
X19428571Y-21952380D01*
X19333333Y-22095238D01*
X19238095Y-22190476D01*
X19142857Y-22238095D01*
X20285714Y-22380952D02*
X20190476Y-22333333D01*
X20142857Y-22285714D01*
X20095238Y-22190476D01*
X20095238Y-22142857D01*
X20142857Y-22047619D01*
X20190476Y-22000000D01*
X20285714Y-21952380D01*
X20476190Y-21952380D01*
X20571428Y-22000000D01*
X20619047Y-22047619D01*
X20666666Y-22142857D01*
X20666666Y-22190476D01*
X20619047Y-22285714D01*
X20571428Y-22333333D01*
X20476190Y-22380952D01*
X20285714Y-22380952D01*
X20190476Y-22428571D01*
X20142857Y-22476190D01*
X20095238Y-22571428D01*
X20095238Y-22761904D01*
X20142857Y-22857142D01*
X20190476Y-22904761D01*
X20285714Y-22952380D01*
X20476190Y-22952380D01*
X20571428Y-22904761D01*
X20619047Y-22857142D01*
X20666666Y-22761904D01*
X20666666Y-22571428D01*
X20619047Y-22476190D01*
X20571428Y-22428571D01*
X20476190Y-22380952D01*
X21428571Y-22428571D02*
X21571428Y-22476190D01*
X21619047Y-22523809D01*
X21666666Y-22619047D01*
X21666666Y-22761904D01*
X21619047Y-22857142D01*
X21571428Y-22904761D01*
X21476190Y-22952380D01*
X21095238Y-22952380D01*
X21095238Y-21952380D01*
X21428571Y-21952380D01*
X21523809Y-22000000D01*
X21571428Y-22047619D01*
X21619047Y-22142857D01*
X21619047Y-22238095D01*
X21571428Y-22333333D01*
X21523809Y-22380952D01*
X21428571Y-22428571D01*
X21095238Y-22428571D01*
X22047619Y-22047619D02*
X22095238Y-22000000D01*
X22190476Y-21952380D01*
X22428571Y-21952380D01*
X22523809Y-22000000D01*
X22571428Y-22047619D01*
X22619047Y-22142857D01*
X22619047Y-22238095D01*
X22571428Y-22380952D01*
X22000000Y-22952380D01*
X22619047Y-22952380D01*
X23238095Y-21952380D02*
X23333333Y-21952380D01*
X23428571Y-22000000D01*
X23476190Y-22047619D01*
X23523809Y-22142857D01*
X23571428Y-22333333D01*
X23571428Y-22571428D01*
X23523809Y-22761904D01*
X23476190Y-22857142D01*
X23428571Y-22904761D01*
X23333333Y-22952380D01*
X23238095Y-22952380D01*
X23142857Y-22904761D01*
X23095238Y-22857142D01*
X23047619Y-22761904D01*
X23000000Y-22571428D01*
X23000000Y-22333333D01*
X23047619Y-22142857D01*
X23095238Y-22047619D01*
X23142857Y-22000000D01*
X23238095Y-21952380D01*
X24000000Y-22571428D02*
X24761904Y-22571428D01*
X24380952Y-22952380D02*
X24380952Y-22190476D01*
D11*
X20555000Y-34397380D02*
X20516904Y-34473571D01*
X20516904Y-34587857D01*
X20555000Y-34702142D01*
X20631190Y-34778333D01*
X20707380Y-34816428D01*
X20859761Y-34854523D01*
X20974047Y-34854523D01*
X21126428Y-34816428D01*
X21202619Y-34778333D01*
X21278809Y-34702142D01*
X21316904Y-34587857D01*
X21316904Y-34511666D01*
X21278809Y-34397380D01*
X21240714Y-34359285D01*
X20974047Y-34359285D01*
X20974047Y-34511666D01*
X20897857Y-31921190D02*
X20935952Y-31806904D01*
X20974047Y-31768809D01*
X21050238Y-31730714D01*
X21164523Y-31730714D01*
X21240714Y-31768809D01*
X21278809Y-31806904D01*
X21316904Y-31883095D01*
X21316904Y-32187857D01*
X20516904Y-32187857D01*
X20516904Y-31921190D01*
X20555000Y-31845000D01*
X20593095Y-31806904D01*
X20669285Y-31768809D01*
X20745476Y-31768809D01*
X20821666Y-31806904D01*
X20859761Y-31845000D01*
X20897857Y-31921190D01*
X20897857Y-32187857D01*
X20555000Y-29749761D02*
X20516904Y-29825952D01*
X20516904Y-29940238D01*
X20555000Y-30054523D01*
X20631190Y-30130714D01*
X20707380Y-30168809D01*
X20859761Y-30206904D01*
X20974047Y-30206904D01*
X21126428Y-30168809D01*
X21202619Y-30130714D01*
X21278809Y-30054523D01*
X21316904Y-29940238D01*
X21316904Y-29864047D01*
X21278809Y-29749761D01*
X21240714Y-29711666D01*
X20974047Y-29711666D01*
X20974047Y-29864047D01*
X21316904Y-29368809D02*
X20516904Y-29368809D01*
X21316904Y-28911666D01*
X20516904Y-28911666D01*
X21316904Y-28530714D02*
X20516904Y-28530714D01*
X20516904Y-28340238D01*
X20555000Y-28225952D01*
X20631190Y-28149761D01*
X20707380Y-28111666D01*
X20859761Y-28073571D01*
X20974047Y-28073571D01*
X21126428Y-28111666D01*
X21202619Y-28149761D01*
X21278809Y-28225952D01*
X21316904Y-28340238D01*
X21316904Y-28530714D01*
X21316904Y-26054523D02*
X20935952Y-26321190D01*
X21316904Y-26511666D02*
X20516904Y-26511666D01*
X20516904Y-26206904D01*
X20555000Y-26130714D01*
X20593095Y-26092619D01*
X20669285Y-26054523D01*
X20783571Y-26054523D01*
X20859761Y-26092619D01*
X20897857Y-26130714D01*
X20935952Y-26206904D01*
X20935952Y-26511666D01*
X60959047Y-10286904D02*
X60692380Y-9905952D01*
X60501904Y-10286904D02*
X60501904Y-9486904D01*
X60806666Y-9486904D01*
X60882857Y-9525000D01*
X60920952Y-9563095D01*
X60959047Y-9639285D01*
X60959047Y-9753571D01*
X60920952Y-9829761D01*
X60882857Y-9867857D01*
X60806666Y-9905952D01*
X60501904Y-9905952D01*
X61301904Y-9867857D02*
X61568571Y-9867857D01*
X61682857Y-10286904D02*
X61301904Y-10286904D01*
X61301904Y-9486904D01*
X61682857Y-9486904D01*
X61987619Y-10248809D02*
X62101904Y-10286904D01*
X62292380Y-10286904D01*
X62368571Y-10248809D01*
X62406666Y-10210714D01*
X62444761Y-10134523D01*
X62444761Y-10058333D01*
X62406666Y-9982142D01*
X62368571Y-9944047D01*
X62292380Y-9905952D01*
X62139999Y-9867857D01*
X62063809Y-9829761D01*
X62025714Y-9791666D01*
X61987619Y-9715476D01*
X61987619Y-9639285D01*
X62025714Y-9563095D01*
X62063809Y-9525000D01*
X62139999Y-9486904D01*
X62330476Y-9486904D01*
X62444761Y-9525000D01*
X63854285Y-10210714D02*
X63816190Y-10248809D01*
X63701904Y-10286904D01*
X63625714Y-10286904D01*
X63511428Y-10248809D01*
X63435238Y-10172619D01*
X63397142Y-10096428D01*
X63359047Y-9944047D01*
X63359047Y-9829761D01*
X63397142Y-9677380D01*
X63435238Y-9601190D01*
X63511428Y-9525000D01*
X63625714Y-9486904D01*
X63701904Y-9486904D01*
X63816190Y-9525000D01*
X63854285Y-9563095D01*
X64159047Y-10248809D02*
X64273333Y-10286904D01*
X64463809Y-10286904D01*
X64539999Y-10248809D01*
X64578095Y-10210714D01*
X64616190Y-10134523D01*
X64616190Y-10058333D01*
X64578095Y-9982142D01*
X64539999Y-9944047D01*
X64463809Y-9905952D01*
X64311428Y-9867857D01*
X64235238Y-9829761D01*
X64197142Y-9791666D01*
X64159047Y-9715476D01*
X64159047Y-9639285D01*
X64197142Y-9563095D01*
X64235238Y-9525000D01*
X64311428Y-9486904D01*
X64501904Y-9486904D01*
X64616190Y-9525000D01*
X65568571Y-10286904D02*
X65568571Y-9486904D01*
X65759047Y-9486904D01*
X65873333Y-9525000D01*
X65949523Y-9601190D01*
X65987619Y-9677380D01*
X66025714Y-9829761D01*
X66025714Y-9944047D01*
X65987619Y-10096428D01*
X65949523Y-10172619D01*
X65873333Y-10248809D01*
X65759047Y-10286904D01*
X65568571Y-10286904D01*
X66330476Y-9563095D02*
X66368571Y-9525000D01*
X66444761Y-9486904D01*
X66635238Y-9486904D01*
X66711428Y-9525000D01*
X66749523Y-9563095D01*
X66787619Y-9639285D01*
X66787619Y-9715476D01*
X66749523Y-9829761D01*
X66292380Y-10286904D01*
X66787619Y-10286904D01*
X68349523Y-10286904D02*
X68349523Y-9486904D01*
X68540000Y-9486904D01*
X68654285Y-9525000D01*
X68730476Y-9601190D01*
X68768571Y-9677380D01*
X68806666Y-9829761D01*
X68806666Y-9944047D01*
X68768571Y-10096428D01*
X68730476Y-10172619D01*
X68654285Y-10248809D01*
X68540000Y-10286904D01*
X68349523Y-10286904D01*
X69568571Y-10286904D02*
X69111428Y-10286904D01*
X69340000Y-10286904D02*
X69340000Y-9486904D01*
X69263809Y-9601190D01*
X69187619Y-9677380D01*
X69111428Y-9715476D01*
X71130476Y-10286904D02*
X71130476Y-9486904D01*
X71320952Y-9486904D01*
X71435238Y-9525000D01*
X71511428Y-9601190D01*
X71549523Y-9677380D01*
X71587619Y-9829761D01*
X71587619Y-9944047D01*
X71549523Y-10096428D01*
X71511428Y-10172619D01*
X71435238Y-10248809D01*
X71320952Y-10286904D01*
X71130476Y-10286904D01*
X72082857Y-9486904D02*
X72159047Y-9486904D01*
X72235238Y-9525000D01*
X72273333Y-9563095D01*
X72311428Y-9639285D01*
X72349523Y-9791666D01*
X72349523Y-9982142D01*
X72311428Y-10134523D01*
X72273333Y-10210714D01*
X72235238Y-10248809D01*
X72159047Y-10286904D01*
X72082857Y-10286904D01*
X72006666Y-10248809D01*
X71968571Y-10210714D01*
X71930476Y-10134523D01*
X71892380Y-9982142D01*
X71892380Y-9791666D01*
X71930476Y-9639285D01*
X71968571Y-9563095D01*
X72006666Y-9525000D01*
X72082857Y-9486904D01*
X73720952Y-9525000D02*
X73644761Y-9486904D01*
X73530476Y-9486904D01*
X73416190Y-9525000D01*
X73340000Y-9601190D01*
X73301904Y-9677380D01*
X73263809Y-9829761D01*
X73263809Y-9944047D01*
X73301904Y-10096428D01*
X73340000Y-10172619D01*
X73416190Y-10248809D01*
X73530476Y-10286904D01*
X73606666Y-10286904D01*
X73720952Y-10248809D01*
X73759047Y-10210714D01*
X73759047Y-9944047D01*
X73606666Y-9944047D01*
X74101904Y-10286904D02*
X74101904Y-9486904D01*
X74559047Y-10286904D01*
X74559047Y-9486904D01*
X74940000Y-10286904D02*
X74940000Y-9486904D01*
X75130476Y-9486904D01*
X75244761Y-9525000D01*
X75320952Y-9601190D01*
X75359047Y-9677380D01*
X75397142Y-9829761D01*
X75397142Y-9944047D01*
X75359047Y-10096428D01*
X75320952Y-10172619D01*
X75244761Y-10248809D01*
X75130476Y-10286904D01*
X74940000Y-10286904D01*
X76273333Y-9486904D02*
X76768571Y-9486904D01*
X76501904Y-9791666D01*
X76616190Y-9791666D01*
X76692380Y-9829761D01*
X76730476Y-9867857D01*
X76768571Y-9944047D01*
X76768571Y-10134523D01*
X76730476Y-10210714D01*
X76692380Y-10248809D01*
X76616190Y-10286904D01*
X76387619Y-10286904D01*
X76311428Y-10248809D01*
X76273333Y-10210714D01*
X76997142Y-9486904D02*
X77263809Y-10286904D01*
X77530476Y-9486904D01*
X77720952Y-9486904D02*
X78216190Y-9486904D01*
X77949523Y-9791666D01*
X78063809Y-9791666D01*
X78140000Y-9829761D01*
X78178095Y-9867857D01*
X78216190Y-9944047D01*
X78216190Y-10134523D01*
X78178095Y-10210714D01*
X78140000Y-10248809D01*
X78063809Y-10286904D01*
X77835238Y-10286904D01*
X77759047Y-10248809D01*
X77720952Y-10210714D01*
D10*
X105050000Y-48000000D02*
X123050000Y-48000000D01*
X115290000Y-51190000D02*
X114020000Y-53730000D01*
X112750000Y-51190000D02*
X115290000Y-51190000D01*
X114020000Y-53730000D02*
X112750000Y-51190000D01*
X114020000Y-49920000D02*
X114020000Y-53730000D01*
X123050000Y-56000000D02*
X105050000Y-56000000D01*
X123050000Y-48000000D02*
X123050000Y-56000000D01*
X105050000Y-49800000D02*
X123050000Y-49800000D01*
X105050000Y-56000000D02*
X105050000Y-48000000D01*
X123050000Y-81600000D02*
X123050000Y-89600000D01*
X123050000Y-87800000D02*
X105050000Y-87800000D01*
X105050000Y-89600000D02*
X105050000Y-81600000D01*
X105050000Y-81600000D02*
X123050000Y-81600000D01*
X114080000Y-87680000D02*
X114080000Y-83870000D01*
X114080000Y-83870000D02*
X115350000Y-86410000D01*
X115350000Y-86410000D02*
X112810000Y-86410000D01*
X112810000Y-86410000D02*
X114080000Y-83870000D01*
X123050000Y-89600000D02*
X105050000Y-89600000D01*
X89610000Y-97385000D02*
X81990000Y-97385000D01*
X81990000Y-97385000D02*
X81990000Y-82145000D01*
X81990000Y-82145000D02*
X89610000Y-82145000D01*
X89610000Y-82145000D02*
X89610000Y-97385000D01*
X94055000Y-110085000D02*
X94055000Y-115165000D01*
X94055000Y-115165000D02*
X43255000Y-115165000D01*
X43255000Y-115165000D02*
X43255000Y-110085000D01*
X43255000Y-110085000D02*
X94055000Y-110085000D01*
X37540000Y-56745000D02*
X38810000Y-58650000D01*
X38810000Y-58650000D02*
X40080000Y-56745000D01*
X38810000Y-50395000D02*
X38810000Y-58650000D01*
X40080000Y-56745000D02*
X37540000Y-56745000D01*
X51510000Y-56745000D02*
X52780000Y-58650000D01*
X54050000Y-56745000D02*
X51510000Y-56745000D01*
X52780000Y-58650000D02*
X54050000Y-56745000D01*
X52780000Y-50395000D02*
X52780000Y-58650000D01*
X45795000Y-50160000D02*
X45795000Y-71430000D01*
X61355000Y-50160000D02*
X30235000Y-50160000D01*
X30235000Y-71430000D02*
X30235000Y-50160000D01*
X45795000Y-71430000D02*
X30235000Y-71430000D01*
X61355000Y-71430000D02*
X61355000Y-50160000D01*
X45795000Y-71430000D02*
X61355000Y-71430000D01*
X84340000Y-98655000D02*
X84090000Y-98655000D01*
X87340000Y-98655000D02*
X87590000Y-98655000D01*
X86840000Y-97655000D02*
X86840000Y-99655000D01*
X87340000Y-99655000D02*
X87340000Y-97655000D01*
X87340000Y-97655000D02*
X84340000Y-97655000D01*
X84340000Y-97655000D02*
X84340000Y-99655000D01*
X84340000Y-99655000D02*
X87340000Y-99655000D01*
X29285000Y-91670000D02*
X28650000Y-91670000D01*
X29920000Y-91035000D02*
X29285000Y-91670000D01*
X29920000Y-85955000D02*
X29920000Y-91035000D01*
X29285000Y-85320000D02*
X29920000Y-85955000D01*
X28015000Y-85320000D02*
X29285000Y-85320000D01*
X27380000Y-85955000D02*
X28015000Y-85320000D01*
X27380000Y-91035000D02*
X27380000Y-85955000D01*
X28015000Y-91670000D02*
X27380000Y-91035000D01*
X28650000Y-91670000D02*
X28015000Y-91670000D01*
X28650000Y-91670000D02*
X28650000Y-92305000D01*
X28650000Y-85320000D02*
X28650000Y-84685000D01*
X18490000Y-112645000D02*
X18490000Y-102445000D01*
X26690000Y-102445000D02*
X26690000Y-112645000D01*
X19490000Y-102545000D02*
X19490000Y-112645000D01*
X18490000Y-112625000D02*
X26690000Y-112625000D01*
X22935000Y-107545000D02*
X26690000Y-107545000D01*
X23790000Y-105005000D02*
G75*
G03*
X23790000Y-105005000I-1500000J0D01*
G01*
X21030000Y-108180000D02*
X22300000Y-107545000D01*
X23790000Y-110085000D02*
G75*
G03*
X23790000Y-110085000I-1500000J0D01*
G01*
X21030000Y-106910000D02*
X21030000Y-108180000D01*
X22300000Y-107545000D02*
X21030000Y-106910000D01*
X18490000Y-107545000D02*
X22300000Y-107545000D01*
X18490000Y-102465000D02*
X26690000Y-102465000D01*
X64005000Y-76635000D02*
X60605000Y-76635000D01*
X60120121Y-79328127D02*
G75*
G03*
X62305000Y-80735000I2184879J993127D01*
G01*
X64489879Y-79328127D02*
G75*
G02*
X62305000Y-80735000I-2184879J993127D01*
G01*
X60117305Y-77338010D02*
G75*
G02*
X60605000Y-76635000I2187695J-996990D01*
G01*
X64492695Y-77338010D02*
G75*
G03*
X64005000Y-76635000I-2187695J-996990D01*
G01*
X48970000Y-78970000D02*
X48970000Y-78335000D01*
X49605000Y-79605000D02*
X48970000Y-78970000D01*
X54685000Y-79605000D02*
X49605000Y-79605000D01*
X55320000Y-78970000D02*
X54685000Y-79605000D01*
X55320000Y-77700000D02*
X55320000Y-78970000D01*
X54685000Y-77065000D02*
X55320000Y-77700000D01*
X49605000Y-77065000D02*
X54685000Y-77065000D01*
X48970000Y-77700000D02*
X49605000Y-77065000D01*
X48970000Y-78335000D02*
X48970000Y-77700000D01*
X48970000Y-78335000D02*
X48335000Y-78335000D01*
X55320000Y-78335000D02*
X55955000Y-78335000D01*
X98500000Y-102465000D02*
X90300000Y-102465000D01*
X90300000Y-102465000D02*
X90300000Y-82165000D01*
X90300000Y-82165000D02*
X98500000Y-82165000D01*
X98500000Y-82165000D02*
X98500000Y-102465000D01*
X96200000Y-99925000D02*
G75*
G03*
X96200000Y-99925000I-1500000J0D01*
G01*
X97500000Y-102465000D02*
X97500000Y-82165000D01*
X96200000Y-94845000D02*
G75*
G03*
X96200000Y-94845000I-1500000J0D01*
G01*
X96200000Y-89765000D02*
G75*
G03*
X96200000Y-89765000I-1500000J0D01*
G01*
X96200000Y-84685000D02*
G75*
G03*
X96200000Y-84685000I-1500000J0D01*
G01*
X98500000Y-92305000D02*
X94690000Y-92305000D01*
X94690000Y-92305000D02*
X95960000Y-92940000D01*
X95960000Y-92940000D02*
X95960000Y-91670000D01*
X95960000Y-91670000D02*
X94690000Y-92305000D01*
X98500000Y-97385000D02*
X90300000Y-97385000D01*
X94055000Y-92305000D02*
X90300000Y-92305000D01*
X98500000Y-87225000D02*
X90300000Y-87225000D01*
X32270000Y-86955000D02*
X35270000Y-86955000D01*
X32270000Y-84955000D02*
X32270000Y-86955000D01*
X35270000Y-84955000D02*
X32270000Y-84955000D01*
X35270000Y-86955000D02*
X35270000Y-84955000D01*
X34770000Y-84955000D02*
X34770000Y-86955000D01*
X35270000Y-85955000D02*
X35520000Y-85955000D01*
X32270000Y-85955000D02*
X32020000Y-85955000D01*
X57225000Y-99290000D02*
X57225000Y-99925000D01*
X57225000Y-92940000D02*
X57225000Y-92305000D01*
X57225000Y-92940000D02*
X57860000Y-92940000D01*
X57860000Y-92940000D02*
X58495000Y-93575000D01*
X58495000Y-93575000D02*
X58495000Y-98655000D01*
X58495000Y-98655000D02*
X57860000Y-99290000D01*
X57860000Y-99290000D02*
X56590000Y-99290000D01*
X56590000Y-99290000D02*
X55955000Y-98655000D01*
X55955000Y-98655000D02*
X55955000Y-93575000D01*
X55955000Y-93575000D02*
X56590000Y-92940000D01*
X56590000Y-92940000D02*
X57225000Y-92940000D01*
X87500000Y-99495000D02*
X84100000Y-99495000D01*
X87987695Y-100198010D02*
G75*
G03*
X87500000Y-99495000I-2187695J-996990D01*
G01*
X83612305Y-100198010D02*
G75*
G02*
X84100000Y-99495000I2187695J-996990D01*
G01*
X87984879Y-102188127D02*
G75*
G02*
X85800000Y-103595000I-2184879J993127D01*
G01*
X83615121Y-102188127D02*
G75*
G03*
X85800000Y-103595000I2184879J993127D01*
G01*
X64005000Y-99495000D02*
X60605000Y-99495000D01*
X60120121Y-102188127D02*
G75*
G03*
X62305000Y-103595000I2184879J993127D01*
G01*
X64489879Y-102188127D02*
G75*
G02*
X62305000Y-103595000I-2184879J993127D01*
G01*
X60117305Y-100198010D02*
G75*
G02*
X60605000Y-99495000I2187695J-996990D01*
G01*
X64492695Y-100198010D02*
G75*
G03*
X64005000Y-99495000I-2187695J-996990D01*
G01*
X87500000Y-76635000D02*
X84100000Y-76635000D01*
X87987695Y-77338010D02*
G75*
G03*
X87500000Y-76635000I-2187695J-996990D01*
G01*
X83612305Y-77338010D02*
G75*
G02*
X84100000Y-76635000I2187695J-996990D01*
G01*
X87984879Y-79328127D02*
G75*
G02*
X85800000Y-80735000I-2184879J993127D01*
G01*
X83615121Y-79328127D02*
G75*
G03*
X85800000Y-80735000I2184879J993127D01*
G01*
X35430000Y-81715000D02*
X32030000Y-81715000D01*
X35917695Y-82418010D02*
G75*
G03*
X35430000Y-81715000I-2187695J-996990D01*
G01*
X31542305Y-82418010D02*
G75*
G02*
X32030000Y-81715000I2187695J-996990D01*
G01*
X35914879Y-84408127D02*
G75*
G02*
X33730000Y-85815000I-2184879J993127D01*
G01*
X31545121Y-84408127D02*
G75*
G03*
X33730000Y-85815000I2184879J993127D01*
G01*
X28650000Y-98020000D02*
X28650000Y-97385000D01*
X28650000Y-104370000D02*
X28650000Y-105005000D01*
X28650000Y-104370000D02*
X28015000Y-104370000D01*
X28015000Y-104370000D02*
X27380000Y-103735000D01*
X27380000Y-103735000D02*
X27380000Y-98655000D01*
X27380000Y-98655000D02*
X28015000Y-98020000D01*
X28015000Y-98020000D02*
X29285000Y-98020000D01*
X29285000Y-98020000D02*
X29920000Y-98655000D01*
X29920000Y-98655000D02*
X29920000Y-103735000D01*
X29920000Y-103735000D02*
X29285000Y-104370000D01*
X29285000Y-104370000D02*
X28650000Y-104370000D01*
X37540000Y-102465000D02*
X29920000Y-102465000D01*
X29920000Y-102465000D02*
X29920000Y-87225000D01*
X29920000Y-87225000D02*
X37540000Y-87225000D01*
X37540000Y-87225000D02*
X37540000Y-102465000D01*
X35430000Y-104575000D02*
X32030000Y-104575000D01*
X31545121Y-107268127D02*
G75*
G03*
X33730000Y-108675000I2184879J993127D01*
G01*
X35914879Y-107268127D02*
G75*
G02*
X33730000Y-108675000I-2184879J993127D01*
G01*
X31542305Y-105278010D02*
G75*
G02*
X32030000Y-104575000I2187695J-996990D01*
G01*
X35917695Y-105278010D02*
G75*
G03*
X35430000Y-104575000I-2187695J-996990D01*
G01*
X81355000Y-86590000D02*
X80720000Y-86590000D01*
X81990000Y-85955000D02*
X81355000Y-86590000D01*
X81990000Y-80875000D02*
X81990000Y-85955000D01*
X81355000Y-80240000D02*
X81990000Y-80875000D01*
X80085000Y-80240000D02*
X81355000Y-80240000D01*
X79450000Y-80875000D02*
X80085000Y-80240000D01*
X79450000Y-85955000D02*
X79450000Y-80875000D01*
X80085000Y-86590000D02*
X79450000Y-85955000D01*
X80720000Y-86590000D02*
X80085000Y-86590000D01*
X80720000Y-86590000D02*
X80720000Y-87225000D01*
X80720000Y-80240000D02*
X80720000Y-79605000D01*
X80720000Y-92940000D02*
X80720000Y-92305000D01*
X80720000Y-99290000D02*
X80720000Y-99925000D01*
X80720000Y-99290000D02*
X80085000Y-99290000D01*
X80085000Y-99290000D02*
X79450000Y-98655000D01*
X79450000Y-98655000D02*
X79450000Y-93575000D01*
X79450000Y-93575000D02*
X80085000Y-92940000D01*
X80085000Y-92940000D02*
X81355000Y-92940000D01*
X81355000Y-92940000D02*
X81990000Y-93575000D01*
X81990000Y-93575000D02*
X81990000Y-98655000D01*
X81990000Y-98655000D02*
X81355000Y-99290000D01*
X81355000Y-99290000D02*
X80720000Y-99290000D01*
X66115000Y-82145000D02*
X66115000Y-97385000D01*
X58495000Y-82145000D02*
X66115000Y-82145000D01*
X58495000Y-97385000D02*
X58495000Y-82145000D01*
X66115000Y-97385000D02*
X58495000Y-97385000D01*
X18490000Y-96750000D02*
X26690000Y-96750000D01*
X22935000Y-91670000D02*
X26690000Y-91670000D01*
X18490000Y-86590000D02*
X26690000Y-86590000D01*
X21030000Y-92305000D02*
X22300000Y-91670000D01*
X21030000Y-91035000D02*
X21030000Y-92305000D01*
X22300000Y-91670000D02*
X21030000Y-91035000D01*
X18490000Y-91670000D02*
X22300000Y-91670000D01*
X23790000Y-99290000D02*
G75*
G03*
X23790000Y-99290000I-1500000J0D01*
G01*
X23790000Y-94210000D02*
G75*
G03*
X23790000Y-94210000I-1500000J0D01*
G01*
X23790000Y-89130000D02*
G75*
G03*
X23790000Y-89130000I-1500000J0D01*
G01*
X19490000Y-81510000D02*
X19490000Y-101810000D01*
X23790000Y-84050000D02*
G75*
G03*
X23790000Y-84050000I-1500000J0D01*
G01*
X18490000Y-101810000D02*
X18490000Y-81510000D01*
X26690000Y-101810000D02*
X18490000Y-101810000D01*
X26690000Y-81510000D02*
X26690000Y-101810000D01*
X18490000Y-81510000D02*
X26690000Y-81510000D01*
X60845000Y-99655000D02*
X63845000Y-99655000D01*
X60845000Y-97655000D02*
X60845000Y-99655000D01*
X63845000Y-97655000D02*
X60845000Y-97655000D01*
X63845000Y-99655000D02*
X63845000Y-97655000D01*
X63345000Y-97655000D02*
X63345000Y-99655000D01*
X63845000Y-98655000D02*
X64095000Y-98655000D01*
X60845000Y-98655000D02*
X60595000Y-98655000D01*
X84340000Y-81875000D02*
X87340000Y-81875000D01*
X84340000Y-79875000D02*
X84340000Y-81875000D01*
X87340000Y-79875000D02*
X84340000Y-79875000D01*
X87340000Y-81875000D02*
X87340000Y-79875000D01*
X86840000Y-79875000D02*
X86840000Y-81875000D01*
X87340000Y-80875000D02*
X87590000Y-80875000D01*
X84340000Y-80875000D02*
X84090000Y-80875000D01*
X32270000Y-103735000D02*
X32020000Y-103735000D01*
X35270000Y-103735000D02*
X35520000Y-103735000D01*
X34770000Y-102735000D02*
X34770000Y-104735000D01*
X35270000Y-104735000D02*
X35270000Y-102735000D01*
X35270000Y-102735000D02*
X32270000Y-102735000D01*
X32270000Y-102735000D02*
X32270000Y-104735000D01*
X32270000Y-104735000D02*
X35270000Y-104735000D01*
X77545000Y-71430000D02*
X93105000Y-71430000D01*
X93105000Y-71430000D02*
X93105000Y-50160000D01*
X77545000Y-71430000D02*
X61985000Y-71430000D01*
X61985000Y-71430000D02*
X61985000Y-50160000D01*
X93105000Y-50160000D02*
X61985000Y-50160000D01*
X77545000Y-50160000D02*
X77545000Y-71430000D01*
X84530000Y-50395000D02*
X84530000Y-58650000D01*
X84530000Y-58650000D02*
X85800000Y-56745000D01*
X85800000Y-56745000D02*
X83260000Y-56745000D01*
X83260000Y-56745000D02*
X84530000Y-58650000D01*
X71830000Y-56745000D02*
X69290000Y-56745000D01*
X70560000Y-50395000D02*
X70560000Y-58650000D01*
X70560000Y-58650000D02*
X71830000Y-56745000D01*
X69290000Y-56745000D02*
X70560000Y-58650000D01*
X76275000Y-81510000D02*
X78815000Y-81510000D01*
X78815000Y-73890000D02*
X78815000Y-81510000D01*
X76275000Y-73890000D02*
X78815000Y-73890000D01*
X76275000Y-81510000D02*
X76275000Y-73890000D01*
X60845000Y-81875000D02*
X63845000Y-81875000D01*
X60845000Y-79875000D02*
X60845000Y-81875000D01*
X63845000Y-79875000D02*
X60845000Y-79875000D01*
X63845000Y-81875000D02*
X63845000Y-79875000D01*
X63345000Y-79875000D02*
X63345000Y-81875000D01*
X63845000Y-80875000D02*
X64095000Y-80875000D01*
X60845000Y-80875000D02*
X60595000Y-80875000D01*
X20320000Y-31115000D02*
X20320000Y-31750000D01*
X20320000Y-24765000D02*
X20320000Y-24130000D01*
X20320000Y-24765000D02*
X20955000Y-24765000D01*
X20955000Y-24765000D02*
X21590000Y-25400000D01*
X21590000Y-25400000D02*
X21590000Y-30480000D01*
X21590000Y-30480000D02*
X20955000Y-31115000D01*
X20955000Y-31115000D02*
X19685000Y-31115000D01*
X19685000Y-31115000D02*
X19050000Y-30480000D01*
X19050000Y-30480000D02*
X19050000Y-25400000D01*
X19050000Y-25400000D02*
X19685000Y-24765000D01*
X19685000Y-24765000D02*
X20320000Y-24765000D01*
X18745000Y-21700000D02*
X22145000Y-21700000D01*
X18257305Y-20996990D02*
G75*
G03*
X18745000Y-21700000I2187695J996990D01*
G01*
X22632695Y-20996990D02*
G75*
G02*
X22145000Y-21700000I-2187695J996990D01*
G01*
X18260121Y-19006873D02*
G75*
G02*
X20445000Y-17600000I2184879J-993127D01*
G01*
X22629879Y-19006873D02*
G75*
G03*
X20445000Y-17600000I-2184879J-993127D01*
G01*
X68070000Y-16910000D02*
X42670000Y-16910000D01*
X42670000Y-16910000D02*
X42670000Y-14370000D01*
X42670000Y-14370000D02*
X68070000Y-14370000D01*
X75690000Y-16910000D02*
X68070000Y-16910000D01*
X68070000Y-14370000D02*
X75690000Y-14370000D01*
X93470000Y-16910000D02*
X93470000Y-14370000D01*
X93470000Y-14370000D02*
X75690000Y-14370000D01*
X75690000Y-16910000D02*
X93470000Y-16910000D01*
X41800000Y-45650000D02*
X41800000Y-27650000D01*
X44990000Y-35410000D02*
X47530000Y-36680000D01*
X44990000Y-37950000D02*
X44990000Y-35410000D01*
X47530000Y-36680000D02*
X44990000Y-37950000D01*
X43720000Y-36680000D02*
X47530000Y-36680000D01*
X49800000Y-27650000D02*
X49800000Y-45650000D01*
X41800000Y-27650000D02*
X49800000Y-27650000D01*
X43600000Y-45650000D02*
X43600000Y-27650000D01*
X49800000Y-45650000D02*
X41800000Y-45650000D01*
X83905000Y21190000D02*
G75*
G03*
X83905000Y21190000I-2500000J0D01*
G01*
X33390000Y-6115000D02*
G75*
G03*
X33390000Y-6115000I-8500000J0D01*
G01*
X60450000Y22460000D02*
X60450000Y19920000D01*
X60450000Y19920000D02*
X78230000Y19920000D01*
X78230000Y19920000D02*
X78230000Y22460000D01*
X78230000Y22460000D02*
X60450000Y22460000D01*
X36955000Y22460000D02*
X36955000Y14260000D01*
X36955000Y14260000D02*
X16655000Y14260000D01*
X16655000Y14260000D02*
X16655000Y22460000D01*
X16655000Y22460000D02*
X36955000Y22460000D01*
X35915000Y18660000D02*
G75*
G03*
X35915000Y18660000I-1500000J0D01*
G01*
X36955000Y21460000D02*
X16655000Y21460000D01*
X30835000Y18660000D02*
G75*
G03*
X30835000Y18660000I-1500000J0D01*
G01*
X25755000Y18660000D02*
G75*
G03*
X25755000Y18660000I-1500000J0D01*
G01*
X20675000Y18660000D02*
G75*
G03*
X20675000Y18660000I-1500000J0D01*
G01*
X26795000Y22460000D02*
X26795000Y18650000D01*
X26795000Y18650000D02*
X27430000Y19920000D01*
X27430000Y19920000D02*
X26160000Y19920000D01*
X26160000Y19920000D02*
X26795000Y18650000D01*
X31875000Y22460000D02*
X31875000Y14260000D01*
X26795000Y18015000D02*
X26795000Y14260000D01*
X21715000Y22460000D02*
X21715000Y14260000D01*
X60450000Y-10560000D02*
X60450000Y-13100000D01*
X60450000Y-13100000D02*
X78230000Y-13100000D01*
X78230000Y-13100000D02*
X78230000Y-10560000D01*
X78230000Y-10560000D02*
X60450000Y-10560000D01*
X24255000Y-16000000D02*
G75*
G03*
X24255000Y-16000000I-1270000J0D01*
G01*
X21080000Y-14730000D02*
X19810000Y-14730000D01*
X43180000Y19920000D02*
X38100000Y19920000D01*
X38100000Y19920000D02*
X38100000Y22460000D01*
X38100000Y22460000D02*
X43180000Y22460000D01*
X43180000Y19920000D02*
X43180000Y22460000D01*
X104265000Y-23260000D02*
X104265000Y-15060000D01*
X109345000Y-23260000D02*
X109345000Y-19450000D01*
X109345000Y-19450000D02*
X108710000Y-20720000D01*
X108710000Y-20720000D02*
X109980000Y-20720000D01*
X113385000Y-19460000D02*
G75*
G03*
X113385000Y-19460000I-1500000J0D01*
G01*
X109980000Y-20720000D02*
X109345000Y-19450000D01*
X108305000Y-19460000D02*
G75*
G03*
X108305000Y-19460000I-1500000J0D01*
G01*
X109345000Y-18815000D02*
X109345000Y-15060000D01*
X114425000Y-23260000D02*
X114425000Y-15060000D01*
X104345000Y-22260000D02*
X114445000Y-22260000D01*
X104245000Y-15060000D02*
X114445000Y-15060000D01*
X114445000Y-23260000D02*
X104245000Y-23260000D01*
X72400000Y-27650000D02*
X80400000Y-27650000D01*
X78600000Y-27650000D02*
X78600000Y-45650000D01*
X80400000Y-45650000D02*
X72400000Y-45650000D01*
X72400000Y-45650000D02*
X72400000Y-27650000D01*
X78480000Y-36620000D02*
X74670000Y-36620000D01*
X74670000Y-36620000D02*
X77210000Y-35350000D01*
X77210000Y-35350000D02*
X77210000Y-37890000D01*
X77210000Y-37890000D02*
X74670000Y-36620000D01*
X80400000Y-27650000D02*
X80400000Y-45650000D01*
X52830000Y17460000D02*
X37270000Y17460000D01*
X37270000Y17460000D02*
X37270000Y-3810000D01*
X52830000Y17460000D02*
X68390000Y17460000D01*
X68390000Y17460000D02*
X68390000Y-3810000D01*
X37270000Y-3810000D02*
X68390000Y-3810000D01*
X52830000Y-3810000D02*
X52830000Y17460000D01*
X45845000Y-3575000D02*
X45845000Y4680000D01*
X45845000Y4680000D02*
X44575000Y2775000D01*
X44575000Y2775000D02*
X47115000Y2775000D01*
X47115000Y2775000D02*
X45845000Y4680000D01*
X58545000Y2775000D02*
X61085000Y2775000D01*
X59815000Y-3575000D02*
X59815000Y4680000D01*
X59815000Y4680000D02*
X58545000Y2775000D01*
X61085000Y2775000D02*
X59815000Y4680000D01*
X92835000Y2775000D02*
X91565000Y4680000D01*
X91565000Y4680000D02*
X90295000Y2775000D01*
X91565000Y-3575000D02*
X91565000Y4680000D01*
X90295000Y2775000D02*
X92835000Y2775000D01*
X78865000Y2775000D02*
X77595000Y4680000D01*
X76325000Y2775000D02*
X78865000Y2775000D01*
X77595000Y4680000D02*
X76325000Y2775000D01*
X77595000Y-3575000D02*
X77595000Y4680000D01*
X84580000Y-3810000D02*
X84580000Y17460000D01*
X69020000Y-3810000D02*
X100140000Y-3810000D01*
X100140000Y17460000D02*
X100140000Y-3810000D01*
X84580000Y17460000D02*
X100140000Y17460000D01*
X69020000Y17460000D02*
X69020000Y-3810000D01*
X84580000Y17460000D02*
X69020000Y17460000D01*
X114065000Y7805000D02*
X131845000Y7805000D01*
X114065000Y10345000D02*
X114065000Y7805000D01*
X131845000Y10345000D02*
X114065000Y10345000D01*
X131845000Y7805000D02*
X131845000Y10345000D01*
X21530000Y-43110000D02*
X24070000Y-43110000D01*
X24070000Y-43110000D02*
X24070000Y-25330000D01*
X24070000Y-25330000D02*
X21530000Y-25330000D01*
X21530000Y-25330000D02*
X21530000Y-43110000D01*
X26923188Y-18531933D02*
X27536551Y-18696283D01*
X26145475Y-18980945D02*
X26923188Y-18531933D01*
X24830674Y-23887849D02*
X26145475Y-18980945D01*
X25279687Y-24665562D02*
X24830674Y-23887849D01*
X26506413Y-24994262D02*
X25279687Y-24665562D01*
X27284126Y-24545249D02*
X26506413Y-24994262D01*
X28598926Y-19638346D02*
X27284126Y-24545249D01*
X28149914Y-18860633D02*
X28598926Y-19638346D01*
X27536551Y-18696283D02*
X28149914Y-18860633D01*
X27536551Y-18696283D02*
X27700901Y-18082920D01*
X25893050Y-24829912D02*
X25728700Y-25443275D01*
X17780000Y-36195000D02*
X17780000Y-36830000D01*
X17780000Y-29845000D02*
X17780000Y-29210000D01*
X17780000Y-29845000D02*
X18415000Y-29845000D01*
X18415000Y-29845000D02*
X19050000Y-30480000D01*
X19050000Y-30480000D02*
X19050000Y-35560000D01*
X19050000Y-35560000D02*
X18415000Y-36195000D01*
X18415000Y-36195000D02*
X17145000Y-36195000D01*
X17145000Y-36195000D02*
X16510000Y-35560000D01*
X16510000Y-35560000D02*
X16510000Y-30480000D01*
X16510000Y-30480000D02*
X17145000Y-29845000D01*
X17145000Y-29845000D02*
X17780000Y-29845000D01*
X32881571Y-36516286D02*
X33457076Y-36247924D01*
X27126516Y-39199912D02*
X26551011Y-39468275D01*
X27126516Y-39199912D02*
X26858154Y-38624407D01*
X26858154Y-38624407D02*
X27165297Y-37780539D01*
X27165297Y-37780539D02*
X31769340Y-35633638D01*
X31769340Y-35633638D02*
X32613208Y-35940781D01*
X32613208Y-35940781D02*
X33149933Y-37091792D01*
X33149933Y-37091792D02*
X32842791Y-37935660D01*
X32842791Y-37935660D02*
X28238747Y-40082561D01*
X28238747Y-40082561D02*
X27394879Y-39775418D01*
X27394879Y-39775418D02*
X27126516Y-39199912D01*
X26670000Y-42545000D02*
X34290000Y-42545000D01*
X34290000Y-42545000D02*
X34290000Y-45085000D01*
X34290000Y-45085000D02*
X26670000Y-45085000D01*
X26670000Y-42545000D02*
X26670000Y-45085000D01*
X96480000Y-28220000D02*
X96480000Y-40920000D01*
X99020000Y-40920000D02*
X99020000Y-28220000D01*
X99020000Y-28220000D02*
X96480000Y-28220000D01*
X96480000Y-40920000D02*
X99020000Y-40920000D01*
D14*
X140350000Y-33650000D02*
G75*
G03*
X140350000Y-33650000I-2500000J0D01*
G01*
D10*
X136580000Y-31110000D02*
X139120000Y-31110000D01*
X139211468Y-31089452D02*
G75*
G02*
X140750000Y-33650000I-1361468J-2560548D01*
G01*
X136488532Y-31089452D02*
G75*
G03*
X134950000Y-33650000I1361468J-2560548D01*
G01*
X134950000Y-33650000D02*
G75*
G03*
X137850000Y-36550000I2900000J0D01*
G01*
X137850000Y-36550000D02*
G75*
G03*
X140750000Y-33650000I0J2900000D01*
G01*
X105611904Y-51502380D02*
X105611904Y-50502380D01*
X105611904Y-50978571D02*
X106183333Y-50978571D01*
X106183333Y-51502380D02*
X106183333Y-50502380D01*
X107183333Y-51502380D02*
X106611904Y-51502380D01*
X106897619Y-51502380D02*
X106897619Y-50502380D01*
X106802380Y-50645238D01*
X106707142Y-50740476D01*
X106611904Y-50788095D01*
X107802380Y-50502380D02*
X107897619Y-50502380D01*
X107992857Y-50550000D01*
X108040476Y-50597619D01*
X108088095Y-50692857D01*
X108135714Y-50883333D01*
X108135714Y-51121428D01*
X108088095Y-51311904D01*
X108040476Y-51407142D01*
X107992857Y-51454761D01*
X107897619Y-51502380D01*
X107802380Y-51502380D01*
X107707142Y-51454761D01*
X107659523Y-51407142D01*
X107611904Y-51311904D01*
X107564285Y-51121428D01*
X107564285Y-50883333D01*
X107611904Y-50692857D01*
X107659523Y-50597619D01*
X107707142Y-50550000D01*
X107802380Y-50502380D01*
X108400952Y-48102380D02*
X108591428Y-48102380D01*
X108686666Y-48150000D01*
X108781904Y-48245238D01*
X108829523Y-48435714D01*
X108829523Y-48769047D01*
X108781904Y-48959523D01*
X108686666Y-49054761D01*
X108591428Y-49102380D01*
X108400952Y-49102380D01*
X108305714Y-49054761D01*
X108210476Y-48959523D01*
X108162857Y-48769047D01*
X108162857Y-48435714D01*
X108210476Y-48245238D01*
X108305714Y-48150000D01*
X108400952Y-48102380D01*
X109686666Y-48435714D02*
X109686666Y-49102380D01*
X109258095Y-48435714D02*
X109258095Y-48959523D01*
X109305714Y-49054761D01*
X109400952Y-49102380D01*
X109543809Y-49102380D01*
X109639047Y-49054761D01*
X109686666Y-49007142D01*
X110020000Y-48435714D02*
X110400952Y-48435714D01*
X110162857Y-48102380D02*
X110162857Y-48959523D01*
X110210476Y-49054761D01*
X110305714Y-49102380D01*
X110400952Y-49102380D01*
X110686666Y-49054761D02*
X110781904Y-49102380D01*
X110972380Y-49102380D01*
X111067619Y-49054761D01*
X111115238Y-48959523D01*
X111115238Y-48911904D01*
X111067619Y-48816666D01*
X110972380Y-48769047D01*
X110829523Y-48769047D01*
X110734285Y-48721428D01*
X110686666Y-48626190D01*
X110686666Y-48578571D01*
X110734285Y-48483333D01*
X110829523Y-48435714D01*
X110972380Y-48435714D01*
X111067619Y-48483333D01*
X111543809Y-49102380D02*
X111543809Y-48435714D01*
X111543809Y-48102380D02*
X111496190Y-48150000D01*
X111543809Y-48197619D01*
X111591428Y-48150000D01*
X111543809Y-48102380D01*
X111543809Y-48197619D01*
X112448571Y-49102380D02*
X112448571Y-48102380D01*
X112448571Y-49054761D02*
X112353333Y-49102380D01*
X112162857Y-49102380D01*
X112067619Y-49054761D01*
X112020000Y-49007142D01*
X111972380Y-48911904D01*
X111972380Y-48626190D01*
X112020000Y-48530952D01*
X112067619Y-48483333D01*
X112162857Y-48435714D01*
X112353333Y-48435714D01*
X112448571Y-48483333D01*
X113305714Y-49054761D02*
X113210476Y-49102380D01*
X113020000Y-49102380D01*
X112924761Y-49054761D01*
X112877142Y-48959523D01*
X112877142Y-48578571D01*
X112924761Y-48483333D01*
X113020000Y-48435714D01*
X113210476Y-48435714D01*
X113305714Y-48483333D01*
X113353333Y-48578571D01*
X113353333Y-48673809D01*
X112877142Y-48769047D01*
X114400952Y-48435714D02*
X114781904Y-48435714D01*
X114543809Y-48102380D02*
X114543809Y-48959523D01*
X114591428Y-49054761D01*
X114686666Y-49102380D01*
X114781904Y-49102380D01*
X115115238Y-49102380D02*
X115115238Y-48102380D01*
X115543809Y-49102380D02*
X115543809Y-48578571D01*
X115496190Y-48483333D01*
X115400952Y-48435714D01*
X115258095Y-48435714D01*
X115162857Y-48483333D01*
X115115238Y-48530952D01*
X116400952Y-49054761D02*
X116305714Y-49102380D01*
X116115238Y-49102380D01*
X116020000Y-49054761D01*
X115972380Y-48959523D01*
X115972380Y-48578571D01*
X116020000Y-48483333D01*
X116115238Y-48435714D01*
X116305714Y-48435714D01*
X116400952Y-48483333D01*
X116448571Y-48578571D01*
X116448571Y-48673809D01*
X115972380Y-48769047D01*
X117639047Y-48435714D02*
X117639047Y-49435714D01*
X117639047Y-48483333D02*
X117734285Y-48435714D01*
X117924761Y-48435714D01*
X118020000Y-48483333D01*
X118067619Y-48530952D01*
X118115238Y-48626190D01*
X118115238Y-48911904D01*
X118067619Y-49007142D01*
X118020000Y-49054761D01*
X117924761Y-49102380D01*
X117734285Y-49102380D01*
X117639047Y-49054761D01*
X118972380Y-49054761D02*
X118877142Y-49102380D01*
X118686666Y-49102380D01*
X118591428Y-49054761D01*
X118543809Y-49007142D01*
X118496190Y-48911904D01*
X118496190Y-48626190D01*
X118543809Y-48530952D01*
X118591428Y-48483333D01*
X118686666Y-48435714D01*
X118877142Y-48435714D01*
X118972380Y-48483333D01*
X119400952Y-49102380D02*
X119400952Y-48102380D01*
X119400952Y-48483333D02*
X119496190Y-48435714D01*
X119686666Y-48435714D01*
X119781904Y-48483333D01*
X119829523Y-48530952D01*
X119877142Y-48626190D01*
X119877142Y-48911904D01*
X119829523Y-49007142D01*
X119781904Y-49054761D01*
X119686666Y-49102380D01*
X119496190Y-49102380D01*
X119400952Y-49054761D01*
X120588095Y-86952380D02*
X120588095Y-85952380D01*
X120588095Y-86428571D02*
X121159523Y-86428571D01*
X121159523Y-86952380D02*
X121159523Y-85952380D01*
X121540476Y-85952380D02*
X122159523Y-85952380D01*
X121826190Y-86333333D01*
X121969047Y-86333333D01*
X122064285Y-86380952D01*
X122111904Y-86428571D01*
X122159523Y-86523809D01*
X122159523Y-86761904D01*
X122111904Y-86857142D01*
X122064285Y-86904761D01*
X121969047Y-86952380D01*
X121683333Y-86952380D01*
X121588095Y-86904761D01*
X121540476Y-86857142D01*
X108460952Y-88402380D02*
X108651428Y-88402380D01*
X108746666Y-88450000D01*
X108841904Y-88545238D01*
X108889523Y-88735714D01*
X108889523Y-89069047D01*
X108841904Y-89259523D01*
X108746666Y-89354761D01*
X108651428Y-89402380D01*
X108460952Y-89402380D01*
X108365714Y-89354761D01*
X108270476Y-89259523D01*
X108222857Y-89069047D01*
X108222857Y-88735714D01*
X108270476Y-88545238D01*
X108365714Y-88450000D01*
X108460952Y-88402380D01*
X109746666Y-88735714D02*
X109746666Y-89402380D01*
X109318095Y-88735714D02*
X109318095Y-89259523D01*
X109365714Y-89354761D01*
X109460952Y-89402380D01*
X109603809Y-89402380D01*
X109699047Y-89354761D01*
X109746666Y-89307142D01*
X110080000Y-88735714D02*
X110460952Y-88735714D01*
X110222857Y-88402380D02*
X110222857Y-89259523D01*
X110270476Y-89354761D01*
X110365714Y-89402380D01*
X110460952Y-89402380D01*
X110746666Y-89354761D02*
X110841904Y-89402380D01*
X111032380Y-89402380D01*
X111127619Y-89354761D01*
X111175238Y-89259523D01*
X111175238Y-89211904D01*
X111127619Y-89116666D01*
X111032380Y-89069047D01*
X110889523Y-89069047D01*
X110794285Y-89021428D01*
X110746666Y-88926190D01*
X110746666Y-88878571D01*
X110794285Y-88783333D01*
X110889523Y-88735714D01*
X111032380Y-88735714D01*
X111127619Y-88783333D01*
X111603809Y-89402380D02*
X111603809Y-88735714D01*
X111603809Y-88402380D02*
X111556190Y-88450000D01*
X111603809Y-88497619D01*
X111651428Y-88450000D01*
X111603809Y-88402380D01*
X111603809Y-88497619D01*
X112508571Y-89402380D02*
X112508571Y-88402380D01*
X112508571Y-89354761D02*
X112413333Y-89402380D01*
X112222857Y-89402380D01*
X112127619Y-89354761D01*
X112080000Y-89307142D01*
X112032380Y-89211904D01*
X112032380Y-88926190D01*
X112080000Y-88830952D01*
X112127619Y-88783333D01*
X112222857Y-88735714D01*
X112413333Y-88735714D01*
X112508571Y-88783333D01*
X113365714Y-89354761D02*
X113270476Y-89402380D01*
X113080000Y-89402380D01*
X112984761Y-89354761D01*
X112937142Y-89259523D01*
X112937142Y-88878571D01*
X112984761Y-88783333D01*
X113080000Y-88735714D01*
X113270476Y-88735714D01*
X113365714Y-88783333D01*
X113413333Y-88878571D01*
X113413333Y-88973809D01*
X112937142Y-89069047D01*
X114460952Y-88735714D02*
X114841904Y-88735714D01*
X114603809Y-88402380D02*
X114603809Y-89259523D01*
X114651428Y-89354761D01*
X114746666Y-89402380D01*
X114841904Y-89402380D01*
X115175238Y-89402380D02*
X115175238Y-88402380D01*
X115603809Y-89402380D02*
X115603809Y-88878571D01*
X115556190Y-88783333D01*
X115460952Y-88735714D01*
X115318095Y-88735714D01*
X115222857Y-88783333D01*
X115175238Y-88830952D01*
X116460952Y-89354761D02*
X116365714Y-89402380D01*
X116175238Y-89402380D01*
X116080000Y-89354761D01*
X116032380Y-89259523D01*
X116032380Y-88878571D01*
X116080000Y-88783333D01*
X116175238Y-88735714D01*
X116365714Y-88735714D01*
X116460952Y-88783333D01*
X116508571Y-88878571D01*
X116508571Y-88973809D01*
X116032380Y-89069047D01*
X117699047Y-88735714D02*
X117699047Y-89735714D01*
X117699047Y-88783333D02*
X117794285Y-88735714D01*
X117984761Y-88735714D01*
X118080000Y-88783333D01*
X118127619Y-88830952D01*
X118175238Y-88926190D01*
X118175238Y-89211904D01*
X118127619Y-89307142D01*
X118080000Y-89354761D01*
X117984761Y-89402380D01*
X117794285Y-89402380D01*
X117699047Y-89354761D01*
X119032380Y-89354761D02*
X118937142Y-89402380D01*
X118746666Y-89402380D01*
X118651428Y-89354761D01*
X118603809Y-89307142D01*
X118556190Y-89211904D01*
X118556190Y-88926190D01*
X118603809Y-88830952D01*
X118651428Y-88783333D01*
X118746666Y-88735714D01*
X118937142Y-88735714D01*
X119032380Y-88783333D01*
X119460952Y-89402380D02*
X119460952Y-88402380D01*
X119460952Y-88783333D02*
X119556190Y-88735714D01*
X119746666Y-88735714D01*
X119841904Y-88783333D01*
X119889523Y-88830952D01*
X119937142Y-88926190D01*
X119937142Y-89211904D01*
X119889523Y-89307142D01*
X119841904Y-89354761D01*
X119746666Y-89402380D01*
X119556190Y-89402380D01*
X119460952Y-89354761D01*
X90173571Y-97305476D02*
X90173571Y-96972142D01*
X90697380Y-96829285D02*
X90697380Y-97305476D01*
X89697380Y-97305476D01*
X89697380Y-96829285D01*
X90602142Y-95829285D02*
X90649761Y-95876904D01*
X90697380Y-96019761D01*
X90697380Y-96115000D01*
X90649761Y-96257857D01*
X90554523Y-96353095D01*
X90459285Y-96400714D01*
X90268809Y-96448333D01*
X90125952Y-96448333D01*
X89935476Y-96400714D01*
X89840238Y-96353095D01*
X89745000Y-96257857D01*
X89697380Y-96115000D01*
X89697380Y-96019761D01*
X89745000Y-95876904D01*
X89792619Y-95829285D01*
X90697380Y-94876904D02*
X90697380Y-95448333D01*
X90697380Y-95162619D02*
X89697380Y-95162619D01*
X89840238Y-95257857D01*
X89935476Y-95353095D01*
X89983095Y-95448333D01*
X87268380Y-88034523D02*
X86268380Y-88034523D01*
X87268380Y-87463095D01*
X86268380Y-87463095D01*
X86268380Y-86796428D02*
X86268380Y-86605952D01*
X86316000Y-86510714D01*
X86411238Y-86415476D01*
X86601714Y-86367857D01*
X86935047Y-86367857D01*
X87125523Y-86415476D01*
X87220761Y-86510714D01*
X87268380Y-86605952D01*
X87268380Y-86796428D01*
X87220761Y-86891666D01*
X87125523Y-86986904D01*
X86935047Y-87034523D01*
X86601714Y-87034523D01*
X86411238Y-86986904D01*
X86316000Y-86891666D01*
X86268380Y-86796428D01*
X87268380Y-90550714D02*
X86268380Y-90550714D01*
X87268380Y-89979285D01*
X86268380Y-89979285D01*
X87173142Y-88931666D02*
X87220761Y-88979285D01*
X87268380Y-89122142D01*
X87268380Y-89217380D01*
X87220761Y-89360238D01*
X87125523Y-89455476D01*
X87030285Y-89503095D01*
X86839809Y-89550714D01*
X86696952Y-89550714D01*
X86506476Y-89503095D01*
X86411238Y-89455476D01*
X86316000Y-89360238D01*
X86268380Y-89217380D01*
X86268380Y-89122142D01*
X86316000Y-88979285D01*
X86363619Y-88931666D01*
X84855428Y-84748333D02*
X84855428Y-83986428D01*
X84236380Y-83319761D02*
X84236380Y-83129285D01*
X84284000Y-83034047D01*
X84379238Y-82938809D01*
X84569714Y-82891190D01*
X84903047Y-82891190D01*
X85093523Y-82938809D01*
X85188761Y-83034047D01*
X85236380Y-83129285D01*
X85236380Y-83319761D01*
X85188761Y-83415000D01*
X85093523Y-83510238D01*
X84903047Y-83557857D01*
X84569714Y-83557857D01*
X84379238Y-83510238D01*
X84284000Y-83415000D01*
X84236380Y-83319761D01*
X84712571Y-82129285D02*
X84712571Y-82462619D01*
X85236380Y-82462619D02*
X84236380Y-82462619D01*
X84236380Y-81986428D01*
X84855428Y-97543571D02*
X84855428Y-96781666D01*
X84236380Y-96115000D02*
X84236380Y-95924523D01*
X84284000Y-95829285D01*
X84379238Y-95734047D01*
X84569714Y-95686428D01*
X84903047Y-95686428D01*
X85093523Y-95734047D01*
X85188761Y-95829285D01*
X85236380Y-95924523D01*
X85236380Y-96115000D01*
X85188761Y-96210238D01*
X85093523Y-96305476D01*
X84903047Y-96353095D01*
X84569714Y-96353095D01*
X84379238Y-96305476D01*
X84284000Y-96210238D01*
X84236380Y-96115000D01*
X85236380Y-95257857D02*
X84236380Y-95257857D01*
X85236380Y-94686428D01*
X84236380Y-94686428D01*
X86887428Y-84748333D02*
X86887428Y-83986428D01*
X87268380Y-84367380D02*
X86506476Y-84367380D01*
X86268380Y-83319761D02*
X86268380Y-83129285D01*
X86316000Y-83034047D01*
X86411238Y-82938809D01*
X86601714Y-82891190D01*
X86935047Y-82891190D01*
X87125523Y-82938809D01*
X87220761Y-83034047D01*
X87268380Y-83129285D01*
X87268380Y-83319761D01*
X87220761Y-83415000D01*
X87125523Y-83510238D01*
X86935047Y-83557857D01*
X86601714Y-83557857D01*
X86411238Y-83510238D01*
X86316000Y-83415000D01*
X86268380Y-83319761D01*
X86744571Y-82129285D02*
X86744571Y-82462619D01*
X87268380Y-82462619D02*
X86268380Y-82462619D01*
X86268380Y-81986428D01*
X86887428Y-97543571D02*
X86887428Y-96781666D01*
X87268380Y-97162619D02*
X86506476Y-97162619D01*
X86268380Y-96115000D02*
X86268380Y-95924523D01*
X86316000Y-95829285D01*
X86411238Y-95734047D01*
X86601714Y-95686428D01*
X86935047Y-95686428D01*
X87125523Y-95734047D01*
X87220761Y-95829285D01*
X87268380Y-95924523D01*
X87268380Y-96115000D01*
X87220761Y-96210238D01*
X87125523Y-96305476D01*
X86935047Y-96353095D01*
X86601714Y-96353095D01*
X86411238Y-96305476D01*
X86316000Y-96210238D01*
X86268380Y-96115000D01*
X87268380Y-95257857D02*
X86268380Y-95257857D01*
X87268380Y-94686428D01*
X86268380Y-94686428D01*
X42437380Y-113529761D02*
X41961190Y-113863095D01*
X42437380Y-114101190D02*
X41437380Y-114101190D01*
X41437380Y-113720238D01*
X41485000Y-113625000D01*
X41532619Y-113577380D01*
X41627857Y-113529761D01*
X41770714Y-113529761D01*
X41865952Y-113577380D01*
X41913571Y-113625000D01*
X41961190Y-113720238D01*
X41961190Y-114101190D01*
X42437380Y-113101190D02*
X41437380Y-113101190D01*
X41437380Y-112720238D01*
X41485000Y-112625000D01*
X41532619Y-112577380D01*
X41627857Y-112529761D01*
X41770714Y-112529761D01*
X41865952Y-112577380D01*
X41913571Y-112625000D01*
X41961190Y-112720238D01*
X41961190Y-113101190D01*
X42437380Y-112101190D02*
X41770714Y-112101190D01*
X41437380Y-112101190D02*
X41485000Y-112148809D01*
X41532619Y-112101190D01*
X41485000Y-112053571D01*
X41437380Y-112101190D01*
X41532619Y-112101190D01*
X42437380Y-111101190D02*
X42437380Y-111672619D01*
X42437380Y-111386904D02*
X41437380Y-111386904D01*
X41580238Y-111482142D01*
X41675476Y-111577380D01*
X41723095Y-111672619D01*
X45247380Y-62277380D02*
X44914047Y-61801190D01*
X44675952Y-62277380D02*
X44675952Y-61277380D01*
X45056904Y-61277380D01*
X45152142Y-61325000D01*
X45199761Y-61372619D01*
X45247380Y-61467857D01*
X45247380Y-61610714D01*
X45199761Y-61705952D01*
X45152142Y-61753571D01*
X45056904Y-61801190D01*
X44675952Y-61801190D01*
X45961666Y-61277380D02*
X45961666Y-61991666D01*
X45914047Y-62134523D01*
X45818809Y-62229761D01*
X45675952Y-62277380D01*
X45580714Y-62277380D01*
X46342619Y-61277380D02*
X46961666Y-61277380D01*
X46628333Y-61658333D01*
X46771190Y-61658333D01*
X46866428Y-61705952D01*
X46914047Y-61753571D01*
X46961666Y-61848809D01*
X46961666Y-62086904D01*
X46914047Y-62182142D01*
X46866428Y-62229761D01*
X46771190Y-62277380D01*
X46485476Y-62277380D01*
X46390238Y-62229761D01*
X46342619Y-62182142D01*
X80799761Y-72977142D02*
X80752142Y-73024761D01*
X80609285Y-73072380D01*
X80514047Y-73072380D01*
X80371190Y-73024761D01*
X80275952Y-72929523D01*
X80228333Y-72834285D01*
X80180714Y-72643809D01*
X80180714Y-72500952D01*
X80228333Y-72310476D01*
X80275952Y-72215238D01*
X80371190Y-72120000D01*
X80514047Y-72072380D01*
X80609285Y-72072380D01*
X80752142Y-72120000D01*
X80799761Y-72167619D01*
X81656904Y-73072380D02*
X81656904Y-72548571D01*
X81609285Y-72453333D01*
X81514047Y-72405714D01*
X81323571Y-72405714D01*
X81228333Y-72453333D01*
X81656904Y-73024761D02*
X81561666Y-73072380D01*
X81323571Y-73072380D01*
X81228333Y-73024761D01*
X81180714Y-72929523D01*
X81180714Y-72834285D01*
X81228333Y-72739047D01*
X81323571Y-72691428D01*
X81561666Y-72691428D01*
X81656904Y-72643809D01*
X82133095Y-73072380D02*
X82133095Y-72072380D01*
X82133095Y-72453333D02*
X82228333Y-72405714D01*
X82418809Y-72405714D01*
X82514047Y-72453333D01*
X82561666Y-72500952D01*
X82609285Y-72596190D01*
X82609285Y-72881904D01*
X82561666Y-72977142D01*
X82514047Y-73024761D01*
X82418809Y-73072380D01*
X82228333Y-73072380D01*
X82133095Y-73024761D01*
X83180714Y-73072380D02*
X83085476Y-73024761D01*
X83037857Y-72929523D01*
X83037857Y-72072380D01*
X83942619Y-73024761D02*
X83847380Y-73072380D01*
X83656904Y-73072380D01*
X83561666Y-73024761D01*
X83514047Y-72929523D01*
X83514047Y-72548571D01*
X83561666Y-72453333D01*
X83656904Y-72405714D01*
X83847380Y-72405714D01*
X83942619Y-72453333D01*
X83990238Y-72548571D01*
X83990238Y-72643809D01*
X83514047Y-72739047D01*
X85704523Y-73072380D02*
X85133095Y-73072380D01*
X85418809Y-73072380D02*
X85418809Y-72072380D01*
X85323571Y-72215238D01*
X85228333Y-72310476D01*
X85133095Y-72358095D01*
X86847380Y-72024761D02*
X85990238Y-73310476D01*
X87371190Y-72596190D02*
X87371190Y-73072380D01*
X87037857Y-72072380D02*
X87371190Y-72596190D01*
X87704523Y-72072380D01*
X49613333Y-72977142D02*
X49565714Y-73024761D01*
X49422857Y-73072380D01*
X49327619Y-73072380D01*
X49184761Y-73024761D01*
X49089523Y-72929523D01*
X49041904Y-72834285D01*
X48994285Y-72643809D01*
X48994285Y-72500952D01*
X49041904Y-72310476D01*
X49089523Y-72215238D01*
X49184761Y-72120000D01*
X49327619Y-72072380D01*
X49422857Y-72072380D01*
X49565714Y-72120000D01*
X49613333Y-72167619D01*
X50470476Y-73072380D02*
X50470476Y-72548571D01*
X50422857Y-72453333D01*
X50327619Y-72405714D01*
X50137142Y-72405714D01*
X50041904Y-72453333D01*
X50470476Y-73024761D02*
X50375238Y-73072380D01*
X50137142Y-73072380D01*
X50041904Y-73024761D01*
X49994285Y-72929523D01*
X49994285Y-72834285D01*
X50041904Y-72739047D01*
X50137142Y-72691428D01*
X50375238Y-72691428D01*
X50470476Y-72643809D01*
X50946666Y-73072380D02*
X50946666Y-72072380D01*
X50946666Y-72453333D02*
X51041904Y-72405714D01*
X51232380Y-72405714D01*
X51327619Y-72453333D01*
X51375238Y-72500952D01*
X51422857Y-72596190D01*
X51422857Y-72881904D01*
X51375238Y-72977142D01*
X51327619Y-73024761D01*
X51232380Y-73072380D01*
X51041904Y-73072380D01*
X50946666Y-73024761D01*
X51994285Y-73072380D02*
X51899047Y-73024761D01*
X51851428Y-72929523D01*
X51851428Y-72072380D01*
X52756190Y-73024761D02*
X52660952Y-73072380D01*
X52470476Y-73072380D01*
X52375238Y-73024761D01*
X52327619Y-72929523D01*
X52327619Y-72548571D01*
X52375238Y-72453333D01*
X52470476Y-72405714D01*
X52660952Y-72405714D01*
X52756190Y-72453333D01*
X52803809Y-72548571D01*
X52803809Y-72643809D01*
X52327619Y-72739047D01*
X53946666Y-72167619D02*
X53994285Y-72120000D01*
X54089523Y-72072380D01*
X54327619Y-72072380D01*
X54422857Y-72120000D01*
X54470476Y-72167619D01*
X54518095Y-72262857D01*
X54518095Y-72358095D01*
X54470476Y-72500952D01*
X53899047Y-73072380D01*
X54518095Y-73072380D01*
X55660952Y-72024761D02*
X54803809Y-73310476D01*
X56518095Y-72120000D02*
X56422857Y-72072380D01*
X56280000Y-72072380D01*
X56137142Y-72120000D01*
X56041904Y-72215238D01*
X55994285Y-72310476D01*
X55946666Y-72500952D01*
X55946666Y-72643809D01*
X55994285Y-72834285D01*
X56041904Y-72929523D01*
X56137142Y-73024761D01*
X56280000Y-73072380D01*
X56375238Y-73072380D01*
X56518095Y-73024761D01*
X56565714Y-72977142D01*
X56565714Y-72643809D01*
X56375238Y-72643809D01*
X85061904Y-99107380D02*
X85061904Y-98107380D01*
X85300000Y-98107380D01*
X85442857Y-98155000D01*
X85538095Y-98250238D01*
X85585714Y-98345476D01*
X85633333Y-98535952D01*
X85633333Y-98678809D01*
X85585714Y-98869285D01*
X85538095Y-98964523D01*
X85442857Y-99059761D01*
X85300000Y-99107380D01*
X85061904Y-99107380D01*
X86490476Y-98440714D02*
X86490476Y-99107380D01*
X86252380Y-98059761D02*
X86014285Y-98774047D01*
X86633333Y-98774047D01*
X29102380Y-87232857D02*
X28626190Y-87566190D01*
X29102380Y-87804285D02*
X28102380Y-87804285D01*
X28102380Y-87423333D01*
X28150000Y-87328095D01*
X28197619Y-87280476D01*
X28292857Y-87232857D01*
X28435714Y-87232857D01*
X28530952Y-87280476D01*
X28578571Y-87328095D01*
X28626190Y-87423333D01*
X28626190Y-87804285D01*
X29102380Y-86280476D02*
X29102380Y-86851904D01*
X29102380Y-86566190D02*
X28102380Y-86566190D01*
X28245238Y-86661428D01*
X28340476Y-86756666D01*
X28388095Y-86851904D01*
X28102380Y-85661428D02*
X28102380Y-85566190D01*
X28150000Y-85470952D01*
X28197619Y-85423333D01*
X28292857Y-85375714D01*
X28483333Y-85328095D01*
X28721428Y-85328095D01*
X28911904Y-85375714D01*
X29007142Y-85423333D01*
X29054761Y-85470952D01*
X29102380Y-85566190D01*
X29102380Y-85661428D01*
X29054761Y-85756666D01*
X29007142Y-85804285D01*
X28911904Y-85851904D01*
X28721428Y-85899523D01*
X28483333Y-85899523D01*
X28292857Y-85851904D01*
X28197619Y-85804285D01*
X28150000Y-85756666D01*
X28102380Y-85661428D01*
X28102380Y-91217380D02*
X28102380Y-90598333D01*
X28483333Y-90931666D01*
X28483333Y-90788809D01*
X28530952Y-90693571D01*
X28578571Y-90645952D01*
X28673809Y-90598333D01*
X28911904Y-90598333D01*
X29007142Y-90645952D01*
X29054761Y-90693571D01*
X29102380Y-90788809D01*
X29102380Y-91074523D01*
X29054761Y-91169761D01*
X29007142Y-91217380D01*
X29007142Y-90169761D02*
X29054761Y-90122142D01*
X29102380Y-90169761D01*
X29054761Y-90217380D01*
X29007142Y-90169761D01*
X29102380Y-90169761D01*
X28102380Y-89788809D02*
X28102380Y-89169761D01*
X28483333Y-89503095D01*
X28483333Y-89360238D01*
X28530952Y-89265000D01*
X28578571Y-89217380D01*
X28673809Y-89169761D01*
X28911904Y-89169761D01*
X29007142Y-89217380D01*
X29054761Y-89265000D01*
X29102380Y-89360238D01*
X29102380Y-89645952D01*
X29054761Y-89741190D01*
X29007142Y-89788809D01*
X29102380Y-88741190D02*
X28102380Y-88741190D01*
X28721428Y-88645952D02*
X29102380Y-88360238D01*
X28435714Y-88360238D02*
X28816666Y-88741190D01*
X24927380Y-105766904D02*
X24927380Y-105195476D01*
X25927380Y-105481190D02*
X24927380Y-105481190D01*
X25022619Y-104909761D02*
X24975000Y-104862142D01*
X24927380Y-104766904D01*
X24927380Y-104528809D01*
X24975000Y-104433571D01*
X25022619Y-104385952D01*
X25117857Y-104338333D01*
X25213095Y-104338333D01*
X25355952Y-104385952D01*
X25927380Y-104957380D01*
X25927380Y-104338333D01*
X61138333Y-75723571D02*
X61281190Y-75771190D01*
X61328809Y-75818809D01*
X61376428Y-75914047D01*
X61376428Y-76056904D01*
X61328809Y-76152142D01*
X61281190Y-76199761D01*
X61185952Y-76247380D01*
X60805000Y-76247380D01*
X60805000Y-75247380D01*
X61138333Y-75247380D01*
X61233571Y-75295000D01*
X61281190Y-75342619D01*
X61328809Y-75437857D01*
X61328809Y-75533095D01*
X61281190Y-75628333D01*
X61233571Y-75675952D01*
X61138333Y-75723571D01*
X60805000Y-75723571D01*
X62090714Y-75247380D02*
X62090714Y-75961666D01*
X62043095Y-76104523D01*
X61947857Y-76199761D01*
X61805000Y-76247380D01*
X61709761Y-76247380D01*
X62424047Y-75247380D02*
X62995476Y-75247380D01*
X62709761Y-76247380D02*
X62709761Y-75247380D01*
X63233571Y-75247380D02*
X63852619Y-75247380D01*
X63519285Y-75628333D01*
X63662142Y-75628333D01*
X63757380Y-75675952D01*
X63805000Y-75723571D01*
X63852619Y-75818809D01*
X63852619Y-76056904D01*
X63805000Y-76152142D01*
X63757380Y-76199761D01*
X63662142Y-76247380D01*
X63376428Y-76247380D01*
X63281190Y-76199761D01*
X63233571Y-76152142D01*
X58804523Y-78692142D02*
X58756904Y-78739761D01*
X58614047Y-78787380D01*
X58518809Y-78787380D01*
X58375952Y-78739761D01*
X58280714Y-78644523D01*
X58233095Y-78549285D01*
X58185476Y-78358809D01*
X58185476Y-78215952D01*
X58233095Y-78025476D01*
X58280714Y-77930238D01*
X58375952Y-77835000D01*
X58518809Y-77787380D01*
X58614047Y-77787380D01*
X58756904Y-77835000D01*
X58804523Y-77882619D01*
X65900714Y-78263571D02*
X66234047Y-78263571D01*
X66376904Y-78787380D02*
X65900714Y-78787380D01*
X65900714Y-77787380D01*
X66376904Y-77787380D01*
X53883333Y-78787380D02*
X53550000Y-78311190D01*
X53311904Y-78787380D02*
X53311904Y-77787380D01*
X53692857Y-77787380D01*
X53788095Y-77835000D01*
X53835714Y-77882619D01*
X53883333Y-77977857D01*
X53883333Y-78120714D01*
X53835714Y-78215952D01*
X53788095Y-78263571D01*
X53692857Y-78311190D01*
X53311904Y-78311190D01*
X54454761Y-78215952D02*
X54359523Y-78168333D01*
X54311904Y-78120714D01*
X54264285Y-78025476D01*
X54264285Y-77977857D01*
X54311904Y-77882619D01*
X54359523Y-77835000D01*
X54454761Y-77787380D01*
X54645238Y-77787380D01*
X54740476Y-77835000D01*
X54788095Y-77882619D01*
X54835714Y-77977857D01*
X54835714Y-78025476D01*
X54788095Y-78120714D01*
X54740476Y-78168333D01*
X54645238Y-78215952D01*
X54454761Y-78215952D01*
X54359523Y-78263571D01*
X54311904Y-78311190D01*
X54264285Y-78406428D01*
X54264285Y-78596904D01*
X54311904Y-78692142D01*
X54359523Y-78739761D01*
X54454761Y-78787380D01*
X54645238Y-78787380D01*
X54740476Y-78739761D01*
X54788095Y-78692142D01*
X54835714Y-78596904D01*
X54835714Y-78406428D01*
X54788095Y-78311190D01*
X54740476Y-78263571D01*
X54645238Y-78215952D01*
X49422619Y-77787380D02*
X50041666Y-77787380D01*
X49708333Y-78168333D01*
X49851190Y-78168333D01*
X49946428Y-78215952D01*
X49994047Y-78263571D01*
X50041666Y-78358809D01*
X50041666Y-78596904D01*
X49994047Y-78692142D01*
X49946428Y-78739761D01*
X49851190Y-78787380D01*
X49565476Y-78787380D01*
X49470238Y-78739761D01*
X49422619Y-78692142D01*
X50470238Y-78692142D02*
X50517857Y-78739761D01*
X50470238Y-78787380D01*
X50422619Y-78739761D01*
X50470238Y-78692142D01*
X50470238Y-78787380D01*
X50851190Y-77787380D02*
X51470238Y-77787380D01*
X51136904Y-78168333D01*
X51279761Y-78168333D01*
X51375000Y-78215952D01*
X51422619Y-78263571D01*
X51470238Y-78358809D01*
X51470238Y-78596904D01*
X51422619Y-78692142D01*
X51375000Y-78739761D01*
X51279761Y-78787380D01*
X50994047Y-78787380D01*
X50898809Y-78739761D01*
X50851190Y-78692142D01*
X51898809Y-78787380D02*
X51898809Y-77787380D01*
X51994047Y-78406428D02*
X52279761Y-78787380D01*
X52279761Y-78120714D02*
X51898809Y-78501666D01*
X90967380Y-100258333D02*
X91681666Y-100258333D01*
X91824523Y-100305952D01*
X91919761Y-100401190D01*
X91967380Y-100544047D01*
X91967380Y-100639285D01*
X90967380Y-99877380D02*
X90967380Y-99258333D01*
X91348333Y-99591666D01*
X91348333Y-99448809D01*
X91395952Y-99353571D01*
X91443571Y-99305952D01*
X91538809Y-99258333D01*
X91776904Y-99258333D01*
X91872142Y-99305952D01*
X91919761Y-99353571D01*
X91967380Y-99448809D01*
X91967380Y-99734523D01*
X91919761Y-99829761D01*
X91872142Y-99877380D01*
X32991904Y-86407380D02*
X32991904Y-85407380D01*
X33230000Y-85407380D01*
X33372857Y-85455000D01*
X33468095Y-85550238D01*
X33515714Y-85645476D01*
X33563333Y-85835952D01*
X33563333Y-85978809D01*
X33515714Y-86169285D01*
X33468095Y-86264523D01*
X33372857Y-86359761D01*
X33230000Y-86407380D01*
X32991904Y-86407380D01*
X34515714Y-86407380D02*
X33944285Y-86407380D01*
X34230000Y-86407380D02*
X34230000Y-85407380D01*
X34134761Y-85550238D01*
X34039523Y-85645476D01*
X33944285Y-85693095D01*
X57677380Y-94376666D02*
X57201190Y-94710000D01*
X57677380Y-94948095D02*
X56677380Y-94948095D01*
X56677380Y-94567142D01*
X56725000Y-94471904D01*
X56772619Y-94424285D01*
X56867857Y-94376666D01*
X57010714Y-94376666D01*
X57105952Y-94424285D01*
X57153571Y-94471904D01*
X57201190Y-94567142D01*
X57201190Y-94948095D01*
X57677380Y-93900476D02*
X57677380Y-93710000D01*
X57629761Y-93614761D01*
X57582142Y-93567142D01*
X57439285Y-93471904D01*
X57248809Y-93424285D01*
X56867857Y-93424285D01*
X56772619Y-93471904D01*
X56725000Y-93519523D01*
X56677380Y-93614761D01*
X56677380Y-93805238D01*
X56725000Y-93900476D01*
X56772619Y-93948095D01*
X56867857Y-93995714D01*
X57105952Y-93995714D01*
X57201190Y-93948095D01*
X57248809Y-93900476D01*
X57296428Y-93805238D01*
X57296428Y-93614761D01*
X57248809Y-93519523D01*
X57201190Y-93471904D01*
X57105952Y-93424285D01*
X56677380Y-98837380D02*
X56677380Y-98218333D01*
X57058333Y-98551666D01*
X57058333Y-98408809D01*
X57105952Y-98313571D01*
X57153571Y-98265952D01*
X57248809Y-98218333D01*
X57486904Y-98218333D01*
X57582142Y-98265952D01*
X57629761Y-98313571D01*
X57677380Y-98408809D01*
X57677380Y-98694523D01*
X57629761Y-98789761D01*
X57582142Y-98837380D01*
X57582142Y-97789761D02*
X57629761Y-97742142D01*
X57677380Y-97789761D01*
X57629761Y-97837380D01*
X57582142Y-97789761D01*
X57677380Y-97789761D01*
X56677380Y-97408809D02*
X56677380Y-96789761D01*
X57058333Y-97123095D01*
X57058333Y-96980238D01*
X57105952Y-96885000D01*
X57153571Y-96837380D01*
X57248809Y-96789761D01*
X57486904Y-96789761D01*
X57582142Y-96837380D01*
X57629761Y-96885000D01*
X57677380Y-96980238D01*
X57677380Y-97265952D01*
X57629761Y-97361190D01*
X57582142Y-97408809D01*
X57677380Y-96361190D02*
X56677380Y-96361190D01*
X57296428Y-96265952D02*
X57677380Y-95980238D01*
X57010714Y-95980238D02*
X57391666Y-96361190D01*
X84633333Y-104298571D02*
X84776190Y-104346190D01*
X84823809Y-104393809D01*
X84871428Y-104489047D01*
X84871428Y-104631904D01*
X84823809Y-104727142D01*
X84776190Y-104774761D01*
X84680952Y-104822380D01*
X84300000Y-104822380D01*
X84300000Y-103822380D01*
X84633333Y-103822380D01*
X84728571Y-103870000D01*
X84776190Y-103917619D01*
X84823809Y-104012857D01*
X84823809Y-104108095D01*
X84776190Y-104203333D01*
X84728571Y-104250952D01*
X84633333Y-104298571D01*
X84300000Y-104298571D01*
X85585714Y-103822380D02*
X85585714Y-104536666D01*
X85538095Y-104679523D01*
X85442857Y-104774761D01*
X85300000Y-104822380D01*
X85204761Y-104822380D01*
X85919047Y-103822380D02*
X86490476Y-103822380D01*
X86204761Y-104822380D02*
X86204761Y-103822380D01*
X86776190Y-103917619D02*
X86823809Y-103870000D01*
X86919047Y-103822380D01*
X87157142Y-103822380D01*
X87252380Y-103870000D01*
X87300000Y-103917619D01*
X87347619Y-104012857D01*
X87347619Y-104108095D01*
X87300000Y-104250952D01*
X86728571Y-104822380D01*
X87347619Y-104822380D01*
X89395714Y-101123571D02*
X89729047Y-101123571D01*
X89871904Y-101647380D02*
X89395714Y-101647380D01*
X89395714Y-100647380D01*
X89871904Y-100647380D01*
X82299523Y-101552142D02*
X82251904Y-101599761D01*
X82109047Y-101647380D01*
X82013809Y-101647380D01*
X81870952Y-101599761D01*
X81775714Y-101504523D01*
X81728095Y-101409285D01*
X81680476Y-101218809D01*
X81680476Y-101075952D01*
X81728095Y-100885476D01*
X81775714Y-100790238D01*
X81870952Y-100695000D01*
X82013809Y-100647380D01*
X82109047Y-100647380D01*
X82251904Y-100695000D01*
X82299523Y-100742619D01*
X57963333Y-103028571D02*
X58106190Y-103076190D01*
X58153809Y-103123809D01*
X58201428Y-103219047D01*
X58201428Y-103361904D01*
X58153809Y-103457142D01*
X58106190Y-103504761D01*
X58010952Y-103552380D01*
X57630000Y-103552380D01*
X57630000Y-102552380D01*
X57963333Y-102552380D01*
X58058571Y-102600000D01*
X58106190Y-102647619D01*
X58153809Y-102742857D01*
X58153809Y-102838095D01*
X58106190Y-102933333D01*
X58058571Y-102980952D01*
X57963333Y-103028571D01*
X57630000Y-103028571D01*
X58915714Y-102552380D02*
X58915714Y-103266666D01*
X58868095Y-103409523D01*
X58772857Y-103504761D01*
X58630000Y-103552380D01*
X58534761Y-103552380D01*
X59249047Y-102552380D02*
X59820476Y-102552380D01*
X59534761Y-103552380D02*
X59534761Y-102552380D01*
X60582380Y-102885714D02*
X60582380Y-103552380D01*
X60344285Y-102504761D02*
X60106190Y-103219047D01*
X60725238Y-103219047D01*
X58804523Y-101552142D02*
X58756904Y-101599761D01*
X58614047Y-101647380D01*
X58518809Y-101647380D01*
X58375952Y-101599761D01*
X58280714Y-101504523D01*
X58233095Y-101409285D01*
X58185476Y-101218809D01*
X58185476Y-101075952D01*
X58233095Y-100885476D01*
X58280714Y-100790238D01*
X58375952Y-100695000D01*
X58518809Y-100647380D01*
X58614047Y-100647380D01*
X58756904Y-100695000D01*
X58804523Y-100742619D01*
X65900714Y-101123571D02*
X66234047Y-101123571D01*
X66376904Y-101647380D02*
X65900714Y-101647380D01*
X65900714Y-100647380D01*
X66376904Y-100647380D01*
X84633333Y-75723571D02*
X84776190Y-75771190D01*
X84823809Y-75818809D01*
X84871428Y-75914047D01*
X84871428Y-76056904D01*
X84823809Y-76152142D01*
X84776190Y-76199761D01*
X84680952Y-76247380D01*
X84300000Y-76247380D01*
X84300000Y-75247380D01*
X84633333Y-75247380D01*
X84728571Y-75295000D01*
X84776190Y-75342619D01*
X84823809Y-75437857D01*
X84823809Y-75533095D01*
X84776190Y-75628333D01*
X84728571Y-75675952D01*
X84633333Y-75723571D01*
X84300000Y-75723571D01*
X85585714Y-75247380D02*
X85585714Y-75961666D01*
X85538095Y-76104523D01*
X85442857Y-76199761D01*
X85300000Y-76247380D01*
X85204761Y-76247380D01*
X85919047Y-75247380D02*
X86490476Y-75247380D01*
X86204761Y-76247380D02*
X86204761Y-75247380D01*
X87347619Y-76247380D02*
X86776190Y-76247380D01*
X87061904Y-76247380D02*
X87061904Y-75247380D01*
X86966666Y-75390238D01*
X86871428Y-75485476D01*
X86776190Y-75533095D01*
X89395714Y-78263571D02*
X89729047Y-78263571D01*
X89871904Y-78787380D02*
X89395714Y-78787380D01*
X89395714Y-77787380D01*
X89871904Y-77787380D01*
X82299523Y-78692142D02*
X82251904Y-78739761D01*
X82109047Y-78787380D01*
X82013809Y-78787380D01*
X81870952Y-78739761D01*
X81775714Y-78644523D01*
X81728095Y-78549285D01*
X81680476Y-78358809D01*
X81680476Y-78215952D01*
X81728095Y-78025476D01*
X81775714Y-77930238D01*
X81870952Y-77835000D01*
X82013809Y-77787380D01*
X82109047Y-77787380D01*
X82251904Y-77835000D01*
X82299523Y-77882619D01*
X32563333Y-80803571D02*
X32706190Y-80851190D01*
X32753809Y-80898809D01*
X32801428Y-80994047D01*
X32801428Y-81136904D01*
X32753809Y-81232142D01*
X32706190Y-81279761D01*
X32610952Y-81327380D01*
X32230000Y-81327380D01*
X32230000Y-80327380D01*
X32563333Y-80327380D01*
X32658571Y-80375000D01*
X32706190Y-80422619D01*
X32753809Y-80517857D01*
X32753809Y-80613095D01*
X32706190Y-80708333D01*
X32658571Y-80755952D01*
X32563333Y-80803571D01*
X32230000Y-80803571D01*
X33515714Y-80327380D02*
X33515714Y-81041666D01*
X33468095Y-81184523D01*
X33372857Y-81279761D01*
X33230000Y-81327380D01*
X33134761Y-81327380D01*
X33849047Y-80327380D02*
X34420476Y-80327380D01*
X34134761Y-81327380D02*
X34134761Y-80327380D01*
X35230000Y-80327380D02*
X34753809Y-80327380D01*
X34706190Y-80803571D01*
X34753809Y-80755952D01*
X34849047Y-80708333D01*
X35087142Y-80708333D01*
X35182380Y-80755952D01*
X35230000Y-80803571D01*
X35277619Y-80898809D01*
X35277619Y-81136904D01*
X35230000Y-81232142D01*
X35182380Y-81279761D01*
X35087142Y-81327380D01*
X34849047Y-81327380D01*
X34753809Y-81279761D01*
X34706190Y-81232142D01*
X37325714Y-83343571D02*
X37659047Y-83343571D01*
X37801904Y-83867380D02*
X37325714Y-83867380D01*
X37325714Y-82867380D01*
X37801904Y-82867380D01*
X30229523Y-83772142D02*
X30181904Y-83819761D01*
X30039047Y-83867380D01*
X29943809Y-83867380D01*
X29800952Y-83819761D01*
X29705714Y-83724523D01*
X29658095Y-83629285D01*
X29610476Y-83438809D01*
X29610476Y-83295952D01*
X29658095Y-83105476D01*
X29705714Y-83010238D01*
X29800952Y-82915000D01*
X29943809Y-82867380D01*
X30039047Y-82867380D01*
X30181904Y-82915000D01*
X30229523Y-82962619D01*
X29102380Y-99932857D02*
X28626190Y-100266190D01*
X29102380Y-100504285D02*
X28102380Y-100504285D01*
X28102380Y-100123333D01*
X28150000Y-100028095D01*
X28197619Y-99980476D01*
X28292857Y-99932857D01*
X28435714Y-99932857D01*
X28530952Y-99980476D01*
X28578571Y-100028095D01*
X28626190Y-100123333D01*
X28626190Y-100504285D01*
X29102380Y-98980476D02*
X29102380Y-99551904D01*
X29102380Y-99266190D02*
X28102380Y-99266190D01*
X28245238Y-99361428D01*
X28340476Y-99456666D01*
X28388095Y-99551904D01*
X29102380Y-98028095D02*
X29102380Y-98599523D01*
X29102380Y-98313809D02*
X28102380Y-98313809D01*
X28245238Y-98409047D01*
X28340476Y-98504285D01*
X28388095Y-98599523D01*
X28102380Y-103917380D02*
X28102380Y-103298333D01*
X28483333Y-103631666D01*
X28483333Y-103488809D01*
X28530952Y-103393571D01*
X28578571Y-103345952D01*
X28673809Y-103298333D01*
X28911904Y-103298333D01*
X29007142Y-103345952D01*
X29054761Y-103393571D01*
X29102380Y-103488809D01*
X29102380Y-103774523D01*
X29054761Y-103869761D01*
X29007142Y-103917380D01*
X29007142Y-102869761D02*
X29054761Y-102822142D01*
X29102380Y-102869761D01*
X29054761Y-102917380D01*
X29007142Y-102869761D01*
X29102380Y-102869761D01*
X28102380Y-102488809D02*
X28102380Y-101869761D01*
X28483333Y-102203095D01*
X28483333Y-102060238D01*
X28530952Y-101965000D01*
X28578571Y-101917380D01*
X28673809Y-101869761D01*
X28911904Y-101869761D01*
X29007142Y-101917380D01*
X29054761Y-101965000D01*
X29102380Y-102060238D01*
X29102380Y-102345952D01*
X29054761Y-102441190D01*
X29007142Y-102488809D01*
X29102380Y-101441190D02*
X28102380Y-101441190D01*
X28721428Y-101345952D02*
X29102380Y-101060238D01*
X28435714Y-101060238D02*
X28816666Y-101441190D01*
X33658571Y-98559285D02*
X33658571Y-98225952D01*
X34182380Y-98083095D02*
X34182380Y-98559285D01*
X33182380Y-98559285D01*
X33182380Y-98083095D01*
X34087142Y-97083095D02*
X34134761Y-97130714D01*
X34182380Y-97273571D01*
X34182380Y-97368809D01*
X34134761Y-97511666D01*
X34039523Y-97606904D01*
X33944285Y-97654523D01*
X33753809Y-97702142D01*
X33610952Y-97702142D01*
X33420476Y-97654523D01*
X33325238Y-97606904D01*
X33230000Y-97511666D01*
X33182380Y-97368809D01*
X33182380Y-97273571D01*
X33230000Y-97130714D01*
X33277619Y-97083095D01*
X33277619Y-96702142D02*
X33230000Y-96654523D01*
X33182380Y-96559285D01*
X33182380Y-96321190D01*
X33230000Y-96225952D01*
X33277619Y-96178333D01*
X33372857Y-96130714D01*
X33468095Y-96130714D01*
X33610952Y-96178333D01*
X34182380Y-96749761D01*
X34182380Y-96130714D01*
X33801428Y-95702142D02*
X33801428Y-94940238D01*
X33182380Y-94559285D02*
X33182380Y-93940238D01*
X33563333Y-94273571D01*
X33563333Y-94130714D01*
X33610952Y-94035476D01*
X33658571Y-93987857D01*
X33753809Y-93940238D01*
X33991904Y-93940238D01*
X34087142Y-93987857D01*
X34134761Y-94035476D01*
X34182380Y-94130714D01*
X34182380Y-94416428D01*
X34134761Y-94511666D01*
X34087142Y-94559285D01*
X33182380Y-93654523D02*
X33182380Y-93083095D01*
X34182380Y-93368809D02*
X33182380Y-93368809D01*
X34182380Y-92749761D02*
X33182380Y-92749761D01*
X34182380Y-92178333D01*
X33182380Y-92178333D01*
X33182380Y-91702142D02*
X33991904Y-91702142D01*
X34087142Y-91654523D01*
X34134761Y-91606904D01*
X34182380Y-91511666D01*
X34182380Y-91321190D01*
X34134761Y-91225952D01*
X34087142Y-91178333D01*
X33991904Y-91130714D01*
X33182380Y-91130714D01*
X32563333Y-109378571D02*
X32706190Y-109426190D01*
X32753809Y-109473809D01*
X32801428Y-109569047D01*
X32801428Y-109711904D01*
X32753809Y-109807142D01*
X32706190Y-109854761D01*
X32610952Y-109902380D01*
X32230000Y-109902380D01*
X32230000Y-108902380D01*
X32563333Y-108902380D01*
X32658571Y-108950000D01*
X32706190Y-108997619D01*
X32753809Y-109092857D01*
X32753809Y-109188095D01*
X32706190Y-109283333D01*
X32658571Y-109330952D01*
X32563333Y-109378571D01*
X32230000Y-109378571D01*
X33515714Y-108902380D02*
X33515714Y-109616666D01*
X33468095Y-109759523D01*
X33372857Y-109854761D01*
X33230000Y-109902380D01*
X33134761Y-109902380D01*
X33849047Y-108902380D02*
X34420476Y-108902380D01*
X34134761Y-109902380D02*
X34134761Y-108902380D01*
X35182380Y-108902380D02*
X34991904Y-108902380D01*
X34896666Y-108950000D01*
X34849047Y-108997619D01*
X34753809Y-109140476D01*
X34706190Y-109330952D01*
X34706190Y-109711904D01*
X34753809Y-109807142D01*
X34801428Y-109854761D01*
X34896666Y-109902380D01*
X35087142Y-109902380D01*
X35182380Y-109854761D01*
X35230000Y-109807142D01*
X35277619Y-109711904D01*
X35277619Y-109473809D01*
X35230000Y-109378571D01*
X35182380Y-109330952D01*
X35087142Y-109283333D01*
X34896666Y-109283333D01*
X34801428Y-109330952D01*
X34753809Y-109378571D01*
X34706190Y-109473809D01*
X30229523Y-106632142D02*
X30181904Y-106679761D01*
X30039047Y-106727380D01*
X29943809Y-106727380D01*
X29800952Y-106679761D01*
X29705714Y-106584523D01*
X29658095Y-106489285D01*
X29610476Y-106298809D01*
X29610476Y-106155952D01*
X29658095Y-105965476D01*
X29705714Y-105870238D01*
X29800952Y-105775000D01*
X29943809Y-105727380D01*
X30039047Y-105727380D01*
X30181904Y-105775000D01*
X30229523Y-105822619D01*
X37325714Y-106203571D02*
X37659047Y-106203571D01*
X37801904Y-106727380D02*
X37325714Y-106727380D01*
X37325714Y-105727380D01*
X37801904Y-105727380D01*
X81172380Y-81676666D02*
X80696190Y-82010000D01*
X81172380Y-82248095D02*
X80172380Y-82248095D01*
X80172380Y-81867142D01*
X80220000Y-81771904D01*
X80267619Y-81724285D01*
X80362857Y-81676666D01*
X80505714Y-81676666D01*
X80600952Y-81724285D01*
X80648571Y-81771904D01*
X80696190Y-81867142D01*
X80696190Y-82248095D01*
X80172380Y-80819523D02*
X80172380Y-81010000D01*
X80220000Y-81105238D01*
X80267619Y-81152857D01*
X80410476Y-81248095D01*
X80600952Y-81295714D01*
X80981904Y-81295714D01*
X81077142Y-81248095D01*
X81124761Y-81200476D01*
X81172380Y-81105238D01*
X81172380Y-80914761D01*
X81124761Y-80819523D01*
X81077142Y-80771904D01*
X80981904Y-80724285D01*
X80743809Y-80724285D01*
X80648571Y-80771904D01*
X80600952Y-80819523D01*
X80553333Y-80914761D01*
X80553333Y-81105238D01*
X80600952Y-81200476D01*
X80648571Y-81248095D01*
X80743809Y-81295714D01*
X80172380Y-86137380D02*
X80172380Y-85518333D01*
X80553333Y-85851666D01*
X80553333Y-85708809D01*
X80600952Y-85613571D01*
X80648571Y-85565952D01*
X80743809Y-85518333D01*
X80981904Y-85518333D01*
X81077142Y-85565952D01*
X81124761Y-85613571D01*
X81172380Y-85708809D01*
X81172380Y-85994523D01*
X81124761Y-86089761D01*
X81077142Y-86137380D01*
X81077142Y-85089761D02*
X81124761Y-85042142D01*
X81172380Y-85089761D01*
X81124761Y-85137380D01*
X81077142Y-85089761D01*
X81172380Y-85089761D01*
X80172380Y-84708809D02*
X80172380Y-84089761D01*
X80553333Y-84423095D01*
X80553333Y-84280238D01*
X80600952Y-84185000D01*
X80648571Y-84137380D01*
X80743809Y-84089761D01*
X80981904Y-84089761D01*
X81077142Y-84137380D01*
X81124761Y-84185000D01*
X81172380Y-84280238D01*
X81172380Y-84565952D01*
X81124761Y-84661190D01*
X81077142Y-84708809D01*
X81172380Y-83661190D02*
X80172380Y-83661190D01*
X80791428Y-83565952D02*
X81172380Y-83280238D01*
X80505714Y-83280238D02*
X80886666Y-83661190D01*
X81172380Y-94376666D02*
X80696190Y-94710000D01*
X81172380Y-94948095D02*
X80172380Y-94948095D01*
X80172380Y-94567142D01*
X80220000Y-94471904D01*
X80267619Y-94424285D01*
X80362857Y-94376666D01*
X80505714Y-94376666D01*
X80600952Y-94424285D01*
X80648571Y-94471904D01*
X80696190Y-94567142D01*
X80696190Y-94948095D01*
X80172380Y-94043333D02*
X80172380Y-93376666D01*
X81172380Y-93805238D01*
X80172380Y-98837380D02*
X80172380Y-98218333D01*
X80553333Y-98551666D01*
X80553333Y-98408809D01*
X80600952Y-98313571D01*
X80648571Y-98265952D01*
X80743809Y-98218333D01*
X80981904Y-98218333D01*
X81077142Y-98265952D01*
X81124761Y-98313571D01*
X81172380Y-98408809D01*
X81172380Y-98694523D01*
X81124761Y-98789761D01*
X81077142Y-98837380D01*
X81077142Y-97789761D02*
X81124761Y-97742142D01*
X81172380Y-97789761D01*
X81124761Y-97837380D01*
X81077142Y-97789761D01*
X81172380Y-97789761D01*
X80172380Y-97408809D02*
X80172380Y-96789761D01*
X80553333Y-97123095D01*
X80553333Y-96980238D01*
X80600952Y-96885000D01*
X80648571Y-96837380D01*
X80743809Y-96789761D01*
X80981904Y-96789761D01*
X81077142Y-96837380D01*
X81124761Y-96885000D01*
X81172380Y-96980238D01*
X81172380Y-97265952D01*
X81124761Y-97361190D01*
X81077142Y-97408809D01*
X81172380Y-96361190D02*
X80172380Y-96361190D01*
X80791428Y-96265952D02*
X81172380Y-95980238D01*
X80505714Y-95980238D02*
X80886666Y-96361190D01*
X67313571Y-90955476D02*
X67313571Y-90622142D01*
X67837380Y-90479285D02*
X67837380Y-90955476D01*
X66837380Y-90955476D01*
X66837380Y-90479285D01*
X67742142Y-89479285D02*
X67789761Y-89526904D01*
X67837380Y-89669761D01*
X67837380Y-89765000D01*
X67789761Y-89907857D01*
X67694523Y-90003095D01*
X67599285Y-90050714D01*
X67408809Y-90098333D01*
X67265952Y-90098333D01*
X67075476Y-90050714D01*
X66980238Y-90003095D01*
X66885000Y-89907857D01*
X66837380Y-89765000D01*
X66837380Y-89669761D01*
X66885000Y-89526904D01*
X66932619Y-89479285D01*
X66837380Y-89145952D02*
X66837380Y-88526904D01*
X67218333Y-88860238D01*
X67218333Y-88717380D01*
X67265952Y-88622142D01*
X67313571Y-88574523D01*
X67408809Y-88526904D01*
X67646904Y-88526904D01*
X67742142Y-88574523D01*
X67789761Y-88622142D01*
X67837380Y-88717380D01*
X67837380Y-89003095D01*
X67789761Y-89098333D01*
X67742142Y-89145952D01*
X63392428Y-97543571D02*
X63392428Y-96781666D01*
X63773380Y-97162619D02*
X63011476Y-97162619D01*
X62773380Y-96115000D02*
X62773380Y-95924523D01*
X62821000Y-95829285D01*
X62916238Y-95734047D01*
X63106714Y-95686428D01*
X63440047Y-95686428D01*
X63630523Y-95734047D01*
X63725761Y-95829285D01*
X63773380Y-95924523D01*
X63773380Y-96115000D01*
X63725761Y-96210238D01*
X63630523Y-96305476D01*
X63440047Y-96353095D01*
X63106714Y-96353095D01*
X62916238Y-96305476D01*
X62821000Y-96210238D01*
X62773380Y-96115000D01*
X63773380Y-95257857D02*
X62773380Y-95257857D01*
X63773380Y-94686428D01*
X62773380Y-94686428D01*
X63392428Y-84748333D02*
X63392428Y-83986428D01*
X63773380Y-84367380D02*
X63011476Y-84367380D01*
X62773380Y-83319761D02*
X62773380Y-83129285D01*
X62821000Y-83034047D01*
X62916238Y-82938809D01*
X63106714Y-82891190D01*
X63440047Y-82891190D01*
X63630523Y-82938809D01*
X63725761Y-83034047D01*
X63773380Y-83129285D01*
X63773380Y-83319761D01*
X63725761Y-83415000D01*
X63630523Y-83510238D01*
X63440047Y-83557857D01*
X63106714Y-83557857D01*
X62916238Y-83510238D01*
X62821000Y-83415000D01*
X62773380Y-83319761D01*
X63249571Y-82129285D02*
X63249571Y-82462619D01*
X63773380Y-82462619D02*
X62773380Y-82462619D01*
X62773380Y-81986428D01*
X61360428Y-97543571D02*
X61360428Y-96781666D01*
X60741380Y-96115000D02*
X60741380Y-95924523D01*
X60789000Y-95829285D01*
X60884238Y-95734047D01*
X61074714Y-95686428D01*
X61408047Y-95686428D01*
X61598523Y-95734047D01*
X61693761Y-95829285D01*
X61741380Y-95924523D01*
X61741380Y-96115000D01*
X61693761Y-96210238D01*
X61598523Y-96305476D01*
X61408047Y-96353095D01*
X61074714Y-96353095D01*
X60884238Y-96305476D01*
X60789000Y-96210238D01*
X60741380Y-96115000D01*
X61741380Y-95257857D02*
X60741380Y-95257857D01*
X61741380Y-94686428D01*
X60741380Y-94686428D01*
X61360428Y-84748333D02*
X61360428Y-83986428D01*
X60741380Y-83319761D02*
X60741380Y-83129285D01*
X60789000Y-83034047D01*
X60884238Y-82938809D01*
X61074714Y-82891190D01*
X61408047Y-82891190D01*
X61598523Y-82938809D01*
X61693761Y-83034047D01*
X61741380Y-83129285D01*
X61741380Y-83319761D01*
X61693761Y-83415000D01*
X61598523Y-83510238D01*
X61408047Y-83557857D01*
X61074714Y-83557857D01*
X60884238Y-83510238D01*
X60789000Y-83415000D01*
X60741380Y-83319761D01*
X61217571Y-82129285D02*
X61217571Y-82462619D01*
X61741380Y-82462619D02*
X60741380Y-82462619D01*
X60741380Y-81986428D01*
X63773380Y-90550714D02*
X62773380Y-90550714D01*
X63773380Y-89979285D01*
X62773380Y-89979285D01*
X63678142Y-88931666D02*
X63725761Y-88979285D01*
X63773380Y-89122142D01*
X63773380Y-89217380D01*
X63725761Y-89360238D01*
X63630523Y-89455476D01*
X63535285Y-89503095D01*
X63344809Y-89550714D01*
X63201952Y-89550714D01*
X63011476Y-89503095D01*
X62916238Y-89455476D01*
X62821000Y-89360238D01*
X62773380Y-89217380D01*
X62773380Y-89122142D01*
X62821000Y-88979285D01*
X62868619Y-88931666D01*
X63773380Y-88034523D02*
X62773380Y-88034523D01*
X63773380Y-87463095D01*
X62773380Y-87463095D01*
X62773380Y-86796428D02*
X62773380Y-86605952D01*
X62821000Y-86510714D01*
X62916238Y-86415476D01*
X63106714Y-86367857D01*
X63440047Y-86367857D01*
X63630523Y-86415476D01*
X63725761Y-86510714D01*
X63773380Y-86605952D01*
X63773380Y-86796428D01*
X63725761Y-86891666D01*
X63630523Y-86986904D01*
X63440047Y-87034523D01*
X63106714Y-87034523D01*
X62916238Y-86986904D01*
X62821000Y-86891666D01*
X62773380Y-86796428D01*
X61566904Y-99107380D02*
X61566904Y-98107380D01*
X61805000Y-98107380D01*
X61947857Y-98155000D01*
X62043095Y-98250238D01*
X62090714Y-98345476D01*
X62138333Y-98535952D01*
X62138333Y-98678809D01*
X62090714Y-98869285D01*
X62043095Y-98964523D01*
X61947857Y-99059761D01*
X61805000Y-99107380D01*
X61566904Y-99107380D01*
X62995476Y-98107380D02*
X62805000Y-98107380D01*
X62709761Y-98155000D01*
X62662142Y-98202619D01*
X62566904Y-98345476D01*
X62519285Y-98535952D01*
X62519285Y-98916904D01*
X62566904Y-99012142D01*
X62614523Y-99059761D01*
X62709761Y-99107380D01*
X62900238Y-99107380D01*
X62995476Y-99059761D01*
X63043095Y-99012142D01*
X63090714Y-98916904D01*
X63090714Y-98678809D01*
X63043095Y-98583571D01*
X62995476Y-98535952D01*
X62900238Y-98488333D01*
X62709761Y-98488333D01*
X62614523Y-98535952D01*
X62566904Y-98583571D01*
X62519285Y-98678809D01*
X85061904Y-81327380D02*
X85061904Y-80327380D01*
X85300000Y-80327380D01*
X85442857Y-80375000D01*
X85538095Y-80470238D01*
X85585714Y-80565476D01*
X85633333Y-80755952D01*
X85633333Y-80898809D01*
X85585714Y-81089285D01*
X85538095Y-81184523D01*
X85442857Y-81279761D01*
X85300000Y-81327380D01*
X85061904Y-81327380D01*
X85966666Y-80327380D02*
X86585714Y-80327380D01*
X86252380Y-80708333D01*
X86395238Y-80708333D01*
X86490476Y-80755952D01*
X86538095Y-80803571D01*
X86585714Y-80898809D01*
X86585714Y-81136904D01*
X86538095Y-81232142D01*
X86490476Y-81279761D01*
X86395238Y-81327380D01*
X86109523Y-81327380D01*
X86014285Y-81279761D01*
X85966666Y-81232142D01*
X32991904Y-104187380D02*
X32991904Y-103187380D01*
X33230000Y-103187380D01*
X33372857Y-103235000D01*
X33468095Y-103330238D01*
X33515714Y-103425476D01*
X33563333Y-103615952D01*
X33563333Y-103758809D01*
X33515714Y-103949285D01*
X33468095Y-104044523D01*
X33372857Y-104139761D01*
X33230000Y-104187380D01*
X32991904Y-104187380D01*
X33944285Y-103282619D02*
X33991904Y-103235000D01*
X34087142Y-103187380D01*
X34325238Y-103187380D01*
X34420476Y-103235000D01*
X34468095Y-103282619D01*
X34515714Y-103377857D01*
X34515714Y-103473095D01*
X34468095Y-103615952D01*
X33896666Y-104187380D01*
X34515714Y-104187380D01*
X76997380Y-62277380D02*
X76664047Y-61801190D01*
X76425952Y-62277380D02*
X76425952Y-61277380D01*
X76806904Y-61277380D01*
X76902142Y-61325000D01*
X76949761Y-61372619D01*
X76997380Y-61467857D01*
X76997380Y-61610714D01*
X76949761Y-61705952D01*
X76902142Y-61753571D01*
X76806904Y-61801190D01*
X76425952Y-61801190D01*
X77711666Y-61277380D02*
X77711666Y-61991666D01*
X77664047Y-62134523D01*
X77568809Y-62229761D01*
X77425952Y-62277380D01*
X77330714Y-62277380D01*
X78616428Y-61610714D02*
X78616428Y-62277380D01*
X78378333Y-61229761D02*
X78140238Y-61944047D01*
X78759285Y-61944047D01*
X35643333Y-72977142D02*
X35595714Y-73024761D01*
X35452857Y-73072380D01*
X35357619Y-73072380D01*
X35214761Y-73024761D01*
X35119523Y-72929523D01*
X35071904Y-72834285D01*
X35024285Y-72643809D01*
X35024285Y-72500952D01*
X35071904Y-72310476D01*
X35119523Y-72215238D01*
X35214761Y-72120000D01*
X35357619Y-72072380D01*
X35452857Y-72072380D01*
X35595714Y-72120000D01*
X35643333Y-72167619D01*
X36500476Y-73072380D02*
X36500476Y-72548571D01*
X36452857Y-72453333D01*
X36357619Y-72405714D01*
X36167142Y-72405714D01*
X36071904Y-72453333D01*
X36500476Y-73024761D02*
X36405238Y-73072380D01*
X36167142Y-73072380D01*
X36071904Y-73024761D01*
X36024285Y-72929523D01*
X36024285Y-72834285D01*
X36071904Y-72739047D01*
X36167142Y-72691428D01*
X36405238Y-72691428D01*
X36500476Y-72643809D01*
X36976666Y-73072380D02*
X36976666Y-72072380D01*
X36976666Y-72453333D02*
X37071904Y-72405714D01*
X37262380Y-72405714D01*
X37357619Y-72453333D01*
X37405238Y-72500952D01*
X37452857Y-72596190D01*
X37452857Y-72881904D01*
X37405238Y-72977142D01*
X37357619Y-73024761D01*
X37262380Y-73072380D01*
X37071904Y-73072380D01*
X36976666Y-73024761D01*
X38024285Y-73072380D02*
X37929047Y-73024761D01*
X37881428Y-72929523D01*
X37881428Y-72072380D01*
X38786190Y-73024761D02*
X38690952Y-73072380D01*
X38500476Y-73072380D01*
X38405238Y-73024761D01*
X38357619Y-72929523D01*
X38357619Y-72548571D01*
X38405238Y-72453333D01*
X38500476Y-72405714D01*
X38690952Y-72405714D01*
X38786190Y-72453333D01*
X38833809Y-72548571D01*
X38833809Y-72643809D01*
X38357619Y-72739047D01*
X40452857Y-72405714D02*
X40452857Y-73072380D01*
X40214761Y-72024761D02*
X39976666Y-72739047D01*
X40595714Y-72739047D01*
X41690952Y-72024761D02*
X40833809Y-73310476D01*
X42595714Y-73072380D02*
X42262380Y-72596190D01*
X42024285Y-73072380D02*
X42024285Y-72072380D01*
X42405238Y-72072380D01*
X42500476Y-72120000D01*
X42548095Y-72167619D01*
X42595714Y-72262857D01*
X42595714Y-72405714D01*
X42548095Y-72500952D01*
X42500476Y-72548571D01*
X42405238Y-72596190D01*
X42024285Y-72596190D01*
X67393333Y-72977142D02*
X67345714Y-73024761D01*
X67202857Y-73072380D01*
X67107619Y-73072380D01*
X66964761Y-73024761D01*
X66869523Y-72929523D01*
X66821904Y-72834285D01*
X66774285Y-72643809D01*
X66774285Y-72500952D01*
X66821904Y-72310476D01*
X66869523Y-72215238D01*
X66964761Y-72120000D01*
X67107619Y-72072380D01*
X67202857Y-72072380D01*
X67345714Y-72120000D01*
X67393333Y-72167619D01*
X68250476Y-73072380D02*
X68250476Y-72548571D01*
X68202857Y-72453333D01*
X68107619Y-72405714D01*
X67917142Y-72405714D01*
X67821904Y-72453333D01*
X68250476Y-73024761D02*
X68155238Y-73072380D01*
X67917142Y-73072380D01*
X67821904Y-73024761D01*
X67774285Y-72929523D01*
X67774285Y-72834285D01*
X67821904Y-72739047D01*
X67917142Y-72691428D01*
X68155238Y-72691428D01*
X68250476Y-72643809D01*
X68726666Y-73072380D02*
X68726666Y-72072380D01*
X68726666Y-72453333D02*
X68821904Y-72405714D01*
X69012380Y-72405714D01*
X69107619Y-72453333D01*
X69155238Y-72500952D01*
X69202857Y-72596190D01*
X69202857Y-72881904D01*
X69155238Y-72977142D01*
X69107619Y-73024761D01*
X69012380Y-73072380D01*
X68821904Y-73072380D01*
X68726666Y-73024761D01*
X69774285Y-73072380D02*
X69679047Y-73024761D01*
X69631428Y-72929523D01*
X69631428Y-72072380D01*
X70536190Y-73024761D02*
X70440952Y-73072380D01*
X70250476Y-73072380D01*
X70155238Y-73024761D01*
X70107619Y-72929523D01*
X70107619Y-72548571D01*
X70155238Y-72453333D01*
X70250476Y-72405714D01*
X70440952Y-72405714D01*
X70536190Y-72453333D01*
X70583809Y-72548571D01*
X70583809Y-72643809D01*
X70107619Y-72739047D01*
X71679047Y-72072380D02*
X72298095Y-72072380D01*
X71964761Y-72453333D01*
X72107619Y-72453333D01*
X72202857Y-72500952D01*
X72250476Y-72548571D01*
X72298095Y-72643809D01*
X72298095Y-72881904D01*
X72250476Y-72977142D01*
X72202857Y-73024761D01*
X72107619Y-73072380D01*
X71821904Y-73072380D01*
X71726666Y-73024761D01*
X71679047Y-72977142D01*
X73440952Y-72024761D02*
X72583809Y-73310476D01*
X74107619Y-72548571D02*
X74250476Y-72596190D01*
X74298095Y-72643809D01*
X74345714Y-72739047D01*
X74345714Y-72881904D01*
X74298095Y-72977142D01*
X74250476Y-73024761D01*
X74155238Y-73072380D01*
X73774285Y-73072380D01*
X73774285Y-72072380D01*
X74107619Y-72072380D01*
X74202857Y-72120000D01*
X74250476Y-72167619D01*
X74298095Y-72262857D01*
X74298095Y-72358095D01*
X74250476Y-72453333D01*
X74202857Y-72500952D01*
X74107619Y-72548571D01*
X73774285Y-72548571D01*
X80537380Y-78461904D02*
X79537380Y-78461904D01*
X80013571Y-78461904D02*
X80013571Y-77890476D01*
X80537380Y-77890476D02*
X79537380Y-77890476D01*
X79965952Y-77271428D02*
X79918333Y-77366666D01*
X79870714Y-77414285D01*
X79775476Y-77461904D01*
X79727857Y-77461904D01*
X79632619Y-77414285D01*
X79585000Y-77366666D01*
X79537380Y-77271428D01*
X79537380Y-77080952D01*
X79585000Y-76985714D01*
X79632619Y-76938095D01*
X79727857Y-76890476D01*
X79775476Y-76890476D01*
X79870714Y-76938095D01*
X79918333Y-76985714D01*
X79965952Y-77080952D01*
X79965952Y-77271428D01*
X80013571Y-77366666D01*
X80061190Y-77414285D01*
X80156428Y-77461904D01*
X80346904Y-77461904D01*
X80442142Y-77414285D01*
X80489761Y-77366666D01*
X80537380Y-77271428D01*
X80537380Y-77080952D01*
X80489761Y-76985714D01*
X80442142Y-76938095D01*
X80346904Y-76890476D01*
X80156428Y-76890476D01*
X80061190Y-76938095D01*
X80013571Y-76985714D01*
X79965952Y-77080952D01*
X61566904Y-81327380D02*
X61566904Y-80327380D01*
X61805000Y-80327380D01*
X61947857Y-80375000D01*
X62043095Y-80470238D01*
X62090714Y-80565476D01*
X62138333Y-80755952D01*
X62138333Y-80898809D01*
X62090714Y-81089285D01*
X62043095Y-81184523D01*
X61947857Y-81279761D01*
X61805000Y-81327380D01*
X61566904Y-81327380D01*
X63043095Y-80327380D02*
X62566904Y-80327380D01*
X62519285Y-80803571D01*
X62566904Y-80755952D01*
X62662142Y-80708333D01*
X62900238Y-80708333D01*
X62995476Y-80755952D01*
X63043095Y-80803571D01*
X63090714Y-80898809D01*
X63090714Y-81136904D01*
X63043095Y-81232142D01*
X62995476Y-81279761D01*
X62900238Y-81327380D01*
X62662142Y-81327380D01*
X62566904Y-81279761D01*
X62519285Y-81232142D01*
X20617381Y-26241666D02*
X20141191Y-26575000D01*
X20617381Y-26813095D02*
X19617381Y-26813095D01*
X19617381Y-26432142D01*
X19665001Y-26336904D01*
X19712620Y-26289285D01*
X19807858Y-26241666D01*
X19950715Y-26241666D01*
X20045953Y-26289285D01*
X20093572Y-26336904D01*
X20141191Y-26432142D01*
X20141191Y-26813095D01*
X19617381Y-25908333D02*
X19617381Y-25289285D01*
X19998334Y-25622619D01*
X19998334Y-25479761D01*
X20045953Y-25384523D01*
X20093572Y-25336904D01*
X20188810Y-25289285D01*
X20426905Y-25289285D01*
X20522143Y-25336904D01*
X20569762Y-25384523D01*
X20617381Y-25479761D01*
X20617381Y-25765476D01*
X20569762Y-25860714D01*
X20522143Y-25908333D01*
X19712620Y-30813095D02*
X19665001Y-30765476D01*
X19617381Y-30670238D01*
X19617381Y-30432142D01*
X19665001Y-30336904D01*
X19712620Y-30289285D01*
X19807858Y-30241666D01*
X19903096Y-30241666D01*
X20045953Y-30289285D01*
X20617381Y-30860714D01*
X20617381Y-30241666D01*
X19712620Y-29860714D02*
X19665001Y-29813095D01*
X19617381Y-29717857D01*
X19617381Y-29479761D01*
X19665001Y-29384523D01*
X19712620Y-29336904D01*
X19807858Y-29289285D01*
X19903096Y-29289285D01*
X20045953Y-29336904D01*
X20617381Y-29908333D01*
X20617381Y-29289285D01*
X19617381Y-28670238D02*
X19617381Y-28575000D01*
X19665001Y-28479761D01*
X19712620Y-28432142D01*
X19807858Y-28384523D01*
X19998334Y-28336904D01*
X20236429Y-28336904D01*
X20426905Y-28384523D01*
X20522143Y-28432142D01*
X20569762Y-28479761D01*
X20617381Y-28575000D01*
X20617381Y-28670238D01*
X20569762Y-28765476D01*
X20522143Y-28813095D01*
X20426905Y-28860714D01*
X20236429Y-28908333D01*
X19998334Y-28908333D01*
X19807858Y-28860714D01*
X19712620Y-28813095D01*
X19665001Y-28765476D01*
X19617381Y-28670238D01*
X22915714Y-18867380D02*
X22915714Y-17867380D01*
X23153809Y-17867380D01*
X23296666Y-17915000D01*
X23391904Y-18010238D01*
X23439523Y-18105476D01*
X23487142Y-18295952D01*
X23487142Y-18438809D01*
X23439523Y-18629285D01*
X23391904Y-18724523D01*
X23296666Y-18819761D01*
X23153809Y-18867380D01*
X22915714Y-18867380D01*
X23868095Y-18819761D02*
X24010952Y-18867380D01*
X24249047Y-18867380D01*
X24344285Y-18819761D01*
X24391904Y-18772142D01*
X24439523Y-18676904D01*
X24439523Y-18581666D01*
X24391904Y-18486428D01*
X24344285Y-18438809D01*
X24249047Y-18391190D01*
X24058571Y-18343571D01*
X23963333Y-18295952D01*
X23915714Y-18248333D01*
X23868095Y-18153095D01*
X23868095Y-18057857D01*
X23915714Y-17962619D01*
X23963333Y-17915000D01*
X24058571Y-17867380D01*
X24296666Y-17867380D01*
X24439523Y-17915000D01*
X25391904Y-18867380D02*
X24820476Y-18867380D01*
X25106190Y-18867380D02*
X25106190Y-17867380D01*
X25010952Y-18010238D01*
X24915714Y-18105476D01*
X24820476Y-18153095D01*
X63744285Y-17997380D02*
X63744285Y-16997380D01*
X64315714Y-17997380D01*
X64315714Y-16997380D01*
X64791904Y-17997380D02*
X64791904Y-16997380D01*
X64791904Y-17473571D02*
X65363333Y-17473571D01*
X65363333Y-17997380D02*
X65363333Y-16997380D01*
X65839523Y-17997380D02*
X65839523Y-16997380D01*
X66077619Y-16997380D01*
X66220476Y-17045000D01*
X66315714Y-17140238D01*
X66363333Y-17235476D01*
X66410952Y-17425952D01*
X66410952Y-17568809D01*
X66363333Y-17759285D01*
X66315714Y-17854523D01*
X66220476Y-17949761D01*
X66077619Y-17997380D01*
X65839523Y-17997380D01*
X67363333Y-17997380D02*
X66791904Y-17997380D01*
X67077619Y-17997380D02*
X67077619Y-16997380D01*
X66982380Y-17140238D01*
X66887142Y-17235476D01*
X66791904Y-17283095D01*
X45442380Y-45061904D02*
X44442380Y-45061904D01*
X44918571Y-45061904D02*
X44918571Y-44490476D01*
X45442380Y-44490476D02*
X44442380Y-44490476D01*
X44442380Y-43585714D02*
X44442380Y-43776190D01*
X44490000Y-43871428D01*
X44537619Y-43919047D01*
X44680476Y-44014285D01*
X44870952Y-44061904D01*
X45251904Y-44061904D01*
X45347142Y-44014285D01*
X45394761Y-43966666D01*
X45442380Y-43871428D01*
X45442380Y-43680952D01*
X45394761Y-43585714D01*
X45347142Y-43538095D01*
X45251904Y-43490476D01*
X45013809Y-43490476D01*
X44918571Y-43538095D01*
X44870952Y-43585714D01*
X44823333Y-43680952D01*
X44823333Y-43871428D01*
X44870952Y-43966666D01*
X44918571Y-44014285D01*
X45013809Y-44061904D01*
X41902380Y-42299047D02*
X41902380Y-42108571D01*
X41950000Y-42013333D01*
X42045238Y-41918095D01*
X42235714Y-41870476D01*
X42569047Y-41870476D01*
X42759523Y-41918095D01*
X42854761Y-42013333D01*
X42902380Y-42108571D01*
X42902380Y-42299047D01*
X42854761Y-42394285D01*
X42759523Y-42489523D01*
X42569047Y-42537142D01*
X42235714Y-42537142D01*
X42045238Y-42489523D01*
X41950000Y-42394285D01*
X41902380Y-42299047D01*
X42235714Y-41013333D02*
X42902380Y-41013333D01*
X42235714Y-41441904D02*
X42759523Y-41441904D01*
X42854761Y-41394285D01*
X42902380Y-41299047D01*
X42902380Y-41156190D01*
X42854761Y-41060952D01*
X42807142Y-41013333D01*
X42235714Y-40680000D02*
X42235714Y-40299047D01*
X41902380Y-40537142D02*
X42759523Y-40537142D01*
X42854761Y-40489523D01*
X42902380Y-40394285D01*
X42902380Y-40299047D01*
X42854761Y-40013333D02*
X42902380Y-39918095D01*
X42902380Y-39727619D01*
X42854761Y-39632380D01*
X42759523Y-39584761D01*
X42711904Y-39584761D01*
X42616666Y-39632380D01*
X42569047Y-39727619D01*
X42569047Y-39870476D01*
X42521428Y-39965714D01*
X42426190Y-40013333D01*
X42378571Y-40013333D01*
X42283333Y-39965714D01*
X42235714Y-39870476D01*
X42235714Y-39727619D01*
X42283333Y-39632380D01*
X42902380Y-39156190D02*
X42235714Y-39156190D01*
X41902380Y-39156190D02*
X41950000Y-39203809D01*
X41997619Y-39156190D01*
X41950000Y-39108571D01*
X41902380Y-39156190D01*
X41997619Y-39156190D01*
X42902380Y-38251428D02*
X41902380Y-38251428D01*
X42854761Y-38251428D02*
X42902380Y-38346666D01*
X42902380Y-38537142D01*
X42854761Y-38632380D01*
X42807142Y-38680000D01*
X42711904Y-38727619D01*
X42426190Y-38727619D01*
X42330952Y-38680000D01*
X42283333Y-38632380D01*
X42235714Y-38537142D01*
X42235714Y-38346666D01*
X42283333Y-38251428D01*
X42854761Y-37394285D02*
X42902380Y-37489523D01*
X42902380Y-37680000D01*
X42854761Y-37775238D01*
X42759523Y-37822857D01*
X42378571Y-37822857D01*
X42283333Y-37775238D01*
X42235714Y-37680000D01*
X42235714Y-37489523D01*
X42283333Y-37394285D01*
X42378571Y-37346666D01*
X42473809Y-37346666D01*
X42569047Y-37822857D01*
X42235714Y-36299047D02*
X42235714Y-35918095D01*
X41902380Y-36156190D02*
X42759523Y-36156190D01*
X42854761Y-36108571D01*
X42902380Y-36013333D01*
X42902380Y-35918095D01*
X42902380Y-35584761D02*
X41902380Y-35584761D01*
X42902380Y-35156190D02*
X42378571Y-35156190D01*
X42283333Y-35203809D01*
X42235714Y-35299047D01*
X42235714Y-35441904D01*
X42283333Y-35537142D01*
X42330952Y-35584761D01*
X42854761Y-34299047D02*
X42902380Y-34394285D01*
X42902380Y-34584761D01*
X42854761Y-34680000D01*
X42759523Y-34727619D01*
X42378571Y-34727619D01*
X42283333Y-34680000D01*
X42235714Y-34584761D01*
X42235714Y-34394285D01*
X42283333Y-34299047D01*
X42378571Y-34251428D01*
X42473809Y-34251428D01*
X42569047Y-34727619D01*
X42235714Y-33060952D02*
X43235714Y-33060952D01*
X42283333Y-33060952D02*
X42235714Y-32965714D01*
X42235714Y-32775238D01*
X42283333Y-32680000D01*
X42330952Y-32632380D01*
X42426190Y-32584761D01*
X42711904Y-32584761D01*
X42807142Y-32632380D01*
X42854761Y-32680000D01*
X42902380Y-32775238D01*
X42902380Y-32965714D01*
X42854761Y-33060952D01*
X42854761Y-31727619D02*
X42902380Y-31822857D01*
X42902380Y-32013333D01*
X42854761Y-32108571D01*
X42807142Y-32156190D01*
X42711904Y-32203809D01*
X42426190Y-32203809D01*
X42330952Y-32156190D01*
X42283333Y-32108571D01*
X42235714Y-32013333D01*
X42235714Y-31822857D01*
X42283333Y-31727619D01*
X42902380Y-31299047D02*
X41902380Y-31299047D01*
X42283333Y-31299047D02*
X42235714Y-31203809D01*
X42235714Y-31013333D01*
X42283333Y-30918095D01*
X42330952Y-30870476D01*
X42426190Y-30822857D01*
X42711904Y-30822857D01*
X42807142Y-30870476D01*
X42854761Y-30918095D01*
X42902380Y-31013333D01*
X42902380Y-31203809D01*
X42854761Y-31299047D01*
X79571428Y23547619D02*
X79000000Y23547619D01*
X79285714Y23547619D02*
X79285714Y24547619D01*
X79190476Y24404761D01*
X79095238Y24309523D01*
X79000000Y24261904D01*
X80190476Y24547619D02*
X80285714Y24547619D01*
X80380952Y24500000D01*
X80428571Y24452380D01*
X80476190Y24357142D01*
X80523809Y24166666D01*
X80523809Y23928571D01*
X80476190Y23738095D01*
X80428571Y23642857D01*
X80380952Y23595238D01*
X80285714Y23547619D01*
X80190476Y23547619D01*
X80095238Y23595238D01*
X80047619Y23642857D01*
X80000000Y23738095D01*
X79952380Y23928571D01*
X79952380Y24166666D01*
X80000000Y24357142D01*
X80047619Y24452380D01*
X80095238Y24500000D01*
X80190476Y24547619D01*
X81142857Y24547619D02*
X81238095Y24547619D01*
X81333333Y24500000D01*
X81380952Y24452380D01*
X81428571Y24357142D01*
X81476190Y24166666D01*
X81476190Y23928571D01*
X81428571Y23738095D01*
X81380952Y23642857D01*
X81333333Y23595238D01*
X81238095Y23547619D01*
X81142857Y23547619D01*
X81047619Y23595238D01*
X81000000Y23642857D01*
X80952380Y23738095D01*
X80904761Y23928571D01*
X80904761Y24166666D01*
X80952380Y24357142D01*
X81000000Y24452380D01*
X81047619Y24500000D01*
X81142857Y24547619D01*
X83095238Y24214285D02*
X83095238Y23547619D01*
X82666666Y24214285D02*
X82666666Y23690476D01*
X82714285Y23595238D01*
X82809523Y23547619D01*
X82952380Y23547619D01*
X83047619Y23595238D01*
X83095238Y23642857D01*
X83904761Y24071428D02*
X83571428Y24071428D01*
X83571428Y23547619D02*
X83571428Y24547619D01*
X84047619Y24547619D01*
X25056666Y-7686428D02*
X25056666Y-7210238D01*
X25342380Y-7781666D02*
X24342380Y-7448333D01*
X25342380Y-7115000D01*
X25294761Y-6829285D02*
X25342380Y-6686428D01*
X25342380Y-6448333D01*
X25294761Y-6353095D01*
X25247142Y-6305476D01*
X25151904Y-6257857D01*
X25056666Y-6257857D01*
X24961428Y-6305476D01*
X24913809Y-6353095D01*
X24866190Y-6448333D01*
X24818571Y-6638809D01*
X24770952Y-6734047D01*
X24723333Y-6781666D01*
X24628095Y-6829285D01*
X24532857Y-6829285D01*
X24437619Y-6781666D01*
X24390000Y-6734047D01*
X24342380Y-6638809D01*
X24342380Y-6400714D01*
X24390000Y-6257857D01*
X24342380Y-5972142D02*
X24342380Y-5400714D01*
X25342380Y-5686428D02*
X24342380Y-5686428D01*
X25342380Y-4543571D02*
X25342380Y-5115000D01*
X25342380Y-4829285D02*
X24342380Y-4829285D01*
X24485238Y-4924523D01*
X24580476Y-5019761D01*
X24628095Y-5115000D01*
X23437428Y-10305952D02*
X23437428Y-9544047D01*
X23818380Y-9925000D02*
X23056476Y-9925000D01*
X23437428Y-2685952D02*
X23437428Y-1924047D01*
X60958095Y18832619D02*
X60958095Y19832619D01*
X60958095Y19356428D02*
X61529523Y19356428D01*
X61529523Y18832619D02*
X61529523Y19832619D01*
X62053333Y18832619D02*
X62243809Y18832619D01*
X62339047Y18880238D01*
X62386666Y18927857D01*
X62481904Y19070714D01*
X62529523Y19261190D01*
X62529523Y19642142D01*
X62481904Y19737380D01*
X62434285Y19785000D01*
X62339047Y19832619D01*
X62148571Y19832619D01*
X62053333Y19785000D01*
X62005714Y19737380D01*
X61958095Y19642142D01*
X61958095Y19404047D01*
X62005714Y19308809D01*
X62053333Y19261190D01*
X62148571Y19213571D01*
X62339047Y19213571D01*
X62434285Y19261190D01*
X62481904Y19308809D01*
X62529523Y19404047D01*
X34081666Y16022619D02*
X34081666Y15308333D01*
X34034047Y15165476D01*
X33938809Y15070238D01*
X33795952Y15022619D01*
X33700714Y15022619D01*
X34510238Y15927380D02*
X34557857Y15975000D01*
X34653095Y16022619D01*
X34891190Y16022619D01*
X34986428Y15975000D01*
X35034047Y15927380D01*
X35081666Y15832142D01*
X35081666Y15736904D01*
X35034047Y15594047D01*
X34462619Y15022619D01*
X35081666Y15022619D01*
X64768095Y-14187380D02*
X64768095Y-13187380D01*
X64768095Y-13663571D02*
X65339523Y-13663571D01*
X65339523Y-14187380D02*
X65339523Y-13187380D01*
X66244285Y-13520714D02*
X66244285Y-14187380D01*
X66006190Y-13139761D02*
X65768095Y-13854047D01*
X66387142Y-13854047D01*
X17833333Y-14452380D02*
X17500000Y-13976190D01*
X17261904Y-14452380D02*
X17261904Y-13452380D01*
X17642857Y-13452380D01*
X17738095Y-13500000D01*
X17785714Y-13547619D01*
X17833333Y-13642857D01*
X17833333Y-13785714D01*
X17785714Y-13880952D01*
X17738095Y-13928571D01*
X17642857Y-13976190D01*
X17261904Y-13976190D01*
X18690476Y-13785714D02*
X18690476Y-14452380D01*
X18452380Y-13404761D02*
X18214285Y-14119047D01*
X18833333Y-14119047D01*
X17071428Y-15285714D02*
X17071428Y-15952380D01*
X16833333Y-14904761D02*
X16595238Y-15619047D01*
X17214285Y-15619047D01*
X17595238Y-15857142D02*
X17642857Y-15904761D01*
X17595238Y-15952380D01*
X17547619Y-15904761D01*
X17595238Y-15857142D01*
X17595238Y-15952380D01*
X17976190Y-14952380D02*
X18642857Y-14952380D01*
X18214285Y-15952380D01*
X19023809Y-15952380D02*
X19023809Y-14952380D01*
X19119047Y-15571428D02*
X19404761Y-15952380D01*
X19404761Y-15285714D02*
X19023809Y-15666666D01*
X39878095Y18597619D02*
X39878095Y19597619D01*
X39878095Y19121428D02*
X40449523Y19121428D01*
X40449523Y18597619D02*
X40449523Y19597619D01*
X40830476Y19597619D02*
X41497142Y19597619D01*
X41068571Y18597619D01*
X106043095Y-15727380D02*
X106614523Y-15727380D01*
X106328809Y-16727380D02*
X106328809Y-15727380D01*
X107471666Y-16727380D02*
X106900238Y-16727380D01*
X107185952Y-16727380D02*
X107185952Y-15727380D01*
X107090714Y-15870238D01*
X106995476Y-15965476D01*
X106900238Y-16013095D01*
X77662380Y-29761904D02*
X76662380Y-29761904D01*
X77138571Y-29761904D02*
X77138571Y-29190476D01*
X77662380Y-29190476D02*
X76662380Y-29190476D01*
X76662380Y-28238095D02*
X76662380Y-28714285D01*
X77138571Y-28761904D01*
X77090952Y-28714285D01*
X77043333Y-28619047D01*
X77043333Y-28380952D01*
X77090952Y-28285714D01*
X77138571Y-28238095D01*
X77233809Y-28190476D01*
X77471904Y-28190476D01*
X77567142Y-28238095D01*
X77614761Y-28285714D01*
X77662380Y-28380952D01*
X77662380Y-28619047D01*
X77614761Y-28714285D01*
X77567142Y-28761904D01*
X79202380Y-42239047D02*
X79202380Y-42048571D01*
X79250000Y-41953333D01*
X79345238Y-41858095D01*
X79535714Y-41810476D01*
X79869047Y-41810476D01*
X80059523Y-41858095D01*
X80154761Y-41953333D01*
X80202380Y-42048571D01*
X80202380Y-42239047D01*
X80154761Y-42334285D01*
X80059523Y-42429523D01*
X79869047Y-42477142D01*
X79535714Y-42477142D01*
X79345238Y-42429523D01*
X79250000Y-42334285D01*
X79202380Y-42239047D01*
X79535714Y-40953333D02*
X80202380Y-40953333D01*
X79535714Y-41381904D02*
X80059523Y-41381904D01*
X80154761Y-41334285D01*
X80202380Y-41239047D01*
X80202380Y-41096190D01*
X80154761Y-41000952D01*
X80107142Y-40953333D01*
X79535714Y-40620000D02*
X79535714Y-40239047D01*
X79202380Y-40477142D02*
X80059523Y-40477142D01*
X80154761Y-40429523D01*
X80202380Y-40334285D01*
X80202380Y-40239047D01*
X80154761Y-39953333D02*
X80202380Y-39858095D01*
X80202380Y-39667619D01*
X80154761Y-39572380D01*
X80059523Y-39524761D01*
X80011904Y-39524761D01*
X79916666Y-39572380D01*
X79869047Y-39667619D01*
X79869047Y-39810476D01*
X79821428Y-39905714D01*
X79726190Y-39953333D01*
X79678571Y-39953333D01*
X79583333Y-39905714D01*
X79535714Y-39810476D01*
X79535714Y-39667619D01*
X79583333Y-39572380D01*
X80202380Y-39096190D02*
X79535714Y-39096190D01*
X79202380Y-39096190D02*
X79250000Y-39143809D01*
X79297619Y-39096190D01*
X79250000Y-39048571D01*
X79202380Y-39096190D01*
X79297619Y-39096190D01*
X80202380Y-38191428D02*
X79202380Y-38191428D01*
X80154761Y-38191428D02*
X80202380Y-38286666D01*
X80202380Y-38477142D01*
X80154761Y-38572380D01*
X80107142Y-38620000D01*
X80011904Y-38667619D01*
X79726190Y-38667619D01*
X79630952Y-38620000D01*
X79583333Y-38572380D01*
X79535714Y-38477142D01*
X79535714Y-38286666D01*
X79583333Y-38191428D01*
X80154761Y-37334285D02*
X80202380Y-37429523D01*
X80202380Y-37620000D01*
X80154761Y-37715238D01*
X80059523Y-37762857D01*
X79678571Y-37762857D01*
X79583333Y-37715238D01*
X79535714Y-37620000D01*
X79535714Y-37429523D01*
X79583333Y-37334285D01*
X79678571Y-37286666D01*
X79773809Y-37286666D01*
X79869047Y-37762857D01*
X79535714Y-36239047D02*
X79535714Y-35858095D01*
X79202380Y-36096190D02*
X80059523Y-36096190D01*
X80154761Y-36048571D01*
X80202380Y-35953333D01*
X80202380Y-35858095D01*
X80202380Y-35524761D02*
X79202380Y-35524761D01*
X80202380Y-35096190D02*
X79678571Y-35096190D01*
X79583333Y-35143809D01*
X79535714Y-35239047D01*
X79535714Y-35381904D01*
X79583333Y-35477142D01*
X79630952Y-35524761D01*
X80154761Y-34239047D02*
X80202380Y-34334285D01*
X80202380Y-34524761D01*
X80154761Y-34620000D01*
X80059523Y-34667619D01*
X79678571Y-34667619D01*
X79583333Y-34620000D01*
X79535714Y-34524761D01*
X79535714Y-34334285D01*
X79583333Y-34239047D01*
X79678571Y-34191428D01*
X79773809Y-34191428D01*
X79869047Y-34667619D01*
X79535714Y-33000952D02*
X80535714Y-33000952D01*
X79583333Y-33000952D02*
X79535714Y-32905714D01*
X79535714Y-32715238D01*
X79583333Y-32620000D01*
X79630952Y-32572380D01*
X79726190Y-32524761D01*
X80011904Y-32524761D01*
X80107142Y-32572380D01*
X80154761Y-32620000D01*
X80202380Y-32715238D01*
X80202380Y-32905714D01*
X80154761Y-33000952D01*
X80154761Y-31667619D02*
X80202380Y-31762857D01*
X80202380Y-31953333D01*
X80154761Y-32048571D01*
X80107142Y-32096190D01*
X80011904Y-32143809D01*
X79726190Y-32143809D01*
X79630952Y-32096190D01*
X79583333Y-32048571D01*
X79535714Y-31953333D01*
X79535714Y-31762857D01*
X79583333Y-31667619D01*
X80202380Y-31239047D02*
X79202380Y-31239047D01*
X79583333Y-31239047D02*
X79535714Y-31143809D01*
X79535714Y-30953333D01*
X79583333Y-30858095D01*
X79630952Y-30810476D01*
X79726190Y-30762857D01*
X80011904Y-30762857D01*
X80107142Y-30810476D01*
X80154761Y-30858095D01*
X80202380Y-30953333D01*
X80202380Y-31143809D01*
X80154761Y-31239047D01*
X49742380Y7402619D02*
X49409047Y7878809D01*
X49170952Y7402619D02*
X49170952Y8402619D01*
X49551904Y8402619D01*
X49647142Y8355000D01*
X49694761Y8307380D01*
X49742380Y8212142D01*
X49742380Y8069285D01*
X49694761Y7974047D01*
X49647142Y7926428D01*
X49551904Y7878809D01*
X49170952Y7878809D01*
X50456666Y8402619D02*
X50456666Y7688333D01*
X50409047Y7545476D01*
X50313809Y7450238D01*
X50170952Y7402619D01*
X50075714Y7402619D01*
X50885238Y8307380D02*
X50932857Y8355000D01*
X51028095Y8402619D01*
X51266190Y8402619D01*
X51361428Y8355000D01*
X51409047Y8307380D01*
X51456666Y8212142D01*
X51456666Y8116904D01*
X51409047Y7974047D01*
X50837619Y7402619D01*
X51456666Y7402619D01*
X42678333Y-5202142D02*
X42630714Y-5249761D01*
X42487857Y-5297380D01*
X42392619Y-5297380D01*
X42249761Y-5249761D01*
X42154523Y-5154523D01*
X42106904Y-5059285D01*
X42059285Y-4868809D01*
X42059285Y-4725952D01*
X42106904Y-4535476D01*
X42154523Y-4440238D01*
X42249761Y-4345000D01*
X42392619Y-4297380D01*
X42487857Y-4297380D01*
X42630714Y-4345000D01*
X42678333Y-4392619D01*
X43535476Y-5297380D02*
X43535476Y-4773571D01*
X43487857Y-4678333D01*
X43392619Y-4630714D01*
X43202142Y-4630714D01*
X43106904Y-4678333D01*
X43535476Y-5249761D02*
X43440238Y-5297380D01*
X43202142Y-5297380D01*
X43106904Y-5249761D01*
X43059285Y-5154523D01*
X43059285Y-5059285D01*
X43106904Y-4964047D01*
X43202142Y-4916428D01*
X43440238Y-4916428D01*
X43535476Y-4868809D01*
X44011666Y-5297380D02*
X44011666Y-4297380D01*
X44011666Y-4678333D02*
X44106904Y-4630714D01*
X44297380Y-4630714D01*
X44392619Y-4678333D01*
X44440238Y-4725952D01*
X44487857Y-4821190D01*
X44487857Y-5106904D01*
X44440238Y-5202142D01*
X44392619Y-5249761D01*
X44297380Y-5297380D01*
X44106904Y-5297380D01*
X44011666Y-5249761D01*
X45059285Y-5297380D02*
X44964047Y-5249761D01*
X44916428Y-5154523D01*
X44916428Y-4297380D01*
X45821190Y-5249761D02*
X45725952Y-5297380D01*
X45535476Y-5297380D01*
X45440238Y-5249761D01*
X45392619Y-5154523D01*
X45392619Y-4773571D01*
X45440238Y-4678333D01*
X45535476Y-4630714D01*
X45725952Y-4630714D01*
X45821190Y-4678333D01*
X45868809Y-4773571D01*
X45868809Y-4868809D01*
X45392619Y-4964047D01*
X47487857Y-4630714D02*
X47487857Y-5297380D01*
X47249761Y-4249761D02*
X47011666Y-4964047D01*
X47630714Y-4964047D01*
X48725952Y-4249761D02*
X47868809Y-5535476D01*
X49630714Y-5297380D02*
X49297380Y-4821190D01*
X49059285Y-5297380D02*
X49059285Y-4297380D01*
X49440238Y-4297380D01*
X49535476Y-4345000D01*
X49583095Y-4392619D01*
X49630714Y-4487857D01*
X49630714Y-4630714D01*
X49583095Y-4725952D01*
X49535476Y-4773571D01*
X49440238Y-4821190D01*
X49059285Y-4821190D01*
X56648333Y-5202142D02*
X56600714Y-5249761D01*
X56457857Y-5297380D01*
X56362619Y-5297380D01*
X56219761Y-5249761D01*
X56124523Y-5154523D01*
X56076904Y-5059285D01*
X56029285Y-4868809D01*
X56029285Y-4725952D01*
X56076904Y-4535476D01*
X56124523Y-4440238D01*
X56219761Y-4345000D01*
X56362619Y-4297380D01*
X56457857Y-4297380D01*
X56600714Y-4345000D01*
X56648333Y-4392619D01*
X57505476Y-5297380D02*
X57505476Y-4773571D01*
X57457857Y-4678333D01*
X57362619Y-4630714D01*
X57172142Y-4630714D01*
X57076904Y-4678333D01*
X57505476Y-5249761D02*
X57410238Y-5297380D01*
X57172142Y-5297380D01*
X57076904Y-5249761D01*
X57029285Y-5154523D01*
X57029285Y-5059285D01*
X57076904Y-4964047D01*
X57172142Y-4916428D01*
X57410238Y-4916428D01*
X57505476Y-4868809D01*
X57981666Y-5297380D02*
X57981666Y-4297380D01*
X57981666Y-4678333D02*
X58076904Y-4630714D01*
X58267380Y-4630714D01*
X58362619Y-4678333D01*
X58410238Y-4725952D01*
X58457857Y-4821190D01*
X58457857Y-5106904D01*
X58410238Y-5202142D01*
X58362619Y-5249761D01*
X58267380Y-5297380D01*
X58076904Y-5297380D01*
X57981666Y-5249761D01*
X59029285Y-5297380D02*
X58934047Y-5249761D01*
X58886428Y-5154523D01*
X58886428Y-4297380D01*
X59791190Y-5249761D02*
X59695952Y-5297380D01*
X59505476Y-5297380D01*
X59410238Y-5249761D01*
X59362619Y-5154523D01*
X59362619Y-4773571D01*
X59410238Y-4678333D01*
X59505476Y-4630714D01*
X59695952Y-4630714D01*
X59791190Y-4678333D01*
X59838809Y-4773571D01*
X59838809Y-4868809D01*
X59362619Y-4964047D01*
X60934047Y-4297380D02*
X61553095Y-4297380D01*
X61219761Y-4678333D01*
X61362619Y-4678333D01*
X61457857Y-4725952D01*
X61505476Y-4773571D01*
X61553095Y-4868809D01*
X61553095Y-5106904D01*
X61505476Y-5202142D01*
X61457857Y-5249761D01*
X61362619Y-5297380D01*
X61076904Y-5297380D01*
X60981666Y-5249761D01*
X60934047Y-5202142D01*
X62695952Y-4249761D02*
X61838809Y-5535476D01*
X63362619Y-4773571D02*
X63505476Y-4821190D01*
X63553095Y-4868809D01*
X63600714Y-4964047D01*
X63600714Y-5106904D01*
X63553095Y-5202142D01*
X63505476Y-5249761D01*
X63410238Y-5297380D01*
X63029285Y-5297380D01*
X63029285Y-4297380D01*
X63362619Y-4297380D01*
X63457857Y-4345000D01*
X63505476Y-4392619D01*
X63553095Y-4487857D01*
X63553095Y-4583095D01*
X63505476Y-4678333D01*
X63457857Y-4725952D01*
X63362619Y-4773571D01*
X63029285Y-4773571D01*
X81492380Y7402619D02*
X81159047Y7878809D01*
X80920952Y7402619D02*
X80920952Y8402619D01*
X81301904Y8402619D01*
X81397142Y8355000D01*
X81444761Y8307380D01*
X81492380Y8212142D01*
X81492380Y8069285D01*
X81444761Y7974047D01*
X81397142Y7926428D01*
X81301904Y7878809D01*
X80920952Y7878809D01*
X82206666Y8402619D02*
X82206666Y7688333D01*
X82159047Y7545476D01*
X82063809Y7450238D01*
X81920952Y7402619D01*
X81825714Y7402619D01*
X83206666Y7402619D02*
X82635238Y7402619D01*
X82920952Y7402619D02*
X82920952Y8402619D01*
X82825714Y8259761D01*
X82730476Y8164523D01*
X82635238Y8116904D01*
X88469761Y-5202142D02*
X88422142Y-5249761D01*
X88279285Y-5297380D01*
X88184047Y-5297380D01*
X88041190Y-5249761D01*
X87945952Y-5154523D01*
X87898333Y-5059285D01*
X87850714Y-4868809D01*
X87850714Y-4725952D01*
X87898333Y-4535476D01*
X87945952Y-4440238D01*
X88041190Y-4345000D01*
X88184047Y-4297380D01*
X88279285Y-4297380D01*
X88422142Y-4345000D01*
X88469761Y-4392619D01*
X89326904Y-5297380D02*
X89326904Y-4773571D01*
X89279285Y-4678333D01*
X89184047Y-4630714D01*
X88993571Y-4630714D01*
X88898333Y-4678333D01*
X89326904Y-5249761D02*
X89231666Y-5297380D01*
X88993571Y-5297380D01*
X88898333Y-5249761D01*
X88850714Y-5154523D01*
X88850714Y-5059285D01*
X88898333Y-4964047D01*
X88993571Y-4916428D01*
X89231666Y-4916428D01*
X89326904Y-4868809D01*
X89803095Y-5297380D02*
X89803095Y-4297380D01*
X89803095Y-4678333D02*
X89898333Y-4630714D01*
X90088809Y-4630714D01*
X90184047Y-4678333D01*
X90231666Y-4725952D01*
X90279285Y-4821190D01*
X90279285Y-5106904D01*
X90231666Y-5202142D01*
X90184047Y-5249761D01*
X90088809Y-5297380D01*
X89898333Y-5297380D01*
X89803095Y-5249761D01*
X90850714Y-5297380D02*
X90755476Y-5249761D01*
X90707857Y-5154523D01*
X90707857Y-4297380D01*
X91612619Y-5249761D02*
X91517380Y-5297380D01*
X91326904Y-5297380D01*
X91231666Y-5249761D01*
X91184047Y-5154523D01*
X91184047Y-4773571D01*
X91231666Y-4678333D01*
X91326904Y-4630714D01*
X91517380Y-4630714D01*
X91612619Y-4678333D01*
X91660238Y-4773571D01*
X91660238Y-4868809D01*
X91184047Y-4964047D01*
X93374523Y-5297380D02*
X92803095Y-5297380D01*
X93088809Y-5297380D02*
X93088809Y-4297380D01*
X92993571Y-4440238D01*
X92898333Y-4535476D01*
X92803095Y-4583095D01*
X94517380Y-4249761D02*
X93660238Y-5535476D01*
X95041190Y-4821190D02*
X95041190Y-5297380D01*
X94707857Y-4297380D02*
X95041190Y-4821190D01*
X95374523Y-4297380D01*
X74428333Y-5202142D02*
X74380714Y-5249761D01*
X74237857Y-5297380D01*
X74142619Y-5297380D01*
X73999761Y-5249761D01*
X73904523Y-5154523D01*
X73856904Y-5059285D01*
X73809285Y-4868809D01*
X73809285Y-4725952D01*
X73856904Y-4535476D01*
X73904523Y-4440238D01*
X73999761Y-4345000D01*
X74142619Y-4297380D01*
X74237857Y-4297380D01*
X74380714Y-4345000D01*
X74428333Y-4392619D01*
X75285476Y-5297380D02*
X75285476Y-4773571D01*
X75237857Y-4678333D01*
X75142619Y-4630714D01*
X74952142Y-4630714D01*
X74856904Y-4678333D01*
X75285476Y-5249761D02*
X75190238Y-5297380D01*
X74952142Y-5297380D01*
X74856904Y-5249761D01*
X74809285Y-5154523D01*
X74809285Y-5059285D01*
X74856904Y-4964047D01*
X74952142Y-4916428D01*
X75190238Y-4916428D01*
X75285476Y-4868809D01*
X75761666Y-5297380D02*
X75761666Y-4297380D01*
X75761666Y-4678333D02*
X75856904Y-4630714D01*
X76047380Y-4630714D01*
X76142619Y-4678333D01*
X76190238Y-4725952D01*
X76237857Y-4821190D01*
X76237857Y-5106904D01*
X76190238Y-5202142D01*
X76142619Y-5249761D01*
X76047380Y-5297380D01*
X75856904Y-5297380D01*
X75761666Y-5249761D01*
X76809285Y-5297380D02*
X76714047Y-5249761D01*
X76666428Y-5154523D01*
X76666428Y-4297380D01*
X77571190Y-5249761D02*
X77475952Y-5297380D01*
X77285476Y-5297380D01*
X77190238Y-5249761D01*
X77142619Y-5154523D01*
X77142619Y-4773571D01*
X77190238Y-4678333D01*
X77285476Y-4630714D01*
X77475952Y-4630714D01*
X77571190Y-4678333D01*
X77618809Y-4773571D01*
X77618809Y-4868809D01*
X77142619Y-4964047D01*
X78761666Y-4392619D02*
X78809285Y-4345000D01*
X78904523Y-4297380D01*
X79142619Y-4297380D01*
X79237857Y-4345000D01*
X79285476Y-4392619D01*
X79333095Y-4487857D01*
X79333095Y-4583095D01*
X79285476Y-4725952D01*
X78714047Y-5297380D01*
X79333095Y-5297380D01*
X80475952Y-4249761D02*
X79618809Y-5535476D01*
X81333095Y-4345000D02*
X81237857Y-4297380D01*
X81095000Y-4297380D01*
X80952142Y-4345000D01*
X80856904Y-4440238D01*
X80809285Y-4535476D01*
X80761666Y-4725952D01*
X80761666Y-4868809D01*
X80809285Y-5059285D01*
X80856904Y-5154523D01*
X80952142Y-5249761D01*
X81095000Y-5297380D01*
X81190238Y-5297380D01*
X81333095Y-5249761D01*
X81380714Y-5202142D01*
X81380714Y-4868809D01*
X81190238Y-4868809D01*
X114370095Y4987619D02*
X114370095Y5987619D01*
X114370095Y5511428D02*
X114941523Y5511428D01*
X114941523Y4987619D02*
X114941523Y5987619D01*
X115941523Y4987619D02*
X115370095Y4987619D01*
X115655809Y4987619D02*
X115655809Y5987619D01*
X115560571Y5844761D01*
X115465333Y5749523D01*
X115370095Y5701904D01*
X117883465Y4120280D02*
X118216798Y4120280D01*
X118359655Y3596471D02*
X117883465Y3596471D01*
X117883465Y4596471D01*
X118359655Y4596471D01*
X118692989Y3596471D02*
X119216798Y4263137D01*
X118692989Y4263137D02*
X119216798Y3596471D01*
X119454893Y4263137D02*
X119835846Y4263137D01*
X119597750Y4596471D02*
X119597750Y3739328D01*
X119645369Y3644090D01*
X119740608Y3596471D01*
X119835846Y3596471D01*
X120169179Y3596471D02*
X120169179Y4263137D01*
X120169179Y4072661D02*
X120216798Y4167899D01*
X120264417Y4215518D01*
X120359655Y4263137D01*
X120454893Y4263137D01*
X121216798Y3596471D02*
X121216798Y4120280D01*
X121169179Y4215518D01*
X121073941Y4263137D01*
X120883465Y4263137D01*
X120788227Y4215518D01*
X121216798Y3644090D02*
X121121560Y3596471D01*
X120883465Y3596471D01*
X120788227Y3644090D01*
X120740608Y3739328D01*
X120740608Y3834566D01*
X120788227Y3929804D01*
X120883465Y3977423D01*
X121121560Y3977423D01*
X121216798Y4025042D01*
X122931084Y3596471D02*
X122454893Y3596471D01*
X122454893Y4596471D01*
X123407274Y3596471D02*
X123312036Y3644090D01*
X123264417Y3691709D01*
X123216798Y3786947D01*
X123216798Y4072661D01*
X123264417Y4167899D01*
X123312036Y4215518D01*
X123407274Y4263137D01*
X123550131Y4263137D01*
X123645369Y4215518D01*
X123692989Y4167899D01*
X123740608Y4072661D01*
X123740608Y3786947D01*
X123692989Y3691709D01*
X123645369Y3644090D01*
X123550131Y3596471D01*
X123407274Y3596471D01*
X124169179Y4263137D02*
X124169179Y3596471D01*
X124169179Y4167899D02*
X124216798Y4215518D01*
X124312036Y4263137D01*
X124454893Y4263137D01*
X124550131Y4215518D01*
X124597750Y4120280D01*
X124597750Y3596471D01*
X125502512Y4263137D02*
X125502512Y3453613D01*
X125454893Y3358375D01*
X125407274Y3310756D01*
X125312036Y3263137D01*
X125169179Y3263137D01*
X125073941Y3310756D01*
X125502512Y3644090D02*
X125407274Y3596471D01*
X125216798Y3596471D01*
X125121560Y3644090D01*
X125073941Y3691709D01*
X125026322Y3786947D01*
X125026322Y4072661D01*
X125073941Y4167899D01*
X125121560Y4215518D01*
X125216798Y4263137D01*
X125407274Y4263137D01*
X125502512Y4215518D01*
X21621904Y-44267380D02*
X21621904Y-43267380D01*
X21621904Y-43743571D02*
X22193333Y-43743571D01*
X22193333Y-44267380D02*
X22193333Y-43267380D01*
X23193333Y-44267380D02*
X22621904Y-44267380D01*
X22907619Y-44267380D02*
X22907619Y-43267380D01*
X22812380Y-43410238D01*
X22717142Y-43505476D01*
X22621904Y-43553095D01*
X24098095Y-43267380D02*
X23621904Y-43267380D01*
X23574285Y-43743571D01*
X23621904Y-43695952D01*
X23717142Y-43648333D01*
X23955238Y-43648333D01*
X24050476Y-43695952D01*
X24098095Y-43743571D01*
X24145714Y-43838809D01*
X24145714Y-44076904D01*
X24098095Y-44172142D01*
X24050476Y-44219761D01*
X23955238Y-44267380D01*
X23717142Y-44267380D01*
X23621904Y-44219761D01*
X23574285Y-44172142D01*
X24693571Y-37464523D02*
X24693571Y-37131190D01*
X25217380Y-36988333D02*
X25217380Y-37464523D01*
X24217380Y-37464523D01*
X24217380Y-36988333D01*
X25217380Y-36655000D02*
X24550714Y-36131190D01*
X24550714Y-36655000D02*
X25217380Y-36131190D01*
X24550714Y-35893095D02*
X24550714Y-35512142D01*
X24217380Y-35750238D02*
X25074523Y-35750238D01*
X25169761Y-35702619D01*
X25217380Y-35607380D01*
X25217380Y-35512142D01*
X25217380Y-35178809D02*
X24550714Y-35178809D01*
X24741190Y-35178809D02*
X24645952Y-35131190D01*
X24598333Y-35083571D01*
X24550714Y-34988333D01*
X24550714Y-34893095D01*
X25217380Y-34131190D02*
X24693571Y-34131190D01*
X24598333Y-34178809D01*
X24550714Y-34274047D01*
X24550714Y-34464523D01*
X24598333Y-34559761D01*
X25169761Y-34131190D02*
X25217380Y-34226428D01*
X25217380Y-34464523D01*
X25169761Y-34559761D01*
X25074523Y-34607380D01*
X24979285Y-34607380D01*
X24884047Y-34559761D01*
X24836428Y-34464523D01*
X24836428Y-34226428D01*
X24788809Y-34131190D01*
X25217380Y-32416904D02*
X25217380Y-32893095D01*
X24217380Y-32893095D01*
X25217380Y-31940714D02*
X25169761Y-32035952D01*
X25122142Y-32083571D01*
X25026904Y-32131190D01*
X24741190Y-32131190D01*
X24645952Y-32083571D01*
X24598333Y-32035952D01*
X24550714Y-31940714D01*
X24550714Y-31797857D01*
X24598333Y-31702619D01*
X24645952Y-31655000D01*
X24741190Y-31607380D01*
X25026904Y-31607380D01*
X25122142Y-31655000D01*
X25169761Y-31702619D01*
X25217380Y-31797857D01*
X25217380Y-31940714D01*
X24550714Y-31178809D02*
X25217380Y-31178809D01*
X24645952Y-31178809D02*
X24598333Y-31131190D01*
X24550714Y-31035952D01*
X24550714Y-30893095D01*
X24598333Y-30797857D01*
X24693571Y-30750238D01*
X25217380Y-30750238D01*
X24550714Y-29845476D02*
X25360238Y-29845476D01*
X25455476Y-29893095D01*
X25503095Y-29940714D01*
X25550714Y-30035952D01*
X25550714Y-30178809D01*
X25503095Y-30274047D01*
X25169761Y-29845476D02*
X25217380Y-29940714D01*
X25217380Y-30131190D01*
X25169761Y-30226428D01*
X25122142Y-30274047D01*
X25026904Y-30321666D01*
X24741190Y-30321666D01*
X24645952Y-30274047D01*
X24598333Y-30226428D01*
X24550714Y-30131190D01*
X24550714Y-29940714D01*
X24598333Y-29845476D01*
X27605562Y-20186592D02*
X27059325Y-20385320D01*
X27457666Y-20738550D02*
X26491740Y-20479731D01*
X26590338Y-20111759D01*
X26660984Y-20032091D01*
X26719305Y-19998419D01*
X26823622Y-19977072D01*
X26961612Y-20014046D01*
X27041280Y-20084692D01*
X27074952Y-20143013D01*
X27096299Y-20247331D01*
X26997701Y-20615302D01*
X27852057Y-19266663D02*
X27704160Y-19818620D01*
X27778108Y-19542641D02*
X26812183Y-19283822D01*
X26925523Y-19412789D01*
X26992866Y-19529432D01*
X27014213Y-19633749D01*
X26570286Y-24050295D02*
X26422389Y-24602252D01*
X26496338Y-24326274D02*
X25530412Y-24067455D01*
X25643752Y-24196422D01*
X25711095Y-24313064D01*
X25732442Y-24417382D01*
X26816780Y-23130365D02*
X26668884Y-23682323D01*
X26742832Y-23406344D02*
X25776906Y-23147525D01*
X25890246Y-23276492D01*
X25957590Y-23393135D01*
X25978937Y-23497452D01*
X26011076Y-22273592D02*
X26035725Y-22181599D01*
X26106371Y-22101931D01*
X26164692Y-22068259D01*
X26269010Y-22046912D01*
X26465320Y-22050215D01*
X26695303Y-22111838D01*
X26866964Y-22207134D01*
X26946632Y-22277780D01*
X26980304Y-22336101D01*
X27001651Y-22440418D01*
X26977002Y-22532411D01*
X26906356Y-22612080D01*
X26848034Y-22645751D01*
X26743717Y-22667098D01*
X26547406Y-22663796D01*
X26317424Y-22602172D01*
X26145763Y-22506877D01*
X26066095Y-22436231D01*
X26032423Y-22377910D01*
X26011076Y-22273592D01*
X18232380Y-31231666D02*
X17756190Y-31565000D01*
X18232380Y-31803095D02*
X17232380Y-31803095D01*
X17232380Y-31422142D01*
X17280000Y-31326904D01*
X17327619Y-31279285D01*
X17422857Y-31231666D01*
X17565714Y-31231666D01*
X17660952Y-31279285D01*
X17708571Y-31326904D01*
X17756190Y-31422142D01*
X17756190Y-31803095D01*
X17327619Y-30850714D02*
X17280000Y-30803095D01*
X17232380Y-30707857D01*
X17232380Y-30469761D01*
X17280000Y-30374523D01*
X17327619Y-30326904D01*
X17422857Y-30279285D01*
X17518095Y-30279285D01*
X17660952Y-30326904D01*
X18232380Y-30898333D01*
X18232380Y-30279285D01*
X17362620Y-35803095D02*
X17315001Y-35755476D01*
X17267381Y-35660238D01*
X17267381Y-35422142D01*
X17315001Y-35326904D01*
X17362620Y-35279285D01*
X17457858Y-35231666D01*
X17553096Y-35231666D01*
X17695953Y-35279285D01*
X18267381Y-35850714D01*
X18267381Y-35231666D01*
X17362620Y-34850714D02*
X17315001Y-34803095D01*
X17267381Y-34707857D01*
X17267381Y-34469761D01*
X17315001Y-34374523D01*
X17362620Y-34326904D01*
X17457858Y-34279285D01*
X17553096Y-34279285D01*
X17695953Y-34326904D01*
X18267381Y-34898333D01*
X18267381Y-34279285D01*
X17267381Y-33660238D02*
X17267381Y-33565000D01*
X17315001Y-33469761D01*
X17362620Y-33422142D01*
X17457858Y-33374523D01*
X17648334Y-33326904D01*
X17886429Y-33326904D01*
X18076905Y-33374523D01*
X18172143Y-33422142D01*
X18219762Y-33469761D01*
X18267381Y-33565000D01*
X18267381Y-33660238D01*
X18219762Y-33755476D01*
X18172143Y-33803095D01*
X18076905Y-33850714D01*
X17886429Y-33898333D01*
X17648334Y-33898333D01*
X17457858Y-33850714D01*
X17362620Y-33803095D01*
X17315001Y-33755476D01*
X17267381Y-33660238D01*
X32039178Y-37695125D02*
X31535828Y-37404423D01*
X31521287Y-37936621D02*
X31098669Y-37030314D01*
X31443929Y-36869316D01*
X31550369Y-36872224D01*
X31613651Y-36895257D01*
X31697058Y-36961448D01*
X31757432Y-37090920D01*
X31754524Y-37197360D01*
X31731491Y-37260642D01*
X31665301Y-37344049D01*
X31320041Y-37505046D01*
X32436552Y-36406449D02*
X32004977Y-36607695D01*
X32163066Y-37059395D01*
X32186099Y-36996113D01*
X32252289Y-36912706D01*
X32468077Y-36812083D01*
X32574517Y-36814991D01*
X32637799Y-36838024D01*
X32721206Y-36904214D01*
X32821829Y-37120002D01*
X32818921Y-37226441D01*
X32795888Y-37289724D01*
X32729698Y-37373130D01*
X32513910Y-37473754D01*
X32407471Y-37470846D01*
X32344188Y-37447813D01*
X27894408Y-38440460D02*
X27462833Y-38641707D01*
X27620922Y-39093407D01*
X27643955Y-39030125D01*
X27710145Y-38946718D01*
X27925933Y-38846095D01*
X28032373Y-38849003D01*
X28095655Y-38872036D01*
X28179062Y-38938226D01*
X28279685Y-39154014D01*
X28276777Y-39260453D01*
X28253744Y-39323735D01*
X28187554Y-39407142D01*
X27971766Y-39507766D01*
X27865327Y-39504858D01*
X27802044Y-39481825D01*
X28498613Y-38158715D02*
X28584928Y-38118466D01*
X28691368Y-38121374D01*
X28754650Y-38144407D01*
X28838057Y-38210597D01*
X28961713Y-38363102D01*
X29062337Y-38578890D01*
X29099678Y-38771645D01*
X29096770Y-38878084D01*
X29073737Y-38941367D01*
X29007547Y-39024773D01*
X28921232Y-39065023D01*
X28814792Y-39062115D01*
X28751510Y-39039082D01*
X28668103Y-38972891D01*
X28544447Y-38820386D01*
X28443823Y-38604598D01*
X28406482Y-38411844D01*
X28409390Y-38305404D01*
X28432423Y-38242122D01*
X28498613Y-38158715D01*
X34798095Y-44267380D02*
X34798095Y-43267380D01*
X34798095Y-43743571D02*
X35369523Y-43743571D01*
X35369523Y-44267380D02*
X35369523Y-43267380D01*
X35798095Y-43362619D02*
X35845714Y-43315000D01*
X35940952Y-43267380D01*
X36179047Y-43267380D01*
X36274285Y-43315000D01*
X36321904Y-43362619D01*
X36369523Y-43457857D01*
X36369523Y-43553095D01*
X36321904Y-43695952D01*
X35750476Y-44267380D01*
X36369523Y-44267380D01*
X95662380Y-35808095D02*
X94662380Y-35808095D01*
X95662380Y-35236666D02*
X95090952Y-35665238D01*
X94662380Y-35236666D02*
X95233809Y-35808095D01*
X95662380Y-34808095D02*
X94662380Y-34808095D01*
X94662380Y-34427142D01*
X94710000Y-34331904D01*
X94757619Y-34284285D01*
X94852857Y-34236666D01*
X94995714Y-34236666D01*
X95090952Y-34284285D01*
X95138571Y-34331904D01*
X95186190Y-34427142D01*
X95186190Y-34808095D01*
X95662380Y-33284285D02*
X95662380Y-33855714D01*
X95662380Y-33570000D02*
X94662380Y-33570000D01*
X94805238Y-33665238D01*
X94900476Y-33760476D01*
X94948095Y-33855714D01*
X136730952Y-38302380D02*
X136254761Y-38302380D01*
X136254761Y-37302380D01*
X137064285Y-37778571D02*
X137397619Y-37778571D01*
X137540476Y-38302380D02*
X137064285Y-38302380D01*
X137064285Y-37302380D01*
X137540476Y-37302380D01*
X137969047Y-38302380D02*
X137969047Y-37302380D01*
X138207142Y-37302380D01*
X138350000Y-37350000D01*
X138445238Y-37445238D01*
X138492857Y-37540476D01*
X138540476Y-37730952D01*
X138540476Y-37873809D01*
X138492857Y-38064285D01*
X138445238Y-38159523D01*
X138350000Y-38254761D01*
X138207142Y-38302380D01*
X137969047Y-38302380D01*
X139492857Y-38302380D02*
X138921428Y-38302380D01*
X139207142Y-38302380D02*
X139207142Y-37302380D01*
X139111904Y-37445238D01*
X139016666Y-37540476D01*
X138921428Y-37588095D01*
X139811904Y-35055000D02*
X139716666Y-35007380D01*
X139573809Y-35007380D01*
X139430952Y-35055000D01*
X139335714Y-35150238D01*
X139288095Y-35245476D01*
X139240476Y-35435952D01*
X139240476Y-35578809D01*
X139288095Y-35769285D01*
X139335714Y-35864523D01*
X139430952Y-35959761D01*
X139573809Y-36007380D01*
X139669047Y-36007380D01*
X139811904Y-35959761D01*
X139859523Y-35912142D01*
X139859523Y-35578809D01*
X139669047Y-35578809D01*
X139621428Y-34213571D02*
X139764285Y-34261190D01*
X139811904Y-34308809D01*
X139859523Y-34404047D01*
X139859523Y-34546904D01*
X139811904Y-34642142D01*
X139764285Y-34689761D01*
X139669047Y-34737380D01*
X139288095Y-34737380D01*
X139288095Y-33737380D01*
X139621428Y-33737380D01*
X139716666Y-33785000D01*
X139764285Y-33832619D01*
X139811904Y-33927857D01*
X139811904Y-34023095D01*
X139764285Y-34118333D01*
X139716666Y-34165952D01*
X139621428Y-34213571D01*
X139288095Y-34213571D01*
X139628095Y-32515000D02*
X139532857Y-32467380D01*
X139390000Y-32467380D01*
X139247142Y-32515000D01*
X139151904Y-32610238D01*
X139104285Y-32705476D01*
X139056666Y-32895952D01*
X139056666Y-33038809D01*
X139104285Y-33229285D01*
X139151904Y-33324523D01*
X139247142Y-33419761D01*
X139390000Y-33467380D01*
X139485238Y-33467380D01*
X139628095Y-33419761D01*
X139675714Y-33372142D01*
X139675714Y-33038809D01*
X139485238Y-33038809D01*
X140104285Y-33467380D02*
X140104285Y-32467380D01*
X140675714Y-33467380D01*
X140675714Y-32467380D01*
X141151904Y-33467380D02*
X141151904Y-32467380D01*
X141390000Y-32467380D01*
X141532857Y-32515000D01*
X141628095Y-32610238D01*
X141675714Y-32705476D01*
X141723333Y-32895952D01*
X141723333Y-33038809D01*
X141675714Y-33229285D01*
X141628095Y-33324523D01*
X141532857Y-33419761D01*
X141390000Y-33467380D01*
X141151904Y-33467380D01*
X139859523Y-32197380D02*
X139526190Y-31721190D01*
X139288095Y-32197380D02*
X139288095Y-31197380D01*
X139669047Y-31197380D01*
X139764285Y-31245000D01*
X139811904Y-31292619D01*
X139859523Y-31387857D01*
X139859523Y-31530714D01*
X139811904Y-31625952D01*
X139764285Y-31673571D01*
X139669047Y-31721190D01*
X139288095Y-31721190D01*
M02*
