M48
;DRILL file {KiCad 4.0.7-e2-6376~58~ubuntu16.04.1} date Sun Dec  9 15:38:50 2018
;FORMAT={-:-/ absolute / metric / decimal}
FMAT,2
METRIC,TZ
T1C0.762
T2C0.900
%
G90
G05
M71
T1
X120.015Y-172.085
X120.015Y-174.625
X122.555Y-172.085
X122.555Y-174.625
X125.095Y-172.085
X125.095Y-174.625
X127.635Y-172.085
X127.635Y-174.625
X130.175Y-172.085
X130.175Y-174.625
X132.715Y-172.085
X135.255Y-172.085
X142.875Y-174.625
X145.415Y-174.625
X147.955Y-172.085
X147.955Y-174.625
X150.495Y-172.085
X153.035Y-172.085
X153.035Y-174.625
X155.575Y-172.085
X155.575Y-174.625
X158.115Y-172.085
X158.115Y-174.625
X160.655Y-172.085
X160.655Y-174.625
X163.195Y-172.085
X163.195Y-174.625
X165.735Y-172.085
X165.735Y-174.625
X168.275Y-172.085
X168.275Y-174.625
T2
X118.11Y-144.78
X118.11Y-148.59
X118.11Y-158.75
X118.11Y-163.83
X119.393Y-191.188
X119.393Y-188.013
X120.015Y-179.705
X120.65Y-135.89
X120.65Y-144.78
X120.65Y-148.59
X120.65Y-158.75
X120.65Y-163.83
X121.933Y-191.188
X121.933Y-188.013
X122.555Y-179.705
X123.19Y-135.89
X123.19Y-144.78
X123.19Y-148.59
X123.19Y-158.75
X123.19Y-163.83
X124.473Y-191.188
X124.473Y-188.013
X125.095Y-179.705
X125.73Y-135.89
X125.73Y-144.78
X125.73Y-163.83
X127.635Y-179.705
X128.27Y-135.89
X128.27Y-163.83
X130.175Y-179.705
X130.81Y-135.89
X130.81Y-163.83
X132.08Y-154.305
X132.715Y-179.705
X133.35Y-135.89
X133.35Y-163.83
X135.255Y-179.705
X135.89Y-135.89
X135.89Y-163.83
X138.43Y-135.89
X139.065Y-132.08
X139.065Y-144.78
X139.065Y-163.83
X139.7Y-154.305
X140.335Y-179.705
X140.97Y-135.89
X141.605Y-132.08
X141.605Y-144.78
X141.605Y-163.83
X142.875Y-179.705
X143.486Y-189.935
X143.51Y-135.89
X143.51Y-159.385
X144.145Y-132.08
X144.145Y-144.78
X144.145Y-163.83
X144.62Y-187.325
X145.415Y-154.305
X145.415Y-179.705
X146.026Y-189.935
X146.05Y-135.89
X146.42Y-187.325
X146.685Y-132.08
X146.685Y-144.78
X146.685Y-163.83
X147.872Y-148.507
X147.955Y-154.305
X147.955Y-179.705
X148.22Y-187.325
X148.566Y-189.935
X148.59Y-135.89
X149.225Y-132.08
X149.225Y-144.78
X149.225Y-163.83
X149.308Y-149.943
X150.02Y-187.325
X150.495Y-154.305
X150.495Y-179.705
X151.106Y-189.935
X151.13Y-135.89
X151.765Y-132.08
X151.765Y-144.78
X151.765Y-163.83
X153.035Y-179.705
X153.67Y-135.89
X153.67Y-151.13
X153.67Y-156.21
X153.67Y-159.385
X154.305Y-132.08
X154.305Y-144.78
X154.305Y-163.83
X155.575Y-179.705
X156.21Y-135.89
X156.21Y-151.13
X156.21Y-156.21
X157.48Y-144.78
X158.115Y-179.705
X158.75Y-135.89
X160.02Y-144.78
X160.655Y-160.655
X160.655Y-182.88
X160.655Y-187.96
X161.29Y-135.89
X161.29Y-151.13
X161.29Y-156.21
X162.56Y-144.78
X163.195Y-160.655
X163.195Y-177.8
X163.195Y-180.34
X163.195Y-185.42
X163.195Y-187.96
X163.195Y-190.5
X163.195Y-193.04
X163.83Y-135.89
X163.83Y-151.13
X163.83Y-156.21
X164.465Y-195.58
X165.735Y-160.655
X166.37Y-135.89
X166.37Y-151.13
X166.37Y-156.21
X167.005Y-195.58
X168.275Y-160.655
X168.275Y-177.8
X168.275Y-180.34
X168.275Y-185.42
X168.275Y-187.96
X168.275Y-190.5
X168.275Y-193.04
X168.91Y-135.89
X168.91Y-151.13
X168.91Y-156.21
X171.45Y-151.13
X171.45Y-156.21
T0
M30
