G04 #@! TF.GenerationSoftware,KiCad,Pcbnew,5.1.6-c6e7f7d~86~ubuntu19.10.1*
G04 #@! TF.CreationDate,2020-11-14T00:43:59+02:00*
G04 #@! TF.ProjectId,authenticator2.0,61757468-656e-4746-9963-61746f72322e,rev?*
G04 #@! TF.SameCoordinates,Original*
G04 #@! TF.FileFunction,Profile,NP*
%FSLAX46Y46*%
G04 Gerber Fmt 4.6, Leading zero omitted, Abs format (unit mm)*
G04 Created by KiCad (PCBNEW 5.1.6-c6e7f7d~86~ubuntu19.10.1) date 2020-11-14 00:43:59*
%MOMM*%
%LPD*%
G01*
G04 APERTURE LIST*
G04 #@! TA.AperFunction,Profile*
%ADD10C,0.150000*%
G04 #@! TD*
G04 #@! TA.AperFunction,Profile*
%ADD11C,0.200000*%
G04 #@! TD*
G04 APERTURE END LIST*
D10*
X97155000Y-128905000D02*
X106045000Y-128905000D01*
X72390000Y-128905000D02*
X69215000Y-128905000D01*
X74930000Y-125730000D02*
X94615000Y-125730000D01*
X94615000Y-128905000D02*
X74930000Y-128905000D01*
X94615000Y-125730000D02*
X94615000Y-128905000D01*
X97155000Y-128905000D02*
X97155000Y-125730000D01*
X74930000Y-125730000D02*
X74930000Y-128905000D01*
X74930000Y-125730000D02*
X77470000Y-125730000D01*
X72390000Y-125730000D02*
X56515000Y-125730000D01*
X72390000Y-128905000D02*
X72390000Y-125730000D01*
X56515000Y-128905000D02*
X66040000Y-128905000D01*
X53975000Y-128905000D02*
X27305000Y-128905000D01*
X27305000Y-125730000D02*
X53975000Y-125730000D01*
X24765000Y-128905000D02*
X16510000Y-128905000D01*
X20320000Y-125730000D02*
X24765000Y-125730000D01*
X53975000Y-128905000D02*
X53975000Y-125730000D01*
X56515000Y-128905000D02*
X56515000Y-125730000D01*
X27305000Y-128905000D02*
X27305000Y-125730000D01*
X24765000Y-128905000D02*
X24765000Y-125730000D01*
X38735000Y-69215000D02*
X41275000Y-69215000D01*
X41275000Y-66040000D02*
X38735000Y-66040000D01*
X45720000Y-66040000D02*
X50165000Y-66040000D01*
X50165000Y-69215000D02*
X45720000Y-69215000D01*
X52705000Y-69215000D02*
X70485000Y-69215000D01*
X70485000Y-66040000D02*
X52705000Y-66040000D01*
X74295000Y-66040000D02*
X73025000Y-66040000D01*
X74295000Y-69215000D02*
X73025000Y-69215000D01*
X52705000Y-69215000D02*
X52705000Y-66040000D01*
X50165000Y-69215000D02*
X50165000Y-66040000D01*
X70485000Y-69215000D02*
X70485000Y-66040000D01*
X73025000Y-69215000D02*
X73025000Y-66040000D01*
X65405000Y-159385000D02*
X62865000Y-159385000D01*
X69215000Y-128905000D02*
X69215000Y-144145000D01*
X107950000Y-149860000D02*
X106045000Y-147955000D01*
X109855000Y-159385000D02*
X65405000Y-159385000D01*
X62865000Y-151765000D02*
X65405000Y-151765000D01*
X112395000Y-159385000D02*
X109855000Y-159385000D01*
X62865000Y-159385000D02*
X62865000Y-151765000D01*
X67945000Y-149225000D02*
X69215000Y-147955000D01*
X107950000Y-149860000D02*
X109855000Y-151765000D01*
X112395000Y-151765000D02*
X109855000Y-151765000D01*
X67945000Y-149225000D02*
X65405000Y-151765000D01*
X69215000Y-147955000D02*
X69215000Y-144145000D01*
X112395000Y-151765000D02*
X112395000Y-159385000D01*
X106045000Y-128905000D02*
X106045000Y-147955000D01*
X116836600Y-70475000D02*
X115566600Y-70475000D01*
D11*
X120646600Y-70475000D02*
X120646600Y-71745000D01*
X120646600Y-71745000D02*
X121916600Y-71745000D01*
D10*
X116836600Y-83175000D02*
X115566600Y-81905000D01*
D11*
X120646600Y-81905000D02*
X120646600Y-83175000D01*
X120646600Y-83175000D02*
X116836600Y-83175000D01*
X121916600Y-71745000D02*
X123186600Y-73015000D01*
X123186600Y-73015000D02*
X123186600Y-80635000D01*
X123186600Y-80635000D02*
X121916600Y-81905000D01*
X121916600Y-81905000D02*
X120646600Y-81905000D01*
D10*
X116836600Y-70475000D02*
X120646600Y-70475000D01*
X115570000Y-81280000D02*
X115566600Y-81905000D01*
X111760000Y-81280000D02*
X115570000Y-81280000D01*
X115570000Y-78740000D02*
X111760000Y-78740000D01*
X115570000Y-74930000D02*
X115570000Y-78740000D01*
X115570000Y-74930000D02*
X111760000Y-74930000D01*
X115570000Y-72390000D02*
X111760000Y-72390000D01*
X115566600Y-70475000D02*
X115570000Y-72390000D01*
X20955000Y-138430000D02*
X22860000Y-140335000D01*
X20955000Y-138430000D02*
X19050000Y-136525000D01*
X59690000Y-140335000D02*
X59690000Y-144145000D01*
X60960000Y-139065000D02*
X59690000Y-140335000D01*
X60960000Y-139065000D02*
X63500000Y-136525000D01*
X66040000Y-136525000D02*
X63500000Y-136525000D01*
X66040000Y-128905000D02*
X66040000Y-136525000D01*
X63500000Y-128905000D02*
X66040000Y-128905000D01*
X16510000Y-128905000D02*
X19050000Y-128905000D01*
X16510000Y-136525000D02*
X16510000Y-128905000D01*
X16510000Y-136525000D02*
X19050000Y-136525000D01*
X22860000Y-159385000D02*
X22860000Y-140335000D01*
X59690000Y-159385000D02*
X22860000Y-159385000D01*
X59690000Y-159385000D02*
X59690000Y-144145000D01*
X43180000Y-59690000D02*
X43180000Y-45720000D01*
X49530000Y-59690000D02*
X43180000Y-59690000D01*
X49530000Y-45720000D02*
X49530000Y-59690000D01*
X43180000Y-45720000D02*
X49530000Y-45720000D01*
X57150000Y-59690000D02*
X57150000Y-45720000D01*
X63500000Y-59690000D02*
X57150000Y-59690000D01*
X63500000Y-45720000D02*
X63500000Y-59690000D01*
X57150000Y-45720000D02*
X63500000Y-45720000D01*
X74930000Y-59690000D02*
X74930000Y-45720000D01*
X81280000Y-59690000D02*
X74930000Y-59690000D01*
X81280000Y-45720000D02*
X81280000Y-59690000D01*
X74930000Y-45720000D02*
X81280000Y-45720000D01*
X88900000Y-59690000D02*
X88900000Y-45720000D01*
X95250000Y-59690000D02*
X88900000Y-59690000D01*
X95250000Y-45720000D02*
X95250000Y-59690000D01*
X88900000Y-45720000D02*
X95250000Y-45720000D01*
X34925000Y-59690000D02*
G75*
G03*
X34925000Y-59690000I-1905000J0D01*
G01*
X139065000Y-18415000D02*
X139065000Y-50800000D01*
X115570000Y-50800000D02*
X115570000Y-55880000D01*
X115570000Y-48260000D02*
X115570000Y-37465000D01*
X118745000Y-37465000D02*
X118745000Y-48260000D01*
X118745000Y-48260000D02*
X115570000Y-48260000D01*
X118745000Y-50800000D02*
X115570000Y-50800000D01*
X139065000Y-50800000D02*
X118745000Y-50800000D01*
X111125000Y-69850000D02*
X111125000Y-71120000D01*
X109855000Y-69850000D02*
X111125000Y-69850000D01*
X105410000Y-86995000D02*
X105410000Y-98425000D01*
X105410000Y-116205000D02*
X105410000Y-107315000D01*
X105410000Y-123190000D02*
X105410000Y-120015000D01*
X106045000Y-123190000D02*
X105410000Y-123190000D01*
X105410000Y-69850000D02*
X105410000Y-80645000D01*
X107315000Y-69850000D02*
X105410000Y-69850000D01*
X41275000Y-69215000D02*
X45720000Y-69215000D01*
X45720000Y-66040000D02*
X41275000Y-66040000D01*
X22860000Y-66040000D02*
X38735000Y-66040000D01*
X38735000Y-69215000D02*
X22860000Y-69215000D01*
X119370600Y-98425600D02*
X118110000Y-97155000D01*
X115570000Y-34925000D02*
X115570000Y-20955000D01*
X118745000Y-20955000D02*
X118745000Y-34925000D01*
X115570000Y-16510000D02*
X115570000Y-18415000D01*
X115570000Y-34925000D02*
X118745000Y-34925000D01*
X118745000Y-37465000D02*
X115570000Y-37465000D01*
X118745000Y-20955000D02*
X115570000Y-20955000D01*
X118745000Y-18415000D02*
X115570000Y-18415000D01*
X115570000Y-55880000D02*
X115570000Y-66040000D01*
X74295000Y-69215000D02*
X95250000Y-69215000D01*
X74295000Y-66040000D02*
X95250000Y-66040000D01*
X97790000Y-66040000D02*
X107315000Y-66040000D01*
X95250000Y-66040000D02*
X95250000Y-69215000D01*
X97790000Y-69215000D02*
X97790000Y-66040000D01*
X20320000Y-66040000D02*
X16510000Y-66040000D01*
X22860000Y-66040000D02*
X22860000Y-69215000D01*
X20320000Y-69215000D02*
X20320000Y-66040000D01*
X109855000Y-66040000D02*
X115570000Y-66040000D01*
X107315000Y-69850000D02*
X107315000Y-66040000D01*
X109855000Y-69850000D02*
X109855000Y-66040000D01*
X114935000Y-92075000D02*
X114935000Y-92710000D01*
X118110000Y-92075000D02*
X114935000Y-92075000D01*
X118110000Y-92710000D02*
X118110000Y-92075000D01*
X118110000Y-89535000D02*
X118100600Y-89535600D01*
X114935000Y-89535000D02*
X118110000Y-89535000D01*
X114935000Y-97155000D02*
X114935000Y-106680000D01*
X118110000Y-97155000D02*
X114935000Y-97155000D01*
X114935000Y-94615000D02*
X114935000Y-92710000D01*
X118110000Y-94615000D02*
X114935000Y-94615000D01*
X118110000Y-92710000D02*
X118110000Y-94615000D01*
X114935000Y-87630000D02*
X114935000Y-89535000D01*
X111125000Y-81280000D02*
X111125000Y-82550000D01*
X111760000Y-81280000D02*
X111125000Y-81280000D01*
X111125000Y-78740000D02*
X111760000Y-78740000D01*
X111125000Y-74930000D02*
X111125000Y-78740000D01*
X111760000Y-74930000D02*
X111125000Y-74930000D01*
X111125000Y-72390000D02*
X111125000Y-71120000D01*
X111760000Y-72390000D02*
X111125000Y-72390000D01*
X101600000Y-82550000D02*
X101600000Y-73025000D01*
X101600000Y-119380000D02*
X101600000Y-121920000D01*
X101600000Y-104140000D02*
X101600000Y-116840000D01*
X101600000Y-101600000D02*
X101600000Y-85090000D01*
X105410000Y-101600000D02*
X105410000Y-98425000D01*
X105410000Y-104140000D02*
X105410000Y-107315000D01*
X105410000Y-119380000D02*
X105410000Y-120015000D01*
X105410000Y-116840000D02*
X105410000Y-116205000D01*
X105410000Y-119380000D02*
X101600000Y-119380000D01*
X105410000Y-116840000D02*
X101600000Y-116840000D01*
X101600000Y-104140000D02*
X105410000Y-104140000D01*
X105410000Y-101600000D02*
X101600000Y-101600000D01*
X105410000Y-85090000D02*
X105410000Y-86995000D01*
X105410000Y-82550000D02*
X105410000Y-80645000D01*
X105410000Y-85090000D02*
X101600000Y-85090000D01*
X105410000Y-82550000D02*
X101600000Y-82550000D01*
X16510000Y-91440000D02*
X16510000Y-121920000D01*
X20320000Y-125730000D02*
G75*
G02*
X16510000Y-121920000I0J3810000D01*
G01*
X21413600Y-122029370D02*
G75*
G03*
X21413600Y-122029370I-1500000J0D01*
G01*
X21413600Y-73032770D02*
G75*
G03*
X21413600Y-73032770I-1500000J0D01*
G01*
X79401800Y-73032770D02*
G75*
G03*
X79401800Y-73032770I-1500000J0D01*
G01*
X97790000Y-125730000D02*
X97155000Y-125730000D01*
X101600000Y-120015000D02*
X101600000Y-121920000D01*
X101600000Y-121920000D02*
G75*
G02*
X97790000Y-125730000I-3810000J0D01*
G01*
X97790000Y-69215000D02*
G75*
G02*
X101600000Y-73025000I0J-3810000D01*
G01*
X16510000Y-73025000D02*
X16510000Y-91440000D01*
X16510000Y-73025000D02*
G75*
G02*
X20320000Y-69215000I3810000J0D01*
G01*
D11*
X118100600Y-89535600D02*
X119370600Y-88265600D01*
D10*
X119370600Y-88265600D02*
X125720600Y-88265600D01*
X125720600Y-88265600D02*
X126990600Y-89535600D01*
X126990600Y-89535600D02*
X126990600Y-98425600D01*
D11*
X126990600Y-98425600D02*
X119370600Y-98425600D01*
D10*
X111760000Y-83185000D02*
X111125000Y-82550000D01*
X111760000Y-84455000D02*
X111760000Y-83185000D01*
X112395000Y-85090000D02*
X111760000Y-84455000D01*
X111760000Y-108585000D02*
X112395000Y-107950000D01*
X111760000Y-117475000D02*
X111760000Y-108585000D01*
X111125000Y-118110000D02*
X111760000Y-117475000D01*
X112395000Y-87630000D02*
X112395000Y-85090000D01*
X113665000Y-107950000D02*
X112395000Y-107950000D01*
X114935000Y-106680000D02*
X113665000Y-107950000D01*
X112395000Y-87630000D02*
X114935000Y-87630000D01*
X111125000Y-123190000D02*
X111125000Y-118110000D01*
X106045000Y-123190000D02*
X111125000Y-123190000D01*
X118745000Y-18415000D02*
X139065000Y-18415000D01*
X115570000Y-16510000D02*
X16510000Y-16510000D01*
X16510000Y-16510000D02*
X16510000Y-66040000D01*
M02*
