G04 #@! TF.FileFunction,Profile,NP*
%FSLAX46Y46*%
G04 Gerber Fmt 4.6, Leading zero omitted, Abs format (unit mm)*
G04 Created by KiCad (PCBNEW 4.0.7-e2-6376~58~ubuntu16.04.1) date Mon Dec 10 06:00:01 2018*
%MOMM*%
%LPD*%
G01*
G04 APERTURE LIST*
%ADD10C,0.100000*%
%ADD11C,0.150000*%
G04 APERTURE END LIST*
D10*
D11*
X168275000Y-141605000D02*
X172720000Y-141605000D01*
X165100000Y-141605000D02*
X165735000Y-141605000D01*
X168275000Y-139065000D02*
X168275000Y-141605000D01*
X150495000Y-141605000D02*
X165100000Y-141605000D01*
X150495000Y-139065000D02*
X153035000Y-139065000D01*
X146685000Y-139065000D02*
X147955000Y-139065000D01*
X147320000Y-141605000D02*
X147955000Y-141605000D01*
X130810000Y-141605000D02*
X127635000Y-141605000D01*
X133350000Y-141605000D02*
X141605000Y-141605000D01*
X133350000Y-139065000D02*
X133350000Y-141605000D01*
X173355000Y-141605000D02*
X172720000Y-141605000D01*
X174625000Y-142875000D02*
X173355000Y-141605000D01*
X174625000Y-165735000D02*
X174625000Y-142875000D01*
X173355000Y-167005000D02*
X174625000Y-165735000D01*
X172720000Y-167005000D02*
X173355000Y-167005000D01*
X130810000Y-139065000D02*
X130810000Y-141605000D01*
X133350000Y-139065000D02*
X135255000Y-139065000D01*
X127635000Y-141605000D02*
X124460000Y-141605000D01*
X128905000Y-139065000D02*
X130810000Y-139065000D01*
X150495000Y-139065000D02*
X150495000Y-141605000D01*
X147320000Y-141605000D02*
X141605000Y-141605000D01*
X147955000Y-139065000D02*
X147955000Y-141605000D01*
X146050000Y-138430000D02*
X144780000Y-138430000D01*
X146685000Y-139065000D02*
X146050000Y-138430000D01*
X153035000Y-139065000D02*
X154940000Y-139065000D01*
X154940000Y-139065000D02*
X155575000Y-139065000D01*
X156210000Y-138430000D02*
X155575000Y-139065000D01*
X163830000Y-138430000D02*
X156210000Y-138430000D01*
X164465000Y-139065000D02*
X163830000Y-138430000D01*
X165735000Y-139065000D02*
X164465000Y-139065000D01*
X165735000Y-139065000D02*
X165735000Y-141605000D01*
X168910000Y-138430000D02*
X171450000Y-138430000D01*
X168275000Y-139065000D02*
X168910000Y-138430000D01*
X135890000Y-138430000D02*
X144780000Y-138430000D01*
X135255000Y-139065000D02*
X135890000Y-138430000D01*
X128270000Y-138430000D02*
X128905000Y-139065000D01*
X118110000Y-138430000D02*
X128270000Y-138430000D01*
X118110000Y-138430000D02*
X118110000Y-137795000D01*
X136525000Y-129540000D02*
X136525000Y-130175000D01*
X137160000Y-129540000D02*
X136525000Y-129540000D01*
X131445000Y-133350000D02*
X130810000Y-133350000D01*
X133350000Y-131445000D02*
X131445000Y-133350000D01*
X136525000Y-131445000D02*
X133350000Y-131445000D01*
X136525000Y-130175000D02*
X136525000Y-131445000D01*
X137795000Y-129540000D02*
X137160000Y-129540000D01*
X154940000Y-129540000D02*
X137795000Y-129540000D01*
X155575000Y-130175000D02*
X154940000Y-129540000D01*
X156845000Y-132715000D02*
X161290000Y-132715000D01*
X156845000Y-131445000D02*
X156845000Y-132715000D01*
X156210000Y-130810000D02*
X156845000Y-131445000D01*
X155575000Y-130175000D02*
X156210000Y-130810000D01*
X114935000Y-165100000D02*
X114935000Y-163830000D01*
X114935000Y-158750000D02*
X114935000Y-156845000D01*
X114935000Y-163195000D02*
X114935000Y-161290000D01*
X120650000Y-185420000D02*
X124460000Y-185420000D01*
X124460000Y-182880000D02*
X120650000Y-182880000D01*
X124460000Y-185420000D02*
X124460000Y-182880000D01*
X127000000Y-182880000D02*
X131445000Y-182880000D01*
X127000000Y-185420000D02*
X127000000Y-182880000D01*
X120650000Y-185420000D02*
X120650000Y-182880000D01*
X118110000Y-185420000D02*
X118110000Y-182880000D01*
X146050000Y-192405000D02*
X144145000Y-192405000D01*
X148590000Y-192405000D02*
X150495000Y-192405000D01*
X149860000Y-182245000D02*
X146050000Y-182245000D01*
X149860000Y-184785000D02*
X149860000Y-182245000D01*
X149860000Y-184785000D02*
X148590000Y-184785000D01*
X152400000Y-182245000D02*
X157480000Y-182245000D01*
X152400000Y-184785000D02*
X152400000Y-182245000D01*
X146050000Y-184785000D02*
X148590000Y-184785000D01*
X146050000Y-182245000D02*
X146050000Y-184785000D01*
X143510000Y-182245000D02*
X132080000Y-182245000D01*
X143510000Y-184785000D02*
X143510000Y-182245000D01*
X168275000Y-167005000D02*
X172720000Y-167005000D01*
X147320000Y-167005000D02*
X165735000Y-167005000D01*
X122555000Y-167005000D02*
X144780000Y-167005000D01*
X120015000Y-167005000D02*
X116205000Y-167005000D01*
X165735000Y-169545000D02*
X162560000Y-169545000D01*
X165735000Y-167005000D02*
X165735000Y-169545000D01*
X168275000Y-169545000D02*
X168275000Y-167005000D01*
X170815000Y-169545000D02*
X168275000Y-169545000D01*
X147320000Y-169545000D02*
X162560000Y-169545000D01*
X147320000Y-167005000D02*
X147320000Y-169545000D01*
X144780000Y-169545000D02*
X144780000Y-167005000D01*
X122555000Y-169545000D02*
X144780000Y-169545000D01*
X122555000Y-167005000D02*
X122555000Y-169545000D01*
X120015000Y-169545000D02*
X120015000Y-167005000D01*
X117475000Y-169545000D02*
X120015000Y-169545000D01*
X140970000Y-187960000D02*
X140970000Y-190500000D01*
X114935000Y-142875000D02*
X115570000Y-142240000D01*
X114935000Y-144780000D02*
X114935000Y-142875000D01*
X118110000Y-134620000D02*
X118745000Y-133985000D01*
X118110000Y-136525000D02*
X118110000Y-134620000D01*
X157480000Y-184150000D02*
X157480000Y-182245000D01*
X158115000Y-184785000D02*
X157480000Y-184150000D01*
X158115000Y-190500000D02*
X158115000Y-184785000D01*
X159385000Y-190500000D02*
X158115000Y-190500000D01*
X159385000Y-191135000D02*
X159385000Y-190500000D01*
X160655000Y-192405000D02*
X159385000Y-191135000D01*
X160655000Y-195580000D02*
X160655000Y-192405000D01*
X161925000Y-195580000D02*
X160655000Y-195580000D01*
X161925000Y-198120000D02*
X161925000Y-195580000D01*
X169545000Y-198120000D02*
X161925000Y-198120000D01*
X169545000Y-195580000D02*
X169545000Y-198120000D01*
X170815000Y-195580000D02*
X169545000Y-195580000D01*
X170815000Y-192405000D02*
X170815000Y-195580000D01*
X171450000Y-191770000D02*
X170815000Y-192405000D01*
X171450000Y-181610000D02*
X171450000Y-191770000D01*
X170815000Y-180975000D02*
X171450000Y-181610000D01*
X170815000Y-169545000D02*
X170815000Y-180975000D01*
X117475000Y-175895000D02*
X117475000Y-169545000D01*
X116840000Y-176530000D02*
X117475000Y-175895000D01*
X116840000Y-177800000D02*
X116840000Y-176530000D01*
X131445000Y-182880000D02*
X132080000Y-182245000D01*
X116840000Y-181610000D02*
X116840000Y-177800000D01*
X118110000Y-182880000D02*
X116840000Y-181610000D01*
X114935000Y-161290000D02*
X114935000Y-158750000D01*
X114935000Y-156845000D02*
X114935000Y-155575000D01*
X148590000Y-192405000D02*
X146050000Y-192405000D01*
X144145000Y-192405000D02*
X142875000Y-192405000D01*
X140970000Y-190500000D02*
X140970000Y-192405000D01*
X114935000Y-145415000D02*
X114935000Y-144780000D01*
X115570000Y-142240000D02*
X116205000Y-141605000D01*
X118110000Y-136525000D02*
X118110000Y-137160000D01*
X119380000Y-133350000D02*
X118745000Y-133985000D01*
X114935000Y-145415000D02*
X114935000Y-146050000D01*
X118110000Y-137160000D02*
X118110000Y-137795000D01*
X154305000Y-141605000D02*
X151765000Y-141605000D01*
X124460000Y-141605000D02*
X121920000Y-141605000D01*
X152400000Y-192405000D02*
X150495000Y-192405000D01*
X140970000Y-192405000D02*
X141605000Y-192405000D01*
X140970000Y-187325000D02*
X140970000Y-187960000D01*
X116205000Y-141605000D02*
X121920000Y-141605000D01*
X116840000Y-186690000D02*
X118110000Y-185420000D01*
X153670000Y-191135000D02*
X153670000Y-188595000D01*
X152400000Y-192405000D02*
X153670000Y-191135000D01*
X171450000Y-133350000D02*
X171450000Y-138430000D01*
X166370000Y-133350000D02*
X171450000Y-133350000D01*
X165735000Y-132715000D02*
X166370000Y-133350000D01*
X165100000Y-132715000D02*
X165735000Y-132715000D01*
X161290000Y-132715000D02*
X165100000Y-132715000D01*
X119380000Y-133350000D02*
X130810000Y-133350000D01*
X114935000Y-163830000D02*
X114935000Y-163195000D01*
X114935000Y-155575000D02*
X114935000Y-146050000D01*
X114935000Y-165100000D02*
X114935000Y-165735000D01*
X114935000Y-165735000D02*
X116205000Y-167005000D01*
X142240000Y-186055000D02*
X142240000Y-187325000D01*
X142240000Y-186055000D02*
X143510000Y-184785000D01*
X142875000Y-192405000D02*
X141605000Y-192405000D01*
X140970000Y-187325000D02*
X142240000Y-187325000D01*
X152400000Y-187325000D02*
X152400000Y-184785000D01*
X153670000Y-188595000D02*
X152400000Y-187325000D01*
X127000000Y-186690000D02*
X127000000Y-185420000D01*
X127000000Y-192405000D02*
X127000000Y-186690000D01*
X125730000Y-193675000D02*
X127000000Y-192405000D01*
X118110000Y-193675000D02*
X125730000Y-193675000D01*
X116840000Y-192405000D02*
X118110000Y-193675000D01*
X116840000Y-186690000D02*
X116840000Y-192405000D01*
M02*
