G04 #@! TF.FileFunction,Legend,Top*
%FSLAX46Y46*%
G04 Gerber Fmt 4.6, Leading zero omitted, Abs format (unit mm)*
G04 Created by KiCad (PCBNEW 4.0.2+dfsg1-stable) date pe 11. elokuuta 2017 15.41.08*
%MOMM*%
G01*
G04 APERTURE LIST*
%ADD10C,0.100000*%
%ADD11C,0.200000*%
%ADD12C,0.150000*%
%ADD13C,0.050000*%
G04 APERTURE END LIST*
D10*
D11*
X161290000Y-157480000D02*
X160020000Y-157480000D01*
X161925000Y-158115000D02*
X161290000Y-157480000D01*
X164465000Y-146050000D02*
X165100000Y-146685000D01*
X164465000Y-146050000D02*
X165100000Y-145415000D01*
X167005000Y-146050000D02*
X164465000Y-146050000D01*
X159385000Y-158115000D02*
X161925000Y-158115000D01*
X161925000Y-158115000D02*
X161290000Y-158750000D01*
X161290000Y-157480000D02*
X161925000Y-158115000D01*
X167005000Y-145415000D02*
X164465000Y-145415000D01*
X167005000Y-146685000D02*
X164465000Y-146685000D01*
X161925000Y-157480000D02*
X159385000Y-157480000D01*
X159385000Y-158750000D02*
X161925000Y-158750000D01*
X161290000Y-158750000D02*
X160020000Y-158750000D01*
X160020000Y-158115000D02*
X161290000Y-158115000D01*
X165100000Y-146050000D02*
X166370000Y-146050000D01*
X166370000Y-146685000D02*
X165100000Y-146685000D01*
X165100000Y-145415000D02*
X166370000Y-145415000D01*
D12*
X111125000Y-163195000D02*
X108585000Y-163195000D01*
X108493532Y-163215548D02*
G75*
G02X106955000Y-160655000I1361468J2560548D01*
G01*
X111216468Y-163215548D02*
G75*
G03X112755000Y-160655000I-1361468J2560548D01*
G01*
D13*
X112355000Y-160655000D02*
G75*
G03X112355000Y-160655000I-2500000J0D01*
G01*
D12*
X112755000Y-160655000D02*
G75*
G03X109855000Y-157755000I-2900000J0D01*
G01*
X109855000Y-157755000D02*
G75*
G03X106955000Y-160655000I0J-2900000D01*
G01*
X154305000Y-155575000D02*
X154305000Y-147955000D01*
X154305000Y-147955000D02*
X169545000Y-147955000D01*
X169545000Y-147955000D02*
X169545000Y-155575000D01*
X169545000Y-155575000D02*
X154305000Y-155575000D01*
X139065000Y-132080000D02*
X139065000Y-134620000D01*
X139065000Y-134620000D02*
X156845000Y-134620000D01*
X156845000Y-134620000D02*
X156845000Y-132080000D01*
X156845000Y-132080000D02*
X139065000Y-132080000D01*
X141605000Y-138430000D02*
X116205000Y-138430000D01*
X116205000Y-138430000D02*
X116205000Y-135890000D01*
X116205000Y-135890000D02*
X141605000Y-135890000D01*
X149225000Y-138430000D02*
X141605000Y-138430000D01*
X141605000Y-135890000D02*
X149225000Y-135890000D01*
X167005000Y-138430000D02*
X167005000Y-135890000D01*
X167005000Y-135890000D02*
X149225000Y-135890000D01*
X149225000Y-138430000D02*
X167005000Y-138430000D01*
X143510000Y-154940000D02*
G75*
G03X143510000Y-154940000I-7620000J0D01*
G01*
X147788000Y-150114000D02*
G75*
G03X147788000Y-150114000I-2500000J0D01*
G01*
X105839045Y-148551480D02*
X105589045Y-148551480D01*
X108839045Y-148551480D02*
X109089045Y-148551480D01*
X108339045Y-147551480D02*
X108339045Y-149551480D01*
X108839045Y-149551480D02*
X108839045Y-147551480D01*
X108839045Y-147551480D02*
X105839045Y-147551480D01*
X105839045Y-147551480D02*
X105839045Y-149551480D01*
X105839045Y-149551480D02*
X108839045Y-149551480D01*
X170815000Y-150305000D02*
X170815000Y-150055000D01*
X170815000Y-153305000D02*
X170815000Y-153555000D01*
X171815000Y-152805000D02*
X169815000Y-152805000D01*
X169815000Y-153305000D02*
X171815000Y-153305000D01*
X171815000Y-153305000D02*
X171815000Y-150305000D01*
X171815000Y-150305000D02*
X169815000Y-150305000D01*
X169815000Y-150305000D02*
X169815000Y-153305000D01*
X153035000Y-150305000D02*
X153035000Y-150055000D01*
X153035000Y-153305000D02*
X153035000Y-153555000D01*
X154035000Y-152805000D02*
X152035000Y-152805000D01*
X152035000Y-153305000D02*
X154035000Y-153305000D01*
X154035000Y-153305000D02*
X154035000Y-150305000D01*
X154035000Y-150305000D02*
X152035000Y-150305000D01*
X152035000Y-150305000D02*
X152035000Y-153305000D01*
X102870000Y-134620000D02*
X102870000Y-144780000D01*
X102870000Y-144780000D02*
X100330000Y-144780000D01*
X100330000Y-144780000D02*
X100330000Y-134620000D01*
D13*
X100838000Y-136144000D02*
X92710000Y-136144000D01*
X92710000Y-136144000D02*
X92456000Y-135890000D01*
X92456000Y-135890000D02*
X92710000Y-135636000D01*
X92710000Y-135636000D02*
X100838000Y-135636000D01*
X100838000Y-138684000D02*
X92710000Y-138684000D01*
X92710000Y-138684000D02*
X92456000Y-138430000D01*
X92456000Y-138430000D02*
X92710000Y-138176000D01*
X92710000Y-138176000D02*
X100838000Y-138176000D01*
X92456000Y-140970000D02*
X92710000Y-140716000D01*
X92710000Y-140716000D02*
X100838000Y-140716000D01*
X100838000Y-141224000D02*
X92710000Y-141224000D01*
X92710000Y-141224000D02*
X92456000Y-140970000D01*
X100838000Y-143764000D02*
X92710000Y-143764000D01*
X92710000Y-143764000D02*
X92456000Y-143510000D01*
X92456000Y-143510000D02*
X92710000Y-143256000D01*
X92710000Y-143256000D02*
X100838000Y-143256000D01*
D12*
X102870000Y-134620000D02*
X100330000Y-134620000D01*
X98372395Y-163842765D02*
X98372395Y-156222765D01*
X98372395Y-156222765D02*
X100912395Y-156222765D01*
X100912395Y-156222765D02*
X100912395Y-163842765D01*
X98372395Y-163842765D02*
X100912395Y-163842765D01*
X153670000Y-147320000D02*
X146050000Y-147320000D01*
X146050000Y-147320000D02*
X146050000Y-144780000D01*
X146050000Y-144780000D02*
X153670000Y-144780000D01*
X153670000Y-147320000D02*
X153670000Y-144780000D01*
X127635000Y-144780000D02*
X127635000Y-147320000D01*
X127635000Y-147320000D02*
X145415000Y-147320000D01*
X145415000Y-147320000D02*
X145415000Y-144780000D01*
X145415000Y-144780000D02*
X127635000Y-144780000D01*
X116840000Y-144780000D02*
X127000000Y-144780000D01*
X127000000Y-144780000D02*
X127000000Y-147320000D01*
X127000000Y-147320000D02*
X116840000Y-147320000D01*
X116840000Y-144780000D02*
X116840000Y-147320000D01*
X160655000Y-160020000D02*
X170815000Y-160020000D01*
X170815000Y-160020000D02*
X170815000Y-162560000D01*
X170815000Y-162560000D02*
X160655000Y-162560000D01*
D13*
X162179000Y-162052000D02*
X162179000Y-170180000D01*
X162179000Y-170180000D02*
X161925000Y-170434000D01*
X161925000Y-170434000D02*
X161671000Y-170180000D01*
X161671000Y-170180000D02*
X161671000Y-162052000D01*
X164719000Y-162052000D02*
X164719000Y-170180000D01*
X164719000Y-170180000D02*
X164465000Y-170434000D01*
X164465000Y-170434000D02*
X164211000Y-170180000D01*
X164211000Y-170180000D02*
X164211000Y-162052000D01*
X167005000Y-170434000D02*
X166751000Y-170180000D01*
X166751000Y-170180000D02*
X166751000Y-162052000D01*
X167259000Y-162052000D02*
X167259000Y-170180000D01*
X167259000Y-170180000D02*
X167005000Y-170434000D01*
X169799000Y-162052000D02*
X169799000Y-170180000D01*
X169799000Y-170180000D02*
X169545000Y-170434000D01*
X169545000Y-170434000D02*
X169291000Y-170180000D01*
X169291000Y-170180000D02*
X169291000Y-162052000D01*
D12*
X160655000Y-160020000D02*
X160655000Y-162560000D01*
X155575000Y-162560000D02*
X155575000Y-165100000D01*
D13*
X154051000Y-164592000D02*
X154051000Y-172720000D01*
X154051000Y-172720000D02*
X154305000Y-172974000D01*
X154305000Y-172974000D02*
X154559000Y-172720000D01*
X154559000Y-172720000D02*
X154559000Y-164592000D01*
X151511000Y-164592000D02*
X151511000Y-172720000D01*
X151511000Y-172720000D02*
X151765000Y-172974000D01*
X151765000Y-172974000D02*
X152019000Y-172720000D01*
X152019000Y-172720000D02*
X152019000Y-164592000D01*
X139319000Y-164592000D02*
X139319000Y-172720000D01*
X139319000Y-172720000D02*
X139065000Y-172974000D01*
X139065000Y-172974000D02*
X138811000Y-172720000D01*
X138811000Y-172720000D02*
X138811000Y-164592000D01*
X141859000Y-164592000D02*
X141859000Y-172720000D01*
X141859000Y-172720000D02*
X141605000Y-172974000D01*
X141605000Y-172974000D02*
X141351000Y-172720000D01*
X141351000Y-172720000D02*
X141351000Y-164592000D01*
X144145000Y-172974000D02*
X143891000Y-172720000D01*
X143891000Y-172720000D02*
X143891000Y-164592000D01*
X144399000Y-164592000D02*
X144399000Y-172720000D01*
X144399000Y-172720000D02*
X144145000Y-172974000D01*
X146939000Y-164592000D02*
X146939000Y-172720000D01*
X146939000Y-172720000D02*
X146685000Y-172974000D01*
X146685000Y-172974000D02*
X146431000Y-172720000D01*
X146431000Y-172720000D02*
X146431000Y-164592000D01*
X149479000Y-164592000D02*
X149479000Y-172720000D01*
X149479000Y-172720000D02*
X149225000Y-172974000D01*
X149225000Y-172974000D02*
X148971000Y-172720000D01*
X148971000Y-172720000D02*
X148971000Y-164592000D01*
D12*
X137795000Y-162560000D02*
X137795000Y-165100000D01*
X137795000Y-165100000D02*
X155575000Y-165100000D01*
X155575000Y-162560000D02*
X137795000Y-162560000D01*
X134620000Y-162560000D02*
X137160000Y-162560000D01*
X137160000Y-162560000D02*
X137160000Y-165100000D01*
X137160000Y-165100000D02*
X134620000Y-165100000D01*
D13*
X133096000Y-164592000D02*
X133096000Y-172720000D01*
X133096000Y-172720000D02*
X133350000Y-172974000D01*
X133350000Y-172974000D02*
X133604000Y-172720000D01*
X133604000Y-172720000D02*
X133604000Y-164592000D01*
X130556000Y-164592000D02*
X130556000Y-172720000D01*
X130556000Y-172720000D02*
X130810000Y-172974000D01*
X130810000Y-172974000D02*
X131064000Y-172720000D01*
X131064000Y-172720000D02*
X131064000Y-164592000D01*
X118364000Y-164592000D02*
X118364000Y-172720000D01*
X118364000Y-172720000D02*
X118110000Y-172974000D01*
X118110000Y-172974000D02*
X117856000Y-172720000D01*
X117856000Y-172720000D02*
X117856000Y-164592000D01*
X120904000Y-164592000D02*
X120904000Y-172720000D01*
X120904000Y-172720000D02*
X120650000Y-172974000D01*
X120650000Y-172974000D02*
X120396000Y-172720000D01*
X120396000Y-172720000D02*
X120396000Y-164592000D01*
X123190000Y-172974000D02*
X122936000Y-172720000D01*
X122936000Y-172720000D02*
X122936000Y-164592000D01*
X123444000Y-164592000D02*
X123444000Y-172720000D01*
X123444000Y-172720000D02*
X123190000Y-172974000D01*
X125984000Y-164592000D02*
X125984000Y-172720000D01*
X125984000Y-172720000D02*
X125730000Y-172974000D01*
X125730000Y-172974000D02*
X125476000Y-172720000D01*
X125476000Y-172720000D02*
X125476000Y-164592000D01*
X128524000Y-164592000D02*
X128524000Y-172720000D01*
X128524000Y-172720000D02*
X128270000Y-172974000D01*
X128270000Y-172974000D02*
X128016000Y-172720000D01*
X128016000Y-172720000D02*
X128016000Y-164592000D01*
X135636000Y-164592000D02*
X135636000Y-172720000D01*
X135636000Y-172720000D02*
X135890000Y-172974000D01*
X135890000Y-172974000D02*
X136144000Y-172720000D01*
X136144000Y-172720000D02*
X136144000Y-164592000D01*
D12*
X116840000Y-162560000D02*
X116840000Y-165100000D01*
X116840000Y-165100000D02*
X134620000Y-165100000D01*
X134620000Y-162560000D02*
X116840000Y-162560000D01*
X123190000Y-151765000D02*
X123190000Y-151130000D01*
X123190000Y-158115000D02*
X123190000Y-158750000D01*
X123190000Y-158115000D02*
X122555000Y-158115000D01*
X122555000Y-158115000D02*
X121920000Y-157480000D01*
X121920000Y-157480000D02*
X121920000Y-152400000D01*
X121920000Y-152400000D02*
X122555000Y-151765000D01*
X122555000Y-151765000D02*
X123825000Y-151765000D01*
X123825000Y-151765000D02*
X124460000Y-152400000D01*
X124460000Y-152400000D02*
X124460000Y-157480000D01*
X124460000Y-157480000D02*
X123825000Y-158115000D01*
X123825000Y-158115000D02*
X123190000Y-158115000D01*
X120650000Y-151765000D02*
X120650000Y-151130000D01*
X120650000Y-158115000D02*
X120650000Y-158750000D01*
X120650000Y-158115000D02*
X120015000Y-158115000D01*
X120015000Y-158115000D02*
X119380000Y-157480000D01*
X119380000Y-157480000D02*
X119380000Y-152400000D01*
X119380000Y-152400000D02*
X120015000Y-151765000D01*
X120015000Y-151765000D02*
X121285000Y-151765000D01*
X121285000Y-151765000D02*
X121920000Y-152400000D01*
X121920000Y-152400000D02*
X121920000Y-157480000D01*
X121920000Y-157480000D02*
X121285000Y-158115000D01*
X121285000Y-158115000D02*
X120650000Y-158115000D01*
X118110000Y-151765000D02*
X118110000Y-151130000D01*
X118110000Y-158115000D02*
X118110000Y-158750000D01*
X118110000Y-158115000D02*
X117475000Y-158115000D01*
X117475000Y-158115000D02*
X116840000Y-157480000D01*
X116840000Y-157480000D02*
X116840000Y-152400000D01*
X116840000Y-152400000D02*
X117475000Y-151765000D01*
X117475000Y-151765000D02*
X118745000Y-151765000D01*
X118745000Y-151765000D02*
X119380000Y-152400000D01*
X119380000Y-152400000D02*
X119380000Y-157480000D01*
X119380000Y-157480000D02*
X118745000Y-158115000D01*
X118745000Y-158115000D02*
X118110000Y-158115000D01*
X145415000Y-159385000D02*
X144780000Y-159385000D01*
X151765000Y-159385000D02*
X152400000Y-159385000D01*
X151765000Y-159385000D02*
X151765000Y-160020000D01*
X151765000Y-160020000D02*
X151130000Y-160655000D01*
X151130000Y-160655000D02*
X146050000Y-160655000D01*
X146050000Y-160655000D02*
X145415000Y-160020000D01*
X145415000Y-160020000D02*
X145415000Y-158750000D01*
X145415000Y-158750000D02*
X146050000Y-158115000D01*
X146050000Y-158115000D02*
X151130000Y-158115000D01*
X151130000Y-158115000D02*
X151765000Y-158750000D01*
X151765000Y-158750000D02*
X151765000Y-159385000D01*
X148872695Y-154578010D02*
G75*
G03X148385000Y-153875000I-2187695J-996990D01*
G01*
X144497305Y-154578010D02*
G75*
G02X144985000Y-153875000I2187695J-996990D01*
G01*
X148385000Y-153875000D02*
X144985000Y-153875000D01*
X148869879Y-156568127D02*
G75*
G02X146685000Y-157975000I-2184879J993127D01*
G01*
X144500121Y-156568127D02*
G75*
G03X146685000Y-157975000I2184879J993127D01*
G01*
X97464384Y-162220459D02*
G75*
G03X98167394Y-161732764I-996990J2187695D01*
G01*
X97464384Y-157845069D02*
G75*
G02X98167394Y-158332764I-996990J-2187695D01*
G01*
X98167394Y-161732764D02*
X98167394Y-158332764D01*
X95474267Y-162217643D02*
G75*
G02X94067394Y-160032764I993127J2184879D01*
G01*
X95474267Y-157847885D02*
G75*
G03X94067394Y-160032764I993127J-2184879D01*
G01*
X108514571Y-155550660D02*
X108514571Y-165710660D01*
X108514571Y-165710660D02*
X105974571Y-165710660D01*
X105974571Y-165710660D02*
X105974571Y-155550660D01*
X108514571Y-155550660D02*
X105974571Y-155550660D01*
X103489045Y-147281481D02*
X111109045Y-147281481D01*
X111109045Y-147281481D02*
X111109045Y-132041481D01*
X111109045Y-132041481D02*
X103489045Y-132041481D01*
X103489045Y-132041481D02*
X103489045Y-147281481D01*
X154305000Y-144780000D02*
X156845000Y-144780000D01*
X156845000Y-144780000D02*
X156845000Y-147320000D01*
X156845000Y-147320000D02*
X154305000Y-147320000D01*
X154305000Y-147320000D02*
X154305000Y-144780000D01*
X159385000Y-144780000D02*
X161925000Y-144780000D01*
X161925000Y-144780000D02*
X161925000Y-147320000D01*
X161925000Y-147320000D02*
X159385000Y-147320000D01*
X159385000Y-147320000D02*
X159385000Y-144780000D01*
X156845000Y-144780000D02*
X159385000Y-144780000D01*
X159385000Y-144780000D02*
X159385000Y-147320000D01*
X159385000Y-147320000D02*
X156845000Y-147320000D01*
X156845000Y-147320000D02*
X156845000Y-144780000D01*
X161925000Y-156845000D02*
X164465000Y-156845000D01*
X164465000Y-156845000D02*
X164465000Y-159385000D01*
X164465000Y-159385000D02*
X161925000Y-159385000D01*
X161925000Y-159385000D02*
X161925000Y-156845000D01*
X156845000Y-156845000D02*
X159385000Y-156845000D01*
X159385000Y-156845000D02*
X159385000Y-159385000D01*
X159385000Y-159385000D02*
X156845000Y-159385000D01*
X156845000Y-159385000D02*
X156845000Y-156845000D01*
X156845000Y-159385000D02*
X159385000Y-159385000D01*
X159385000Y-159385000D02*
X159385000Y-161925000D01*
X159385000Y-161925000D02*
X156845000Y-161925000D01*
X156845000Y-161925000D02*
X156845000Y-159385000D01*
X161925000Y-144780000D02*
X164465000Y-144780000D01*
X164465000Y-144780000D02*
X164465000Y-147320000D01*
X164465000Y-147320000D02*
X161925000Y-147320000D01*
X161925000Y-147320000D02*
X161925000Y-144780000D01*
X167005000Y-144780000D02*
X169545000Y-144780000D01*
X169545000Y-144780000D02*
X169545000Y-147320000D01*
X169545000Y-147320000D02*
X167005000Y-147320000D01*
X167005000Y-147320000D02*
X167005000Y-144780000D01*
X169545000Y-144780000D02*
X172085000Y-144780000D01*
X172085000Y-144780000D02*
X172085000Y-147320000D01*
X172085000Y-147320000D02*
X169545000Y-147320000D01*
X169545000Y-147320000D02*
X169545000Y-144780000D01*
X133667500Y-175810001D02*
X138747500Y-175810001D01*
X138747500Y-175810001D02*
X138747500Y-178350001D01*
X138747500Y-178350001D02*
X133667500Y-178350001D01*
X133667500Y-175810001D02*
X133667500Y-178350001D01*
X133667500Y-175810001D02*
X141287500Y-175810001D01*
X141287500Y-175810001D02*
X141287500Y-178350001D01*
X141287500Y-178350001D02*
X133667500Y-178350001D01*
X133667500Y-175810001D02*
X133667500Y-178350001D01*
X133667500Y-178350001D02*
X146367500Y-178350001D01*
X146367500Y-175810001D02*
X133667500Y-175810001D01*
X133667500Y-175810001D02*
X133667500Y-178350001D01*
X146367500Y-178350001D02*
X146367500Y-175810001D01*
X133667500Y-175810001D02*
X148907500Y-175810001D01*
X148907500Y-175810001D02*
X148907500Y-178350001D01*
X148907500Y-178350001D02*
X133667500Y-178350001D01*
X133667500Y-175810001D02*
X133667500Y-178350001D01*
X133667500Y-175810001D02*
X136207500Y-175810001D01*
X136207500Y-175810001D02*
X136207500Y-178350001D01*
X136207500Y-178350001D02*
X133667500Y-178350001D01*
X133667500Y-175810001D02*
X133667500Y-178350001D01*
X133667500Y-175810001D02*
X136207500Y-175810001D01*
X136207500Y-175810001D02*
X136207500Y-178350001D01*
X136207500Y-178350001D02*
X133667500Y-178350001D01*
X133667500Y-175810001D02*
X133667500Y-178350001D01*
X133667500Y-175810001D02*
X138747500Y-175810001D01*
X138747500Y-175810001D02*
X138747500Y-178350001D01*
X138747500Y-178350001D02*
X133667500Y-178350001D01*
X133667500Y-175810001D02*
X133667500Y-178350001D01*
X133667500Y-175810001D02*
X138747500Y-175810001D01*
X138747500Y-175810001D02*
X138747500Y-178350001D01*
X138747500Y-178350001D02*
X133667500Y-178350001D01*
X133667500Y-175810001D02*
X133667500Y-178350001D01*
X109441382Y-156686721D02*
X108965191Y-156686721D01*
X108965191Y-155686721D01*
X109774715Y-156162911D02*
X110108049Y-156162911D01*
X110250906Y-156686721D02*
X109774715Y-156686721D01*
X109774715Y-155686721D01*
X110250906Y-155686721D01*
X110679477Y-156686721D02*
X110679477Y-155686721D01*
X110917572Y-155686721D01*
X111060430Y-155734340D01*
X111155668Y-155829578D01*
X111203287Y-155924816D01*
X111250906Y-156115292D01*
X111250906Y-156258150D01*
X111203287Y-156448626D01*
X111155668Y-156543864D01*
X111060430Y-156639102D01*
X110917572Y-156686721D01*
X110679477Y-156686721D01*
X112203287Y-156686721D02*
X111631858Y-156686721D01*
X111917572Y-156686721D02*
X111917572Y-155686721D01*
X111822334Y-155829578D01*
X111727096Y-155924816D01*
X111631858Y-155972435D01*
X105869334Y-156369340D02*
X105774096Y-156321721D01*
X105631239Y-156321721D01*
X105488381Y-156369340D01*
X105393143Y-156464578D01*
X105345524Y-156559816D01*
X105297905Y-156750292D01*
X105297905Y-156893150D01*
X105345524Y-157083626D01*
X105393143Y-157178864D01*
X105488381Y-157274102D01*
X105631239Y-157321721D01*
X105726477Y-157321721D01*
X105869334Y-157274102D01*
X105916953Y-157226483D01*
X105916953Y-156893150D01*
X105726477Y-156893150D01*
X105678858Y-159337911D02*
X105821715Y-159385530D01*
X105869334Y-159433150D01*
X105916953Y-159528388D01*
X105916953Y-159671245D01*
X105869334Y-159766483D01*
X105821715Y-159814102D01*
X105726477Y-159861721D01*
X105345524Y-159861721D01*
X105345524Y-158861721D01*
X105678858Y-158861721D01*
X105774096Y-158909340D01*
X105821715Y-158956959D01*
X105869334Y-159052197D01*
X105869334Y-159147435D01*
X105821715Y-159242673D01*
X105774096Y-159290292D01*
X105678858Y-159337911D01*
X105345524Y-159337911D01*
X105226477Y-162020769D02*
X105988382Y-162020769D01*
X105916953Y-164941721D02*
X105583619Y-164465530D01*
X105345524Y-164941721D02*
X105345524Y-163941721D01*
X105726477Y-163941721D01*
X105821715Y-163989340D01*
X105869334Y-164036959D01*
X105916953Y-164132197D01*
X105916953Y-164275054D01*
X105869334Y-164370292D01*
X105821715Y-164417911D01*
X105726477Y-164465530D01*
X105345524Y-164465530D01*
X155019524Y-156138571D02*
X155352858Y-156138571D01*
X155495715Y-156662381D02*
X155019524Y-156662381D01*
X155019524Y-155662381D01*
X155495715Y-155662381D01*
X156495715Y-156567143D02*
X156448096Y-156614762D01*
X156305239Y-156662381D01*
X156210001Y-156662381D01*
X156067143Y-156614762D01*
X155971905Y-156519524D01*
X155924286Y-156424286D01*
X155876667Y-156233810D01*
X155876667Y-156090952D01*
X155924286Y-155900476D01*
X155971905Y-155805238D01*
X156067143Y-155710000D01*
X156210001Y-155662381D01*
X156305239Y-155662381D01*
X156448096Y-155710000D01*
X156495715Y-155757619D01*
X157448096Y-156662381D02*
X156876667Y-156662381D01*
X157162381Y-156662381D02*
X157162381Y-155662381D01*
X157067143Y-155805238D01*
X156971905Y-155900476D01*
X156876667Y-155948095D01*
X163655476Y-153233381D02*
X163655476Y-152233381D01*
X164226905Y-153233381D01*
X164226905Y-152233381D01*
X164893571Y-152233381D02*
X165084048Y-152233381D01*
X165179286Y-152281000D01*
X165274524Y-152376238D01*
X165322143Y-152566714D01*
X165322143Y-152900048D01*
X165274524Y-153090524D01*
X165179286Y-153185762D01*
X165084048Y-153233381D01*
X164893571Y-153233381D01*
X164798333Y-153185762D01*
X164703095Y-153090524D01*
X164655476Y-152900048D01*
X164655476Y-152566714D01*
X164703095Y-152376238D01*
X164798333Y-152281000D01*
X164893571Y-152233381D01*
X161139286Y-153233381D02*
X161139286Y-152233381D01*
X161710715Y-153233381D01*
X161710715Y-152233381D01*
X162758334Y-153138143D02*
X162710715Y-153185762D01*
X162567858Y-153233381D01*
X162472620Y-153233381D01*
X162329762Y-153185762D01*
X162234524Y-153090524D01*
X162186905Y-152995286D01*
X162139286Y-152804810D01*
X162139286Y-152661952D01*
X162186905Y-152471476D01*
X162234524Y-152376238D01*
X162329762Y-152281000D01*
X162472620Y-152233381D01*
X162567858Y-152233381D01*
X162710715Y-152281000D01*
X162758334Y-152328619D01*
X166941667Y-150820429D02*
X167703572Y-150820429D01*
X168370238Y-150201381D02*
X168560715Y-150201381D01*
X168655953Y-150249000D01*
X168751191Y-150344238D01*
X168798810Y-150534714D01*
X168798810Y-150868048D01*
X168751191Y-151058524D01*
X168655953Y-151153762D01*
X168560715Y-151201381D01*
X168370238Y-151201381D01*
X168275000Y-151153762D01*
X168179762Y-151058524D01*
X168132143Y-150868048D01*
X168132143Y-150534714D01*
X168179762Y-150344238D01*
X168275000Y-150249000D01*
X168370238Y-150201381D01*
X169560715Y-150677571D02*
X169227381Y-150677571D01*
X169227381Y-151201381D02*
X169227381Y-150201381D01*
X169703572Y-150201381D01*
X154146429Y-150820429D02*
X154908334Y-150820429D01*
X155575000Y-150201381D02*
X155765477Y-150201381D01*
X155860715Y-150249000D01*
X155955953Y-150344238D01*
X156003572Y-150534714D01*
X156003572Y-150868048D01*
X155955953Y-151058524D01*
X155860715Y-151153762D01*
X155765477Y-151201381D01*
X155575000Y-151201381D01*
X155479762Y-151153762D01*
X155384524Y-151058524D01*
X155336905Y-150868048D01*
X155336905Y-150534714D01*
X155384524Y-150344238D01*
X155479762Y-150249000D01*
X155575000Y-150201381D01*
X156432143Y-151201381D02*
X156432143Y-150201381D01*
X157003572Y-151201381D01*
X157003572Y-150201381D01*
X166941667Y-152852429D02*
X167703572Y-152852429D01*
X167322620Y-153233381D02*
X167322620Y-152471476D01*
X168370238Y-152233381D02*
X168560715Y-152233381D01*
X168655953Y-152281000D01*
X168751191Y-152376238D01*
X168798810Y-152566714D01*
X168798810Y-152900048D01*
X168751191Y-153090524D01*
X168655953Y-153185762D01*
X168560715Y-153233381D01*
X168370238Y-153233381D01*
X168275000Y-153185762D01*
X168179762Y-153090524D01*
X168132143Y-152900048D01*
X168132143Y-152566714D01*
X168179762Y-152376238D01*
X168275000Y-152281000D01*
X168370238Y-152233381D01*
X169560715Y-152709571D02*
X169227381Y-152709571D01*
X169227381Y-153233381D02*
X169227381Y-152233381D01*
X169703572Y-152233381D01*
X154146429Y-152852429D02*
X154908334Y-152852429D01*
X154527382Y-153233381D02*
X154527382Y-152471476D01*
X155575000Y-152233381D02*
X155765477Y-152233381D01*
X155860715Y-152281000D01*
X155955953Y-152376238D01*
X156003572Y-152566714D01*
X156003572Y-152900048D01*
X155955953Y-153090524D01*
X155860715Y-153185762D01*
X155765477Y-153233381D01*
X155575000Y-153233381D01*
X155479762Y-153185762D01*
X155384524Y-153090524D01*
X155336905Y-152900048D01*
X155336905Y-152566714D01*
X155384524Y-152376238D01*
X155479762Y-152281000D01*
X155575000Y-152233381D01*
X156432143Y-153233381D02*
X156432143Y-152233381D01*
X157003572Y-153233381D01*
X157003572Y-152233381D01*
X140208095Y-135707381D02*
X140208095Y-134707381D01*
X140208095Y-135183571D02*
X140779524Y-135183571D01*
X140779524Y-135707381D02*
X140779524Y-134707381D01*
X141684286Y-135040714D02*
X141684286Y-135707381D01*
X141446190Y-134659762D02*
X141208095Y-135374048D01*
X141827143Y-135374048D01*
X117594286Y-139517381D02*
X117594286Y-138517381D01*
X118165715Y-139517381D01*
X118165715Y-138517381D01*
X118641905Y-139517381D02*
X118641905Y-138517381D01*
X118641905Y-138993571D02*
X119213334Y-138993571D01*
X119213334Y-139517381D02*
X119213334Y-138517381D01*
X119689524Y-139517381D02*
X119689524Y-138517381D01*
X119927619Y-138517381D01*
X120070477Y-138565000D01*
X120165715Y-138660238D01*
X120213334Y-138755476D01*
X120260953Y-138945952D01*
X120260953Y-139088810D01*
X120213334Y-139279286D01*
X120165715Y-139374524D01*
X120070477Y-139469762D01*
X119927619Y-139517381D01*
X119689524Y-139517381D01*
X121213334Y-139517381D02*
X120641905Y-139517381D01*
X120927619Y-139517381D02*
X120927619Y-138517381D01*
X120832381Y-138660238D01*
X120737143Y-138755476D01*
X120641905Y-138803095D01*
X127333571Y-160821667D02*
X127809762Y-160821667D01*
X127238333Y-161107381D02*
X127571666Y-160107381D01*
X127905000Y-161107381D01*
X128190714Y-161059762D02*
X128333571Y-161107381D01*
X128571667Y-161107381D01*
X128666905Y-161059762D01*
X128714524Y-161012143D01*
X128762143Y-160916905D01*
X128762143Y-160821667D01*
X128714524Y-160726429D01*
X128666905Y-160678810D01*
X128571667Y-160631190D01*
X128381190Y-160583571D01*
X128285952Y-160535952D01*
X128238333Y-160488333D01*
X128190714Y-160393095D01*
X128190714Y-160297857D01*
X128238333Y-160202619D01*
X128285952Y-160155000D01*
X128381190Y-160107381D01*
X128619286Y-160107381D01*
X128762143Y-160155000D01*
X129047857Y-160107381D02*
X129619286Y-160107381D01*
X129333571Y-161107381D02*
X129333571Y-160107381D01*
X130476429Y-161107381D02*
X129905000Y-161107381D01*
X130190714Y-161107381D02*
X130190714Y-160107381D01*
X130095476Y-160250238D01*
X130000238Y-160345476D01*
X129905000Y-160393095D01*
X131699048Y-156535429D02*
X132460953Y-156535429D01*
X139319048Y-156535429D02*
X140080953Y-156535429D01*
X139700001Y-156916381D02*
X139700001Y-156154476D01*
X144613334Y-153392143D02*
X144565715Y-153439762D01*
X144422858Y-153487381D01*
X144327620Y-153487381D01*
X144184762Y-153439762D01*
X144089524Y-153344524D01*
X144041905Y-153249286D01*
X143994286Y-153058810D01*
X143994286Y-152915952D01*
X144041905Y-152725476D01*
X144089524Y-152630238D01*
X144184762Y-152535000D01*
X144327620Y-152487381D01*
X144422858Y-152487381D01*
X144565715Y-152535000D01*
X144613334Y-152582619D01*
X145565715Y-153487381D02*
X144994286Y-153487381D01*
X145280000Y-153487381D02*
X145280000Y-152487381D01*
X145184762Y-152630238D01*
X145089524Y-152725476D01*
X144994286Y-152773095D01*
X106560950Y-149003861D02*
X106560950Y-148003861D01*
X106799045Y-148003861D01*
X106941903Y-148051480D01*
X107037141Y-148146718D01*
X107084760Y-148241956D01*
X107132379Y-148432432D01*
X107132379Y-148575290D01*
X107084760Y-148765766D01*
X107037141Y-148861004D01*
X106941903Y-148956242D01*
X106799045Y-149003861D01*
X106560950Y-149003861D01*
X107513331Y-148099099D02*
X107560950Y-148051480D01*
X107656188Y-148003861D01*
X107894284Y-148003861D01*
X107989522Y-148051480D01*
X108037141Y-148099099D01*
X108084760Y-148194337D01*
X108084760Y-148289575D01*
X108037141Y-148432432D01*
X107465712Y-149003861D01*
X108084760Y-149003861D01*
X171267381Y-152503095D02*
X170267381Y-152503095D01*
X170267381Y-152265000D01*
X170315000Y-152122142D01*
X170410238Y-152026904D01*
X170505476Y-151979285D01*
X170695952Y-151931666D01*
X170838810Y-151931666D01*
X171029286Y-151979285D01*
X171124524Y-152026904D01*
X171219762Y-152122142D01*
X171267381Y-152265000D01*
X171267381Y-152503095D01*
X170267381Y-151598333D02*
X170267381Y-150979285D01*
X170648333Y-151312619D01*
X170648333Y-151169761D01*
X170695952Y-151074523D01*
X170743571Y-151026904D01*
X170838810Y-150979285D01*
X171076905Y-150979285D01*
X171172143Y-151026904D01*
X171219762Y-151074523D01*
X171267381Y-151169761D01*
X171267381Y-151455476D01*
X171219762Y-151550714D01*
X171172143Y-151598333D01*
X153487381Y-152503095D02*
X152487381Y-152503095D01*
X152487381Y-152265000D01*
X152535000Y-152122142D01*
X152630238Y-152026904D01*
X152725476Y-151979285D01*
X152915952Y-151931666D01*
X153058810Y-151931666D01*
X153249286Y-151979285D01*
X153344524Y-152026904D01*
X153439762Y-152122142D01*
X153487381Y-152265000D01*
X153487381Y-152503095D01*
X152820714Y-151074523D02*
X153487381Y-151074523D01*
X152439762Y-151312619D02*
X153154048Y-151550714D01*
X153154048Y-150931666D01*
X100965095Y-134564381D02*
X100965095Y-133564381D01*
X100965095Y-134040571D02*
X101536524Y-134040571D01*
X101536524Y-134564381D02*
X101536524Y-133564381D01*
X102536524Y-134564381D02*
X101965095Y-134564381D01*
X102250809Y-134564381D02*
X102250809Y-133564381D01*
X102155571Y-133707238D01*
X102060333Y-133802476D01*
X101965095Y-133850095D01*
X98880490Y-164930146D02*
X98880490Y-163930146D01*
X98880490Y-164406336D02*
X99451919Y-164406336D01*
X99451919Y-164930146D02*
X99451919Y-163930146D01*
X99880490Y-164025384D02*
X99928109Y-163977765D01*
X100023347Y-163930146D01*
X100261443Y-163930146D01*
X100356681Y-163977765D01*
X100404300Y-164025384D01*
X100451919Y-164120622D01*
X100451919Y-164215860D01*
X100404300Y-164358717D01*
X99832871Y-164930146D01*
X100451919Y-164930146D01*
X147828095Y-148407381D02*
X147828095Y-147407381D01*
X147828095Y-147883571D02*
X148399524Y-147883571D01*
X148399524Y-148407381D02*
X148399524Y-147407381D01*
X149018571Y-147835952D02*
X148923333Y-147788333D01*
X148875714Y-147740714D01*
X148828095Y-147645476D01*
X148828095Y-147597857D01*
X148875714Y-147502619D01*
X148923333Y-147455000D01*
X149018571Y-147407381D01*
X149209048Y-147407381D01*
X149304286Y-147455000D01*
X149351905Y-147502619D01*
X149399524Y-147597857D01*
X149399524Y-147645476D01*
X149351905Y-147740714D01*
X149304286Y-147788333D01*
X149209048Y-147835952D01*
X149018571Y-147835952D01*
X148923333Y-147883571D01*
X148875714Y-147931190D01*
X148828095Y-148026429D01*
X148828095Y-148216905D01*
X148875714Y-148312143D01*
X148923333Y-148359762D01*
X149018571Y-148407381D01*
X149209048Y-148407381D01*
X149304286Y-148359762D01*
X149351905Y-148312143D01*
X149399524Y-148216905D01*
X149399524Y-148026429D01*
X149351905Y-147931190D01*
X149304286Y-147883571D01*
X149209048Y-147835952D01*
X128143095Y-148407381D02*
X128143095Y-147407381D01*
X128143095Y-147883571D02*
X128714524Y-147883571D01*
X128714524Y-148407381D02*
X128714524Y-147407381D01*
X129238333Y-148407381D02*
X129428809Y-148407381D01*
X129524048Y-148359762D01*
X129571667Y-148312143D01*
X129666905Y-148169286D01*
X129714524Y-147978810D01*
X129714524Y-147597857D01*
X129666905Y-147502619D01*
X129619286Y-147455000D01*
X129524048Y-147407381D01*
X129333571Y-147407381D01*
X129238333Y-147455000D01*
X129190714Y-147502619D01*
X129143095Y-147597857D01*
X129143095Y-147835952D01*
X129190714Y-147931190D01*
X129238333Y-147978810D01*
X129333571Y-148026429D01*
X129524048Y-148026429D01*
X129619286Y-147978810D01*
X129666905Y-147931190D01*
X129714524Y-147835952D01*
X117506905Y-148407381D02*
X117506905Y-147407381D01*
X117506905Y-147883571D02*
X118078334Y-147883571D01*
X118078334Y-148407381D02*
X118078334Y-147407381D01*
X119078334Y-148407381D02*
X118506905Y-148407381D01*
X118792619Y-148407381D02*
X118792619Y-147407381D01*
X118697381Y-147550238D01*
X118602143Y-147645476D01*
X118506905Y-147693095D01*
X119697381Y-147407381D02*
X119792620Y-147407381D01*
X119887858Y-147455000D01*
X119935477Y-147502619D01*
X119983096Y-147597857D01*
X120030715Y-147788333D01*
X120030715Y-148026429D01*
X119983096Y-148216905D01*
X119935477Y-148312143D01*
X119887858Y-148359762D01*
X119792620Y-148407381D01*
X119697381Y-148407381D01*
X119602143Y-148359762D01*
X119554524Y-148312143D01*
X119506905Y-148216905D01*
X119459286Y-148026429D01*
X119459286Y-147788333D01*
X119506905Y-147597857D01*
X119554524Y-147502619D01*
X119602143Y-147455000D01*
X119697381Y-147407381D01*
X161321905Y-163647381D02*
X161321905Y-162647381D01*
X161321905Y-163123571D02*
X161893334Y-163123571D01*
X161893334Y-163647381D02*
X161893334Y-162647381D01*
X162893334Y-163647381D02*
X162321905Y-163647381D01*
X162607619Y-163647381D02*
X162607619Y-162647381D01*
X162512381Y-162790238D01*
X162417143Y-162885476D01*
X162321905Y-162933095D01*
X163750477Y-162980714D02*
X163750477Y-163647381D01*
X163512381Y-162599762D02*
X163274286Y-163314048D01*
X163893334Y-163314048D01*
X138461905Y-166187381D02*
X138461905Y-165187381D01*
X138461905Y-165663571D02*
X139033334Y-165663571D01*
X139033334Y-166187381D02*
X139033334Y-165187381D01*
X140033334Y-166187381D02*
X139461905Y-166187381D01*
X139747619Y-166187381D02*
X139747619Y-165187381D01*
X139652381Y-165330238D01*
X139557143Y-165425476D01*
X139461905Y-165473095D01*
X140938096Y-165187381D02*
X140461905Y-165187381D01*
X140414286Y-165663571D01*
X140461905Y-165615952D01*
X140557143Y-165568333D01*
X140795239Y-165568333D01*
X140890477Y-165615952D01*
X140938096Y-165663571D01*
X140985715Y-165758810D01*
X140985715Y-165996905D01*
X140938096Y-166092143D01*
X140890477Y-166139762D01*
X140795239Y-166187381D01*
X140557143Y-166187381D01*
X140461905Y-166139762D01*
X140414286Y-166092143D01*
X117506905Y-166187381D02*
X117506905Y-165187381D01*
X117506905Y-165663571D02*
X118078334Y-165663571D01*
X118078334Y-166187381D02*
X118078334Y-165187381D01*
X119078334Y-166187381D02*
X118506905Y-166187381D01*
X118792619Y-166187381D02*
X118792619Y-165187381D01*
X118697381Y-165330238D01*
X118602143Y-165425476D01*
X118506905Y-165473095D01*
X119935477Y-165187381D02*
X119745000Y-165187381D01*
X119649762Y-165235000D01*
X119602143Y-165282619D01*
X119506905Y-165425476D01*
X119459286Y-165615952D01*
X119459286Y-165996905D01*
X119506905Y-166092143D01*
X119554524Y-166139762D01*
X119649762Y-166187381D01*
X119840239Y-166187381D01*
X119935477Y-166139762D01*
X119983096Y-166092143D01*
X120030715Y-165996905D01*
X120030715Y-165758810D01*
X119983096Y-165663571D01*
X119935477Y-165615952D01*
X119840239Y-165568333D01*
X119649762Y-165568333D01*
X119554524Y-165615952D01*
X119506905Y-165663571D01*
X119459286Y-165758810D01*
X123642381Y-155360666D02*
X123166190Y-155694000D01*
X123642381Y-155932095D02*
X122642381Y-155932095D01*
X122642381Y-155551142D01*
X122690000Y-155455904D01*
X122737619Y-155408285D01*
X122832857Y-155360666D01*
X122975714Y-155360666D01*
X123070952Y-155408285D01*
X123118571Y-155455904D01*
X123166190Y-155551142D01*
X123166190Y-155932095D01*
X123642381Y-154408285D02*
X123642381Y-154979714D01*
X123642381Y-154694000D02*
X122642381Y-154694000D01*
X122785238Y-154789238D01*
X122880476Y-154884476D01*
X122928095Y-154979714D01*
X121102381Y-155360666D02*
X120626190Y-155694000D01*
X121102381Y-155932095D02*
X120102381Y-155932095D01*
X120102381Y-155551142D01*
X120150000Y-155455904D01*
X120197619Y-155408285D01*
X120292857Y-155360666D01*
X120435714Y-155360666D01*
X120530952Y-155408285D01*
X120578571Y-155455904D01*
X120626190Y-155551142D01*
X120626190Y-155932095D01*
X120197619Y-154979714D02*
X120150000Y-154932095D01*
X120102381Y-154836857D01*
X120102381Y-154598761D01*
X120150000Y-154503523D01*
X120197619Y-154455904D01*
X120292857Y-154408285D01*
X120388095Y-154408285D01*
X120530952Y-154455904D01*
X121102381Y-155027333D01*
X121102381Y-154408285D01*
X118562381Y-155360666D02*
X118086190Y-155694000D01*
X118562381Y-155932095D02*
X117562381Y-155932095D01*
X117562381Y-155551142D01*
X117610000Y-155455904D01*
X117657619Y-155408285D01*
X117752857Y-155360666D01*
X117895714Y-155360666D01*
X117990952Y-155408285D01*
X118038571Y-155455904D01*
X118086190Y-155551142D01*
X118086190Y-155932095D01*
X117562381Y-155027333D02*
X117562381Y-154408285D01*
X117943333Y-154741619D01*
X117943333Y-154598761D01*
X117990952Y-154503523D01*
X118038571Y-154455904D01*
X118133810Y-154408285D01*
X118371905Y-154408285D01*
X118467143Y-154455904D01*
X118514762Y-154503523D01*
X118562381Y-154598761D01*
X118562381Y-154884476D01*
X118514762Y-154979714D01*
X118467143Y-155027333D01*
X148677334Y-159837381D02*
X148344000Y-159361190D01*
X148105905Y-159837381D02*
X148105905Y-158837381D01*
X148486858Y-158837381D01*
X148582096Y-158885000D01*
X148629715Y-158932619D01*
X148677334Y-159027857D01*
X148677334Y-159170714D01*
X148629715Y-159265952D01*
X148582096Y-159313571D01*
X148486858Y-159361190D01*
X148105905Y-159361190D01*
X149534477Y-159170714D02*
X149534477Y-159837381D01*
X149296381Y-158789762D02*
X149058286Y-159504048D01*
X149677334Y-159504048D01*
X148645714Y-154122381D02*
X148645714Y-153122381D01*
X148883809Y-153122381D01*
X149026667Y-153170000D01*
X149121905Y-153265238D01*
X149169524Y-153360476D01*
X149217143Y-153550952D01*
X149217143Y-153693810D01*
X149169524Y-153884286D01*
X149121905Y-153979524D01*
X149026667Y-154074762D01*
X148883809Y-154122381D01*
X148645714Y-154122381D01*
X149598095Y-154074762D02*
X149740952Y-154122381D01*
X149979048Y-154122381D01*
X150074286Y-154074762D01*
X150121905Y-154027143D01*
X150169524Y-153931905D01*
X150169524Y-153836667D01*
X150121905Y-153741429D01*
X150074286Y-153693810D01*
X149979048Y-153646190D01*
X149788571Y-153598571D01*
X149693333Y-153550952D01*
X149645714Y-153503333D01*
X149598095Y-153408095D01*
X149598095Y-153312857D01*
X149645714Y-153217619D01*
X149693333Y-153170000D01*
X149788571Y-153122381D01*
X150026667Y-153122381D01*
X150169524Y-153170000D01*
X151121905Y-154122381D02*
X150550476Y-154122381D01*
X150836190Y-154122381D02*
X150836190Y-153122381D01*
X150740952Y-153265238D01*
X150645714Y-153360476D01*
X150550476Y-153408095D01*
X95432714Y-165044381D02*
X95432714Y-164044381D01*
X95670809Y-164044381D01*
X95813667Y-164092000D01*
X95908905Y-164187238D01*
X95956524Y-164282476D01*
X96004143Y-164472952D01*
X96004143Y-164615810D01*
X95956524Y-164806286D01*
X95908905Y-164901524D01*
X95813667Y-164996762D01*
X95670809Y-165044381D01*
X95432714Y-165044381D01*
X96385095Y-164996762D02*
X96527952Y-165044381D01*
X96766048Y-165044381D01*
X96861286Y-164996762D01*
X96908905Y-164949143D01*
X96956524Y-164853905D01*
X96956524Y-164758667D01*
X96908905Y-164663429D01*
X96861286Y-164615810D01*
X96766048Y-164568190D01*
X96575571Y-164520571D01*
X96480333Y-164472952D01*
X96432714Y-164425333D01*
X96385095Y-164330095D01*
X96385095Y-164234857D01*
X96432714Y-164139619D01*
X96480333Y-164092000D01*
X96575571Y-164044381D01*
X96813667Y-164044381D01*
X96956524Y-164092000D01*
X97337476Y-164139619D02*
X97385095Y-164092000D01*
X97480333Y-164044381D01*
X97718429Y-164044381D01*
X97813667Y-164092000D01*
X97861286Y-164139619D01*
X97908905Y-164234857D01*
X97908905Y-164330095D01*
X97861286Y-164472952D01*
X97289857Y-165044381D01*
X97908905Y-165044381D01*
X106482666Y-155368041D02*
X106482666Y-154368041D01*
X106482666Y-154844231D02*
X107054095Y-154844231D01*
X107054095Y-155368041D02*
X107054095Y-154368041D01*
X107435047Y-154368041D02*
X108054095Y-154368041D01*
X107720761Y-154748993D01*
X107863619Y-154748993D01*
X107958857Y-154796612D01*
X108006476Y-154844231D01*
X108054095Y-154939470D01*
X108054095Y-155177565D01*
X108006476Y-155272803D01*
X107958857Y-155320422D01*
X107863619Y-155368041D01*
X107577904Y-155368041D01*
X107482666Y-155320422D01*
X107435047Y-155272803D01*
X107751426Y-135867195D02*
X106751426Y-135867195D01*
X107751426Y-135295766D01*
X106751426Y-135295766D01*
X106751426Y-134819576D02*
X107560950Y-134819576D01*
X107656188Y-134771957D01*
X107703807Y-134724338D01*
X107751426Y-134629100D01*
X107751426Y-134438623D01*
X107703807Y-134343385D01*
X107656188Y-134295766D01*
X107560950Y-134248147D01*
X106751426Y-134248147D01*
X107751426Y-133248147D02*
X107751426Y-133819576D01*
X107751426Y-133533862D02*
X106751426Y-133533862D01*
X106894283Y-133629100D01*
X106989521Y-133724338D01*
X107037140Y-133819576D01*
X100147381Y-137969524D02*
X99147381Y-137969524D01*
X100147381Y-137398095D01*
X99147381Y-137398095D01*
X99147381Y-136731429D02*
X99147381Y-136540952D01*
X99195000Y-136445714D01*
X99290238Y-136350476D01*
X99480714Y-136302857D01*
X99814048Y-136302857D01*
X100004524Y-136350476D01*
X100099762Y-136445714D01*
X100147381Y-136540952D01*
X100147381Y-136731429D01*
X100099762Y-136826667D01*
X100004524Y-136921905D01*
X99814048Y-136969524D01*
X99480714Y-136969524D01*
X99290238Y-136921905D01*
X99195000Y-136826667D01*
X99147381Y-136731429D01*
X108767426Y-140447195D02*
X107767426Y-140447195D01*
X108767426Y-139875766D01*
X107767426Y-139875766D01*
X108672188Y-138828147D02*
X108719807Y-138875766D01*
X108767426Y-139018623D01*
X108767426Y-139113861D01*
X108719807Y-139256719D01*
X108624569Y-139351957D01*
X108529331Y-139399576D01*
X108338855Y-139447195D01*
X108195997Y-139447195D01*
X108005521Y-139399576D01*
X107910283Y-139351957D01*
X107815045Y-139256719D01*
X107767426Y-139113861D01*
X107767426Y-139018623D01*
X107815045Y-138875766D01*
X107862664Y-138828147D01*
X106354474Y-147440052D02*
X106354474Y-146678147D01*
X105735426Y-146011481D02*
X105735426Y-145821004D01*
X105783045Y-145725766D01*
X105878283Y-145630528D01*
X106068759Y-145582909D01*
X106402093Y-145582909D01*
X106592569Y-145630528D01*
X106687807Y-145725766D01*
X106735426Y-145821004D01*
X106735426Y-146011481D01*
X106687807Y-146106719D01*
X106592569Y-146201957D01*
X106402093Y-146249576D01*
X106068759Y-146249576D01*
X105878283Y-146201957D01*
X105783045Y-146106719D01*
X105735426Y-146011481D01*
X106735426Y-145154338D02*
X105735426Y-145154338D01*
X106735426Y-144582909D01*
X105735426Y-144582909D01*
X108386474Y-147440052D02*
X108386474Y-146678147D01*
X108767426Y-147059099D02*
X108005521Y-147059099D01*
X107767426Y-146011481D02*
X107767426Y-145821004D01*
X107815045Y-145725766D01*
X107910283Y-145630528D01*
X108100759Y-145582909D01*
X108434093Y-145582909D01*
X108624569Y-145630528D01*
X108719807Y-145725766D01*
X108767426Y-145821004D01*
X108767426Y-146011481D01*
X108719807Y-146106719D01*
X108624569Y-146201957D01*
X108434093Y-146249576D01*
X108100759Y-146249576D01*
X107910283Y-146201957D01*
X107815045Y-146106719D01*
X107767426Y-146011481D01*
X108767426Y-145154338D02*
X107767426Y-145154338D01*
X108767426Y-144582909D01*
X107767426Y-144582909D01*
X154194048Y-144311667D02*
X154670239Y-144311667D01*
X154098810Y-144597381D02*
X154432143Y-143597381D01*
X154765477Y-144597381D01*
X155098810Y-143597381D02*
X155098810Y-144406905D01*
X155146429Y-144502143D01*
X155194048Y-144549762D01*
X155289286Y-144597381D01*
X155479763Y-144597381D01*
X155575001Y-144549762D01*
X155622620Y-144502143D01*
X155670239Y-144406905D01*
X155670239Y-143597381D01*
X156146429Y-144216429D02*
X156908334Y-144216429D01*
X159416905Y-144311667D02*
X159893096Y-144311667D01*
X159321667Y-144597381D02*
X159655000Y-143597381D01*
X159988334Y-144597381D01*
X160321667Y-143597381D02*
X160321667Y-144406905D01*
X160369286Y-144502143D01*
X160416905Y-144549762D01*
X160512143Y-144597381D01*
X160702620Y-144597381D01*
X160797858Y-144549762D01*
X160845477Y-144502143D01*
X160893096Y-144406905D01*
X160893096Y-143597381D01*
X161321667Y-143692619D02*
X161369286Y-143645000D01*
X161464524Y-143597381D01*
X161702620Y-143597381D01*
X161797858Y-143645000D01*
X161845477Y-143692619D01*
X161893096Y-143787857D01*
X161893096Y-143883095D01*
X161845477Y-144025952D01*
X161274048Y-144597381D01*
X161893096Y-144597381D01*
X156876905Y-144311667D02*
X157353096Y-144311667D01*
X156781667Y-144597381D02*
X157115000Y-143597381D01*
X157448334Y-144597381D01*
X157781667Y-143597381D02*
X157781667Y-144406905D01*
X157829286Y-144502143D01*
X157876905Y-144549762D01*
X157972143Y-144597381D01*
X158162620Y-144597381D01*
X158257858Y-144549762D01*
X158305477Y-144502143D01*
X158353096Y-144406905D01*
X158353096Y-143597381D01*
X159353096Y-144597381D02*
X158781667Y-144597381D01*
X159067381Y-144597381D02*
X159067381Y-143597381D01*
X158972143Y-143740238D01*
X158876905Y-143835476D01*
X158781667Y-143883095D01*
X156876905Y-162726667D02*
X157353096Y-162726667D01*
X156781667Y-163012381D02*
X157115000Y-162012381D01*
X157448334Y-163012381D01*
X157781667Y-162012381D02*
X157781667Y-162821905D01*
X157829286Y-162917143D01*
X157876905Y-162964762D01*
X157972143Y-163012381D01*
X158162620Y-163012381D01*
X158257858Y-162964762D01*
X158305477Y-162917143D01*
X158353096Y-162821905D01*
X158353096Y-162012381D01*
X159353096Y-163012381D02*
X158781667Y-163012381D01*
X159067381Y-163012381D02*
X159067381Y-162012381D01*
X158972143Y-162155238D01*
X158876905Y-162250476D01*
X158781667Y-162298095D01*
X169576905Y-144311667D02*
X170053096Y-144311667D01*
X169481667Y-144597381D02*
X169815000Y-143597381D01*
X170148334Y-144597381D01*
X170481667Y-143597381D02*
X170481667Y-144406905D01*
X170529286Y-144502143D01*
X170576905Y-144549762D01*
X170672143Y-144597381D01*
X170862620Y-144597381D01*
X170957858Y-144549762D01*
X171005477Y-144502143D01*
X171053096Y-144406905D01*
X171053096Y-143597381D01*
X171481667Y-143692619D02*
X171529286Y-143645000D01*
X171624524Y-143597381D01*
X171862620Y-143597381D01*
X171957858Y-143645000D01*
X172005477Y-143692619D01*
X172053096Y-143787857D01*
X172053096Y-143883095D01*
X172005477Y-144025952D01*
X171434048Y-144597381D01*
X172053096Y-144597381D01*
X135445595Y-180072382D02*
X135445595Y-179072382D01*
X135445595Y-179548572D02*
X136017024Y-179548572D01*
X136017024Y-180072382D02*
X136017024Y-179072382D01*
X136969405Y-179072382D02*
X136493214Y-179072382D01*
X136445595Y-179548572D01*
X136493214Y-179500953D01*
X136588452Y-179453334D01*
X136826548Y-179453334D01*
X136921786Y-179500953D01*
X136969405Y-179548572D01*
X137017024Y-179643811D01*
X137017024Y-179881906D01*
X136969405Y-179977144D01*
X136921786Y-180024763D01*
X136826548Y-180072382D01*
X136588452Y-180072382D01*
X136493214Y-180024763D01*
X136445595Y-179977144D01*
X136715595Y-180072382D02*
X136715595Y-179072382D01*
X136715595Y-179548572D02*
X137287024Y-179548572D01*
X137287024Y-180072382D02*
X137287024Y-179072382D01*
X138191786Y-179072382D02*
X138001309Y-179072382D01*
X137906071Y-179120001D01*
X137858452Y-179167620D01*
X137763214Y-179310477D01*
X137715595Y-179500953D01*
X137715595Y-179881906D01*
X137763214Y-179977144D01*
X137810833Y-180024763D01*
X137906071Y-180072382D01*
X138096548Y-180072382D01*
X138191786Y-180024763D01*
X138239405Y-179977144D01*
X138287024Y-179881906D01*
X138287024Y-179643811D01*
X138239405Y-179548572D01*
X138191786Y-179500953D01*
X138096548Y-179453334D01*
X137906071Y-179453334D01*
X137810833Y-179500953D01*
X137763214Y-179548572D01*
X137715595Y-179643811D01*
X139255595Y-180072382D02*
X139255595Y-179072382D01*
X139255595Y-179548572D02*
X139827024Y-179548572D01*
X139827024Y-180072382D02*
X139827024Y-179072382D01*
X140207976Y-179072382D02*
X140874643Y-179072382D01*
X140446071Y-180072382D01*
X140049405Y-180072382D02*
X140049405Y-179072382D01*
X140049405Y-179548572D02*
X140620834Y-179548572D01*
X140620834Y-180072382D02*
X140620834Y-179072382D01*
X141620834Y-180072382D02*
X141049405Y-180072382D01*
X141335119Y-180072382D02*
X141335119Y-179072382D01*
X141239881Y-179215239D01*
X141144643Y-179310477D01*
X141049405Y-179358096D01*
X142573215Y-180072382D02*
X142001786Y-180072382D01*
X142287500Y-180072382D02*
X142287500Y-179072382D01*
X142192262Y-179215239D01*
X142097024Y-179310477D01*
X142001786Y-179358096D01*
X133699405Y-180072382D02*
X133699405Y-179072382D01*
X133699405Y-179548572D02*
X134270834Y-179548572D01*
X134270834Y-180072382D02*
X134270834Y-179072382D01*
X135270834Y-180072382D02*
X134699405Y-180072382D01*
X134985119Y-180072382D02*
X134985119Y-179072382D01*
X134889881Y-179215239D01*
X134794643Y-179310477D01*
X134699405Y-179358096D01*
X135651786Y-179167620D02*
X135699405Y-179120001D01*
X135794643Y-179072382D01*
X136032739Y-179072382D01*
X136127977Y-179120001D01*
X136175596Y-179167620D01*
X136223215Y-179262858D01*
X136223215Y-179358096D01*
X136175596Y-179500953D01*
X135604167Y-180072382D01*
X136223215Y-180072382D01*
X133699405Y-180072382D02*
X133699405Y-179072382D01*
X133699405Y-179548572D02*
X134270834Y-179548572D01*
X134270834Y-180072382D02*
X134270834Y-179072382D01*
X135270834Y-180072382D02*
X134699405Y-180072382D01*
X134985119Y-180072382D02*
X134985119Y-179072382D01*
X134889881Y-179215239D01*
X134794643Y-179310477D01*
X134699405Y-179358096D01*
X135604167Y-179072382D02*
X136223215Y-179072382D01*
X135889881Y-179453334D01*
X136032739Y-179453334D01*
X136127977Y-179500953D01*
X136175596Y-179548572D01*
X136223215Y-179643811D01*
X136223215Y-179881906D01*
X136175596Y-179977144D01*
X136127977Y-180024763D01*
X136032739Y-180072382D01*
X135747024Y-180072382D01*
X135651786Y-180024763D01*
X135604167Y-179977144D01*
X134969405Y-180072382D02*
X134969405Y-179072382D01*
X134969405Y-179548572D02*
X135540834Y-179548572D01*
X135540834Y-180072382D02*
X135540834Y-179072382D01*
X136540834Y-180072382D02*
X135969405Y-180072382D01*
X136255119Y-180072382D02*
X136255119Y-179072382D01*
X136159881Y-179215239D01*
X136064643Y-179310477D01*
X135969405Y-179358096D01*
X136874167Y-179072382D02*
X137540834Y-179072382D01*
X137112262Y-180072382D01*
X134969405Y-180072382D02*
X134969405Y-179072382D01*
X134969405Y-179548572D02*
X135540834Y-179548572D01*
X135540834Y-180072382D02*
X135540834Y-179072382D01*
X136540834Y-180072382D02*
X135969405Y-180072382D01*
X136255119Y-180072382D02*
X136255119Y-179072382D01*
X136159881Y-179215239D01*
X136064643Y-179310477D01*
X135969405Y-179358096D01*
X137112262Y-179500953D02*
X137017024Y-179453334D01*
X136969405Y-179405715D01*
X136921786Y-179310477D01*
X136921786Y-179262858D01*
X136969405Y-179167620D01*
X137017024Y-179120001D01*
X137112262Y-179072382D01*
X137302739Y-179072382D01*
X137397977Y-179120001D01*
X137445596Y-179167620D01*
X137493215Y-179262858D01*
X137493215Y-179310477D01*
X137445596Y-179405715D01*
X137397977Y-179453334D01*
X137302739Y-179500953D01*
X137112262Y-179500953D01*
X137017024Y-179548572D01*
X136969405Y-179596191D01*
X136921786Y-179691430D01*
X136921786Y-179881906D01*
X136969405Y-179977144D01*
X137017024Y-180024763D01*
X137112262Y-180072382D01*
X137302739Y-180072382D01*
X137397977Y-180024763D01*
X137445596Y-179977144D01*
X137493215Y-179881906D01*
X137493215Y-179691430D01*
X137445596Y-179596191D01*
X137397977Y-179548572D01*
X137302739Y-179500953D01*
M02*
