G04 #@! TF.FileFunction,Copper,L1,Top,Signal*
%FSLAX46Y46*%
G04 Gerber Fmt 4.6, Leading zero omitted, Abs format (unit mm)*
G04 Created by KiCad (PCBNEW 4.0.2+dfsg1-stable) date ti  8. elokuuta 2017 15.34.45*
%MOMM*%
G01*
G04 APERTURE LIST*
%ADD10C,0.100000*%
%ADD11R,1.750000X1.750000*%
%ADD12C,1.750000*%
%ADD13R,1.250000X1.750000*%
%ADD14O,1.250000X1.750000*%
%ADD15O,1.750000X1.200000*%
%ADD16R,1.750000X1.200000*%
%ADD17C,0.500000*%
G04 APERTURE END LIST*
D10*
D11*
X139700000Y-154940000D03*
D12*
X132080000Y-154940000D03*
D13*
X146304000Y-150114000D03*
D14*
X144272000Y-150114000D03*
D11*
X110474045Y-149821480D03*
D12*
X105394045Y-149821480D03*
D11*
X170815000Y-154305000D03*
D12*
X170815000Y-149225000D03*
D11*
X153035000Y-154305000D03*
D12*
X153035000Y-149225000D03*
D11*
X155575000Y-154305000D03*
D12*
X160655000Y-154305000D03*
X163195000Y-154305000D03*
X165735000Y-154305000D03*
X168275000Y-154305000D03*
X168275000Y-149225000D03*
X165735000Y-149225000D03*
X163195000Y-149225000D03*
X160655000Y-149225000D03*
X155575000Y-149225000D03*
D11*
X102235000Y-137160000D03*
D12*
X102235000Y-139700000D03*
X102235000Y-142240000D03*
X102235000Y-144780000D03*
D11*
X101547395Y-161937765D03*
D12*
X101547395Y-159397765D03*
X101547395Y-156857765D03*
D11*
X152400000Y-146050000D03*
D12*
X149860000Y-146050000D03*
X147320000Y-146050000D03*
D11*
X128905000Y-146050000D03*
D12*
X131445000Y-146050000D03*
X133985000Y-146050000D03*
X136525000Y-146050000D03*
X139065000Y-146050000D03*
X141605000Y-146050000D03*
X144145000Y-146050000D03*
D11*
X118110000Y-146050000D03*
D12*
X120650000Y-146050000D03*
X123190000Y-146050000D03*
X125730000Y-146050000D03*
D11*
X158115000Y-159385000D03*
D12*
X160655000Y-159385000D03*
X163195000Y-159385000D03*
X165735000Y-159385000D03*
D11*
X139065000Y-163830000D03*
D12*
X141605000Y-163830000D03*
X144145000Y-163830000D03*
X146685000Y-163830000D03*
X149225000Y-163830000D03*
X151765000Y-163830000D03*
X154305000Y-163830000D03*
D11*
X118110000Y-163830000D03*
D12*
X120650000Y-163830000D03*
X123190000Y-163830000D03*
X125730000Y-163830000D03*
X128270000Y-163830000D03*
X130810000Y-163830000D03*
X133350000Y-163830000D03*
X135890000Y-163830000D03*
X123190000Y-160020000D03*
X123190000Y-149860000D03*
X120650000Y-160020000D03*
X120650000Y-149860000D03*
X118110000Y-160020000D03*
X118110000Y-149860000D03*
X153670000Y-159385000D03*
X143510000Y-159385000D03*
X146685000Y-155575000D03*
X144145000Y-155575000D03*
X149225000Y-155575000D03*
X98372394Y-159397764D03*
X98372394Y-156857764D03*
X98372394Y-161937764D03*
D11*
X107879571Y-156820660D03*
D12*
X107879571Y-159360660D03*
X107879571Y-161900660D03*
X107879571Y-164440660D03*
D15*
X110419571Y-157930660D03*
D16*
X110419571Y-163330660D03*
D15*
X110419571Y-161530660D03*
X110419571Y-159730660D03*
D11*
X110474045Y-147281481D03*
D12*
X110474045Y-142201481D03*
X110474045Y-139661481D03*
X110474045Y-137121481D03*
X105394045Y-137121481D03*
X105394045Y-139661481D03*
X105394045Y-142201481D03*
X105394045Y-147281481D03*
D17*
X144780000Y-165735000D02*
X172085000Y-165735000D01*
X172085000Y-165735000D02*
X172720000Y-165100000D01*
X172720000Y-165100000D02*
X172720000Y-154940000D01*
X172720000Y-154940000D02*
X172720000Y-144780000D01*
X172085000Y-144145000D02*
X172720000Y-144780000D01*
X172085000Y-144145000D02*
X170815000Y-144145000D01*
X137160000Y-165735000D02*
X139700000Y-165735000D01*
X170815000Y-149225000D02*
X170815000Y-144145000D01*
X170815000Y-144145000D02*
X168275000Y-144145000D01*
X168275000Y-149225000D02*
X168275000Y-144145000D01*
X151130000Y-144145000D02*
X168275000Y-144145000D01*
X155575000Y-149225000D02*
X152400000Y-146050000D01*
X153035000Y-149225000D02*
X155575000Y-149225000D01*
X152400000Y-146050000D02*
X152400000Y-148590000D01*
X152400000Y-148590000D02*
X153035000Y-149225000D01*
X152400000Y-146050000D02*
X152400000Y-146685000D01*
X152400000Y-146685000D02*
X151130000Y-147955000D01*
X149225000Y-154305000D02*
X149225000Y-155575000D01*
X151130000Y-152400000D02*
X149225000Y-154305000D01*
X151130000Y-147955000D02*
X151130000Y-152400000D01*
X140335000Y-144145000D02*
X142875000Y-144145000D01*
X141605000Y-146050000D02*
X141605000Y-145415000D01*
X141605000Y-145415000D02*
X142875000Y-144145000D01*
X151130000Y-144145000D02*
X152400000Y-145415000D01*
X142875000Y-144145000D02*
X151130000Y-144145000D01*
X152400000Y-145415000D02*
X152400000Y-146050000D01*
X140716000Y-147320000D02*
X141224000Y-146812000D01*
X141224000Y-146812000D02*
X141605000Y-146050000D01*
X141478000Y-147320000D02*
X140716000Y-147320000D01*
X140716000Y-147320000D02*
X140244286Y-147320000D01*
X140462000Y-147320000D02*
X140462000Y-147116800D01*
X140244286Y-147320000D02*
X140462000Y-147320000D01*
X144272000Y-150114000D02*
X141478000Y-147320000D01*
X141478000Y-147320000D02*
X141478000Y-146177000D01*
X141478000Y-146177000D02*
X141605000Y-146050000D01*
X123190000Y-146050000D02*
X123190000Y-145415000D01*
X123190000Y-145415000D02*
X121920000Y-144145000D01*
X139065000Y-163830000D02*
X139065000Y-164465000D01*
X139065000Y-164465000D02*
X139700000Y-165735000D01*
X144780000Y-165735000D02*
X146685000Y-164465000D01*
X139700000Y-165735000D02*
X144780000Y-165735000D01*
X146685000Y-164465000D02*
X146685000Y-163830000D01*
X116205000Y-156845000D02*
X116205000Y-165100000D01*
X116205000Y-165100000D02*
X116840000Y-165735000D01*
X116840000Y-165735000D02*
X137160000Y-165735000D01*
X137160000Y-165735000D02*
X139065000Y-164465000D01*
X124460000Y-144145000D02*
X121920000Y-144145000D01*
X121920000Y-144145000D02*
X116840000Y-144145000D01*
X116205000Y-144780000D02*
X116205000Y-156845000D01*
X116840000Y-144145000D02*
X116205000Y-144780000D01*
X123190000Y-145415000D02*
X124460000Y-144145000D01*
X124460000Y-144145000D02*
X140335000Y-144145000D01*
X140335000Y-144145000D02*
X141605000Y-145415000D01*
X132080000Y-154940000D02*
X132080000Y-156845000D01*
X132080000Y-157480000D02*
X139065000Y-163830000D01*
X132080000Y-156845000D02*
X132080000Y-157480000D01*
X141605000Y-146050000D02*
X140462000Y-147116800D01*
X140462000Y-147116800D02*
X132080000Y-154940000D01*
X144145000Y-150114000D02*
X144399000Y-149860000D01*
X144399000Y-149860000D02*
X144399000Y-150241000D01*
X144145000Y-149606000D02*
X144399000Y-149860000D01*
X110474045Y-147281481D02*
X110474045Y-149821480D01*
X102235000Y-144780000D02*
X103505000Y-146050000D01*
X108585000Y-151765000D02*
X110474045Y-149875955D01*
X104775000Y-151765000D02*
X108585000Y-151765000D01*
X103505000Y-150495000D02*
X104775000Y-151765000D01*
X103505000Y-146050000D02*
X103505000Y-150495000D01*
X110474045Y-149875955D02*
X110474045Y-149821480D01*
X101584045Y-144741481D02*
X101600000Y-144779999D01*
X105394045Y-147281481D02*
X105394045Y-145018045D01*
X105394045Y-145018045D02*
X102616000Y-142240000D01*
X102616000Y-142240000D02*
X102235000Y-142240000D01*
X105394045Y-147281481D02*
X105394045Y-149821481D01*
X101600000Y-142240000D02*
X101584044Y-142201481D01*
X143510000Y-159385000D02*
X144145000Y-155575000D01*
X147320000Y-146050000D02*
X144145000Y-146050000D01*
X146304000Y-150114000D02*
X146304000Y-147066000D01*
X146304000Y-147066000D02*
X147320000Y-146050000D01*
X141605000Y-163830000D02*
X140970000Y-162814000D01*
X142875000Y-153543000D02*
X144145000Y-153543000D01*
X141986000Y-152654000D02*
X142875000Y-153543000D01*
X138176000Y-152654000D02*
X141986000Y-152654000D01*
X137160000Y-153670000D02*
X138176000Y-152654000D01*
X137160000Y-159004000D02*
X137160000Y-153670000D01*
X140970000Y-162814000D02*
X137160000Y-159004000D01*
X146304000Y-150114000D02*
X146304000Y-151384000D01*
X144145000Y-153543000D02*
X144145000Y-155575000D01*
X146304000Y-151384000D02*
X144145000Y-153543000D01*
X146304000Y-150114000D02*
X146304000Y-149352000D01*
X146304000Y-149352000D02*
X144145000Y-147193000D01*
X144145000Y-147193000D02*
X144145000Y-146050000D01*
X101547395Y-159397765D02*
X98372395Y-159397765D01*
X98372395Y-159397765D02*
X98372394Y-159397764D01*
X98372394Y-156857764D02*
X101547394Y-156857764D01*
X101547394Y-156857764D02*
X101547395Y-156857765D01*
X98372394Y-161937764D02*
X101547394Y-161937764D01*
X101547394Y-161937764D02*
X101547395Y-161937765D01*
X163195000Y-154305000D02*
X163195000Y-155575000D01*
X160655000Y-158115000D02*
X160655000Y-159385000D01*
X163195000Y-155575000D02*
X160655000Y-158115000D01*
X165735000Y-154305000D02*
X165735000Y-159385000D01*
X123190000Y-163830000D02*
X123190000Y-160020000D01*
X120650000Y-163830000D02*
X120650000Y-160020000D01*
X118110000Y-163830000D02*
X118110000Y-160020000D01*
X105394045Y-137121481D02*
X102273519Y-137121481D01*
X102273519Y-137121481D02*
X102235000Y-137160000D01*
X102235000Y-139700000D02*
X105355526Y-139700000D01*
X105355526Y-139700000D02*
X105394045Y-139661481D01*
X158115000Y-159385000D02*
X158115000Y-160020000D01*
X158115000Y-160020000D02*
X159385000Y-161290000D01*
X159385000Y-161290000D02*
X161925000Y-161290000D01*
X161925000Y-161290000D02*
X163195000Y-160020000D01*
X163195000Y-160020000D02*
X163195000Y-159385000D01*
X144145000Y-163830000D02*
X144145000Y-163195000D01*
X144145000Y-163195000D02*
X143510000Y-162560000D01*
X143510000Y-162560000D02*
X139700000Y-158750000D01*
X139700000Y-158750000D02*
X139700000Y-154940000D01*
X168275000Y-154305000D02*
X170815000Y-154305000D01*
X170815000Y-154305000D02*
X168275000Y-156845000D01*
X168275000Y-156845000D02*
X168275000Y-156210000D01*
X154305000Y-163830000D02*
X165735000Y-163830000D01*
X168275000Y-161290000D02*
X168275000Y-156210000D01*
X168275000Y-156210000D02*
X168275000Y-154305000D01*
X165735000Y-163830000D02*
X168275000Y-161290000D01*
X153035000Y-154305000D02*
X155575000Y-154305000D01*
X153035000Y-154305000D02*
X155575000Y-156845000D01*
X155575000Y-156845000D02*
X155575000Y-157480000D01*
X151765000Y-163830000D02*
X151765000Y-163195000D01*
X151765000Y-163195000D02*
X152400000Y-161925000D01*
X152400000Y-161925000D02*
X154305000Y-161925000D01*
X154305000Y-161925000D02*
X155575000Y-160655000D01*
X155575000Y-160655000D02*
X155575000Y-157480000D01*
X155575000Y-157480000D02*
X155575000Y-154305000D01*
X151765000Y-159385000D02*
X147955000Y-159385000D01*
X147955000Y-159385000D02*
X146685000Y-158115000D01*
X149225000Y-163830000D02*
X148590000Y-162560000D01*
X148590000Y-162560000D02*
X151765000Y-159385000D01*
X151765000Y-159385000D02*
X153670000Y-159385000D01*
X148590000Y-162560000D02*
X146685000Y-160655000D01*
X146685000Y-160655000D02*
X146685000Y-158115000D01*
X146685000Y-158115000D02*
X146685000Y-155575000D01*
X146685000Y-155575000D02*
X146685000Y-154305000D01*
X149860000Y-151130000D02*
X149860000Y-146050000D01*
X146685000Y-154305000D02*
X149860000Y-151130000D01*
X149225000Y-163830000D02*
X148590000Y-162560000D01*
X128905000Y-146050000D02*
X128905000Y-146685000D01*
X128905000Y-146685000D02*
X125095000Y-149860000D01*
X125095000Y-149860000D02*
X125095000Y-163195000D01*
X125095000Y-163195000D02*
X125730000Y-163830000D01*
X131445000Y-146050000D02*
X131445000Y-146685000D01*
X131445000Y-146685000D02*
X126365000Y-151130000D01*
X126365000Y-151130000D02*
X126365000Y-161925000D01*
X126365000Y-161925000D02*
X128270000Y-163830000D01*
X133985000Y-146050000D02*
X127635000Y-151765000D01*
X127635000Y-160655000D02*
X130810000Y-163830000D01*
X127635000Y-151765000D02*
X127635000Y-160655000D01*
X136525000Y-146050000D02*
X128905000Y-153035000D01*
X128905000Y-159385000D02*
X133350000Y-163830000D01*
X128905000Y-153035000D02*
X128905000Y-159385000D01*
X139065000Y-146050000D02*
X131445000Y-153035000D01*
X130175000Y-158115000D02*
X135890000Y-163830000D01*
X130175000Y-153670000D02*
X130175000Y-158115000D01*
X130810000Y-153035000D02*
X130175000Y-153670000D01*
X131445000Y-153035000D02*
X130810000Y-153035000D01*
X118110000Y-149860000D02*
X118110000Y-146050000D01*
X120650000Y-149860000D02*
X120650000Y-146050000D01*
X123190000Y-149860000D02*
X123190000Y-149225000D01*
X123190000Y-149225000D02*
X125730000Y-146685000D01*
X125730000Y-146685000D02*
X125730000Y-146050000D01*
X107879571Y-156820660D02*
X109309571Y-156820660D01*
X109309571Y-156820660D02*
X110419571Y-157930660D01*
X107879571Y-159360660D02*
X108941660Y-159360660D01*
X109311660Y-159730660D02*
X110419571Y-159730660D01*
X108941660Y-159360660D02*
X109311660Y-159730660D01*
X107879571Y-161900660D02*
X108990340Y-161900660D01*
X109360340Y-161530660D02*
X110419571Y-161530660D01*
X108990340Y-161900660D02*
X109360340Y-161530660D01*
X107879571Y-164440660D02*
X109309571Y-164440660D01*
X109309571Y-164440660D02*
X110419571Y-163330660D01*
M02*
