%FSLAX45Y45*%
G04 Gerber Fmt 4.5, Leading zero omitted, Abs format (unit mm)*
G04 Created by KiCad (PCBNEW 4.0.7-e2-6376~58~ubuntu16.04.1) date Sun Dec  9 15:38:50 2018*
%MOMM*%
%LPD*%
G01*
G04 APERTURE LIST*
%ADD10C,0.127000*%
%ADD11C,0.150000*%
%ADD12C,0.200000*%
%ADD13C,0.300000*%
G04 APERTURE END LIST*
D10*
D11*
X16827500Y-14160500D02*
X17272000Y-14160500D01*
X16510000Y-14160500D02*
X16573500Y-14160500D01*
X16827500Y-13906500D02*
X16827500Y-14160500D01*
X15049500Y-14160500D02*
X16510000Y-14160500D01*
X15049500Y-13906500D02*
X15303500Y-13906500D01*
X14668500Y-13906500D02*
X14795500Y-13906500D01*
X14732000Y-14160500D02*
X14795500Y-14160500D01*
X13081000Y-14160500D02*
X12763500Y-14160500D01*
X13335000Y-14160500D02*
X14160500Y-14160500D01*
X13335000Y-13906500D02*
X13335000Y-14160500D01*
X17335500Y-14160500D02*
X17272000Y-14160500D01*
X17462500Y-14287500D02*
X17335500Y-14160500D01*
X17462500Y-16573500D02*
X17462500Y-14287500D01*
X17335500Y-16700500D02*
X17462500Y-16573500D01*
X17272000Y-16700500D02*
X17335500Y-16700500D01*
X13081000Y-13906500D02*
X13081000Y-14160500D01*
X13335000Y-13906500D02*
X13525500Y-13906500D01*
X12763500Y-14160500D02*
X12446000Y-14160500D01*
X12890500Y-13906500D02*
X13081000Y-13906500D01*
X15049500Y-13906500D02*
X15049500Y-14160500D01*
X14732000Y-14160500D02*
X14160500Y-14160500D01*
X14795500Y-13906500D02*
X14795500Y-14160500D01*
X14605000Y-13843000D02*
X14478000Y-13843000D01*
X14668500Y-13906500D02*
X14605000Y-13843000D01*
X15303500Y-13906500D02*
X15494000Y-13906500D01*
X15494000Y-13906500D02*
X15557500Y-13906500D01*
X15621000Y-13843000D02*
X15557500Y-13906500D01*
X16383000Y-13843000D02*
X15621000Y-13843000D01*
X16446500Y-13906500D02*
X16383000Y-13843000D01*
X16573500Y-13906500D02*
X16446500Y-13906500D01*
X16573500Y-13906500D02*
X16573500Y-14160500D01*
X16891000Y-13843000D02*
X17145000Y-13843000D01*
X16827500Y-13906500D02*
X16891000Y-13843000D01*
X13589000Y-13843000D02*
X14478000Y-13843000D01*
X13525500Y-13906500D02*
X13589000Y-13843000D01*
X12827000Y-13843000D02*
X12890500Y-13906500D01*
X11811000Y-13843000D02*
X12827000Y-13843000D01*
X11811000Y-13843000D02*
X11811000Y-13779500D01*
X13652500Y-12954000D02*
X13652500Y-13017500D01*
X13716000Y-12954000D02*
X13652500Y-12954000D01*
X13144500Y-13335000D02*
X13081000Y-13335000D01*
X13335000Y-13144500D02*
X13144500Y-13335000D01*
X13652500Y-13144500D02*
X13335000Y-13144500D01*
X13652500Y-13017500D02*
X13652500Y-13144500D01*
X13779500Y-12954000D02*
X13716000Y-12954000D01*
X15494000Y-12954000D02*
X13779500Y-12954000D01*
X15557500Y-13017500D02*
X15494000Y-12954000D01*
X15684500Y-13271500D02*
X16129000Y-13271500D01*
X15684500Y-13144500D02*
X15684500Y-13271500D01*
X15621000Y-13081000D02*
X15684500Y-13144500D01*
X15557500Y-13017500D02*
X15621000Y-13081000D01*
X11493500Y-16510000D02*
X11493500Y-16383000D01*
X11493500Y-15875000D02*
X11493500Y-15684500D01*
X11493500Y-16319500D02*
X11493500Y-16129000D01*
X12065000Y-18542000D02*
X12446000Y-18542000D01*
X12446000Y-18288000D02*
X12065000Y-18288000D01*
X12446000Y-18542000D02*
X12446000Y-18288000D01*
X12700000Y-18288000D02*
X13144500Y-18288000D01*
X12700000Y-18542000D02*
X12700000Y-18288000D01*
X12065000Y-18542000D02*
X12065000Y-18288000D01*
X11811000Y-18542000D02*
X11811000Y-18288000D01*
X14605000Y-19240500D02*
X14414500Y-19240500D01*
X14859000Y-19240500D02*
X15049500Y-19240500D01*
X14986000Y-18224500D02*
X14605000Y-18224500D01*
X14986000Y-18478500D02*
X14986000Y-18224500D01*
X14986000Y-18478500D02*
X14859000Y-18478500D01*
X15240000Y-18224500D02*
X15748000Y-18224500D01*
X15240000Y-18478500D02*
X15240000Y-18224500D01*
X14605000Y-18478500D02*
X14859000Y-18478500D01*
X14605000Y-18224500D02*
X14605000Y-18478500D01*
X14351000Y-18224500D02*
X13208000Y-18224500D01*
X14351000Y-18478500D02*
X14351000Y-18224500D01*
X16827500Y-16700500D02*
X17272000Y-16700500D01*
X14732000Y-16700500D02*
X16573500Y-16700500D01*
X12255500Y-16700500D02*
X14478000Y-16700500D01*
X12001500Y-16700500D02*
X11620500Y-16700500D01*
X16573500Y-16954500D02*
X16256000Y-16954500D01*
X16573500Y-16700500D02*
X16573500Y-16954500D01*
X16827500Y-16954500D02*
X16827500Y-16700500D01*
X17081500Y-16954500D02*
X16827500Y-16954500D01*
X14732000Y-16954500D02*
X16256000Y-16954500D01*
X14732000Y-16700500D02*
X14732000Y-16954500D01*
X14478000Y-16954500D02*
X14478000Y-16700500D01*
X12255500Y-16954500D02*
X14478000Y-16954500D01*
X12255500Y-16700500D02*
X12255500Y-16954500D01*
X12001500Y-16954500D02*
X12001500Y-16700500D01*
X11747500Y-16954500D02*
X12001500Y-16954500D01*
X14097000Y-18796000D02*
X14097000Y-19050000D01*
X11493500Y-14287500D02*
X11557000Y-14224000D01*
X11493500Y-14478000D02*
X11493500Y-14287500D01*
X11811000Y-13462000D02*
X11874500Y-13398500D01*
X11811000Y-13652500D02*
X11811000Y-13462000D01*
X15748000Y-18415000D02*
X15748000Y-18224500D01*
X15811500Y-18478500D02*
X15748000Y-18415000D01*
X15811500Y-19050000D02*
X15811500Y-18478500D01*
X15938500Y-19050000D02*
X15811500Y-19050000D01*
X15938500Y-19113500D02*
X15938500Y-19050000D01*
X16065500Y-19240500D02*
X15938500Y-19113500D01*
X16065500Y-19558000D02*
X16065500Y-19240500D01*
X16192500Y-19558000D02*
X16065500Y-19558000D01*
X16192500Y-19812000D02*
X16192500Y-19558000D01*
X16954500Y-19812000D02*
X16192500Y-19812000D01*
X16954500Y-19558000D02*
X16954500Y-19812000D01*
X17081500Y-19558000D02*
X16954500Y-19558000D01*
X17081500Y-19240500D02*
X17081500Y-19558000D01*
X17145000Y-19177000D02*
X17081500Y-19240500D01*
X17145000Y-18161000D02*
X17145000Y-19177000D01*
X17081500Y-18097500D02*
X17145000Y-18161000D01*
X17081500Y-16954500D02*
X17081500Y-18097500D01*
X11747500Y-17589500D02*
X11747500Y-16954500D01*
X11684000Y-17653000D02*
X11747500Y-17589500D01*
X11684000Y-17780000D02*
X11684000Y-17653000D01*
X13144500Y-18288000D02*
X13208000Y-18224500D01*
X11684000Y-18161000D02*
X11684000Y-17780000D01*
X11811000Y-18288000D02*
X11684000Y-18161000D01*
X11493500Y-16129000D02*
X11493500Y-15875000D01*
X11493500Y-15684500D02*
X11493500Y-15557500D01*
X14859000Y-19240500D02*
X14605000Y-19240500D01*
X14414500Y-19240500D02*
X14287500Y-19240500D01*
X14097000Y-19050000D02*
X14097000Y-19240500D01*
X11493500Y-14541500D02*
X11493500Y-14478000D01*
X11557000Y-14224000D02*
X11620500Y-14160500D01*
X11811000Y-13652500D02*
X11811000Y-13716000D01*
X11938000Y-13335000D02*
X11874500Y-13398500D01*
X11493500Y-14541500D02*
X11493500Y-14605000D01*
X11811000Y-13716000D02*
X11811000Y-13779500D01*
X15430500Y-14160500D02*
X15176500Y-14160500D01*
X12446000Y-14160500D02*
X12192000Y-14160500D01*
X15240000Y-19240500D02*
X15049500Y-19240500D01*
X14097000Y-19240500D02*
X14160500Y-19240500D01*
X14097000Y-18732500D02*
X14097000Y-18796000D01*
X11620500Y-14160500D02*
X12192000Y-14160500D01*
X11684000Y-18669000D02*
X11811000Y-18542000D01*
X15367000Y-19113500D02*
X15367000Y-18859500D01*
X15240000Y-19240500D02*
X15367000Y-19113500D01*
X17145000Y-13335000D02*
X17145000Y-13843000D01*
X16637000Y-13335000D02*
X17145000Y-13335000D01*
X16573500Y-13271500D02*
X16637000Y-13335000D01*
X16510000Y-13271500D02*
X16573500Y-13271500D01*
X16129000Y-13271500D02*
X16510000Y-13271500D01*
X11938000Y-13335000D02*
X13081000Y-13335000D01*
X11493500Y-16383000D02*
X11493500Y-16319500D01*
X11493500Y-15557500D02*
X11493500Y-14605000D01*
X11493500Y-16510000D02*
X11493500Y-16573500D01*
X11493500Y-16573500D02*
X11620500Y-16700500D01*
X14224000Y-18605500D02*
X14224000Y-18732500D01*
X14224000Y-18605500D02*
X14351000Y-18478500D01*
X14287500Y-19240500D02*
X14160500Y-19240500D01*
X14097000Y-18732500D02*
X14224000Y-18732500D01*
X15240000Y-18732500D02*
X15240000Y-18478500D01*
X15367000Y-18859500D02*
X15240000Y-18732500D01*
X12700000Y-18669000D02*
X12700000Y-18542000D01*
X12700000Y-19240500D02*
X12700000Y-18669000D01*
X12573000Y-19367500D02*
X12700000Y-19240500D01*
X11811000Y-19367500D02*
X12573000Y-19367500D01*
X11684000Y-19240500D02*
X11811000Y-19367500D01*
X11684000Y-18669000D02*
X11684000Y-19240500D01*
D12*
X11963400Y-17170400D02*
X12039600Y-17246600D01*
X12039600Y-17170400D02*
X11963400Y-17246600D01*
X11963400Y-17424400D02*
X12039600Y-17500600D01*
X12039600Y-17424400D02*
X11963400Y-17500600D01*
X12217400Y-17170400D02*
X12293600Y-17246600D01*
X12293600Y-17170400D02*
X12217400Y-17246600D01*
X12217400Y-17424400D02*
X12293600Y-17500600D01*
X12293600Y-17424400D02*
X12217400Y-17500600D01*
X12471400Y-17170400D02*
X12547600Y-17246600D01*
X12547600Y-17170400D02*
X12471400Y-17246600D01*
X12471400Y-17424400D02*
X12547600Y-17500600D01*
X12547600Y-17424400D02*
X12471400Y-17500600D01*
X12725400Y-17170400D02*
X12801600Y-17246600D01*
X12801600Y-17170400D02*
X12725400Y-17246600D01*
X12725400Y-17424400D02*
X12801600Y-17500600D01*
X12801600Y-17424400D02*
X12725400Y-17500600D01*
X12979400Y-17170400D02*
X13055600Y-17246600D01*
X13055600Y-17170400D02*
X12979400Y-17246600D01*
X12979400Y-17424400D02*
X13055600Y-17500600D01*
X13055600Y-17424400D02*
X12979400Y-17500600D01*
X13233400Y-17170400D02*
X13309600Y-17246600D01*
X13309600Y-17170400D02*
X13233400Y-17246600D01*
X13487400Y-17170400D02*
X13563600Y-17246600D01*
X13563600Y-17170400D02*
X13487400Y-17246600D01*
X14249400Y-17424400D02*
X14325600Y-17500600D01*
X14325600Y-17424400D02*
X14249400Y-17500600D01*
X14503400Y-17424400D02*
X14579600Y-17500600D01*
X14579600Y-17424400D02*
X14503400Y-17500600D01*
X14757400Y-17170400D02*
X14833600Y-17246600D01*
X14833600Y-17170400D02*
X14757400Y-17246600D01*
X14757400Y-17424400D02*
X14833600Y-17500600D01*
X14833600Y-17424400D02*
X14757400Y-17500600D01*
X15011400Y-17170400D02*
X15087600Y-17246600D01*
X15087600Y-17170400D02*
X15011400Y-17246600D01*
X15265400Y-17170400D02*
X15341600Y-17246600D01*
X15341600Y-17170400D02*
X15265400Y-17246600D01*
X15265400Y-17424400D02*
X15341600Y-17500600D01*
X15341600Y-17424400D02*
X15265400Y-17500600D01*
X15519400Y-17170400D02*
X15595600Y-17246600D01*
X15595600Y-17170400D02*
X15519400Y-17246600D01*
X15519400Y-17424400D02*
X15595600Y-17500600D01*
X15595600Y-17424400D02*
X15519400Y-17500600D01*
X15773400Y-17170400D02*
X15849600Y-17246600D01*
X15849600Y-17170400D02*
X15773400Y-17246600D01*
X15773400Y-17424400D02*
X15849600Y-17500600D01*
X15849600Y-17424400D02*
X15773400Y-17500600D01*
X16027400Y-17170400D02*
X16103600Y-17246600D01*
X16103600Y-17170400D02*
X16027400Y-17246600D01*
X16027400Y-17424400D02*
X16103600Y-17500600D01*
X16103600Y-17424400D02*
X16027400Y-17500600D01*
X16281400Y-17170400D02*
X16357600Y-17246600D01*
X16357600Y-17170400D02*
X16281400Y-17246600D01*
X16281400Y-17424400D02*
X16357600Y-17500600D01*
X16357600Y-17424400D02*
X16281400Y-17500600D01*
X16535400Y-17170400D02*
X16611600Y-17246600D01*
X16611600Y-17170400D02*
X16535400Y-17246600D01*
X16535400Y-17424400D02*
X16611600Y-17500600D01*
X16611600Y-17424400D02*
X16535400Y-17500600D01*
X16789400Y-17170400D02*
X16865600Y-17246600D01*
X16865600Y-17170400D02*
X16789400Y-17246600D01*
X16789400Y-17424400D02*
X16865600Y-17500600D01*
X16865600Y-17424400D02*
X16789400Y-17500600D01*
X11856000Y-14478000D02*
G75*
G03X11856000Y-14478000I-45000J0D01*
G01*
X11856000Y-14859000D02*
G75*
G03X11856000Y-14859000I-45000J0D01*
G01*
X11856000Y-15875000D02*
G75*
G03X11856000Y-15875000I-45000J0D01*
G01*
X11856000Y-16383000D02*
G75*
G03X11856000Y-16383000I-45000J0D01*
G01*
X11984276Y-19118761D02*
G75*
G03X11984276Y-19118761I-45000J0D01*
G01*
X11984276Y-18801261D02*
G75*
G03X11984276Y-18801261I-45000J0D01*
G01*
X12046500Y-17970500D02*
G75*
G03X12046500Y-17970500I-45000J0D01*
G01*
X12110000Y-13589000D02*
G75*
G03X12110000Y-13589000I-45000J0D01*
G01*
X12110000Y-14478000D02*
G75*
G03X12110000Y-14478000I-45000J0D01*
G01*
X12110000Y-14859000D02*
G75*
G03X12110000Y-14859000I-45000J0D01*
G01*
X12110000Y-15875000D02*
G75*
G03X12110000Y-15875000I-45000J0D01*
G01*
X12110000Y-16383000D02*
G75*
G03X12110000Y-16383000I-45000J0D01*
G01*
X12238276Y-19118761D02*
G75*
G03X12238276Y-19118761I-45000J0D01*
G01*
X12238276Y-18801261D02*
G75*
G03X12238276Y-18801261I-45000J0D01*
G01*
X12300500Y-17970500D02*
G75*
G03X12300500Y-17970500I-45000J0D01*
G01*
X12364000Y-13589000D02*
G75*
G03X12364000Y-13589000I-45000J0D01*
G01*
X12364000Y-14478000D02*
G75*
G03X12364000Y-14478000I-45000J0D01*
G01*
X12364000Y-14859000D02*
G75*
G03X12364000Y-14859000I-45000J0D01*
G01*
X12364000Y-15875000D02*
G75*
G03X12364000Y-15875000I-45000J0D01*
G01*
X12364000Y-16383000D02*
G75*
G03X12364000Y-16383000I-45000J0D01*
G01*
X12492276Y-19118761D02*
G75*
G03X12492276Y-19118761I-45000J0D01*
G01*
X12492276Y-18801261D02*
G75*
G03X12492276Y-18801261I-45000J0D01*
G01*
X12554500Y-17970500D02*
G75*
G03X12554500Y-17970500I-45000J0D01*
G01*
X12618000Y-13589000D02*
G75*
G03X12618000Y-13589000I-45000J0D01*
G01*
X12618000Y-14478000D02*
G75*
G03X12618000Y-14478000I-45000J0D01*
G01*
X12618000Y-16383000D02*
G75*
G03X12618000Y-16383000I-45000J0D01*
G01*
X12808500Y-17970500D02*
G75*
G03X12808500Y-17970500I-45000J0D01*
G01*
X12872000Y-13589000D02*
G75*
G03X12872000Y-13589000I-45000J0D01*
G01*
X12872000Y-16383000D02*
G75*
G03X12872000Y-16383000I-45000J0D01*
G01*
X13062500Y-17970500D02*
G75*
G03X13062500Y-17970500I-45000J0D01*
G01*
X13126000Y-13589000D02*
G75*
G03X13126000Y-13589000I-45000J0D01*
G01*
X13126000Y-16383000D02*
G75*
G03X13126000Y-16383000I-45000J0D01*
G01*
X13253000Y-15430500D02*
G75*
G03X13253000Y-15430500I-45000J0D01*
G01*
X13316500Y-17970500D02*
G75*
G03X13316500Y-17970500I-45000J0D01*
G01*
X13380000Y-13589000D02*
G75*
G03X13380000Y-13589000I-45000J0D01*
G01*
X13380000Y-16383000D02*
G75*
G03X13380000Y-16383000I-45000J0D01*
G01*
X13570500Y-17970500D02*
G75*
G03X13570500Y-17970500I-45000J0D01*
G01*
X13634000Y-13589000D02*
G75*
G03X13634000Y-13589000I-45000J0D01*
G01*
X13634000Y-16383000D02*
G75*
G03X13634000Y-16383000I-45000J0D01*
G01*
X13888000Y-13589000D02*
G75*
G03X13888000Y-13589000I-45000J0D01*
G01*
X13951500Y-13208000D02*
G75*
G03X13951500Y-13208000I-45000J0D01*
G01*
X13951500Y-14478000D02*
G75*
G03X13951500Y-14478000I-45000J0D01*
G01*
X13951500Y-16383000D02*
G75*
G03X13951500Y-16383000I-45000J0D01*
G01*
X14015000Y-15430500D02*
G75*
G03X14015000Y-15430500I-45000J0D01*
G01*
X14078500Y-17970500D02*
G75*
G03X14078500Y-17970500I-45000J0D01*
G01*
X14142000Y-13589000D02*
G75*
G03X14142000Y-13589000I-45000J0D01*
G01*
X14205500Y-13208000D02*
G75*
G03X14205500Y-13208000I-45000J0D01*
G01*
X14205500Y-14478000D02*
G75*
G03X14205500Y-14478000I-45000J0D01*
G01*
X14205500Y-16383000D02*
G75*
G03X14205500Y-16383000I-45000J0D01*
G01*
X14332500Y-17970500D02*
G75*
G03X14332500Y-17970500I-45000J0D01*
G01*
X14393566Y-18993543D02*
G75*
G03X14393566Y-18993543I-45000J0D01*
G01*
X14396000Y-13589000D02*
G75*
G03X14396000Y-13589000I-45000J0D01*
G01*
X14396000Y-15938500D02*
G75*
G03X14396000Y-15938500I-45000J0D01*
G01*
X14459500Y-13208000D02*
G75*
G03X14459500Y-13208000I-45000J0D01*
G01*
X14459500Y-14478000D02*
G75*
G03X14459500Y-14478000I-45000J0D01*
G01*
X14459500Y-16383000D02*
G75*
G03X14459500Y-16383000I-45000J0D01*
G01*
X14507000Y-18732500D02*
G75*
G03X14507000Y-18732500I-45000J0D01*
G01*
X14586500Y-15430500D02*
G75*
G03X14586500Y-15430500I-45000J0D01*
G01*
X14586500Y-17970500D02*
G75*
G03X14586500Y-17970500I-45000J0D01*
G01*
X14647566Y-18993543D02*
G75*
G03X14647566Y-18993543I-45000J0D01*
G01*
X14650000Y-13589000D02*
G75*
G03X14650000Y-13589000I-45000J0D01*
G01*
X14687000Y-18732500D02*
G75*
G03X14687000Y-18732500I-45000J0D01*
G01*
X14713500Y-13208000D02*
G75*
G03X14713500Y-13208000I-45000J0D01*
G01*
X14713500Y-14478000D02*
G75*
G03X14713500Y-14478000I-45000J0D01*
G01*
X14713500Y-16383000D02*
G75*
G03X14713500Y-16383000I-45000J0D01*
G01*
X14832158Y-14850658D02*
G75*
G03X14832158Y-14850658I-45000J0D01*
G01*
X14840500Y-15430500D02*
G75*
G03X14840500Y-15430500I-45000J0D01*
G01*
X14840500Y-17970500D02*
G75*
G03X14840500Y-17970500I-45000J0D01*
G01*
X14867000Y-18732500D02*
G75*
G03X14867000Y-18732500I-45000J0D01*
G01*
X14901566Y-18993543D02*
G75*
G03X14901566Y-18993543I-45000J0D01*
G01*
X14904000Y-13589000D02*
G75*
G03X14904000Y-13589000I-45000J0D01*
G01*
X14967500Y-13208000D02*
G75*
G03X14967500Y-13208000I-45000J0D01*
G01*
X14967500Y-14478000D02*
G75*
G03X14967500Y-14478000I-45000J0D01*
G01*
X14967500Y-16383000D02*
G75*
G03X14967500Y-16383000I-45000J0D01*
G01*
X14975842Y-14994342D02*
G75*
G03X14975842Y-14994342I-45000J0D01*
G01*
X15047000Y-18732500D02*
G75*
G03X15047000Y-18732500I-45000J0D01*
G01*
X15094500Y-15430500D02*
G75*
G03X15094500Y-15430500I-45000J0D01*
G01*
X15094500Y-17970500D02*
G75*
G03X15094500Y-17970500I-45000J0D01*
G01*
X15155566Y-18993543D02*
G75*
G03X15155566Y-18993543I-45000J0D01*
G01*
X15158000Y-13589000D02*
G75*
G03X15158000Y-13589000I-45000J0D01*
G01*
X15221500Y-13208000D02*
G75*
G03X15221500Y-13208000I-45000J0D01*
G01*
X15221500Y-14478000D02*
G75*
G03X15221500Y-14478000I-45000J0D01*
G01*
X15221500Y-16383000D02*
G75*
G03X15221500Y-16383000I-45000J0D01*
G01*
X15348500Y-17970500D02*
G75*
G03X15348500Y-17970500I-45000J0D01*
G01*
X15412000Y-13589000D02*
G75*
G03X15412000Y-13589000I-45000J0D01*
G01*
X15412000Y-15113000D02*
G75*
G03X15412000Y-15113000I-45000J0D01*
G01*
X15412000Y-15621000D02*
G75*
G03X15412000Y-15621000I-45000J0D01*
G01*
X15412000Y-15938500D02*
G75*
G03X15412000Y-15938500I-45000J0D01*
G01*
X15475500Y-13208000D02*
G75*
G03X15475500Y-13208000I-45000J0D01*
G01*
X15475500Y-14478000D02*
G75*
G03X15475500Y-14478000I-45000J0D01*
G01*
X15475500Y-16383000D02*
G75*
G03X15475500Y-16383000I-45000J0D01*
G01*
X15602500Y-17970500D02*
G75*
G03X15602500Y-17970500I-45000J0D01*
G01*
X15666000Y-13589000D02*
G75*
G03X15666000Y-13589000I-45000J0D01*
G01*
X15666000Y-15113000D02*
G75*
G03X15666000Y-15113000I-45000J0D01*
G01*
X15666000Y-15621000D02*
G75*
G03X15666000Y-15621000I-45000J0D01*
G01*
X15793000Y-14478000D02*
G75*
G03X15793000Y-14478000I-45000J0D01*
G01*
X15856500Y-17970500D02*
G75*
G03X15856500Y-17970500I-45000J0D01*
G01*
X15920000Y-13589000D02*
G75*
G03X15920000Y-13589000I-45000J0D01*
G01*
X16047000Y-14478000D02*
G75*
G03X16047000Y-14478000I-45000J0D01*
G01*
X16110500Y-16065500D02*
G75*
G03X16110500Y-16065500I-45000J0D01*
G01*
X16110500Y-18288000D02*
G75*
G03X16110500Y-18288000I-45000J0D01*
G01*
X16110500Y-18796000D02*
G75*
G03X16110500Y-18796000I-45000J0D01*
G01*
X16174000Y-13589000D02*
G75*
G03X16174000Y-13589000I-45000J0D01*
G01*
X16174000Y-15113000D02*
G75*
G03X16174000Y-15113000I-45000J0D01*
G01*
X16174000Y-15621000D02*
G75*
G03X16174000Y-15621000I-45000J0D01*
G01*
X16301000Y-14478000D02*
G75*
G03X16301000Y-14478000I-45000J0D01*
G01*
X16364500Y-16065500D02*
G75*
G03X16364500Y-16065500I-45000J0D01*
G01*
X16364500Y-17780000D02*
G75*
G03X16364500Y-17780000I-45000J0D01*
G01*
X16364500Y-18034000D02*
G75*
G03X16364500Y-18034000I-45000J0D01*
G01*
X16364500Y-18542000D02*
G75*
G03X16364500Y-18542000I-45000J0D01*
G01*
X16364500Y-18796000D02*
G75*
G03X16364500Y-18796000I-45000J0D01*
G01*
X16364500Y-19050000D02*
G75*
G03X16364500Y-19050000I-45000J0D01*
G01*
X16364500Y-19304000D02*
G75*
G03X16364500Y-19304000I-45000J0D01*
G01*
X16428000Y-13589000D02*
G75*
G03X16428000Y-13589000I-45000J0D01*
G01*
X16428000Y-15113000D02*
G75*
G03X16428000Y-15113000I-45000J0D01*
G01*
X16428000Y-15621000D02*
G75*
G03X16428000Y-15621000I-45000J0D01*
G01*
X16491500Y-19558000D02*
G75*
G03X16491500Y-19558000I-45000J0D01*
G01*
X16618500Y-16065500D02*
G75*
G03X16618500Y-16065500I-45000J0D01*
G01*
X16682000Y-13589000D02*
G75*
G03X16682000Y-13589000I-45000J0D01*
G01*
X16682000Y-15113000D02*
G75*
G03X16682000Y-15113000I-45000J0D01*
G01*
X16682000Y-15621000D02*
G75*
G03X16682000Y-15621000I-45000J0D01*
G01*
X16745500Y-19558000D02*
G75*
G03X16745500Y-19558000I-45000J0D01*
G01*
X16872500Y-16065500D02*
G75*
G03X16872500Y-16065500I-45000J0D01*
G01*
X16872500Y-17780000D02*
G75*
G03X16872500Y-17780000I-45000J0D01*
G01*
X16872500Y-18034000D02*
G75*
G03X16872500Y-18034000I-45000J0D01*
G01*
X16872500Y-18542000D02*
G75*
G03X16872500Y-18542000I-45000J0D01*
G01*
X16872500Y-18796000D02*
G75*
G03X16872500Y-18796000I-45000J0D01*
G01*
X16872500Y-19050000D02*
G75*
G03X16872500Y-19050000I-45000J0D01*
G01*
X16872500Y-19304000D02*
G75*
G03X16872500Y-19304000I-45000J0D01*
G01*
X16936000Y-13589000D02*
G75*
G03X16936000Y-13589000I-45000J0D01*
G01*
X16936000Y-15113000D02*
G75*
G03X16936000Y-15113000I-45000J0D01*
G01*
X16936000Y-15621000D02*
G75*
G03X16936000Y-15621000I-45000J0D01*
G01*
X17190000Y-15113000D02*
G75*
G03X17190000Y-15113000I-45000J0D01*
G01*
X17190000Y-15621000D02*
G75*
G03X17190000Y-15621000I-45000J0D01*
G01*
D13*
X11757428Y-20285214D02*
X11757428Y-19985214D01*
X11828857Y-19985214D01*
X11871714Y-19999500D01*
X11900286Y-20028072D01*
X11914571Y-20056643D01*
X11928857Y-20113786D01*
X11928857Y-20156643D01*
X11914571Y-20213786D01*
X11900286Y-20242357D01*
X11871714Y-20270929D01*
X11828857Y-20285214D01*
X11757428Y-20285214D01*
X12057428Y-20285214D02*
X12057428Y-20085214D01*
X12057428Y-20142357D02*
X12071714Y-20113786D01*
X12086000Y-20099500D01*
X12114571Y-20085214D01*
X12143143Y-20085214D01*
X12243143Y-20285214D02*
X12243143Y-20085214D01*
X12243143Y-19985214D02*
X12228857Y-19999500D01*
X12243143Y-20013786D01*
X12257428Y-19999500D01*
X12243143Y-19985214D01*
X12243143Y-20013786D01*
X12428857Y-20285214D02*
X12400286Y-20270929D01*
X12386000Y-20242357D01*
X12386000Y-19985214D01*
X12586000Y-20285214D02*
X12557428Y-20270929D01*
X12543143Y-20242357D01*
X12543143Y-19985214D01*
X12928857Y-20285214D02*
X12928857Y-19985214D01*
X13028857Y-20199500D01*
X13128857Y-19985214D01*
X13128857Y-20285214D01*
X13400286Y-20285214D02*
X13400286Y-20128072D01*
X13386000Y-20099500D01*
X13357428Y-20085214D01*
X13300286Y-20085214D01*
X13271714Y-20099500D01*
X13400286Y-20270929D02*
X13371714Y-20285214D01*
X13300286Y-20285214D01*
X13271714Y-20270929D01*
X13257428Y-20242357D01*
X13257428Y-20213786D01*
X13271714Y-20185214D01*
X13300286Y-20170929D01*
X13371714Y-20170929D01*
X13400286Y-20156643D01*
X13543143Y-20085214D02*
X13543143Y-20385214D01*
X13543143Y-20099500D02*
X13571714Y-20085214D01*
X13628857Y-20085214D01*
X13657428Y-20099500D01*
X13671714Y-20113786D01*
X13686000Y-20142357D01*
X13686000Y-20228072D01*
X13671714Y-20256643D01*
X13657428Y-20270929D01*
X13628857Y-20285214D01*
X13571714Y-20285214D01*
X13543143Y-20270929D01*
X13814571Y-20256643D02*
X13828857Y-20270929D01*
X13814571Y-20285214D01*
X13800286Y-20270929D01*
X13814571Y-20256643D01*
X13814571Y-20285214D01*
X13814571Y-20099500D02*
X13828857Y-20113786D01*
X13814571Y-20128072D01*
X13800286Y-20113786D01*
X13814571Y-20099500D01*
X13814571Y-20128072D01*
X11409800Y-20741400D02*
X11486000Y-20817600D01*
X11486000Y-20741400D02*
X11409800Y-20817600D01*
X11814571Y-20615214D02*
X11843143Y-20615214D01*
X11871714Y-20629500D01*
X11886000Y-20643786D01*
X11900286Y-20672357D01*
X11914571Y-20729500D01*
X11914571Y-20800929D01*
X11900286Y-20858072D01*
X11886000Y-20886643D01*
X11871714Y-20900929D01*
X11843143Y-20915214D01*
X11814571Y-20915214D01*
X11786000Y-20900929D01*
X11771714Y-20886643D01*
X11757428Y-20858072D01*
X11743143Y-20800929D01*
X11743143Y-20729500D01*
X11757428Y-20672357D01*
X11771714Y-20643786D01*
X11786000Y-20629500D01*
X11814571Y-20615214D01*
X12043143Y-20886643D02*
X12057428Y-20900929D01*
X12043143Y-20915214D01*
X12028857Y-20900929D01*
X12043143Y-20886643D01*
X12043143Y-20915214D01*
X12157428Y-20615214D02*
X12357428Y-20615214D01*
X12228857Y-20915214D01*
X12600286Y-20615214D02*
X12543143Y-20615214D01*
X12514571Y-20629500D01*
X12500286Y-20643786D01*
X12471714Y-20686643D01*
X12457428Y-20743786D01*
X12457428Y-20858072D01*
X12471714Y-20886643D01*
X12486000Y-20900929D01*
X12514571Y-20915214D01*
X12571714Y-20915214D01*
X12600286Y-20900929D01*
X12614571Y-20886643D01*
X12628857Y-20858072D01*
X12628857Y-20786643D01*
X12614571Y-20758072D01*
X12600286Y-20743786D01*
X12571714Y-20729500D01*
X12514571Y-20729500D01*
X12486000Y-20743786D01*
X12471714Y-20758072D01*
X12457428Y-20786643D01*
X12757428Y-20915214D02*
X12757428Y-20715214D01*
X12757428Y-20743786D02*
X12771714Y-20729500D01*
X12800286Y-20715214D01*
X12843143Y-20715214D01*
X12871714Y-20729500D01*
X12886000Y-20758072D01*
X12886000Y-20915214D01*
X12886000Y-20758072D02*
X12900286Y-20729500D01*
X12928857Y-20715214D01*
X12971714Y-20715214D01*
X13000286Y-20729500D01*
X13014571Y-20758072D01*
X13014571Y-20915214D01*
X13157428Y-20915214D02*
X13157428Y-20715214D01*
X13157428Y-20743786D02*
X13171714Y-20729500D01*
X13200286Y-20715214D01*
X13243143Y-20715214D01*
X13271714Y-20729500D01*
X13286000Y-20758072D01*
X13286000Y-20915214D01*
X13286000Y-20758072D02*
X13300286Y-20729500D01*
X13328857Y-20715214D01*
X13371714Y-20715214D01*
X13400286Y-20729500D01*
X13414571Y-20758072D01*
X13414571Y-20915214D01*
X14000286Y-20600929D02*
X13743143Y-20986643D01*
X14386000Y-20615214D02*
X14414571Y-20615214D01*
X14443143Y-20629500D01*
X14457428Y-20643786D01*
X14471714Y-20672357D01*
X14486000Y-20729500D01*
X14486000Y-20800929D01*
X14471714Y-20858072D01*
X14457428Y-20886643D01*
X14443143Y-20900929D01*
X14414571Y-20915214D01*
X14386000Y-20915214D01*
X14357428Y-20900929D01*
X14343143Y-20886643D01*
X14328857Y-20858072D01*
X14314571Y-20800929D01*
X14314571Y-20729500D01*
X14328857Y-20672357D01*
X14343143Y-20643786D01*
X14357428Y-20629500D01*
X14386000Y-20615214D01*
X14614571Y-20886643D02*
X14628857Y-20900929D01*
X14614571Y-20915214D01*
X14600286Y-20900929D01*
X14614571Y-20886643D01*
X14614571Y-20915214D01*
X14814571Y-20615214D02*
X14843143Y-20615214D01*
X14871714Y-20629500D01*
X14886000Y-20643786D01*
X14900285Y-20672357D01*
X14914571Y-20729500D01*
X14914571Y-20800929D01*
X14900285Y-20858072D01*
X14886000Y-20886643D01*
X14871714Y-20900929D01*
X14843143Y-20915214D01*
X14814571Y-20915214D01*
X14786000Y-20900929D01*
X14771714Y-20886643D01*
X14757428Y-20858072D01*
X14743143Y-20800929D01*
X14743143Y-20729500D01*
X14757428Y-20672357D01*
X14771714Y-20643786D01*
X14786000Y-20629500D01*
X14814571Y-20615214D01*
X15014571Y-20615214D02*
X15200285Y-20615214D01*
X15100285Y-20729500D01*
X15143143Y-20729500D01*
X15171714Y-20743786D01*
X15186000Y-20758072D01*
X15200285Y-20786643D01*
X15200285Y-20858072D01*
X15186000Y-20886643D01*
X15171714Y-20900929D01*
X15143143Y-20915214D01*
X15057428Y-20915214D01*
X15028857Y-20900929D01*
X15014571Y-20886643D01*
X15386000Y-20615214D02*
X15414571Y-20615214D01*
X15443143Y-20629500D01*
X15457428Y-20643786D01*
X15471714Y-20672357D01*
X15486000Y-20729500D01*
X15486000Y-20800929D01*
X15471714Y-20858072D01*
X15457428Y-20886643D01*
X15443143Y-20900929D01*
X15414571Y-20915214D01*
X15386000Y-20915214D01*
X15357428Y-20900929D01*
X15343143Y-20886643D01*
X15328857Y-20858072D01*
X15314571Y-20800929D01*
X15314571Y-20729500D01*
X15328857Y-20672357D01*
X15343143Y-20643786D01*
X15357428Y-20629500D01*
X15386000Y-20615214D01*
X15600286Y-20615214D02*
X15600286Y-20672357D01*
X15714571Y-20615214D02*
X15714571Y-20672357D01*
X16157428Y-21029500D02*
X16143143Y-21015214D01*
X16114571Y-20972357D01*
X16100285Y-20943786D01*
X16086000Y-20900929D01*
X16071714Y-20829500D01*
X16071714Y-20772357D01*
X16086000Y-20700929D01*
X16100285Y-20658072D01*
X16114571Y-20629500D01*
X16143143Y-20586643D01*
X16157428Y-20572357D01*
X16243143Y-20615214D02*
X16428857Y-20615214D01*
X16328857Y-20729500D01*
X16371714Y-20729500D01*
X16400285Y-20743786D01*
X16414571Y-20758072D01*
X16428857Y-20786643D01*
X16428857Y-20858072D01*
X16414571Y-20886643D01*
X16400285Y-20900929D01*
X16371714Y-20915214D01*
X16286000Y-20915214D01*
X16257428Y-20900929D01*
X16243143Y-20886643D01*
X16714571Y-20915214D02*
X16543143Y-20915214D01*
X16628857Y-20915214D02*
X16628857Y-20615214D01*
X16600285Y-20658072D01*
X16571714Y-20686643D01*
X16543143Y-20700929D01*
X17071714Y-20915214D02*
X17071714Y-20615214D01*
X17200286Y-20915214D02*
X17200286Y-20758072D01*
X17186000Y-20729500D01*
X17157428Y-20715214D01*
X17114571Y-20715214D01*
X17086000Y-20729500D01*
X17071714Y-20743786D01*
X17386000Y-20915214D02*
X17357428Y-20900929D01*
X17343143Y-20886643D01*
X17328857Y-20858072D01*
X17328857Y-20772357D01*
X17343143Y-20743786D01*
X17357428Y-20729500D01*
X17386000Y-20715214D01*
X17428857Y-20715214D01*
X17457428Y-20729500D01*
X17471714Y-20743786D01*
X17486000Y-20772357D01*
X17486000Y-20858072D01*
X17471714Y-20886643D01*
X17457428Y-20900929D01*
X17428857Y-20915214D01*
X17386000Y-20915214D01*
X17657428Y-20915214D02*
X17628857Y-20900929D01*
X17614571Y-20872357D01*
X17614571Y-20615214D01*
X17886000Y-20900929D02*
X17857429Y-20915214D01*
X17800286Y-20915214D01*
X17771714Y-20900929D01*
X17757429Y-20872357D01*
X17757429Y-20758072D01*
X17771714Y-20729500D01*
X17800286Y-20715214D01*
X17857429Y-20715214D01*
X17886000Y-20729500D01*
X17900286Y-20758072D01*
X17900286Y-20786643D01*
X17757429Y-20815214D01*
X18014571Y-20900929D02*
X18043143Y-20915214D01*
X18100286Y-20915214D01*
X18128857Y-20900929D01*
X18143143Y-20872357D01*
X18143143Y-20858072D01*
X18128857Y-20829500D01*
X18100286Y-20815214D01*
X18057429Y-20815214D01*
X18028857Y-20800929D01*
X18014571Y-20772357D01*
X18014571Y-20758072D01*
X18028857Y-20729500D01*
X18057429Y-20715214D01*
X18100286Y-20715214D01*
X18128857Y-20729500D01*
X18243143Y-21029500D02*
X18257429Y-21015214D01*
X18286000Y-20972357D01*
X18300286Y-20943786D01*
X18314571Y-20900929D01*
X18328857Y-20829500D01*
X18328857Y-20772357D01*
X18314571Y-20700929D01*
X18300286Y-20658072D01*
X18286000Y-20629500D01*
X18257429Y-20586643D01*
X18243143Y-20572357D01*
X11486000Y-21175500D02*
G75*
G03X11486000Y-21175500I-45000J0D01*
G01*
X11814571Y-21011214D02*
X11843143Y-21011214D01*
X11871714Y-21025500D01*
X11886000Y-21039786D01*
X11900286Y-21068357D01*
X11914571Y-21125500D01*
X11914571Y-21196929D01*
X11900286Y-21254072D01*
X11886000Y-21282643D01*
X11871714Y-21296929D01*
X11843143Y-21311214D01*
X11814571Y-21311214D01*
X11786000Y-21296929D01*
X11771714Y-21282643D01*
X11757428Y-21254072D01*
X11743143Y-21196929D01*
X11743143Y-21125500D01*
X11757428Y-21068357D01*
X11771714Y-21039786D01*
X11786000Y-21025500D01*
X11814571Y-21011214D01*
X12043143Y-21282643D02*
X12057428Y-21296929D01*
X12043143Y-21311214D01*
X12028857Y-21296929D01*
X12043143Y-21282643D01*
X12043143Y-21311214D01*
X12200286Y-21311214D02*
X12257428Y-21311214D01*
X12286000Y-21296929D01*
X12300286Y-21282643D01*
X12328857Y-21239786D01*
X12343143Y-21182643D01*
X12343143Y-21068357D01*
X12328857Y-21039786D01*
X12314571Y-21025500D01*
X12286000Y-21011214D01*
X12228857Y-21011214D01*
X12200286Y-21025500D01*
X12186000Y-21039786D01*
X12171714Y-21068357D01*
X12171714Y-21139786D01*
X12186000Y-21168357D01*
X12200286Y-21182643D01*
X12228857Y-21196929D01*
X12286000Y-21196929D01*
X12314571Y-21182643D01*
X12328857Y-21168357D01*
X12343143Y-21139786D01*
X12528857Y-21011214D02*
X12557428Y-21011214D01*
X12586000Y-21025500D01*
X12600286Y-21039786D01*
X12614571Y-21068357D01*
X12628857Y-21125500D01*
X12628857Y-21196929D01*
X12614571Y-21254072D01*
X12600286Y-21282643D01*
X12586000Y-21296929D01*
X12557428Y-21311214D01*
X12528857Y-21311214D01*
X12500286Y-21296929D01*
X12486000Y-21282643D01*
X12471714Y-21254072D01*
X12457428Y-21196929D01*
X12457428Y-21125500D01*
X12471714Y-21068357D01*
X12486000Y-21039786D01*
X12500286Y-21025500D01*
X12528857Y-21011214D01*
X12757428Y-21311214D02*
X12757428Y-21111214D01*
X12757428Y-21139786D02*
X12771714Y-21125500D01*
X12800286Y-21111214D01*
X12843143Y-21111214D01*
X12871714Y-21125500D01*
X12886000Y-21154072D01*
X12886000Y-21311214D01*
X12886000Y-21154072D02*
X12900286Y-21125500D01*
X12928857Y-21111214D01*
X12971714Y-21111214D01*
X13000286Y-21125500D01*
X13014571Y-21154072D01*
X13014571Y-21311214D01*
X13157428Y-21311214D02*
X13157428Y-21111214D01*
X13157428Y-21139786D02*
X13171714Y-21125500D01*
X13200286Y-21111214D01*
X13243143Y-21111214D01*
X13271714Y-21125500D01*
X13286000Y-21154072D01*
X13286000Y-21311214D01*
X13286000Y-21154072D02*
X13300286Y-21125500D01*
X13328857Y-21111214D01*
X13371714Y-21111214D01*
X13400286Y-21125500D01*
X13414571Y-21154072D01*
X13414571Y-21311214D01*
X14000286Y-20996929D02*
X13743143Y-21382643D01*
X14386000Y-21011214D02*
X14414571Y-21011214D01*
X14443143Y-21025500D01*
X14457428Y-21039786D01*
X14471714Y-21068357D01*
X14486000Y-21125500D01*
X14486000Y-21196929D01*
X14471714Y-21254072D01*
X14457428Y-21282643D01*
X14443143Y-21296929D01*
X14414571Y-21311214D01*
X14386000Y-21311214D01*
X14357428Y-21296929D01*
X14343143Y-21282643D01*
X14328857Y-21254072D01*
X14314571Y-21196929D01*
X14314571Y-21125500D01*
X14328857Y-21068357D01*
X14343143Y-21039786D01*
X14357428Y-21025500D01*
X14386000Y-21011214D01*
X14614571Y-21282643D02*
X14628857Y-21296929D01*
X14614571Y-21311214D01*
X14600286Y-21296929D01*
X14614571Y-21282643D01*
X14614571Y-21311214D01*
X14814571Y-21011214D02*
X14843143Y-21011214D01*
X14871714Y-21025500D01*
X14886000Y-21039786D01*
X14900285Y-21068357D01*
X14914571Y-21125500D01*
X14914571Y-21196929D01*
X14900285Y-21254072D01*
X14886000Y-21282643D01*
X14871714Y-21296929D01*
X14843143Y-21311214D01*
X14814571Y-21311214D01*
X14786000Y-21296929D01*
X14771714Y-21282643D01*
X14757428Y-21254072D01*
X14743143Y-21196929D01*
X14743143Y-21125500D01*
X14757428Y-21068357D01*
X14771714Y-21039786D01*
X14786000Y-21025500D01*
X14814571Y-21011214D01*
X15014571Y-21011214D02*
X15200285Y-21011214D01*
X15100285Y-21125500D01*
X15143143Y-21125500D01*
X15171714Y-21139786D01*
X15186000Y-21154072D01*
X15200285Y-21182643D01*
X15200285Y-21254072D01*
X15186000Y-21282643D01*
X15171714Y-21296929D01*
X15143143Y-21311214D01*
X15057428Y-21311214D01*
X15028857Y-21296929D01*
X15014571Y-21282643D01*
X15471714Y-21011214D02*
X15328857Y-21011214D01*
X15314571Y-21154072D01*
X15328857Y-21139786D01*
X15357428Y-21125500D01*
X15428857Y-21125500D01*
X15457428Y-21139786D01*
X15471714Y-21154072D01*
X15486000Y-21182643D01*
X15486000Y-21254072D01*
X15471714Y-21282643D01*
X15457428Y-21296929D01*
X15428857Y-21311214D01*
X15357428Y-21311214D01*
X15328857Y-21296929D01*
X15314571Y-21282643D01*
X15600286Y-21011214D02*
X15600286Y-21068357D01*
X15714571Y-21011214D02*
X15714571Y-21068357D01*
X16157428Y-21425500D02*
X16143143Y-21411214D01*
X16114571Y-21368357D01*
X16100285Y-21339786D01*
X16086000Y-21296929D01*
X16071714Y-21225500D01*
X16071714Y-21168357D01*
X16086000Y-21096929D01*
X16100285Y-21054072D01*
X16114571Y-21025500D01*
X16143143Y-20982643D01*
X16157428Y-20968357D01*
X16428857Y-21311214D02*
X16257428Y-21311214D01*
X16343143Y-21311214D02*
X16343143Y-21011214D01*
X16314571Y-21054072D01*
X16286000Y-21082643D01*
X16257428Y-21096929D01*
X16528857Y-21011214D02*
X16714571Y-21011214D01*
X16614571Y-21125500D01*
X16657428Y-21125500D01*
X16686000Y-21139786D01*
X16700285Y-21154072D01*
X16714571Y-21182643D01*
X16714571Y-21254072D01*
X16700285Y-21282643D01*
X16686000Y-21296929D01*
X16657428Y-21311214D01*
X16571714Y-21311214D01*
X16543143Y-21296929D01*
X16528857Y-21282643D01*
X16971714Y-21111214D02*
X16971714Y-21311214D01*
X16900286Y-20996929D02*
X16828857Y-21211214D01*
X17014571Y-21211214D01*
X17357428Y-21311214D02*
X17357428Y-21011214D01*
X17486000Y-21311214D02*
X17486000Y-21154072D01*
X17471714Y-21125500D01*
X17443143Y-21111214D01*
X17400286Y-21111214D01*
X17371714Y-21125500D01*
X17357428Y-21139786D01*
X17671714Y-21311214D02*
X17643143Y-21296929D01*
X17628857Y-21282643D01*
X17614571Y-21254072D01*
X17614571Y-21168357D01*
X17628857Y-21139786D01*
X17643143Y-21125500D01*
X17671714Y-21111214D01*
X17714571Y-21111214D01*
X17743143Y-21125500D01*
X17757428Y-21139786D01*
X17771714Y-21168357D01*
X17771714Y-21254072D01*
X17757428Y-21282643D01*
X17743143Y-21296929D01*
X17714571Y-21311214D01*
X17671714Y-21311214D01*
X17943143Y-21311214D02*
X17914571Y-21296929D01*
X17900286Y-21268357D01*
X17900286Y-21011214D01*
X18171714Y-21296929D02*
X18143143Y-21311214D01*
X18086000Y-21311214D01*
X18057429Y-21296929D01*
X18043143Y-21268357D01*
X18043143Y-21154072D01*
X18057429Y-21125500D01*
X18086000Y-21111214D01*
X18143143Y-21111214D01*
X18171714Y-21125500D01*
X18186000Y-21154072D01*
X18186000Y-21182643D01*
X18043143Y-21211214D01*
X18300286Y-21296929D02*
X18328857Y-21311214D01*
X18386000Y-21311214D01*
X18414571Y-21296929D01*
X18428857Y-21268357D01*
X18428857Y-21254072D01*
X18414571Y-21225500D01*
X18386000Y-21211214D01*
X18343143Y-21211214D01*
X18314571Y-21196929D01*
X18300286Y-21168357D01*
X18300286Y-21154072D01*
X18314571Y-21125500D01*
X18343143Y-21111214D01*
X18386000Y-21111214D01*
X18414571Y-21125500D01*
X18528857Y-21425500D02*
X18543143Y-21411214D01*
X18571714Y-21368357D01*
X18586000Y-21339786D01*
X18600286Y-21296929D01*
X18614571Y-21225500D01*
X18614571Y-21168357D01*
X18600286Y-21096929D01*
X18586000Y-21054072D01*
X18571714Y-21025500D01*
X18543143Y-20982643D01*
X18528857Y-20968357D01*
M02*
