G04 #@! TF.GenerationSoftware,KiCad,Pcbnew,5.1.6-c6e7f7d~86~ubuntu19.10.1*
G04 #@! TF.CreationDate,2021-02-01T15:35:38+02:00*
G04 #@! TF.ProjectId,authenticator2.0,61757468-656e-4746-9963-61746f72322e,rev?*
G04 #@! TF.SameCoordinates,Original*
G04 #@! TF.FileFunction,Copper,L1,Top*
G04 #@! TF.FilePolarity,Positive*
%FSLAX46Y46*%
G04 Gerber Fmt 4.6, Leading zero omitted, Abs format (unit mm)*
G04 Created by KiCad (PCBNEW 5.1.6-c6e7f7d~86~ubuntu19.10.1) date 2021-02-01 15:35:38*
%MOMM*%
%LPD*%
G01*
G04 APERTURE LIST*
G04 #@! TA.AperFunction,ComponentPad*
%ADD10O,1.200000X1.750000*%
G04 #@! TD*
G04 #@! TA.AperFunction,ComponentPad*
%ADD11C,2.450000*%
G04 #@! TD*
G04 #@! TA.AperFunction,ComponentPad*
%ADD12R,1.200000X1.750000*%
G04 #@! TD*
G04 #@! TA.AperFunction,ComponentPad*
%ADD13C,1.750000*%
G04 #@! TD*
G04 #@! TA.AperFunction,ComponentPad*
%ADD14R,1.750000X1.750000*%
G04 #@! TD*
G04 #@! TA.AperFunction,ComponentPad*
%ADD15C,1.524000*%
G04 #@! TD*
G04 #@! TA.AperFunction,ComponentPad*
%ADD16R,1.250000X1.750000*%
G04 #@! TD*
G04 #@! TA.AperFunction,ComponentPad*
%ADD17O,1.250000X1.750000*%
G04 #@! TD*
G04 #@! TA.AperFunction,Conductor*
%ADD18C,0.500000*%
G04 #@! TD*
G04 #@! TA.AperFunction,Conductor*
%ADD19C,1.000000*%
G04 #@! TD*
G04 #@! TA.AperFunction,Conductor*
%ADD20C,2.000000*%
G04 #@! TD*
G04 APERTURE END LIST*
D10*
X74295000Y-118110000D03*
D11*
X71755000Y-114220000D03*
D10*
X65405000Y-118110000D03*
X64135000Y-115570000D03*
X62865000Y-118110000D03*
X61595000Y-115570000D03*
X60325000Y-118110000D03*
D11*
X87190000Y-129030000D03*
X56320000Y-129030000D03*
D10*
X66675000Y-115570000D03*
X67945000Y-118110000D03*
X69215000Y-115570000D03*
X75565000Y-115570000D03*
X76835000Y-118110000D03*
X78105000Y-115570000D03*
X79375000Y-118110000D03*
X80645000Y-115570000D03*
X81915000Y-118110000D03*
X83185000Y-115570000D03*
X73025000Y-71755000D03*
X73025000Y-74295000D03*
X70485000Y-71755000D03*
X70485000Y-74295000D03*
X67945000Y-71755000D03*
X67945000Y-74295000D03*
X65405000Y-71755000D03*
X65405000Y-74295000D03*
X62865000Y-71755000D03*
X62865000Y-74295000D03*
X60325000Y-71755000D03*
X60325000Y-74295000D03*
X57785000Y-71755000D03*
X57785000Y-74295000D03*
X55245000Y-71755000D03*
X55245000Y-74295000D03*
X52705000Y-71755000D03*
X52705000Y-74295000D03*
X50165000Y-71755000D03*
X50165000Y-74295000D03*
X47625000Y-71755000D03*
X47625000Y-74295000D03*
X45085000Y-71755000D03*
X45085000Y-74295000D03*
X42545000Y-71755000D03*
X42545000Y-74295000D03*
X40005000Y-71755000D03*
X40005000Y-74295000D03*
X37465000Y-71755000D03*
X37465000Y-74295000D03*
X34925000Y-71755000D03*
X34925000Y-74295000D03*
X32385000Y-71755000D03*
X32385000Y-74295000D03*
X29845000Y-71755000D03*
X29845000Y-74295000D03*
X27305000Y-71755000D03*
X27305000Y-74295000D03*
X24765000Y-71755000D03*
D12*
X24765000Y-74295000D03*
D13*
X39370000Y-20320000D03*
X39370000Y-22860000D03*
D14*
X42545000Y-20320000D03*
D13*
X45085000Y-20320000D03*
X47625000Y-20320000D03*
X50165000Y-20320000D03*
X45720000Y-22860000D03*
X43180000Y-22860000D03*
D14*
X29210000Y-89535000D03*
D13*
X29210000Y-94615000D03*
X29210000Y-97155000D03*
X29210000Y-99695000D03*
X29210000Y-102235000D03*
X34290000Y-102235000D03*
X34290000Y-99695000D03*
X34290000Y-97155000D03*
X34290000Y-94615000D03*
X34290000Y-89535000D03*
X71765000Y-141601600D03*
X74305000Y-141601600D03*
X76845000Y-141601600D03*
D14*
X79385000Y-141601600D03*
D10*
X78275000Y-144141600D03*
D12*
X72875000Y-144141600D03*
D10*
X74675000Y-144141600D03*
X76475000Y-144141600D03*
D13*
X20955000Y-59690000D03*
X23495000Y-59690000D03*
X18415000Y-59690000D03*
D10*
X51435000Y-115570000D03*
X50165000Y-118110000D03*
X48895000Y-115570000D03*
X47625000Y-118110000D03*
X46355000Y-115570000D03*
X45085000Y-118110000D03*
X43815000Y-115570000D03*
X37465000Y-115570000D03*
X36195000Y-118110000D03*
X34925000Y-115570000D03*
D11*
X24570000Y-129030000D03*
X55440000Y-129030000D03*
D10*
X28575000Y-118110000D03*
X29845000Y-115570000D03*
X31115000Y-118110000D03*
X32385000Y-115570000D03*
X33655000Y-118110000D03*
D11*
X40005000Y-114220000D03*
D10*
X42545000Y-118110000D03*
D14*
X29210000Y-86995000D03*
D13*
X34290000Y-86995000D03*
X86360000Y-81915000D03*
D14*
X81280000Y-81915000D03*
D13*
X44450000Y-57150000D03*
X46990000Y-57150000D03*
X49530000Y-57150000D03*
X52070000Y-57150000D03*
X54610000Y-57150000D03*
X57150000Y-57150000D03*
X59690000Y-57150000D03*
X62230000Y-57150000D03*
X64770000Y-57150000D03*
X67310000Y-57150000D03*
X69850000Y-57150000D03*
X72390000Y-57150000D03*
X74930000Y-57150000D03*
X77470000Y-57150000D03*
X80010000Y-57150000D03*
X82550000Y-57150000D03*
X85090000Y-57150000D03*
X87630000Y-57150000D03*
X90170000Y-57150000D03*
D14*
X92710000Y-57150000D03*
D15*
X25400000Y-156845000D03*
X25400000Y-154305000D03*
X25400000Y-151765000D03*
X25400000Y-149225000D03*
X25400000Y-146685000D03*
X25400000Y-144145000D03*
X25400000Y-141605000D03*
D13*
X94960000Y-101600000D03*
X94960000Y-96520000D03*
X94960000Y-91440000D03*
X94960000Y-86360000D03*
D14*
X81280000Y-99695000D03*
D13*
X86360000Y-99695000D03*
X26035000Y-29210000D03*
X23495000Y-29210000D03*
D16*
X80899000Y-20320000D03*
D17*
X82931000Y-20320000D03*
D13*
X25400000Y-43815000D03*
D14*
X25400000Y-51435000D03*
D13*
X34290000Y-104775000D03*
D14*
X29210000Y-104775000D03*
D13*
X52705000Y-20320000D03*
X55245000Y-20320000D03*
X77470000Y-20320000D03*
X74930000Y-20320000D03*
X72390000Y-20320000D03*
X69850000Y-20320000D03*
X67310000Y-20320000D03*
X64770000Y-20320000D03*
D14*
X62230000Y-20320000D03*
D13*
X23495000Y-62865000D03*
X20955000Y-62865000D03*
D14*
X18415000Y-62865000D03*
D13*
X58419400Y-141595600D03*
X63499400Y-141595600D03*
X60959400Y-141595600D03*
X19685000Y-23150000D03*
X24765000Y-23150000D03*
X29845000Y-23150000D03*
X34925000Y-23150000D03*
X57785000Y-86995000D03*
D14*
X52705000Y-86995000D03*
D13*
X57785000Y-104775000D03*
D14*
X52705000Y-104775000D03*
D13*
X77470000Y-53340000D03*
X74930000Y-53340000D03*
X72390000Y-53340000D03*
X69850000Y-53340000D03*
X67310000Y-53340000D03*
X64770000Y-53340000D03*
D14*
X62230000Y-53340000D03*
X20320000Y-29210000D03*
D13*
X20320000Y-31750000D03*
X20320000Y-34290000D03*
X20320000Y-36830000D03*
X20955000Y-57150000D03*
X23495000Y-57150000D03*
X23150000Y-85725000D03*
X23150000Y-90805000D03*
X23150000Y-95885000D03*
X23150000Y-100965000D03*
D14*
X94960000Y-80645000D03*
D13*
X94960000Y-75565000D03*
X57785000Y-89535000D03*
X57785000Y-94615000D03*
X57785000Y-97155000D03*
X57785000Y-99695000D03*
X57785000Y-102235000D03*
X52705000Y-102235000D03*
X52705000Y-99695000D03*
X52705000Y-97155000D03*
X52705000Y-94615000D03*
D14*
X52705000Y-89535000D03*
D13*
X88900000Y-20320000D03*
D14*
X86360000Y-20320000D03*
X107315000Y-60670000D03*
D13*
X112395000Y-60670000D03*
X63652400Y-145135600D03*
X61112400Y-145135600D03*
D14*
X58572400Y-145135600D03*
D15*
X47625000Y-156845000D03*
X47625000Y-154305000D03*
X47625000Y-151765000D03*
X47625000Y-149225000D03*
X47625000Y-146685000D03*
X47625000Y-144145000D03*
X47625000Y-141605000D03*
D10*
X64770000Y-25400000D03*
X63500000Y-27940000D03*
X62230000Y-25400000D03*
X60960000Y-27940000D03*
X59690000Y-25400000D03*
X58420000Y-27940000D03*
X57150000Y-25400000D03*
X50800000Y-25400000D03*
X49530000Y-27940000D03*
X48260000Y-25400000D03*
D11*
X37905000Y-38860000D03*
X68775000Y-38860000D03*
D10*
X41910000Y-27940000D03*
X43180000Y-25400000D03*
X44450000Y-27940000D03*
X45720000Y-25400000D03*
X46990000Y-27940000D03*
D11*
X53340000Y-24050000D03*
D10*
X55880000Y-27940000D03*
D13*
X86360000Y-84455000D03*
X86360000Y-89535000D03*
X86360000Y-92075000D03*
X86360000Y-94615000D03*
X86360000Y-97155000D03*
X81280000Y-97155000D03*
X81280000Y-94615000D03*
X81280000Y-92075000D03*
X81280000Y-89535000D03*
D14*
X81280000Y-84455000D03*
D10*
X87630000Y-27940000D03*
D11*
X85090000Y-24050000D03*
D10*
X78740000Y-27940000D03*
X77470000Y-25400000D03*
X76200000Y-27940000D03*
X74930000Y-25400000D03*
X73660000Y-27940000D03*
D11*
X100525000Y-38860000D03*
X69655000Y-38860000D03*
D10*
X80010000Y-25400000D03*
X81280000Y-27940000D03*
X82550000Y-25400000D03*
X88900000Y-25400000D03*
X90170000Y-27940000D03*
X91440000Y-25400000D03*
X92710000Y-27940000D03*
X93980000Y-25400000D03*
X95250000Y-27940000D03*
X96520000Y-25400000D03*
D13*
X31750000Y-107315000D03*
X34290000Y-107315000D03*
X29210000Y-107315000D03*
X31750000Y-84455000D03*
X34290000Y-84455000D03*
X29210000Y-84455000D03*
X52705000Y-107315000D03*
X57785000Y-107315000D03*
X55245000Y-107315000D03*
X52705000Y-84455000D03*
X57785000Y-84455000D03*
X55245000Y-84455000D03*
X83820000Y-102235000D03*
X86360000Y-102235000D03*
X81280000Y-102235000D03*
X81280000Y-79375000D03*
X86360000Y-79375000D03*
X83820000Y-79375000D03*
X36830000Y-97155000D03*
X36830000Y-107315000D03*
X36830000Y-94615000D03*
X36830000Y-84455000D03*
X70485000Y-107315000D03*
X60325000Y-107315000D03*
X60325000Y-84455000D03*
X60325000Y-94615000D03*
X88900000Y-92075000D03*
X88900000Y-102235000D03*
X88900000Y-89535000D03*
X88900000Y-79375000D03*
D18*
X80007194Y-57150000D02*
X80010000Y-57150000D01*
X77722195Y-54865001D02*
X80007194Y-57150000D01*
X81280000Y-24130000D02*
X81280000Y-27940000D01*
D19*
X82931000Y-21408002D02*
X82931000Y-20320000D01*
X81280000Y-24130000D02*
X81280000Y-23059002D01*
X81280000Y-23059002D02*
X82931000Y-21408002D01*
D18*
X74930000Y-53340000D02*
X76455001Y-54865001D01*
X76455001Y-54865001D02*
X77722195Y-54865001D01*
D19*
X80899000Y-20320000D02*
X77470000Y-20320000D01*
D18*
X79754999Y-55624999D02*
X88644999Y-55624999D01*
X77470000Y-53340000D02*
X79754999Y-55624999D01*
X88644999Y-55624999D02*
X90170000Y-57150000D01*
D19*
X59690000Y-19050000D02*
X59690000Y-21150002D01*
X52705000Y-43815000D02*
X41910000Y-43815000D01*
X60195001Y-18544999D02*
X59690000Y-19050000D01*
X63861335Y-22095001D02*
X66814321Y-25047987D01*
X86360000Y-20320000D02*
X84584999Y-18544999D01*
X66814321Y-29705679D02*
X52705000Y-43815000D01*
X66814321Y-25047987D02*
X66814321Y-29705679D01*
X59690000Y-21150002D02*
X60634999Y-22095001D01*
X60634999Y-22095001D02*
X63861335Y-22095001D01*
X84584999Y-18544999D02*
X60195001Y-18544999D01*
X41910000Y-43815000D02*
X28575000Y-57150000D01*
X28575000Y-57150000D02*
X23495000Y-57150000D01*
X52070000Y-41910000D02*
X63500000Y-30480000D01*
X63500000Y-30480000D02*
X63500000Y-27940000D01*
X41275000Y-41910000D02*
X52070000Y-41910000D01*
X31750000Y-51435000D02*
X41275000Y-41910000D01*
X25400000Y-51435000D02*
X31750000Y-51435000D01*
X74675000Y-141971600D02*
X74305000Y-141601600D01*
X74675000Y-144141600D02*
X74675000Y-141971600D01*
D18*
X80010000Y-29845000D02*
X80010000Y-25400000D01*
D19*
X78105000Y-31750000D02*
X80010000Y-29845000D01*
X72390000Y-31750000D02*
X78105000Y-31750000D01*
X68580000Y-27940000D02*
X72390000Y-31750000D01*
X68580000Y-24130000D02*
X68580000Y-27940000D01*
X64770000Y-20320000D02*
X68580000Y-24130000D01*
D18*
X76200000Y-29845000D02*
X76337781Y-29845000D01*
D19*
X72159990Y-28836324D02*
X73168666Y-29845000D01*
X67310000Y-20320000D02*
X72159990Y-25169990D01*
X73168666Y-29845000D02*
X76200000Y-29845000D01*
D18*
X76337781Y-29845000D02*
X77470000Y-28712781D01*
D19*
X72159990Y-25169990D02*
X72159990Y-28836324D01*
D18*
X77470000Y-28712781D02*
X77470000Y-25400000D01*
D19*
X74930000Y-25400000D02*
X69850000Y-20320000D01*
D18*
X78740000Y-24627219D02*
X77538890Y-23426110D01*
D19*
X72390000Y-20320000D02*
X75496110Y-23426110D01*
X75496110Y-23426110D02*
X77538890Y-23426110D01*
D18*
X78740000Y-27940000D02*
X78740000Y-24627219D01*
D19*
X39370000Y-20320000D02*
X42545000Y-20320000D01*
X45720000Y-22860000D02*
X45720000Y-20955000D01*
X45720000Y-20955000D02*
X45085000Y-20320000D01*
X50165000Y-20320000D02*
X52705000Y-20320000D01*
X43180000Y-25400000D02*
X41910000Y-25400000D01*
X41910000Y-25400000D02*
X39370000Y-22860000D01*
X43180000Y-22860000D02*
X45720000Y-25400000D01*
X55245000Y-20320000D02*
X55465001Y-20540001D01*
X55465001Y-20540001D02*
X55465001Y-25070001D01*
X55465001Y-25070001D02*
X54360001Y-26175001D01*
X54360001Y-26175001D02*
X51575001Y-26175001D01*
X51575001Y-26175001D02*
X50800000Y-25400000D01*
X32385000Y-74295000D02*
X32385000Y-76835000D01*
X32385000Y-76835000D02*
X39370000Y-83820000D01*
X39370000Y-108585000D02*
X46355000Y-115570000D01*
X39370000Y-83820000D02*
X39370000Y-108585000D01*
D18*
X38754990Y-73044990D02*
X38754990Y-76180010D01*
X37465000Y-71755000D02*
X38754990Y-73044990D01*
X50165000Y-118110000D02*
X50165000Y-113665000D01*
D19*
X50295009Y-113534991D02*
X50165000Y-113665000D01*
X38754990Y-76180010D02*
X38754990Y-76854990D01*
X50295009Y-110620009D02*
X50295009Y-113534991D01*
X45720000Y-83820000D02*
X45720000Y-106045000D01*
X38754990Y-76854990D02*
X45720000Y-83820000D01*
X45720000Y-106045000D02*
X50295009Y-110620009D01*
X58572400Y-141748600D02*
X58419400Y-141595600D01*
X58572400Y-145135600D02*
X58572400Y-141748600D01*
X63652400Y-141748600D02*
X63499400Y-141595600D01*
X63652400Y-145135600D02*
X63652400Y-141748600D01*
X61112400Y-141748600D02*
X60959400Y-141595600D01*
X61112400Y-145135600D02*
X61112400Y-141748600D01*
X72875000Y-142711600D02*
X71765000Y-141601600D01*
X72875000Y-144141600D02*
X72875000Y-142711600D01*
X76475000Y-141971600D02*
X76845000Y-141601600D01*
X76475000Y-144141600D02*
X76475000Y-141971600D01*
X78275000Y-142711600D02*
X79385000Y-141601600D01*
X78275000Y-144141600D02*
X78275000Y-142711600D01*
X47625000Y-141605000D02*
X25400000Y-141605000D01*
X25400000Y-144145000D02*
X47625000Y-144145000D01*
X47625000Y-146685000D02*
X25400000Y-146685000D01*
X25400000Y-149225000D02*
X47625000Y-149225000D01*
X47625000Y-151765000D02*
X25400000Y-151765000D01*
X25400000Y-154305000D02*
X47625000Y-154305000D01*
X47625000Y-156845000D02*
X25400000Y-156845000D01*
D20*
X88900000Y-25400000D02*
X88900000Y-26670000D01*
X88900000Y-26670000D02*
X87630000Y-27940000D01*
X88900000Y-25400000D02*
X91440000Y-25400000D01*
X90170000Y-27940000D02*
X90170000Y-26670000D01*
X90170000Y-26670000D02*
X91440000Y-25400000D01*
X87630000Y-27940000D02*
X90170000Y-27940000D01*
X87630000Y-27940000D02*
X87630000Y-31750000D01*
X107315000Y-51435000D02*
X107315000Y-58765000D01*
X87630000Y-31750000D02*
X107315000Y-51435000D01*
X107315000Y-58765000D02*
X107315000Y-60670000D01*
D19*
X20320000Y-34290000D02*
X36902998Y-34290000D01*
X39427999Y-36815001D02*
X52084999Y-36815001D01*
X36902998Y-34290000D02*
X39427999Y-36815001D01*
X52084999Y-36815001D02*
X60960000Y-27940000D01*
D18*
X62230000Y-28712781D02*
X61028890Y-29913890D01*
D19*
X24475001Y-40985001D02*
X40220086Y-40985001D01*
X52727769Y-38215011D02*
X61028890Y-29913890D01*
X20320000Y-36830000D02*
X24475001Y-40985001D01*
X40220086Y-40985001D02*
X42990076Y-38215011D01*
X42990076Y-38215011D02*
X52727769Y-38215011D01*
D18*
X62230000Y-25400000D02*
X62230000Y-28712781D01*
X56417999Y-55624999D02*
X54892998Y-57150000D01*
X54892998Y-57150000D02*
X54610000Y-57150000D01*
X58302204Y-54724990D02*
X57402195Y-55624999D01*
X60845011Y-54724989D02*
X58302204Y-54724990D01*
X57402195Y-55624999D02*
X56417999Y-55624999D01*
X62230000Y-53340000D02*
X60845011Y-54724989D01*
X64770000Y-53340000D02*
X64770000Y-54577436D01*
X64770000Y-54577436D02*
X63722437Y-55624999D01*
X63722437Y-55624999D02*
X58675001Y-55624999D01*
X58675001Y-55624999D02*
X57150000Y-57150000D01*
X68835001Y-54865001D02*
X70102195Y-54865001D01*
X70102195Y-54865001D02*
X72387194Y-57150000D01*
X72387194Y-57150000D02*
X72390000Y-57150000D01*
X67310000Y-53340000D02*
X68835001Y-54865001D01*
X71375001Y-54865001D02*
X72642195Y-54865001D01*
X74927194Y-57150000D02*
X74930000Y-57150000D01*
X72642195Y-54865001D02*
X74927194Y-57150000D01*
X69850000Y-53340000D02*
X71375001Y-54865001D01*
X73915001Y-54865001D02*
X75182195Y-54865001D01*
X75182195Y-54865001D02*
X77467194Y-57150000D01*
X77467194Y-57150000D02*
X77470000Y-57150000D01*
X72390000Y-53340000D02*
X73915001Y-54865001D01*
D19*
X41910000Y-27940000D02*
X39715000Y-27940000D01*
X39715000Y-27940000D02*
X34925000Y-23150000D01*
D18*
X38355010Y-29465010D02*
X38100000Y-29210000D01*
D19*
X29845000Y-23150000D02*
X32040000Y-23150000D01*
X32040000Y-23150000D02*
X38100000Y-29210000D01*
D18*
X42924990Y-29465010D02*
X38355010Y-29465010D01*
X44450000Y-27940000D02*
X42924990Y-29465010D01*
X34803017Y-30365019D02*
X34286499Y-29848501D01*
D19*
X24765000Y-23150000D02*
X31463501Y-29848501D01*
X31463501Y-29848501D02*
X34286499Y-29848501D01*
D18*
X46990000Y-27940000D02*
X44564981Y-30365019D01*
X44564981Y-30365019D02*
X34803017Y-30365019D01*
D19*
X49530000Y-27940000D02*
X45954971Y-31515029D01*
X30967031Y-31515029D02*
X24377003Y-24925001D01*
X21460001Y-24925001D02*
X19685000Y-23150000D01*
X45954971Y-31515029D02*
X30967031Y-31515029D01*
X24377003Y-24925001D02*
X21460001Y-24925001D01*
D18*
X34925000Y-72252219D02*
X36195000Y-73522219D01*
X34925000Y-71755000D02*
X34925000Y-72252219D01*
X36195000Y-73522219D02*
X36195000Y-76200000D01*
D19*
X36195000Y-76200000D02*
X36195000Y-76592622D01*
X36195000Y-76592622D02*
X43815000Y-84212622D01*
X43815000Y-84212622D02*
X43815000Y-105410000D01*
X43815000Y-105410000D02*
X43815000Y-107315000D01*
X43815000Y-107315000D02*
X48895000Y-112395000D01*
D18*
X48895000Y-115570000D02*
X48895000Y-112395000D01*
X32385000Y-72252219D02*
X33655000Y-73522219D01*
X32385000Y-71755000D02*
X32385000Y-72252219D01*
X33655000Y-73522219D02*
X33655000Y-76200000D01*
X47625000Y-118110000D02*
X47625000Y-113665000D01*
D19*
X47625000Y-113665000D02*
X41910000Y-107950000D01*
X41910000Y-84287534D02*
X33785010Y-76162544D01*
X41910000Y-107950000D02*
X41910000Y-84287534D01*
D20*
X94960000Y-101600000D02*
X94960000Y-110145000D01*
X94960000Y-110145000D02*
X83820000Y-121285000D01*
X83820000Y-121285000D02*
X75565000Y-121285000D01*
X74295000Y-120015000D02*
X74295000Y-118110000D01*
X75565000Y-121285000D02*
X74295000Y-120015000D01*
D18*
X82550000Y-25400000D02*
X82550000Y-23814998D01*
X82550000Y-23814998D02*
X84519997Y-21845001D01*
X84519997Y-21845001D02*
X87755001Y-21845001D01*
X87755001Y-21845001D02*
X88900000Y-20700002D01*
X88900000Y-20700002D02*
X88900000Y-20320000D01*
D19*
X90675001Y-78522999D02*
X88352002Y-76200000D01*
X88900000Y-92075000D02*
X90675001Y-90299999D01*
X90675001Y-90299999D02*
X90675001Y-78522999D01*
X74925010Y-73507991D02*
X73172019Y-71755000D01*
X73172019Y-71755000D02*
X73025000Y-71755000D01*
X74925010Y-74290010D02*
X74925010Y-73507991D01*
X76835000Y-76200000D02*
X74925010Y-74290010D01*
X88352002Y-76200000D02*
X76835000Y-76200000D01*
D20*
X34290000Y-102235000D02*
X34290000Y-104775000D01*
X31750000Y-100932436D02*
X31750000Y-92075000D01*
X31750000Y-92075000D02*
X34290000Y-89535000D01*
X34290000Y-102235000D02*
X33052564Y-102235000D01*
X33052564Y-102235000D02*
X31750000Y-100932436D01*
X34290000Y-89535000D02*
X34290000Y-86995000D01*
X86360000Y-81915000D02*
X86360000Y-84455000D01*
X86360000Y-99695000D02*
X86360000Y-97155000D01*
X83820000Y-86995000D02*
X86360000Y-84455000D01*
X83820000Y-95852436D02*
X83820000Y-86995000D01*
X86360000Y-97155000D02*
X85122564Y-97155000D01*
X85122564Y-97155000D02*
X83820000Y-95852436D01*
X79549998Y-86995000D02*
X83820000Y-86995000D01*
X73025000Y-80470002D02*
X79549998Y-86995000D01*
X73025000Y-74295000D02*
X73025000Y-80470002D01*
X57785000Y-86995000D02*
X57785000Y-89535000D01*
X57785000Y-102235000D02*
X57785000Y-104775000D01*
X66500002Y-86995000D02*
X73025000Y-80470002D01*
X57785000Y-86995000D02*
X66500002Y-86995000D01*
X26960000Y-99695000D02*
X29210000Y-99695000D01*
X23150000Y-95885000D02*
X26960000Y-99695000D01*
X32385000Y-115570000D02*
X29845000Y-115570000D01*
X29845000Y-116840000D02*
X28575000Y-118110000D01*
X29845000Y-115570000D02*
X29845000Y-116840000D01*
X28575000Y-118110000D02*
X31115000Y-118110000D01*
X31115000Y-116840000D02*
X32385000Y-115570000D01*
X31115000Y-118110000D02*
X31115000Y-116840000D01*
X26035000Y-100620000D02*
X26960000Y-99695000D01*
X29845000Y-115570000D02*
X26035000Y-111760000D01*
X26035000Y-111760000D02*
X26035000Y-100620000D01*
X28382998Y-97155000D02*
X29210000Y-97155000D01*
X25425001Y-94197003D02*
X28382998Y-97155000D01*
X25425001Y-88000001D02*
X25425001Y-94197003D01*
X23150000Y-85725000D02*
X25425001Y-88000001D01*
X36830000Y-108142002D02*
X36830000Y-107315000D01*
X35382001Y-109590001D02*
X36830000Y-108142002D01*
X32787565Y-109590001D02*
X35382001Y-109590001D01*
X31750000Y-108552436D02*
X32787565Y-109590001D01*
X31750000Y-107315000D02*
X31750000Y-108552436D01*
X29210000Y-107315000D02*
X29210000Y-104775000D01*
X29210000Y-104775000D02*
X29210000Y-102235000D01*
X29210000Y-84455000D02*
X29210000Y-86995000D01*
X29210000Y-86995000D02*
X29210000Y-89535000D01*
X52705000Y-107315000D02*
X52705000Y-104775000D01*
X52705000Y-104775000D02*
X52705000Y-102235000D01*
X59287435Y-109590001D02*
X60325000Y-108552436D01*
X60325000Y-108552436D02*
X60325000Y-107315000D01*
X56692999Y-109590001D02*
X59287435Y-109590001D01*
X55245000Y-108142002D02*
X56692999Y-109590001D01*
X55245000Y-107315000D02*
X55245000Y-108142002D01*
X52705000Y-84455000D02*
X52705000Y-86995000D01*
X52705000Y-86995000D02*
X52705000Y-89535000D01*
X88900000Y-103062002D02*
X88900000Y-102235000D01*
X84857565Y-104510001D02*
X87452001Y-104510001D01*
X87452001Y-104510001D02*
X88900000Y-103062002D01*
X83820000Y-103472436D02*
X84857565Y-104510001D01*
X83820000Y-102235000D02*
X83820000Y-103472436D01*
X81280000Y-102235000D02*
X81280000Y-99695000D01*
X81280000Y-99695000D02*
X81280000Y-97155000D01*
X81280000Y-84455000D02*
X81280000Y-81915000D01*
X81280000Y-81915000D02*
X81280000Y-79375000D01*
M02*
