%FSLAX45Y45*%
G04 Gerber Fmt 4.5, Leading zero omitted, Abs format (unit mm)*
G04 Created by KiCad (PCBNEW 4.0.2+dfsg1-stable) date ti  8. elokuuta 2017 15.34.54*
%MOMM*%
G01*
G04 APERTURE LIST*
%ADD10C,0.127000*%
%ADD11C,0.150000*%
%ADD12C,0.200000*%
%ADD13C,0.300000*%
G04 APERTURE END LIST*
D10*
D11*
X13271500Y-14160500D02*
X12954000Y-14160500D01*
X16573500Y-14160500D02*
X16573500Y-14287500D01*
X16319500Y-14160500D02*
X16573500Y-14160500D01*
X16319500Y-14287500D02*
X16319500Y-14160500D01*
X15430500Y-14160500D02*
X15430500Y-14287500D01*
X15176500Y-14160500D02*
X15430500Y-14160500D01*
X15176500Y-14287500D02*
X15176500Y-14160500D01*
X14414500Y-14224000D02*
X14414500Y-14287500D01*
X14414500Y-14160500D02*
X14414500Y-14224000D01*
X14160500Y-14160500D02*
X14414500Y-14160500D01*
X14160500Y-14287500D02*
X14160500Y-14160500D01*
X13271500Y-14160500D02*
X13271500Y-14287500D01*
X12954000Y-14287500D02*
X12954000Y-14160500D01*
X12446000Y-14160500D02*
X12446000Y-14287500D01*
X12192000Y-14160500D02*
X12446000Y-14160500D01*
X12192000Y-14287500D02*
X12192000Y-14160500D01*
X11430000Y-13970000D02*
X11303000Y-13970000D01*
X11430000Y-13716000D02*
X11430000Y-13970000D01*
X11303000Y-13716000D02*
X11430000Y-13716000D01*
X11493500Y-16192500D02*
X11430000Y-16192500D01*
X11493500Y-15938500D02*
X11493500Y-16192500D01*
X11430000Y-15938500D02*
X11493500Y-15938500D01*
X11493500Y-16446500D02*
X11430000Y-16446500D01*
X11493500Y-16510000D02*
X11493500Y-16446500D01*
X11493500Y-15684500D02*
X11493500Y-14732000D01*
X11430000Y-15684500D02*
X11493500Y-15684500D01*
X10922000Y-15303500D02*
X10922000Y-15430500D01*
X10668000Y-15430500D02*
X10668000Y-15303500D01*
X17272000Y-14287500D02*
X16764000Y-14287500D01*
X17272000Y-14287500D02*
X17399000Y-14414500D01*
X17399000Y-16573500D02*
X17399000Y-14414500D01*
X17272000Y-16700500D02*
X17399000Y-16573500D01*
X11620500Y-16700500D02*
X17272000Y-16700500D01*
X11493500Y-16510000D02*
X11493500Y-16573500D01*
X11493500Y-16573500D02*
X11620500Y-16700500D01*
X14414500Y-14287500D02*
X15176500Y-14287500D01*
X13271500Y-14287500D02*
X14160500Y-14287500D01*
X15430500Y-14287500D02*
X16319500Y-14287500D01*
X12446000Y-14287500D02*
X12954000Y-14287500D01*
X11493500Y-14732000D02*
X11430000Y-14732000D01*
X11620500Y-14287500D02*
X12192000Y-14287500D01*
X11493500Y-14414500D02*
X11620500Y-14287500D01*
X11493500Y-14478000D02*
X11493500Y-14414500D01*
X11430000Y-14478000D02*
X11493500Y-14478000D01*
X11303000Y-16446500D02*
X11430000Y-16446500D01*
X11303000Y-16446500D02*
X11303000Y-16573500D01*
X11303000Y-16192500D02*
X11303000Y-15938500D01*
X11430000Y-16192500D02*
X11303000Y-16192500D01*
X11303000Y-15938500D02*
X11430000Y-15938500D01*
X11303000Y-15684500D02*
X11430000Y-15684500D01*
X11176000Y-15557500D02*
X11049000Y-15557500D01*
X11176000Y-15557500D02*
X11303000Y-15684500D01*
X11303000Y-15240000D02*
X11303000Y-14732000D01*
X11303000Y-14732000D02*
X11430000Y-14732000D01*
X11303000Y-14097000D02*
X11303000Y-13970000D01*
X11430000Y-14478000D02*
X11303000Y-14478000D01*
X11303000Y-14097000D02*
X11303000Y-14478000D01*
X10541000Y-16065500D02*
X10414000Y-16065500D01*
X10541000Y-15811500D02*
X10541000Y-16065500D01*
X10414000Y-15811500D02*
X10541000Y-15811500D01*
X10414000Y-16065500D02*
X10414000Y-15811500D01*
X10922000Y-15430500D02*
X11049000Y-15430500D01*
X10668000Y-15303500D02*
X10414000Y-15303500D01*
X10541000Y-15430500D02*
X10668000Y-15430500D01*
X10541000Y-15557500D02*
X10541000Y-15430500D01*
X10414000Y-15557500D02*
X10541000Y-15557500D01*
X10414000Y-16319500D02*
X10541000Y-16319500D01*
X11049000Y-15430500D02*
X11049000Y-15557500D01*
X10541000Y-16700500D02*
X10541000Y-16319500D01*
X11049000Y-16573500D02*
X11303000Y-16573500D01*
X10922000Y-16700500D02*
X11049000Y-16573500D01*
X10541000Y-16700500D02*
X10922000Y-16700500D01*
X10414000Y-16446500D02*
X10414000Y-16319500D01*
X10287000Y-16446500D02*
X10414000Y-16446500D01*
X10414000Y-15430500D02*
X10414000Y-15557500D01*
X10287000Y-15430500D02*
X10414000Y-15430500D01*
X9715500Y-16446500D02*
X10287000Y-16446500D01*
X9588500Y-16319500D02*
X9715500Y-16446500D01*
X9588500Y-15557500D02*
X9588500Y-16319500D01*
X9715500Y-15430500D02*
X9588500Y-15557500D01*
X10287000Y-15430500D02*
X9715500Y-15430500D01*
X10985500Y-15240000D02*
X11303000Y-15240000D01*
X10922000Y-15303500D02*
X10985500Y-15240000D01*
X10223500Y-15113000D02*
X10414000Y-15303500D01*
X10223500Y-14859000D02*
X10223500Y-15113000D01*
X10223500Y-14732000D02*
X10223500Y-14859000D01*
X10096500Y-14732000D02*
X10223500Y-14732000D01*
X9969500Y-14605000D02*
X10096500Y-14732000D01*
X9969500Y-13462000D02*
X9969500Y-14605000D01*
X10287000Y-13462000D02*
X9969500Y-13462000D01*
X10287000Y-13335000D02*
X10287000Y-13462000D01*
X10414000Y-13208000D02*
X10287000Y-13335000D01*
X11049000Y-13208000D02*
X10414000Y-13208000D01*
X11176000Y-13208000D02*
X11049000Y-13208000D01*
X11303000Y-13335000D02*
X11176000Y-13208000D01*
X11303000Y-13716000D02*
X11303000Y-13335000D01*
X16764000Y-14287500D02*
X16573500Y-14287500D01*
D12*
X9792239Y-15640776D02*
X9882239Y-15730776D01*
X9882239Y-15640776D02*
X9792239Y-15730776D01*
X9792239Y-15894776D02*
X9882239Y-15984776D01*
X9882239Y-15894776D02*
X9792239Y-15984776D01*
X9792239Y-16148776D02*
X9882239Y-16238776D01*
X9882239Y-16148776D02*
X9792239Y-16238776D01*
X10109740Y-15640776D02*
X10199740Y-15730776D01*
X10199740Y-15640776D02*
X10109740Y-15730776D01*
X10109740Y-15894776D02*
X10199740Y-15984776D01*
X10199740Y-15894776D02*
X10109740Y-15984776D01*
X10109740Y-16148776D02*
X10199740Y-16238776D01*
X10199740Y-16148776D02*
X10109740Y-16238776D01*
X10178500Y-13671000D02*
X10268500Y-13761000D01*
X10268500Y-13671000D02*
X10178500Y-13761000D01*
X10178500Y-13925000D02*
X10268500Y-14015000D01*
X10268500Y-13925000D02*
X10178500Y-14015000D01*
X10178500Y-14179000D02*
X10268500Y-14269000D01*
X10268500Y-14179000D02*
X10178500Y-14269000D01*
X10178500Y-14433000D02*
X10268500Y-14523000D01*
X10268500Y-14433000D02*
X10178500Y-14523000D01*
X10494405Y-13667148D02*
X10584405Y-13757148D01*
X10584405Y-13667148D02*
X10494405Y-13757148D01*
X10494405Y-13921148D02*
X10584405Y-14011148D01*
X10584405Y-13921148D02*
X10494405Y-14011148D01*
X10494405Y-14175148D02*
X10584405Y-14265148D01*
X10584405Y-14175148D02*
X10494405Y-14265148D01*
X10494405Y-14683148D02*
X10584405Y-14773148D01*
X10584405Y-14683148D02*
X10494405Y-14773148D01*
X10494405Y-14937148D02*
X10584405Y-15027148D01*
X10584405Y-14937148D02*
X10494405Y-15027148D01*
X10742957Y-15637066D02*
X10832957Y-15727066D01*
X10832957Y-15637066D02*
X10742957Y-15727066D01*
X10742957Y-15891066D02*
X10832957Y-15981066D01*
X10832957Y-15891066D02*
X10742957Y-15981066D01*
X10742957Y-16145066D02*
X10832957Y-16235066D01*
X10832957Y-16145066D02*
X10742957Y-16235066D01*
X10742957Y-16399066D02*
X10832957Y-16489066D01*
X10832957Y-16399066D02*
X10742957Y-16489066D01*
X10996957Y-15748066D02*
X11086957Y-15838066D01*
X11086957Y-15748066D02*
X10996957Y-15838066D01*
X10996957Y-15928066D02*
X11086957Y-16018066D01*
X11086957Y-15928066D02*
X10996957Y-16018066D01*
X10996957Y-16108066D02*
X11086957Y-16198066D01*
X11086957Y-16108066D02*
X10996957Y-16198066D01*
X10996957Y-16288066D02*
X11086957Y-16378066D01*
X11086957Y-16288066D02*
X10996957Y-16378066D01*
X11002405Y-13667148D02*
X11092405Y-13757148D01*
X11092405Y-13667148D02*
X11002405Y-13757148D01*
X11002405Y-13921148D02*
X11092405Y-14011148D01*
X11092405Y-13921148D02*
X11002405Y-14011148D01*
X11002405Y-14175148D02*
X11092405Y-14265148D01*
X11092405Y-14175148D02*
X11002405Y-14265148D01*
X11002405Y-14683148D02*
X11092405Y-14773148D01*
X11092405Y-14683148D02*
X11002405Y-14773148D01*
X11002405Y-14937148D02*
X11092405Y-15027148D01*
X11092405Y-14937148D02*
X11002405Y-15027148D01*
X11766000Y-14560000D02*
X11856000Y-14650000D01*
X11856000Y-14560000D02*
X11766000Y-14650000D01*
X11766000Y-14941000D02*
X11856000Y-15031000D01*
X11856000Y-14941000D02*
X11766000Y-15031000D01*
X11766000Y-15957000D02*
X11856000Y-16047000D01*
X11856000Y-15957000D02*
X11766000Y-16047000D01*
X11766000Y-16338000D02*
X11856000Y-16428000D01*
X11856000Y-16338000D02*
X11766000Y-16428000D01*
X12020000Y-14560000D02*
X12110000Y-14650000D01*
X12110000Y-14560000D02*
X12020000Y-14650000D01*
X12020000Y-14941000D02*
X12110000Y-15031000D01*
X12110000Y-14941000D02*
X12020000Y-15031000D01*
X12020000Y-15957000D02*
X12110000Y-16047000D01*
X12110000Y-15957000D02*
X12020000Y-16047000D01*
X12020000Y-16338000D02*
X12110000Y-16428000D01*
X12110000Y-16338000D02*
X12020000Y-16428000D01*
X12274000Y-14560000D02*
X12364000Y-14650000D01*
X12364000Y-14560000D02*
X12274000Y-14650000D01*
X12274000Y-14941000D02*
X12364000Y-15031000D01*
X12364000Y-14941000D02*
X12274000Y-15031000D01*
X12274000Y-15957000D02*
X12364000Y-16047000D01*
X12364000Y-15957000D02*
X12274000Y-16047000D01*
X12274000Y-16338000D02*
X12364000Y-16428000D01*
X12364000Y-16338000D02*
X12274000Y-16428000D01*
X12528000Y-14560000D02*
X12618000Y-14650000D01*
X12618000Y-14560000D02*
X12528000Y-14650000D01*
X12528000Y-16338000D02*
X12618000Y-16428000D01*
X12618000Y-16338000D02*
X12528000Y-16428000D01*
X12782000Y-16338000D02*
X12872000Y-16428000D01*
X12872000Y-16338000D02*
X12782000Y-16428000D01*
X12845500Y-14560000D02*
X12935500Y-14650000D01*
X12935500Y-14560000D02*
X12845500Y-14650000D01*
X13036000Y-16338000D02*
X13126000Y-16428000D01*
X13126000Y-16338000D02*
X13036000Y-16428000D01*
X13099500Y-14560000D02*
X13189500Y-14650000D01*
X13189500Y-14560000D02*
X13099500Y-14650000D01*
X13163000Y-15449000D02*
X13253000Y-15539000D01*
X13253000Y-15449000D02*
X13163000Y-15539000D01*
X13290000Y-16338000D02*
X13380000Y-16428000D01*
X13380000Y-16338000D02*
X13290000Y-16428000D01*
X13353500Y-14560000D02*
X13443500Y-14650000D01*
X13443500Y-14560000D02*
X13353500Y-14650000D01*
X13544000Y-16338000D02*
X13634000Y-16428000D01*
X13634000Y-16338000D02*
X13544000Y-16428000D01*
X13607500Y-14560000D02*
X13697500Y-14650000D01*
X13697500Y-14560000D02*
X13607500Y-14650000D01*
X13861500Y-14560000D02*
X13951500Y-14650000D01*
X13951500Y-14560000D02*
X13861500Y-14650000D01*
X13861500Y-16338000D02*
X13951500Y-16428000D01*
X13951500Y-16338000D02*
X13861500Y-16428000D01*
X13925000Y-15449000D02*
X14015000Y-15539000D01*
X14015000Y-15449000D02*
X13925000Y-15539000D01*
X14115500Y-14560000D02*
X14205500Y-14650000D01*
X14205500Y-14560000D02*
X14115500Y-14650000D01*
X14115500Y-16338000D02*
X14205500Y-16428000D01*
X14205500Y-16338000D02*
X14115500Y-16428000D01*
X14306000Y-15893500D02*
X14396000Y-15983500D01*
X14396000Y-15893500D02*
X14306000Y-15983500D01*
X14369500Y-14560000D02*
X14459500Y-14650000D01*
X14459500Y-14560000D02*
X14369500Y-14650000D01*
X14369500Y-15512500D02*
X14459500Y-15602500D01*
X14459500Y-15512500D02*
X14369500Y-15602500D01*
X14369500Y-16338000D02*
X14459500Y-16428000D01*
X14459500Y-16338000D02*
X14369500Y-16428000D01*
X14382200Y-14966400D02*
X14472200Y-15056400D01*
X14472200Y-14966400D02*
X14382200Y-15056400D01*
X14585400Y-14966400D02*
X14675400Y-15056400D01*
X14675400Y-14966400D02*
X14585400Y-15056400D01*
X14623500Y-15512500D02*
X14713500Y-15602500D01*
X14713500Y-15512500D02*
X14623500Y-15602500D01*
X14623500Y-16338000D02*
X14713500Y-16428000D01*
X14713500Y-16338000D02*
X14623500Y-16428000D01*
X14687000Y-14560000D02*
X14777000Y-14650000D01*
X14777000Y-14560000D02*
X14687000Y-14650000D01*
X14877500Y-15512500D02*
X14967500Y-15602500D01*
X14967500Y-15512500D02*
X14877500Y-15602500D01*
X14877500Y-16338000D02*
X14967500Y-16428000D01*
X14967500Y-16338000D02*
X14877500Y-16428000D01*
X14941000Y-14560000D02*
X15031000Y-14650000D01*
X15031000Y-14560000D02*
X14941000Y-14650000D01*
X15131500Y-16338000D02*
X15221500Y-16428000D01*
X15221500Y-16338000D02*
X15131500Y-16428000D01*
X15195000Y-14560000D02*
X15285000Y-14650000D01*
X15285000Y-14560000D02*
X15195000Y-14650000D01*
X15258500Y-14877500D02*
X15348500Y-14967500D01*
X15348500Y-14877500D02*
X15258500Y-14967500D01*
X15258500Y-15385500D02*
X15348500Y-15475500D01*
X15348500Y-15385500D02*
X15258500Y-15475500D01*
X15322000Y-15893500D02*
X15412000Y-15983500D01*
X15412000Y-15893500D02*
X15322000Y-15983500D01*
X15385500Y-16338000D02*
X15475500Y-16428000D01*
X15475500Y-16338000D02*
X15385500Y-16428000D01*
X15512500Y-14877500D02*
X15602500Y-14967500D01*
X15602500Y-14877500D02*
X15512500Y-14967500D01*
X15512500Y-15385500D02*
X15602500Y-15475500D01*
X15602500Y-15385500D02*
X15512500Y-15475500D01*
X15766500Y-15893500D02*
X15856500Y-15983500D01*
X15856500Y-15893500D02*
X15766500Y-15983500D01*
X16020500Y-14877500D02*
X16110500Y-14967500D01*
X16110500Y-14877500D02*
X16020500Y-14967500D01*
X16020500Y-15385500D02*
X16110500Y-15475500D01*
X16110500Y-15385500D02*
X16020500Y-15475500D01*
X16020500Y-15893500D02*
X16110500Y-15983500D01*
X16110500Y-15893500D02*
X16020500Y-15983500D01*
X16274500Y-14877500D02*
X16364500Y-14967500D01*
X16364500Y-14877500D02*
X16274500Y-14967500D01*
X16274500Y-15385500D02*
X16364500Y-15475500D01*
X16364500Y-15385500D02*
X16274500Y-15475500D01*
X16274500Y-15893500D02*
X16364500Y-15983500D01*
X16364500Y-15893500D02*
X16274500Y-15983500D01*
X16528500Y-14877500D02*
X16618500Y-14967500D01*
X16618500Y-14877500D02*
X16528500Y-14967500D01*
X16528500Y-15385500D02*
X16618500Y-15475500D01*
X16618500Y-15385500D02*
X16528500Y-15475500D01*
X16528500Y-15893500D02*
X16618500Y-15983500D01*
X16618500Y-15893500D02*
X16528500Y-15983500D01*
X16782500Y-14877500D02*
X16872500Y-14967500D01*
X16872500Y-14877500D02*
X16782500Y-14967500D01*
X16782500Y-15385500D02*
X16872500Y-15475500D01*
X16872500Y-15385500D02*
X16782500Y-15475500D01*
X17036500Y-14877500D02*
X17126500Y-14967500D01*
X17126500Y-14877500D02*
X17036500Y-14967500D01*
X17036500Y-15385500D02*
X17126500Y-15475500D01*
X17126500Y-15385500D02*
X17036500Y-15475500D01*
D13*
X9852429Y-17173714D02*
X9852429Y-16873714D01*
X9923857Y-16873714D01*
X9966714Y-16888000D01*
X9995286Y-16916572D01*
X10009571Y-16945143D01*
X10023857Y-17002286D01*
X10023857Y-17045143D01*
X10009571Y-17102286D01*
X9995286Y-17130857D01*
X9966714Y-17159429D01*
X9923857Y-17173714D01*
X9852429Y-17173714D01*
X10152429Y-17173714D02*
X10152429Y-16973714D01*
X10152429Y-17030857D02*
X10166714Y-17002286D01*
X10181000Y-16988000D01*
X10209571Y-16973714D01*
X10238143Y-16973714D01*
X10338143Y-17173714D02*
X10338143Y-16973714D01*
X10338143Y-16873714D02*
X10323857Y-16888000D01*
X10338143Y-16902286D01*
X10352429Y-16888000D01*
X10338143Y-16873714D01*
X10338143Y-16902286D01*
X10523857Y-17173714D02*
X10495286Y-17159429D01*
X10481000Y-17130857D01*
X10481000Y-16873714D01*
X10681000Y-17173714D02*
X10652429Y-17159429D01*
X10638143Y-17130857D01*
X10638143Y-16873714D01*
X11023857Y-17173714D02*
X11023857Y-16873714D01*
X11123857Y-17088000D01*
X11223857Y-16873714D01*
X11223857Y-17173714D01*
X11495286Y-17173714D02*
X11495286Y-17016572D01*
X11481000Y-16988000D01*
X11452428Y-16973714D01*
X11395286Y-16973714D01*
X11366714Y-16988000D01*
X11495286Y-17159429D02*
X11466714Y-17173714D01*
X11395286Y-17173714D01*
X11366714Y-17159429D01*
X11352428Y-17130857D01*
X11352428Y-17102286D01*
X11366714Y-17073714D01*
X11395286Y-17059429D01*
X11466714Y-17059429D01*
X11495286Y-17045143D01*
X11638143Y-16973714D02*
X11638143Y-17273714D01*
X11638143Y-16988000D02*
X11666714Y-16973714D01*
X11723857Y-16973714D01*
X11752428Y-16988000D01*
X11766714Y-17002286D01*
X11781000Y-17030857D01*
X11781000Y-17116572D01*
X11766714Y-17145143D01*
X11752428Y-17159429D01*
X11723857Y-17173714D01*
X11666714Y-17173714D01*
X11638143Y-17159429D01*
X11909571Y-17145143D02*
X11923857Y-17159429D01*
X11909571Y-17173714D01*
X11895286Y-17159429D01*
X11909571Y-17145143D01*
X11909571Y-17173714D01*
X11909571Y-16988000D02*
X11923857Y-17002286D01*
X11909571Y-17016572D01*
X11895286Y-17002286D01*
X11909571Y-16988000D01*
X11909571Y-17016572D01*
X9491000Y-17623000D02*
X9581000Y-17713000D01*
X9581000Y-17623000D02*
X9491000Y-17713000D01*
X9909571Y-17503714D02*
X9938143Y-17503714D01*
X9966714Y-17518000D01*
X9981000Y-17532286D01*
X9995286Y-17560857D01*
X10009571Y-17618000D01*
X10009571Y-17689429D01*
X9995286Y-17746572D01*
X9981000Y-17775143D01*
X9966714Y-17789429D01*
X9938143Y-17803714D01*
X9909571Y-17803714D01*
X9881000Y-17789429D01*
X9866714Y-17775143D01*
X9852429Y-17746572D01*
X9838143Y-17689429D01*
X9838143Y-17618000D01*
X9852429Y-17560857D01*
X9866714Y-17532286D01*
X9881000Y-17518000D01*
X9909571Y-17503714D01*
X10138143Y-17775143D02*
X10152429Y-17789429D01*
X10138143Y-17803714D01*
X10123857Y-17789429D01*
X10138143Y-17775143D01*
X10138143Y-17803714D01*
X10295286Y-17803714D02*
X10352428Y-17803714D01*
X10381000Y-17789429D01*
X10395286Y-17775143D01*
X10423857Y-17732286D01*
X10438143Y-17675143D01*
X10438143Y-17560857D01*
X10423857Y-17532286D01*
X10409571Y-17518000D01*
X10381000Y-17503714D01*
X10323857Y-17503714D01*
X10295286Y-17518000D01*
X10281000Y-17532286D01*
X10266714Y-17560857D01*
X10266714Y-17632286D01*
X10281000Y-17660857D01*
X10295286Y-17675143D01*
X10323857Y-17689429D01*
X10381000Y-17689429D01*
X10409571Y-17675143D01*
X10423857Y-17660857D01*
X10438143Y-17632286D01*
X10623857Y-17503714D02*
X10652429Y-17503714D01*
X10681000Y-17518000D01*
X10695286Y-17532286D01*
X10709571Y-17560857D01*
X10723857Y-17618000D01*
X10723857Y-17689429D01*
X10709571Y-17746572D01*
X10695286Y-17775143D01*
X10681000Y-17789429D01*
X10652429Y-17803714D01*
X10623857Y-17803714D01*
X10595286Y-17789429D01*
X10581000Y-17775143D01*
X10566714Y-17746572D01*
X10552429Y-17689429D01*
X10552429Y-17618000D01*
X10566714Y-17560857D01*
X10581000Y-17532286D01*
X10595286Y-17518000D01*
X10623857Y-17503714D01*
X10852429Y-17803714D02*
X10852429Y-17603714D01*
X10852429Y-17632286D02*
X10866714Y-17618000D01*
X10895286Y-17603714D01*
X10938143Y-17603714D01*
X10966714Y-17618000D01*
X10981000Y-17646572D01*
X10981000Y-17803714D01*
X10981000Y-17646572D02*
X10995286Y-17618000D01*
X11023857Y-17603714D01*
X11066714Y-17603714D01*
X11095286Y-17618000D01*
X11109571Y-17646572D01*
X11109571Y-17803714D01*
X11252428Y-17803714D02*
X11252428Y-17603714D01*
X11252428Y-17632286D02*
X11266714Y-17618000D01*
X11295286Y-17603714D01*
X11338143Y-17603714D01*
X11366714Y-17618000D01*
X11381000Y-17646572D01*
X11381000Y-17803714D01*
X11381000Y-17646572D02*
X11395286Y-17618000D01*
X11423857Y-17603714D01*
X11466714Y-17603714D01*
X11495286Y-17618000D01*
X11509571Y-17646572D01*
X11509571Y-17803714D01*
X12095286Y-17489429D02*
X11838143Y-17875143D01*
X12481000Y-17503714D02*
X12509571Y-17503714D01*
X12538143Y-17518000D01*
X12552428Y-17532286D01*
X12566714Y-17560857D01*
X12581000Y-17618000D01*
X12581000Y-17689429D01*
X12566714Y-17746572D01*
X12552428Y-17775143D01*
X12538143Y-17789429D01*
X12509571Y-17803714D01*
X12481000Y-17803714D01*
X12452428Y-17789429D01*
X12438143Y-17775143D01*
X12423857Y-17746572D01*
X12409571Y-17689429D01*
X12409571Y-17618000D01*
X12423857Y-17560857D01*
X12438143Y-17532286D01*
X12452428Y-17518000D01*
X12481000Y-17503714D01*
X12709571Y-17775143D02*
X12723857Y-17789429D01*
X12709571Y-17803714D01*
X12695286Y-17789429D01*
X12709571Y-17775143D01*
X12709571Y-17803714D01*
X12909571Y-17503714D02*
X12938143Y-17503714D01*
X12966714Y-17518000D01*
X12981000Y-17532286D01*
X12995285Y-17560857D01*
X13009571Y-17618000D01*
X13009571Y-17689429D01*
X12995285Y-17746572D01*
X12981000Y-17775143D01*
X12966714Y-17789429D01*
X12938143Y-17803714D01*
X12909571Y-17803714D01*
X12881000Y-17789429D01*
X12866714Y-17775143D01*
X12852428Y-17746572D01*
X12838143Y-17689429D01*
X12838143Y-17618000D01*
X12852428Y-17560857D01*
X12866714Y-17532286D01*
X12881000Y-17518000D01*
X12909571Y-17503714D01*
X13109571Y-17503714D02*
X13295285Y-17503714D01*
X13195285Y-17618000D01*
X13238143Y-17618000D01*
X13266714Y-17632286D01*
X13281000Y-17646572D01*
X13295285Y-17675143D01*
X13295285Y-17746572D01*
X13281000Y-17775143D01*
X13266714Y-17789429D01*
X13238143Y-17803714D01*
X13152428Y-17803714D01*
X13123857Y-17789429D01*
X13109571Y-17775143D01*
X13566714Y-17503714D02*
X13423857Y-17503714D01*
X13409571Y-17646572D01*
X13423857Y-17632286D01*
X13452428Y-17618000D01*
X13523857Y-17618000D01*
X13552428Y-17632286D01*
X13566714Y-17646572D01*
X13581000Y-17675143D01*
X13581000Y-17746572D01*
X13566714Y-17775143D01*
X13552428Y-17789429D01*
X13523857Y-17803714D01*
X13452428Y-17803714D01*
X13423857Y-17789429D01*
X13409571Y-17775143D01*
X13695286Y-17503714D02*
X13695286Y-17560857D01*
X13809571Y-17503714D02*
X13809571Y-17560857D01*
X14252428Y-17918000D02*
X14238143Y-17903714D01*
X14209571Y-17860857D01*
X14195285Y-17832286D01*
X14181000Y-17789429D01*
X14166714Y-17718000D01*
X14166714Y-17660857D01*
X14181000Y-17589429D01*
X14195285Y-17546572D01*
X14209571Y-17518000D01*
X14238143Y-17475143D01*
X14252428Y-17460857D01*
X14381000Y-17803714D02*
X14438143Y-17803714D01*
X14466714Y-17789429D01*
X14481000Y-17775143D01*
X14509571Y-17732286D01*
X14523857Y-17675143D01*
X14523857Y-17560857D01*
X14509571Y-17532286D01*
X14495285Y-17518000D01*
X14466714Y-17503714D01*
X14409571Y-17503714D01*
X14381000Y-17518000D01*
X14366714Y-17532286D01*
X14352428Y-17560857D01*
X14352428Y-17632286D01*
X14366714Y-17660857D01*
X14381000Y-17675143D01*
X14409571Y-17689429D01*
X14466714Y-17689429D01*
X14495285Y-17675143D01*
X14509571Y-17660857D01*
X14523857Y-17632286D01*
X14709571Y-17503714D02*
X14738143Y-17503714D01*
X14766714Y-17518000D01*
X14781000Y-17532286D01*
X14795285Y-17560857D01*
X14809571Y-17618000D01*
X14809571Y-17689429D01*
X14795285Y-17746572D01*
X14781000Y-17775143D01*
X14766714Y-17789429D01*
X14738143Y-17803714D01*
X14709571Y-17803714D01*
X14681000Y-17789429D01*
X14666714Y-17775143D01*
X14652428Y-17746572D01*
X14638143Y-17689429D01*
X14638143Y-17618000D01*
X14652428Y-17560857D01*
X14666714Y-17532286D01*
X14681000Y-17518000D01*
X14709571Y-17503714D01*
X15166714Y-17803714D02*
X15166714Y-17503714D01*
X15295285Y-17803714D02*
X15295285Y-17646572D01*
X15281000Y-17618000D01*
X15252428Y-17603714D01*
X15209571Y-17603714D01*
X15181000Y-17618000D01*
X15166714Y-17632286D01*
X15481000Y-17803714D02*
X15452428Y-17789429D01*
X15438143Y-17775143D01*
X15423857Y-17746572D01*
X15423857Y-17660857D01*
X15438143Y-17632286D01*
X15452428Y-17618000D01*
X15481000Y-17603714D01*
X15523857Y-17603714D01*
X15552428Y-17618000D01*
X15566714Y-17632286D01*
X15581000Y-17660857D01*
X15581000Y-17746572D01*
X15566714Y-17775143D01*
X15552428Y-17789429D01*
X15523857Y-17803714D01*
X15481000Y-17803714D01*
X15752428Y-17803714D02*
X15723857Y-17789429D01*
X15709571Y-17760857D01*
X15709571Y-17503714D01*
X15981000Y-17789429D02*
X15952428Y-17803714D01*
X15895286Y-17803714D01*
X15866714Y-17789429D01*
X15852428Y-17760857D01*
X15852428Y-17646572D01*
X15866714Y-17618000D01*
X15895286Y-17603714D01*
X15952428Y-17603714D01*
X15981000Y-17618000D01*
X15995286Y-17646572D01*
X15995286Y-17675143D01*
X15852428Y-17703714D01*
X16109571Y-17789429D02*
X16138143Y-17803714D01*
X16195286Y-17803714D01*
X16223857Y-17789429D01*
X16238143Y-17760857D01*
X16238143Y-17746572D01*
X16223857Y-17718000D01*
X16195286Y-17703714D01*
X16152428Y-17703714D01*
X16123857Y-17689429D01*
X16109571Y-17660857D01*
X16109571Y-17646572D01*
X16123857Y-17618000D01*
X16152428Y-17603714D01*
X16195286Y-17603714D01*
X16223857Y-17618000D01*
X16338143Y-17918000D02*
X16352428Y-17903714D01*
X16381000Y-17860857D01*
X16395286Y-17832286D01*
X16409571Y-17789429D01*
X16423857Y-17718000D01*
X16423857Y-17660857D01*
X16409571Y-17589429D01*
X16395286Y-17546572D01*
X16381000Y-17518000D01*
X16352428Y-17475143D01*
X16338143Y-17460857D01*
M02*
