G04 #@! TF.FileFunction,Copper,L2,Bot,Signal*
%FSLAX46Y46*%
G04 Gerber Fmt 4.6, Leading zero omitted, Abs format (unit mm)*
G04 Created by KiCad (PCBNEW 4.0.2+dfsg1-stable) date pe 11. elokuuta 2017 15.41.08*
%MOMM*%
G01*
G04 APERTURE LIST*
%ADD10C,0.100000*%
%ADD11O,1.750000X1.200000*%
%ADD12R,1.750000X1.200000*%
%ADD13R,1.750000X1.750000*%
%ADD14C,1.750000*%
%ADD15R,1.250000X1.750000*%
%ADD16O,1.250000X1.750000*%
%ADD17C,0.500000*%
G04 APERTURE END LIST*
D10*
D11*
X109855000Y-157955000D03*
D12*
X109855000Y-163355000D03*
D11*
X109855000Y-161555000D03*
X109855000Y-159755000D03*
D13*
X155575000Y-154305000D03*
D14*
X160655000Y-154305000D03*
X163195000Y-154305000D03*
X165735000Y-154305000D03*
X168275000Y-154305000D03*
X168275000Y-149225000D03*
X165735000Y-149225000D03*
X163195000Y-149225000D03*
X160655000Y-149225000D03*
X155575000Y-149225000D03*
D13*
X140335000Y-133350000D03*
D14*
X142875000Y-133350000D03*
X145415000Y-133350000D03*
X147955000Y-133350000D03*
X150495000Y-133350000D03*
X153035000Y-133350000D03*
X155575000Y-133350000D03*
D13*
X165735000Y-137160000D03*
D14*
X163195000Y-137160000D03*
X160655000Y-137160000D03*
X158115000Y-137160000D03*
X155575000Y-137160000D03*
X153035000Y-137160000D03*
X150495000Y-137160000D03*
X147955000Y-137160000D03*
X145415000Y-137160000D03*
X142875000Y-137160000D03*
X140335000Y-137160000D03*
X137795000Y-137160000D03*
X135255000Y-137160000D03*
X132715000Y-137160000D03*
X130175000Y-137160000D03*
X127635000Y-137160000D03*
X125095000Y-137160000D03*
X122555000Y-137160000D03*
X120015000Y-137160000D03*
X117475000Y-137160000D03*
D13*
X139700000Y-154940000D03*
D14*
X132080000Y-154940000D03*
D15*
X146304000Y-150114000D03*
D16*
X144272000Y-150114000D03*
D13*
X109839045Y-148551480D03*
D14*
X104759045Y-148551480D03*
D13*
X170815000Y-154305000D03*
D14*
X170815000Y-149225000D03*
D13*
X153035000Y-154305000D03*
D14*
X153035000Y-149225000D03*
D13*
X101600000Y-135890000D03*
D14*
X101600000Y-138430000D03*
X101600000Y-140970000D03*
X101600000Y-143510000D03*
D13*
X99642395Y-162572765D03*
D14*
X99642395Y-160032765D03*
X99642395Y-157492765D03*
D13*
X152400000Y-146050000D03*
D14*
X149860000Y-146050000D03*
X147320000Y-146050000D03*
D13*
X128905000Y-146050000D03*
D14*
X131445000Y-146050000D03*
X133985000Y-146050000D03*
X136525000Y-146050000D03*
X139065000Y-146050000D03*
X141605000Y-146050000D03*
X144145000Y-146050000D03*
D13*
X118110000Y-146050000D03*
D14*
X120650000Y-146050000D03*
X123190000Y-146050000D03*
X125730000Y-146050000D03*
D13*
X161925000Y-161290000D03*
D14*
X164465000Y-161290000D03*
X167005000Y-161290000D03*
X169545000Y-161290000D03*
D13*
X139065000Y-163830000D03*
D14*
X141605000Y-163830000D03*
X144145000Y-163830000D03*
X146685000Y-163830000D03*
X149225000Y-163830000D03*
X151765000Y-163830000D03*
X154305000Y-163830000D03*
D13*
X118110000Y-163830000D03*
D14*
X120650000Y-163830000D03*
X123190000Y-163830000D03*
X125730000Y-163830000D03*
X128270000Y-163830000D03*
X130810000Y-163830000D03*
X133350000Y-163830000D03*
X135890000Y-163830000D03*
X123190000Y-160020000D03*
X123190000Y-149860000D03*
X120650000Y-160020000D03*
X120650000Y-149860000D03*
X118110000Y-160020000D03*
X118110000Y-149860000D03*
X153670000Y-159385000D03*
X143510000Y-159385000D03*
X146685000Y-155575000D03*
X144145000Y-155575000D03*
X149225000Y-155575000D03*
X96467394Y-160032764D03*
X96467394Y-157492764D03*
X96467394Y-162572764D03*
D13*
X107244571Y-156820660D03*
D14*
X107244571Y-159360660D03*
X107244571Y-161900660D03*
X107244571Y-164440660D03*
D13*
X109839045Y-146011481D03*
D14*
X109839045Y-140931481D03*
X109839045Y-138391481D03*
X109839045Y-135851481D03*
X104759045Y-135851481D03*
X104759045Y-138391481D03*
X104759045Y-140931481D03*
X104759045Y-146011481D03*
X155575000Y-146050000D03*
X160655000Y-146050000D03*
X158115000Y-146050000D03*
X163195000Y-158115000D03*
X158115000Y-158115000D03*
X158115000Y-160655000D03*
X163195000Y-146050000D03*
X168275000Y-146050000D03*
X170815000Y-146050000D03*
D13*
X134937500Y-177080001D03*
D14*
X137477500Y-177080001D03*
D13*
X134937500Y-177080001D03*
D14*
X137477500Y-177080001D03*
X140017500Y-177080001D03*
D13*
X134937500Y-177080001D03*
D14*
X137477500Y-177080001D03*
X140017500Y-177080001D03*
X142557500Y-177080001D03*
X145097500Y-177080001D03*
D13*
X134937500Y-177080001D03*
D14*
X137477500Y-177080001D03*
X140017500Y-177080001D03*
X142557500Y-177080001D03*
X145097500Y-177080001D03*
X147637500Y-177080001D03*
D13*
X134937500Y-177080001D03*
X134937500Y-177080001D03*
X134937500Y-177080001D03*
D14*
X137477500Y-177080001D03*
D13*
X134937500Y-177080001D03*
D14*
X137477500Y-177080001D03*
D17*
X155575000Y-146050000D02*
X155575000Y-145415000D01*
X155575000Y-145415000D02*
X154305000Y-144145000D01*
X155575000Y-145415000D02*
X156845000Y-144145000D01*
X155575000Y-146050000D02*
X155575000Y-144145000D01*
X161925000Y-144145000D02*
X172085000Y-144145000D01*
X170535000Y-149505000D02*
X169935000Y-149505000D01*
X169735000Y-149305000D02*
X169935000Y-149505000D01*
X169735000Y-149305000D02*
X169735000Y-149225000D01*
X170535000Y-149505000D02*
X170815000Y-149225000D01*
X168555000Y-149505000D02*
X169135000Y-149505000D01*
X169335000Y-149305000D02*
X169135000Y-149505000D01*
X169335000Y-149305000D02*
X169335000Y-149225000D01*
X168555000Y-149505000D02*
X168275000Y-149225000D01*
X139065000Y-163830000D02*
X138760000Y-163830000D01*
X139065000Y-163830000D02*
X139065000Y-163435000D01*
X139065000Y-163435000D02*
X138535000Y-162905000D01*
X138535000Y-162905000D02*
X138140000Y-162905000D01*
X139065000Y-163830000D02*
X138140000Y-162905000D01*
X138140000Y-162905000D02*
X138112500Y-162877500D01*
X132080000Y-156845000D02*
X132080000Y-156083000D01*
X138112500Y-162877500D02*
X132080000Y-156845000D01*
X131635000Y-155385000D02*
X131635000Y-155705000D01*
X132013000Y-156083000D02*
X131635000Y-155705000D01*
X132013000Y-156083000D02*
X132080000Y-156083000D01*
X131635000Y-155385000D02*
X132080000Y-154940000D01*
X154051000Y-149225000D02*
X153797000Y-149479000D01*
X153797000Y-149479000D02*
X153035000Y-149225000D01*
X154559000Y-149225000D02*
X154813000Y-149479000D01*
X154813000Y-149479000D02*
X155575000Y-149225000D01*
X152400000Y-148463000D02*
X152400000Y-149987000D01*
X152400000Y-149987000D02*
X152273000Y-149987000D01*
X152273000Y-149987000D02*
X152781000Y-149987000D01*
X152781000Y-149987000D02*
X153035000Y-149733000D01*
X153035000Y-149733000D02*
X153035000Y-149225000D01*
X152400000Y-147193000D02*
X152527000Y-147193000D01*
X152527000Y-147193000D02*
X152781000Y-146939000D01*
X139065000Y-163449000D02*
X139065000Y-163830000D01*
X138557000Y-163830000D02*
X139065000Y-163830000D01*
X132969000Y-154051000D02*
X132969000Y-154559000D01*
X132969000Y-154559000D02*
X132588000Y-154940000D01*
X132588000Y-154940000D02*
X132080000Y-154940000D01*
X132080000Y-154432000D02*
X132080000Y-154940000D01*
X138684000Y-150114000D02*
X138303000Y-150495000D01*
X138430000Y-149860000D02*
X138684000Y-150114000D01*
X138684000Y-150114000D02*
X139065000Y-150495000D01*
X139065000Y-150495000D02*
X138811000Y-150495000D01*
X141097000Y-147193000D02*
X142113000Y-147193000D01*
X141859000Y-147193000D02*
X141859000Y-146939000D01*
X142113000Y-147193000D02*
X141859000Y-147193000D01*
X144272000Y-150114000D02*
X143764000Y-150114000D01*
X143764000Y-150114000D02*
X143383000Y-150495000D01*
X143891000Y-148971000D02*
X143891000Y-149733000D01*
X143891000Y-149733000D02*
X144272000Y-150114000D01*
X149479000Y-154051000D02*
X149479000Y-155321000D01*
X149479000Y-155321000D02*
X149225000Y-155575000D01*
X141605000Y-146050000D02*
X141605000Y-146685000D01*
X141605000Y-146685000D02*
X141097000Y-147193000D01*
X141097000Y-147193000D02*
X138430000Y-149860000D01*
X138430000Y-149860000D02*
X137795000Y-150495000D01*
X141605000Y-146685000D02*
X141859000Y-146939000D01*
X141859000Y-146939000D02*
X143891000Y-148971000D01*
X143891000Y-148971000D02*
X144272000Y-149352000D01*
X144272000Y-149352000D02*
X144272000Y-150114000D01*
X132080000Y-154940000D02*
X132969000Y-154051000D01*
X132969000Y-154051000D02*
X136525000Y-150495000D01*
X136525000Y-150495000D02*
X137795000Y-150495000D01*
X137795000Y-150495000D02*
X138303000Y-150495000D01*
X138303000Y-150495000D02*
X138811000Y-150495000D01*
X138811000Y-150495000D02*
X143383000Y-150495000D01*
X143383000Y-150495000D02*
X143891000Y-150495000D01*
X143891000Y-150495000D02*
X144272000Y-150114000D01*
X132080000Y-156083000D02*
X132080000Y-154940000D01*
X123190000Y-146050000D02*
X123190000Y-145415000D01*
X123190000Y-145415000D02*
X121920000Y-144145000D01*
X141605000Y-146050000D02*
X141605000Y-145415000D01*
X141605000Y-145415000D02*
X140335000Y-144145000D01*
X146685000Y-163830000D02*
X146685000Y-164465000D01*
X146685000Y-164465000D02*
X147955000Y-165735000D01*
X170815000Y-149225000D02*
X171450000Y-149225000D01*
X171450000Y-149225000D02*
X172720000Y-147955000D01*
X151130000Y-144145000D02*
X153670000Y-144145000D01*
X142875000Y-144145000D02*
X151130000Y-144145000D01*
X151130000Y-144145000D02*
X152400000Y-145415000D01*
X140335000Y-144145000D02*
X142875000Y-144145000D01*
X142875000Y-144145000D02*
X141605000Y-145415000D01*
X124460000Y-144145000D02*
X140335000Y-144145000D01*
X121920000Y-144145000D02*
X124460000Y-144145000D01*
X124460000Y-144145000D02*
X123190000Y-145415000D01*
X137795000Y-165735000D02*
X116840000Y-165735000D01*
X116840000Y-144145000D02*
X121920000Y-144145000D01*
X116205000Y-144780000D02*
X116840000Y-144145000D01*
X116205000Y-165100000D02*
X116205000Y-144780000D01*
X116840000Y-165735000D02*
X116205000Y-165100000D01*
X139065000Y-163830000D02*
X139065000Y-164465000D01*
X139065000Y-164465000D02*
X140335000Y-165735000D01*
X140335000Y-165735000D02*
X137795000Y-165735000D01*
X137795000Y-165735000D02*
X139065000Y-164465000D01*
X145415000Y-165735000D02*
X140335000Y-165735000D01*
X147955000Y-165735000D02*
X145415000Y-165735000D01*
X145415000Y-165735000D02*
X146685000Y-164465000D01*
X172720000Y-150495000D02*
X172720000Y-165100000D01*
X172085000Y-165735000D02*
X147955000Y-165735000D01*
X172720000Y-165100000D02*
X172085000Y-165735000D01*
X172720000Y-147955000D02*
X172720000Y-150495000D01*
X153670000Y-144145000D02*
X154305000Y-144145000D01*
X154305000Y-144145000D02*
X155575000Y-144145000D01*
X155575000Y-144145000D02*
X156845000Y-144145000D01*
X156845000Y-144145000D02*
X161925000Y-144145000D01*
X172720000Y-144780000D02*
X172720000Y-147955000D01*
X172085000Y-144145000D02*
X172720000Y-144780000D01*
X152400000Y-145415000D02*
X153670000Y-144145000D01*
X172720000Y-150495000D02*
X171450000Y-149225000D01*
X152400000Y-146050000D02*
X152400000Y-147193000D01*
X152400000Y-147193000D02*
X152400000Y-148463000D01*
X152400000Y-148463000D02*
X152400000Y-148590000D01*
X152400000Y-148590000D02*
X153035000Y-149225000D01*
X153035000Y-149225000D02*
X154051000Y-149225000D01*
X154051000Y-149225000D02*
X154559000Y-149225000D01*
X154559000Y-149225000D02*
X155575000Y-149225000D01*
X149225000Y-155575000D02*
X149225000Y-154305000D01*
X149225000Y-154305000D02*
X149479000Y-154051000D01*
X149479000Y-154051000D02*
X151130000Y-152400000D01*
X151130000Y-151130000D02*
X152273000Y-149987000D01*
X151130000Y-152400000D02*
X151130000Y-151130000D01*
X152273000Y-149987000D02*
X153035000Y-149225000D01*
X152400000Y-146050000D02*
X152400000Y-145415000D01*
X170815000Y-149225000D02*
X169735000Y-149225000D01*
X169735000Y-149225000D02*
X169335000Y-149225000D01*
X169335000Y-149225000D02*
X168275000Y-149225000D01*
X101600000Y-143510000D02*
X102870000Y-144780000D01*
X102870000Y-144780000D02*
X102870000Y-149225000D01*
X102870000Y-149225000D02*
X104140000Y-150495000D01*
X104140000Y-150495000D02*
X107895525Y-150495000D01*
X107895525Y-150495000D02*
X109839045Y-148551480D01*
X109839045Y-146011481D02*
X109839045Y-148551480D01*
X101600000Y-140970000D02*
X104775000Y-144145000D01*
X104775000Y-144145000D02*
X104775000Y-145995526D01*
X104775000Y-145995526D02*
X104759045Y-146011481D01*
X104759045Y-148551480D02*
X104759045Y-146011481D01*
X147320000Y-147193000D02*
X147193000Y-147193000D01*
X147193000Y-147193000D02*
X146050000Y-146050000D01*
X146050000Y-146050000D02*
X146177000Y-146177000D01*
X146177000Y-146177000D02*
X146177000Y-146050000D01*
X145415000Y-146050000D02*
X144780000Y-146685000D01*
X141175000Y-162765000D02*
X141175000Y-163400000D01*
X141175000Y-163400000D02*
X141605000Y-163830000D01*
X143510000Y-159385000D02*
X143510000Y-158730000D01*
X143510000Y-158730000D02*
X144145000Y-158095000D01*
X144145000Y-158095000D02*
X144145000Y-158195000D01*
X143835000Y-155265000D02*
X143835000Y-154705000D01*
X144135000Y-154305000D02*
X143835000Y-154605000D01*
X143835000Y-154605000D02*
X143835000Y-154705000D01*
X144135000Y-154305000D02*
X144145000Y-154305000D01*
X143835000Y-155265000D02*
X144145000Y-155575000D01*
X143835000Y-155885000D02*
X143835000Y-156405000D01*
X144135000Y-156705000D02*
X143835000Y-156405000D01*
X144135000Y-156705000D02*
X144145000Y-156705000D01*
X143835000Y-155885000D02*
X144145000Y-155575000D01*
X147024000Y-149394000D02*
X146854000Y-149394000D01*
X146854000Y-149394000D02*
X146050000Y-148590000D01*
X147320000Y-148717000D02*
X147320000Y-149098000D01*
X147320000Y-149098000D02*
X147024000Y-149394000D01*
X147024000Y-149394000D02*
X146304000Y-150114000D01*
X147320000Y-147193000D02*
X147320000Y-148717000D01*
X144018000Y-158877000D02*
X143510000Y-159385000D01*
X145923000Y-151892000D02*
X145923000Y-151511000D01*
X145923000Y-151003000D02*
X145923000Y-151511000D01*
X145923000Y-151003000D02*
X146304000Y-150622000D01*
X145923000Y-151892000D02*
X145923000Y-151765000D01*
X145923000Y-151765000D02*
X145923000Y-151892000D01*
X146304000Y-150114000D02*
X146304000Y-150622000D01*
X146050000Y-149860000D02*
X146304000Y-150114000D01*
X144780000Y-147320000D02*
X144780000Y-146685000D01*
X144780000Y-146685000D02*
X144145000Y-146050000D01*
X144145000Y-158750000D02*
X144145000Y-159385000D01*
X144145000Y-159385000D02*
X143510000Y-159385000D01*
X144145000Y-153670000D02*
X142875000Y-152400000D01*
X145415000Y-152400000D02*
X142875000Y-152400000D01*
X142875000Y-152400000D02*
X138430000Y-152400000D01*
X138430000Y-152400000D02*
X137160000Y-153670000D01*
X137160000Y-153670000D02*
X137160000Y-158750000D01*
X137160000Y-158750000D02*
X140970000Y-162560000D01*
X140970000Y-162560000D02*
X141175000Y-162765000D01*
X141175000Y-162765000D02*
X141605000Y-163195000D01*
X141605000Y-163195000D02*
X141605000Y-163830000D01*
X144145000Y-155575000D02*
X144145000Y-156705000D01*
X144145000Y-156705000D02*
X144145000Y-157861000D01*
X144145000Y-157861000D02*
X144145000Y-158195000D01*
X144145000Y-158195000D02*
X144145000Y-158750000D01*
X144145000Y-158750000D02*
X143510000Y-159385000D01*
X146304000Y-150114000D02*
X146304000Y-151511000D01*
X144145000Y-153670000D02*
X144145000Y-154305000D01*
X144145000Y-154305000D02*
X144145000Y-155575000D01*
X146304000Y-151511000D02*
X145923000Y-151892000D01*
X145923000Y-151892000D02*
X145415000Y-152400000D01*
X145415000Y-152400000D02*
X144145000Y-153670000D01*
X144145000Y-146050000D02*
X144145000Y-146685000D01*
X144145000Y-146685000D02*
X144780000Y-147320000D01*
X144780000Y-147320000D02*
X146050000Y-148590000D01*
X146050000Y-148590000D02*
X146304000Y-148844000D01*
X146304000Y-148844000D02*
X146304000Y-150114000D01*
X147320000Y-146050000D02*
X147320000Y-147193000D01*
X144145000Y-146050000D02*
X145415000Y-146050000D01*
X145415000Y-146050000D02*
X146177000Y-146050000D01*
X146177000Y-146050000D02*
X147320000Y-146050000D01*
X99642395Y-160032765D02*
X96467395Y-160032765D01*
X96467395Y-160032765D02*
X96467394Y-160032764D01*
X96467394Y-157492764D02*
X99642394Y-157492764D01*
X99642394Y-157492764D02*
X99642395Y-157492765D01*
X99642395Y-162572765D02*
X96467395Y-162572765D01*
X96467395Y-162572765D02*
X96467394Y-162572764D01*
X164465000Y-161290000D02*
X166370000Y-159385000D01*
X166370000Y-157480000D02*
X163195000Y-154305000D01*
X166370000Y-159385000D02*
X166370000Y-157480000D01*
X169545000Y-161290000D02*
X169545000Y-158750000D01*
X169545000Y-158750000D02*
X165735000Y-154940000D01*
X165735000Y-154940000D02*
X165735000Y-154305000D01*
X123571000Y-163449000D02*
X123571000Y-162941000D01*
X123317000Y-162687000D02*
X123571000Y-162941000D01*
X123317000Y-162687000D02*
X123190000Y-162687000D01*
X123571000Y-163449000D02*
X123190000Y-163830000D01*
X122809000Y-163449000D02*
X123190000Y-163830000D01*
X123571000Y-160401000D02*
X123571000Y-160909000D01*
X123317000Y-161163000D02*
X123571000Y-160909000D01*
X123317000Y-161163000D02*
X123190000Y-161163000D01*
X123571000Y-160401000D02*
X123190000Y-160020000D01*
X122809000Y-160401000D02*
X123190000Y-160020000D01*
X123190000Y-160020000D02*
X123190000Y-161163000D01*
X123190000Y-161163000D02*
X123190000Y-162687000D01*
X123190000Y-162687000D02*
X123190000Y-163830000D01*
X121031000Y-163449000D02*
X121031000Y-162941000D01*
X120777000Y-162687000D02*
X121031000Y-162941000D01*
X120777000Y-162687000D02*
X120650000Y-162687000D01*
X121031000Y-163449000D02*
X120650000Y-163830000D01*
X120269000Y-163449000D02*
X120650000Y-163830000D01*
X121031000Y-160401000D02*
X121031000Y-160909000D01*
X120777000Y-161163000D02*
X121031000Y-160909000D01*
X120777000Y-161163000D02*
X120650000Y-161163000D01*
X121031000Y-160401000D02*
X120650000Y-160020000D01*
X120269000Y-160401000D02*
X120650000Y-160020000D01*
X120650000Y-163830000D02*
X120650000Y-162687000D01*
X120650000Y-162687000D02*
X120650000Y-161163000D01*
X120650000Y-161163000D02*
X120650000Y-160020000D01*
X118110000Y-162105000D02*
X118110000Y-162580000D01*
X118110000Y-162580000D02*
X118435000Y-162905000D01*
X117729000Y-163449000D02*
X118110000Y-163830000D01*
X118491000Y-163449000D02*
X118110000Y-163830000D01*
X118491000Y-160401000D02*
X118491000Y-160909000D01*
X118237000Y-161163000D02*
X118491000Y-160909000D01*
X118237000Y-161163000D02*
X118110000Y-161163000D01*
X118491000Y-160401000D02*
X118110000Y-160020000D01*
X117729000Y-160401000D02*
X118110000Y-160020000D01*
X118110000Y-160020000D02*
X118110000Y-161163000D01*
X118110000Y-161163000D02*
X118110000Y-162105000D01*
X118110000Y-162105000D02*
X118110000Y-162405000D01*
X118110000Y-162405000D02*
X118110000Y-162687000D01*
X118110000Y-162687000D02*
X118110000Y-163830000D01*
X104759045Y-135851481D02*
X101638519Y-135851481D01*
X101638519Y-135851481D02*
X101600000Y-135890000D01*
X101600000Y-138430000D02*
X104720526Y-138430000D01*
X104720526Y-138430000D02*
X104759045Y-138391481D01*
X161925000Y-161290000D02*
X161925000Y-161925000D01*
X161925000Y-161925000D02*
X163195000Y-163195000D01*
X163195000Y-163195000D02*
X165735000Y-163195000D01*
X165735000Y-163195000D02*
X167005000Y-161925000D01*
X167005000Y-161925000D02*
X167005000Y-161290000D01*
X139700000Y-154940000D02*
X139700000Y-155270000D01*
X139700000Y-155270000D02*
X140235000Y-155805000D01*
X140235000Y-155805000D02*
X140232000Y-155805000D01*
X140232000Y-155805000D02*
X139700000Y-156337000D01*
X143645000Y-162695000D02*
X143645000Y-163330000D01*
X143645000Y-163330000D02*
X144145000Y-163830000D01*
X139700000Y-154940000D02*
X139700000Y-155194000D01*
X139700000Y-154940000D02*
X139700000Y-156337000D01*
X139700000Y-156337000D02*
X139700000Y-158750000D01*
X139700000Y-158750000D02*
X143645000Y-162695000D01*
X143645000Y-162695000D02*
X143510000Y-162560000D01*
X143510000Y-162560000D02*
X144145000Y-163195000D01*
X144145000Y-163195000D02*
X144145000Y-163830000D01*
X170815000Y-154305000D02*
X170561000Y-154305000D01*
X170561000Y-154305000D02*
X170053000Y-154813000D01*
X170053000Y-154813000D02*
X168783000Y-154813000D01*
X168783000Y-154813000D02*
X168275000Y-154305000D01*
X168275000Y-154305000D02*
X168783000Y-154305000D01*
X170815000Y-154305000D02*
X170815000Y-155067000D01*
X170815000Y-155067000D02*
X171450000Y-155702000D01*
X170815000Y-154305000D02*
X168275000Y-154305000D01*
X154305000Y-163830000D02*
X154940000Y-164465000D01*
X171450000Y-163830000D02*
X171450000Y-155702000D01*
X171450000Y-155702000D02*
X171450000Y-154940000D01*
X170815000Y-164465000D02*
X171450000Y-163830000D01*
X154940000Y-164465000D02*
X170815000Y-164465000D01*
X152285000Y-162655000D02*
X152285000Y-163310000D01*
X152285000Y-163310000D02*
X151765000Y-163830000D01*
X153585000Y-155555000D02*
X153585000Y-154855000D01*
X153585000Y-154855000D02*
X153035000Y-154305000D01*
X156035000Y-154765000D02*
X156035000Y-155205000D01*
X155635000Y-155605000D02*
X156035000Y-155205000D01*
X155635000Y-155605000D02*
X155575000Y-155605000D01*
X156035000Y-154765000D02*
X155575000Y-154305000D01*
X155575000Y-154305000D02*
X155575000Y-154745000D01*
X155585000Y-157555000D02*
X153585000Y-155555000D01*
X153585000Y-155555000D02*
X153235000Y-155205000D01*
X153235000Y-155205000D02*
X153235000Y-154505000D01*
X153235000Y-154505000D02*
X153035000Y-154305000D01*
X153035000Y-154305000D02*
X153135000Y-154305000D01*
X153035000Y-154305000D02*
X155575000Y-154305000D01*
X151765000Y-163830000D02*
X151765000Y-163175000D01*
X151765000Y-163175000D02*
X152285000Y-162655000D01*
X152285000Y-162655000D02*
X153435000Y-161505000D01*
X153435000Y-161505000D02*
X154635000Y-161505000D01*
X154635000Y-161505000D02*
X155835000Y-160305000D01*
X155835000Y-160305000D02*
X155835000Y-157805000D01*
X155835000Y-157805000D02*
X155585000Y-157555000D01*
X155585000Y-157555000D02*
X155575000Y-157545000D01*
X155575000Y-156745000D02*
X155575000Y-155605000D01*
X155575000Y-157545000D02*
X155575000Y-156745000D01*
X155575000Y-155605000D02*
X155575000Y-154305000D01*
X147256500Y-154905000D02*
X147256500Y-156781500D01*
X150241000Y-146431000D02*
X150241000Y-146939000D01*
X150241000Y-146939000D02*
X149860000Y-147320000D01*
X150241000Y-146431000D02*
X149860000Y-146050000D01*
X149860000Y-147447000D02*
X149860000Y-147320000D01*
X149479000Y-146431000D02*
X149860000Y-146050000D01*
X147256500Y-156781500D02*
X147256500Y-156146500D01*
X147256500Y-156146500D02*
X146685000Y-155575000D01*
X147256500Y-154368500D02*
X147256500Y-154905000D01*
X147256500Y-154905000D02*
X147256500Y-155003500D01*
X147256500Y-155003500D02*
X146685000Y-155575000D01*
X149542500Y-162877500D02*
X149542500Y-163512500D01*
X149542500Y-163512500D02*
X149225000Y-163830000D01*
X152717500Y-159702500D02*
X153352500Y-159702500D01*
X153352500Y-159702500D02*
X153670000Y-159385000D01*
X149225000Y-163830000D02*
X149225000Y-158750000D01*
X153670000Y-159385000D02*
X149860000Y-159385000D01*
X149860000Y-159385000D02*
X149225000Y-158750000D01*
X149225000Y-158750000D02*
X147256500Y-156781500D01*
X147256500Y-156781500D02*
X146685000Y-156210000D01*
X146685000Y-156210000D02*
X146685000Y-155575000D01*
X149225000Y-163830000D02*
X149225000Y-163195000D01*
X149225000Y-163195000D02*
X149542500Y-162877500D01*
X149542500Y-162877500D02*
X152717500Y-159702500D01*
X152717500Y-159702500D02*
X153035000Y-159385000D01*
X153035000Y-159385000D02*
X153670000Y-159385000D01*
X149860000Y-146050000D02*
X149860000Y-147447000D01*
X149860000Y-147447000D02*
X149860000Y-151765000D01*
X149860000Y-151765000D02*
X147256500Y-154368500D01*
X147256500Y-154368500D02*
X146685000Y-154940000D01*
X128651000Y-146304000D02*
X128651000Y-146939000D01*
X128460500Y-147129500D02*
X128651000Y-146939000D01*
X128460500Y-147129500D02*
X127825500Y-147129500D01*
X128651000Y-146304000D02*
X128905000Y-146050000D01*
X125095000Y-162560000D02*
X125730000Y-163195000D01*
X125730000Y-163195000D02*
X125730000Y-163830000D01*
X125095000Y-163195000D02*
X125095000Y-163830000D01*
X125095000Y-163830000D02*
X125730000Y-163830000D01*
X128905000Y-146050000D02*
X127825500Y-147129500D01*
X127825500Y-147129500D02*
X125095000Y-149860000D01*
X125095000Y-149860000D02*
X125095000Y-162560000D01*
X125095000Y-163195000D02*
X125730000Y-163830000D01*
X125095000Y-162560000D02*
X125095000Y-163195000D01*
X130937000Y-147193000D02*
X130937000Y-146558000D01*
X130937000Y-146558000D02*
X131445000Y-146050000D01*
X127635000Y-163195000D02*
X128270000Y-163195000D01*
X128270000Y-163195000D02*
X128270000Y-163830000D01*
X127635000Y-163195000D02*
X127635000Y-163830000D01*
X127635000Y-163830000D02*
X128270000Y-163830000D01*
X131445000Y-146050000D02*
X131445000Y-146685000D01*
X131445000Y-146685000D02*
X130937000Y-147193000D01*
X130937000Y-147193000D02*
X126365000Y-151765000D01*
X126365000Y-151765000D02*
X126365000Y-161925000D01*
X126365000Y-161925000D02*
X127635000Y-163195000D01*
X127635000Y-163195000D02*
X128270000Y-163830000D01*
X133985000Y-146050000D02*
X133350000Y-146050000D01*
X133350000Y-146050000D02*
X133286500Y-146113500D01*
X133286500Y-146113500D02*
X133286500Y-146748500D01*
X133985000Y-146050000D02*
X133286500Y-146748500D01*
X127635000Y-152400000D02*
X127635000Y-160655000D01*
X127635000Y-160655000D02*
X130175000Y-163195000D01*
X133286500Y-146748500D02*
X127635000Y-152400000D01*
X130175000Y-163195000D02*
X130810000Y-163195000D01*
X130810000Y-163195000D02*
X130810000Y-163830000D01*
X130175000Y-163195000D02*
X130175000Y-163830000D01*
X130175000Y-163830000D02*
X130810000Y-163830000D01*
X130175000Y-163195000D02*
X130810000Y-163830000D01*
X136525000Y-146050000D02*
X136090000Y-146050000D01*
X136090000Y-146050000D02*
X135735000Y-146405000D01*
X135735000Y-146405000D02*
X135735000Y-146840000D01*
X136525000Y-146050000D02*
X135735000Y-146840000D01*
X135735000Y-146840000D02*
X135699500Y-146875500D01*
X135699500Y-146875500D02*
X130810000Y-151765000D01*
X128905000Y-159385000D02*
X132715000Y-163195000D01*
X128905000Y-153035000D02*
X128905000Y-159385000D01*
X130175000Y-151765000D02*
X128905000Y-153035000D01*
X130810000Y-151765000D02*
X130175000Y-151765000D01*
X132715000Y-163195000D02*
X133350000Y-163195000D01*
X133350000Y-163195000D02*
X133350000Y-163830000D01*
X132715000Y-163195000D02*
X132715000Y-163830000D01*
X132715000Y-163830000D02*
X133350000Y-163830000D01*
X132715000Y-163195000D02*
X133350000Y-163830000D01*
X138665000Y-146050000D02*
X139065000Y-146050000D01*
X138272500Y-146442500D02*
X138665000Y-146050000D01*
X138272500Y-146842500D02*
X138272500Y-146442500D01*
X138272500Y-146842500D02*
X138239500Y-146875500D01*
X139065000Y-146050000D02*
X138272500Y-146842500D01*
X132080000Y-153035000D02*
X130810000Y-153035000D01*
X130810000Y-153035000D02*
X130175000Y-153670000D01*
X130175000Y-153670000D02*
X130175000Y-158115000D01*
X130175000Y-158115000D02*
X135255000Y-163195000D01*
X138239500Y-146875500D02*
X132080000Y-153035000D01*
X135255000Y-163195000D02*
X135255000Y-163830000D01*
X135255000Y-163830000D02*
X135890000Y-163830000D01*
X135255000Y-163195000D02*
X135890000Y-163195000D01*
X135890000Y-163195000D02*
X135890000Y-163830000D01*
X135255000Y-163195000D02*
X135890000Y-163830000D01*
X118491000Y-146431000D02*
X118491000Y-146939000D01*
X118237000Y-147193000D02*
X118491000Y-146939000D01*
X118237000Y-147193000D02*
X118110000Y-147193000D01*
X118491000Y-146431000D02*
X118110000Y-146050000D01*
X117729000Y-146431000D02*
X118110000Y-146050000D01*
X118491000Y-149479000D02*
X118491000Y-148971000D01*
X118237000Y-148717000D02*
X118491000Y-148971000D01*
X118237000Y-148717000D02*
X118110000Y-148717000D01*
X118491000Y-149479000D02*
X118110000Y-149860000D01*
X117729000Y-149479000D02*
X118110000Y-149860000D01*
X118110000Y-149860000D02*
X118110000Y-148717000D01*
X118110000Y-148717000D02*
X118110000Y-147193000D01*
X118110000Y-147193000D02*
X118110000Y-146050000D01*
X121031000Y-146431000D02*
X121031000Y-146939000D01*
X120777000Y-147193000D02*
X121031000Y-146939000D01*
X120777000Y-147193000D02*
X120650000Y-147193000D01*
X121031000Y-146431000D02*
X120650000Y-146050000D01*
X120269000Y-146431000D02*
X120650000Y-146050000D01*
X121031000Y-149479000D02*
X121031000Y-148971000D01*
X120777000Y-148717000D02*
X121031000Y-148971000D01*
X120777000Y-148717000D02*
X120650000Y-148717000D01*
X121031000Y-149479000D02*
X120650000Y-149860000D01*
X120269000Y-149479000D02*
X120650000Y-149860000D01*
X120650000Y-146050000D02*
X120650000Y-147193000D01*
X120650000Y-147193000D02*
X120650000Y-148717000D01*
X120650000Y-148717000D02*
X120650000Y-149860000D01*
X123888500Y-148526500D02*
X123888500Y-149161500D01*
X123888500Y-149161500D02*
X123190000Y-149860000D01*
X125158500Y-147256500D02*
X125158500Y-146621500D01*
X125158500Y-146621500D02*
X125730000Y-146050000D01*
X123190000Y-149225000D02*
X123888500Y-148526500D01*
X123888500Y-148526500D02*
X125158500Y-147256500D01*
X125158500Y-147256500D02*
X125730000Y-146685000D01*
X125730000Y-146685000D02*
X125730000Y-146050000D01*
X107244571Y-156820660D02*
X108674571Y-156820660D01*
X108674571Y-156820660D02*
X109784571Y-157930660D01*
X107244571Y-159360660D02*
X108179660Y-159360660D01*
X108549660Y-159730660D02*
X109784571Y-159730660D01*
X108179660Y-159360660D02*
X108549660Y-159730660D01*
X107244571Y-161900660D02*
X108228340Y-161900660D01*
X108598340Y-161530660D02*
X109784571Y-161530660D01*
X108228340Y-161900660D02*
X108598340Y-161530660D01*
X107244571Y-164440660D02*
X108674571Y-164440660D01*
X108674571Y-164440660D02*
X109784571Y-163330660D01*
X142875000Y-133350000D02*
X142875000Y-133985000D01*
X142875000Y-133985000D02*
X141605000Y-135255000D01*
X141605000Y-135255000D02*
X131445000Y-135255000D01*
X131445000Y-135255000D02*
X130175000Y-136525000D01*
X130175000Y-136525000D02*
X130175000Y-137160000D01*
X145415000Y-137160000D02*
X145415000Y-133350000D01*
X147955000Y-137160000D02*
X147955000Y-133350000D01*
X150495000Y-137160000D02*
X150495000Y-133350000D01*
X160655000Y-137160000D02*
X160655000Y-137795000D01*
X160655000Y-137795000D02*
X161925000Y-139065000D01*
X164465000Y-139065000D02*
X165735000Y-137795000D01*
X161925000Y-139065000D02*
X164465000Y-139065000D01*
X165735000Y-137795000D02*
X165735000Y-137160000D01*
X158115000Y-137160000D02*
X160655000Y-137160000D01*
X155575000Y-137160000D02*
X158115000Y-137160000D01*
X153035000Y-137160000D02*
X155575000Y-137160000D01*
X142875000Y-137160000D02*
X142875000Y-137795000D01*
X142875000Y-137795000D02*
X144145000Y-139065000D01*
X151765000Y-139065000D02*
X153035000Y-137795000D01*
X144145000Y-139065000D02*
X151765000Y-139065000D01*
X153035000Y-137795000D02*
X153035000Y-137160000D01*
X140335000Y-137160000D02*
X142875000Y-137160000D01*
X137795000Y-137160000D02*
X140335000Y-137160000D01*
X135255000Y-137160000D02*
X137795000Y-137160000D01*
X132715000Y-137160000D02*
X135255000Y-137160000D01*
X125095000Y-137160000D02*
X125095000Y-137795000D01*
X125095000Y-137795000D02*
X126365000Y-139065000D01*
X131445000Y-139065000D02*
X132715000Y-137795000D01*
X126365000Y-139065000D02*
X131445000Y-139065000D01*
X132715000Y-137795000D02*
X132715000Y-137160000D01*
X122555000Y-137160000D02*
X125095000Y-137160000D01*
X120015000Y-137160000D02*
X122555000Y-137160000D01*
X117475000Y-137160000D02*
X120015000Y-137160000D01*
X153035000Y-137160000D02*
X153035000Y-133350000D01*
X155575000Y-133350000D02*
X157480000Y-135255000D01*
X161925000Y-135255000D02*
X163195000Y-136525000D01*
X157480000Y-135255000D02*
X161925000Y-135255000D01*
X163195000Y-136525000D02*
X163195000Y-137160000D01*
X127635000Y-137160000D02*
X127635000Y-136525000D01*
X127635000Y-136525000D02*
X130175000Y-133985000D01*
X130175000Y-133985000D02*
X139700000Y-133985000D01*
X139700000Y-133985000D02*
X140335000Y-133350000D01*
X160655000Y-146050000D02*
X163195000Y-146050000D01*
X163195000Y-158115000D02*
X163195000Y-157480000D01*
X163195000Y-157480000D02*
X161925000Y-156210000D01*
X161925000Y-156210000D02*
X159385000Y-156210000D01*
X159385000Y-156210000D02*
X158115000Y-154940000D01*
X158115000Y-154940000D02*
X158115000Y-146050000D01*
X158115000Y-158115000D02*
X158115000Y-159385000D01*
X158115000Y-159385000D02*
X158115000Y-160655000D01*
X168275000Y-146050000D02*
X170815000Y-146050000D01*
M02*
