G04 #@! TF.FileFunction,Soldermask,Top*
%FSLAX46Y46*%
G04 Gerber Fmt 4.6, Leading zero omitted, Abs format (unit mm)*
G04 Created by KiCad (PCBNEW 4.0.2+dfsg1-stable) date ke  9. elokuuta 2017 09.38.44*
%MOMM*%
G01*
G04 APERTURE LIST*
%ADD10C,0.100000*%
%ADD11R,2.150000X2.150000*%
%ADD12C,2.150000*%
%ADD13R,1.650000X2.150000*%
%ADD14O,1.650000X2.150000*%
%ADD15O,2.150000X1.600000*%
%ADD16R,2.150000X1.600000*%
G04 APERTURE END LIST*
D10*
D11*
X139700000Y-133985000D03*
D12*
X142240000Y-133985000D03*
X144780000Y-133985000D03*
X147320000Y-133985000D03*
X149860000Y-133985000D03*
X152400000Y-133985000D03*
X154940000Y-133985000D03*
D11*
X165100000Y-137795000D03*
D12*
X162560000Y-137795000D03*
X160020000Y-137795000D03*
X157480000Y-137795000D03*
X154940000Y-137795000D03*
X152400000Y-137795000D03*
X149860000Y-137795000D03*
X147320000Y-137795000D03*
X144780000Y-137795000D03*
X142240000Y-137795000D03*
X139700000Y-137795000D03*
X137160000Y-137795000D03*
X134620000Y-137795000D03*
X132080000Y-137795000D03*
X129540000Y-137795000D03*
X127000000Y-137795000D03*
X124460000Y-137795000D03*
X121920000Y-137795000D03*
X119380000Y-137795000D03*
X116840000Y-137795000D03*
D11*
X139700000Y-154940000D03*
D12*
X132080000Y-154940000D03*
D13*
X146304000Y-150114000D03*
D14*
X144272000Y-150114000D03*
D11*
X110474045Y-149821480D03*
D12*
X105394045Y-149821480D03*
D11*
X170815000Y-154305000D03*
D12*
X170815000Y-149225000D03*
D11*
X153035000Y-154305000D03*
D12*
X153035000Y-149225000D03*
D11*
X155575000Y-154305000D03*
D12*
X160655000Y-154305000D03*
X163195000Y-154305000D03*
X165735000Y-154305000D03*
X168275000Y-154305000D03*
X168275000Y-149225000D03*
X165735000Y-149225000D03*
X163195000Y-149225000D03*
X160655000Y-149225000D03*
X155575000Y-149225000D03*
D11*
X102235000Y-137160000D03*
D12*
X102235000Y-139700000D03*
X102235000Y-142240000D03*
X102235000Y-144780000D03*
D11*
X101547395Y-161937765D03*
D12*
X101547395Y-159397765D03*
X101547395Y-156857765D03*
D11*
X152400000Y-146050000D03*
D12*
X149860000Y-146050000D03*
X147320000Y-146050000D03*
D11*
X128905000Y-146050000D03*
D12*
X131445000Y-146050000D03*
X133985000Y-146050000D03*
X136525000Y-146050000D03*
X139065000Y-146050000D03*
X141605000Y-146050000D03*
X144145000Y-146050000D03*
D11*
X118110000Y-146050000D03*
D12*
X120650000Y-146050000D03*
X123190000Y-146050000D03*
X125730000Y-146050000D03*
D11*
X158115000Y-159385000D03*
D12*
X160655000Y-159385000D03*
X163195000Y-159385000D03*
X165735000Y-159385000D03*
D11*
X139065000Y-163830000D03*
D12*
X141605000Y-163830000D03*
X144145000Y-163830000D03*
X146685000Y-163830000D03*
X149225000Y-163830000D03*
X151765000Y-163830000D03*
X154305000Y-163830000D03*
D11*
X118110000Y-163830000D03*
D12*
X120650000Y-163830000D03*
X123190000Y-163830000D03*
X125730000Y-163830000D03*
X128270000Y-163830000D03*
X130810000Y-163830000D03*
X133350000Y-163830000D03*
X135890000Y-163830000D03*
X123190000Y-160020000D03*
X123190000Y-149860000D03*
X120650000Y-160020000D03*
X120650000Y-149860000D03*
X118110000Y-160020000D03*
X118110000Y-149860000D03*
X153670000Y-159385000D03*
X143510000Y-159385000D03*
X146685000Y-155575000D03*
X144145000Y-155575000D03*
X149225000Y-155575000D03*
X98372394Y-159397764D03*
X98372394Y-156857764D03*
X98372394Y-161937764D03*
D11*
X107879571Y-156820660D03*
D12*
X107879571Y-159360660D03*
X107879571Y-161900660D03*
X107879571Y-164440660D03*
D15*
X110419571Y-157930660D03*
D16*
X110419571Y-163330660D03*
D15*
X110419571Y-161530660D03*
X110419571Y-159730660D03*
D11*
X110474045Y-147281481D03*
D12*
X110474045Y-142201481D03*
X110474045Y-139661481D03*
X110474045Y-137121481D03*
X105394045Y-137121481D03*
X105394045Y-139661481D03*
X105394045Y-142201481D03*
X105394045Y-147281481D03*
M02*
