G04 #@! TF.GenerationSoftware,KiCad,Pcbnew,5.1.6-c6e7f7d~87~ubuntu19.10.1*
G04 #@! TF.CreationDate,2021-07-01T13:16:57+03:00*
G04 #@! TF.ProjectId,authenticator2.0,61757468-656e-4746-9963-61746f72322e,rev?*
G04 #@! TF.SameCoordinates,Original*
G04 #@! TF.FileFunction,Copper,L4,Bot*
G04 #@! TF.FilePolarity,Positive*
%FSLAX46Y46*%
G04 Gerber Fmt 4.6, Leading zero omitted, Abs format (unit mm)*
G04 Created by KiCad (PCBNEW 5.1.6-c6e7f7d~87~ubuntu19.10.1) date 2021-07-01 13:16:57*
%MOMM*%
%LPD*%
G01*
G04 APERTURE LIST*
G04 #@! TA.AperFunction,ComponentPad*
%ADD10C,1.524000*%
G04 #@! TD*
G04 #@! TA.AperFunction,ComponentPad*
%ADD11R,1.750000X1.750000*%
G04 #@! TD*
G04 #@! TA.AperFunction,ComponentPad*
%ADD12C,1.750000*%
G04 #@! TD*
G04 #@! TA.AperFunction,ComponentPad*
%ADD13O,1.200000X1.750000*%
G04 #@! TD*
G04 #@! TA.AperFunction,ComponentPad*
%ADD14R,1.200000X1.750000*%
G04 #@! TD*
G04 #@! TA.AperFunction,ComponentPad*
%ADD15C,2.450000*%
G04 #@! TD*
G04 #@! TA.AperFunction,ComponentPad*
%ADD16R,1.250000X1.750000*%
G04 #@! TD*
G04 #@! TA.AperFunction,ComponentPad*
%ADD17O,1.250000X1.750000*%
G04 #@! TD*
G04 #@! TA.AperFunction,ComponentPad*
%ADD18O,2.000000X0.700000*%
G04 #@! TD*
G04 #@! TA.AperFunction,ComponentPad*
%ADD19R,2.000000X0.700000*%
G04 #@! TD*
G04 #@! TA.AperFunction,Conductor*
%ADD20C,0.500000*%
G04 #@! TD*
G04 #@! TA.AperFunction,Conductor*
%ADD21C,1.000000*%
G04 #@! TD*
G04 #@! TA.AperFunction,Conductor*
%ADD22C,2.000000*%
G04 #@! TD*
G04 #@! TA.AperFunction,Conductor*
%ADD23C,3.000000*%
G04 #@! TD*
G04 APERTURE END LIST*
D10*
X121640000Y-55000000D03*
X119100000Y-55000000D03*
X116560000Y-55000000D03*
X114020000Y-55000000D03*
X111480000Y-55000000D03*
X108940000Y-55000000D03*
X106400000Y-55000000D03*
X121700000Y-82600000D03*
X119160000Y-82600000D03*
X116620000Y-82600000D03*
X114080000Y-82600000D03*
X111540000Y-82600000D03*
X109000000Y-82600000D03*
X106460000Y-82600000D03*
D11*
X88340000Y-96115000D03*
D12*
X88340000Y-91035000D03*
X88340000Y-88495000D03*
X88340000Y-85955000D03*
X88340000Y-83415000D03*
X83260000Y-83415000D03*
X83260000Y-85955000D03*
X83260000Y-88495000D03*
X83260000Y-91035000D03*
X83260000Y-96115000D03*
D13*
X44525000Y-113895000D03*
X44525000Y-111355000D03*
X47065000Y-113895000D03*
X47065000Y-111355000D03*
X49605000Y-113895000D03*
X49605000Y-111355000D03*
X52145000Y-113895000D03*
X52145000Y-111355000D03*
X54685000Y-113895000D03*
X54685000Y-111355000D03*
X57225000Y-113895000D03*
X57225000Y-111355000D03*
X59765000Y-113895000D03*
X59765000Y-111355000D03*
X62305000Y-113895000D03*
X62305000Y-111355000D03*
X64845000Y-113895000D03*
X64845000Y-111355000D03*
X67385000Y-113895000D03*
X67385000Y-111355000D03*
X69925000Y-113895000D03*
X69925000Y-111355000D03*
X72465000Y-113895000D03*
X72465000Y-111355000D03*
X75005000Y-113895000D03*
X75005000Y-111355000D03*
X77545000Y-113895000D03*
X77545000Y-111355000D03*
X80085000Y-113895000D03*
X80085000Y-111355000D03*
X82625000Y-113895000D03*
X82625000Y-111355000D03*
X85165000Y-113895000D03*
X85165000Y-111355000D03*
X87705000Y-113895000D03*
X87705000Y-111355000D03*
X90245000Y-113895000D03*
X90245000Y-111355000D03*
X92785000Y-113895000D03*
D14*
X92785000Y-111355000D03*
D13*
X43255000Y-67540000D03*
D15*
X45795000Y-71430000D03*
D13*
X52145000Y-67540000D03*
X53415000Y-70080000D03*
X54685000Y-67540000D03*
X55955000Y-70080000D03*
X57225000Y-67540000D03*
D15*
X30360000Y-56620000D03*
X61230000Y-56620000D03*
D13*
X50875000Y-70080000D03*
X49605000Y-67540000D03*
X48335000Y-70080000D03*
X41985000Y-70080000D03*
X40715000Y-67540000D03*
X39445000Y-70080000D03*
X38175000Y-67540000D03*
X36905000Y-70080000D03*
X35635000Y-67540000D03*
X34365000Y-70080000D03*
D11*
X88340000Y-98655000D03*
D12*
X83260000Y-98655000D03*
X28650000Y-93575000D03*
X28650000Y-83415000D03*
D11*
X22590000Y-105005000D03*
D12*
X22590000Y-110085000D03*
X64845000Y-78335000D03*
X59765000Y-78335000D03*
X62305000Y-78335000D03*
X47065000Y-78335000D03*
X57225000Y-78335000D03*
X94400000Y-99925000D03*
X94400000Y-94845000D03*
X94400000Y-89765000D03*
X94400000Y-84685000D03*
D11*
X36270000Y-85955000D03*
D12*
X31190000Y-85955000D03*
X57225000Y-101195000D03*
X57225000Y-91035000D03*
X85800000Y-101195000D03*
X83260000Y-101195000D03*
X88340000Y-101195000D03*
X64845000Y-101195000D03*
X59765000Y-101195000D03*
X62305000Y-101195000D03*
X85800000Y-78335000D03*
X83260000Y-78335000D03*
X88340000Y-78335000D03*
X33730000Y-83415000D03*
X31190000Y-83415000D03*
X36270000Y-83415000D03*
X28650000Y-96115000D03*
X28650000Y-106275000D03*
X31190000Y-101195000D03*
X31190000Y-96115000D03*
X31190000Y-93575000D03*
X31190000Y-91035000D03*
X31190000Y-88495000D03*
X36270000Y-88495000D03*
X36270000Y-91035000D03*
X36270000Y-93575000D03*
X36270000Y-96115000D03*
D11*
X36270000Y-101195000D03*
D12*
X36270000Y-106275000D03*
X31190000Y-106275000D03*
X33730000Y-106275000D03*
X80720000Y-88495000D03*
X80720000Y-78335000D03*
X80720000Y-91035000D03*
X80720000Y-101195000D03*
X59765000Y-96115000D03*
X59765000Y-91035000D03*
X59765000Y-88495000D03*
X59765000Y-85955000D03*
X59765000Y-83415000D03*
X64845000Y-83415000D03*
X64845000Y-85955000D03*
X64845000Y-88495000D03*
X64845000Y-91035000D03*
D11*
X64845000Y-96115000D03*
D12*
X22590000Y-84050000D03*
X22590000Y-89130000D03*
X22590000Y-94210000D03*
X22590000Y-99290000D03*
X59765000Y-98655000D03*
D11*
X64845000Y-98655000D03*
D12*
X83260000Y-80875000D03*
D11*
X88340000Y-80875000D03*
D12*
X31190000Y-103735000D03*
D11*
X36270000Y-103735000D03*
D13*
X66115000Y-70080000D03*
X67385000Y-67540000D03*
X68655000Y-70080000D03*
X69925000Y-67540000D03*
X71195000Y-70080000D03*
X72465000Y-67540000D03*
X73735000Y-70080000D03*
X80085000Y-70080000D03*
X81355000Y-67540000D03*
X82625000Y-70080000D03*
D15*
X92980000Y-56620000D03*
X62110000Y-56620000D03*
D13*
X88975000Y-67540000D03*
X87705000Y-70080000D03*
X86435000Y-67540000D03*
X85165000Y-70080000D03*
X83895000Y-67540000D03*
D15*
X77545000Y-71430000D03*
D13*
X75005000Y-67540000D03*
D12*
X77545000Y-75160000D03*
X77545000Y-77700000D03*
D11*
X77545000Y-80240000D03*
D12*
X59765000Y-80875000D03*
D11*
X64845000Y-80875000D03*
D12*
X20320000Y-33020000D03*
X20320000Y-22860000D03*
X20445000Y-20000000D03*
X22985000Y-20000000D03*
X17905000Y-20000000D03*
X43940000Y-15640000D03*
X46480000Y-15640000D03*
X49020000Y-15640000D03*
X51560000Y-15640000D03*
X54100000Y-15640000D03*
X56640000Y-15640000D03*
X59180000Y-15640000D03*
X61720000Y-15640000D03*
X64260000Y-15640000D03*
X66800000Y-15640000D03*
X69340000Y-15640000D03*
X71880000Y-15640000D03*
X74420000Y-15640000D03*
X76960000Y-15640000D03*
X79500000Y-15640000D03*
X82040000Y-15640000D03*
X84580000Y-15640000D03*
X87120000Y-15640000D03*
X89660000Y-15640000D03*
D11*
X92200000Y-15640000D03*
D10*
X48800000Y-44300000D03*
X48800000Y-41760000D03*
X48800000Y-39220000D03*
X48800000Y-36680000D03*
X48800000Y-34140000D03*
X48800000Y-31600000D03*
X48800000Y-29060000D03*
D16*
X80389000Y21190000D03*
D17*
X82421000Y21190000D03*
D12*
X24890000Y-2305000D03*
D11*
X24890000Y-9925000D03*
D12*
X76960000Y21190000D03*
X74420000Y21190000D03*
X71880000Y21190000D03*
X69340000Y21190000D03*
X66800000Y21190000D03*
X64260000Y21190000D03*
D11*
X61720000Y21190000D03*
D12*
X19175000Y18360000D03*
X24255000Y18360000D03*
X29335000Y18360000D03*
X34415000Y18360000D03*
X76960000Y-11830000D03*
X74420000Y-11830000D03*
X71880000Y-11830000D03*
X69340000Y-11830000D03*
X66800000Y-11830000D03*
X64260000Y-11830000D03*
D11*
X61720000Y-11830000D03*
D12*
X20445000Y-16000000D03*
X22985000Y-16000000D03*
X39370000Y21190000D03*
D11*
X41910000Y21190000D03*
X106805000Y-19160000D03*
D12*
X111885000Y-19160000D03*
D10*
X73400000Y-44240000D03*
X73400000Y-41700000D03*
X73400000Y-39160000D03*
X73400000Y-36620000D03*
X73400000Y-34080000D03*
X73400000Y-31540000D03*
X73400000Y-29000000D03*
D13*
X64260000Y16110000D03*
X62990000Y13570000D03*
X61720000Y16110000D03*
X60450000Y13570000D03*
X59180000Y16110000D03*
X57910000Y13570000D03*
X56640000Y16110000D03*
X50290000Y16110000D03*
X49020000Y13570000D03*
X47750000Y16110000D03*
D15*
X37395000Y2650000D03*
X68265000Y2650000D03*
D13*
X41400000Y13570000D03*
X42670000Y16110000D03*
X43940000Y13570000D03*
X45210000Y16110000D03*
X46480000Y13570000D03*
D15*
X52830000Y17460000D03*
D13*
X55370000Y13570000D03*
X87120000Y13570000D03*
D15*
X84580000Y17460000D03*
D13*
X78230000Y13570000D03*
X76960000Y16110000D03*
X75690000Y13570000D03*
X74420000Y16110000D03*
X73150000Y13570000D03*
D15*
X100015000Y2650000D03*
X69145000Y2650000D03*
D13*
X79500000Y16110000D03*
X80770000Y13570000D03*
X82040000Y16110000D03*
X88390000Y16110000D03*
X89660000Y13570000D03*
X90930000Y16110000D03*
X92200000Y13570000D03*
X93470000Y16110000D03*
X94740000Y13570000D03*
X96010000Y16110000D03*
D11*
X130575000Y9075000D03*
D12*
X128035000Y9075000D03*
X125495000Y9075000D03*
X122955000Y9075000D03*
X120415000Y9075000D03*
X117875000Y9075000D03*
X115335000Y9075000D03*
X22800000Y-26600000D03*
X22800000Y-29140000D03*
X22800000Y-31680000D03*
X22800000Y-34220000D03*
X22800000Y-36760000D03*
X22800000Y-39300000D03*
D11*
X22800000Y-41840000D03*
D12*
X28029601Y-16856194D03*
X25400000Y-26670000D03*
X17780000Y-38100000D03*
X17780000Y-27940000D03*
X34608087Y-35711198D03*
X25400000Y-40005000D03*
D11*
X27940000Y-43815000D03*
D12*
X30480000Y-43815000D03*
X33020000Y-43815000D03*
D11*
X97750000Y-29490000D03*
D12*
X97750000Y-32030000D03*
X97750000Y-34570000D03*
X97750000Y-37110000D03*
X97750000Y-39650000D03*
D18*
X137850000Y-35555000D03*
X137850000Y-31745000D03*
D19*
X137850000Y-33015000D03*
D18*
X137850000Y-34285000D03*
D20*
X80770000Y17380000D02*
X80770000Y13570000D01*
D21*
X82421000Y20101998D02*
X82421000Y21190000D01*
X80770000Y17380000D02*
X80770000Y18450998D01*
X80770000Y18450998D02*
X82421000Y20101998D01*
D22*
X43940000Y-15640000D02*
X51560000Y-15640000D01*
X59180000Y-15640000D02*
X69340000Y-15640000D01*
X79500000Y-15640000D02*
X87120000Y-15640000D01*
D21*
X77724999Y-13864999D02*
X79500000Y-15640000D01*
X71115001Y-13864999D02*
X77724999Y-13864999D01*
X69340000Y-15640000D02*
X71115001Y-13864999D01*
X72385001Y-13864999D02*
X71115001Y-13864999D01*
X74420000Y-11830000D02*
X72385001Y-13864999D01*
X76454999Y-13864999D02*
X77724999Y-13864999D01*
X74420000Y-11830000D02*
X76454999Y-13864999D01*
X88895001Y-17415001D02*
X87120000Y-15640000D01*
X90424999Y-17415001D02*
X88895001Y-17415001D01*
X92200000Y-15640000D02*
X90424999Y-17415001D01*
X53335001Y-17415001D02*
X51560000Y-15640000D01*
X57404999Y-17415001D02*
X53335001Y-17415001D01*
X59180000Y-15640000D02*
X57404999Y-17415001D01*
D22*
X24890000Y-2305000D02*
X24890000Y2390000D01*
X24890000Y2390000D02*
X41000000Y18500000D01*
X41000000Y18500000D02*
X45730000Y18500000D01*
X47750000Y16110000D02*
X47750000Y17750000D01*
X47000000Y18500000D02*
X45730000Y18500000D01*
X47750000Y17750000D02*
X47000000Y18500000D01*
X47750000Y17750000D02*
X53524990Y23524990D01*
X74420000Y22427436D02*
X74420000Y21190000D01*
X73322446Y23524990D02*
X74420000Y22427436D01*
X53524990Y23524990D02*
X73322446Y23524990D01*
X74420000Y22427436D02*
X75492564Y23500000D01*
X82421000Y23178002D02*
X82421000Y21190000D01*
X82099002Y23500000D02*
X82421000Y23178002D01*
X75492564Y23500000D02*
X82099002Y23500000D01*
D21*
X17905000Y-9290000D02*
X24890000Y-2305000D01*
X17905000Y-20000000D02*
X17905000Y-9290000D01*
X17905000Y-24245000D02*
X22800000Y-29140000D01*
X17905000Y-20000000D02*
X17905000Y-24245000D01*
X22985000Y-18815000D02*
X22985000Y-20000000D01*
X22985000Y-15640000D02*
X22985000Y-18815000D01*
D20*
X57978890Y11596110D02*
X59180000Y12797219D01*
X59180000Y12797219D02*
X59180000Y16110000D01*
D21*
X20445000Y-18815000D02*
X20445000Y-20000000D01*
X20445000Y-10999998D02*
X20445000Y-18815000D01*
X32192500Y747502D02*
X20445000Y-10999998D01*
X32192500Y3092500D02*
X32192500Y747502D01*
X39124991Y10024991D02*
X32192500Y3092500D01*
X56407771Y10024991D02*
X39124991Y10024991D01*
X57978890Y11596110D02*
X56407771Y10024991D01*
D22*
X33465001Y-97207001D02*
X31752003Y-98919999D01*
X31752003Y-98919999D02*
X30097999Y-98919999D01*
X24865001Y-104152997D02*
X24865001Y-107809999D01*
X24865001Y-107809999D02*
X22590000Y-110085000D01*
X36270000Y-91035000D02*
X35032564Y-91035000D01*
X35032564Y-91035000D02*
X33465001Y-92602563D01*
X33465001Y-92602563D02*
X33465001Y-97207001D01*
X30097999Y-98919999D02*
X24865001Y-104152997D01*
D21*
X61720000Y21190000D02*
X71115010Y11794990D01*
X73914990Y11794990D02*
X75690000Y13570000D01*
X71115010Y11794990D02*
X73914990Y11794990D01*
D23*
X69145000Y2650000D02*
X100015000Y2650000D01*
D22*
X93470000Y16110000D02*
X96010000Y16110000D01*
X96010000Y16110000D02*
X96010000Y14840000D01*
X96010000Y14840000D02*
X94740000Y13570000D01*
X93470000Y16110000D02*
X93470000Y14840000D01*
X93470000Y14840000D02*
X92200000Y13570000D01*
X92200000Y13570000D02*
X94740000Y13570000D01*
D23*
X100015000Y-595000D02*
X100015000Y2650000D01*
X93754999Y5527999D02*
X95587999Y3694999D01*
X95587999Y3694999D02*
X95725001Y3694999D01*
X95725001Y3694999D02*
X100015000Y-595000D01*
X100015000Y2650000D02*
X96632998Y2650000D01*
X93754999Y12584999D02*
X94740000Y13570000D01*
X96632998Y2650000D02*
X93754999Y5527999D01*
X93754999Y5527999D02*
X93754999Y12584999D01*
X37395000Y2650000D02*
X68265000Y2650000D01*
X100015000Y-732002D02*
X100015000Y-595000D01*
X111885000Y-12602002D02*
X100015000Y-732002D01*
X111885000Y-19160000D02*
X111885000Y-12602002D01*
D21*
X38810000Y-82145000D02*
X38810000Y-98020000D01*
X38810000Y-98020000D02*
X52145000Y-111355000D01*
X34365000Y-77700000D02*
X38810000Y-82145000D01*
X34365000Y-70080000D02*
X34365000Y-77700000D01*
X42620000Y-97385000D02*
X54685000Y-109450000D01*
X54685000Y-109450000D02*
X54685000Y-111355000D01*
X42620000Y-80875000D02*
X42620000Y-97385000D01*
X39445000Y-77700000D02*
X42620000Y-80875000D01*
X39445000Y-70080000D02*
X39445000Y-77700000D01*
X44525000Y-80240000D02*
X44525000Y-96750000D01*
X41985000Y-77700000D02*
X44525000Y-80240000D01*
X41985000Y-70080000D02*
X41985000Y-77700000D01*
X57225000Y-109450000D02*
X57225000Y-111355000D01*
X44525000Y-96750000D02*
X57225000Y-109450000D01*
X36905000Y-70080000D02*
X36905000Y-77700000D01*
D20*
X52145000Y-113620000D02*
X53395010Y-112369990D01*
X52145000Y-113895000D02*
X52145000Y-113620000D01*
X53395010Y-112369990D02*
X53395010Y-110562229D01*
X53395010Y-110562229D02*
X51647781Y-108815000D01*
D21*
X40715000Y-81510000D02*
X40715000Y-97882219D01*
X40715000Y-97882219D02*
X51647781Y-108815000D01*
X36905000Y-77700000D02*
X40715000Y-81510000D01*
D22*
X59765000Y-78335000D02*
X59765000Y-70080000D01*
X59765000Y-70080000D02*
X57225000Y-67540000D01*
D20*
X136801280Y-31745000D02*
X136171270Y-32375010D01*
X137850000Y-31745000D02*
X136801280Y-31745000D01*
X133624991Y-31950308D02*
X133624991Y-30575009D01*
X134049693Y-32375010D02*
X133624991Y-31950308D01*
X136171270Y-32375010D02*
X134049693Y-32375010D01*
D21*
X130550000Y6806372D02*
X130550000Y5999912D01*
X130575000Y6831372D02*
X130550000Y6806372D01*
X130575000Y9075000D02*
X130575000Y6831372D01*
X130550000Y5999912D02*
X133798805Y2751107D01*
X133798805Y2751107D02*
X133798805Y2681108D01*
X133798805Y2681108D02*
X133798805Y-30575009D01*
D20*
X137589980Y-34024980D02*
X133924980Y-34024980D01*
X137850000Y-34285000D02*
X137589980Y-34024980D01*
X133924980Y-34024980D02*
X132450000Y-32550000D01*
X132450000Y-32550000D02*
X132450000Y-30450000D01*
D21*
X125495000Y9075000D02*
X131150000Y3420000D01*
X131150000Y3420000D02*
X131150000Y3350000D01*
X132398795Y-32498795D02*
X133550000Y-33650000D01*
X132398795Y2101205D02*
X132398795Y-32498795D01*
X131150000Y3350000D02*
X132398795Y2101205D01*
X133550000Y-33650000D02*
X134600040Y-33650000D01*
X134600040Y-33650000D02*
X134650000Y-33650000D01*
X134650000Y-33650000D02*
X134900040Y-33650000D01*
X134900040Y-33650000D02*
X135750000Y-33650000D01*
D20*
X136801283Y-35555000D02*
X136431293Y-35185010D01*
X137850000Y-35555000D02*
X136801283Y-35555000D01*
X136801283Y-35555000D02*
X136171272Y-34924989D01*
X136171272Y-34924989D02*
X132924989Y-34924989D01*
D21*
X122955000Y9075000D02*
X130950000Y1080000D01*
X132970097Y-35050010D02*
X133323651Y-35050010D01*
X130950000Y-33029913D02*
X132970097Y-35050010D01*
X130950000Y1080000D02*
X130950000Y-33029913D01*
X94785001Y-111355000D02*
X94785001Y-112450001D01*
X94785001Y-112450001D02*
X93340002Y-113895000D01*
X93340002Y-113895000D02*
X92785000Y-113895000D01*
D22*
X94785001Y-109359999D02*
X94785001Y-111355000D01*
X85237988Y-109079990D02*
X94504992Y-109079990D01*
X78444999Y-102287001D02*
X85237988Y-109079990D01*
X78444999Y-100857563D02*
X78444999Y-102287001D01*
X64845000Y-88495000D02*
X66082436Y-88495000D01*
X66082436Y-88495000D02*
X78444999Y-100857563D01*
X94504992Y-109079990D02*
X94785001Y-109359999D01*
X24865001Y-73229999D02*
X30555000Y-67540000D01*
X30555000Y-67540000D02*
X35635000Y-67540000D01*
X22590000Y-99290000D02*
X24865001Y-97014999D01*
X24865001Y-97014999D02*
X24865001Y-73229999D01*
D21*
X68655000Y-103100000D02*
X75005000Y-109450000D01*
X75005000Y-109450000D02*
X75005000Y-111355000D01*
X68655000Y-96554998D02*
X68655000Y-103100000D01*
X59000001Y-92810001D02*
X64910003Y-92810001D01*
X57225000Y-91035000D02*
X59000001Y-92810001D01*
X64910003Y-92810001D02*
X68655000Y-96554998D01*
X45160000Y-109450000D02*
X31825000Y-109450000D01*
X31825000Y-109450000D02*
X28650000Y-106275000D01*
D20*
X45775010Y-110065010D02*
X45160000Y-109450000D01*
X47065000Y-113397781D02*
X45775010Y-112107791D01*
X47065000Y-113895000D02*
X47065000Y-113397781D01*
X45775010Y-112107791D02*
X45775010Y-110065010D01*
D22*
X64845000Y-85955000D02*
X66082436Y-85955000D01*
X66082436Y-85955000D02*
X67120001Y-84917435D01*
X67120001Y-73960001D02*
X66115000Y-72955000D01*
X67120001Y-84917435D02*
X67120001Y-73960001D01*
X66115000Y-72955000D02*
X66115000Y-70080000D01*
X81355000Y-67540000D02*
X83895000Y-67540000D01*
X80085000Y-70080000D02*
X80085000Y-68810000D01*
X80085000Y-68810000D02*
X81355000Y-67540000D01*
X97865000Y-88150000D02*
X94400000Y-84685000D01*
X89610000Y-73255000D02*
X82925000Y-73255000D01*
X82925000Y-73255000D02*
X80085000Y-70415000D01*
X80085000Y-70415000D02*
X80085000Y-70080000D01*
X94400000Y-78045000D02*
X89610000Y-73255000D01*
X94400000Y-84685000D02*
X94400000Y-78045000D01*
X81990000Y-70080000D02*
X82625000Y-70080000D01*
X80085000Y-70080000D02*
X81990000Y-70080000D01*
X81355000Y-67540000D02*
X81355000Y-69445000D01*
X81355000Y-69445000D02*
X81990000Y-70080000D01*
X96675001Y-92569999D02*
X96965001Y-92569999D01*
X96965001Y-92569999D02*
X97865000Y-91670000D01*
X97865000Y-91670000D02*
X97865000Y-88150000D01*
X94400000Y-94845000D02*
X96675001Y-92569999D01*
X62110000Y-56620000D02*
X74880000Y-56620000D01*
X74880000Y-56620000D02*
X81355000Y-63095000D01*
X61230000Y-56620000D02*
X62110000Y-56620000D01*
X30360000Y-56620000D02*
X61230000Y-56620000D01*
X87705000Y-56745000D02*
X81355000Y-63095000D01*
X81355000Y-63095000D02*
X81355000Y-67540000D01*
X90212998Y-56745000D02*
X87705000Y-56745000D01*
X92980000Y-56620000D02*
X90337998Y-56620000D01*
X90337998Y-56620000D02*
X90212998Y-56745000D01*
X83895000Y-67540000D02*
X82625000Y-68810000D01*
X82625000Y-68810000D02*
X82625000Y-70080000D01*
D21*
X23565000Y-41840000D02*
X25400000Y-40005000D01*
X22800000Y-41840000D02*
X23565000Y-41840000D01*
D22*
X85800000Y-101195000D02*
X85800000Y-95287998D01*
X85800000Y-95287998D02*
X83822003Y-93310001D01*
X83822003Y-93310001D02*
X82167999Y-93310001D01*
X82167999Y-93310001D02*
X80720000Y-91862002D01*
X80720000Y-91862002D02*
X80720000Y-91035000D01*
X62305000Y-101195000D02*
X62305000Y-102432436D01*
X62305000Y-102432436D02*
X61267435Y-103470001D01*
X61267435Y-103470001D02*
X58672999Y-103470001D01*
X58672999Y-103470001D02*
X57225000Y-102022002D01*
X57225000Y-102022002D02*
X57225000Y-101195000D01*
D21*
X25330000Y-26600000D02*
X25400000Y-26670000D01*
X22800000Y-26600000D02*
X25330000Y-26600000D01*
X117110001Y7299999D02*
X122600001Y7299999D01*
X115335000Y9075000D02*
X117110001Y7299999D01*
X122600001Y7299999D02*
X129350000Y550000D01*
X129350000Y550000D02*
X129350000Y-31050000D01*
X97750000Y-39650000D02*
X99150000Y-39650000D01*
X99150000Y-39650000D02*
X104850000Y-33950000D01*
X104850000Y-33950000D02*
X126450000Y-33950000D01*
X129350000Y-31050000D02*
X126450000Y-33950000D01*
M02*
