G04 #@! TF.FileFunction,Profile,NP*
%FSLAX46Y46*%
G04 Gerber Fmt 4.6, Leading zero omitted, Abs format (unit mm)*
G04 Created by KiCad (PCBNEW 4.0.2+dfsg1-stable) date pe 11. elokuuta 2017 15.41.08*
%MOMM*%
G01*
G04 APERTURE LIST*
%ADD10C,0.100000*%
%ADD11C,0.150000*%
G04 APERTURE END LIST*
D10*
D11*
X114935000Y-162560000D02*
X114935000Y-160020000D01*
X112395000Y-162560000D02*
X114935000Y-162560000D01*
X112395000Y-160020000D02*
X112395000Y-162560000D01*
X114935000Y-160020000D02*
X112395000Y-160020000D01*
X114935000Y-164465000D02*
X112395000Y-164465000D01*
X114935000Y-158115000D02*
X114935000Y-156845000D01*
X112395000Y-158115000D02*
X114935000Y-158115000D01*
X112395000Y-156845000D02*
X112395000Y-158115000D01*
X104775000Y-159385000D02*
X102235000Y-159385000D01*
X104775000Y-161925000D02*
X104775000Y-159385000D01*
X102235000Y-161925000D02*
X104775000Y-161925000D01*
X102235000Y-159385000D02*
X102235000Y-161925000D01*
X104775000Y-157480000D02*
X104775000Y-156210000D01*
X102235000Y-157480000D02*
X104775000Y-157480000D01*
X102235000Y-156210000D02*
X102235000Y-157480000D01*
X104775000Y-163830000D02*
X102235000Y-163830000D01*
X106680000Y-154305000D02*
X104775000Y-154305000D01*
X106680000Y-151765000D02*
X106680000Y-154305000D01*
X106045000Y-151765000D02*
X106680000Y-151765000D01*
X104775000Y-151765000D02*
X106045000Y-151765000D01*
X109220000Y-153035000D02*
X109220000Y-153670000D01*
X114935000Y-146050000D02*
X114300000Y-146050000D01*
X114935000Y-146685000D02*
X114935000Y-146050000D01*
X115570000Y-143510000D02*
X116205000Y-142875000D01*
X114935000Y-143510000D02*
X115570000Y-143510000D01*
X114300000Y-143510000D02*
X114935000Y-143510000D01*
X112395000Y-137795000D02*
X112395000Y-138430000D01*
X114935000Y-137795000D02*
X114300000Y-137795000D01*
X114935000Y-137795000D02*
X114935000Y-138430000D01*
X115570000Y-135255000D02*
X114300000Y-135255000D01*
X116205000Y-134620000D02*
X115570000Y-135255000D01*
X112395000Y-135255000D02*
X112395000Y-132080000D01*
X132080000Y-142875000D02*
X132080000Y-142240000D01*
X129540000Y-142875000D02*
X129540000Y-142240000D01*
X141605000Y-142875000D02*
X141605000Y-142240000D01*
X144145000Y-142875000D02*
X144145000Y-142240000D01*
X154305000Y-142875000D02*
X154305000Y-142240000D01*
X156845000Y-142875000D02*
X156845000Y-142240000D01*
X109220000Y-154305000D02*
X109220000Y-153670000D01*
X114935000Y-146685000D02*
X114935000Y-147320000D01*
X114935000Y-138430000D02*
X114935000Y-139065000D01*
X114300000Y-135255000D02*
X112395000Y-135255000D01*
X156845000Y-142875000D02*
X172720000Y-142875000D01*
X156845000Y-140335000D02*
X156845000Y-142240000D01*
X156845000Y-140335000D02*
X168275000Y-140335000D01*
X154305000Y-142875000D02*
X151765000Y-142875000D01*
X154305000Y-140335000D02*
X154305000Y-142240000D01*
X151765000Y-140335000D02*
X154305000Y-140335000D01*
X124460000Y-142875000D02*
X121920000Y-142875000D01*
X121920000Y-140335000D02*
X124460000Y-140335000D01*
X151765000Y-142875000D02*
X144145000Y-142875000D01*
X144145000Y-140335000D02*
X151765000Y-140335000D01*
X132080000Y-140335000D02*
X141605000Y-140335000D01*
X132080000Y-142240000D02*
X132080000Y-140335000D01*
X132715000Y-142875000D02*
X132080000Y-142875000D01*
X124460000Y-140335000D02*
X129540000Y-140335000D01*
X114935000Y-140335000D02*
X121920000Y-140335000D01*
X114300000Y-137795000D02*
X112395000Y-137795000D01*
X104775000Y-151765000D02*
X103505000Y-151765000D01*
X104775000Y-165735000D02*
X104775000Y-163830000D01*
X104775000Y-154305000D02*
X104775000Y-154940000D01*
X109220000Y-153035000D02*
X109220000Y-151130000D01*
X109855000Y-154305000D02*
X109220000Y-154305000D01*
X132715000Y-142875000D02*
X141605000Y-142875000D01*
X124460000Y-142875000D02*
X129540000Y-142875000D01*
X116205000Y-142875000D02*
X121920000Y-142875000D01*
X100965000Y-154940000D02*
X102235000Y-156210000D01*
X106045000Y-167005000D02*
X108585000Y-167005000D01*
X104775000Y-165735000D02*
X106045000Y-167005000D01*
X168275000Y-134620000D02*
X168275000Y-139700000D01*
X163195000Y-134620000D02*
X168275000Y-134620000D01*
X162560000Y-133985000D02*
X163195000Y-134620000D01*
X161925000Y-133985000D02*
X162560000Y-133985000D01*
X158115000Y-133985000D02*
X161925000Y-133985000D01*
X158115000Y-132080000D02*
X158115000Y-133985000D01*
X156845000Y-130810000D02*
X158115000Y-132080000D01*
X137795000Y-130810000D02*
X156845000Y-130810000D01*
X137795000Y-132715000D02*
X137795000Y-130810000D01*
X129540000Y-132715000D02*
X137795000Y-132715000D01*
X127635000Y-134620000D02*
X129540000Y-132715000D01*
X116205000Y-134620000D02*
X127635000Y-134620000D01*
X168275000Y-140335000D02*
X168275000Y-139700000D01*
X114935000Y-139065000D02*
X114935000Y-140335000D01*
X129540000Y-142240000D02*
X129540000Y-140335000D01*
X141605000Y-142240000D02*
X141605000Y-140335000D01*
X144145000Y-140335000D02*
X144145000Y-142240000D01*
X114935000Y-165100000D02*
X114935000Y-164465000D01*
X114935000Y-156845000D02*
X114935000Y-147320000D01*
X172720000Y-142875000D02*
X173990000Y-144145000D01*
X173990000Y-165735000D02*
X173990000Y-144145000D01*
X172720000Y-167005000D02*
X173990000Y-165735000D01*
X116205000Y-167005000D02*
X172720000Y-167005000D01*
X114935000Y-165100000D02*
X114935000Y-165735000D01*
X114935000Y-165735000D02*
X116205000Y-167005000D01*
X114300000Y-146050000D02*
X113665000Y-146050000D01*
X113665000Y-143510000D02*
X114300000Y-143510000D01*
X112395000Y-164465000D02*
X112395000Y-165735000D01*
X111125000Y-155575000D02*
X109855000Y-155575000D01*
X111125000Y-155575000D02*
X112395000Y-156845000D01*
X112395000Y-151130000D02*
X112395000Y-146050000D01*
X112395000Y-146050000D02*
X113665000Y-146050000D01*
X112395000Y-139700000D02*
X112395000Y-138430000D01*
X113665000Y-143510000D02*
X112395000Y-143510000D01*
X112395000Y-139700000D02*
X112395000Y-143510000D01*
X104775000Y-156210000D02*
X104775000Y-154940000D01*
X109855000Y-154305000D02*
X109855000Y-155575000D01*
X109855000Y-165735000D02*
X112395000Y-165735000D01*
X108585000Y-167005000D02*
X109855000Y-165735000D01*
X102235000Y-165100000D02*
X102235000Y-163830000D01*
X100965000Y-165100000D02*
X102235000Y-165100000D01*
X95250000Y-165100000D02*
X100965000Y-165100000D01*
X93980000Y-163830000D02*
X95250000Y-165100000D01*
X93980000Y-156210000D02*
X93980000Y-163830000D01*
X95250000Y-154940000D02*
X93980000Y-156210000D01*
X100965000Y-154940000D02*
X95250000Y-154940000D01*
X109220000Y-151130000D02*
X112395000Y-151130000D01*
X101600000Y-149860000D02*
X103505000Y-151765000D01*
X101600000Y-147320000D02*
X101600000Y-149860000D01*
X101600000Y-146050000D02*
X101600000Y-147320000D01*
X100330000Y-146050000D02*
X101600000Y-146050000D01*
X99060000Y-144780000D02*
X100330000Y-146050000D01*
X99060000Y-133350000D02*
X99060000Y-144780000D01*
X102235000Y-133350000D02*
X99060000Y-133350000D01*
X102235000Y-132080000D02*
X102235000Y-133350000D01*
X103505000Y-130810000D02*
X102235000Y-132080000D01*
X109855000Y-130810000D02*
X103505000Y-130810000D01*
X111125000Y-130810000D02*
X109855000Y-130810000D01*
X112395000Y-132080000D02*
X111125000Y-130810000D01*
M02*
