G04 #@! TF.GenerationSoftware,KiCad,Pcbnew,5.1.6-c6e7f7d~86~ubuntu19.10.1*
G04 #@! TF.CreationDate,2021-02-01T15:35:38+02:00*
G04 #@! TF.ProjectId,authenticator2.0,61757468-656e-4746-9963-61746f72322e,rev?*
G04 #@! TF.SameCoordinates,Original*
G04 #@! TF.FileFunction,Profile,NP*
%FSLAX46Y46*%
G04 Gerber Fmt 4.6, Leading zero omitted, Abs format (unit mm)*
G04 Created by KiCad (PCBNEW 5.1.6-c6e7f7d~86~ubuntu19.10.1) date 2021-02-01 15:35:38*
%MOMM*%
%LPD*%
G01*
G04 APERTURE LIST*
G04 #@! TA.AperFunction,Profile*
%ADD10C,0.150000*%
G04 #@! TD*
G04 #@! TA.AperFunction,Profile*
%ADD11C,0.200000*%
G04 #@! TD*
G04 APERTURE END LIST*
D10*
X101600000Y-107315000D02*
X101600000Y-109855000D01*
X101600000Y-74295000D02*
X101600000Y-76835000D01*
X81915000Y-63500000D02*
X100330000Y-63500000D01*
X81915000Y-60325000D02*
X81915000Y-63500000D01*
X79375000Y-63500000D02*
X79375000Y-60325000D01*
X48895000Y-63500000D02*
X79375000Y-63500000D01*
X48895000Y-60325000D02*
X48895000Y-63500000D01*
X46355000Y-63500000D02*
X46355000Y-60325000D01*
X38100000Y-63500000D02*
X46355000Y-63500000D01*
X80010000Y-135890000D02*
X94615000Y-135890000D01*
X80010000Y-139065000D02*
X80010000Y-135890000D01*
X77470000Y-135890000D02*
X77470000Y-139065000D01*
X73660000Y-135890000D02*
X77470000Y-135890000D01*
X73660000Y-139065000D02*
X73660000Y-135890000D01*
X71120000Y-139065000D02*
X71120000Y-135890000D01*
X64770000Y-135890000D02*
X71120000Y-135890000D01*
X59690000Y-135890000D02*
X62230000Y-135890000D01*
X52705000Y-135890000D02*
X57150000Y-135890000D01*
X36195000Y-135890000D02*
X50165000Y-135890000D01*
X22860000Y-135890000D02*
X33655000Y-135890000D01*
X115570000Y-18415000D02*
X115570000Y-20955000D01*
X115570000Y-34925000D02*
X115570000Y-37465000D01*
X115570000Y-48260000D02*
X115570000Y-50800000D01*
X66675000Y-50800000D02*
X69215000Y-50800000D01*
X61595000Y-50800000D02*
X64135000Y-50800000D01*
X50800000Y-54610000D02*
X53340000Y-54610000D01*
X44450000Y-54610000D02*
X46990000Y-54610000D01*
X107315000Y-66040000D02*
X109855000Y-66040000D01*
X41910000Y-58420000D02*
X41910000Y-55880000D01*
X101600000Y-73025000D02*
X101600000Y-74295000D01*
X46355000Y-60325000D02*
X41910000Y-60325000D01*
X48895000Y-60325000D02*
X57150000Y-60325000D01*
X101600000Y-85090000D02*
X101600000Y-76835000D01*
X76200000Y-60325000D02*
X73660000Y-60325000D01*
X101600000Y-107315000D02*
X101600000Y-101600000D01*
X101600000Y-109855000D02*
X101600000Y-119380000D01*
X91440000Y-60325000D02*
X81915000Y-60325000D01*
X60960000Y-66040000D02*
X50165000Y-66040000D01*
X60960000Y-69215000D02*
X50165000Y-69215000D01*
X73025000Y-69215000D02*
X63500000Y-69215000D01*
X63500000Y-66040000D02*
X73025000Y-66040000D01*
X63500000Y-66040000D02*
X63500000Y-69215000D01*
X60960000Y-69215000D02*
X60960000Y-66040000D01*
X97155000Y-47625000D02*
X96520000Y-47625000D01*
X100330000Y-50800000D02*
X97155000Y-47625000D01*
X100330000Y-63500000D02*
X100330000Y-50800000D01*
X41275000Y-47625000D02*
X96520000Y-47625000D01*
X38100000Y-50800000D02*
X41275000Y-47625000D01*
X38100000Y-50800000D02*
X38100000Y-63500000D01*
X34290000Y-59690000D02*
G75*
G03*
X34290000Y-59690000I-1270000J0D01*
G01*
X94615000Y-135890000D02*
X97155000Y-135890000D01*
X53975000Y-135890000D02*
X56515000Y-135890000D01*
X24765000Y-135890000D02*
X27305000Y-135890000D01*
X97155000Y-135890000D02*
X97155000Y-125730000D01*
X20320000Y-125730000D02*
X20320000Y-135890000D01*
X115570000Y-16510000D02*
X16510000Y-16510000D01*
X16510000Y-16510000D02*
X16510000Y-66040000D01*
X38735000Y-69215000D02*
X41275000Y-69215000D01*
X41275000Y-66040000D02*
X38735000Y-66040000D01*
X45720000Y-66040000D02*
X50165000Y-66040000D01*
X50165000Y-69215000D02*
X45720000Y-69215000D01*
X74295000Y-66040000D02*
X73025000Y-66040000D01*
X74295000Y-69215000D02*
X73025000Y-69215000D01*
X81925000Y-140331600D02*
X81925000Y-139061600D01*
D11*
X81925000Y-144141600D02*
X80655000Y-144141600D01*
X80655000Y-144141600D02*
X80655000Y-145411600D01*
D10*
X69225000Y-140331600D02*
X70495000Y-139061600D01*
D11*
X70495000Y-144141600D02*
X69225000Y-144141600D01*
X69225000Y-144141600D02*
X69225000Y-140331600D01*
X80655000Y-145411600D02*
X79385000Y-146681600D01*
X79385000Y-146681600D02*
X71765000Y-146681600D01*
X71765000Y-146681600D02*
X70495000Y-145411600D01*
X70495000Y-145411600D02*
X70495000Y-144141600D01*
D10*
X81925000Y-140331600D02*
X81925000Y-144141600D01*
X71120000Y-139065000D02*
X70495000Y-139061600D01*
X77470000Y-139065000D02*
X73660000Y-139065000D01*
X81925000Y-139061600D02*
X80010000Y-139065000D01*
X115570000Y-50800000D02*
X115570000Y-55880000D01*
X115570000Y-48260000D02*
X115570000Y-37465000D01*
X33655000Y-139065000D02*
X22860000Y-139065000D01*
X22860000Y-139065000D02*
X22860000Y-135890000D01*
X20320000Y-139065000D02*
X20320000Y-135890000D01*
X41910000Y-54610000D02*
X43180000Y-54610000D01*
X41910000Y-55880000D02*
X41910000Y-54610000D01*
X59055000Y-60325000D02*
X70485000Y-60325000D01*
X95250000Y-60325000D02*
X92075000Y-60325000D01*
X95250000Y-59690000D02*
X95250000Y-60325000D01*
X41910000Y-58420000D02*
X41910000Y-60325000D01*
X41275000Y-69215000D02*
X45720000Y-69215000D01*
X45720000Y-66040000D02*
X41275000Y-66040000D01*
X22860000Y-66040000D02*
X38735000Y-66040000D01*
X38735000Y-69215000D02*
X22860000Y-69215000D01*
X55879400Y-140325600D02*
X57150000Y-139065000D01*
X115570000Y-34925000D02*
X115570000Y-20955000D01*
X50165000Y-139065000D02*
X36195000Y-139065000D01*
X115570000Y-16510000D02*
X115570000Y-18415000D01*
X36195000Y-135890000D02*
X36195000Y-139065000D01*
X33655000Y-139065000D02*
X33655000Y-135890000D01*
X50165000Y-139065000D02*
X50165000Y-135890000D01*
X52705000Y-139065000D02*
X52705000Y-135890000D01*
X115570000Y-55880000D02*
X115570000Y-66040000D01*
X74295000Y-69215000D02*
X95250000Y-69215000D01*
X74295000Y-66040000D02*
X95250000Y-66040000D01*
X97790000Y-66040000D02*
X107315000Y-66040000D01*
X95250000Y-66040000D02*
X95250000Y-69215000D01*
X97790000Y-69215000D02*
X97790000Y-66040000D01*
X20320000Y-66040000D02*
X16510000Y-66040000D01*
X22860000Y-66040000D02*
X22860000Y-69215000D01*
X20320000Y-69215000D02*
X20320000Y-66040000D01*
X109855000Y-66040000D02*
X115570000Y-66040000D01*
X64135000Y-50800000D02*
X64770000Y-50800000D01*
X62230000Y-139065000D02*
X62230000Y-135890000D01*
X61595000Y-139065000D02*
X62230000Y-139065000D01*
X64770000Y-139065000D02*
X64769400Y-139055600D01*
X64770000Y-135890000D02*
X64770000Y-139065000D01*
X69215000Y-50800000D02*
X78740000Y-50800000D01*
X57150000Y-139065000D02*
X57150000Y-135890000D01*
X66675000Y-50800000D02*
X64770000Y-50800000D01*
X59690000Y-139065000D02*
X59690000Y-135890000D01*
X61595000Y-139065000D02*
X59690000Y-139065000D01*
X59690000Y-50800000D02*
X61595000Y-50800000D01*
X53340000Y-54610000D02*
X54610000Y-54610000D01*
X46990000Y-54610000D02*
X50800000Y-54610000D01*
X44450000Y-54610000D02*
X43180000Y-54610000D01*
X101600000Y-119380000D02*
X101600000Y-121920000D01*
X101600000Y-101600000D02*
X101600000Y-85090000D01*
X73660000Y-60325000D02*
X70485000Y-60325000D01*
X76200000Y-60325000D02*
X79375000Y-60325000D01*
X91440000Y-60325000D02*
X92075000Y-60325000D01*
X57150000Y-60325000D02*
X59055000Y-60325000D01*
X16510000Y-91440000D02*
X16510000Y-121920000D01*
X20320000Y-125730000D02*
G75*
G02*
X16510000Y-121920000I0J3810000D01*
G01*
X21413600Y-122029370D02*
G75*
G03*
X21413600Y-122029370I-1500000J0D01*
G01*
X21413600Y-73032770D02*
G75*
G03*
X21413600Y-73032770I-1500000J0D01*
G01*
X79401800Y-73032770D02*
G75*
G03*
X79401800Y-73032770I-1500000J0D01*
G01*
X97790000Y-125730000D02*
X97155000Y-125730000D01*
X101600000Y-120015000D02*
X101600000Y-121920000D01*
X101600000Y-121920000D02*
G75*
G02*
X97790000Y-125730000I-3810000J0D01*
G01*
X97790000Y-69215000D02*
G75*
G02*
X101600000Y-73025000I0J-3810000D01*
G01*
X16510000Y-73025000D02*
X16510000Y-91440000D01*
X16510000Y-73025000D02*
G75*
G02*
X20320000Y-69215000I3810000J0D01*
G01*
D11*
X64769400Y-139055600D02*
X66039400Y-140325600D01*
D10*
X66039400Y-140325600D02*
X66039400Y-146675600D01*
X66039400Y-146675600D02*
X64769400Y-147945600D01*
X64769400Y-147945600D02*
X55879400Y-147945600D01*
D11*
X55879400Y-147945600D02*
X55879400Y-140325600D01*
D10*
X55245000Y-53975000D02*
X54610000Y-54610000D01*
X56515000Y-53975000D02*
X55245000Y-53975000D01*
X57150000Y-53340000D02*
X56515000Y-53975000D01*
X80645000Y-53975000D02*
X80010000Y-53340000D01*
X89535000Y-53975000D02*
X80645000Y-53975000D01*
X90170000Y-54610000D02*
X89535000Y-53975000D01*
X59690000Y-53340000D02*
X57150000Y-53340000D01*
X80010000Y-52070000D02*
X80010000Y-53340000D01*
X78740000Y-50800000D02*
X80010000Y-52070000D01*
X59690000Y-53340000D02*
X59690000Y-50800000D01*
X95250000Y-54610000D02*
X90170000Y-54610000D01*
X95250000Y-59690000D02*
X95250000Y-54610000D01*
X52705000Y-159385000D02*
X20320000Y-159385000D01*
X20320000Y-159385000D02*
X20320000Y-139065000D01*
X52705000Y-139065000D02*
X52705000Y-159385000D01*
M02*
