G04 #@! TF.GenerationSoftware,KiCad,Pcbnew,5.1.6-c6e7f7d~86~ubuntu19.10.1*
G04 #@! TF.CreationDate,2020-10-28T23:58:29+02:00*
G04 #@! TF.ProjectId,authenticator2.0,61757468-656e-4746-9963-61746f72322e,rev?*
G04 #@! TF.SameCoordinates,Original*
G04 #@! TF.FileFunction,Copper,L1,Top*
G04 #@! TF.FilePolarity,Positive*
%FSLAX46Y46*%
G04 Gerber Fmt 4.6, Leading zero omitted, Abs format (unit mm)*
G04 Created by KiCad (PCBNEW 5.1.6-c6e7f7d~86~ubuntu19.10.1) date 2020-10-28 23:58:29*
%MOMM*%
%LPD*%
G01*
G04 APERTURE LIST*
G04 #@! TA.AperFunction,ComponentPad*
%ADD10O,1.200000X1.750000*%
G04 #@! TD*
G04 #@! TA.AperFunction,ComponentPad*
%ADD11C,2.450000*%
G04 #@! TD*
G04 #@! TA.AperFunction,ComponentPad*
%ADD12R,1.200000X1.750000*%
G04 #@! TD*
G04 #@! TA.AperFunction,ComponentPad*
%ADD13C,1.750000*%
G04 #@! TD*
G04 #@! TA.AperFunction,ComponentPad*
%ADD14R,1.750000X1.750000*%
G04 #@! TD*
G04 #@! TA.AperFunction,ComponentPad*
%ADD15O,1.750000X1.200000*%
G04 #@! TD*
G04 #@! TA.AperFunction,ComponentPad*
%ADD16R,1.750000X1.200000*%
G04 #@! TD*
G04 #@! TA.AperFunction,ComponentPad*
%ADD17R,1.250000X1.750000*%
G04 #@! TD*
G04 #@! TA.AperFunction,ComponentPad*
%ADD18O,1.250000X1.750000*%
G04 #@! TD*
G04 #@! TA.AperFunction,ComponentPad*
%ADD19C,1.524000*%
G04 #@! TD*
G04 #@! TA.AperFunction,Conductor*
%ADD20C,0.500000*%
G04 #@! TD*
G04 #@! TA.AperFunction,Conductor*
%ADD21C,1.000000*%
G04 #@! TD*
G04 APERTURE END LIST*
D10*
X74295000Y-107950000D03*
D11*
X71755000Y-104060000D03*
D10*
X65405000Y-107950000D03*
X64135000Y-105410000D03*
X62865000Y-107950000D03*
X61595000Y-105410000D03*
X60325000Y-107950000D03*
D11*
X87190000Y-118870000D03*
X56320000Y-118870000D03*
D10*
X66675000Y-105410000D03*
X67945000Y-107950000D03*
X69215000Y-105410000D03*
X75565000Y-105410000D03*
X76835000Y-107950000D03*
X78105000Y-105410000D03*
X79375000Y-107950000D03*
X80645000Y-105410000D03*
X81915000Y-107950000D03*
X83185000Y-105410000D03*
D12*
X24765000Y-74295000D03*
D10*
X24765000Y-71755000D03*
X27305000Y-74295000D03*
X27305000Y-71755000D03*
X29845000Y-74295000D03*
X29845000Y-71755000D03*
X32385000Y-74295000D03*
X32385000Y-71755000D03*
X34925000Y-74295000D03*
X34925000Y-71755000D03*
X37465000Y-74295000D03*
X37465000Y-71755000D03*
X40005000Y-74295000D03*
X40005000Y-71755000D03*
X42545000Y-74295000D03*
X42545000Y-71755000D03*
X45085000Y-74295000D03*
X45085000Y-71755000D03*
X47625000Y-74295000D03*
X47625000Y-71755000D03*
X50165000Y-74295000D03*
X50165000Y-71755000D03*
X52705000Y-74295000D03*
X52705000Y-71755000D03*
X55245000Y-74295000D03*
X55245000Y-71755000D03*
X57785000Y-74295000D03*
X57785000Y-71755000D03*
X60325000Y-74295000D03*
X60325000Y-71755000D03*
X62865000Y-74295000D03*
X62865000Y-71755000D03*
X65405000Y-74295000D03*
X65405000Y-71755000D03*
X67945000Y-74295000D03*
X67945000Y-71755000D03*
X70485000Y-74295000D03*
X70485000Y-71755000D03*
X73025000Y-74295000D03*
X73025000Y-71755000D03*
D13*
X97155000Y-20610000D03*
X102235000Y-20610000D03*
X107315000Y-20610000D03*
X112395000Y-20610000D03*
D10*
X46990000Y-25400000D03*
X45720000Y-27940000D03*
X44450000Y-25400000D03*
X43180000Y-27940000D03*
X41910000Y-25400000D03*
X40640000Y-27940000D03*
X39370000Y-25400000D03*
X33020000Y-25400000D03*
X31750000Y-27940000D03*
X30480000Y-25400000D03*
D11*
X20125000Y-38860000D03*
X50995000Y-38860000D03*
D10*
X24130000Y-27940000D03*
X25400000Y-25400000D03*
X26670000Y-27940000D03*
X27940000Y-25400000D03*
X29210000Y-27940000D03*
D11*
X35560000Y-24050000D03*
D10*
X38100000Y-27940000D03*
D14*
X118106600Y-73015000D03*
D13*
X118106600Y-75555000D03*
X118106600Y-78095000D03*
X118106600Y-80635000D03*
X120640600Y-95885600D03*
X120640600Y-90805600D03*
X120640600Y-93345600D03*
D15*
X120646600Y-75925000D03*
X120646600Y-77725000D03*
D16*
X120646600Y-79525000D03*
D15*
X120646600Y-74125000D03*
D13*
X57150000Y-46355000D03*
X59690000Y-46355000D03*
X53975000Y-20320000D03*
X51435000Y-20320000D03*
X33655000Y-20320000D03*
X36195000Y-20320000D03*
X28575000Y-22860000D03*
X26035000Y-22860000D03*
X20320000Y-20320000D03*
X20320000Y-22860000D03*
X104140000Y-42545000D03*
D14*
X104140000Y-50165000D03*
D17*
X78359000Y-20320000D03*
D18*
X80391000Y-20320000D03*
D14*
X88900000Y-74295000D03*
D13*
X83820000Y-74295000D03*
X83820000Y-92075000D03*
D14*
X88900000Y-92075000D03*
D13*
X110490000Y-27940000D03*
D14*
X105410000Y-27940000D03*
X102870000Y-27940000D03*
D13*
X97790000Y-27940000D03*
X54610000Y-26035000D03*
D14*
X59690000Y-26035000D03*
D13*
X54610000Y-43815000D03*
D14*
X59690000Y-43815000D03*
D13*
X54610000Y-50165000D03*
X59690000Y-50165000D03*
X57150000Y-50165000D03*
D14*
X97790000Y-35560000D03*
D13*
X102870000Y-35560000D03*
X105410000Y-35560000D03*
X107950000Y-35560000D03*
X110490000Y-35560000D03*
X110490000Y-30480000D03*
X107950000Y-30480000D03*
X105410000Y-30480000D03*
X102870000Y-30480000D03*
X97790000Y-30480000D03*
X83820000Y-89535000D03*
X83820000Y-84455000D03*
X83820000Y-81915000D03*
X83820000Y-79375000D03*
X83820000Y-76835000D03*
X88900000Y-76835000D03*
X88900000Y-79375000D03*
X88900000Y-81915000D03*
X88900000Y-84455000D03*
D14*
X88900000Y-89535000D03*
D13*
X54610000Y-41275000D03*
X54610000Y-36195000D03*
X54610000Y-33655000D03*
X54610000Y-31115000D03*
X54610000Y-28575000D03*
X59690000Y-28575000D03*
X59690000Y-31115000D03*
X59690000Y-33655000D03*
X59690000Y-36195000D03*
D14*
X59690000Y-41275000D03*
X48260000Y-20320000D03*
D13*
X45720000Y-20320000D03*
X43180000Y-20320000D03*
X40640000Y-20320000D03*
D14*
X112395000Y-90170000D03*
D13*
X112395000Y-92710000D03*
X112395000Y-95250000D03*
X112395000Y-97790000D03*
X112395000Y-100330000D03*
X112395000Y-102870000D03*
X112395000Y-105410000D03*
D19*
X136525000Y-21590000D03*
X133985000Y-21590000D03*
X131445000Y-21590000D03*
X128905000Y-21590000D03*
X126365000Y-21590000D03*
X123825000Y-21590000D03*
X121285000Y-21590000D03*
X136525000Y-53340000D03*
X133985000Y-53340000D03*
X131445000Y-53340000D03*
X128905000Y-53340000D03*
X126365000Y-53340000D03*
X123825000Y-53340000D03*
X121285000Y-53340000D03*
D13*
X59690000Y-53340000D03*
X57150000Y-53340000D03*
D14*
X54610000Y-53340000D03*
D13*
X74930000Y-20320000D03*
X72390000Y-20320000D03*
X69850000Y-20320000D03*
X67310000Y-20320000D03*
X64770000Y-20320000D03*
X62230000Y-20320000D03*
D14*
X59690000Y-20320000D03*
D13*
X31115000Y-20320000D03*
X28575000Y-20320000D03*
X26035000Y-20320000D03*
D14*
X23495000Y-20320000D03*
D13*
X94960000Y-101600000D03*
X94960000Y-96520000D03*
X94960000Y-91440000D03*
X94960000Y-86360000D03*
D14*
X108585000Y-120650000D03*
D13*
X108585000Y-118110000D03*
X108585000Y-115570000D03*
X108585000Y-113030000D03*
X108585000Y-110490000D03*
X108585000Y-107950000D03*
X108585000Y-105410000D03*
X108585000Y-102870000D03*
X108585000Y-100330000D03*
X108585000Y-97790000D03*
X108585000Y-95250000D03*
X108585000Y-92710000D03*
X108585000Y-90170000D03*
X108585000Y-87630000D03*
X108585000Y-85090000D03*
X108585000Y-82550000D03*
X108585000Y-80010000D03*
X108585000Y-77470000D03*
X108585000Y-74930000D03*
X108585000Y-72390000D03*
D14*
X94960000Y-80645000D03*
D13*
X94960000Y-75565000D03*
D10*
X81280000Y-27940000D03*
D11*
X78740000Y-24050000D03*
D10*
X72390000Y-27940000D03*
X71120000Y-25400000D03*
X69850000Y-27940000D03*
X68580000Y-25400000D03*
X67310000Y-27940000D03*
D11*
X94175000Y-38860000D03*
X63305000Y-38860000D03*
D10*
X73660000Y-25400000D03*
X74930000Y-27940000D03*
X76200000Y-25400000D03*
X82550000Y-25400000D03*
X83820000Y-27940000D03*
X85090000Y-25400000D03*
X86360000Y-27940000D03*
X87630000Y-25400000D03*
X88900000Y-27940000D03*
X90170000Y-25400000D03*
X51435000Y-105410000D03*
X50165000Y-107950000D03*
X48895000Y-105410000D03*
X47625000Y-107950000D03*
X46355000Y-105410000D03*
X45085000Y-107950000D03*
X43815000Y-105410000D03*
X37465000Y-105410000D03*
X36195000Y-107950000D03*
X34925000Y-105410000D03*
D11*
X24570000Y-118870000D03*
X55440000Y-118870000D03*
D10*
X28575000Y-107950000D03*
X29845000Y-105410000D03*
X31115000Y-107950000D03*
X32385000Y-105410000D03*
X33655000Y-107950000D03*
D11*
X40005000Y-104060000D03*
D10*
X42545000Y-107950000D03*
D13*
X97155000Y-61305000D03*
X102235000Y-61305000D03*
X107315000Y-61305000D03*
X112395000Y-61305000D03*
X124180600Y-90652600D03*
X124180600Y-93192600D03*
D14*
X124180600Y-95732600D03*
D13*
X86360000Y-19685000D03*
D14*
X83820000Y-19685000D03*
D20*
X108585000Y-107947194D02*
X108585000Y-107950000D01*
X110869999Y-105662195D02*
X108585000Y-107947194D01*
X110869999Y-104395001D02*
X110869999Y-105662195D01*
X112395000Y-102870000D02*
X110869999Y-104395001D01*
X108585000Y-72390000D02*
X108585000Y-80010000D01*
X107059999Y-86104999D02*
X108585000Y-87630000D01*
X107059999Y-81535001D02*
X107059999Y-86104999D01*
X108585000Y-80010000D02*
X107059999Y-81535001D01*
X108585000Y-87630000D02*
X108585000Y-97790000D01*
X107059999Y-106424999D02*
X108585000Y-107950000D01*
X107059999Y-99315001D02*
X107059999Y-106424999D01*
X108585000Y-97790000D02*
X107059999Y-99315001D01*
X108585000Y-107950000D02*
X108585000Y-115570000D01*
X107059999Y-117095001D02*
X107059999Y-119124999D01*
X107059999Y-119124999D02*
X108585000Y-120650000D01*
X108585000Y-115570000D02*
X107059999Y-117095001D01*
D21*
X54610000Y-53340000D02*
X54610000Y-50165000D01*
X54610000Y-50165000D02*
X54610000Y-43815000D01*
X54610000Y-43815000D02*
X54610000Y-41275000D01*
D20*
X110110001Y-116584999D02*
X108585000Y-118110000D01*
X112395000Y-105410000D02*
X110110001Y-107694999D01*
X110110001Y-107694999D02*
X110110001Y-116584999D01*
D21*
X76200000Y-21590000D02*
X76200000Y-22225000D01*
X74930000Y-20320000D02*
X76200000Y-21590000D01*
D20*
X76200000Y-22225000D02*
X76200000Y-22479000D01*
D21*
X76200000Y-22225000D02*
X76200000Y-25400000D01*
X76200000Y-22479000D02*
X76200000Y-25400000D01*
X78359000Y-20320000D02*
X76200000Y-22479000D01*
X61179999Y-37839999D02*
X61179999Y-39625001D01*
X62284999Y-36734999D02*
X61179999Y-37839999D01*
X64105003Y-36734999D02*
X62284999Y-36734999D01*
X76200000Y-25400000D02*
X76430010Y-25630010D01*
X76430010Y-25630010D02*
X76430010Y-28836324D01*
X76430010Y-28836324D02*
X68451333Y-36815001D01*
X64185005Y-36815001D02*
X64105003Y-36734999D01*
X68451333Y-36815001D02*
X64185005Y-36815001D01*
X61465001Y-45817435D02*
X61465001Y-40384999D01*
X59690000Y-46355000D02*
X60927436Y-46355000D01*
X60927436Y-46355000D02*
X61465001Y-45817435D01*
X59690000Y-46355000D02*
X59690000Y-50165000D01*
X59690000Y-50165000D02*
X59690000Y-53340000D01*
D20*
X61179999Y-39655001D02*
X61465001Y-39940003D01*
X61465001Y-39940003D02*
X61465001Y-40384999D01*
X61179999Y-39625001D02*
X61179999Y-39655001D01*
D21*
X83820000Y-19685000D02*
X82679990Y-18544990D01*
X79245010Y-18544990D02*
X77470000Y-20320000D01*
X82679990Y-18544990D02*
X79245010Y-18544990D01*
X74930000Y-20320000D02*
X77470000Y-20320000D01*
X77470000Y-20320000D02*
X78359000Y-20320000D01*
D20*
X106935001Y-26414999D02*
X105410000Y-27940000D01*
X112015001Y-27207999D02*
X111222001Y-26414999D01*
X111222001Y-26414999D02*
X106935001Y-26414999D01*
X112015001Y-34034999D02*
X112015001Y-27207999D01*
X110490000Y-35560000D02*
X112015001Y-34034999D01*
D21*
X107185001Y-26164999D02*
X105410000Y-27940000D01*
X111342001Y-26164999D02*
X107185001Y-26164999D01*
X112265001Y-27087999D02*
X111342001Y-26164999D01*
X112265001Y-33784999D02*
X112265001Y-27087999D01*
X110490000Y-35560000D02*
X112265001Y-33784999D01*
X103700002Y-25400000D02*
X90170000Y-25400000D01*
X105410000Y-27109998D02*
X103700002Y-25400000D01*
X105410000Y-27940000D02*
X105410000Y-27109998D01*
X104465001Y-26164999D02*
X103700002Y-25400000D01*
X107185001Y-26164999D02*
X104465001Y-26164999D01*
X90170000Y-27940000D02*
X97790000Y-35560000D01*
X88900000Y-27940000D02*
X90170000Y-27940000D01*
X97790000Y-33020000D02*
X102870000Y-27940000D01*
X97790000Y-35560000D02*
X97790000Y-33020000D01*
D20*
X54452010Y-38860008D02*
X53745200Y-38860008D01*
X57150000Y-41557998D02*
X54452010Y-38860008D01*
X57150000Y-46355000D02*
X57150000Y-41557998D01*
D21*
X57150000Y-53340000D02*
X57150000Y-50165000D01*
X57150000Y-50165000D02*
X57150000Y-46355000D01*
X53641648Y-39110009D02*
X53568424Y-39036785D01*
X55072011Y-39110009D02*
X53641648Y-39110009D01*
X57150000Y-46355000D02*
X57150000Y-41187998D01*
X57150000Y-41187998D02*
X55072011Y-39110009D01*
X53641648Y-39110009D02*
X53303320Y-38771681D01*
X50020094Y-36689904D02*
X51575096Y-36689904D01*
X49894997Y-36815001D02*
X50020094Y-36689904D01*
X47047999Y-36815001D02*
X49894997Y-36815001D01*
X40640000Y-30407002D02*
X47047999Y-36815001D01*
X40640000Y-27940000D02*
X40640000Y-30407002D01*
D20*
X53745200Y-38860008D02*
X51575096Y-36689904D01*
X120276600Y-78095000D02*
X120646600Y-77725000D01*
X118106600Y-78095000D02*
X120276600Y-78095000D01*
D21*
X93690000Y-81915000D02*
X94960000Y-80645000D01*
X88900000Y-81915000D02*
X93690000Y-81915000D01*
X91150000Y-79375000D02*
X94960000Y-75565000D01*
X88900000Y-79375000D02*
X91150000Y-79375000D01*
X83820000Y-76835000D02*
X83820000Y-74295000D01*
X86360000Y-86995000D02*
X83820000Y-89535000D01*
X83820000Y-76835000D02*
X86360000Y-79375000D01*
X86360000Y-79375000D02*
X86360000Y-86995000D01*
D20*
X79754990Y-70229990D02*
X83820000Y-74295000D01*
X66930010Y-70229990D02*
X79754990Y-70229990D01*
X65405000Y-71755000D02*
X66930010Y-70229990D01*
D21*
X83820000Y-74295000D02*
X80010000Y-70485000D01*
X80010000Y-70485000D02*
X74295000Y-70485000D01*
D20*
X69850000Y-24627219D02*
X69097771Y-23874990D01*
X69850000Y-27940000D02*
X69850000Y-24627219D01*
X63244990Y-23874990D02*
X59690000Y-20320000D01*
X69097771Y-23874990D02*
X63244990Y-23874990D01*
D21*
X62994990Y-23624990D02*
X68324990Y-23624990D01*
X59690000Y-20320000D02*
X62994990Y-23624990D01*
X66545001Y-22095001D02*
X68944140Y-22095001D01*
X71120000Y-24270861D02*
X71120000Y-25400000D01*
X68944140Y-22095001D02*
X71120000Y-24270861D01*
X64770000Y-20320000D02*
X66545001Y-22095001D01*
X20320000Y-20320000D02*
X23495000Y-20320000D01*
X26035000Y-20320000D02*
X28575000Y-22860000D01*
X31115000Y-20320000D02*
X33655000Y-20320000D01*
X22860000Y-25400000D02*
X20320000Y-22860000D01*
X25400000Y-25400000D02*
X22860000Y-25400000D01*
X27940000Y-24765000D02*
X26035000Y-22860000D01*
X27940000Y-25400000D02*
X27940000Y-24765000D01*
D20*
X36830000Y-20320000D02*
X36514998Y-20320000D01*
D21*
X32255010Y-23624990D02*
X30480000Y-25400000D01*
X32890010Y-23624990D02*
X32255010Y-23624990D01*
X36195000Y-20320000D02*
X32890010Y-23624990D01*
X112395000Y-61305000D02*
X109565000Y-64135000D01*
X105065000Y-64135000D02*
X102235000Y-61305000D01*
X109565000Y-64135000D02*
X105065000Y-64135000D01*
X102235000Y-61305000D02*
X99405000Y-64135000D01*
X99405000Y-64135000D02*
X95250000Y-64135000D01*
X95250000Y-64135000D02*
X93980000Y-62865000D01*
X93980000Y-39055000D02*
X94175000Y-38860000D01*
X93980000Y-62865000D02*
X93980000Y-39055000D01*
X99405000Y-64135000D02*
X105065000Y-64135000D01*
X69975000Y-38860000D02*
X94175000Y-38860000D01*
X63305000Y-38860000D02*
X69975000Y-38860000D01*
X20125000Y-38860000D02*
X43305000Y-38860000D01*
X43305000Y-38860000D02*
X50995000Y-38860000D01*
X43305000Y-47500000D02*
X43305000Y-38860000D01*
X51685000Y-55880000D02*
X43305000Y-47500000D01*
X62230000Y-55880000D02*
X51685000Y-55880000D01*
X69975000Y-48135000D02*
X62230000Y-55880000D01*
X69975000Y-38860000D02*
X69975000Y-48135000D01*
D20*
X65405000Y-107950000D02*
X65405000Y-78745612D01*
X55254442Y-77620029D02*
X52705000Y-75070587D01*
X52705000Y-75070587D02*
X52705000Y-74295000D01*
X64279418Y-77620030D02*
X55254442Y-77620029D01*
X65405000Y-78745612D02*
X64279418Y-77620030D01*
X47625000Y-75565000D02*
X47625000Y-74295000D01*
X52380058Y-80320058D02*
X47625000Y-75565000D01*
X60635058Y-80320058D02*
X52380058Y-80320058D01*
X61595000Y-81280000D02*
X60635058Y-80320058D01*
X61595000Y-105410000D02*
X61595000Y-81280000D01*
X54390039Y-78520039D02*
X50165000Y-74295000D01*
X63280039Y-78520039D02*
X54390039Y-78520039D01*
X64135000Y-105410000D02*
X64135000Y-79375000D01*
X64135000Y-79375000D02*
X63280039Y-78520039D01*
X66675000Y-105410000D02*
X66675000Y-78742806D01*
X55627239Y-76720020D02*
X53955010Y-75047791D01*
X53955010Y-73005010D02*
X52705000Y-71755000D01*
X53955010Y-75047791D02*
X53955010Y-73005010D01*
X64652214Y-76720020D02*
X55627239Y-76720020D01*
X66675000Y-78742806D02*
X64652214Y-76720020D01*
X48895000Y-73025000D02*
X50165000Y-71755000D01*
X62865000Y-107950000D02*
X62865000Y-80010000D01*
X62865000Y-80010000D02*
X62275049Y-79420049D01*
X53247266Y-79420047D02*
X48895000Y-75067781D01*
X62275049Y-79420049D02*
X53247266Y-79420047D01*
X48895000Y-75067781D02*
X48895000Y-73025000D01*
X67945000Y-71755000D02*
X69195010Y-73005010D01*
D21*
X69195010Y-75584990D02*
X69234990Y-75584990D01*
D20*
X69195010Y-73005010D02*
X69195010Y-75584990D01*
D21*
X69234990Y-75584990D02*
X81280000Y-87630000D01*
X83185000Y-105410000D02*
X83185000Y-102870000D01*
X81280000Y-100965000D02*
X81280000Y-87630000D01*
X83185000Y-102870000D02*
X81280000Y-100965000D01*
X79879990Y-88302456D02*
X79879990Y-101544903D01*
X67795000Y-74445000D02*
X67795000Y-76217466D01*
D20*
X81784990Y-103449903D02*
X81915000Y-103579913D01*
D21*
X79879990Y-101544903D02*
X81784990Y-103449903D01*
D20*
X81915000Y-103579913D02*
X81915000Y-107950000D01*
D21*
X67795000Y-76217466D02*
X79879990Y-88302456D01*
X67945000Y-74295000D02*
X67795000Y-74445000D01*
D20*
X42632780Y-102184999D02*
X38785001Y-102184999D01*
X45085000Y-107950000D02*
X45085000Y-104637219D01*
X45085000Y-104637219D02*
X42632780Y-102184999D01*
X38785001Y-102184999D02*
X38100000Y-102870000D01*
X26035000Y-102870000D02*
X24415009Y-101250009D01*
X38100000Y-102870000D02*
X26035000Y-102870000D01*
X24415009Y-101250009D02*
X24415009Y-77819991D01*
X24415009Y-77819991D02*
X26035000Y-76200000D01*
X31887781Y-74295000D02*
X32385000Y-74295000D01*
X29982781Y-76200000D02*
X31887781Y-74295000D01*
X26035000Y-76200000D02*
X29982781Y-76200000D01*
X33655000Y-75565000D02*
X34925000Y-74295000D01*
X37727204Y-101969990D02*
X26407796Y-101969990D01*
X26407796Y-77100010D02*
X30355577Y-77100010D01*
X31867229Y-75820010D02*
X33399990Y-75820010D01*
X38412205Y-101284989D02*
X37727204Y-101969990D01*
X46355000Y-104035000D02*
X43604989Y-101284989D01*
X43604989Y-101284989D02*
X38412205Y-101284989D01*
X46355000Y-105410000D02*
X46355000Y-104035000D01*
X25315019Y-100877213D02*
X25315019Y-78192787D01*
X31751403Y-75704184D02*
X31867229Y-75820010D01*
X26407796Y-101969990D02*
X25315019Y-100877213D01*
X33399990Y-75820010D02*
X34925000Y-74295000D01*
X25315019Y-78192787D02*
X26407796Y-77100010D01*
X30355577Y-77100010D02*
X31751403Y-75704184D01*
X45085000Y-75570612D02*
X45085000Y-74295000D01*
X57990077Y-82120077D02*
X51634464Y-82120076D01*
X69215000Y-105410000D02*
X69215000Y-108722781D01*
X68462771Y-109475010D02*
X59807229Y-109475010D01*
X59055000Y-83185000D02*
X57990077Y-82120077D01*
X59055000Y-108722781D02*
X59055000Y-83185000D01*
X51634464Y-82120076D02*
X45085000Y-75570612D01*
X69215000Y-108722781D02*
X68462771Y-109475010D01*
X59807229Y-109475010D02*
X59055000Y-108722781D01*
X67945000Y-107950000D02*
X67945000Y-78740000D01*
X56770010Y-75820010D02*
X55245000Y-74295000D01*
X65025010Y-75820010D02*
X56770010Y-75820010D01*
X67945000Y-78740000D02*
X65025010Y-75820010D01*
X124450600Y-95885600D02*
X120640600Y-95885600D01*
X124450600Y-90805600D02*
X120640600Y-90805600D01*
X124450600Y-93345600D02*
X120640600Y-93345600D01*
X119536600Y-80635000D02*
X120646600Y-79525000D01*
X118106600Y-80635000D02*
X119536600Y-80635000D01*
X120276600Y-75555000D02*
X120646600Y-75925000D01*
X118106600Y-75555000D02*
X120276600Y-75555000D01*
X118106600Y-73015000D02*
X119536600Y-73015000D01*
X119536600Y-73015000D02*
X120646600Y-74125000D01*
X121285000Y-21590000D02*
X121285000Y-53340000D01*
X123825000Y-53340000D02*
X123825000Y-21590000D01*
X126365000Y-21590000D02*
X126365000Y-53340000D01*
X128905000Y-53340000D02*
X128905000Y-21590000D01*
X131445000Y-21590000D02*
X131445000Y-53340000D01*
X133985000Y-53340000D02*
X133985000Y-21590000D01*
X136525000Y-21590000D02*
X136525000Y-53340000D01*
X67310000Y-27940000D02*
X61595000Y-27940000D01*
X61595000Y-27940000D02*
X60325000Y-27940000D01*
D21*
X60325000Y-27940000D02*
X59690000Y-28575000D01*
X67310000Y-27940000D02*
X60325000Y-27940000D01*
X59690000Y-26035000D02*
X59690000Y-28575000D01*
X59690000Y-26035000D02*
X61595000Y-27940000D01*
X59690000Y-43815000D02*
X59690000Y-41275000D01*
X52834999Y-35054999D02*
X52834999Y-35815001D01*
X45720000Y-27940000D02*
X52834999Y-35054999D01*
D20*
X53877999Y-37720001D02*
X52834999Y-36677001D01*
X56135001Y-37720001D02*
X53877999Y-37720001D01*
X52834999Y-36677001D02*
X52834999Y-35815001D01*
D21*
X59690000Y-41275000D02*
X56135001Y-37720001D01*
X109220000Y-59400000D02*
X107315000Y-61305000D01*
X109220000Y-39370000D02*
X109220000Y-59400000D01*
X107950000Y-35560000D02*
X107950000Y-38100000D01*
X107950000Y-38100000D02*
X109220000Y-39370000D01*
X97155000Y-61305000D02*
X107315000Y-51145000D01*
X107315000Y-51145000D02*
X107315000Y-40640000D01*
X107315000Y-40640000D02*
X105410000Y-38735000D01*
X105410000Y-38735000D02*
X105410000Y-35560000D01*
X57914999Y-29339999D02*
X57914999Y-24259999D01*
X57914999Y-24259999D02*
X53975000Y-20320000D01*
X59690000Y-31115000D02*
X57914999Y-29339999D01*
X48260000Y-20320000D02*
X51435000Y-20320000D01*
X44450000Y-24130000D02*
X40640000Y-20320000D01*
X44450000Y-25400000D02*
X44450000Y-24130000D01*
D20*
X112395000Y-90170000D02*
X111010011Y-88785011D01*
X110110001Y-85342195D02*
X110110001Y-84357999D01*
X111010011Y-88785011D02*
X111010010Y-86242204D01*
X111010010Y-86242204D02*
X110110001Y-85342195D01*
X108585000Y-82832998D02*
X108585000Y-82550000D01*
X110110001Y-84357999D02*
X108585000Y-82832998D01*
X110110001Y-86615001D02*
X108585000Y-85090000D01*
X110110001Y-91662437D02*
X110110001Y-86615001D01*
X111157564Y-92710000D02*
X110110001Y-91662437D01*
X112395000Y-92710000D02*
X111157564Y-92710000D01*
X112395000Y-95250000D02*
X110869999Y-96775001D01*
X108585000Y-100327194D02*
X108585000Y-100330000D01*
X110869999Y-98042195D02*
X108585000Y-100327194D01*
X110869999Y-96775001D02*
X110869999Y-98042195D01*
X112395000Y-97790000D02*
X110869999Y-99315001D01*
X110869999Y-100582195D02*
X108585000Y-102867194D01*
X108585000Y-102867194D02*
X108585000Y-102870000D01*
X110869999Y-99315001D02*
X110869999Y-100582195D01*
X112395000Y-100330000D02*
X110869999Y-101855001D01*
X108585000Y-105407194D02*
X108585000Y-105410000D01*
X110869999Y-103122195D02*
X108585000Y-105407194D01*
X110869999Y-101855001D02*
X110869999Y-103122195D01*
X86360000Y-24627219D02*
X86360000Y-27940000D01*
D21*
X105065000Y-22860000D02*
X88127220Y-22860000D01*
X88127220Y-22860000D02*
X87561110Y-23426110D01*
X107315000Y-20610000D02*
X105065000Y-22860000D01*
D20*
X87561110Y-23426110D02*
X86360000Y-24627219D01*
D21*
X83820000Y-24130000D02*
X83820000Y-24273666D01*
D20*
X83820000Y-24130000D02*
X83820000Y-27940000D01*
D21*
X86161101Y-22846207D02*
X88397308Y-20610000D01*
X88397308Y-20610000D02*
X97155000Y-20610000D01*
X85103793Y-22846207D02*
X86161101Y-22846207D01*
X83820000Y-24130000D02*
X85103793Y-22846207D01*
X51665010Y-105640010D02*
X51435000Y-105410000D01*
X51665010Y-108846324D02*
X51665010Y-105640010D01*
X50786324Y-109725010D02*
X51665010Y-108846324D01*
X27953676Y-109725010D02*
X50786324Y-109725010D01*
X23264999Y-105036333D02*
X27953676Y-109725010D01*
X23264999Y-72699999D02*
X23264999Y-105036333D01*
X24209998Y-71755000D02*
X23264999Y-72699999D01*
X24765000Y-71755000D02*
X24209998Y-71755000D01*
D20*
X36195000Y-73522219D02*
X34925000Y-72252219D01*
X34925000Y-72252219D02*
X34925000Y-71755000D01*
X47625000Y-104140000D02*
X48895000Y-105410000D01*
X47625000Y-104032194D02*
X47625000Y-104140000D01*
X43977785Y-100384979D02*
X47625000Y-104032194D01*
X37459388Y-100965000D02*
X38039408Y-100384980D01*
X38039408Y-100384980D02*
X43977785Y-100384979D01*
X37459388Y-100965000D02*
X26675612Y-100965000D01*
X26675612Y-100965000D02*
X26215029Y-100504417D01*
X26215029Y-100504417D02*
X26215029Y-78565583D01*
X26780592Y-78000020D02*
X30728374Y-78000019D01*
X26215029Y-78565583D02*
X26780592Y-78000020D01*
X34542761Y-76720020D02*
X36175010Y-75087771D01*
X36175010Y-73005010D02*
X34925000Y-71755000D01*
X32008373Y-76720020D02*
X34542761Y-76720020D01*
X36175010Y-75087771D02*
X36175010Y-73005010D01*
X30728374Y-78000019D02*
X32008373Y-76720020D01*
D21*
X92075000Y-89245000D02*
X94960000Y-86360000D01*
X92075000Y-100330000D02*
X92075000Y-89245000D01*
X82679990Y-109725010D02*
X92075000Y-100330000D01*
X76835000Y-107950000D02*
X78610010Y-109725010D01*
X78610010Y-109725010D02*
X82679990Y-109725010D01*
X24570000Y-118870000D02*
X55440000Y-118870000D01*
X55440000Y-118870000D02*
X56320000Y-118870000D01*
X56320000Y-118870000D02*
X87190000Y-118870000D01*
X55462001Y-24259999D02*
X56385001Y-25182999D01*
X46990000Y-25400000D02*
X48130001Y-24259999D01*
X48130001Y-24259999D02*
X55462001Y-24259999D01*
X56385001Y-30350001D02*
X59690000Y-33655000D01*
X56385001Y-25182999D02*
X56385001Y-30350001D01*
D20*
X46335010Y-75547816D02*
X46335010Y-73005010D01*
X46335010Y-73005010D02*
X45085000Y-71755000D01*
X52007261Y-81220067D02*
X46335010Y-75547816D01*
X58995068Y-81220068D02*
X52007261Y-81220067D01*
X60325000Y-82550000D02*
X58995068Y-81220068D01*
X60325000Y-107950000D02*
X60325000Y-82550000D01*
M02*
