M48
;DRILL file {KiCad 4.0.2+dfsg1-stable} date ti  8. elokuuta 2017 08.50.20
;FORMAT={-:-/ absolute / metric / decimal}
FMAT,2
METRIC,TZ
T1C0.762
T2C0.800
T3C0.850
T4C1.000
%
G90
G05
M71
T1
X105.41Y-142.24
X107.95Y-142.24
X110.49Y-142.24
X110.49Y-163.83
X113.03Y-142.24
X113.03Y-163.83
X114.3Y-110.49
X115.57Y-142.24
X115.57Y-163.83
X116.84Y-110.49
X118.11Y-142.24
X118.11Y-163.83
X119.38Y-110.49
X120.65Y-142.24
X120.65Y-163.83
X121.92Y-151.13
X123.19Y-142.24
X123.19Y-163.83
X124.46Y-151.13
X125.73Y-142.24
X125.73Y-163.83
X128.27Y-142.24
X128.27Y-163.83
X130.81Y-142.24
X133.35Y-163.83
X135.89Y-163.83
X138.43Y-163.83
X140.97Y-142.24
X140.97Y-163.83
X143.51Y-142.24
X143.51Y-163.83
X146.05Y-142.24
X146.05Y-163.83
X148.59Y-81.28
X148.59Y-86.36
X148.59Y-163.83
X149.86Y-95.25
X151.13Y-142.24
X151.13Y-147.32
X152.4Y-95.25
X153.67Y-81.28
X153.67Y-86.36
X153.67Y-142.24
X153.67Y-147.32
X153.67Y-163.83
X154.94Y-95.25
X156.21Y-81.28
X156.21Y-86.36
X156.21Y-163.83
X157.48Y-95.25
X158.75Y-81.28
X158.75Y-86.36
X158.75Y-142.24
X158.75Y-147.32
X158.75Y-163.83
X161.29Y-142.24
X161.29Y-147.32
X161.29Y-163.83
X163.83Y-142.24
X163.83Y-147.32
X165.1Y-90.17
X166.37Y-142.24
X166.37Y-147.32
X168.91Y-142.24
X168.91Y-147.32
X170.18Y-90.17
T2
X114.3Y-106.68
X116.84Y-106.68
X119.38Y-106.68
X140.97Y-148.59
X143.51Y-148.59
X146.05Y-148.59
T3
X129.54Y-153.67
X137.16Y-153.67
T4
X105.41Y-150.02
X105.41Y-160.02
X107.95Y-150.02
X107.95Y-160.02
X110.49Y-150.02
X110.49Y-160.02
X142.24Y-157.48
X152.24Y-157.48
T0
M30
