%FSLAX45Y45*%
G04 Gerber Fmt 4.5, Leading zero omitted, Abs format (unit mm)*
G04 Created by KiCad (PCBNEW 4.0.2+dfsg1-stable) date ti  8. elokuuta 2017 08.50.22*
%MOMM*%
G01*
G04 APERTURE LIST*
%ADD10C,0.127000*%
%ADD11C,0.150000*%
%ADD12C,0.200000*%
%ADD13C,0.300000*%
G04 APERTURE END LIST*
D10*
D11*
X10414000Y-16637000D02*
X10414000Y-15621000D01*
X12954000Y-16637000D02*
X10414000Y-16637000D01*
D12*
X10502900Y-14185900D02*
X10579100Y-14262100D01*
X10579100Y-14185900D02*
X10502900Y-14262100D01*
X10756900Y-14185900D02*
X10833100Y-14262100D01*
X10833100Y-14185900D02*
X10756900Y-14262100D01*
X11010900Y-14185900D02*
X11087100Y-14262100D01*
X11087100Y-14185900D02*
X11010900Y-14262100D01*
X11010900Y-16344900D02*
X11087100Y-16421100D01*
X11087100Y-16344900D02*
X11010900Y-16421100D01*
X11264900Y-14185900D02*
X11341100Y-14262100D01*
X11341100Y-14185900D02*
X11264900Y-14262100D01*
X11264900Y-16344900D02*
X11341100Y-16421100D01*
X11341100Y-16344900D02*
X11264900Y-16421100D01*
X11391900Y-11010900D02*
X11468100Y-11087100D01*
X11468100Y-11010900D02*
X11391900Y-11087100D01*
X11518900Y-14185900D02*
X11595100Y-14262100D01*
X11595100Y-14185900D02*
X11518900Y-14262100D01*
X11518900Y-16344900D02*
X11595100Y-16421100D01*
X11595100Y-16344900D02*
X11518900Y-16421100D01*
X11645900Y-11010900D02*
X11722100Y-11087100D01*
X11722100Y-11010900D02*
X11645900Y-11087100D01*
X11772900Y-14185900D02*
X11849100Y-14262100D01*
X11849100Y-14185900D02*
X11772900Y-14262100D01*
X11772900Y-16344900D02*
X11849100Y-16421100D01*
X11849100Y-16344900D02*
X11772900Y-16421100D01*
X11899900Y-11010900D02*
X11976100Y-11087100D01*
X11976100Y-11010900D02*
X11899900Y-11087100D01*
X12026900Y-14185900D02*
X12103100Y-14262100D01*
X12103100Y-14185900D02*
X12026900Y-14262100D01*
X12026900Y-16344900D02*
X12103100Y-16421100D01*
X12103100Y-16344900D02*
X12026900Y-16421100D01*
X12153900Y-15074900D02*
X12230100Y-15151100D01*
X12230100Y-15074900D02*
X12153900Y-15151100D01*
X12280900Y-14185900D02*
X12357100Y-14262100D01*
X12357100Y-14185900D02*
X12280900Y-14262100D01*
X12280900Y-16344900D02*
X12357100Y-16421100D01*
X12357100Y-16344900D02*
X12280900Y-16421100D01*
X12407900Y-15074900D02*
X12484100Y-15151100D01*
X12484100Y-15074900D02*
X12407900Y-15151100D01*
X12534900Y-14185900D02*
X12611100Y-14262100D01*
X12611100Y-14185900D02*
X12534900Y-14262100D01*
X12534900Y-16344900D02*
X12611100Y-16421100D01*
X12611100Y-16344900D02*
X12534900Y-16421100D01*
X12788900Y-14185900D02*
X12865100Y-14262100D01*
X12865100Y-14185900D02*
X12788900Y-14262100D01*
X12788900Y-16344900D02*
X12865100Y-16421100D01*
X12865100Y-16344900D02*
X12788900Y-16421100D01*
X13042900Y-14185900D02*
X13119100Y-14262100D01*
X13119100Y-14185900D02*
X13042900Y-14262100D01*
X13296900Y-16344900D02*
X13373100Y-16421100D01*
X13373100Y-16344900D02*
X13296900Y-16421100D01*
X13550900Y-16344900D02*
X13627100Y-16421100D01*
X13627100Y-16344900D02*
X13550900Y-16421100D01*
X13804900Y-16344900D02*
X13881100Y-16421100D01*
X13881100Y-16344900D02*
X13804900Y-16421100D01*
X14058900Y-14185900D02*
X14135100Y-14262100D01*
X14135100Y-14185900D02*
X14058900Y-14262100D01*
X14058900Y-16344900D02*
X14135100Y-16421100D01*
X14135100Y-16344900D02*
X14058900Y-16421100D01*
X14312900Y-14185900D02*
X14389100Y-14262100D01*
X14389100Y-14185900D02*
X14312900Y-14262100D01*
X14312900Y-16344900D02*
X14389100Y-16421100D01*
X14389100Y-16344900D02*
X14312900Y-16421100D01*
X14566900Y-14185900D02*
X14643100Y-14262100D01*
X14643100Y-14185900D02*
X14566900Y-14262100D01*
X14566900Y-16344900D02*
X14643100Y-16421100D01*
X14643100Y-16344900D02*
X14566900Y-16421100D01*
X14820900Y-8089900D02*
X14897100Y-8166100D01*
X14897100Y-8089900D02*
X14820900Y-8166100D01*
X14820900Y-8597900D02*
X14897100Y-8674100D01*
X14897100Y-8597900D02*
X14820900Y-8674100D01*
X14820900Y-16344900D02*
X14897100Y-16421100D01*
X14897100Y-16344900D02*
X14820900Y-16421100D01*
X14947900Y-9486900D02*
X15024100Y-9563100D01*
X15024100Y-9486900D02*
X14947900Y-9563100D01*
X15074900Y-14185900D02*
X15151100Y-14262100D01*
X15151100Y-14185900D02*
X15074900Y-14262100D01*
X15074900Y-14693900D02*
X15151100Y-14770100D01*
X15151100Y-14693900D02*
X15074900Y-14770100D01*
X15201900Y-9486900D02*
X15278100Y-9563100D01*
X15278100Y-9486900D02*
X15201900Y-9563100D01*
X15328900Y-8089900D02*
X15405100Y-8166100D01*
X15405100Y-8089900D02*
X15328900Y-8166100D01*
X15328900Y-8597900D02*
X15405100Y-8674100D01*
X15405100Y-8597900D02*
X15328900Y-8674100D01*
X15328900Y-14185900D02*
X15405100Y-14262100D01*
X15405100Y-14185900D02*
X15328900Y-14262100D01*
X15328900Y-14693900D02*
X15405100Y-14770100D01*
X15405100Y-14693900D02*
X15328900Y-14770100D01*
X15328900Y-16344900D02*
X15405100Y-16421100D01*
X15405100Y-16344900D02*
X15328900Y-16421100D01*
X15455900Y-9486900D02*
X15532100Y-9563100D01*
X15532100Y-9486900D02*
X15455900Y-9563100D01*
X15582900Y-8089900D02*
X15659100Y-8166100D01*
X15659100Y-8089900D02*
X15582900Y-8166100D01*
X15582900Y-8597900D02*
X15659100Y-8674100D01*
X15659100Y-8597900D02*
X15582900Y-8674100D01*
X15582900Y-16344900D02*
X15659100Y-16421100D01*
X15659100Y-16344900D02*
X15582900Y-16421100D01*
X15709900Y-9486900D02*
X15786100Y-9563100D01*
X15786100Y-9486900D02*
X15709900Y-9563100D01*
X15836900Y-8089900D02*
X15913100Y-8166100D01*
X15913100Y-8089900D02*
X15836900Y-8166100D01*
X15836900Y-8597900D02*
X15913100Y-8674100D01*
X15913100Y-8597900D02*
X15836900Y-8674100D01*
X15836900Y-14185900D02*
X15913100Y-14262100D01*
X15913100Y-14185900D02*
X15836900Y-14262100D01*
X15836900Y-14693900D02*
X15913100Y-14770100D01*
X15913100Y-14693900D02*
X15836900Y-14770100D01*
X15836900Y-16344900D02*
X15913100Y-16421100D01*
X15913100Y-16344900D02*
X15836900Y-16421100D01*
X16090900Y-14185900D02*
X16167100Y-14262100D01*
X16167100Y-14185900D02*
X16090900Y-14262100D01*
X16090900Y-14693900D02*
X16167100Y-14770100D01*
X16167100Y-14693900D02*
X16090900Y-14770100D01*
X16090900Y-16344900D02*
X16167100Y-16421100D01*
X16167100Y-16344900D02*
X16090900Y-16421100D01*
X16344900Y-14185900D02*
X16421100Y-14262100D01*
X16421100Y-14185900D02*
X16344900Y-14262100D01*
X16344900Y-14693900D02*
X16421100Y-14770100D01*
X16421100Y-14693900D02*
X16344900Y-14770100D01*
X16471900Y-8978900D02*
X16548100Y-9055100D01*
X16548100Y-8978900D02*
X16471900Y-9055100D01*
X16598900Y-14185900D02*
X16675100Y-14262100D01*
X16675100Y-14185900D02*
X16598900Y-14262100D01*
X16598900Y-14693900D02*
X16675100Y-14770100D01*
X16675100Y-14693900D02*
X16598900Y-14770100D01*
X16852900Y-14185900D02*
X16929100Y-14262100D01*
X16929100Y-14185900D02*
X16852900Y-14262100D01*
X16852900Y-14693900D02*
X16929100Y-14770100D01*
X16929100Y-14693900D02*
X16852900Y-14770100D01*
X16979900Y-8978900D02*
X17056100Y-9055100D01*
X17056100Y-8978900D02*
X16979900Y-9055100D01*
X11470000Y-10668000D02*
G75*
G03X11470000Y-10668000I-40000J0D01*
G01*
X11724000Y-10668000D02*
G75*
G03X11724000Y-10668000I-40000J0D01*
G01*
X11978000Y-10668000D02*
G75*
G03X11978000Y-10668000I-40000J0D01*
G01*
X14137000Y-14859000D02*
G75*
G03X14137000Y-14859000I-40000J0D01*
G01*
X14391000Y-14859000D02*
G75*
G03X14391000Y-14859000I-40000J0D01*
G01*
X14645000Y-14859000D02*
G75*
G03X14645000Y-14859000I-40000J0D01*
G01*
X12954000Y-15324500D02*
X12954000Y-15409500D01*
X12911500Y-15367000D02*
X12996500Y-15367000D01*
X13716000Y-15324500D02*
X13716000Y-15409500D01*
X13673500Y-15367000D02*
X13758500Y-15367000D01*
X10576356Y-15037356D02*
X10576356Y-14966644D01*
X10505644Y-14966644D01*
X10505644Y-15037356D01*
X10576356Y-15037356D01*
X10576356Y-16037356D02*
X10576356Y-15966644D01*
X10505644Y-15966644D01*
X10505644Y-16037356D01*
X10576356Y-16037356D01*
X10830356Y-15037356D02*
X10830356Y-14966644D01*
X10759644Y-14966644D01*
X10759644Y-15037356D01*
X10830356Y-15037356D01*
X10830356Y-16037356D02*
X10830356Y-15966644D01*
X10759644Y-15966644D01*
X10759644Y-16037356D01*
X10830356Y-16037356D01*
X11084356Y-15037356D02*
X11084356Y-14966644D01*
X11013644Y-14966644D01*
X11013644Y-15037356D01*
X11084356Y-15037356D01*
X11084356Y-16037356D02*
X11084356Y-15966644D01*
X11013644Y-15966644D01*
X11013644Y-16037356D01*
X11084356Y-16037356D01*
X14259356Y-15783356D02*
X14259356Y-15712644D01*
X14188644Y-15712644D01*
X14188644Y-15783356D01*
X14259356Y-15783356D01*
X15259356Y-15783356D02*
X15259356Y-15712644D01*
X15188644Y-15712644D01*
X15188644Y-15783356D01*
X15259356Y-15783356D01*
D13*
X10677929Y-17110214D02*
X10677929Y-16810214D01*
X10749357Y-16810214D01*
X10792214Y-16824500D01*
X10820786Y-16853072D01*
X10835071Y-16881643D01*
X10849357Y-16938786D01*
X10849357Y-16981643D01*
X10835071Y-17038786D01*
X10820786Y-17067357D01*
X10792214Y-17095929D01*
X10749357Y-17110214D01*
X10677929Y-17110214D01*
X10977929Y-17110214D02*
X10977929Y-16910214D01*
X10977929Y-16967357D02*
X10992214Y-16938786D01*
X11006500Y-16924500D01*
X11035071Y-16910214D01*
X11063643Y-16910214D01*
X11163643Y-17110214D02*
X11163643Y-16910214D01*
X11163643Y-16810214D02*
X11149357Y-16824500D01*
X11163643Y-16838786D01*
X11177929Y-16824500D01*
X11163643Y-16810214D01*
X11163643Y-16838786D01*
X11349357Y-17110214D02*
X11320786Y-17095929D01*
X11306500Y-17067357D01*
X11306500Y-16810214D01*
X11506500Y-17110214D02*
X11477928Y-17095929D01*
X11463643Y-17067357D01*
X11463643Y-16810214D01*
X11849357Y-17110214D02*
X11849357Y-16810214D01*
X11949357Y-17024500D01*
X12049357Y-16810214D01*
X12049357Y-17110214D01*
X12320786Y-17110214D02*
X12320786Y-16953072D01*
X12306500Y-16924500D01*
X12277928Y-16910214D01*
X12220786Y-16910214D01*
X12192214Y-16924500D01*
X12320786Y-17095929D02*
X12292214Y-17110214D01*
X12220786Y-17110214D01*
X12192214Y-17095929D01*
X12177928Y-17067357D01*
X12177928Y-17038786D01*
X12192214Y-17010214D01*
X12220786Y-16995929D01*
X12292214Y-16995929D01*
X12320786Y-16981643D01*
X12463643Y-16910214D02*
X12463643Y-17210214D01*
X12463643Y-16924500D02*
X12492214Y-16910214D01*
X12549357Y-16910214D01*
X12577928Y-16924500D01*
X12592214Y-16938786D01*
X12606500Y-16967357D01*
X12606500Y-17053072D01*
X12592214Y-17081643D01*
X12577928Y-17095929D01*
X12549357Y-17110214D01*
X12492214Y-17110214D01*
X12463643Y-17095929D01*
X12735071Y-17081643D02*
X12749357Y-17095929D01*
X12735071Y-17110214D01*
X12720786Y-17095929D01*
X12735071Y-17081643D01*
X12735071Y-17110214D01*
X12735071Y-16924500D02*
X12749357Y-16938786D01*
X12735071Y-16953072D01*
X12720786Y-16938786D01*
X12735071Y-16924500D01*
X12735071Y-16953072D01*
X10330300Y-17566400D02*
X10406500Y-17642600D01*
X10406500Y-17566400D02*
X10330300Y-17642600D01*
X10735071Y-17440214D02*
X10763643Y-17440214D01*
X10792214Y-17454500D01*
X10806500Y-17468786D01*
X10820786Y-17497357D01*
X10835071Y-17554500D01*
X10835071Y-17625929D01*
X10820786Y-17683072D01*
X10806500Y-17711643D01*
X10792214Y-17725929D01*
X10763643Y-17740214D01*
X10735071Y-17740214D01*
X10706500Y-17725929D01*
X10692214Y-17711643D01*
X10677929Y-17683072D01*
X10663643Y-17625929D01*
X10663643Y-17554500D01*
X10677929Y-17497357D01*
X10692214Y-17468786D01*
X10706500Y-17454500D01*
X10735071Y-17440214D01*
X10963643Y-17711643D02*
X10977929Y-17725929D01*
X10963643Y-17740214D01*
X10949357Y-17725929D01*
X10963643Y-17711643D01*
X10963643Y-17740214D01*
X11077928Y-17440214D02*
X11277928Y-17440214D01*
X11149357Y-17740214D01*
X11520786Y-17440214D02*
X11463643Y-17440214D01*
X11435071Y-17454500D01*
X11420786Y-17468786D01*
X11392214Y-17511643D01*
X11377928Y-17568786D01*
X11377928Y-17683072D01*
X11392214Y-17711643D01*
X11406500Y-17725929D01*
X11435071Y-17740214D01*
X11492214Y-17740214D01*
X11520786Y-17725929D01*
X11535071Y-17711643D01*
X11549357Y-17683072D01*
X11549357Y-17611643D01*
X11535071Y-17583072D01*
X11520786Y-17568786D01*
X11492214Y-17554500D01*
X11435071Y-17554500D01*
X11406500Y-17568786D01*
X11392214Y-17583072D01*
X11377928Y-17611643D01*
X11677928Y-17740214D02*
X11677928Y-17540214D01*
X11677928Y-17568786D02*
X11692214Y-17554500D01*
X11720786Y-17540214D01*
X11763643Y-17540214D01*
X11792214Y-17554500D01*
X11806500Y-17583072D01*
X11806500Y-17740214D01*
X11806500Y-17583072D02*
X11820786Y-17554500D01*
X11849357Y-17540214D01*
X11892214Y-17540214D01*
X11920786Y-17554500D01*
X11935071Y-17583072D01*
X11935071Y-17740214D01*
X12077928Y-17740214D02*
X12077928Y-17540214D01*
X12077928Y-17568786D02*
X12092214Y-17554500D01*
X12120786Y-17540214D01*
X12163643Y-17540214D01*
X12192214Y-17554500D01*
X12206500Y-17583072D01*
X12206500Y-17740214D01*
X12206500Y-17583072D02*
X12220786Y-17554500D01*
X12249357Y-17540214D01*
X12292214Y-17540214D01*
X12320786Y-17554500D01*
X12335071Y-17583072D01*
X12335071Y-17740214D01*
X12920786Y-17425929D02*
X12663643Y-17811643D01*
X13306500Y-17440214D02*
X13335071Y-17440214D01*
X13363643Y-17454500D01*
X13377928Y-17468786D01*
X13392214Y-17497357D01*
X13406500Y-17554500D01*
X13406500Y-17625929D01*
X13392214Y-17683072D01*
X13377928Y-17711643D01*
X13363643Y-17725929D01*
X13335071Y-17740214D01*
X13306500Y-17740214D01*
X13277928Y-17725929D01*
X13263643Y-17711643D01*
X13249357Y-17683072D01*
X13235071Y-17625929D01*
X13235071Y-17554500D01*
X13249357Y-17497357D01*
X13263643Y-17468786D01*
X13277928Y-17454500D01*
X13306500Y-17440214D01*
X13535071Y-17711643D02*
X13549357Y-17725929D01*
X13535071Y-17740214D01*
X13520786Y-17725929D01*
X13535071Y-17711643D01*
X13535071Y-17740214D01*
X13735071Y-17440214D02*
X13763643Y-17440214D01*
X13792214Y-17454500D01*
X13806500Y-17468786D01*
X13820785Y-17497357D01*
X13835071Y-17554500D01*
X13835071Y-17625929D01*
X13820785Y-17683072D01*
X13806500Y-17711643D01*
X13792214Y-17725929D01*
X13763643Y-17740214D01*
X13735071Y-17740214D01*
X13706500Y-17725929D01*
X13692214Y-17711643D01*
X13677928Y-17683072D01*
X13663643Y-17625929D01*
X13663643Y-17554500D01*
X13677928Y-17497357D01*
X13692214Y-17468786D01*
X13706500Y-17454500D01*
X13735071Y-17440214D01*
X13935071Y-17440214D02*
X14120785Y-17440214D01*
X14020785Y-17554500D01*
X14063643Y-17554500D01*
X14092214Y-17568786D01*
X14106500Y-17583072D01*
X14120785Y-17611643D01*
X14120785Y-17683072D01*
X14106500Y-17711643D01*
X14092214Y-17725929D01*
X14063643Y-17740214D01*
X13977928Y-17740214D01*
X13949357Y-17725929D01*
X13935071Y-17711643D01*
X14306500Y-17440214D02*
X14335071Y-17440214D01*
X14363643Y-17454500D01*
X14377928Y-17468786D01*
X14392214Y-17497357D01*
X14406500Y-17554500D01*
X14406500Y-17625929D01*
X14392214Y-17683072D01*
X14377928Y-17711643D01*
X14363643Y-17725929D01*
X14335071Y-17740214D01*
X14306500Y-17740214D01*
X14277928Y-17725929D01*
X14263643Y-17711643D01*
X14249357Y-17683072D01*
X14235071Y-17625929D01*
X14235071Y-17554500D01*
X14249357Y-17497357D01*
X14263643Y-17468786D01*
X14277928Y-17454500D01*
X14306500Y-17440214D01*
X14520786Y-17440214D02*
X14520786Y-17497357D01*
X14635071Y-17440214D02*
X14635071Y-17497357D01*
X15077928Y-17854500D02*
X15063643Y-17840214D01*
X15035071Y-17797357D01*
X15020785Y-17768786D01*
X15006500Y-17725929D01*
X14992214Y-17654500D01*
X14992214Y-17597357D01*
X15006500Y-17525929D01*
X15020785Y-17483072D01*
X15035071Y-17454500D01*
X15063643Y-17411643D01*
X15077928Y-17397357D01*
X15320785Y-17440214D02*
X15263643Y-17440214D01*
X15235071Y-17454500D01*
X15220785Y-17468786D01*
X15192214Y-17511643D01*
X15177928Y-17568786D01*
X15177928Y-17683072D01*
X15192214Y-17711643D01*
X15206500Y-17725929D01*
X15235071Y-17740214D01*
X15292214Y-17740214D01*
X15320785Y-17725929D01*
X15335071Y-17711643D01*
X15349357Y-17683072D01*
X15349357Y-17611643D01*
X15335071Y-17583072D01*
X15320785Y-17568786D01*
X15292214Y-17554500D01*
X15235071Y-17554500D01*
X15206500Y-17568786D01*
X15192214Y-17583072D01*
X15177928Y-17611643D01*
X15606500Y-17440214D02*
X15549357Y-17440214D01*
X15520785Y-17454500D01*
X15506500Y-17468786D01*
X15477928Y-17511643D01*
X15463643Y-17568786D01*
X15463643Y-17683072D01*
X15477928Y-17711643D01*
X15492214Y-17725929D01*
X15520785Y-17740214D01*
X15577928Y-17740214D01*
X15606500Y-17725929D01*
X15620785Y-17711643D01*
X15635071Y-17683072D01*
X15635071Y-17611643D01*
X15620785Y-17583072D01*
X15606500Y-17568786D01*
X15577928Y-17554500D01*
X15520785Y-17554500D01*
X15492214Y-17568786D01*
X15477928Y-17583072D01*
X15463643Y-17611643D01*
X15992214Y-17740214D02*
X15992214Y-17440214D01*
X16120785Y-17740214D02*
X16120785Y-17583072D01*
X16106500Y-17554500D01*
X16077928Y-17540214D01*
X16035071Y-17540214D01*
X16006500Y-17554500D01*
X15992214Y-17568786D01*
X16306500Y-17740214D02*
X16277928Y-17725929D01*
X16263643Y-17711643D01*
X16249357Y-17683072D01*
X16249357Y-17597357D01*
X16263643Y-17568786D01*
X16277928Y-17554500D01*
X16306500Y-17540214D01*
X16349357Y-17540214D01*
X16377928Y-17554500D01*
X16392214Y-17568786D01*
X16406500Y-17597357D01*
X16406500Y-17683072D01*
X16392214Y-17711643D01*
X16377928Y-17725929D01*
X16349357Y-17740214D01*
X16306500Y-17740214D01*
X16577928Y-17740214D02*
X16549357Y-17725929D01*
X16535071Y-17697357D01*
X16535071Y-17440214D01*
X16806500Y-17725929D02*
X16777929Y-17740214D01*
X16720786Y-17740214D01*
X16692214Y-17725929D01*
X16677928Y-17697357D01*
X16677928Y-17583072D01*
X16692214Y-17554500D01*
X16720786Y-17540214D01*
X16777929Y-17540214D01*
X16806500Y-17554500D01*
X16820786Y-17583072D01*
X16820786Y-17611643D01*
X16677928Y-17640214D01*
X16935071Y-17725929D02*
X16963643Y-17740214D01*
X17020786Y-17740214D01*
X17049357Y-17725929D01*
X17063643Y-17697357D01*
X17063643Y-17683072D01*
X17049357Y-17654500D01*
X17020786Y-17640214D01*
X16977929Y-17640214D01*
X16949357Y-17625929D01*
X16935071Y-17597357D01*
X16935071Y-17583072D01*
X16949357Y-17554500D01*
X16977929Y-17540214D01*
X17020786Y-17540214D01*
X17049357Y-17554500D01*
X17163643Y-17854500D02*
X17177929Y-17840214D01*
X17206500Y-17797357D01*
X17220786Y-17768786D01*
X17235071Y-17725929D01*
X17249357Y-17654500D01*
X17249357Y-17597357D01*
X17235071Y-17525929D01*
X17220786Y-17483072D01*
X17206500Y-17454500D01*
X17177929Y-17411643D01*
X17163643Y-17397357D01*
X10406500Y-18000500D02*
G75*
G03X10406500Y-18000500I-40000J0D01*
G01*
X10735071Y-17836214D02*
X10763643Y-17836214D01*
X10792214Y-17850500D01*
X10806500Y-17864786D01*
X10820786Y-17893357D01*
X10835071Y-17950500D01*
X10835071Y-18021929D01*
X10820786Y-18079072D01*
X10806500Y-18107643D01*
X10792214Y-18121929D01*
X10763643Y-18136214D01*
X10735071Y-18136214D01*
X10706500Y-18121929D01*
X10692214Y-18107643D01*
X10677929Y-18079072D01*
X10663643Y-18021929D01*
X10663643Y-17950500D01*
X10677929Y-17893357D01*
X10692214Y-17864786D01*
X10706500Y-17850500D01*
X10735071Y-17836214D01*
X10963643Y-18107643D02*
X10977929Y-18121929D01*
X10963643Y-18136214D01*
X10949357Y-18121929D01*
X10963643Y-18107643D01*
X10963643Y-18136214D01*
X11149357Y-17964786D02*
X11120786Y-17950500D01*
X11106500Y-17936214D01*
X11092214Y-17907643D01*
X11092214Y-17893357D01*
X11106500Y-17864786D01*
X11120786Y-17850500D01*
X11149357Y-17836214D01*
X11206500Y-17836214D01*
X11235071Y-17850500D01*
X11249357Y-17864786D01*
X11263643Y-17893357D01*
X11263643Y-17907643D01*
X11249357Y-17936214D01*
X11235071Y-17950500D01*
X11206500Y-17964786D01*
X11149357Y-17964786D01*
X11120786Y-17979072D01*
X11106500Y-17993357D01*
X11092214Y-18021929D01*
X11092214Y-18079072D01*
X11106500Y-18107643D01*
X11120786Y-18121929D01*
X11149357Y-18136214D01*
X11206500Y-18136214D01*
X11235071Y-18121929D01*
X11249357Y-18107643D01*
X11263643Y-18079072D01*
X11263643Y-18021929D01*
X11249357Y-17993357D01*
X11235071Y-17979072D01*
X11206500Y-17964786D01*
X11449357Y-17836214D02*
X11477928Y-17836214D01*
X11506500Y-17850500D01*
X11520786Y-17864786D01*
X11535071Y-17893357D01*
X11549357Y-17950500D01*
X11549357Y-18021929D01*
X11535071Y-18079072D01*
X11520786Y-18107643D01*
X11506500Y-18121929D01*
X11477928Y-18136214D01*
X11449357Y-18136214D01*
X11420786Y-18121929D01*
X11406500Y-18107643D01*
X11392214Y-18079072D01*
X11377928Y-18021929D01*
X11377928Y-17950500D01*
X11392214Y-17893357D01*
X11406500Y-17864786D01*
X11420786Y-17850500D01*
X11449357Y-17836214D01*
X11677928Y-18136214D02*
X11677928Y-17936214D01*
X11677928Y-17964786D02*
X11692214Y-17950500D01*
X11720786Y-17936214D01*
X11763643Y-17936214D01*
X11792214Y-17950500D01*
X11806500Y-17979072D01*
X11806500Y-18136214D01*
X11806500Y-17979072D02*
X11820786Y-17950500D01*
X11849357Y-17936214D01*
X11892214Y-17936214D01*
X11920786Y-17950500D01*
X11935071Y-17979072D01*
X11935071Y-18136214D01*
X12077928Y-18136214D02*
X12077928Y-17936214D01*
X12077928Y-17964786D02*
X12092214Y-17950500D01*
X12120786Y-17936214D01*
X12163643Y-17936214D01*
X12192214Y-17950500D01*
X12206500Y-17979072D01*
X12206500Y-18136214D01*
X12206500Y-17979072D02*
X12220786Y-17950500D01*
X12249357Y-17936214D01*
X12292214Y-17936214D01*
X12320786Y-17950500D01*
X12335071Y-17979072D01*
X12335071Y-18136214D01*
X12920786Y-17821929D02*
X12663643Y-18207643D01*
X13306500Y-17836214D02*
X13335071Y-17836214D01*
X13363643Y-17850500D01*
X13377928Y-17864786D01*
X13392214Y-17893357D01*
X13406500Y-17950500D01*
X13406500Y-18021929D01*
X13392214Y-18079072D01*
X13377928Y-18107643D01*
X13363643Y-18121929D01*
X13335071Y-18136214D01*
X13306500Y-18136214D01*
X13277928Y-18121929D01*
X13263643Y-18107643D01*
X13249357Y-18079072D01*
X13235071Y-18021929D01*
X13235071Y-17950500D01*
X13249357Y-17893357D01*
X13263643Y-17864786D01*
X13277928Y-17850500D01*
X13306500Y-17836214D01*
X13535071Y-18107643D02*
X13549357Y-18121929D01*
X13535071Y-18136214D01*
X13520786Y-18121929D01*
X13535071Y-18107643D01*
X13535071Y-18136214D01*
X13735071Y-17836214D02*
X13763643Y-17836214D01*
X13792214Y-17850500D01*
X13806500Y-17864786D01*
X13820785Y-17893357D01*
X13835071Y-17950500D01*
X13835071Y-18021929D01*
X13820785Y-18079072D01*
X13806500Y-18107643D01*
X13792214Y-18121929D01*
X13763643Y-18136214D01*
X13735071Y-18136214D01*
X13706500Y-18121929D01*
X13692214Y-18107643D01*
X13677928Y-18079072D01*
X13663643Y-18021929D01*
X13663643Y-17950500D01*
X13677928Y-17893357D01*
X13692214Y-17864786D01*
X13706500Y-17850500D01*
X13735071Y-17836214D01*
X13935071Y-17836214D02*
X14120785Y-17836214D01*
X14020785Y-17950500D01*
X14063643Y-17950500D01*
X14092214Y-17964786D01*
X14106500Y-17979072D01*
X14120785Y-18007643D01*
X14120785Y-18079072D01*
X14106500Y-18107643D01*
X14092214Y-18121929D01*
X14063643Y-18136214D01*
X13977928Y-18136214D01*
X13949357Y-18121929D01*
X13935071Y-18107643D01*
X14406500Y-18136214D02*
X14235071Y-18136214D01*
X14320785Y-18136214D02*
X14320785Y-17836214D01*
X14292214Y-17879072D01*
X14263643Y-17907643D01*
X14235071Y-17921929D01*
X14520786Y-17836214D02*
X14520786Y-17893357D01*
X14635071Y-17836214D02*
X14635071Y-17893357D01*
X15077928Y-18250500D02*
X15063643Y-18236214D01*
X15035071Y-18193357D01*
X15020785Y-18164786D01*
X15006500Y-18121929D01*
X14992214Y-18050500D01*
X14992214Y-17993357D01*
X15006500Y-17921929D01*
X15020785Y-17879072D01*
X15035071Y-17850500D01*
X15063643Y-17807643D01*
X15077928Y-17793357D01*
X15320785Y-17836214D02*
X15263643Y-17836214D01*
X15235071Y-17850500D01*
X15220785Y-17864786D01*
X15192214Y-17907643D01*
X15177928Y-17964786D01*
X15177928Y-18079072D01*
X15192214Y-18107643D01*
X15206500Y-18121929D01*
X15235071Y-18136214D01*
X15292214Y-18136214D01*
X15320785Y-18121929D01*
X15335071Y-18107643D01*
X15349357Y-18079072D01*
X15349357Y-18007643D01*
X15335071Y-17979072D01*
X15320785Y-17964786D01*
X15292214Y-17950500D01*
X15235071Y-17950500D01*
X15206500Y-17964786D01*
X15192214Y-17979072D01*
X15177928Y-18007643D01*
X15706500Y-18136214D02*
X15706500Y-17836214D01*
X15835071Y-18136214D02*
X15835071Y-17979072D01*
X15820785Y-17950500D01*
X15792214Y-17936214D01*
X15749357Y-17936214D01*
X15720785Y-17950500D01*
X15706500Y-17964786D01*
X16020785Y-18136214D02*
X15992214Y-18121929D01*
X15977928Y-18107643D01*
X15963643Y-18079072D01*
X15963643Y-17993357D01*
X15977928Y-17964786D01*
X15992214Y-17950500D01*
X16020785Y-17936214D01*
X16063643Y-17936214D01*
X16092214Y-17950500D01*
X16106500Y-17964786D01*
X16120785Y-17993357D01*
X16120785Y-18079072D01*
X16106500Y-18107643D01*
X16092214Y-18121929D01*
X16063643Y-18136214D01*
X16020785Y-18136214D01*
X16292214Y-18136214D02*
X16263643Y-18121929D01*
X16249357Y-18093357D01*
X16249357Y-17836214D01*
X16520786Y-18121929D02*
X16492214Y-18136214D01*
X16435071Y-18136214D01*
X16406500Y-18121929D01*
X16392214Y-18093357D01*
X16392214Y-17979072D01*
X16406500Y-17950500D01*
X16435071Y-17936214D01*
X16492214Y-17936214D01*
X16520786Y-17950500D01*
X16535071Y-17979072D01*
X16535071Y-18007643D01*
X16392214Y-18036214D01*
X16649357Y-18121929D02*
X16677928Y-18136214D01*
X16735071Y-18136214D01*
X16763643Y-18121929D01*
X16777929Y-18093357D01*
X16777929Y-18079072D01*
X16763643Y-18050500D01*
X16735071Y-18036214D01*
X16692214Y-18036214D01*
X16663643Y-18021929D01*
X16649357Y-17993357D01*
X16649357Y-17979072D01*
X16663643Y-17950500D01*
X16692214Y-17936214D01*
X16735071Y-17936214D01*
X16763643Y-17950500D01*
X16877928Y-18250500D02*
X16892214Y-18236214D01*
X16920786Y-18193357D01*
X16935071Y-18164786D01*
X16949357Y-18121929D01*
X16963643Y-18050500D01*
X16963643Y-17993357D01*
X16949357Y-17921929D01*
X16935071Y-17879072D01*
X16920786Y-17850500D01*
X16892214Y-17807643D01*
X16877928Y-17793357D01*
X10364000Y-18354000D02*
X10364000Y-18439000D01*
X10321500Y-18396500D02*
X10406500Y-18396500D01*
X10735071Y-18232214D02*
X10763643Y-18232214D01*
X10792214Y-18246500D01*
X10806500Y-18260786D01*
X10820786Y-18289357D01*
X10835071Y-18346500D01*
X10835071Y-18417929D01*
X10820786Y-18475072D01*
X10806500Y-18503643D01*
X10792214Y-18517929D01*
X10763643Y-18532214D01*
X10735071Y-18532214D01*
X10706500Y-18517929D01*
X10692214Y-18503643D01*
X10677929Y-18475072D01*
X10663643Y-18417929D01*
X10663643Y-18346500D01*
X10677929Y-18289357D01*
X10692214Y-18260786D01*
X10706500Y-18246500D01*
X10735071Y-18232214D01*
X10963643Y-18503643D02*
X10977929Y-18517929D01*
X10963643Y-18532214D01*
X10949357Y-18517929D01*
X10963643Y-18503643D01*
X10963643Y-18532214D01*
X11149357Y-18360786D02*
X11120786Y-18346500D01*
X11106500Y-18332214D01*
X11092214Y-18303643D01*
X11092214Y-18289357D01*
X11106500Y-18260786D01*
X11120786Y-18246500D01*
X11149357Y-18232214D01*
X11206500Y-18232214D01*
X11235071Y-18246500D01*
X11249357Y-18260786D01*
X11263643Y-18289357D01*
X11263643Y-18303643D01*
X11249357Y-18332214D01*
X11235071Y-18346500D01*
X11206500Y-18360786D01*
X11149357Y-18360786D01*
X11120786Y-18375072D01*
X11106500Y-18389357D01*
X11092214Y-18417929D01*
X11092214Y-18475072D01*
X11106500Y-18503643D01*
X11120786Y-18517929D01*
X11149357Y-18532214D01*
X11206500Y-18532214D01*
X11235071Y-18517929D01*
X11249357Y-18503643D01*
X11263643Y-18475072D01*
X11263643Y-18417929D01*
X11249357Y-18389357D01*
X11235071Y-18375072D01*
X11206500Y-18360786D01*
X11535071Y-18232214D02*
X11392214Y-18232214D01*
X11377928Y-18375072D01*
X11392214Y-18360786D01*
X11420786Y-18346500D01*
X11492214Y-18346500D01*
X11520786Y-18360786D01*
X11535071Y-18375072D01*
X11549357Y-18403643D01*
X11549357Y-18475072D01*
X11535071Y-18503643D01*
X11520786Y-18517929D01*
X11492214Y-18532214D01*
X11420786Y-18532214D01*
X11392214Y-18517929D01*
X11377928Y-18503643D01*
X11677928Y-18532214D02*
X11677928Y-18332214D01*
X11677928Y-18360786D02*
X11692214Y-18346500D01*
X11720786Y-18332214D01*
X11763643Y-18332214D01*
X11792214Y-18346500D01*
X11806500Y-18375072D01*
X11806500Y-18532214D01*
X11806500Y-18375072D02*
X11820786Y-18346500D01*
X11849357Y-18332214D01*
X11892214Y-18332214D01*
X11920786Y-18346500D01*
X11935071Y-18375072D01*
X11935071Y-18532214D01*
X12077928Y-18532214D02*
X12077928Y-18332214D01*
X12077928Y-18360786D02*
X12092214Y-18346500D01*
X12120786Y-18332214D01*
X12163643Y-18332214D01*
X12192214Y-18346500D01*
X12206500Y-18375072D01*
X12206500Y-18532214D01*
X12206500Y-18375072D02*
X12220786Y-18346500D01*
X12249357Y-18332214D01*
X12292214Y-18332214D01*
X12320786Y-18346500D01*
X12335071Y-18375072D01*
X12335071Y-18532214D01*
X12920786Y-18217929D02*
X12663643Y-18603643D01*
X13306500Y-18232214D02*
X13335071Y-18232214D01*
X13363643Y-18246500D01*
X13377928Y-18260786D01*
X13392214Y-18289357D01*
X13406500Y-18346500D01*
X13406500Y-18417929D01*
X13392214Y-18475072D01*
X13377928Y-18503643D01*
X13363643Y-18517929D01*
X13335071Y-18532214D01*
X13306500Y-18532214D01*
X13277928Y-18517929D01*
X13263643Y-18503643D01*
X13249357Y-18475072D01*
X13235071Y-18417929D01*
X13235071Y-18346500D01*
X13249357Y-18289357D01*
X13263643Y-18260786D01*
X13277928Y-18246500D01*
X13306500Y-18232214D01*
X13535071Y-18503643D02*
X13549357Y-18517929D01*
X13535071Y-18532214D01*
X13520786Y-18517929D01*
X13535071Y-18503643D01*
X13535071Y-18532214D01*
X13735071Y-18232214D02*
X13763643Y-18232214D01*
X13792214Y-18246500D01*
X13806500Y-18260786D01*
X13820785Y-18289357D01*
X13835071Y-18346500D01*
X13835071Y-18417929D01*
X13820785Y-18475072D01*
X13806500Y-18503643D01*
X13792214Y-18517929D01*
X13763643Y-18532214D01*
X13735071Y-18532214D01*
X13706500Y-18517929D01*
X13692214Y-18503643D01*
X13677928Y-18475072D01*
X13663643Y-18417929D01*
X13663643Y-18346500D01*
X13677928Y-18289357D01*
X13692214Y-18260786D01*
X13706500Y-18246500D01*
X13735071Y-18232214D01*
X13935071Y-18232214D02*
X14120785Y-18232214D01*
X14020785Y-18346500D01*
X14063643Y-18346500D01*
X14092214Y-18360786D01*
X14106500Y-18375072D01*
X14120785Y-18403643D01*
X14120785Y-18475072D01*
X14106500Y-18503643D01*
X14092214Y-18517929D01*
X14063643Y-18532214D01*
X13977928Y-18532214D01*
X13949357Y-18517929D01*
X13935071Y-18503643D01*
X14220785Y-18232214D02*
X14406500Y-18232214D01*
X14306500Y-18346500D01*
X14349357Y-18346500D01*
X14377928Y-18360786D01*
X14392214Y-18375072D01*
X14406500Y-18403643D01*
X14406500Y-18475072D01*
X14392214Y-18503643D01*
X14377928Y-18517929D01*
X14349357Y-18532214D01*
X14263643Y-18532214D01*
X14235071Y-18517929D01*
X14220785Y-18503643D01*
X14520786Y-18232214D02*
X14520786Y-18289357D01*
X14635071Y-18232214D02*
X14635071Y-18289357D01*
X15077928Y-18646500D02*
X15063643Y-18632214D01*
X15035071Y-18589357D01*
X15020785Y-18560786D01*
X15006500Y-18517929D01*
X14992214Y-18446500D01*
X14992214Y-18389357D01*
X15006500Y-18317929D01*
X15020785Y-18275072D01*
X15035071Y-18246500D01*
X15063643Y-18203643D01*
X15077928Y-18189357D01*
X15177928Y-18260786D02*
X15192214Y-18246500D01*
X15220785Y-18232214D01*
X15292214Y-18232214D01*
X15320785Y-18246500D01*
X15335071Y-18260786D01*
X15349357Y-18289357D01*
X15349357Y-18317929D01*
X15335071Y-18360786D01*
X15163643Y-18532214D01*
X15349357Y-18532214D01*
X15706500Y-18532214D02*
X15706500Y-18232214D01*
X15835071Y-18532214D02*
X15835071Y-18375072D01*
X15820785Y-18346500D01*
X15792214Y-18332214D01*
X15749357Y-18332214D01*
X15720785Y-18346500D01*
X15706500Y-18360786D01*
X16020785Y-18532214D02*
X15992214Y-18517929D01*
X15977928Y-18503643D01*
X15963643Y-18475072D01*
X15963643Y-18389357D01*
X15977928Y-18360786D01*
X15992214Y-18346500D01*
X16020785Y-18332214D01*
X16063643Y-18332214D01*
X16092214Y-18346500D01*
X16106500Y-18360786D01*
X16120785Y-18389357D01*
X16120785Y-18475072D01*
X16106500Y-18503643D01*
X16092214Y-18517929D01*
X16063643Y-18532214D01*
X16020785Y-18532214D01*
X16292214Y-18532214D02*
X16263643Y-18517929D01*
X16249357Y-18489357D01*
X16249357Y-18232214D01*
X16520786Y-18517929D02*
X16492214Y-18532214D01*
X16435071Y-18532214D01*
X16406500Y-18517929D01*
X16392214Y-18489357D01*
X16392214Y-18375072D01*
X16406500Y-18346500D01*
X16435071Y-18332214D01*
X16492214Y-18332214D01*
X16520786Y-18346500D01*
X16535071Y-18375072D01*
X16535071Y-18403643D01*
X16392214Y-18432214D01*
X16649357Y-18517929D02*
X16677928Y-18532214D01*
X16735071Y-18532214D01*
X16763643Y-18517929D01*
X16777929Y-18489357D01*
X16777929Y-18475072D01*
X16763643Y-18446500D01*
X16735071Y-18432214D01*
X16692214Y-18432214D01*
X16663643Y-18417929D01*
X16649357Y-18389357D01*
X16649357Y-18375072D01*
X16663643Y-18346500D01*
X16692214Y-18332214D01*
X16735071Y-18332214D01*
X16763643Y-18346500D01*
X16877928Y-18646500D02*
X16892214Y-18632214D01*
X16920786Y-18589357D01*
X16935071Y-18560786D01*
X16949357Y-18517929D01*
X16963643Y-18446500D01*
X16963643Y-18389357D01*
X16949357Y-18317929D01*
X16935071Y-18275072D01*
X16920786Y-18246500D01*
X16892214Y-18203643D01*
X16877928Y-18189357D01*
X10391856Y-18827856D02*
X10391856Y-18757144D01*
X10321144Y-18757144D01*
X10321144Y-18827856D01*
X10391856Y-18827856D01*
X10835071Y-18928214D02*
X10663643Y-18928214D01*
X10749357Y-18928214D02*
X10749357Y-18628214D01*
X10720786Y-18671072D01*
X10692214Y-18699643D01*
X10663643Y-18713929D01*
X10963643Y-18899643D02*
X10977929Y-18913929D01*
X10963643Y-18928214D01*
X10949357Y-18913929D01*
X10963643Y-18899643D01*
X10963643Y-18928214D01*
X11163643Y-18628214D02*
X11192214Y-18628214D01*
X11220786Y-18642500D01*
X11235071Y-18656786D01*
X11249357Y-18685357D01*
X11263643Y-18742500D01*
X11263643Y-18813929D01*
X11249357Y-18871072D01*
X11235071Y-18899643D01*
X11220786Y-18913929D01*
X11192214Y-18928214D01*
X11163643Y-18928214D01*
X11135071Y-18913929D01*
X11120786Y-18899643D01*
X11106500Y-18871072D01*
X11092214Y-18813929D01*
X11092214Y-18742500D01*
X11106500Y-18685357D01*
X11120786Y-18656786D01*
X11135071Y-18642500D01*
X11163643Y-18628214D01*
X11449357Y-18628214D02*
X11477928Y-18628214D01*
X11506500Y-18642500D01*
X11520786Y-18656786D01*
X11535071Y-18685357D01*
X11549357Y-18742500D01*
X11549357Y-18813929D01*
X11535071Y-18871072D01*
X11520786Y-18899643D01*
X11506500Y-18913929D01*
X11477928Y-18928214D01*
X11449357Y-18928214D01*
X11420786Y-18913929D01*
X11406500Y-18899643D01*
X11392214Y-18871072D01*
X11377928Y-18813929D01*
X11377928Y-18742500D01*
X11392214Y-18685357D01*
X11406500Y-18656786D01*
X11420786Y-18642500D01*
X11449357Y-18628214D01*
X11677928Y-18928214D02*
X11677928Y-18728214D01*
X11677928Y-18756786D02*
X11692214Y-18742500D01*
X11720786Y-18728214D01*
X11763643Y-18728214D01*
X11792214Y-18742500D01*
X11806500Y-18771072D01*
X11806500Y-18928214D01*
X11806500Y-18771072D02*
X11820786Y-18742500D01*
X11849357Y-18728214D01*
X11892214Y-18728214D01*
X11920786Y-18742500D01*
X11935071Y-18771072D01*
X11935071Y-18928214D01*
X12077928Y-18928214D02*
X12077928Y-18728214D01*
X12077928Y-18756786D02*
X12092214Y-18742500D01*
X12120786Y-18728214D01*
X12163643Y-18728214D01*
X12192214Y-18742500D01*
X12206500Y-18771072D01*
X12206500Y-18928214D01*
X12206500Y-18771072D02*
X12220786Y-18742500D01*
X12249357Y-18728214D01*
X12292214Y-18728214D01*
X12320786Y-18742500D01*
X12335071Y-18771072D01*
X12335071Y-18928214D01*
X12920786Y-18613929D02*
X12663643Y-18999643D01*
X13306500Y-18628214D02*
X13335071Y-18628214D01*
X13363643Y-18642500D01*
X13377928Y-18656786D01*
X13392214Y-18685357D01*
X13406500Y-18742500D01*
X13406500Y-18813929D01*
X13392214Y-18871072D01*
X13377928Y-18899643D01*
X13363643Y-18913929D01*
X13335071Y-18928214D01*
X13306500Y-18928214D01*
X13277928Y-18913929D01*
X13263643Y-18899643D01*
X13249357Y-18871072D01*
X13235071Y-18813929D01*
X13235071Y-18742500D01*
X13249357Y-18685357D01*
X13263643Y-18656786D01*
X13277928Y-18642500D01*
X13306500Y-18628214D01*
X13535071Y-18899643D02*
X13549357Y-18913929D01*
X13535071Y-18928214D01*
X13520786Y-18913929D01*
X13535071Y-18899643D01*
X13535071Y-18928214D01*
X13735071Y-18628214D02*
X13763643Y-18628214D01*
X13792214Y-18642500D01*
X13806500Y-18656786D01*
X13820785Y-18685357D01*
X13835071Y-18742500D01*
X13835071Y-18813929D01*
X13820785Y-18871072D01*
X13806500Y-18899643D01*
X13792214Y-18913929D01*
X13763643Y-18928214D01*
X13735071Y-18928214D01*
X13706500Y-18913929D01*
X13692214Y-18899643D01*
X13677928Y-18871072D01*
X13663643Y-18813929D01*
X13663643Y-18742500D01*
X13677928Y-18685357D01*
X13692214Y-18656786D01*
X13706500Y-18642500D01*
X13735071Y-18628214D01*
X13935071Y-18628214D02*
X14120785Y-18628214D01*
X14020785Y-18742500D01*
X14063643Y-18742500D01*
X14092214Y-18756786D01*
X14106500Y-18771072D01*
X14120785Y-18799643D01*
X14120785Y-18871072D01*
X14106500Y-18899643D01*
X14092214Y-18913929D01*
X14063643Y-18928214D01*
X13977928Y-18928214D01*
X13949357Y-18913929D01*
X13935071Y-18899643D01*
X14263643Y-18928214D02*
X14320785Y-18928214D01*
X14349357Y-18913929D01*
X14363643Y-18899643D01*
X14392214Y-18856786D01*
X14406500Y-18799643D01*
X14406500Y-18685357D01*
X14392214Y-18656786D01*
X14377928Y-18642500D01*
X14349357Y-18628214D01*
X14292214Y-18628214D01*
X14263643Y-18642500D01*
X14249357Y-18656786D01*
X14235071Y-18685357D01*
X14235071Y-18756786D01*
X14249357Y-18785357D01*
X14263643Y-18799643D01*
X14292214Y-18813929D01*
X14349357Y-18813929D01*
X14377928Y-18799643D01*
X14392214Y-18785357D01*
X14406500Y-18756786D01*
X14520786Y-18628214D02*
X14520786Y-18685357D01*
X14635071Y-18628214D02*
X14635071Y-18685357D01*
X15077928Y-19042500D02*
X15063643Y-19028214D01*
X15035071Y-18985357D01*
X15020785Y-18956786D01*
X15006500Y-18913929D01*
X14992214Y-18842500D01*
X14992214Y-18785357D01*
X15006500Y-18713929D01*
X15020785Y-18671072D01*
X15035071Y-18642500D01*
X15063643Y-18599643D01*
X15077928Y-18585357D01*
X15235071Y-18756786D02*
X15206500Y-18742500D01*
X15192214Y-18728214D01*
X15177928Y-18699643D01*
X15177928Y-18685357D01*
X15192214Y-18656786D01*
X15206500Y-18642500D01*
X15235071Y-18628214D01*
X15292214Y-18628214D01*
X15320785Y-18642500D01*
X15335071Y-18656786D01*
X15349357Y-18685357D01*
X15349357Y-18699643D01*
X15335071Y-18728214D01*
X15320785Y-18742500D01*
X15292214Y-18756786D01*
X15235071Y-18756786D01*
X15206500Y-18771072D01*
X15192214Y-18785357D01*
X15177928Y-18813929D01*
X15177928Y-18871072D01*
X15192214Y-18899643D01*
X15206500Y-18913929D01*
X15235071Y-18928214D01*
X15292214Y-18928214D01*
X15320785Y-18913929D01*
X15335071Y-18899643D01*
X15349357Y-18871072D01*
X15349357Y-18813929D01*
X15335071Y-18785357D01*
X15320785Y-18771072D01*
X15292214Y-18756786D01*
X15706500Y-18928214D02*
X15706500Y-18628214D01*
X15835071Y-18928214D02*
X15835071Y-18771072D01*
X15820785Y-18742500D01*
X15792214Y-18728214D01*
X15749357Y-18728214D01*
X15720785Y-18742500D01*
X15706500Y-18756786D01*
X16020785Y-18928214D02*
X15992214Y-18913929D01*
X15977928Y-18899643D01*
X15963643Y-18871072D01*
X15963643Y-18785357D01*
X15977928Y-18756786D01*
X15992214Y-18742500D01*
X16020785Y-18728214D01*
X16063643Y-18728214D01*
X16092214Y-18742500D01*
X16106500Y-18756786D01*
X16120785Y-18785357D01*
X16120785Y-18871072D01*
X16106500Y-18899643D01*
X16092214Y-18913929D01*
X16063643Y-18928214D01*
X16020785Y-18928214D01*
X16292214Y-18928214D02*
X16263643Y-18913929D01*
X16249357Y-18885357D01*
X16249357Y-18628214D01*
X16520786Y-18913929D02*
X16492214Y-18928214D01*
X16435071Y-18928214D01*
X16406500Y-18913929D01*
X16392214Y-18885357D01*
X16392214Y-18771072D01*
X16406500Y-18742500D01*
X16435071Y-18728214D01*
X16492214Y-18728214D01*
X16520786Y-18742500D01*
X16535071Y-18771072D01*
X16535071Y-18799643D01*
X16392214Y-18828214D01*
X16649357Y-18913929D02*
X16677928Y-18928214D01*
X16735071Y-18928214D01*
X16763643Y-18913929D01*
X16777929Y-18885357D01*
X16777929Y-18871072D01*
X16763643Y-18842500D01*
X16735071Y-18828214D01*
X16692214Y-18828214D01*
X16663643Y-18813929D01*
X16649357Y-18785357D01*
X16649357Y-18771072D01*
X16663643Y-18742500D01*
X16692214Y-18728214D01*
X16735071Y-18728214D01*
X16763643Y-18742500D01*
X16877928Y-19042500D02*
X16892214Y-19028214D01*
X16920786Y-18985357D01*
X16935071Y-18956786D01*
X16949357Y-18913929D01*
X16963643Y-18842500D01*
X16963643Y-18785357D01*
X16949357Y-18713929D01*
X16935071Y-18671072D01*
X16920786Y-18642500D01*
X16892214Y-18599643D01*
X16877928Y-18585357D01*
M02*
