M48
; DRILL file {KiCad 5.1.6-c6e7f7d~86~ubuntu19.10.1} date Sat Nov 14 00:44:01 2020
; FORMAT={-:-/ absolute / inch / decimal}
; #@! TF.CreationDate,2020-11-14T00:44:01+02:00
; #@! TF.GenerationSoftware,Kicad,Pcbnew,5.1.6-c6e7f7d~86~ubuntu19.10.1
; #@! TF.FileFunction,Plated,1,2,PTH
FMAT,2
INCH
T1C0.0300
T2C0.0354
T3C0.0394
T4C0.0630
%
G90
G05
T1
X0.975Y-2.925
T2
X3.575Y-6.125
X3.675Y-6.125
X3.775Y-6.125
X3.875Y-6.125
X3.975Y-6.125
X4.075Y-6.125
X4.175Y-6.125
X4.275Y-6.125
X0.8Y-1.15
X0.8Y-1.25
X0.8Y-1.35
X0.8Y-1.45
X4.6499Y-2.8746
X4.6499Y-2.9746
X4.6499Y-3.0746
X4.6499Y-3.1746
X0.725Y-2.35
X0.825Y-2.35
X0.925Y-2.35
X3.0Y-5.975
X3.05Y-5.875
X3.1Y-5.975
X3.15Y-5.875
X3.2Y-5.975
X3.25Y-5.875
X3.3Y-5.975
X3.35Y-5.875
X3.55Y-5.975
X3.6Y-5.875
X3.65Y-5.975
X3.7Y-5.875
X3.75Y-5.975
X3.8Y-5.875
X3.85Y-5.975
X3.9Y-5.875
X3.3Y-2.925
X3.3Y-3.025
X3.3Y-3.125
X3.3Y-3.225
X3.3Y-3.425
X3.5Y-2.925
X3.5Y-3.025
X3.5Y-3.125
X3.5Y-3.225
X3.5Y-3.425
X2.075Y-4.025
X2.275Y-4.025
X1.125Y-4.25
X1.175Y-4.15
X1.225Y-4.25
X1.275Y-4.15
X1.325Y-4.25
X1.375Y-4.15
X1.425Y-4.25
X1.475Y-4.15
X1.675Y-4.25
X1.725Y-4.15
X1.775Y-4.25
X1.825Y-4.15
X1.875Y-4.25
X1.925Y-4.15
X1.975Y-4.25
X2.025Y-4.15
X2.375Y-4.25
X2.425Y-4.15
X2.475Y-4.25
X2.525Y-4.15
X2.575Y-4.25
X2.625Y-4.15
X2.675Y-4.25
X2.725Y-4.15
X2.925Y-4.25
X2.975Y-4.15
X3.025Y-4.25
X3.075Y-4.15
X3.125Y-4.25
X3.175Y-4.15
X3.225Y-4.25
X3.275Y-4.15
X4.775Y-1.8
X4.875Y-1.8
X4.975Y-1.8
X5.075Y-1.8
X5.175Y-1.8
X5.275Y-1.8
X5.375Y-1.8
X3.185Y-0.8
X3.265Y-0.8
X1.25Y-3.225
X1.45Y-3.225
X4.889Y-3.569
X4.889Y-3.669
X4.889Y-3.769
X3.3Y-3.525
X3.5Y-3.525
X1.175Y-5.475
X1.225Y-5.375
X1.275Y-5.475
X1.325Y-5.375
X1.375Y-5.475
X1.425Y-5.375
X1.475Y-5.475
X1.525Y-5.375
X1.725Y-5.475
X1.775Y-5.375
X1.825Y-5.475
X1.875Y-5.375
X1.925Y-5.475
X1.975Y-5.375
X2.025Y-5.475
X2.075Y-5.375
X1.625Y-5.225
X0.825Y-2.25
X0.925Y-2.25
X0.725Y-2.475
X0.825Y-2.475
X0.925Y-2.475
X4.7496Y-3.575
X4.7496Y-3.675
X4.7496Y-3.775
X1.75Y-5.225
X1.85Y-5.225
X1.95Y-5.225
X2.05Y-5.225
X2.15Y-5.225
X2.25Y-5.225
X2.35Y-5.225
X2.45Y-5.225
X1.25Y-3.925
X1.45Y-3.925
X2.075Y-3.425
X2.075Y-3.625
X2.075Y-3.725
X2.075Y-3.825
X2.075Y-3.925
X2.275Y-3.425
X2.275Y-3.625
X2.275Y-3.725
X2.275Y-3.825
X2.275Y-3.925
X1.55Y-0.8
X1.55Y-0.9
X4.7499Y-2.9183
X4.7499Y-2.9892
X4.7499Y-3.06
X4.7499Y-3.1309
X2.075Y-0.8
X2.175Y-0.8
X3.3Y-2.825
X3.5Y-2.825
X2.9Y-1.1
X2.95Y-1.0
X3.0Y-1.1
X3.05Y-1.0
X3.1Y-1.1
X3.15Y-1.0
X3.2Y-1.1
X3.25Y-1.0
X3.45Y-1.1
X3.5Y-1.0
X3.55Y-1.1
X3.6Y-1.0
X3.65Y-1.1
X3.7Y-1.0
X3.75Y-1.1
X3.8Y-1.0
X1.7Y-0.9
X1.8Y-0.9
X0.975Y-2.825
X1.075Y-2.825
X1.075Y-2.925
X1.175Y-2.825
X1.175Y-2.925
X1.275Y-2.825
X1.275Y-2.925
X1.375Y-2.825
X1.375Y-2.925
X1.475Y-2.825
X1.475Y-2.925
X1.575Y-2.825
X1.575Y-2.925
X1.675Y-2.825
X1.675Y-2.925
X1.775Y-2.825
X1.775Y-2.925
X1.875Y-2.825
X1.875Y-2.925
X1.975Y-2.825
X1.975Y-2.925
X2.075Y-2.825
X2.075Y-2.925
X2.175Y-2.825
X2.175Y-2.925
X2.275Y-2.825
X2.275Y-2.925
X2.375Y-2.825
X2.375Y-2.925
X2.475Y-2.825
X2.475Y-2.925
X2.575Y-2.825
X2.575Y-2.925
X2.675Y-2.825
X2.675Y-2.925
X2.775Y-2.825
X2.775Y-2.925
X2.875Y-2.825
X2.875Y-2.925
X1.0Y-1.725
X1.0Y-2.025
X2.45Y-0.8
X2.55Y-0.8
X2.65Y-0.8
X2.75Y-0.8
X2.85Y-0.8
X2.95Y-0.8
X3.05Y-0.8
X4.775Y-0.925
X4.875Y-0.925
X4.975Y-0.925
X5.075Y-0.925
X5.175Y-0.925
X5.275Y-0.925
X5.375Y-0.925
X4.275Y-2.85
X4.275Y-2.95
X4.275Y-3.05
X4.275Y-3.15
X4.275Y-3.25
X4.275Y-3.35
X4.275Y-3.45
X4.275Y-3.55
X4.275Y-3.65
X4.275Y-3.75
X4.275Y-3.85
X4.275Y-3.95
X4.275Y-4.05
X4.275Y-4.15
X4.275Y-4.25
X4.275Y-4.35
X4.275Y-4.45
X4.275Y-4.55
X4.275Y-4.65
X4.275Y-4.75
X3.45Y-6.125
X2.625Y-6.125
X2.725Y-6.125
X2.825Y-6.125
X2.925Y-6.125
X3.025Y-6.125
X3.125Y-6.125
X3.225Y-6.125
X3.325Y-6.125
X0.8Y-5.225
X0.9Y-5.225
X1.0Y-5.225
X1.1Y-5.225
X1.2Y-5.225
X1.3Y-5.225
X1.4Y-5.225
X1.5Y-5.225
X1.675Y-0.8
X1.775Y-0.8
X1.875Y-0.8
X1.975Y-0.8
X1.65Y-1.1
X1.7Y-1.0
X1.75Y-1.1
X1.8Y-1.0
X1.85Y-1.1
X1.9Y-1.0
X1.95Y-1.1
X2.0Y-1.0
X2.2Y-1.1
X2.25Y-1.0
X2.3Y-1.1
X2.35Y-1.0
X2.4Y-1.1
X2.45Y-1.0
X2.5Y-1.1
X2.55Y-1.0
X1.975Y-3.225
X1.975Y-3.425
X4.425Y-3.55
X4.425Y-3.65
X4.425Y-3.75
X4.425Y-3.85
X4.425Y-3.95
X4.425Y-4.05
X4.425Y-4.15
X0.925Y-1.15
X1.025Y-1.15
X3.4Y-0.8
X3.5Y-0.8
X1.25Y-3.325
X1.25Y-3.525
X1.25Y-3.625
X1.25Y-3.725
X1.25Y-3.825
X1.45Y-3.325
X1.45Y-3.525
X1.45Y-3.625
X1.45Y-3.725
X1.45Y-3.825
T3
X4.3614Y-2.3
X4.3614Y-2.5
X3.7386Y-3.4
X3.7386Y-3.6
X3.7386Y-3.8
X3.7386Y-4.0
X0.775Y-0.9114
X0.975Y-0.9114
X1.175Y-0.9114
X1.375Y-0.9114
X0.9114Y-3.375
X0.9114Y-3.575
X0.9114Y-3.775
X0.9114Y-3.975
X3.7386Y-2.975
X3.7386Y-3.175
T4
X2.7423Y-1.5299
X3.35Y-0.9469
X3.9577Y-1.5299
X1.4923Y-1.5299
X2.1Y-0.9469
X2.7077Y-1.5299
X2.8423Y-5.4451
X3.45Y-6.0281
X4.0577Y-5.4451
X0.9673Y-4.6799
X1.575Y-4.0969
X2.1827Y-4.6799
X2.2173Y-4.6799
X2.825Y-4.0969
X3.4327Y-4.6799
X1.0173Y-5.9049
X1.625Y-5.3219
X2.2327Y-5.9049
T0
M30
