G04 #@! TF.FileFunction,Profile,NP*
%FSLAX46Y46*%
G04 Gerber Fmt 4.6, Leading zero omitted, Abs format (unit mm)*
G04 Created by KiCad (PCBNEW 4.0.7-e1-6374~58~ubuntu16.04.1) date Tue Aug  8 22:45:54 2017*
%MOMM*%
%LPD*%
G01*
G04 APERTURE LIST*
%ADD10C,0.100000*%
%ADD11C,0.150000*%
G04 APERTURE END LIST*
D10*
D11*
X167640000Y-135255000D02*
X167640000Y-140335000D01*
X162560000Y-135255000D02*
X167640000Y-135255000D01*
X161925000Y-134620000D02*
X162560000Y-135255000D01*
X161290000Y-134620000D02*
X161925000Y-134620000D01*
X157480000Y-134620000D02*
X161290000Y-134620000D01*
X157480000Y-132715000D02*
X157480000Y-134620000D01*
X156210000Y-131445000D02*
X157480000Y-132715000D01*
X137160000Y-131445000D02*
X156210000Y-131445000D01*
X137160000Y-133350000D02*
X137160000Y-131445000D01*
X128905000Y-133350000D02*
X137160000Y-133350000D01*
X127000000Y-135255000D02*
X128905000Y-133350000D01*
X115570000Y-135255000D02*
X127000000Y-135255000D01*
X114300000Y-136525000D02*
X115570000Y-135255000D01*
X114300000Y-137160000D02*
X114300000Y-136525000D01*
X167640000Y-140970000D02*
X167640000Y-140335000D01*
X151765000Y-140970000D02*
X144145000Y-140970000D01*
X141605000Y-140970000D02*
X132715000Y-140970000D01*
X163195000Y-140970000D02*
X154305000Y-140970000D01*
X129540000Y-140970000D02*
X124460000Y-140970000D01*
X114300000Y-139700000D02*
X114300000Y-140970000D01*
X121920000Y-140970000D02*
X121920000Y-142240000D01*
X114300000Y-140970000D02*
X121920000Y-140970000D01*
X167640000Y-140970000D02*
X165735000Y-140970000D01*
X114300000Y-136525000D02*
X114300000Y-137160000D01*
X114300000Y-137160000D02*
X113030000Y-137160000D01*
X113030000Y-139700000D02*
X114300000Y-139700000D01*
X121920000Y-142875000D02*
X121920000Y-142240000D01*
X124460000Y-140970000D02*
X124460000Y-142875000D01*
X129540000Y-142875000D02*
X129540000Y-140970000D01*
X132715000Y-140970000D02*
X132715000Y-142875000D01*
X141605000Y-142875000D02*
X141605000Y-140970000D01*
X144145000Y-140970000D02*
X144145000Y-142875000D01*
X151765000Y-142875000D02*
X151765000Y-140970000D01*
X154305000Y-140970000D02*
X154305000Y-142875000D01*
X163195000Y-142875000D02*
X163195000Y-140970000D01*
X165735000Y-140970000D02*
X165735000Y-142875000D01*
X114935000Y-161925000D02*
X114300000Y-161925000D01*
X114935000Y-159385000D02*
X114935000Y-161925000D01*
X114300000Y-159385000D02*
X114935000Y-159385000D01*
X114935000Y-164465000D02*
X114300000Y-164465000D01*
X114935000Y-165100000D02*
X114935000Y-164465000D01*
X114935000Y-156845000D02*
X114935000Y-147320000D01*
X114300000Y-156845000D02*
X114935000Y-156845000D01*
X109220000Y-153035000D02*
X109220000Y-154305000D01*
X106680000Y-154305000D02*
X106680000Y-153035000D01*
X172720000Y-142875000D02*
X167640000Y-142875000D01*
X172720000Y-142875000D02*
X173990000Y-144145000D01*
X173990000Y-165735000D02*
X173990000Y-144145000D01*
X172720000Y-167005000D02*
X173990000Y-165735000D01*
X116205000Y-167005000D02*
X172720000Y-167005000D01*
X114935000Y-165100000D02*
X114935000Y-165735000D01*
X114935000Y-165735000D02*
X116205000Y-167005000D01*
X144145000Y-142875000D02*
X151765000Y-142875000D01*
X132715000Y-142875000D02*
X141605000Y-142875000D01*
X154305000Y-142875000D02*
X163195000Y-142875000D01*
X124460000Y-142875000D02*
X129540000Y-142875000D01*
X114935000Y-147320000D02*
X114300000Y-147320000D01*
X116205000Y-142875000D02*
X121920000Y-142875000D01*
X114935000Y-144145000D02*
X116205000Y-142875000D01*
X114935000Y-144780000D02*
X114935000Y-144145000D01*
X114300000Y-144780000D02*
X114935000Y-144780000D01*
X113030000Y-164465000D02*
X114300000Y-164465000D01*
X113030000Y-164465000D02*
X113030000Y-165735000D01*
X113030000Y-161925000D02*
X113030000Y-159385000D01*
X114300000Y-161925000D02*
X113030000Y-161925000D01*
X113030000Y-159385000D02*
X114300000Y-159385000D01*
X113030000Y-156845000D02*
X114300000Y-156845000D01*
X111760000Y-155575000D02*
X110490000Y-155575000D01*
X111760000Y-155575000D02*
X113030000Y-156845000D01*
X113030000Y-152400000D02*
X113030000Y-147320000D01*
X113030000Y-147320000D02*
X114300000Y-147320000D01*
X113030000Y-140970000D02*
X113030000Y-139700000D01*
X114300000Y-144780000D02*
X113030000Y-144780000D01*
X113030000Y-140970000D02*
X113030000Y-144780000D01*
X105410000Y-160655000D02*
X104140000Y-160655000D01*
X105410000Y-158115000D02*
X105410000Y-160655000D01*
X104140000Y-158115000D02*
X105410000Y-158115000D01*
X104140000Y-160655000D02*
X104140000Y-158115000D01*
X109220000Y-154305000D02*
X110490000Y-154305000D01*
X106680000Y-153035000D02*
X104140000Y-153035000D01*
X105410000Y-154305000D02*
X106680000Y-154305000D01*
X105410000Y-155575000D02*
X105410000Y-154305000D01*
X104140000Y-155575000D02*
X105410000Y-155575000D01*
X104140000Y-163195000D02*
X105410000Y-163195000D01*
X110490000Y-154305000D02*
X110490000Y-155575000D01*
X105410000Y-167005000D02*
X105410000Y-163195000D01*
X110490000Y-165735000D02*
X113030000Y-165735000D01*
X109220000Y-167005000D02*
X110490000Y-165735000D01*
X105410000Y-167005000D02*
X109220000Y-167005000D01*
X104140000Y-164465000D02*
X104140000Y-163195000D01*
X102870000Y-164465000D02*
X104140000Y-164465000D01*
X104140000Y-154305000D02*
X104140000Y-155575000D01*
X102870000Y-154305000D02*
X104140000Y-154305000D01*
X97155000Y-164465000D02*
X102870000Y-164465000D01*
X95885000Y-163195000D02*
X97155000Y-164465000D01*
X95885000Y-155575000D02*
X95885000Y-163195000D01*
X97155000Y-154305000D02*
X95885000Y-155575000D01*
X102870000Y-154305000D02*
X97155000Y-154305000D01*
X109855000Y-152400000D02*
X113030000Y-152400000D01*
X109220000Y-153035000D02*
X109855000Y-152400000D01*
X102235000Y-151130000D02*
X104140000Y-153035000D01*
X102235000Y-148590000D02*
X102235000Y-151130000D01*
X102235000Y-147320000D02*
X102235000Y-148590000D01*
X100965000Y-147320000D02*
X102235000Y-147320000D01*
X99695000Y-146050000D02*
X100965000Y-147320000D01*
X99695000Y-134620000D02*
X99695000Y-146050000D01*
X102870000Y-134620000D02*
X99695000Y-134620000D01*
X102870000Y-133350000D02*
X102870000Y-134620000D01*
X104140000Y-132080000D02*
X102870000Y-133350000D01*
X110490000Y-132080000D02*
X104140000Y-132080000D01*
X111760000Y-132080000D02*
X110490000Y-132080000D01*
X113030000Y-133350000D02*
X111760000Y-132080000D01*
X113030000Y-137160000D02*
X113030000Y-133350000D01*
X167640000Y-142875000D02*
X165735000Y-142875000D01*
M02*
