G04 #@! TF.FileFunction,Copper,L2,Bot,Signal*
%FSLAX46Y46*%
G04 Gerber Fmt 4.6, Leading zero omitted, Abs format (unit mm)*
G04 Created by KiCad (PCBNEW 4.0.7-e2-6376~58~ubuntu16.04.1) date Sun Dec  9 15:38:39 2018*
%MOMM*%
%LPD*%
G01*
G04 APERTURE LIST*
%ADD10C,0.100000*%
%ADD11R,1.750000X1.750000*%
%ADD12C,1.750000*%
%ADD13O,1.200000X1.750000*%
%ADD14R,1.200000X1.750000*%
%ADD15C,1.250000*%
%ADD16R,1.524000X1.524000*%
%ADD17C,1.524000*%
%ADD18C,0.500000*%
G04 APERTURE END LIST*
D10*
D11*
X139700000Y-154305000D03*
D12*
X132080000Y-154305000D03*
D13*
X144620000Y-187325000D03*
D14*
X150020000Y-187325000D03*
D13*
X148220000Y-187325000D03*
X146420000Y-187325000D03*
D11*
X163195000Y-180340000D03*
D12*
X163195000Y-185420000D03*
X163195000Y-187960000D03*
X163195000Y-190500000D03*
X163195000Y-193040000D03*
X168275000Y-193040000D03*
X168275000Y-190500000D03*
X168275000Y-187960000D03*
X168275000Y-185420000D03*
X168275000Y-180340000D03*
D11*
X160655000Y-160655000D03*
D12*
X163195000Y-160655000D03*
X165735000Y-160655000D03*
X168275000Y-160655000D03*
D11*
X139065000Y-163830000D03*
D12*
X141605000Y-163830000D03*
X144145000Y-163830000D03*
X146685000Y-163830000D03*
X149225000Y-163830000D03*
X151765000Y-163830000D03*
X154305000Y-163830000D03*
D11*
X156210000Y-156210000D03*
D12*
X161290000Y-156210000D03*
X163830000Y-156210000D03*
X166370000Y-156210000D03*
X168910000Y-156210000D03*
X168910000Y-151130000D03*
X166370000Y-151130000D03*
X163830000Y-151130000D03*
X161290000Y-151130000D03*
X156210000Y-151130000D03*
D11*
X139065000Y-132080000D03*
D12*
X141605000Y-132080000D03*
X144145000Y-132080000D03*
X146685000Y-132080000D03*
X149225000Y-132080000D03*
X151765000Y-132080000D03*
X154305000Y-132080000D03*
D11*
X168910000Y-135890000D03*
D12*
X166370000Y-135890000D03*
X163830000Y-135890000D03*
X161290000Y-135890000D03*
X158750000Y-135890000D03*
X156210000Y-135890000D03*
X153670000Y-135890000D03*
X151130000Y-135890000D03*
X148590000Y-135890000D03*
X146050000Y-135890000D03*
X143510000Y-135890000D03*
X140970000Y-135890000D03*
X138430000Y-135890000D03*
X135890000Y-135890000D03*
X133350000Y-135890000D03*
X130810000Y-135890000D03*
X128270000Y-135890000D03*
X125730000Y-135890000D03*
X123190000Y-135890000D03*
X120650000Y-135890000D03*
D10*
G36*
X150369080Y-149766643D02*
X149131643Y-151004080D01*
X148247760Y-150120197D01*
X149485197Y-148882760D01*
X150369080Y-149766643D01*
X150369080Y-149766643D01*
G37*
D15*
X147694803Y-148683357D02*
X148048357Y-148329803D01*
D11*
X171450000Y-156210000D03*
D12*
X171450000Y-151130000D03*
D11*
X153670000Y-156210000D03*
D12*
X153670000Y-151130000D03*
D11*
X124472765Y-188012605D03*
D12*
X121932765Y-188012605D03*
X119392765Y-188012605D03*
D11*
X162560000Y-144780000D03*
D12*
X160020000Y-144780000D03*
X157480000Y-144780000D03*
D11*
X139065000Y-144780000D03*
D12*
X141605000Y-144780000D03*
X144145000Y-144780000D03*
X146685000Y-144780000D03*
X149225000Y-144780000D03*
X151765000Y-144780000D03*
X154305000Y-144780000D03*
D11*
X118110000Y-144780000D03*
D12*
X120650000Y-144780000D03*
X123190000Y-144780000D03*
X125730000Y-144780000D03*
X123190000Y-158750000D03*
X123190000Y-148590000D03*
X120650000Y-158750000D03*
X120650000Y-148590000D03*
X118110000Y-158750000D03*
X118110000Y-148590000D03*
X153670000Y-159385000D03*
X143510000Y-159385000D03*
X147955000Y-154305000D03*
X145415000Y-154305000D03*
X150495000Y-154305000D03*
X121932764Y-191187606D03*
X119392764Y-191187606D03*
X124472764Y-191187606D03*
D11*
X143485660Y-189935429D03*
D12*
X146025660Y-189935429D03*
X148565660Y-189935429D03*
X151105660Y-189935429D03*
D11*
X140335000Y-179705000D03*
D12*
X142875000Y-179705000D03*
X145415000Y-179705000D03*
X147955000Y-179705000D03*
X150495000Y-179705000D03*
X153035000Y-179705000D03*
X155575000Y-179705000D03*
X158115000Y-179705000D03*
D11*
X120015000Y-179705000D03*
D12*
X122555000Y-179705000D03*
X125095000Y-179705000D03*
X127635000Y-179705000D03*
X130175000Y-179705000D03*
X132715000Y-179705000D03*
X135255000Y-179705000D03*
D16*
X120015000Y-174625000D03*
D17*
X120015000Y-172085000D03*
X122555000Y-174625000D03*
X122555000Y-172085000D03*
X125095000Y-174625000D03*
X125095000Y-172085000D03*
X127635000Y-174625000D03*
X127635000Y-172085000D03*
X130175000Y-174625000D03*
X130175000Y-172085000D03*
X132715000Y-172085000D03*
X135255000Y-172085000D03*
X142875000Y-174625000D03*
X145415000Y-174625000D03*
X147955000Y-174625000D03*
X147955000Y-172085000D03*
X150495000Y-172085000D03*
X153035000Y-174625000D03*
X153035000Y-172085000D03*
X155575000Y-174625000D03*
X155575000Y-172085000D03*
X158115000Y-174625000D03*
X158115000Y-172085000D03*
X160655000Y-174625000D03*
X160655000Y-172085000D03*
X163195000Y-174625000D03*
X163195000Y-172085000D03*
X165735000Y-174625000D03*
X165735000Y-172085000D03*
X168275000Y-174625000D03*
X168275000Y-172085000D03*
D11*
X160655000Y-187960000D03*
D12*
X160655000Y-182880000D03*
D11*
X163195000Y-177800000D03*
D12*
X168275000Y-177800000D03*
D11*
X167005000Y-195580000D03*
D12*
X164465000Y-195580000D03*
D11*
X118110000Y-163830000D03*
D12*
X120650000Y-163830000D03*
X123190000Y-163830000D03*
X125730000Y-163830000D03*
X128270000Y-163830000D03*
X130810000Y-163830000D03*
X133350000Y-163830000D03*
X135890000Y-163830000D03*
D18*
X132080000Y-155575000D02*
X132080000Y-154305000D01*
X156210000Y-151130000D02*
X162560000Y-144780000D01*
X153670000Y-151130000D02*
X156210000Y-151130000D01*
X150495000Y-154305000D02*
X153670000Y-151130000D01*
X168910000Y-151130000D02*
X171450000Y-151130000D01*
X171450000Y-151130000D02*
X173355000Y-153035000D01*
X171450000Y-151130000D02*
X173355000Y-149225000D01*
X173355000Y-149225000D02*
X173355000Y-149860000D01*
X162560000Y-144780000D02*
X164465000Y-142875000D01*
X162560000Y-144780000D02*
X160655000Y-142875000D01*
X151765000Y-144780000D02*
X153670000Y-142875000D01*
X151765000Y-144780000D02*
X149860000Y-142875000D01*
X147871580Y-148506580D02*
X148038420Y-148506580D01*
X148038420Y-148506580D02*
X151765000Y-144780000D01*
X172085000Y-165735000D02*
X172720000Y-165735000D01*
X172085000Y-165735000D02*
X148590000Y-165735000D01*
X173355000Y-153035000D02*
X173355000Y-164465000D01*
X172720000Y-165735000D02*
X173355000Y-165100000D01*
X173355000Y-165100000D02*
X173355000Y-164465000D01*
X172085000Y-142875000D02*
X164465000Y-142875000D01*
X173355000Y-146685000D02*
X173355000Y-144145000D01*
X172720000Y-142875000D02*
X173355000Y-143510000D01*
X173355000Y-143510000D02*
X173355000Y-144145000D01*
X172085000Y-142875000D02*
X172720000Y-142875000D01*
X173355000Y-146685000D02*
X173355000Y-149860000D01*
X173355000Y-149860000D02*
X173355000Y-153035000D01*
X164465000Y-142875000D02*
X160655000Y-142875000D01*
X160655000Y-142875000D02*
X159385000Y-142875000D01*
X159385000Y-142875000D02*
X153670000Y-142875000D01*
X153670000Y-142875000D02*
X150495000Y-142875000D01*
X150495000Y-142875000D02*
X149860000Y-142875000D01*
X146685000Y-163830000D02*
X144780000Y-165735000D01*
X139065000Y-163830000D02*
X140970000Y-165735000D01*
X139065000Y-163830000D02*
X137160000Y-165735000D01*
X148590000Y-165735000D02*
X144780000Y-165735000D01*
X144780000Y-165735000D02*
X140970000Y-165735000D01*
X140970000Y-165735000D02*
X137160000Y-165735000D01*
X137160000Y-165735000D02*
X116840000Y-165735000D01*
X116840000Y-142875000D02*
X121285000Y-142875000D01*
X116840000Y-142875000D02*
X116205000Y-143510000D01*
X116205000Y-143510000D02*
X116205000Y-149860000D01*
X116205000Y-165100000D02*
X116205000Y-149860000D01*
X116840000Y-165735000D02*
X116205000Y-165100000D01*
X148590000Y-165735000D02*
X146685000Y-163830000D01*
X121285000Y-142875000D02*
X125095000Y-142875000D01*
X123190000Y-144780000D02*
X121285000Y-142875000D01*
X140335000Y-142875000D02*
X125095000Y-142875000D01*
X143510000Y-142875000D02*
X140335000Y-142875000D01*
X149860000Y-142875000D02*
X143510000Y-142875000D01*
X125095000Y-142875000D02*
X123190000Y-144780000D01*
X139065000Y-163830000D02*
X138140000Y-162905000D01*
X138140000Y-162905000D02*
X138112500Y-162877500D01*
X138112500Y-162877500D02*
X132080000Y-156845000D01*
X132080000Y-156845000D02*
X132080000Y-155575000D01*
X132080000Y-155575000D02*
X132080000Y-154813000D01*
X132013000Y-154813000D02*
X132080000Y-154813000D01*
X149225000Y-150495000D02*
X149225000Y-149606000D01*
X154305000Y-144780000D02*
X157480000Y-144780000D01*
X149308420Y-149776580D02*
X154305000Y-144780000D01*
X145415000Y-154305000D02*
X149225000Y-150495000D01*
X141605000Y-163830000D02*
X141605000Y-163195000D01*
X141605000Y-163195000D02*
X137795000Y-159385000D01*
X142875000Y-154305000D02*
X145415000Y-154305000D01*
X140970000Y-152400000D02*
X142875000Y-154305000D01*
X138430000Y-152400000D02*
X140970000Y-152400000D01*
X137795000Y-153035000D02*
X138430000Y-152400000D01*
X137795000Y-159385000D02*
X137795000Y-153035000D01*
X143510000Y-159385000D02*
X145415000Y-157480000D01*
X145415000Y-157480000D02*
X145415000Y-154305000D01*
X141175000Y-162765000D02*
X141175000Y-163400000D01*
X141175000Y-162765000D02*
X141605000Y-163195000D01*
X141175000Y-163400000D02*
X141605000Y-163830000D01*
X121932765Y-188012605D02*
X121932765Y-191187605D01*
X121932765Y-191187605D02*
X121932764Y-191187606D01*
X119392764Y-191187606D02*
X119392764Y-188012606D01*
X119392764Y-188012606D02*
X119392765Y-188012605D01*
X124472765Y-188012605D02*
X124472765Y-191187605D01*
X124472765Y-191187605D02*
X124472764Y-191187606D01*
X139700000Y-155575000D02*
X139700000Y-154305000D01*
X139700000Y-157480000D02*
X139700000Y-155575000D01*
X139700000Y-155575000D02*
X139700000Y-155067000D01*
X139700000Y-158750000D02*
X139700000Y-157480000D01*
X143645000Y-162695000D02*
X139700000Y-158750000D01*
X143645000Y-162695000D02*
X143510000Y-162560000D01*
X143510000Y-162560000D02*
X144145000Y-163195000D01*
X143645000Y-162695000D02*
X143645000Y-163330000D01*
X143645000Y-163330000D02*
X144145000Y-163830000D01*
X144145000Y-163195000D02*
X144145000Y-163830000D01*
X159385000Y-164465000D02*
X158750000Y-163830000D01*
X170815000Y-164465000D02*
X171450000Y-163830000D01*
X171450000Y-158115000D02*
X171450000Y-163830000D01*
X160020000Y-164465000D02*
X170815000Y-164465000D01*
X160020000Y-164465000D02*
X159385000Y-164465000D01*
X158750000Y-163830000D02*
X154305000Y-163830000D01*
X168910000Y-156210000D02*
X171450000Y-158750000D01*
X171450000Y-158750000D02*
X171450000Y-158115000D01*
X168910000Y-156210000D02*
X171450000Y-156210000D01*
X171450000Y-158115000D02*
X171450000Y-156337000D01*
X156210000Y-156210000D02*
X153670000Y-156210000D01*
X155575000Y-158750000D02*
X156210000Y-158115000D01*
X156210000Y-158115000D02*
X156210000Y-156210000D01*
X154305000Y-157480000D02*
X154305000Y-156845000D01*
X154305000Y-156845000D02*
X153670000Y-156210000D01*
X153670000Y-156210000D02*
X153670000Y-156845000D01*
X153670000Y-156845000D02*
X154305000Y-157480000D01*
X154305000Y-157480000D02*
X155575000Y-158750000D01*
X155575000Y-158750000D02*
X155575000Y-160020000D01*
X155575000Y-160020000D02*
X151765000Y-163830000D01*
X152285000Y-163310000D02*
X151765000Y-163830000D01*
X153035000Y-149225000D02*
X155575000Y-149225000D01*
X147955000Y-154305000D02*
X153035000Y-149225000D01*
X152400000Y-158750000D02*
X147955000Y-154305000D01*
X149225000Y-157480000D02*
X149225000Y-155575000D01*
X147955000Y-154305000D02*
X149225000Y-155575000D01*
X149225000Y-157480000D02*
X149225000Y-158750000D01*
X155575000Y-149225000D02*
X160020000Y-144780000D01*
X152400000Y-158750000D02*
X153035000Y-158750000D01*
X153035000Y-158750000D02*
X153670000Y-159385000D01*
X149225000Y-163830000D02*
X153670000Y-159385000D01*
X149225000Y-158750000D02*
X149225000Y-163830000D01*
X149542500Y-163512500D02*
X149225000Y-163830000D01*
X149225000Y-163830000D02*
X149225000Y-163195000D01*
X143485660Y-189935429D02*
X143485660Y-188505429D01*
X143485660Y-188505429D02*
X144595660Y-187395429D01*
X146025660Y-189935429D02*
X146025660Y-189000340D01*
X146395660Y-188630340D02*
X146395660Y-187395429D01*
X146025660Y-189000340D02*
X146395660Y-188630340D01*
X148565660Y-189935429D02*
X148565660Y-188951660D01*
X148195660Y-188581660D02*
X148195660Y-187395429D01*
X148565660Y-188951660D02*
X148195660Y-188581660D01*
X151105660Y-189935429D02*
X151105660Y-188505429D01*
X151105660Y-188505429D02*
X149995660Y-187395429D01*
X133350000Y-135890000D02*
X135255000Y-133985000D01*
X140335000Y-133985000D02*
X141605000Y-132715000D01*
X135255000Y-133985000D02*
X140335000Y-133985000D01*
X141605000Y-132715000D02*
X141605000Y-132080000D01*
X144145000Y-132080000D02*
X144780000Y-132715000D01*
X148590000Y-135890000D02*
X146685000Y-133985000D01*
X146050000Y-133985000D02*
X144780000Y-132715000D01*
X146685000Y-133985000D02*
X146050000Y-133985000D01*
X146685000Y-132080000D02*
X148590000Y-133985000D01*
X149225000Y-133985000D02*
X151130000Y-135890000D01*
X148590000Y-133985000D02*
X149225000Y-133985000D01*
X149860000Y-132715000D02*
X149225000Y-132080000D01*
X153670000Y-135890000D02*
X151765000Y-133985000D01*
X151130000Y-133985000D02*
X149860000Y-132715000D01*
X151765000Y-133985000D02*
X151130000Y-133985000D01*
X168275000Y-137160000D02*
X168275000Y-136525000D01*
X168275000Y-136525000D02*
X168910000Y-135890000D01*
X151765000Y-132080000D02*
X152400000Y-132715000D01*
X156210000Y-135890000D02*
X154305000Y-133985000D01*
X153670000Y-133985000D02*
X152400000Y-132715000D01*
X154305000Y-133985000D02*
X153670000Y-133985000D01*
X163830000Y-135890000D02*
X163830000Y-136525000D01*
X163830000Y-136525000D02*
X165100000Y-137795000D01*
X167640000Y-137795000D02*
X168275000Y-137160000D01*
X168275000Y-137160000D02*
X168910000Y-136525000D01*
X165100000Y-137795000D02*
X167640000Y-137795000D01*
X168910000Y-136525000D02*
X168910000Y-135890000D01*
X161290000Y-135890000D02*
X163830000Y-135890000D01*
X158750000Y-135890000D02*
X161290000Y-135890000D01*
X156210000Y-135890000D02*
X158750000Y-135890000D01*
X146050000Y-135890000D02*
X146050000Y-136525000D01*
X146050000Y-136525000D02*
X147320000Y-137795000D01*
X154940000Y-137795000D02*
X156210000Y-136525000D01*
X147320000Y-137795000D02*
X154940000Y-137795000D01*
X156210000Y-136525000D02*
X156210000Y-135890000D01*
X143510000Y-135890000D02*
X146050000Y-135890000D01*
X140970000Y-135890000D02*
X143510000Y-135890000D01*
X138430000Y-135890000D02*
X140970000Y-135890000D01*
X135890000Y-135890000D02*
X138430000Y-135890000D01*
X128270000Y-135890000D02*
X128270000Y-136525000D01*
X128270000Y-136525000D02*
X129540000Y-137795000D01*
X134620000Y-137795000D02*
X135890000Y-136525000D01*
X129540000Y-137795000D02*
X134620000Y-137795000D01*
X135890000Y-136525000D02*
X135890000Y-135890000D01*
X125730000Y-135890000D02*
X128270000Y-135890000D01*
X123190000Y-135890000D02*
X125730000Y-135890000D01*
X120650000Y-135890000D02*
X123190000Y-135890000D01*
X154305000Y-132080000D02*
X156210000Y-133985000D01*
X156210000Y-133985000D02*
X156845000Y-133985000D01*
X166370000Y-135890000D02*
X164465000Y-133985000D01*
X164465000Y-133985000D02*
X156845000Y-133985000D01*
X137795000Y-132715000D02*
X138430000Y-132080000D01*
X138430000Y-132080000D02*
X139065000Y-132080000D01*
X130810000Y-135890000D02*
X133985000Y-132715000D01*
X133985000Y-132715000D02*
X137795000Y-132715000D01*
X137795000Y-132715000D02*
X138430000Y-132715000D01*
X138430000Y-132715000D02*
X139065000Y-132080000D01*
X166370000Y-194310000D02*
X167005000Y-194945000D01*
X167005000Y-194945000D02*
X167005000Y-195580000D01*
X167005000Y-194945000D02*
X167005000Y-195580000D01*
X167005000Y-194945000D02*
X167005000Y-195580000D01*
X167005000Y-195580000D02*
X166370000Y-194945000D01*
X163195000Y-187960000D02*
X166370000Y-191135000D01*
X166370000Y-191135000D02*
X166370000Y-194310000D01*
X166370000Y-194310000D02*
X166370000Y-196215000D01*
X166370000Y-196215000D02*
X166370000Y-195580000D01*
X163195000Y-190500000D02*
X165100000Y-192405000D01*
X164465000Y-194310000D02*
X164465000Y-195580000D01*
X165100000Y-193675000D02*
X164465000Y-194310000D01*
X165100000Y-192405000D02*
X165100000Y-193675000D01*
X164465000Y-194945000D02*
X164465000Y-195580000D01*
X164465000Y-194945000D02*
X164465000Y-195580000D01*
X160655000Y-187960000D02*
X160655000Y-190500000D01*
X160655000Y-190500000D02*
X163195000Y-193040000D01*
X163195000Y-174625000D02*
X160655000Y-177165000D01*
X160655000Y-185420000D02*
X160655000Y-187960000D01*
X158750000Y-183515000D02*
X160655000Y-185420000D01*
X158750000Y-182245000D02*
X158750000Y-183515000D01*
X160655000Y-180340000D02*
X158750000Y-182245000D01*
X160655000Y-177165000D02*
X160655000Y-180340000D01*
X168275000Y-180340000D02*
X168275000Y-177800000D01*
X165735000Y-182880000D02*
X168275000Y-182880000D01*
X168275000Y-182880000D02*
X170180000Y-184785000D01*
X160655000Y-182880000D02*
X165735000Y-182880000D01*
X165735000Y-182880000D02*
X168275000Y-180340000D01*
X168275000Y-174625000D02*
X168275000Y-180340000D01*
X170180000Y-191135000D02*
X168275000Y-193040000D01*
X170180000Y-182245000D02*
X170180000Y-184785000D01*
X168275000Y-180340000D02*
X170180000Y-182245000D01*
X170180000Y-184785000D02*
X170180000Y-191135000D01*
X165735000Y-175260000D02*
X163195000Y-177800000D01*
X163195000Y-177800000D02*
X163195000Y-180340000D01*
X165735000Y-174625000D02*
X165735000Y-175260000D01*
X125095000Y-163195000D02*
X125095000Y-163830000D01*
X125095000Y-163830000D02*
X125730000Y-163830000D01*
X125730000Y-163830000D02*
X125095000Y-163195000D01*
X137795000Y-146050000D02*
X135255000Y-146050000D01*
X137795000Y-146050000D02*
X139065000Y-144780000D01*
X130175000Y-146050000D02*
X135255000Y-146050000D01*
X125095000Y-151130000D02*
X130175000Y-146050000D01*
X125095000Y-163195000D02*
X125095000Y-151130000D01*
X141605000Y-144780000D02*
X141605000Y-145415000D01*
X141605000Y-145415000D02*
X139700000Y-147320000D01*
X139700000Y-147320000D02*
X130810000Y-147320000D01*
X130810000Y-147320000D02*
X126365000Y-151765000D01*
X126365000Y-151765000D02*
X126365000Y-161925000D01*
X126365000Y-161925000D02*
X128270000Y-163830000D01*
X144145000Y-144780000D02*
X140335000Y-148590000D01*
X127635000Y-160655000D02*
X130810000Y-163830000D01*
X127635000Y-152400000D02*
X127635000Y-160655000D01*
X131445000Y-148590000D02*
X127635000Y-152400000D01*
X140335000Y-148590000D02*
X131445000Y-148590000D01*
X146685000Y-144780000D02*
X141605000Y-149860000D01*
X128905000Y-159385000D02*
X133350000Y-163830000D01*
X128905000Y-153035000D02*
X128905000Y-159385000D01*
X132080000Y-149860000D02*
X128905000Y-153035000D01*
X141605000Y-149860000D02*
X132080000Y-149860000D01*
X135890000Y-163830000D02*
X130175000Y-158115000D01*
X142875000Y-151130000D02*
X139065000Y-151130000D01*
X142875000Y-151130000D02*
X149225000Y-144780000D01*
X132715000Y-151130000D02*
X139065000Y-151130000D01*
X130175000Y-153670000D02*
X132715000Y-151130000D01*
X130175000Y-158115000D02*
X130175000Y-153670000D01*
X118110000Y-144780000D02*
X118110000Y-148590000D01*
X120650000Y-144780000D02*
X120650000Y-148590000D01*
X125730000Y-144780000D02*
X125730000Y-145415000D01*
X125730000Y-145415000D02*
X123190000Y-147955000D01*
X123190000Y-147955000D02*
X123190000Y-148590000D01*
X118110000Y-158750000D02*
X118110000Y-163830000D01*
X120650000Y-163830000D02*
X120650000Y-158750000D01*
X123190000Y-158750000D02*
X123190000Y-163830000D01*
X163830000Y-156210000D02*
X163195000Y-156210000D01*
X163195000Y-156210000D02*
X163195000Y-158115000D01*
X162560000Y-158750000D02*
X162560000Y-160655000D01*
X163195000Y-158115000D02*
X162560000Y-158750000D01*
X162560000Y-160655000D02*
X163195000Y-160655000D01*
X163830000Y-156210000D02*
X164465000Y-156210000D01*
X164465000Y-156210000D02*
X164465000Y-158115000D01*
X163830000Y-158750000D02*
X163830000Y-160655000D01*
X164465000Y-158115000D02*
X163830000Y-158750000D01*
X163830000Y-160655000D02*
X163195000Y-160655000D01*
X162560000Y-160655000D02*
X163195000Y-160655000D01*
X166370000Y-156210000D02*
X165735000Y-156210000D01*
X165735000Y-156210000D02*
X165735000Y-157480000D01*
X167640000Y-159385000D02*
X167640000Y-160655000D01*
X165735000Y-157480000D02*
X167640000Y-159385000D01*
X167640000Y-160655000D02*
X168275000Y-160655000D01*
X167640000Y-160655000D02*
X168275000Y-160655000D01*
X167640000Y-160655000D02*
X168275000Y-160655000D01*
X166370000Y-156210000D02*
X167005000Y-156210000D01*
X167005000Y-156210000D02*
X167005000Y-157480000D01*
X167005000Y-157480000D02*
X168910000Y-159385000D01*
X168910000Y-159385000D02*
X168910000Y-160655000D01*
X168910000Y-160655000D02*
X168275000Y-160655000D01*
X165735000Y-160655000D02*
X166370000Y-160655000D01*
X166370000Y-160655000D02*
X166370000Y-161925000D01*
X160020000Y-161925000D02*
X160020000Y-160655000D01*
X161290000Y-163195000D02*
X160020000Y-161925000D01*
X165100000Y-163195000D02*
X161290000Y-163195000D01*
X166370000Y-161925000D02*
X165100000Y-163195000D01*
X160020000Y-160655000D02*
X160655000Y-160655000D01*
X160655000Y-160655000D02*
X161290000Y-160655000D01*
X161290000Y-160655000D02*
X161290000Y-161925000D01*
X165100000Y-161925000D02*
X165100000Y-160655000D01*
X164465000Y-162560000D02*
X165100000Y-161925000D01*
X161925000Y-162560000D02*
X164465000Y-162560000D01*
X161290000Y-161925000D02*
X161925000Y-162560000D01*
X165100000Y-160655000D02*
X165735000Y-160655000D01*
X160655000Y-160655000D02*
X160020000Y-160655000D01*
X165100000Y-160655000D02*
X165735000Y-160655000D01*
X147955000Y-174625000D02*
X146050000Y-172720000D01*
X140335000Y-177165000D02*
X140335000Y-179705000D01*
X140970000Y-176530000D02*
X140335000Y-177165000D01*
X140970000Y-173990000D02*
X140970000Y-176530000D01*
X142240000Y-172720000D02*
X140970000Y-173990000D01*
X146050000Y-172720000D02*
X142240000Y-172720000D01*
X142875000Y-174625000D02*
X142875000Y-179705000D01*
X145415000Y-174625000D02*
X145415000Y-179705000D01*
X147955000Y-172085000D02*
X149860000Y-173990000D01*
X147955000Y-177165000D02*
X147955000Y-179705000D01*
X149860000Y-175260000D02*
X147955000Y-177165000D01*
X149860000Y-173990000D02*
X149860000Y-175260000D01*
X153035000Y-174625000D02*
X153035000Y-175260000D01*
X153035000Y-175260000D02*
X150495000Y-177800000D01*
X150495000Y-177800000D02*
X150495000Y-179705000D01*
X155575000Y-174625000D02*
X155575000Y-175260000D01*
X155575000Y-175260000D02*
X153035000Y-177800000D01*
X153035000Y-177800000D02*
X153035000Y-179705000D01*
X158115000Y-174625000D02*
X158115000Y-175260000D01*
X158115000Y-175260000D02*
X155575000Y-177800000D01*
X155575000Y-177800000D02*
X155575000Y-179705000D01*
X160655000Y-174625000D02*
X160655000Y-175260000D01*
X160655000Y-175260000D02*
X158115000Y-177800000D01*
X158115000Y-177800000D02*
X158115000Y-179705000D01*
X122555000Y-174625000D02*
X122555000Y-175260000D01*
X122555000Y-175260000D02*
X120015000Y-177800000D01*
X120015000Y-177800000D02*
X120015000Y-179705000D01*
X125095000Y-174625000D02*
X125095000Y-175260000D01*
X125095000Y-175260000D02*
X122555000Y-177800000D01*
X122555000Y-177800000D02*
X122555000Y-179705000D01*
X127635000Y-174625000D02*
X127635000Y-175260000D01*
X127635000Y-175260000D02*
X125095000Y-177800000D01*
X125095000Y-177800000D02*
X125095000Y-179705000D01*
X130175000Y-174625000D02*
X130175000Y-175260000D01*
X130175000Y-175260000D02*
X127635000Y-177800000D01*
X127635000Y-177800000D02*
X127635000Y-179705000D01*
X130175000Y-179705000D02*
X130175000Y-177800000D01*
X132715000Y-175260000D02*
X132715000Y-172085000D01*
X130175000Y-177800000D02*
X132715000Y-175260000D01*
X120015000Y-174625000D02*
X120015000Y-175260000D01*
X120015000Y-175260000D02*
X118110000Y-177165000D01*
X118110000Y-177165000D02*
X118110000Y-180975000D01*
X118110000Y-180975000D02*
X118745000Y-181610000D01*
X118745000Y-181610000D02*
X130810000Y-181610000D01*
X130810000Y-181610000D02*
X132715000Y-179705000D01*
X135255000Y-172085000D02*
X135255000Y-179705000D01*
M02*
