M48
; DRILL file {KiCad 5.1.6-c6e7f7d~86~ubuntu19.10.1} date Wed Oct 28 23:58:30 2020
; FORMAT={-:-/ absolute / metric / decimal}
; #@! TF.CreationDate,2020-10-28T23:58:30+02:00
; #@! TF.GenerationSoftware,Kicad,Pcbnew,5.1.6-c6e7f7d~86~ubuntu19.10.1
; #@! TF.FileFunction,Plated,1,2,PTH
FMAT,2
METRIC
T1C0.762
T2C0.900
T3C1.000
T4C1.600
%
G90
G05
T1
X24.765Y-74.295
T2
X54.61Y-43.815
X59.69Y-43.815
X120.641Y-90.806
X120.641Y-93.346
X120.641Y-95.886
X54.61Y-26.035
X59.69Y-26.035
X105.41Y-27.94
X110.49Y-27.94
X118.107Y-73.015
X118.107Y-75.555
X118.107Y-78.095
X118.107Y-80.635
X20.32Y-20.32
X20.32Y-22.86
X104.14Y-42.545
X104.14Y-50.165
X67.31Y-27.94
X68.58Y-25.4
X69.85Y-27.94
X71.12Y-25.4
X72.39Y-27.94
X73.66Y-25.4
X74.93Y-27.94
X76.2Y-25.4
X81.28Y-27.94
X82.55Y-25.4
X83.82Y-27.94
X85.09Y-25.4
X86.36Y-27.94
X87.63Y-25.4
X88.9Y-27.94
X90.17Y-25.4
X83.82Y-19.685
X86.36Y-19.685
X120.647Y-74.125
X120.647Y-75.925
X120.647Y-77.725
X120.647Y-79.525
X24.13Y-27.94
X25.4Y-25.4
X26.67Y-27.94
X27.94Y-25.4
X29.21Y-27.94
X30.48Y-25.4
X31.75Y-27.94
X33.02Y-25.4
X38.1Y-27.94
X39.37Y-25.4
X40.64Y-27.94
X41.91Y-25.4
X43.18Y-27.94
X44.45Y-25.4
X45.72Y-27.94
X46.99Y-25.4
X57.15Y-46.355
X59.69Y-46.355
X60.325Y-107.95
X61.595Y-105.41
X62.865Y-107.95
X64.135Y-105.41
X65.405Y-107.95
X66.675Y-105.41
X67.945Y-107.95
X69.215Y-105.41
X74.295Y-107.95
X75.565Y-105.41
X76.835Y-107.95
X78.105Y-105.41
X79.375Y-107.95
X80.645Y-105.41
X81.915Y-107.95
X83.185Y-105.41
X59.69Y-20.32
X62.23Y-20.32
X64.77Y-20.32
X67.31Y-20.32
X69.85Y-20.32
X72.39Y-20.32
X74.93Y-20.32
X78.359Y-20.32
X80.391Y-20.32
X108.585Y-72.39
X108.585Y-74.93
X108.585Y-77.47
X108.585Y-80.01
X108.585Y-82.55
X108.585Y-85.09
X108.585Y-87.63
X108.585Y-90.17
X108.585Y-92.71
X108.585Y-95.25
X108.585Y-97.79
X108.585Y-100.33
X108.585Y-102.87
X108.585Y-105.41
X108.585Y-107.95
X108.585Y-110.49
X108.585Y-113.03
X108.585Y-115.57
X108.585Y-118.11
X108.585Y-120.65
X33.655Y-20.32
X36.195Y-20.32
X97.79Y-30.48
X97.79Y-35.56
X102.87Y-30.48
X102.87Y-35.56
X105.41Y-30.48
X105.41Y-35.56
X107.95Y-30.48
X107.95Y-35.56
X110.49Y-30.48
X110.49Y-35.56
X51.435Y-20.32
X53.975Y-20.32
X28.575Y-107.95
X29.845Y-105.41
X31.115Y-107.95
X32.385Y-105.41
X33.655Y-107.95
X34.925Y-105.41
X36.195Y-107.95
X37.465Y-105.41
X42.545Y-107.95
X43.815Y-105.41
X45.085Y-107.95
X46.355Y-105.41
X47.625Y-107.95
X48.895Y-105.41
X50.165Y-107.95
X51.435Y-105.41
X54.61Y-50.165
X57.15Y-50.165
X59.69Y-50.165
X97.79Y-27.94
X102.87Y-27.94
X83.82Y-76.835
X83.82Y-79.375
X83.82Y-81.915
X83.82Y-84.455
X83.82Y-89.535
X88.9Y-76.835
X88.9Y-79.375
X88.9Y-81.915
X88.9Y-84.455
X88.9Y-89.535
X83.82Y-74.295
X88.9Y-74.295
X121.285Y-21.59
X123.825Y-21.59
X126.365Y-21.59
X128.905Y-21.59
X131.445Y-21.59
X133.985Y-21.59
X136.525Y-21.59
X112.395Y-90.17
X112.395Y-92.71
X112.395Y-95.25
X112.395Y-97.79
X112.395Y-100.33
X112.395Y-102.87
X112.395Y-105.41
X54.61Y-28.575
X54.61Y-31.115
X54.61Y-33.655
X54.61Y-36.195
X54.61Y-41.275
X59.69Y-28.575
X59.69Y-31.115
X59.69Y-33.655
X59.69Y-36.195
X59.69Y-41.275
X124.181Y-90.653
X124.181Y-93.193
X124.181Y-95.733
X24.765Y-71.755
X27.305Y-71.755
X27.305Y-74.295
X29.845Y-71.755
X29.845Y-74.295
X32.385Y-71.755
X32.385Y-74.295
X34.925Y-71.755
X34.925Y-74.295
X37.465Y-71.755
X37.465Y-74.295
X40.005Y-71.755
X40.005Y-74.295
X42.545Y-71.755
X42.545Y-74.295
X45.085Y-71.755
X45.085Y-74.295
X47.625Y-71.755
X47.625Y-74.295
X50.165Y-71.755
X50.165Y-74.295
X52.705Y-71.755
X52.705Y-74.295
X55.245Y-71.755
X55.245Y-74.295
X57.785Y-71.755
X57.785Y-74.295
X60.325Y-71.755
X60.325Y-74.295
X62.865Y-71.755
X62.865Y-74.295
X65.405Y-71.755
X65.405Y-74.295
X67.945Y-71.755
X67.945Y-74.295
X70.485Y-71.755
X70.485Y-74.295
X73.025Y-71.755
X73.025Y-74.295
X23.495Y-20.32
X26.035Y-20.32
X28.575Y-20.32
X31.115Y-20.32
X26.035Y-22.86
X28.575Y-22.86
X54.61Y-53.34
X57.15Y-53.34
X59.69Y-53.34
X121.285Y-53.34
X123.825Y-53.34
X126.365Y-53.34
X128.905Y-53.34
X131.445Y-53.34
X133.985Y-53.34
X136.525Y-53.34
X83.82Y-92.075
X88.9Y-92.075
X40.64Y-20.32
X43.18Y-20.32
X45.72Y-20.32
X48.26Y-20.32
T3
X94.96Y-86.36
X94.96Y-91.44
X94.96Y-96.52
X94.96Y-101.6
X94.96Y-75.565
X94.96Y-80.645
X97.155Y-20.61
X102.235Y-20.61
X107.315Y-20.61
X112.395Y-20.61
X97.155Y-61.305
X102.235Y-61.305
X107.315Y-61.305
X112.395Y-61.305
T4
X63.305Y-38.86
X78.74Y-24.05
X94.175Y-38.86
X20.125Y-38.86
X35.56Y-24.05
X50.995Y-38.86
X56.32Y-118.87
X71.755Y-104.06
X87.19Y-118.87
X24.57Y-118.87
X40.005Y-104.06
X55.44Y-118.87
T0
M30
