G04 #@! TF.GenerationSoftware,KiCad,Pcbnew,5.1.6-c6e7f7d~86~ubuntu19.10.1*
G04 #@! TF.CreationDate,2020-10-28T23:58:29+02:00*
G04 #@! TF.ProjectId,authenticator2.0,61757468-656e-4746-9963-61746f72322e,rev?*
G04 #@! TF.SameCoordinates,Original*
G04 #@! TF.FileFunction,Copper,L2,Bot*
G04 #@! TF.FilePolarity,Positive*
%FSLAX46Y46*%
G04 Gerber Fmt 4.6, Leading zero omitted, Abs format (unit mm)*
G04 Created by KiCad (PCBNEW 5.1.6-c6e7f7d~86~ubuntu19.10.1) date 2020-10-28 23:58:29*
%MOMM*%
%LPD*%
G01*
G04 APERTURE LIST*
G04 #@! TA.AperFunction,ComponentPad*
%ADD10O,1.200000X1.750000*%
G04 #@! TD*
G04 #@! TA.AperFunction,ComponentPad*
%ADD11C,2.450000*%
G04 #@! TD*
G04 #@! TA.AperFunction,ComponentPad*
%ADD12R,1.200000X1.750000*%
G04 #@! TD*
G04 #@! TA.AperFunction,ComponentPad*
%ADD13C,1.750000*%
G04 #@! TD*
G04 #@! TA.AperFunction,ComponentPad*
%ADD14R,1.750000X1.750000*%
G04 #@! TD*
G04 #@! TA.AperFunction,ComponentPad*
%ADD15O,1.750000X1.200000*%
G04 #@! TD*
G04 #@! TA.AperFunction,ComponentPad*
%ADD16R,1.750000X1.200000*%
G04 #@! TD*
G04 #@! TA.AperFunction,ComponentPad*
%ADD17R,1.250000X1.750000*%
G04 #@! TD*
G04 #@! TA.AperFunction,ComponentPad*
%ADD18O,1.250000X1.750000*%
G04 #@! TD*
G04 #@! TA.AperFunction,ComponentPad*
%ADD19C,1.524000*%
G04 #@! TD*
G04 #@! TA.AperFunction,Conductor*
%ADD20C,1.000000*%
G04 #@! TD*
G04 #@! TA.AperFunction,Conductor*
%ADD21C,0.500000*%
G04 #@! TD*
G04 APERTURE END LIST*
D10*
X74295000Y-107950000D03*
D11*
X71755000Y-104060000D03*
D10*
X65405000Y-107950000D03*
X64135000Y-105410000D03*
X62865000Y-107950000D03*
X61595000Y-105410000D03*
X60325000Y-107950000D03*
D11*
X87190000Y-118870000D03*
X56320000Y-118870000D03*
D10*
X66675000Y-105410000D03*
X67945000Y-107950000D03*
X69215000Y-105410000D03*
X75565000Y-105410000D03*
X76835000Y-107950000D03*
X78105000Y-105410000D03*
X79375000Y-107950000D03*
X80645000Y-105410000D03*
X81915000Y-107950000D03*
X83185000Y-105410000D03*
D12*
X24765000Y-74295000D03*
D10*
X24765000Y-71755000D03*
X27305000Y-74295000D03*
X27305000Y-71755000D03*
X29845000Y-74295000D03*
X29845000Y-71755000D03*
X32385000Y-74295000D03*
X32385000Y-71755000D03*
X34925000Y-74295000D03*
X34925000Y-71755000D03*
X37465000Y-74295000D03*
X37465000Y-71755000D03*
X40005000Y-74295000D03*
X40005000Y-71755000D03*
X42545000Y-74295000D03*
X42545000Y-71755000D03*
X45085000Y-74295000D03*
X45085000Y-71755000D03*
X47625000Y-74295000D03*
X47625000Y-71755000D03*
X50165000Y-74295000D03*
X50165000Y-71755000D03*
X52705000Y-74295000D03*
X52705000Y-71755000D03*
X55245000Y-74295000D03*
X55245000Y-71755000D03*
X57785000Y-74295000D03*
X57785000Y-71755000D03*
X60325000Y-74295000D03*
X60325000Y-71755000D03*
X62865000Y-74295000D03*
X62865000Y-71755000D03*
X65405000Y-74295000D03*
X65405000Y-71755000D03*
X67945000Y-74295000D03*
X67945000Y-71755000D03*
X70485000Y-74295000D03*
X70485000Y-71755000D03*
X73025000Y-74295000D03*
X73025000Y-71755000D03*
D13*
X97155000Y-20610000D03*
X102235000Y-20610000D03*
X107315000Y-20610000D03*
X112395000Y-20610000D03*
D10*
X46990000Y-25400000D03*
X45720000Y-27940000D03*
X44450000Y-25400000D03*
X43180000Y-27940000D03*
X41910000Y-25400000D03*
X40640000Y-27940000D03*
X39370000Y-25400000D03*
X33020000Y-25400000D03*
X31750000Y-27940000D03*
X30480000Y-25400000D03*
D11*
X20125000Y-38860000D03*
X50995000Y-38860000D03*
D10*
X24130000Y-27940000D03*
X25400000Y-25400000D03*
X26670000Y-27940000D03*
X27940000Y-25400000D03*
X29210000Y-27940000D03*
D11*
X35560000Y-24050000D03*
D10*
X38100000Y-27940000D03*
D14*
X118106600Y-73015000D03*
D13*
X118106600Y-75555000D03*
X118106600Y-78095000D03*
X118106600Y-80635000D03*
X120640600Y-95885600D03*
X120640600Y-90805600D03*
X120640600Y-93345600D03*
D15*
X120646600Y-75925000D03*
X120646600Y-77725000D03*
D16*
X120646600Y-79525000D03*
D15*
X120646600Y-74125000D03*
D13*
X57150000Y-46355000D03*
X59690000Y-46355000D03*
X53975000Y-20320000D03*
X51435000Y-20320000D03*
X33655000Y-20320000D03*
X36195000Y-20320000D03*
X28575000Y-22860000D03*
X26035000Y-22860000D03*
X20320000Y-20320000D03*
X20320000Y-22860000D03*
X104140000Y-42545000D03*
D14*
X104140000Y-50165000D03*
D17*
X78359000Y-20320000D03*
D18*
X80391000Y-20320000D03*
D14*
X88900000Y-74295000D03*
D13*
X83820000Y-74295000D03*
X83820000Y-92075000D03*
D14*
X88900000Y-92075000D03*
D13*
X110490000Y-27940000D03*
D14*
X105410000Y-27940000D03*
X102870000Y-27940000D03*
D13*
X97790000Y-27940000D03*
X54610000Y-26035000D03*
D14*
X59690000Y-26035000D03*
D13*
X54610000Y-43815000D03*
D14*
X59690000Y-43815000D03*
D13*
X54610000Y-50165000D03*
X59690000Y-50165000D03*
X57150000Y-50165000D03*
D14*
X97790000Y-35560000D03*
D13*
X102870000Y-35560000D03*
X105410000Y-35560000D03*
X107950000Y-35560000D03*
X110490000Y-35560000D03*
X110490000Y-30480000D03*
X107950000Y-30480000D03*
X105410000Y-30480000D03*
X102870000Y-30480000D03*
X97790000Y-30480000D03*
X83820000Y-89535000D03*
X83820000Y-84455000D03*
X83820000Y-81915000D03*
X83820000Y-79375000D03*
X83820000Y-76835000D03*
X88900000Y-76835000D03*
X88900000Y-79375000D03*
X88900000Y-81915000D03*
X88900000Y-84455000D03*
D14*
X88900000Y-89535000D03*
D13*
X54610000Y-41275000D03*
X54610000Y-36195000D03*
X54610000Y-33655000D03*
X54610000Y-31115000D03*
X54610000Y-28575000D03*
X59690000Y-28575000D03*
X59690000Y-31115000D03*
X59690000Y-33655000D03*
X59690000Y-36195000D03*
D14*
X59690000Y-41275000D03*
X48260000Y-20320000D03*
D13*
X45720000Y-20320000D03*
X43180000Y-20320000D03*
X40640000Y-20320000D03*
D14*
X112395000Y-90170000D03*
D13*
X112395000Y-92710000D03*
X112395000Y-95250000D03*
X112395000Y-97790000D03*
X112395000Y-100330000D03*
X112395000Y-102870000D03*
X112395000Y-105410000D03*
D19*
X136525000Y-21590000D03*
X133985000Y-21590000D03*
X131445000Y-21590000D03*
X128905000Y-21590000D03*
X126365000Y-21590000D03*
X123825000Y-21590000D03*
X121285000Y-21590000D03*
X136525000Y-53340000D03*
X133985000Y-53340000D03*
X131445000Y-53340000D03*
X128905000Y-53340000D03*
X126365000Y-53340000D03*
X123825000Y-53340000D03*
X121285000Y-53340000D03*
D13*
X59690000Y-53340000D03*
X57150000Y-53340000D03*
D14*
X54610000Y-53340000D03*
D13*
X74930000Y-20320000D03*
X72390000Y-20320000D03*
X69850000Y-20320000D03*
X67310000Y-20320000D03*
X64770000Y-20320000D03*
X62230000Y-20320000D03*
D14*
X59690000Y-20320000D03*
D13*
X31115000Y-20320000D03*
X28575000Y-20320000D03*
X26035000Y-20320000D03*
D14*
X23495000Y-20320000D03*
D13*
X94960000Y-101600000D03*
X94960000Y-96520000D03*
X94960000Y-91440000D03*
X94960000Y-86360000D03*
D14*
X108585000Y-120650000D03*
D13*
X108585000Y-118110000D03*
X108585000Y-115570000D03*
X108585000Y-113030000D03*
X108585000Y-110490000D03*
X108585000Y-107950000D03*
X108585000Y-105410000D03*
X108585000Y-102870000D03*
X108585000Y-100330000D03*
X108585000Y-97790000D03*
X108585000Y-95250000D03*
X108585000Y-92710000D03*
X108585000Y-90170000D03*
X108585000Y-87630000D03*
X108585000Y-85090000D03*
X108585000Y-82550000D03*
X108585000Y-80010000D03*
X108585000Y-77470000D03*
X108585000Y-74930000D03*
X108585000Y-72390000D03*
D14*
X94960000Y-80645000D03*
D13*
X94960000Y-75565000D03*
D10*
X81280000Y-27940000D03*
D11*
X78740000Y-24050000D03*
D10*
X72390000Y-27940000D03*
X71120000Y-25400000D03*
X69850000Y-27940000D03*
X68580000Y-25400000D03*
X67310000Y-27940000D03*
D11*
X94175000Y-38860000D03*
X63305000Y-38860000D03*
D10*
X73660000Y-25400000D03*
X74930000Y-27940000D03*
X76200000Y-25400000D03*
X82550000Y-25400000D03*
X83820000Y-27940000D03*
X85090000Y-25400000D03*
X86360000Y-27940000D03*
X87630000Y-25400000D03*
X88900000Y-27940000D03*
X90170000Y-25400000D03*
X51435000Y-105410000D03*
X50165000Y-107950000D03*
X48895000Y-105410000D03*
X47625000Y-107950000D03*
X46355000Y-105410000D03*
X45085000Y-107950000D03*
X43815000Y-105410000D03*
X37465000Y-105410000D03*
X36195000Y-107950000D03*
X34925000Y-105410000D03*
D11*
X24570000Y-118870000D03*
X55440000Y-118870000D03*
D10*
X28575000Y-107950000D03*
X29845000Y-105410000D03*
X31115000Y-107950000D03*
X32385000Y-105410000D03*
X33655000Y-107950000D03*
D11*
X40005000Y-104060000D03*
D10*
X42545000Y-107950000D03*
D13*
X97155000Y-61305000D03*
X102235000Y-61305000D03*
X107315000Y-61305000D03*
X112395000Y-61305000D03*
X124180600Y-90652600D03*
X124180600Y-93192600D03*
D14*
X124180600Y-95732600D03*
D13*
X86360000Y-19685000D03*
D14*
X83820000Y-19685000D03*
D20*
X28575000Y-19685000D02*
X30480000Y-17780000D01*
X28575000Y-20320000D02*
X28575000Y-19685000D01*
X45720000Y-19050000D02*
X44450000Y-17780000D01*
X45720000Y-20320000D02*
X45720000Y-19050000D01*
X44450000Y-17780000D02*
X46990000Y-17780000D01*
X45720000Y-19050000D02*
X46990000Y-17780000D01*
X72390000Y-19050000D02*
X71120000Y-17780000D01*
X72390000Y-20320000D02*
X72390000Y-19050000D01*
X46990000Y-17780000D02*
X71120000Y-17780000D01*
X72390000Y-19050000D02*
X73660000Y-17780000D01*
X71120000Y-17780000D02*
X73660000Y-17780000D01*
D21*
X41910000Y-25400000D02*
X38735000Y-22225000D01*
X38735000Y-22225000D02*
X38735000Y-19050000D01*
X38735000Y-19050000D02*
X40005000Y-17780000D01*
D20*
X40005000Y-17780000D02*
X44450000Y-17780000D01*
D21*
X38735000Y-19050000D02*
X37465000Y-17780000D01*
D20*
X30480000Y-17780000D02*
X37465000Y-17780000D01*
X37465000Y-17780000D02*
X40005000Y-17780000D01*
X80391000Y-18796000D02*
X79375000Y-17780000D01*
X73660000Y-17780000D02*
X79375000Y-17780000D01*
X80391000Y-20320000D02*
X80391000Y-18796000D01*
D21*
X53084999Y-30100001D02*
X54610000Y-28575000D01*
X53084999Y-28922435D02*
X50197564Y-26035000D01*
X53084999Y-30100001D02*
X53084999Y-28922435D01*
D20*
X79779990Y-28836324D02*
X80658676Y-29715010D01*
X80658676Y-29715010D02*
X96014990Y-29715010D01*
X80865001Y-23029999D02*
X80865001Y-25958665D01*
X80391000Y-22555998D02*
X80865001Y-23029999D01*
X96014990Y-29715010D02*
X97790000Y-27940000D01*
X80391000Y-20320000D02*
X80391000Y-22555998D01*
X96779980Y-30480000D02*
X96014990Y-29715010D01*
X97790000Y-30480000D02*
X96779980Y-30480000D01*
D21*
X74930000Y-24627219D02*
X72390000Y-22087219D01*
X72390000Y-22087219D02*
X72390000Y-20320000D01*
X74930000Y-27940000D02*
X74930000Y-24627219D01*
D20*
X54610000Y-26035000D02*
X54610000Y-28575000D01*
X50197564Y-26035000D02*
X54610000Y-26035000D01*
X45720000Y-21557436D02*
X50197564Y-26035000D01*
X52737564Y-28575000D02*
X54610000Y-28575000D01*
X45720000Y-21557436D02*
X52737564Y-28575000D01*
X45720000Y-20320000D02*
X45720000Y-21557436D01*
X52834999Y-37554997D02*
X54610000Y-39329998D01*
X54610000Y-39329998D02*
X54610000Y-41275000D01*
X52834999Y-30350001D02*
X52834999Y-37554997D01*
X54610000Y-28575000D02*
X52834999Y-30350001D01*
X38864999Y-19179999D02*
X37465000Y-17780000D01*
X38864999Y-22354999D02*
X38864999Y-19179999D01*
X38864999Y-18920001D02*
X40005000Y-17780000D01*
X38864999Y-22354999D02*
X38864999Y-18920001D01*
X41910000Y-25400000D02*
X38864999Y-22354999D01*
X101094999Y-33784999D02*
X101094999Y-39499999D01*
X101094999Y-39499999D02*
X104140000Y-42545000D01*
X97790000Y-30480000D02*
X101094999Y-33784999D01*
X110490000Y-30480000D02*
X110490000Y-27940000D01*
X108714999Y-26164999D02*
X99565001Y-26164999D01*
X99565001Y-26164999D02*
X97790000Y-27940000D01*
X110490000Y-27940000D02*
X108714999Y-26164999D01*
X97790000Y-27940000D02*
X97790000Y-30480000D01*
X72390000Y-21733666D02*
X74930000Y-24273666D01*
X72390000Y-20320000D02*
X72390000Y-21733666D01*
X79375000Y-27940000D02*
X79779990Y-28344990D01*
X74930000Y-27940000D02*
X79375000Y-27940000D01*
X79779990Y-27043676D02*
X79779990Y-28344990D01*
X79779990Y-28344990D02*
X79779990Y-28836324D01*
X78883666Y-27940000D02*
X80399333Y-26424333D01*
X80865001Y-25958665D02*
X80399333Y-26424333D01*
X80399333Y-26424333D02*
X79779990Y-27043676D01*
X78883666Y-27940000D02*
X80658676Y-29715010D01*
X74930000Y-27940000D02*
X78883666Y-27940000D01*
X56297999Y-48130001D02*
X102105001Y-48130001D01*
X102105001Y-48130001D02*
X104140000Y-50165000D01*
X38100000Y-29932002D02*
X56297999Y-48130001D01*
X38100000Y-27940000D02*
X38100000Y-29932002D01*
X75565000Y-71755000D02*
X76835000Y-70485000D01*
X73025000Y-71755000D02*
X75565000Y-71755000D01*
X85090000Y-70485000D02*
X88900000Y-74295000D01*
X76835000Y-70485000D02*
X85090000Y-70485000D01*
X88900000Y-74295000D02*
X88900000Y-76835000D01*
X83820000Y-92075000D02*
X83820000Y-89535000D01*
D21*
X70485000Y-71755000D02*
X71774990Y-73044990D01*
X71774990Y-73044990D02*
X71774990Y-75087771D01*
X71774990Y-75087771D02*
X74537218Y-77849999D01*
D20*
X88900000Y-92075000D02*
X88900000Y-89535000D01*
X84093665Y-87759999D02*
X71826833Y-75493167D01*
X88900000Y-89535000D02*
X87124999Y-87759999D01*
X87124999Y-87759999D02*
X84093665Y-87759999D01*
D21*
X73660000Y-25400000D02*
X73660000Y-28712781D01*
D20*
X62230000Y-25256334D02*
X66887556Y-29913890D01*
X66887556Y-29913890D02*
X72458890Y-29913890D01*
X62230000Y-20320000D02*
X62230000Y-25256334D01*
D21*
X73660000Y-28712781D02*
X72458890Y-29913890D01*
D20*
X67310000Y-24130000D02*
X68580000Y-25400000D01*
X67310000Y-20320000D02*
X67310000Y-24130000D01*
D21*
X69850000Y-22087219D02*
X69850000Y-20320000D01*
X72390000Y-24627219D02*
X69850000Y-22087219D01*
X72390000Y-27940000D02*
X72390000Y-24627219D01*
D20*
X69850000Y-21733666D02*
X72390000Y-24273666D01*
X69850000Y-20320000D02*
X69850000Y-21733666D01*
D21*
X34925000Y-109076334D02*
X34996833Y-109148167D01*
X34925000Y-105410000D02*
X34925000Y-109076334D01*
D20*
X35573676Y-109725010D02*
X34996833Y-109148167D01*
X60325000Y-74295000D02*
X60325000Y-99060000D01*
X60325000Y-99060000D02*
X52935010Y-106449990D01*
X52935010Y-107576324D02*
X50786324Y-109725010D01*
X50786324Y-109725010D02*
X35573676Y-109725010D01*
X52935010Y-106449990D02*
X52935010Y-107576324D01*
D21*
X32385000Y-109220000D02*
X32385000Y-105410000D01*
D20*
X62865000Y-99060000D02*
X62865000Y-74295000D01*
X34925000Y-111760000D02*
X51435000Y-111760000D01*
X55114990Y-106810010D02*
X62865000Y-99060000D01*
X32385000Y-109220000D02*
X34925000Y-111760000D01*
X51435000Y-111760000D02*
X55114990Y-108080010D01*
X55114990Y-108080010D02*
X55114990Y-106810010D01*
X37450001Y-116825001D02*
X29845000Y-109220000D01*
X53917001Y-116825001D02*
X37450001Y-116825001D01*
X56515000Y-114227002D02*
X53917001Y-116825001D01*
D21*
X29845000Y-105410000D02*
X29845000Y-109220000D01*
D20*
X65405000Y-99203666D02*
X65405000Y-74295000D01*
X56515000Y-108093666D02*
X65405000Y-99203666D01*
X56515000Y-114227002D02*
X56515000Y-108093666D01*
D21*
X35939990Y-70229990D02*
X37465000Y-71755000D01*
X31134990Y-70962229D02*
X31867229Y-70229990D01*
X31867229Y-70229990D02*
X35939990Y-70229990D01*
X31134990Y-75584990D02*
X31134990Y-70962229D01*
D20*
X42314990Y-107719990D02*
X42545000Y-107950000D01*
X41025001Y-101934999D02*
X42314990Y-103224988D01*
X38984999Y-101934999D02*
X41025001Y-101934999D01*
X42314990Y-103224988D02*
X42314990Y-107719990D01*
X24765000Y-102870000D02*
X38049998Y-102870000D01*
X31134990Y-75584990D02*
X30649970Y-76070010D01*
X22860000Y-100965000D02*
X24765000Y-102870000D01*
X26164990Y-76070010D02*
X22860000Y-79375000D01*
X38049998Y-102870000D02*
X38984999Y-101934999D01*
X30649970Y-76070010D02*
X26164990Y-76070010D01*
X22860000Y-79375000D02*
X22860000Y-100965000D01*
X43180000Y-20320000D02*
X43180000Y-24130000D01*
D21*
X43180000Y-27940000D02*
X43180000Y-24130000D01*
D20*
X109510000Y-23495000D02*
X112395000Y-20610000D01*
X89405010Y-23624990D02*
X91569990Y-23624990D01*
X87630000Y-25400000D02*
X89405010Y-23624990D01*
X91569990Y-23624990D02*
X92075000Y-24130000D01*
X108875000Y-24130000D02*
X109510000Y-23495000D01*
X92075000Y-24130000D02*
X108875000Y-24130000D01*
X92709980Y-22224980D02*
X93214990Y-22729990D01*
X85090000Y-25400000D02*
X88265020Y-22224980D01*
X88265020Y-22224980D02*
X92709980Y-22224980D01*
X100115010Y-22729990D02*
X102235000Y-20610000D01*
X93214990Y-22729990D02*
X100115010Y-22729990D01*
D21*
X47625000Y-107950000D02*
X47625000Y-104140000D01*
D20*
X46255000Y-102770000D02*
X47625000Y-104140000D01*
X43715000Y-102770000D02*
X46255000Y-102770000D01*
X38405096Y-100534989D02*
X37470095Y-101469990D01*
X41604904Y-100534989D02*
X38405096Y-100534989D01*
X43715000Y-102770000D02*
X43714999Y-102645085D01*
X43714999Y-102645085D02*
X41604904Y-100534989D01*
X37470095Y-101469990D02*
X25344902Y-101469990D01*
X25344902Y-101469990D02*
X24260010Y-100385098D01*
X24260010Y-100385098D02*
X24260010Y-79954902D01*
X26744892Y-77470020D02*
X31749980Y-77470020D01*
X24260010Y-79954902D02*
X26744892Y-77470020D01*
X33586110Y-75633890D02*
X33726833Y-75493167D01*
X31749980Y-77470020D02*
X33586110Y-75633890D01*
D21*
X33674990Y-75545010D02*
X33586110Y-75633890D01*
X32385000Y-72030000D02*
X33674990Y-73319990D01*
X33674990Y-73319990D02*
X33674990Y-75545010D01*
X32385000Y-71755000D02*
X32385000Y-72030000D01*
D20*
X78105000Y-105410000D02*
X85725000Y-97790000D01*
X88610000Y-97790000D02*
X94960000Y-91440000D01*
X85725000Y-97790000D02*
X88610000Y-97790000D01*
X81150010Y-109725010D02*
X92204990Y-109725010D01*
X79375000Y-107950000D02*
X81150010Y-109725010D01*
X92204990Y-109725010D02*
X97790000Y-104140000D01*
X97790000Y-99350000D02*
X94960000Y-96520000D01*
X97790000Y-104140000D02*
X97790000Y-99350000D01*
X84455000Y-101600000D02*
X94960000Y-101600000D01*
X80645000Y-105410000D02*
X84455000Y-101600000D01*
X70426824Y-74913264D02*
X70426824Y-78046824D01*
X70485000Y-74295000D02*
X70485000Y-74855088D01*
X70485000Y-74855088D02*
X70426824Y-74913264D01*
X75565000Y-83185000D02*
X75565000Y-105410000D01*
X70426824Y-78046824D02*
X75565000Y-83185000D01*
D21*
X44070010Y-70229990D02*
X42545000Y-71755000D01*
X59055000Y-98703642D02*
X59055000Y-83185000D01*
X50165000Y-107950000D02*
X50165000Y-104637219D01*
X50165000Y-104637219D02*
X51932219Y-102870000D01*
X46335010Y-70962229D02*
X45602771Y-70229990D01*
X51932219Y-102870000D02*
X54888642Y-102870000D01*
X52070000Y-76200000D02*
X47447239Y-76200000D01*
X59055000Y-83185000D02*
X52070000Y-76200000D01*
X47447239Y-76200000D02*
X46335010Y-75087771D01*
X46335010Y-75087771D02*
X46335010Y-70962229D01*
X54888642Y-102870000D02*
X59055000Y-98703642D01*
X45602771Y-70229990D02*
X44070010Y-70229990D01*
D20*
X86360000Y-21590000D02*
X86360000Y-19685000D01*
X82550000Y-25400000D02*
X86360000Y-21590000D01*
M02*
