M48
; DRILL file {KiCad 5.1.6-c6e7f7d~86~ubuntu19.10.1} date Mon Feb  1 15:35:36 2021
; FORMAT={-:-/ absolute / inch / decimal}
; #@! TF.CreationDate,2021-02-01T15:35:36+02:00
; #@! TF.GenerationSoftware,Kicad,Pcbnew,5.1.6-c6e7f7d~86~ubuntu19.10.1
; #@! TF.FileFunction,Plated,1,4,PTH
FMAT,2
INCH
T1C0.0236
T2C0.0354
T3C0.0394
T4C0.0630
%
G90
G05
T1
X2.075Y-3.325
X2.175Y-3.325
X1.15Y-3.325
X1.25Y-3.325
X1.35Y-3.325
X1.15Y-4.225
X1.25Y-4.225
X1.35Y-4.225
X3.2Y-4.025
X3.3Y-4.025
X3.4Y-4.025
X3.2Y-3.125
X3.3Y-3.125
X3.4Y-3.125
X2.075Y-4.225
X2.175Y-4.225
X2.275Y-4.225
X2.275Y-3.325
T2
X2.075Y-4.125
X2.275Y-4.125
X0.925Y-1.15
X1.025Y-1.15
X3.5Y-3.125
X3.5Y-3.525
X2.8691Y-5.6749
X2.94Y-5.6749
X3.0108Y-5.6749
X3.0817Y-5.6749
X1.7Y-0.9
X1.8Y-0.9
X2.45Y-0.8
X2.55Y-0.8
X2.65Y-0.8
X2.75Y-0.8
X2.85Y-0.8
X2.95Y-0.8
X3.05Y-0.8
X0.725Y-2.475
X0.825Y-2.475
X0.925Y-2.475
X1.15Y-3.525
X1.15Y-3.725
X1.15Y-3.825
X1.15Y-3.925
X1.15Y-4.025
X1.35Y-3.525
X1.35Y-3.725
X1.35Y-3.825
X1.35Y-3.925
X1.35Y-4.025
X1.45Y-3.825
X1.45Y-4.225
X1.75Y-2.25
X1.85Y-2.25
X1.95Y-2.25
X2.05Y-2.25
X2.15Y-2.25
X2.25Y-2.25
X2.35Y-2.25
X2.45Y-2.25
X2.55Y-2.25
X2.65Y-2.25
X2.75Y-2.25
X2.85Y-2.25
X2.95Y-2.25
X3.05Y-2.25
X3.15Y-2.25
X3.25Y-2.25
X3.35Y-2.25
X3.45Y-2.25
X3.55Y-2.25
X3.65Y-2.25
X1.65Y-1.1
X1.7Y-1.0
X1.75Y-1.1
X1.8Y-1.0
X1.85Y-1.1
X1.9Y-1.0
X1.95Y-1.1
X2.0Y-1.0
X2.2Y-1.1
X2.25Y-1.0
X2.3Y-1.1
X2.35Y-1.0
X2.4Y-1.1
X2.45Y-1.0
X2.5Y-1.1
X2.55Y-1.0
X1.55Y-0.8
X1.55Y-0.9
X1.0Y-5.575
X1.0Y-5.675
X1.0Y-5.775
X1.0Y-5.875
X1.0Y-5.975
X1.0Y-6.075
X1.0Y-6.175
X0.825Y-2.25
X0.925Y-2.25
X1.125Y-4.65
X1.175Y-4.55
X1.225Y-4.65
X1.275Y-4.55
X1.325Y-4.65
X1.375Y-4.55
X1.425Y-4.65
X1.475Y-4.55
X1.675Y-4.65
X1.725Y-4.55
X1.775Y-4.65
X1.825Y-4.55
X1.875Y-4.65
X1.925Y-4.55
X1.975Y-4.65
X2.025Y-4.55
X2.075Y-3.425
X2.275Y-3.425
X3.2Y-3.225
X3.4Y-3.225
X2.306Y-5.714
X2.406Y-5.714
X2.506Y-5.714
X2.3Y-5.5746
X2.4Y-5.5746
X2.5Y-5.5746
X3.5Y-3.625
X3.5Y-4.025
X0.8Y-1.15
X0.8Y-1.25
X0.8Y-1.35
X0.8Y-1.45
X1.15Y-3.425
X1.35Y-3.425
X0.725Y-2.35
X0.825Y-2.35
X0.925Y-2.35
X1.0Y-1.725
X1.0Y-2.025
X2.8254Y-5.5749
X2.9254Y-5.5749
X3.0254Y-5.5749
X3.1254Y-5.5749
X2.075Y-3.525
X2.075Y-3.725
X2.075Y-3.825
X2.075Y-3.925
X2.075Y-4.025
X2.275Y-3.525
X2.275Y-3.725
X2.275Y-3.825
X2.275Y-3.925
X2.275Y-4.025
X1.45Y-3.325
X1.45Y-3.725
X1.15Y-4.125
X1.35Y-4.125
X3.2Y-3.325
X3.2Y-3.525
X3.2Y-3.625
X3.2Y-3.725
X3.2Y-3.825
X3.4Y-3.325
X3.4Y-3.525
X3.4Y-3.625
X3.4Y-3.725
X3.4Y-3.825
X2.375Y-4.65
X2.425Y-4.55
X2.475Y-4.65
X2.525Y-4.55
X2.575Y-4.65
X2.625Y-4.55
X2.675Y-4.65
X2.725Y-4.55
X2.925Y-4.65
X2.975Y-4.55
X3.025Y-4.65
X3.075Y-4.55
X3.125Y-4.65
X3.175Y-4.55
X3.225Y-4.65
X3.275Y-4.55
X3.4Y-0.8
X3.5Y-0.8
X3.2Y-3.925
X3.4Y-3.925
X0.975Y-2.825
X0.975Y-2.925
X1.075Y-2.825
X1.075Y-2.925
X1.175Y-2.825
X1.175Y-2.925
X1.275Y-2.825
X1.275Y-2.925
X1.375Y-2.825
X1.375Y-2.925
X1.475Y-2.825
X1.475Y-2.925
X1.575Y-2.825
X1.575Y-2.925
X1.675Y-2.825
X1.675Y-2.925
X1.775Y-2.825
X1.775Y-2.925
X1.875Y-2.825
X1.875Y-2.925
X1.975Y-2.825
X1.975Y-2.925
X2.075Y-2.825
X2.075Y-2.925
X2.175Y-2.825
X2.175Y-2.925
X2.275Y-2.825
X2.275Y-2.925
X2.375Y-2.825
X2.375Y-2.925
X2.475Y-2.825
X2.475Y-2.925
X2.575Y-2.825
X2.575Y-2.925
X2.675Y-2.825
X2.675Y-2.925
X2.775Y-2.825
X2.775Y-2.925
X2.875Y-2.825
X2.875Y-2.925
X2.075Y-0.8
X2.175Y-0.8
X1.875Y-5.575
X1.875Y-5.675
X1.875Y-5.775
X1.875Y-5.875
X1.875Y-5.975
X1.875Y-6.075
X1.875Y-6.175
X2.45Y-2.1
X2.55Y-2.1
X2.65Y-2.1
X2.75Y-2.1
X2.85Y-2.1
X2.95Y-2.1
X3.05Y-2.1
X3.185Y-0.8
X3.265Y-0.8
X2.9Y-1.1
X2.95Y-1.0
X3.0Y-1.1
X3.05Y-1.0
X3.1Y-1.1
X3.15Y-1.0
X3.2Y-1.1
X3.25Y-1.0
X3.45Y-1.1
X3.5Y-1.0
X3.55Y-1.1
X3.6Y-1.0
X3.65Y-1.1
X3.7Y-1.0
X3.75Y-1.1
X3.8Y-1.0
X2.375Y-4.225
X2.775Y-4.225
X2.375Y-3.325
X2.375Y-3.725
X1.675Y-0.8
X1.775Y-0.8
X1.875Y-0.8
X1.975Y-0.8
T3
X0.9114Y-3.375
X0.9114Y-3.575
X0.9114Y-3.775
X0.9114Y-3.975
X3.7386Y-3.4
X3.7386Y-3.6
X3.7386Y-3.8
X3.7386Y-4.0
X3.7386Y-2.975
X3.7386Y-3.175
X4.225Y-2.3886
X4.425Y-2.3886
X0.775Y-0.9114
X0.975Y-0.9114
X1.175Y-0.9114
X1.375Y-0.9114
T4
X1.4923Y-1.5299
X2.1Y-0.9469
X2.7077Y-1.5299
X0.9673Y-5.0799
X1.575Y-4.4969
X2.1827Y-5.0799
X2.2173Y-5.0799
X2.825Y-4.4969
X3.4327Y-5.0799
X2.7423Y-1.5299
X3.35Y-0.9469
X3.9577Y-1.5299
T0
M30
