M48
;DRILL file {KiCad 4.0.7-e1-6374~58~ubuntu16.04.1} date Tue Aug  8 22:46:09 2017
;FORMAT={-:-/ absolute / metric / decimal}
FMAT,2
METRIC,TZ
T1C0.900
%
G90
G05
M71
T1
X98.372Y-156.858
X98.372Y-159.398
X98.372Y-161.938
X101.547Y-156.858
X101.547Y-159.398
X101.547Y-161.938
X102.235Y-137.16
X102.235Y-139.7
X102.235Y-142.24
X102.235Y-144.78
X105.394Y-137.121
X105.394Y-139.661
X105.394Y-142.201
X105.394Y-147.281
X105.394Y-149.821
X107.88Y-156.821
X107.88Y-159.361
X107.88Y-161.901
X107.88Y-164.441
X110.42Y-157.931
X110.42Y-159.731
X110.42Y-161.531
X110.42Y-163.331
X110.474Y-137.121
X110.474Y-139.661
X110.474Y-142.201
X110.474Y-147.281
X110.474Y-149.821
X116.84Y-137.795
X118.11Y-146.05
X118.11Y-149.86
X118.11Y-160.02
X118.11Y-163.83
X119.38Y-137.795
X120.65Y-146.05
X120.65Y-149.86
X120.65Y-160.02
X120.65Y-163.83
X121.92Y-137.795
X123.19Y-146.05
X123.19Y-149.86
X123.19Y-160.02
X123.19Y-163.83
X124.46Y-137.795
X125.73Y-146.05
X125.73Y-163.83
X127.Y-137.795
X128.27Y-163.83
X128.905Y-146.05
X129.54Y-137.795
X130.81Y-163.83
X131.445Y-146.05
X132.08Y-137.795
X132.08Y-154.94
X133.35Y-163.83
X133.985Y-146.05
X134.62Y-137.795
X135.89Y-163.83
X136.525Y-146.05
X137.16Y-137.795
X139.065Y-146.05
X139.065Y-163.83
X139.7Y-133.985
X139.7Y-137.795
X139.7Y-154.94
X141.605Y-146.05
X141.605Y-163.83
X142.24Y-133.985
X142.24Y-137.795
X143.51Y-159.385
X144.145Y-146.05
X144.145Y-155.575
X144.145Y-163.83
X144.272Y-150.114
X144.78Y-133.985
X144.78Y-137.795
X146.304Y-150.114
X146.685Y-155.575
X146.685Y-163.83
X147.32Y-133.985
X147.32Y-137.795
X147.32Y-146.05
X149.225Y-155.575
X149.225Y-163.83
X149.86Y-133.985
X149.86Y-137.795
X149.86Y-146.05
X151.765Y-163.83
X152.4Y-133.985
X152.4Y-137.795
X152.4Y-146.05
X153.035Y-149.225
X153.035Y-154.305
X153.67Y-159.385
X154.305Y-163.83
X154.94Y-133.985
X154.94Y-137.795
X155.575Y-149.225
X155.575Y-154.305
X157.48Y-137.795
X158.115Y-159.385
X160.02Y-137.795
X160.655Y-149.225
X160.655Y-154.305
X160.655Y-159.385
X162.56Y-137.795
X163.195Y-149.225
X163.195Y-154.305
X163.195Y-159.385
X165.1Y-137.795
X165.735Y-149.225
X165.735Y-154.305
X165.735Y-159.385
X168.275Y-149.225
X168.275Y-154.305
X170.815Y-149.225
X170.815Y-154.305
T0
M30
