M48
; DRILL file {KiCad 5.1.6-c6e7f7d~87~ubuntu19.10.1} date Tue Sep  7 13:03:03 2021
; FORMAT={-:-/ absolute / inch / decimal}
; #@! TF.CreationDate,2021-09-07T13:03:03+03:00
; #@! TF.GenerationSoftware,Kicad,Pcbnew,5.1.6-c6e7f7d~87~ubuntu19.10.1
; #@! TF.FileFunction,Plated,1,4,PTH
FMAT,2
INCH
T1C0.0236
T2C0.0276
T3C0.0354
T4C0.0394
T5C0.0630
%
G90
G05
T1
X3.278Y-3.0841
X3.378Y-3.0841
X3.478Y-3.0841
X1.228Y-3.2841
X1.328Y-3.2841
X1.428Y-3.2841
X1.228Y-4.1841
X1.328Y-4.1841
X1.428Y-4.1841
X3.278Y-3.9841
X3.378Y-3.9841
X3.478Y-3.9841
X2.353Y-3.9841
X2.453Y-3.9841
X2.553Y-3.9841
X2.353Y-3.0841
X2.453Y-3.0841
X2.553Y-3.0841
T2
X5.4272Y-1.2498
X5.4272Y-1.2998
X5.4272Y-1.3498
X5.4272Y-1.3998
T3
X0.8049Y-0.6299
X0.9049Y-0.6299
X1.9213Y-1.1441
X1.9213Y-1.2441
X1.9213Y-1.3441
X1.9213Y-1.4441
X1.9213Y-1.5441
X1.9213Y-1.6441
X1.9213Y-1.7441
X0.9799Y-0.0907
X0.9799Y-0.3907
X3.8484Y-1.161
X3.8484Y-1.261
X3.8484Y-1.361
X3.8484Y-1.461
X3.8484Y-1.561
X0.8583Y-1.0472
X0.8583Y-1.1472
X0.8583Y-1.2472
X0.8583Y-1.3472
X0.8583Y-1.4472
X0.8583Y-1.5472
X0.8583Y-1.6472
X3.278Y-3.2841
X3.278Y-3.3841
X3.278Y-3.4841
X3.278Y-3.5841
X3.278Y-3.7841
X3.478Y-3.2841
X3.478Y-3.3841
X3.478Y-3.4841
X3.478Y-3.5841
X3.478Y-3.7841
X4.189Y-2.1654
X4.289Y-2.1654
X4.389Y-2.1654
X4.489Y-2.1654
X4.589Y-2.1654
X4.689Y-2.1654
X4.789Y-2.1654
X0.689Y-1.0614
X0.689Y-1.1614
X3.178Y-3.5841
X3.178Y-3.9841
X2.8799Y0.5343
X2.9299Y0.6343
X2.9799Y0.5343
X3.0299Y0.6343
X3.0799Y0.5343
X3.1299Y0.6343
X3.1799Y0.5343
X3.2299Y0.6343
X3.4299Y0.5343
X3.4799Y0.6343
X3.5299Y0.5343
X3.5799Y0.6343
X3.6299Y0.5343
X3.6799Y0.6343
X3.7299Y0.5343
X3.7799Y0.6343
X3.053Y-2.9591
X3.053Y-3.0591
X3.053Y-3.1591
X1.7299Y-0.6157
X1.8299Y-0.6157
X1.9299Y-0.6157
X2.0299Y-0.6157
X2.1299Y-0.6157
X2.2299Y-0.6157
X2.3299Y-0.6157
X2.4299Y-0.6157
X2.5299Y-0.6157
X2.6299Y-0.6157
X2.7299Y-0.6157
X2.8299Y-0.6157
X2.9299Y-0.6157
X3.0299Y-0.6157
X3.1299Y-0.6157
X3.2299Y-0.6157
X3.3299Y-0.6157
X3.4299Y-0.6157
X3.5299Y-0.6157
X3.6299Y-0.6157
X2.353Y-3.2841
X2.353Y-3.3841
X2.353Y-3.4841
X2.353Y-3.5841
X2.353Y-3.7841
X2.553Y-3.2841
X2.553Y-3.3841
X2.553Y-3.4841
X2.553Y-3.5841
X2.553Y-3.7841
X3.1649Y0.8343
X3.2449Y0.8343
X3.278Y-3.8841
X3.478Y-3.8841
X1.55Y0.8343
X1.65Y0.8343
X0.963Y-1.0433
X1.063Y-1.0433
X1.228Y-3.4841
X1.228Y-3.5841
X1.228Y-3.6841
X1.228Y-3.7841
X1.228Y-3.9841
X1.428Y-3.4841
X1.428Y-3.5841
X1.428Y-3.6841
X1.428Y-3.7841
X1.428Y-3.9841
X2.8898Y-1.1417
X2.8898Y-1.2417
X2.8898Y-1.3417
X2.8898Y-1.4417
X2.8898Y-1.5417
X2.8898Y-1.6417
X2.8898Y-1.7417
X4.1913Y-3.252
X4.2913Y-3.252
X4.3913Y-3.252
X4.4913Y-3.252
X4.5913Y-3.252
X4.6913Y-3.252
X4.7913Y-3.252
X2.603Y-2.7591
X2.653Y-2.6591
X2.703Y-2.7591
X2.753Y-2.6591
X2.803Y-2.7591
X2.853Y-2.6591
X2.903Y-2.7591
X2.953Y-2.6591
X3.153Y-2.7591
X3.203Y-2.6591
X3.253Y-2.7591
X3.303Y-2.6591
X3.353Y-2.7591
X3.403Y-2.6591
X3.453Y-2.7591
X3.503Y-2.6591
X1.353Y-2.7591
X1.403Y-2.6591
X1.453Y-2.7591
X1.503Y-2.6591
X1.553Y-2.7591
X1.603Y-2.6591
X1.653Y-2.7591
X1.703Y-2.6591
X1.903Y-2.7591
X1.953Y-2.6591
X2.003Y-2.7591
X2.053Y-2.6591
X2.103Y-2.7591
X2.153Y-2.6591
X2.203Y-2.7591
X2.253Y-2.6591
X2.353Y-3.1841
X2.553Y-3.1841
X2.353Y-3.8841
X2.553Y-3.8841
X1.853Y-3.0841
X2.253Y-3.0841
X0.689Y-1.2598
X0.689Y-1.3598
X1.128Y-3.2841
X1.128Y-3.6841
X1.0039Y-1.6535
X1.3665Y-1.4845
X3.278Y-3.1841
X3.478Y-3.1841
X4.5407Y0.3573
X4.6407Y0.3573
X4.7407Y0.3573
X4.8407Y0.3573
X4.9407Y0.3573
X5.0407Y0.3573
X5.1407Y0.3573
X2.253Y-3.5841
X2.253Y-3.9841
X1.753Y-4.3841
X1.753Y-4.4841
X1.853Y-4.3841
X1.853Y-4.4841
X1.953Y-4.3841
X1.953Y-4.4841
X2.053Y-4.3841
X2.053Y-4.4841
X2.153Y-4.3841
X2.153Y-4.4841
X2.253Y-4.3841
X2.253Y-4.4841
X2.353Y-4.3841
X2.353Y-4.4841
X2.453Y-4.3841
X2.453Y-4.4841
X2.553Y-4.3841
X2.553Y-4.4841
X2.653Y-4.3841
X2.653Y-4.4841
X2.753Y-4.3841
X2.753Y-4.4841
X2.853Y-4.3841
X2.853Y-4.4841
X2.953Y-4.3841
X2.953Y-4.4841
X3.053Y-4.3841
X3.053Y-4.4841
X3.153Y-4.3841
X3.153Y-4.4841
X3.253Y-4.3841
X3.253Y-4.4841
X3.353Y-4.3841
X3.353Y-4.4841
X3.453Y-4.3841
X3.453Y-4.4841
X3.553Y-4.3841
X3.553Y-4.4841
X3.653Y-4.3841
X3.653Y-4.4841
X0.7049Y-0.7874
X0.8049Y-0.7874
X0.9049Y-0.7874
X1.128Y-3.7841
X1.128Y-4.1841
X1.6299Y0.5343
X1.6799Y0.6343
X1.7299Y0.5343
X1.7799Y0.6343
X1.8299Y0.5343
X1.8799Y0.6343
X1.9299Y0.5343
X1.9799Y0.6343
X2.1799Y0.5343
X2.2299Y0.6343
X2.2799Y0.5343
X2.3299Y0.6343
X2.3799Y0.5343
X2.4299Y0.6343
X2.4799Y0.5343
X2.5299Y0.6343
X3.178Y-3.0841
X3.178Y-3.4841
X1.1Y-1.725
X1.2Y-1.725
X1.3Y-1.725
X1.228Y-4.0841
X1.428Y-4.0841
X2.4299Y0.8343
X2.5299Y0.8343
X2.6299Y0.8343
X2.7299Y0.8343
X2.8299Y0.8343
X2.9299Y0.8343
X3.0299Y0.8343
X1.228Y-3.3841
X1.428Y-3.3841
X2.4299Y-0.4657
X2.5299Y-0.4657
X2.6299Y-0.4657
X2.7299Y-0.4657
X2.8299Y-0.4657
X2.9299Y-0.4657
X3.0299Y-0.4657
T4
X4.2049Y-0.7543
X4.4049Y-0.7543
X3.7165Y-3.3341
X3.7165Y-3.5341
X3.7165Y-3.7341
X3.7165Y-3.9341
X0.8894Y-4.1341
X0.8894Y-4.3341
X0.7549Y0.7228
X0.9549Y0.7228
X1.1549Y0.7228
X1.3549Y0.7228
X0.8894Y-3.3091
X0.8894Y-3.5091
X0.8894Y-3.7091
X0.8894Y-3.9091
T5
X2.7222Y0.1043
X3.3299Y0.6874
X3.9376Y0.1043
X2.4453Y-2.2291
X3.053Y-2.8122
X3.6606Y-2.2291
X1.1953Y-2.2291
X1.803Y-2.8122
X2.4106Y-2.2291
X1.4722Y0.1043
X2.0799Y0.6874
X2.6876Y0.1043
T0
M30
