G04 #@! TF.FileFunction,Legend,Top*
%FSLAX46Y46*%
G04 Gerber Fmt 4.6, Leading zero omitted, Abs format (unit mm)*
G04 Created by KiCad (PCBNEW 4.0.2+dfsg1-stable) date ti  8. elokuuta 2017 08.50.32*
%MOMM*%
G01*
G04 APERTURE LIST*
%ADD10C,0.100000*%
%ADD11C,0.150000*%
%ADD12C,0.050000*%
G04 APERTURE END LIST*
D10*
D11*
X113030000Y-109220000D02*
X120650000Y-109220000D01*
X120650000Y-109220000D02*
X120650000Y-111760000D01*
X120650000Y-111760000D02*
X113030000Y-111760000D01*
X113030000Y-109220000D02*
X113030000Y-111760000D01*
X140970000Y-153670000D02*
G75*
G03X140970000Y-153670000I-7620000J0D01*
G01*
X125690000Y-151130000D02*
G75*
G03X125690000Y-151130000I-2500000J0D01*
G01*
X169100000Y-90170000D02*
X169350000Y-90170000D01*
X166100000Y-90170000D02*
X165850000Y-90170000D01*
X166600000Y-91170000D02*
X166600000Y-89170000D01*
X166100000Y-89170000D02*
X166100000Y-91170000D01*
X166100000Y-91170000D02*
X169100000Y-91170000D01*
X169100000Y-91170000D02*
X169100000Y-89170000D01*
X169100000Y-89170000D02*
X166100000Y-89170000D01*
X168910000Y-143320000D02*
X168910000Y-143070000D01*
X168910000Y-146320000D02*
X168910000Y-146570000D01*
X169910000Y-145820000D02*
X167910000Y-145820000D01*
X167910000Y-146320000D02*
X169910000Y-146320000D01*
X169910000Y-146320000D02*
X169910000Y-143320000D01*
X169910000Y-143320000D02*
X167910000Y-143320000D01*
X167910000Y-143320000D02*
X167910000Y-146320000D01*
X151130000Y-143320000D02*
X151130000Y-143070000D01*
X151130000Y-146320000D02*
X151130000Y-146570000D01*
X152130000Y-145820000D02*
X150130000Y-145820000D01*
X150130000Y-146320000D02*
X152130000Y-146320000D01*
X152130000Y-146320000D02*
X152130000Y-143320000D01*
X152130000Y-143320000D02*
X150130000Y-143320000D01*
X150130000Y-143320000D02*
X150130000Y-146320000D01*
X141322305Y-149586990D02*
G75*
G03X141810000Y-150290000I2187695J996990D01*
G01*
X145697695Y-149586990D02*
G75*
G02X145210000Y-150290000I-2187695J996990D01*
G01*
X141810000Y-150290000D02*
X145210000Y-150290000D01*
X141325121Y-147596873D02*
G75*
G02X143510000Y-146190000I2184879J-993127D01*
G01*
X145694879Y-147596873D02*
G75*
G03X143510000Y-146190000I-2184879J-993127D01*
G01*
X152400000Y-148590000D02*
X152400000Y-140970000D01*
X152400000Y-140970000D02*
X167640000Y-140970000D01*
X167640000Y-140970000D02*
X167640000Y-148590000D01*
X167640000Y-148590000D02*
X152400000Y-148590000D01*
X148590000Y-93980000D02*
X158750000Y-93980000D01*
X158750000Y-93980000D02*
X158750000Y-96520000D01*
X158750000Y-96520000D02*
X148590000Y-96520000D01*
D12*
X150114000Y-96012000D02*
X150114000Y-104140000D01*
X150114000Y-104140000D02*
X149860000Y-104394000D01*
X149860000Y-104394000D02*
X149606000Y-104140000D01*
X149606000Y-104140000D02*
X149606000Y-96012000D01*
X152654000Y-96012000D02*
X152654000Y-104140000D01*
X152654000Y-104140000D02*
X152400000Y-104394000D01*
X152400000Y-104394000D02*
X152146000Y-104140000D01*
X152146000Y-104140000D02*
X152146000Y-96012000D01*
X154940000Y-104394000D02*
X154686000Y-104140000D01*
X154686000Y-104140000D02*
X154686000Y-96012000D01*
X155194000Y-96012000D02*
X155194000Y-104140000D01*
X155194000Y-104140000D02*
X154940000Y-104394000D01*
X157734000Y-96012000D02*
X157734000Y-104140000D01*
X157734000Y-104140000D02*
X157480000Y-104394000D01*
X157480000Y-104394000D02*
X157226000Y-104140000D01*
X157226000Y-104140000D02*
X157226000Y-96012000D01*
D11*
X148590000Y-93980000D02*
X148590000Y-96520000D01*
X114300000Y-140970000D02*
X114300000Y-143510000D01*
X114300000Y-143510000D02*
X132080000Y-143510000D01*
X132080000Y-143510000D02*
X132080000Y-140970000D01*
X132080000Y-140970000D02*
X114300000Y-140970000D01*
X104140000Y-140970000D02*
X114300000Y-140970000D01*
X114300000Y-140970000D02*
X114300000Y-143510000D01*
X114300000Y-143510000D02*
X104140000Y-143510000D01*
X104140000Y-140970000D02*
X104140000Y-143510000D01*
X152400000Y-162560000D02*
X162560000Y-162560000D01*
X162560000Y-162560000D02*
X162560000Y-165100000D01*
X162560000Y-165100000D02*
X152400000Y-165100000D01*
D12*
X153924000Y-164592000D02*
X153924000Y-172720000D01*
X153924000Y-172720000D02*
X153670000Y-172974000D01*
X153670000Y-172974000D02*
X153416000Y-172720000D01*
X153416000Y-172720000D02*
X153416000Y-164592000D01*
X156464000Y-164592000D02*
X156464000Y-172720000D01*
X156464000Y-172720000D02*
X156210000Y-172974000D01*
X156210000Y-172974000D02*
X155956000Y-172720000D01*
X155956000Y-172720000D02*
X155956000Y-164592000D01*
X158750000Y-172974000D02*
X158496000Y-172720000D01*
X158496000Y-172720000D02*
X158496000Y-164592000D01*
X159004000Y-164592000D02*
X159004000Y-172720000D01*
X159004000Y-172720000D02*
X158750000Y-172974000D01*
X161544000Y-164592000D02*
X161544000Y-172720000D01*
X161544000Y-172720000D02*
X161290000Y-172974000D01*
X161290000Y-172974000D02*
X161036000Y-172720000D01*
X161036000Y-172720000D02*
X161036000Y-164592000D01*
D11*
X152400000Y-162560000D02*
X152400000Y-165100000D01*
X149860000Y-162560000D02*
X149860000Y-165100000D01*
D12*
X148336000Y-164592000D02*
X148336000Y-172720000D01*
X148336000Y-172720000D02*
X148590000Y-172974000D01*
X148590000Y-172974000D02*
X148844000Y-172720000D01*
X148844000Y-172720000D02*
X148844000Y-164592000D01*
X145796000Y-164592000D02*
X145796000Y-172720000D01*
X145796000Y-172720000D02*
X146050000Y-172974000D01*
X146050000Y-172974000D02*
X146304000Y-172720000D01*
X146304000Y-172720000D02*
X146304000Y-164592000D01*
X133604000Y-164592000D02*
X133604000Y-172720000D01*
X133604000Y-172720000D02*
X133350000Y-172974000D01*
X133350000Y-172974000D02*
X133096000Y-172720000D01*
X133096000Y-172720000D02*
X133096000Y-164592000D01*
X136144000Y-164592000D02*
X136144000Y-172720000D01*
X136144000Y-172720000D02*
X135890000Y-172974000D01*
X135890000Y-172974000D02*
X135636000Y-172720000D01*
X135636000Y-172720000D02*
X135636000Y-164592000D01*
X138430000Y-172974000D02*
X138176000Y-172720000D01*
X138176000Y-172720000D02*
X138176000Y-164592000D01*
X138684000Y-164592000D02*
X138684000Y-172720000D01*
X138684000Y-172720000D02*
X138430000Y-172974000D01*
X141224000Y-164592000D02*
X141224000Y-172720000D01*
X141224000Y-172720000D02*
X140970000Y-172974000D01*
X140970000Y-172974000D02*
X140716000Y-172720000D01*
X140716000Y-172720000D02*
X140716000Y-164592000D01*
X143764000Y-164592000D02*
X143764000Y-172720000D01*
X143764000Y-172720000D02*
X143510000Y-172974000D01*
X143510000Y-172974000D02*
X143256000Y-172720000D01*
X143256000Y-172720000D02*
X143256000Y-164592000D01*
D11*
X132080000Y-162560000D02*
X132080000Y-165100000D01*
X132080000Y-165100000D02*
X149860000Y-165100000D01*
X149860000Y-162560000D02*
X132080000Y-162560000D01*
X127000000Y-162560000D02*
X129540000Y-162560000D01*
X129540000Y-162560000D02*
X129540000Y-165100000D01*
X129540000Y-165100000D02*
X127000000Y-165100000D01*
D12*
X125476000Y-164592000D02*
X125476000Y-172720000D01*
X125476000Y-172720000D02*
X125730000Y-172974000D01*
X125730000Y-172974000D02*
X125984000Y-172720000D01*
X125984000Y-172720000D02*
X125984000Y-164592000D01*
X122936000Y-164592000D02*
X122936000Y-172720000D01*
X122936000Y-172720000D02*
X123190000Y-172974000D01*
X123190000Y-172974000D02*
X123444000Y-172720000D01*
X123444000Y-172720000D02*
X123444000Y-164592000D01*
X110744000Y-164592000D02*
X110744000Y-172720000D01*
X110744000Y-172720000D02*
X110490000Y-172974000D01*
X110490000Y-172974000D02*
X110236000Y-172720000D01*
X110236000Y-172720000D02*
X110236000Y-164592000D01*
X113284000Y-164592000D02*
X113284000Y-172720000D01*
X113284000Y-172720000D02*
X113030000Y-172974000D01*
X113030000Y-172974000D02*
X112776000Y-172720000D01*
X112776000Y-172720000D02*
X112776000Y-164592000D01*
X115570000Y-172974000D02*
X115316000Y-172720000D01*
X115316000Y-172720000D02*
X115316000Y-164592000D01*
X115824000Y-164592000D02*
X115824000Y-172720000D01*
X115824000Y-172720000D02*
X115570000Y-172974000D01*
X118364000Y-164592000D02*
X118364000Y-172720000D01*
X118364000Y-172720000D02*
X118110000Y-172974000D01*
X118110000Y-172974000D02*
X117856000Y-172720000D01*
X117856000Y-172720000D02*
X117856000Y-164592000D01*
X120904000Y-164592000D02*
X120904000Y-172720000D01*
X120904000Y-172720000D02*
X120650000Y-172974000D01*
X120650000Y-172974000D02*
X120396000Y-172720000D01*
X120396000Y-172720000D02*
X120396000Y-164592000D01*
X128016000Y-164592000D02*
X128016000Y-172720000D01*
X128016000Y-172720000D02*
X128270000Y-172974000D01*
X128270000Y-172974000D02*
X128524000Y-172720000D01*
X128524000Y-172720000D02*
X128524000Y-164592000D01*
D11*
X109220000Y-162560000D02*
X109220000Y-165100000D01*
X109220000Y-165100000D02*
X127000000Y-165100000D01*
X127000000Y-162560000D02*
X109220000Y-162560000D01*
X147320000Y-80010000D02*
X147320000Y-87630000D01*
X147320000Y-87630000D02*
X162560000Y-87630000D01*
X162560000Y-87630000D02*
X162560000Y-80010000D01*
X162560000Y-80010000D02*
X147320000Y-80010000D01*
D10*
X109490000Y-158020000D02*
X109490000Y-153020000D01*
X109490000Y-153020000D02*
X111490000Y-153020000D01*
X111490000Y-153020000D02*
X111490000Y-158020000D01*
X111490000Y-158020000D02*
X109490000Y-158020000D01*
X110490000Y-158020000D02*
X110490000Y-159020000D01*
X110490000Y-153020000D02*
X110490000Y-152020000D01*
X106950000Y-158020000D02*
X106950000Y-153020000D01*
X106950000Y-153020000D02*
X108950000Y-153020000D01*
X108950000Y-153020000D02*
X108950000Y-158020000D01*
X108950000Y-158020000D02*
X106950000Y-158020000D01*
X107950000Y-158020000D02*
X107950000Y-159020000D01*
X107950000Y-153020000D02*
X107950000Y-152020000D01*
X104410000Y-158020000D02*
X104410000Y-153020000D01*
X104410000Y-153020000D02*
X106410000Y-153020000D01*
X106410000Y-153020000D02*
X106410000Y-158020000D01*
X106410000Y-158020000D02*
X104410000Y-158020000D01*
X105410000Y-158020000D02*
X105410000Y-159020000D01*
X105410000Y-153020000D02*
X105410000Y-152020000D01*
X144240000Y-156480000D02*
X149240000Y-156480000D01*
X149240000Y-156480000D02*
X149240000Y-158480000D01*
X149240000Y-158480000D02*
X144240000Y-158480000D01*
X144240000Y-158480000D02*
X144240000Y-156480000D01*
X144240000Y-157480000D02*
X143240000Y-157480000D01*
X149240000Y-157480000D02*
X150240000Y-157480000D01*
D11*
X114652305Y-107676990D02*
G75*
G03X115140000Y-108380000I2187695J996990D01*
G01*
X119027695Y-107676990D02*
G75*
G02X118540000Y-108380000I-2187695J996990D01*
G01*
X115140000Y-108380000D02*
X118540000Y-108380000D01*
X114655121Y-105686873D02*
G75*
G02X116840000Y-104280000I2184879J-993127D01*
G01*
X119024879Y-105686873D02*
G75*
G03X116840000Y-104280000I-2184879J-993127D01*
G01*
X139700000Y-140970000D02*
X147320000Y-140970000D01*
X147320000Y-140970000D02*
X147320000Y-143510000D01*
X147320000Y-143510000D02*
X139700000Y-143510000D01*
X139700000Y-140970000D02*
X139700000Y-143510000D01*
X116078095Y-113482381D02*
X116078095Y-112482381D01*
X116078095Y-112958571D02*
X116649524Y-112958571D01*
X116649524Y-113482381D02*
X116649524Y-112482381D01*
X117078095Y-112577619D02*
X117125714Y-112530000D01*
X117220952Y-112482381D01*
X117459048Y-112482381D01*
X117554286Y-112530000D01*
X117601905Y-112577619D01*
X117649524Y-112672857D01*
X117649524Y-112768095D01*
X117601905Y-112910952D01*
X117030476Y-113482381D01*
X117649524Y-113482381D01*
X131778571Y-150026667D02*
X132254762Y-150026667D01*
X131683333Y-150312381D02*
X132016666Y-149312381D01*
X132350000Y-150312381D01*
X132635714Y-150264762D02*
X132778571Y-150312381D01*
X133016667Y-150312381D01*
X133111905Y-150264762D01*
X133159524Y-150217143D01*
X133207143Y-150121905D01*
X133207143Y-150026667D01*
X133159524Y-149931429D01*
X133111905Y-149883810D01*
X133016667Y-149836190D01*
X132826190Y-149788571D01*
X132730952Y-149740952D01*
X132683333Y-149693333D01*
X132635714Y-149598095D01*
X132635714Y-149502857D01*
X132683333Y-149407619D01*
X132730952Y-149360000D01*
X132826190Y-149312381D01*
X133064286Y-149312381D01*
X133207143Y-149360000D01*
X133492857Y-149312381D02*
X134064286Y-149312381D01*
X133778571Y-150312381D02*
X133778571Y-149312381D01*
X134921429Y-150312381D02*
X134350000Y-150312381D01*
X134635714Y-150312381D02*
X134635714Y-149312381D01*
X134540476Y-149455238D01*
X134445238Y-149550476D01*
X134350000Y-149598095D01*
X136779048Y-155011429D02*
X137540953Y-155011429D01*
X129159048Y-155011429D02*
X129920953Y-155011429D01*
X129540001Y-155392381D02*
X129540001Y-154630476D01*
X123023334Y-155297143D02*
X122975715Y-155344762D01*
X122832858Y-155392381D01*
X122737620Y-155392381D01*
X122594762Y-155344762D01*
X122499524Y-155249524D01*
X122451905Y-155154286D01*
X122404286Y-154963810D01*
X122404286Y-154820952D01*
X122451905Y-154630476D01*
X122499524Y-154535238D01*
X122594762Y-154440000D01*
X122737620Y-154392381D01*
X122832858Y-154392381D01*
X122975715Y-154440000D01*
X123023334Y-154487619D01*
X123975715Y-155392381D02*
X123404286Y-155392381D01*
X123690000Y-155392381D02*
X123690000Y-154392381D01*
X123594762Y-154535238D01*
X123499524Y-154630476D01*
X123404286Y-154678095D01*
X166901905Y-93162381D02*
X166901905Y-92162381D01*
X167140000Y-92162381D01*
X167282858Y-92210000D01*
X167378096Y-92305238D01*
X167425715Y-92400476D01*
X167473334Y-92590952D01*
X167473334Y-92733810D01*
X167425715Y-92924286D01*
X167378096Y-93019524D01*
X167282858Y-93114762D01*
X167140000Y-93162381D01*
X166901905Y-93162381D01*
X167854286Y-92257619D02*
X167901905Y-92210000D01*
X167997143Y-92162381D01*
X168235239Y-92162381D01*
X168330477Y-92210000D01*
X168378096Y-92257619D01*
X168425715Y-92352857D01*
X168425715Y-92448095D01*
X168378096Y-92590952D01*
X167806667Y-93162381D01*
X168425715Y-93162381D01*
X171902381Y-145518095D02*
X170902381Y-145518095D01*
X170902381Y-145280000D01*
X170950000Y-145137142D01*
X171045238Y-145041904D01*
X171140476Y-144994285D01*
X171330952Y-144946666D01*
X171473810Y-144946666D01*
X171664286Y-144994285D01*
X171759524Y-145041904D01*
X171854762Y-145137142D01*
X171902381Y-145280000D01*
X171902381Y-145518095D01*
X170902381Y-144613333D02*
X170902381Y-143994285D01*
X171283333Y-144327619D01*
X171283333Y-144184761D01*
X171330952Y-144089523D01*
X171378571Y-144041904D01*
X171473810Y-143994285D01*
X171711905Y-143994285D01*
X171807143Y-144041904D01*
X171854762Y-144089523D01*
X171902381Y-144184761D01*
X171902381Y-144470476D01*
X171854762Y-144565714D01*
X171807143Y-144613333D01*
X154122381Y-145518095D02*
X153122381Y-145518095D01*
X153122381Y-145280000D01*
X153170000Y-145137142D01*
X153265238Y-145041904D01*
X153360476Y-144994285D01*
X153550952Y-144946666D01*
X153693810Y-144946666D01*
X153884286Y-144994285D01*
X153979524Y-145041904D01*
X154074762Y-145137142D01*
X154122381Y-145280000D01*
X154122381Y-145518095D01*
X153455714Y-144089523D02*
X154122381Y-144089523D01*
X153074762Y-144327619D02*
X153789048Y-144565714D01*
X153789048Y-143946666D01*
X139755714Y-145042381D02*
X139755714Y-144042381D01*
X139993809Y-144042381D01*
X140136667Y-144090000D01*
X140231905Y-144185238D01*
X140279524Y-144280476D01*
X140327143Y-144470952D01*
X140327143Y-144613810D01*
X140279524Y-144804286D01*
X140231905Y-144899524D01*
X140136667Y-144994762D01*
X139993809Y-145042381D01*
X139755714Y-145042381D01*
X140708095Y-144994762D02*
X140850952Y-145042381D01*
X141089048Y-145042381D01*
X141184286Y-144994762D01*
X141231905Y-144947143D01*
X141279524Y-144851905D01*
X141279524Y-144756667D01*
X141231905Y-144661429D01*
X141184286Y-144613810D01*
X141089048Y-144566190D01*
X140898571Y-144518571D01*
X140803333Y-144470952D01*
X140755714Y-144423333D01*
X140708095Y-144328095D01*
X140708095Y-144232857D01*
X140755714Y-144137619D01*
X140803333Y-144090000D01*
X140898571Y-144042381D01*
X141136667Y-144042381D01*
X141279524Y-144090000D01*
X142231905Y-145042381D02*
X141660476Y-145042381D01*
X141946190Y-145042381D02*
X141946190Y-144042381D01*
X141850952Y-144185238D01*
X141755714Y-144280476D01*
X141660476Y-144328095D01*
X158829524Y-149788571D02*
X159162858Y-149788571D01*
X159305715Y-150312381D02*
X158829524Y-150312381D01*
X158829524Y-149312381D01*
X159305715Y-149312381D01*
X160305715Y-150217143D02*
X160258096Y-150264762D01*
X160115239Y-150312381D01*
X160020001Y-150312381D01*
X159877143Y-150264762D01*
X159781905Y-150169524D01*
X159734286Y-150074286D01*
X159686667Y-149883810D01*
X159686667Y-149740952D01*
X159734286Y-149550476D01*
X159781905Y-149455238D01*
X159877143Y-149360000D01*
X160020001Y-149312381D01*
X160115239Y-149312381D01*
X160258096Y-149360000D01*
X160305715Y-149407619D01*
X161258096Y-150312381D02*
X160686667Y-150312381D01*
X160972381Y-150312381D02*
X160972381Y-149312381D01*
X160877143Y-149455238D01*
X160781905Y-149550476D01*
X160686667Y-149598095D01*
X161750476Y-146502381D02*
X161750476Y-145502381D01*
X162321905Y-146502381D01*
X162321905Y-145502381D01*
X162988571Y-145502381D02*
X163179048Y-145502381D01*
X163274286Y-145550000D01*
X163369524Y-145645238D01*
X163417143Y-145835714D01*
X163417143Y-146169048D01*
X163369524Y-146359524D01*
X163274286Y-146454762D01*
X163179048Y-146502381D01*
X162988571Y-146502381D01*
X162893333Y-146454762D01*
X162798095Y-146359524D01*
X162750476Y-146169048D01*
X162750476Y-145835714D01*
X162798095Y-145645238D01*
X162893333Y-145550000D01*
X162988571Y-145502381D01*
X159234286Y-146502381D02*
X159234286Y-145502381D01*
X159805715Y-146502381D01*
X159805715Y-145502381D01*
X160853334Y-146407143D02*
X160805715Y-146454762D01*
X160662858Y-146502381D01*
X160567620Y-146502381D01*
X160424762Y-146454762D01*
X160329524Y-146359524D01*
X160281905Y-146264286D01*
X160234286Y-146073810D01*
X160234286Y-145930952D01*
X160281905Y-145740476D01*
X160329524Y-145645238D01*
X160424762Y-145550000D01*
X160567620Y-145502381D01*
X160662858Y-145502381D01*
X160805715Y-145550000D01*
X160853334Y-145597619D01*
X165036667Y-143581429D02*
X165798572Y-143581429D01*
X166465238Y-142962381D02*
X166655715Y-142962381D01*
X166750953Y-143010000D01*
X166846191Y-143105238D01*
X166893810Y-143295714D01*
X166893810Y-143629048D01*
X166846191Y-143819524D01*
X166750953Y-143914762D01*
X166655715Y-143962381D01*
X166465238Y-143962381D01*
X166370000Y-143914762D01*
X166274762Y-143819524D01*
X166227143Y-143629048D01*
X166227143Y-143295714D01*
X166274762Y-143105238D01*
X166370000Y-143010000D01*
X166465238Y-142962381D01*
X167655715Y-143438571D02*
X167322381Y-143438571D01*
X167322381Y-143962381D02*
X167322381Y-142962381D01*
X167798572Y-142962381D01*
X152241429Y-143581429D02*
X153003334Y-143581429D01*
X153670000Y-142962381D02*
X153860477Y-142962381D01*
X153955715Y-143010000D01*
X154050953Y-143105238D01*
X154098572Y-143295714D01*
X154098572Y-143629048D01*
X154050953Y-143819524D01*
X153955715Y-143914762D01*
X153860477Y-143962381D01*
X153670000Y-143962381D01*
X153574762Y-143914762D01*
X153479524Y-143819524D01*
X153431905Y-143629048D01*
X153431905Y-143295714D01*
X153479524Y-143105238D01*
X153574762Y-143010000D01*
X153670000Y-142962381D01*
X154527143Y-143962381D02*
X154527143Y-142962381D01*
X155098572Y-143962381D01*
X155098572Y-142962381D01*
X165036667Y-146121429D02*
X165798572Y-146121429D01*
X165417620Y-146502381D02*
X165417620Y-145740476D01*
X166465238Y-145502381D02*
X166655715Y-145502381D01*
X166750953Y-145550000D01*
X166846191Y-145645238D01*
X166893810Y-145835714D01*
X166893810Y-146169048D01*
X166846191Y-146359524D01*
X166750953Y-146454762D01*
X166655715Y-146502381D01*
X166465238Y-146502381D01*
X166370000Y-146454762D01*
X166274762Y-146359524D01*
X166227143Y-146169048D01*
X166227143Y-145835714D01*
X166274762Y-145645238D01*
X166370000Y-145550000D01*
X166465238Y-145502381D01*
X167655715Y-145978571D02*
X167322381Y-145978571D01*
X167322381Y-146502381D02*
X167322381Y-145502381D01*
X167798572Y-145502381D01*
X152241429Y-146121429D02*
X153003334Y-146121429D01*
X152622382Y-146502381D02*
X152622382Y-145740476D01*
X153670000Y-145502381D02*
X153860477Y-145502381D01*
X153955715Y-145550000D01*
X154050953Y-145645238D01*
X154098572Y-145835714D01*
X154098572Y-146169048D01*
X154050953Y-146359524D01*
X153955715Y-146454762D01*
X153860477Y-146502381D01*
X153670000Y-146502381D01*
X153574762Y-146454762D01*
X153479524Y-146359524D01*
X153431905Y-146169048D01*
X153431905Y-145835714D01*
X153479524Y-145645238D01*
X153574762Y-145550000D01*
X153670000Y-145502381D01*
X154527143Y-146502381D02*
X154527143Y-145502381D01*
X155098572Y-146502381D01*
X155098572Y-145502381D01*
X152908095Y-98242381D02*
X152908095Y-97242381D01*
X152908095Y-97718571D02*
X153479524Y-97718571D01*
X153479524Y-98242381D02*
X153479524Y-97242381D01*
X154479524Y-98242381D02*
X153908095Y-98242381D01*
X154193809Y-98242381D02*
X154193809Y-97242381D01*
X154098571Y-97385238D01*
X154003333Y-97480476D01*
X153908095Y-97528095D01*
X122428095Y-145232381D02*
X122428095Y-144232381D01*
X122428095Y-144708571D02*
X122999524Y-144708571D01*
X122999524Y-145232381D02*
X122999524Y-144232381D01*
X123523333Y-145232381D02*
X123713809Y-145232381D01*
X123809048Y-145184762D01*
X123856667Y-145137143D01*
X123951905Y-144994286D01*
X123999524Y-144803810D01*
X123999524Y-144422857D01*
X123951905Y-144327619D01*
X123904286Y-144280000D01*
X123809048Y-144232381D01*
X123618571Y-144232381D01*
X123523333Y-144280000D01*
X123475714Y-144327619D01*
X123428095Y-144422857D01*
X123428095Y-144660952D01*
X123475714Y-144756190D01*
X123523333Y-144803810D01*
X123618571Y-144851429D01*
X123809048Y-144851429D01*
X123904286Y-144803810D01*
X123951905Y-144756190D01*
X123999524Y-144660952D01*
X107981905Y-145232381D02*
X107981905Y-144232381D01*
X107981905Y-144708571D02*
X108553334Y-144708571D01*
X108553334Y-145232381D02*
X108553334Y-144232381D01*
X109553334Y-145232381D02*
X108981905Y-145232381D01*
X109267619Y-145232381D02*
X109267619Y-144232381D01*
X109172381Y-144375238D01*
X109077143Y-144470476D01*
X108981905Y-144518095D01*
X110172381Y-144232381D02*
X110267620Y-144232381D01*
X110362858Y-144280000D01*
X110410477Y-144327619D01*
X110458096Y-144422857D01*
X110505715Y-144613333D01*
X110505715Y-144851429D01*
X110458096Y-145041905D01*
X110410477Y-145137143D01*
X110362858Y-145184762D01*
X110267620Y-145232381D01*
X110172381Y-145232381D01*
X110077143Y-145184762D01*
X110029524Y-145137143D01*
X109981905Y-145041905D01*
X109934286Y-144851429D01*
X109934286Y-144613333D01*
X109981905Y-144422857D01*
X110029524Y-144327619D01*
X110077143Y-144280000D01*
X110172381Y-144232381D01*
X156241905Y-166822381D02*
X156241905Y-165822381D01*
X156241905Y-166298571D02*
X156813334Y-166298571D01*
X156813334Y-166822381D02*
X156813334Y-165822381D01*
X157813334Y-166822381D02*
X157241905Y-166822381D01*
X157527619Y-166822381D02*
X157527619Y-165822381D01*
X157432381Y-165965238D01*
X157337143Y-166060476D01*
X157241905Y-166108095D01*
X158670477Y-166155714D02*
X158670477Y-166822381D01*
X158432381Y-165774762D02*
X158194286Y-166489048D01*
X158813334Y-166489048D01*
X141255905Y-166822381D02*
X141255905Y-165822381D01*
X141255905Y-166298571D02*
X141827334Y-166298571D01*
X141827334Y-166822381D02*
X141827334Y-165822381D01*
X142827334Y-166822381D02*
X142255905Y-166822381D01*
X142541619Y-166822381D02*
X142541619Y-165822381D01*
X142446381Y-165965238D01*
X142351143Y-166060476D01*
X142255905Y-166108095D01*
X143732096Y-165822381D02*
X143255905Y-165822381D01*
X143208286Y-166298571D01*
X143255905Y-166250952D01*
X143351143Y-166203333D01*
X143589239Y-166203333D01*
X143684477Y-166250952D01*
X143732096Y-166298571D01*
X143779715Y-166393810D01*
X143779715Y-166631905D01*
X143732096Y-166727143D01*
X143684477Y-166774762D01*
X143589239Y-166822381D01*
X143351143Y-166822381D01*
X143255905Y-166774762D01*
X143208286Y-166727143D01*
X118395905Y-166822381D02*
X118395905Y-165822381D01*
X118395905Y-166298571D02*
X118967334Y-166298571D01*
X118967334Y-166822381D02*
X118967334Y-165822381D01*
X119967334Y-166822381D02*
X119395905Y-166822381D01*
X119681619Y-166822381D02*
X119681619Y-165822381D01*
X119586381Y-165965238D01*
X119491143Y-166060476D01*
X119395905Y-166108095D01*
X120824477Y-165822381D02*
X120634000Y-165822381D01*
X120538762Y-165870000D01*
X120491143Y-165917619D01*
X120395905Y-166060476D01*
X120348286Y-166250952D01*
X120348286Y-166631905D01*
X120395905Y-166727143D01*
X120443524Y-166774762D01*
X120538762Y-166822381D01*
X120729239Y-166822381D01*
X120824477Y-166774762D01*
X120872096Y-166727143D01*
X120919715Y-166631905D01*
X120919715Y-166393810D01*
X120872096Y-166298571D01*
X120824477Y-166250952D01*
X120729239Y-166203333D01*
X120538762Y-166203333D01*
X120443524Y-166250952D01*
X120395905Y-166298571D01*
X120348286Y-166393810D01*
X153654286Y-89352381D02*
X153654286Y-88352381D01*
X154225715Y-89352381D01*
X154225715Y-88352381D01*
X154701905Y-88352381D02*
X154701905Y-89161905D01*
X154749524Y-89257143D01*
X154797143Y-89304762D01*
X154892381Y-89352381D01*
X155082858Y-89352381D01*
X155178096Y-89304762D01*
X155225715Y-89257143D01*
X155273334Y-89161905D01*
X155273334Y-88352381D01*
X156273334Y-89352381D02*
X155701905Y-89352381D01*
X155987619Y-89352381D02*
X155987619Y-88352381D01*
X155892381Y-88495238D01*
X155797143Y-88590476D01*
X155701905Y-88638095D01*
X156670476Y-85542381D02*
X156670476Y-84542381D01*
X157241905Y-85542381D01*
X157241905Y-84542381D01*
X157908571Y-84542381D02*
X158099048Y-84542381D01*
X158194286Y-84590000D01*
X158289524Y-84685238D01*
X158337143Y-84875714D01*
X158337143Y-85209048D01*
X158289524Y-85399524D01*
X158194286Y-85494762D01*
X158099048Y-85542381D01*
X157908571Y-85542381D01*
X157813333Y-85494762D01*
X157718095Y-85399524D01*
X157670476Y-85209048D01*
X157670476Y-84875714D01*
X157718095Y-84685238D01*
X157813333Y-84590000D01*
X157908571Y-84542381D01*
X154154286Y-85542381D02*
X154154286Y-84542381D01*
X154725715Y-85542381D01*
X154725715Y-84542381D01*
X155773334Y-85447143D02*
X155725715Y-85494762D01*
X155582858Y-85542381D01*
X155487620Y-85542381D01*
X155344762Y-85494762D01*
X155249524Y-85399524D01*
X155201905Y-85304286D01*
X155154286Y-85113810D01*
X155154286Y-84970952D01*
X155201905Y-84780476D01*
X155249524Y-84685238D01*
X155344762Y-84590000D01*
X155487620Y-84542381D01*
X155582858Y-84542381D01*
X155725715Y-84590000D01*
X155773334Y-84637619D01*
X147161429Y-82621429D02*
X147923334Y-82621429D01*
X148590000Y-82002381D02*
X148780477Y-82002381D01*
X148875715Y-82050000D01*
X148970953Y-82145238D01*
X149018572Y-82335714D01*
X149018572Y-82669048D01*
X148970953Y-82859524D01*
X148875715Y-82954762D01*
X148780477Y-83002381D01*
X148590000Y-83002381D01*
X148494762Y-82954762D01*
X148399524Y-82859524D01*
X148351905Y-82669048D01*
X148351905Y-82335714D01*
X148399524Y-82145238D01*
X148494762Y-82050000D01*
X148590000Y-82002381D01*
X149447143Y-83002381D02*
X149447143Y-82002381D01*
X150018572Y-83002381D01*
X150018572Y-82002381D01*
X147161429Y-85161429D02*
X147923334Y-85161429D01*
X147542382Y-85542381D02*
X147542382Y-84780476D01*
X148590000Y-84542381D02*
X148780477Y-84542381D01*
X148875715Y-84590000D01*
X148970953Y-84685238D01*
X149018572Y-84875714D01*
X149018572Y-85209048D01*
X148970953Y-85399524D01*
X148875715Y-85494762D01*
X148780477Y-85542381D01*
X148590000Y-85542381D01*
X148494762Y-85494762D01*
X148399524Y-85399524D01*
X148351905Y-85209048D01*
X148351905Y-84875714D01*
X148399524Y-84685238D01*
X148494762Y-84590000D01*
X148590000Y-84542381D01*
X149447143Y-85542381D02*
X149447143Y-84542381D01*
X150018572Y-85542381D01*
X150018572Y-84542381D01*
D10*
X107942381Y-155186666D02*
X107466190Y-155520000D01*
X107942381Y-155758095D02*
X106942381Y-155758095D01*
X106942381Y-155377142D01*
X106990000Y-155281904D01*
X107037619Y-155234285D01*
X107132857Y-155186666D01*
X107275714Y-155186666D01*
X107370952Y-155234285D01*
X107418571Y-155281904D01*
X107466190Y-155377142D01*
X107466190Y-155758095D01*
X107942381Y-154234285D02*
X107942381Y-154805714D01*
X107942381Y-154520000D02*
X106942381Y-154520000D01*
X107085238Y-154615238D01*
X107180476Y-154710476D01*
X107228095Y-154805714D01*
X105402381Y-155186666D02*
X104926190Y-155520000D01*
X105402381Y-155758095D02*
X104402381Y-155758095D01*
X104402381Y-155377142D01*
X104450000Y-155281904D01*
X104497619Y-155234285D01*
X104592857Y-155186666D01*
X104735714Y-155186666D01*
X104830952Y-155234285D01*
X104878571Y-155281904D01*
X104926190Y-155377142D01*
X104926190Y-155758095D01*
X104497619Y-154805714D02*
X104450000Y-154758095D01*
X104402381Y-154662857D01*
X104402381Y-154424761D01*
X104450000Y-154329523D01*
X104497619Y-154281904D01*
X104592857Y-154234285D01*
X104688095Y-154234285D01*
X104830952Y-154281904D01*
X105402381Y-154853333D01*
X105402381Y-154234285D01*
X102862381Y-155186666D02*
X102386190Y-155520000D01*
X102862381Y-155758095D02*
X101862381Y-155758095D01*
X101862381Y-155377142D01*
X101910000Y-155281904D01*
X101957619Y-155234285D01*
X102052857Y-155186666D01*
X102195714Y-155186666D01*
X102290952Y-155234285D01*
X102338571Y-155281904D01*
X102386190Y-155377142D01*
X102386190Y-155758095D01*
X101862381Y-154853333D02*
X101862381Y-154234285D01*
X102243333Y-154567619D01*
X102243333Y-154424761D01*
X102290952Y-154329523D01*
X102338571Y-154281904D01*
X102433810Y-154234285D01*
X102671905Y-154234285D01*
X102767143Y-154281904D01*
X102814762Y-154329523D01*
X102862381Y-154424761D01*
X102862381Y-154710476D01*
X102814762Y-154805714D01*
X102767143Y-154853333D01*
X147073334Y-154932381D02*
X146740000Y-154456190D01*
X146501905Y-154932381D02*
X146501905Y-153932381D01*
X146882858Y-153932381D01*
X146978096Y-153980000D01*
X147025715Y-154027619D01*
X147073334Y-154122857D01*
X147073334Y-154265714D01*
X147025715Y-154360952D01*
X146978096Y-154408571D01*
X146882858Y-154456190D01*
X146501905Y-154456190D01*
X147930477Y-154265714D02*
X147930477Y-154932381D01*
X147692381Y-153884762D02*
X147454286Y-154599048D01*
X148073334Y-154599048D01*
D11*
X113085714Y-103132381D02*
X113085714Y-102132381D01*
X113323809Y-102132381D01*
X113466667Y-102180000D01*
X113561905Y-102275238D01*
X113609524Y-102370476D01*
X113657143Y-102560952D01*
X113657143Y-102703810D01*
X113609524Y-102894286D01*
X113561905Y-102989524D01*
X113466667Y-103084762D01*
X113323809Y-103132381D01*
X113085714Y-103132381D01*
X114038095Y-103084762D02*
X114180952Y-103132381D01*
X114419048Y-103132381D01*
X114514286Y-103084762D01*
X114561905Y-103037143D01*
X114609524Y-102941905D01*
X114609524Y-102846667D01*
X114561905Y-102751429D01*
X114514286Y-102703810D01*
X114419048Y-102656190D01*
X114228571Y-102608571D01*
X114133333Y-102560952D01*
X114085714Y-102513333D01*
X114038095Y-102418095D01*
X114038095Y-102322857D01*
X114085714Y-102227619D01*
X114133333Y-102180000D01*
X114228571Y-102132381D01*
X114466667Y-102132381D01*
X114609524Y-102180000D01*
X114990476Y-102227619D02*
X115038095Y-102180000D01*
X115133333Y-102132381D01*
X115371429Y-102132381D01*
X115466667Y-102180000D01*
X115514286Y-102227619D01*
X115561905Y-102322857D01*
X115561905Y-102418095D01*
X115514286Y-102560952D01*
X114942857Y-103132381D01*
X115561905Y-103132381D01*
X142748095Y-145232381D02*
X142748095Y-144232381D01*
X142748095Y-144708571D02*
X143319524Y-144708571D01*
X143319524Y-145232381D02*
X143319524Y-144232381D01*
X143938571Y-144660952D02*
X143843333Y-144613333D01*
X143795714Y-144565714D01*
X143748095Y-144470476D01*
X143748095Y-144422857D01*
X143795714Y-144327619D01*
X143843333Y-144280000D01*
X143938571Y-144232381D01*
X144129048Y-144232381D01*
X144224286Y-144280000D01*
X144271905Y-144327619D01*
X144319524Y-144422857D01*
X144319524Y-144470476D01*
X144271905Y-144565714D01*
X144224286Y-144613333D01*
X144129048Y-144660952D01*
X143938571Y-144660952D01*
X143843333Y-144708571D01*
X143795714Y-144756190D01*
X143748095Y-144851429D01*
X143748095Y-145041905D01*
X143795714Y-145137143D01*
X143843333Y-145184762D01*
X143938571Y-145232381D01*
X144129048Y-145232381D01*
X144224286Y-145184762D01*
X144271905Y-145137143D01*
X144319524Y-145041905D01*
X144319524Y-144851429D01*
X144271905Y-144756190D01*
X144224286Y-144708571D01*
X144129048Y-144660952D01*
M02*
