M48
;DRILL file {KiCad 4.0.2+dfsg1-stable} date pe 11. elokuuta 2017 15.41.04
;FORMAT={-:-/ absolute / metric / decimal}
FMAT,2
METRIC,TZ
T1C0.900
%
G90
G05
M71
T1
X96.467Y-157.493
X96.467Y-160.033
X96.467Y-162.573
X99.642Y-157.493
X99.642Y-160.033
X99.642Y-162.573
X101.6Y-135.89
X101.6Y-138.43
X101.6Y-140.97
X101.6Y-143.51
X104.759Y-135.851
X104.759Y-138.391
X104.759Y-140.931
X104.759Y-146.011
X104.759Y-148.551
X107.245Y-156.821
X107.245Y-159.361
X107.245Y-161.901
X107.245Y-164.441
X109.839Y-135.851
X109.839Y-138.391
X109.839Y-140.931
X109.839Y-146.011
X109.839Y-148.551
X109.855Y-157.955
X109.855Y-159.755
X109.855Y-161.555
X109.855Y-163.355
X117.475Y-137.16
X118.11Y-146.05
X118.11Y-149.86
X118.11Y-160.02
X118.11Y-163.83
X120.015Y-137.16
X120.65Y-146.05
X120.65Y-149.86
X120.65Y-160.02
X120.65Y-163.83
X122.555Y-137.16
X123.19Y-146.05
X123.19Y-149.86
X123.19Y-160.02
X123.19Y-163.83
X125.095Y-137.16
X125.73Y-146.05
X125.73Y-163.83
X127.635Y-137.16
X128.27Y-163.83
X128.905Y-146.05
X130.175Y-137.16
X130.81Y-163.83
X131.445Y-146.05
X132.08Y-154.94
X132.715Y-137.16
X133.35Y-163.83
X133.985Y-146.05
X134.938Y-177.08
X134.938Y-177.08
X134.938Y-177.08
X134.938Y-177.08
X134.938Y-177.08
X134.938Y-177.08
X134.938Y-177.08
X134.938Y-177.08
X135.255Y-137.16
X135.89Y-163.83
X136.525Y-146.05
X137.477Y-177.08
X137.477Y-177.08
X137.477Y-177.08
X137.477Y-177.08
X137.477Y-177.08
X137.477Y-177.08
X137.795Y-137.16
X139.065Y-146.05
X139.065Y-163.83
X139.7Y-154.94
X140.017Y-177.08
X140.017Y-177.08
X140.017Y-177.08
X140.335Y-133.35
X140.335Y-137.16
X141.605Y-146.05
X141.605Y-163.83
X142.558Y-177.08
X142.558Y-177.08
X142.875Y-133.35
X142.875Y-137.16
X143.51Y-159.385
X144.145Y-146.05
X144.145Y-155.575
X144.145Y-163.83
X144.272Y-150.114
X145.097Y-177.08
X145.097Y-177.08
X145.415Y-133.35
X145.415Y-137.16
X146.304Y-150.114
X146.685Y-155.575
X146.685Y-163.83
X147.32Y-146.05
X147.637Y-177.08
X147.955Y-133.35
X147.955Y-137.16
X149.225Y-155.575
X149.225Y-163.83
X149.86Y-146.05
X150.495Y-133.35
X150.495Y-137.16
X151.765Y-163.83
X152.4Y-146.05
X153.035Y-133.35
X153.035Y-137.16
X153.035Y-149.225
X153.035Y-154.305
X153.67Y-159.385
X154.305Y-163.83
X155.575Y-133.35
X155.575Y-137.16
X155.575Y-146.05
X155.575Y-149.225
X155.575Y-154.305
X158.115Y-137.16
X158.115Y-146.05
X158.115Y-158.115
X158.115Y-160.655
X160.655Y-137.16
X160.655Y-146.05
X160.655Y-149.225
X160.655Y-154.305
X161.925Y-161.29
X163.195Y-137.16
X163.195Y-146.05
X163.195Y-149.225
X163.195Y-154.305
X163.195Y-158.115
X164.465Y-161.29
X165.735Y-137.16
X165.735Y-149.225
X165.735Y-154.305
X167.005Y-161.29
X168.275Y-146.05
X168.275Y-149.225
X168.275Y-154.305
X169.545Y-161.29
X170.815Y-146.05
X170.815Y-149.225
X170.815Y-154.305
T0
M30
