G04 #@! TF.GenerationSoftware,KiCad,Pcbnew,5.1.6-c6e7f7d~86~ubuntu19.10.1*
G04 #@! TF.CreationDate,2020-11-14T00:43:59+02:00*
G04 #@! TF.ProjectId,authenticator2.0,61757468-656e-4746-9963-61746f72322e,rev?*
G04 #@! TF.SameCoordinates,Original*
G04 #@! TF.FileFunction,Copper,L1,Top*
G04 #@! TF.FilePolarity,Positive*
%FSLAX46Y46*%
G04 Gerber Fmt 4.6, Leading zero omitted, Abs format (unit mm)*
G04 Created by KiCad (PCBNEW 5.1.6-c6e7f7d~86~ubuntu19.10.1) date 2020-11-14 00:43:59*
%MOMM*%
%LPD*%
G01*
G04 APERTURE LIST*
G04 #@! TA.AperFunction,ComponentPad*
%ADD10R,1.750000X1.750000*%
G04 #@! TD*
G04 #@! TA.AperFunction,ComponentPad*
%ADD11O,1.200000X1.750000*%
G04 #@! TD*
G04 #@! TA.AperFunction,ComponentPad*
%ADD12C,2.450000*%
G04 #@! TD*
G04 #@! TA.AperFunction,ComponentPad*
%ADD13C,1.750000*%
G04 #@! TD*
G04 #@! TA.AperFunction,ComponentPad*
%ADD14O,1.750000X1.200000*%
G04 #@! TD*
G04 #@! TA.AperFunction,ComponentPad*
%ADD15R,1.750000X1.200000*%
G04 #@! TD*
G04 #@! TA.AperFunction,ComponentPad*
%ADD16R,1.200000X1.750000*%
G04 #@! TD*
G04 #@! TA.AperFunction,ComponentPad*
%ADD17R,1.250000X1.750000*%
G04 #@! TD*
G04 #@! TA.AperFunction,ComponentPad*
%ADD18O,1.250000X1.750000*%
G04 #@! TD*
G04 #@! TA.AperFunction,ComponentPad*
%ADD19C,1.524000*%
G04 #@! TD*
G04 #@! TA.AperFunction,Conductor*
%ADD20C,0.500000*%
G04 #@! TD*
G04 #@! TA.AperFunction,Conductor*
%ADD21C,1.000000*%
G04 #@! TD*
G04 #@! TA.AperFunction,Conductor*
%ADD22C,2.000000*%
G04 #@! TD*
G04 #@! TA.AperFunction,Conductor*
%ADD23C,3.000000*%
G04 #@! TD*
G04 APERTURE END LIST*
D10*
X41275000Y-132715000D03*
D11*
X76200000Y-151765000D03*
X77470000Y-149225000D03*
X78740000Y-151765000D03*
X80010000Y-149225000D03*
X81280000Y-151765000D03*
X82550000Y-149225000D03*
X83820000Y-151765000D03*
X90170000Y-151765000D03*
X91440000Y-149225000D03*
X92710000Y-151765000D03*
D12*
X103065000Y-138305000D03*
X72195000Y-138305000D03*
D11*
X99060000Y-149225000D03*
X97790000Y-151765000D03*
X96520000Y-149225000D03*
X95250000Y-151765000D03*
X93980000Y-149225000D03*
D12*
X87630000Y-153115000D03*
D11*
X85090000Y-149225000D03*
D10*
X90805000Y-155575000D03*
D13*
X93345000Y-155575000D03*
X95885000Y-155575000D03*
X98425000Y-155575000D03*
X100965000Y-155575000D03*
X103505000Y-155575000D03*
X106045000Y-155575000D03*
X108585000Y-155575000D03*
X84455000Y-155575000D03*
X81915000Y-155575000D03*
X79375000Y-155575000D03*
X76835000Y-155575000D03*
X74295000Y-155575000D03*
X71755000Y-155575000D03*
X69215000Y-155575000D03*
D10*
X66675000Y-155575000D03*
D14*
X120646600Y-74125000D03*
D15*
X120646600Y-79525000D03*
D14*
X120646600Y-77725000D03*
X120646600Y-75925000D03*
D13*
X118106600Y-80635000D03*
X118106600Y-78095000D03*
X118106600Y-75555000D03*
D10*
X118106600Y-73015000D03*
X31750000Y-84455000D03*
D13*
X31750000Y-89535000D03*
X31750000Y-92075000D03*
X31750000Y-94615000D03*
X31750000Y-97155000D03*
X36830000Y-97155000D03*
X36830000Y-94615000D03*
X36830000Y-92075000D03*
X36830000Y-89535000D03*
X36830000Y-84455000D03*
X83820000Y-86995000D03*
X83820000Y-81915000D03*
X83820000Y-79375000D03*
X83820000Y-76835000D03*
X83820000Y-74295000D03*
X88900000Y-74295000D03*
X88900000Y-76835000D03*
X88900000Y-79375000D03*
X88900000Y-81915000D03*
D10*
X88900000Y-86995000D03*
D11*
X87630000Y-27940000D03*
D12*
X85090000Y-24050000D03*
D11*
X78740000Y-27940000D03*
X77470000Y-25400000D03*
X76200000Y-27940000D03*
X74930000Y-25400000D03*
X73660000Y-27940000D03*
D12*
X100525000Y-38860000D03*
X69655000Y-38860000D03*
D11*
X80010000Y-25400000D03*
X81280000Y-27940000D03*
X82550000Y-25400000D03*
X88900000Y-25400000D03*
X90170000Y-27940000D03*
X91440000Y-25400000D03*
X92710000Y-27940000D03*
X93980000Y-25400000D03*
X95250000Y-27940000D03*
X96520000Y-25400000D03*
D13*
X88900000Y-20320000D03*
D10*
X86360000Y-20320000D03*
D11*
X74295000Y-107950000D03*
D12*
X71755000Y-104060000D03*
D11*
X65405000Y-107950000D03*
X64135000Y-105410000D03*
X62865000Y-107950000D03*
X61595000Y-105410000D03*
X60325000Y-107950000D03*
D12*
X87190000Y-118870000D03*
X56320000Y-118870000D03*
D11*
X66675000Y-105410000D03*
X67945000Y-107950000D03*
X69215000Y-105410000D03*
X75565000Y-105410000D03*
X76835000Y-107950000D03*
X78105000Y-105410000D03*
X79375000Y-107950000D03*
X80645000Y-105410000D03*
X81915000Y-107950000D03*
X83185000Y-105410000D03*
D16*
X24765000Y-74295000D03*
D11*
X24765000Y-71755000D03*
X27305000Y-74295000D03*
X27305000Y-71755000D03*
X29845000Y-74295000D03*
X29845000Y-71755000D03*
X32385000Y-74295000D03*
X32385000Y-71755000D03*
X34925000Y-74295000D03*
X34925000Y-71755000D03*
X37465000Y-74295000D03*
X37465000Y-71755000D03*
X40005000Y-74295000D03*
X40005000Y-71755000D03*
X42545000Y-74295000D03*
X42545000Y-71755000D03*
X45085000Y-74295000D03*
X45085000Y-71755000D03*
X47625000Y-74295000D03*
X47625000Y-71755000D03*
X50165000Y-74295000D03*
X50165000Y-71755000D03*
X52705000Y-74295000D03*
X52705000Y-71755000D03*
X55245000Y-74295000D03*
X55245000Y-71755000D03*
X57785000Y-74295000D03*
X57785000Y-71755000D03*
X60325000Y-74295000D03*
X60325000Y-71755000D03*
X62865000Y-74295000D03*
X62865000Y-71755000D03*
X65405000Y-74295000D03*
X65405000Y-71755000D03*
X67945000Y-74295000D03*
X67945000Y-71755000D03*
X70485000Y-74295000D03*
X70485000Y-71755000D03*
X73025000Y-74295000D03*
X73025000Y-71755000D03*
D13*
X19685000Y-23150000D03*
X24765000Y-23150000D03*
X29845000Y-23150000D03*
X34925000Y-23150000D03*
D11*
X64770000Y-25400000D03*
X63500000Y-27940000D03*
X62230000Y-25400000D03*
X60960000Y-27940000D03*
X59690000Y-25400000D03*
X58420000Y-27940000D03*
X57150000Y-25400000D03*
X50800000Y-25400000D03*
X49530000Y-27940000D03*
X48260000Y-25400000D03*
D12*
X37905000Y-38860000D03*
X68775000Y-38860000D03*
D11*
X41910000Y-27940000D03*
X43180000Y-25400000D03*
X44450000Y-27940000D03*
X45720000Y-25400000D03*
X46990000Y-27940000D03*
D12*
X53340000Y-24050000D03*
D11*
X55880000Y-27940000D03*
D13*
X120640600Y-95885600D03*
X120640600Y-90805600D03*
X120640600Y-93345600D03*
X20955000Y-57150000D03*
X23495000Y-57150000D03*
X26035000Y-29210000D03*
X23495000Y-29210000D03*
X52705000Y-20320000D03*
X55245000Y-20320000D03*
X45720000Y-22860000D03*
X43180000Y-22860000D03*
X39370000Y-20320000D03*
X39370000Y-22860000D03*
X25400000Y-43815000D03*
D10*
X25400000Y-51435000D03*
D17*
X80899000Y-20320000D03*
D18*
X82931000Y-20320000D03*
D10*
X88900000Y-71755000D03*
D13*
X83820000Y-71755000D03*
X83820000Y-89535000D03*
D10*
X88900000Y-89535000D03*
D13*
X20955000Y-59690000D03*
X23495000Y-59690000D03*
X18415000Y-59690000D03*
D10*
X20320000Y-29210000D03*
D13*
X20320000Y-31750000D03*
X20320000Y-34290000D03*
X20320000Y-36830000D03*
D10*
X112395000Y-90170000D03*
D13*
X112395000Y-92710000D03*
X112395000Y-95250000D03*
X112395000Y-97790000D03*
X112395000Y-100330000D03*
X112395000Y-102870000D03*
X112395000Y-105410000D03*
D19*
X136525000Y-23495000D03*
X133985000Y-23495000D03*
X131445000Y-23495000D03*
X128905000Y-23495000D03*
X126365000Y-23495000D03*
X123825000Y-23495000D03*
X121285000Y-23495000D03*
X136525000Y-45720000D03*
X133985000Y-45720000D03*
X131445000Y-45720000D03*
X128905000Y-45720000D03*
X126365000Y-45720000D03*
X123825000Y-45720000D03*
X121285000Y-45720000D03*
D13*
X23495000Y-62865000D03*
X20955000Y-62865000D03*
D10*
X18415000Y-62865000D03*
D13*
X77470000Y-20320000D03*
X74930000Y-20320000D03*
X72390000Y-20320000D03*
X69850000Y-20320000D03*
X67310000Y-20320000D03*
X64770000Y-20320000D03*
D10*
X62230000Y-20320000D03*
X42545000Y-20320000D03*
D13*
X45085000Y-20320000D03*
X47625000Y-20320000D03*
X50165000Y-20320000D03*
X94960000Y-101600000D03*
X94960000Y-96520000D03*
X94960000Y-91440000D03*
X94960000Y-86360000D03*
D10*
X108585000Y-120650000D03*
D13*
X108585000Y-118110000D03*
X108585000Y-115570000D03*
X108585000Y-113030000D03*
X108585000Y-110490000D03*
X108585000Y-107950000D03*
X108585000Y-105410000D03*
X108585000Y-102870000D03*
X108585000Y-100330000D03*
X108585000Y-97790000D03*
X108585000Y-95250000D03*
X108585000Y-92710000D03*
X108585000Y-90170000D03*
X108585000Y-87630000D03*
X108585000Y-85090000D03*
X108585000Y-82550000D03*
X108585000Y-80010000D03*
X108585000Y-77470000D03*
X108585000Y-74930000D03*
X108585000Y-72390000D03*
D10*
X94960000Y-80645000D03*
D13*
X94960000Y-75565000D03*
D11*
X51435000Y-105410000D03*
X50165000Y-107950000D03*
X48895000Y-105410000D03*
X47625000Y-107950000D03*
X46355000Y-105410000D03*
X45085000Y-107950000D03*
X43815000Y-105410000D03*
X37465000Y-105410000D03*
X36195000Y-107950000D03*
X34925000Y-105410000D03*
D12*
X24570000Y-118870000D03*
X55440000Y-118870000D03*
D11*
X28575000Y-107950000D03*
X29845000Y-105410000D03*
X31115000Y-107950000D03*
X32385000Y-105410000D03*
X33655000Y-107950000D03*
D12*
X40005000Y-104060000D03*
D11*
X42545000Y-107950000D03*
D13*
X124180600Y-90652600D03*
X124180600Y-93192600D03*
D10*
X124180600Y-95732600D03*
D13*
X36830000Y-99695000D03*
D10*
X31750000Y-99695000D03*
X31750000Y-81915000D03*
D13*
X36830000Y-81915000D03*
X57785000Y-102235000D03*
D10*
X52705000Y-102235000D03*
D13*
X50165000Y-81915000D03*
D10*
X50165000Y-86995000D03*
D13*
X57785000Y-86995000D03*
X57785000Y-92075000D03*
X57785000Y-94615000D03*
X57785000Y-97155000D03*
X57785000Y-99695000D03*
X52705000Y-99695000D03*
X52705000Y-97155000D03*
X52705000Y-94615000D03*
X52705000Y-92075000D03*
D10*
X52705000Y-86995000D03*
D13*
X23150000Y-85725000D03*
X23150000Y-90805000D03*
X23150000Y-95885000D03*
X23150000Y-100965000D03*
D10*
X110780000Y-58420000D03*
D13*
X110780000Y-63500000D03*
D11*
X43815000Y-139065000D03*
D12*
X41275000Y-135175000D03*
D11*
X34925000Y-139065000D03*
X33655000Y-136525000D03*
X32385000Y-139065000D03*
X31115000Y-136525000D03*
X29845000Y-139065000D03*
D12*
X56710000Y-149985000D03*
X25840000Y-149985000D03*
D11*
X36195000Y-136525000D03*
X37465000Y-139065000D03*
X38735000Y-136525000D03*
X45085000Y-136525000D03*
X46355000Y-139065000D03*
X47625000Y-136525000D03*
X48895000Y-139065000D03*
X50165000Y-136525000D03*
X51435000Y-139065000D03*
X52705000Y-136525000D03*
D10*
X62230000Y-132715000D03*
D13*
X59690000Y-132715000D03*
X57150000Y-132715000D03*
X54610000Y-132715000D03*
X52070000Y-132715000D03*
X49530000Y-132715000D03*
X46990000Y-132715000D03*
X44450000Y-132715000D03*
X20320000Y-132715000D03*
X22860000Y-132715000D03*
X25400000Y-132715000D03*
X27940000Y-132715000D03*
X30480000Y-132715000D03*
X33020000Y-132715000D03*
X35560000Y-132715000D03*
D10*
X38100000Y-132715000D03*
X87630000Y-155575000D03*
D20*
X108585000Y-107947194D02*
X108585000Y-107950000D01*
X110869999Y-105662195D02*
X108585000Y-107947194D01*
X110869999Y-104395001D02*
X110869999Y-105662195D01*
X112395000Y-102870000D02*
X110869999Y-104395001D01*
X108585000Y-72390000D02*
X108585000Y-80010000D01*
X107059999Y-86104999D02*
X108585000Y-87630000D01*
X107059999Y-81535001D02*
X107059999Y-86104999D01*
X108585000Y-80010000D02*
X107059999Y-81535001D01*
X108585000Y-87630000D02*
X108585000Y-97790000D01*
X107059999Y-106424999D02*
X108585000Y-107950000D01*
X107059999Y-99315001D02*
X107059999Y-106424999D01*
X108585000Y-97790000D02*
X107059999Y-99315001D01*
X108585000Y-107950000D02*
X108585000Y-115570000D01*
X107059999Y-117095001D02*
X107059999Y-119124999D01*
X107059999Y-119124999D02*
X108585000Y-120650000D01*
X108585000Y-115570000D02*
X107059999Y-117095001D01*
D21*
X81280000Y-23059002D02*
X82931000Y-21408002D01*
X81280000Y-24130000D02*
X81280000Y-23059002D01*
X82931000Y-21408002D02*
X82931000Y-20320000D01*
D20*
X81280000Y-24130000D02*
X81280000Y-27940000D01*
X110110001Y-116584999D02*
X108585000Y-118110000D01*
X112395000Y-105410000D02*
X110110001Y-107694999D01*
X110110001Y-107694999D02*
X110110001Y-116584999D01*
D21*
X80899000Y-20320000D02*
X77470000Y-20320000D01*
X28575000Y-57150000D02*
X23495000Y-57150000D01*
X86360000Y-20320000D02*
X84584999Y-18544999D01*
X63861335Y-22095001D02*
X66814321Y-25047987D01*
X60195001Y-18544999D02*
X59690000Y-19050000D01*
X52705000Y-43815000D02*
X41910000Y-43815000D01*
X59690000Y-19050000D02*
X59690000Y-21150002D01*
X41910000Y-43815000D02*
X28575000Y-57150000D01*
X84584999Y-18544999D02*
X60195001Y-18544999D01*
X60634999Y-22095001D02*
X63861335Y-22095001D01*
X59690000Y-21150002D02*
X60634999Y-22095001D01*
X66814321Y-25047987D02*
X66814321Y-29705679D01*
X66814321Y-29705679D02*
X52705000Y-43815000D01*
X25400000Y-51435000D02*
X31750000Y-51435000D01*
X31750000Y-51435000D02*
X41275000Y-41910000D01*
X41275000Y-41910000D02*
X52070000Y-41910000D01*
X63500000Y-30480000D02*
X63500000Y-27940000D01*
X52070000Y-41910000D02*
X63500000Y-30480000D01*
D20*
X118106600Y-78095000D02*
X120276600Y-78095000D01*
X120276600Y-78095000D02*
X120646600Y-77725000D01*
D21*
X93690000Y-79375000D02*
X94960000Y-80645000D01*
X88900000Y-79375000D02*
X93690000Y-79375000D01*
X93690000Y-76835000D02*
X94960000Y-75565000D01*
X88900000Y-76835000D02*
X93690000Y-76835000D01*
X64770000Y-20320000D02*
X68580000Y-24130000D01*
X68580000Y-24130000D02*
X68580000Y-27940000D01*
X68580000Y-27940000D02*
X72390000Y-31750000D01*
X72390000Y-31750000D02*
X78105000Y-31750000D01*
X78105000Y-31750000D02*
X80010000Y-29845000D01*
D20*
X80010000Y-29845000D02*
X80010000Y-25400000D01*
X77470000Y-28712781D02*
X77470000Y-25400000D01*
D21*
X72159990Y-25169990D02*
X72159990Y-28836324D01*
D20*
X76337781Y-29845000D02*
X77470000Y-28712781D01*
D21*
X73168666Y-29845000D02*
X76200000Y-29845000D01*
X67310000Y-20320000D02*
X72159990Y-25169990D01*
X72159990Y-28836324D02*
X73168666Y-29845000D01*
D20*
X76200000Y-29845000D02*
X76337781Y-29845000D01*
D21*
X74930000Y-25400000D02*
X69850000Y-20320000D01*
D20*
X78740000Y-27940000D02*
X78740000Y-24627219D01*
D21*
X75496110Y-23426110D02*
X77538890Y-23426110D01*
X72390000Y-20320000D02*
X75496110Y-23426110D01*
D20*
X78740000Y-24627219D02*
X77538890Y-23426110D01*
D21*
X39370000Y-20320000D02*
X42545000Y-20320000D01*
X45720000Y-20955000D02*
X45085000Y-20320000D01*
X45720000Y-22860000D02*
X45720000Y-20955000D01*
X50165000Y-20320000D02*
X52705000Y-20320000D01*
X41910000Y-25400000D02*
X39370000Y-22860000D01*
X43180000Y-25400000D02*
X41910000Y-25400000D01*
X43180000Y-22860000D02*
X45720000Y-25400000D01*
X51575001Y-26175001D02*
X50800000Y-25400000D01*
X54360001Y-26175001D02*
X51575001Y-26175001D01*
X55465001Y-25070001D02*
X54360001Y-26175001D01*
X55465001Y-20540001D02*
X55465001Y-25070001D01*
X55245000Y-20320000D02*
X55465001Y-20540001D01*
D20*
X52705000Y-75076198D02*
X56636618Y-79007816D01*
X52705000Y-74295000D02*
X52705000Y-75076198D01*
X56636618Y-79007816D02*
X58044398Y-79007816D01*
X65385010Y-107930010D02*
X65405000Y-107950000D01*
X65385010Y-86348428D02*
X65385010Y-107930010D01*
X58044398Y-79007816D02*
X65385010Y-86348428D01*
X61964990Y-105040010D02*
X61595000Y-105410000D01*
X61964990Y-85474020D02*
X61964990Y-105040010D01*
X47625000Y-74295000D02*
X49605906Y-76275906D01*
X49605906Y-76275906D02*
X51359095Y-76275906D01*
X51359095Y-76275906D02*
X55891025Y-80807835D01*
X57298805Y-80807835D02*
X61964990Y-85474020D01*
X55891025Y-80807835D02*
X57298805Y-80807835D01*
X43834990Y-75087771D02*
X45848632Y-77101413D01*
X43834990Y-70962229D02*
X43834990Y-75087771D01*
X44857209Y-69940010D02*
X43834990Y-70962229D01*
X49065000Y-74295000D02*
X48875010Y-74105010D01*
X50165000Y-74295000D02*
X49065000Y-74295000D01*
X48875010Y-74105010D02*
X48875010Y-70962229D01*
X48875010Y-70962229D02*
X47852791Y-69940010D01*
X47852791Y-69940010D02*
X44857209Y-69940010D01*
X45848632Y-77101413D02*
X47885801Y-77101413D01*
X47885801Y-77101413D02*
X48889388Y-78105000D01*
X50642578Y-78105000D02*
X55145433Y-82607855D01*
X48889388Y-78105000D02*
X50642578Y-78105000D01*
X55145433Y-82607855D02*
X56553213Y-82607855D01*
X56553213Y-82607855D02*
X60059990Y-86114632D01*
X64135000Y-108722781D02*
X64135000Y-105410000D01*
X63382771Y-109475010D02*
X64135000Y-108722781D01*
X59807229Y-109475010D02*
X63382771Y-109475010D01*
X59074990Y-108742771D02*
X59807229Y-109475010D01*
X59074990Y-104117204D02*
X59074990Y-108742771D01*
X60059990Y-103132204D02*
X59074990Y-104117204D01*
X60059990Y-86114632D02*
X60059990Y-103132204D01*
X53994990Y-73044990D02*
X53994990Y-75093383D01*
X52705000Y-71755000D02*
X53994990Y-73044990D01*
X54538304Y-75636696D02*
X57009414Y-78107806D01*
X53994990Y-75093383D02*
X54538304Y-75636696D01*
X57009414Y-78107806D02*
X58417194Y-78107806D01*
X66675000Y-86365612D02*
X66675000Y-105410000D01*
X58417194Y-78107806D02*
X66675000Y-86365612D01*
X62865000Y-86995000D02*
X62865000Y-107950000D01*
X57671601Y-79907825D02*
X62865000Y-85101224D01*
X50165000Y-71755000D02*
X50165000Y-72030000D01*
X51454990Y-73319990D02*
X51454990Y-75098995D01*
X56263821Y-79907825D02*
X57671601Y-79907825D01*
X50165000Y-72030000D02*
X51454990Y-73319990D01*
X62865000Y-85101224D02*
X62865000Y-86995000D01*
X51454990Y-75098995D02*
X56263821Y-79907825D01*
D21*
X83185000Y-92075000D02*
X83185000Y-105410000D01*
X65405000Y-74295000D02*
X83185000Y-92075000D01*
X62865000Y-76403730D02*
X78105000Y-91643730D01*
X78105000Y-91643730D02*
X78105000Y-105410000D01*
X62865000Y-74295000D02*
X62865000Y-76403730D01*
X60325000Y-75843642D02*
X70485000Y-86003642D01*
X60325000Y-74295000D02*
X60325000Y-75843642D01*
X70485000Y-86003642D02*
X70485000Y-96520000D01*
X75565000Y-101600000D02*
X75565000Y-105410000D01*
X70485000Y-96520000D02*
X75565000Y-101600000D01*
X31750000Y-97155000D02*
X31750000Y-99695000D01*
X31750000Y-84455000D02*
X31750000Y-81915000D01*
X37552002Y-80010000D02*
X40640000Y-83097998D01*
X36970860Y-80010000D02*
X37552002Y-80010000D01*
X32385000Y-74295000D02*
X32385000Y-75424140D01*
X32385000Y-75424140D02*
X36970860Y-80010000D01*
X40640000Y-99695000D02*
X46355000Y-105410000D01*
X40640000Y-83097998D02*
X40640000Y-99695000D01*
D20*
X64154990Y-73502229D02*
X64154990Y-75584990D01*
X65405000Y-71755000D02*
X65405000Y-72252219D01*
X65405000Y-72252219D02*
X64154990Y-73502229D01*
D21*
X80645000Y-92075000D02*
X64452500Y-75882500D01*
X80645000Y-105410000D02*
X80645000Y-92075000D01*
D20*
X64154990Y-75584990D02*
X64452500Y-75882500D01*
X50165000Y-103505000D02*
X50165000Y-107950000D01*
D21*
X46990000Y-83508261D02*
X45345019Y-81863280D01*
X45345019Y-81863280D02*
X39525869Y-76044130D01*
D20*
X39525869Y-76044130D02*
X38754990Y-75273251D01*
D21*
X50295009Y-90935009D02*
X46990000Y-87630000D01*
D20*
X38754990Y-73044990D02*
X37465000Y-71755000D01*
X50295009Y-103374991D02*
X50165000Y-103505000D01*
X38754990Y-75273251D02*
X38754990Y-73044990D01*
D21*
X50295009Y-103374991D02*
X50295009Y-90935009D01*
X46990000Y-87630000D02*
X46990000Y-83508261D01*
D20*
X60960000Y-85741836D02*
X60960000Y-103505000D01*
X56926009Y-81707845D02*
X60960000Y-85741836D01*
X60325000Y-104140000D02*
X60325000Y-107950000D01*
X55518229Y-81707845D02*
X56926009Y-81707845D01*
X46991403Y-76201403D02*
X48258597Y-76201403D01*
X45085000Y-74295000D02*
X46991403Y-76201403D01*
X48258597Y-76201403D02*
X49233110Y-77175916D01*
X60960000Y-103505000D02*
X60325000Y-104140000D01*
X49233110Y-77175916D02*
X50986299Y-77175916D01*
X50986299Y-77175916D02*
X55518229Y-81707845D01*
X55245000Y-74295000D02*
X55595000Y-74645000D01*
X55595001Y-75420588D02*
X57274423Y-77100010D01*
X55595000Y-74645000D02*
X55595001Y-75420588D01*
X57274423Y-77100010D02*
X58682204Y-77100010D01*
X67925010Y-107930010D02*
X67945000Y-107950000D01*
X67925010Y-86342816D02*
X67925010Y-107930010D01*
X58682204Y-77100010D02*
X67925010Y-86342816D01*
X124450600Y-95885600D02*
X120640600Y-95885600D01*
X124450600Y-90805600D02*
X120640600Y-90805600D01*
X124450600Y-93345600D02*
X120640600Y-93345600D01*
X118106600Y-80635000D02*
X119536600Y-80635000D01*
X119536600Y-80635000D02*
X120646600Y-79525000D01*
X118106600Y-75555000D02*
X120276600Y-75555000D01*
X120276600Y-75555000D02*
X120646600Y-75925000D01*
X119536600Y-73015000D02*
X120646600Y-74125000D01*
X118106600Y-73015000D02*
X119536600Y-73015000D01*
D21*
X121285000Y-23495000D02*
X121285000Y-45720000D01*
X123825000Y-45720000D02*
X123825000Y-23495000D01*
X126365000Y-23495000D02*
X126365000Y-45720000D01*
X128905000Y-45720000D02*
X128905000Y-23495000D01*
X131445000Y-23495000D02*
X131445000Y-45720000D01*
X133985000Y-45720000D02*
X133985000Y-23495000D01*
X136525000Y-23495000D02*
X136525000Y-45720000D01*
D22*
X87630000Y-27940000D02*
X90170000Y-27940000D01*
X90170000Y-26670000D02*
X91440000Y-25400000D01*
X90170000Y-27940000D02*
X90170000Y-26670000D01*
X88900000Y-25400000D02*
X91440000Y-25400000D01*
X88900000Y-26670000D02*
X87630000Y-27940000D01*
X88900000Y-25400000D02*
X88900000Y-26670000D01*
D23*
X110780000Y-58420000D02*
X110780000Y-28230000D01*
X110780000Y-28230000D02*
X102870000Y-20320000D01*
X102870000Y-20320000D02*
X95250000Y-20320000D01*
D22*
X93980000Y-20320000D02*
X88900000Y-25400000D01*
X95250000Y-20320000D02*
X93980000Y-20320000D01*
D21*
X52084999Y-36815001D02*
X60960000Y-27940000D01*
X36902998Y-34290000D02*
X39427999Y-36815001D01*
X39427999Y-36815001D02*
X52084999Y-36815001D01*
X20320000Y-34290000D02*
X36902998Y-34290000D01*
D20*
X62230000Y-25400000D02*
X62230000Y-28712781D01*
D21*
X42990076Y-38215011D02*
X52727769Y-38215011D01*
X40220086Y-40985001D02*
X42990076Y-38215011D01*
X20320000Y-36830000D02*
X24475001Y-40985001D01*
X52727769Y-38215011D02*
X61028890Y-29913890D01*
X24475001Y-40985001D02*
X40220086Y-40985001D01*
D20*
X62230000Y-28712781D02*
X61028890Y-29913890D01*
X112395000Y-90170000D02*
X111010011Y-88785011D01*
X110110001Y-85342195D02*
X110110001Y-84357999D01*
X111010011Y-88785011D02*
X111010010Y-86242204D01*
X111010010Y-86242204D02*
X110110001Y-85342195D01*
X108585000Y-82832998D02*
X108585000Y-82550000D01*
X110110001Y-84357999D02*
X108585000Y-82832998D01*
X110110001Y-86615001D02*
X108585000Y-85090000D01*
X110110001Y-91662437D02*
X110110001Y-86615001D01*
X111157564Y-92710000D02*
X110110001Y-91662437D01*
X112395000Y-92710000D02*
X111157564Y-92710000D01*
X112395000Y-95250000D02*
X110869999Y-96775001D01*
X108585000Y-100327194D02*
X108585000Y-100330000D01*
X110869999Y-98042195D02*
X108585000Y-100327194D01*
X110869999Y-96775001D02*
X110869999Y-98042195D01*
X112395000Y-97790000D02*
X110869999Y-99315001D01*
X110869999Y-100582195D02*
X108585000Y-102867194D01*
X108585000Y-102867194D02*
X108585000Y-102870000D01*
X110869999Y-99315001D02*
X110869999Y-100582195D01*
X112395000Y-100330000D02*
X110869999Y-101855001D01*
X108585000Y-105407194D02*
X108585000Y-105410000D01*
X110869999Y-103122195D02*
X108585000Y-105407194D01*
X110869999Y-101855001D02*
X110869999Y-103122195D01*
D21*
X39715000Y-27940000D02*
X34925000Y-23150000D01*
X41910000Y-27940000D02*
X39715000Y-27940000D01*
D20*
X44450000Y-27940000D02*
X42924990Y-29465010D01*
X42924990Y-29465010D02*
X38355010Y-29465010D01*
D21*
X32040000Y-23150000D02*
X38100000Y-29210000D01*
X29845000Y-23150000D02*
X32040000Y-23150000D01*
D20*
X38355010Y-29465010D02*
X38100000Y-29210000D01*
X44564981Y-30365019D02*
X34803017Y-30365019D01*
X46990000Y-27940000D02*
X44564981Y-30365019D01*
D21*
X31463501Y-29848501D02*
X34286499Y-29848501D01*
X24765000Y-23150000D02*
X31463501Y-29848501D01*
D20*
X34803017Y-30365019D02*
X34286499Y-29848501D01*
D21*
X24377003Y-24925001D02*
X21460001Y-24925001D01*
X45954971Y-31515029D02*
X30967031Y-31515029D01*
X21460001Y-24925001D02*
X19685000Y-23150000D01*
X30967031Y-31515029D02*
X24377003Y-24925001D01*
X49530000Y-27940000D02*
X45954971Y-31515029D01*
X37571837Y-76070010D02*
X37652303Y-76150476D01*
X43945010Y-82443183D02*
X37571837Y-76070010D01*
X43945010Y-96650010D02*
X43945010Y-82443183D01*
X48895000Y-101600000D02*
X43945010Y-96650010D01*
D20*
X36175010Y-73005010D02*
X34925000Y-71755000D01*
X36175010Y-75047791D02*
X36175010Y-73005010D01*
X37197229Y-76070010D02*
X36175010Y-75047791D01*
X37571837Y-76070010D02*
X37197229Y-76070010D01*
X48895000Y-101600000D02*
X48895000Y-105410000D01*
X33674990Y-75087772D02*
X34787218Y-76200000D01*
X33674990Y-73319990D02*
X33674990Y-75087772D01*
X32385000Y-71755000D02*
X32385000Y-72030000D01*
X32385000Y-72030000D02*
X33674990Y-73319990D01*
X34787218Y-76200000D02*
X35560000Y-76200000D01*
X47625000Y-103505000D02*
X47625000Y-107950000D01*
D21*
X47625000Y-103505000D02*
X42545000Y-98425000D01*
X36778900Y-77418900D02*
X35560000Y-76200000D01*
X42545000Y-83023085D02*
X36940815Y-77418900D01*
X36940815Y-77418900D02*
X36778900Y-77418900D01*
X42545000Y-98425000D02*
X42545000Y-83023085D01*
X83515000Y-107950000D02*
X85090000Y-106375000D01*
X81915000Y-107950000D02*
X83515000Y-107950000D01*
X85090000Y-106375000D02*
X85090000Y-99695000D01*
X85090000Y-99695000D02*
X91440000Y-93345000D01*
X91440000Y-89880000D02*
X94960000Y-86360000D01*
X91440000Y-93345000D02*
X91440000Y-89880000D01*
X83719902Y-109725010D02*
X86490010Y-106954903D01*
X79375000Y-107950000D02*
X81150010Y-109725010D01*
X81150010Y-109725010D02*
X83719902Y-109725010D01*
X86490010Y-106954903D02*
X86490010Y-100274902D01*
X94960000Y-91804912D02*
X94960000Y-91440000D01*
X86490010Y-100274902D02*
X94960000Y-91804912D01*
X84299805Y-111125020D02*
X87890020Y-107534806D01*
X76835000Y-107950000D02*
X80010020Y-111125020D01*
X80010020Y-111125020D02*
X84299805Y-111125020D01*
X87890020Y-103589980D02*
X94960000Y-96520000D01*
X87890020Y-107534806D02*
X87890020Y-103589980D01*
X50165000Y-86995000D02*
X52705000Y-86995000D01*
X50165000Y-84542002D02*
X50165000Y-86995000D01*
X42545000Y-76922002D02*
X50165000Y-84542002D01*
X42545000Y-74295000D02*
X42545000Y-76922002D01*
X52705000Y-99695000D02*
X52705000Y-102235000D01*
D20*
X88900000Y-20700002D02*
X88900000Y-20320000D01*
X87755001Y-21845001D02*
X88900000Y-20700002D01*
X84519997Y-21845001D02*
X87755001Y-21845001D01*
X82550000Y-23814998D02*
X84519997Y-21845001D01*
X82550000Y-25400000D02*
X82550000Y-23814998D01*
X55245000Y-71755000D02*
X56495010Y-73005010D01*
X56495010Y-73005010D02*
X56495010Y-75047791D01*
X56495010Y-75047791D02*
X57647219Y-76200000D01*
X57647219Y-76200000D02*
X59055000Y-76200000D01*
X69215000Y-86360000D02*
X69215000Y-105410000D01*
X59055000Y-76200000D02*
X69215000Y-86360000D01*
D21*
X88900000Y-74295000D02*
X88900000Y-71755000D01*
D20*
X87374999Y-70229999D02*
X88900000Y-71755000D01*
X74550001Y-70229999D02*
X87374999Y-70229999D01*
X73025000Y-71755000D02*
X74550001Y-70229999D01*
D21*
X83820000Y-74295000D02*
X83820000Y-71755000D01*
X83820000Y-89535000D02*
X83820000Y-86995000D01*
X56009999Y-97919999D02*
X57785000Y-99695000D01*
X56009999Y-88770001D02*
X56009999Y-97919999D01*
X57785000Y-86995000D02*
X56009999Y-88770001D01*
X57785000Y-99695000D02*
X57785000Y-102235000D01*
X52705000Y-81915000D02*
X50165000Y-81915000D01*
X57785000Y-86995000D02*
X52705000Y-81915000D01*
X36830000Y-81915000D02*
X36830000Y-84455000D01*
X35054999Y-95379999D02*
X36830000Y-97155000D01*
X35054999Y-86230001D02*
X35054999Y-95379999D01*
X36830000Y-84455000D02*
X35054999Y-86230001D01*
X36830000Y-97155000D02*
X36830000Y-99695000D01*
X88900000Y-86995000D02*
X88900000Y-89535000D01*
D20*
X71774990Y-73319990D02*
X71774990Y-75087771D01*
X70485000Y-71755000D02*
X70485000Y-72030000D01*
X70485000Y-72030000D02*
X71774990Y-73319990D01*
D21*
X87124999Y-85219999D02*
X81907219Y-85219999D01*
X88900000Y-86995000D02*
X87124999Y-85219999D01*
X81907219Y-85219999D02*
X72956110Y-76268890D01*
D20*
X71774990Y-75087771D02*
X72956110Y-76268890D01*
D22*
X24420000Y-94615000D02*
X23150000Y-95885000D01*
X29845000Y-106680000D02*
X28575000Y-107950000D01*
X29845000Y-105410000D02*
X29845000Y-106680000D01*
X28575000Y-107950000D02*
X31115000Y-107950000D01*
X31115000Y-106680000D02*
X32385000Y-105410000D01*
X31115000Y-107950000D02*
X31115000Y-106680000D01*
X32385000Y-105410000D02*
X29845000Y-105410000D01*
X26670000Y-97187564D02*
X25367436Y-95885000D01*
X25367436Y-95885000D02*
X23150000Y-95885000D01*
X26670000Y-102235000D02*
X26670000Y-97187564D01*
X29845000Y-105410000D02*
X26670000Y-102235000D01*
X26670000Y-95885000D02*
X27940000Y-94615000D01*
X26670000Y-97187564D02*
X26670000Y-95885000D01*
X27940000Y-94615000D02*
X24420000Y-94615000D01*
X31750000Y-94615000D02*
X27940000Y-94615000D01*
X31750000Y-92075000D02*
X30512564Y-92075000D01*
X25991218Y-88566218D02*
X23150000Y-85725000D01*
X27003782Y-88566218D02*
X25991218Y-88566218D01*
X30512564Y-92075000D02*
X27003782Y-88566218D01*
D21*
X54480001Y-103830001D02*
X52900002Y-105410000D01*
X54480001Y-98930001D02*
X54480001Y-103830001D01*
X52900002Y-105410000D02*
X51435000Y-105410000D01*
X52705000Y-97155000D02*
X54480001Y-98930001D01*
D20*
X87630000Y-153115000D02*
X87630000Y-154049999D01*
D21*
X45085000Y-134620000D02*
X46990000Y-132715000D01*
X45085000Y-136525000D02*
X45085000Y-134620000D01*
X83820000Y-153670000D02*
X81915000Y-155575000D01*
X83820000Y-151765000D02*
X83820000Y-153670000D01*
X29715001Y-134490001D02*
X27940000Y-132715000D01*
X31620001Y-134490001D02*
X29715001Y-134490001D01*
X33655000Y-136525000D02*
X31620001Y-134490001D01*
X98930010Y-153540010D02*
X100965000Y-155575000D01*
X97025010Y-153540010D02*
X98930010Y-153540010D01*
X95250000Y-151765000D02*
X97025010Y-153540010D01*
X26670000Y-139065000D02*
X29845000Y-139065000D01*
X20320000Y-132715000D02*
X26670000Y-139065000D01*
X108585000Y-155487998D02*
X108585000Y-155575000D01*
X102322002Y-149225000D02*
X108585000Y-155487998D01*
X99060000Y-149225000D02*
X102322002Y-149225000D01*
X26670000Y-136525000D02*
X22860000Y-132715000D01*
X31115000Y-136525000D02*
X26670000Y-136525000D01*
X102235000Y-151765000D02*
X97790000Y-151765000D01*
X106045000Y-155575000D02*
X102235000Y-151765000D01*
X33020000Y-133350000D02*
X33020000Y-132715000D01*
X36195000Y-136525000D02*
X33020000Y-133350000D01*
X95885000Y-154940000D02*
X92710000Y-151765000D01*
X95885000Y-155575000D02*
X95885000Y-154940000D01*
D20*
X35560000Y-133847219D02*
X35560000Y-132715000D01*
X37465000Y-135752219D02*
X35560000Y-133847219D01*
X37465000Y-139065000D02*
X37465000Y-135752219D01*
X93345000Y-154442781D02*
X93345000Y-155575000D01*
X91440000Y-149225000D02*
X91440000Y-152537781D01*
X91440000Y-152537781D02*
X93345000Y-154442781D01*
D21*
X92088676Y-153540010D02*
X91570010Y-153021344D01*
X92442228Y-153540010D02*
X92088676Y-153540010D01*
X93345000Y-155575000D02*
X93345000Y-154442782D01*
X93345000Y-154442782D02*
X92442228Y-153540010D01*
X37216391Y-135150057D02*
X37334990Y-135268656D01*
X37216391Y-135006391D02*
X37216391Y-135150057D01*
X35560000Y-132715000D02*
X35560000Y-133350000D01*
X35560000Y-133350000D02*
X37216391Y-135006391D01*
X38735000Y-133350000D02*
X38100000Y-132715000D01*
X38735000Y-136525000D02*
X38735000Y-133350000D01*
X90170000Y-154940000D02*
X90170000Y-151765000D01*
X90805000Y-155575000D02*
X90170000Y-154940000D01*
X43584990Y-133580010D02*
X44450000Y-132715000D01*
X43584990Y-137421324D02*
X43584990Y-133580010D01*
X43815000Y-137651334D02*
X43584990Y-137421324D01*
X43815000Y-139065000D02*
X43815000Y-137651334D01*
X85320010Y-150868676D02*
X85320010Y-154709990D01*
X85320010Y-154709990D02*
X84455000Y-155575000D01*
X85090000Y-150638666D02*
X85320010Y-150868676D01*
X85090000Y-149225000D02*
X85090000Y-150638666D01*
D20*
X49247002Y-132715000D02*
X49530000Y-132715000D01*
X46355000Y-135607002D02*
X49247002Y-132715000D01*
X46355000Y-139065000D02*
X46355000Y-135607002D01*
X79657998Y-155575000D02*
X79375000Y-155575000D01*
X82550000Y-149225000D02*
X82550000Y-152682998D01*
X82550000Y-152682998D02*
X79657998Y-155575000D01*
D21*
X81901324Y-153540010D02*
X82419990Y-153021344D01*
X79375000Y-155575000D02*
X81409990Y-153540010D01*
X81409990Y-153540010D02*
X81901324Y-153540010D01*
X50035010Y-134749990D02*
X52070000Y-132715000D01*
X49400010Y-134749990D02*
X50035010Y-134749990D01*
X47625000Y-136525000D02*
X49400010Y-134749990D01*
X78610001Y-153799999D02*
X76835000Y-155575000D01*
X79170089Y-153799999D02*
X78610001Y-153799999D01*
X81205088Y-151765000D02*
X79170089Y-153799999D01*
X81280000Y-151765000D02*
X81205088Y-151765000D01*
X55374999Y-134490001D02*
X57150000Y-132715000D01*
X52343665Y-134490001D02*
X55374999Y-134490001D01*
X51204990Y-135628676D02*
X52343665Y-134490001D01*
X51204990Y-136120010D02*
X51204990Y-135628676D01*
X50800000Y-136525000D02*
X51204990Y-136120010D01*
X50165000Y-136525000D02*
X50800000Y-136525000D01*
X76821324Y-153540010D02*
X73789990Y-153540010D01*
X78596334Y-151765000D02*
X76821324Y-153540010D01*
X73789990Y-153540010D02*
X71755000Y-155575000D01*
X78740000Y-151765000D02*
X78596334Y-151765000D01*
X62230000Y-132802002D02*
X62230000Y-132715000D01*
X58507002Y-136525000D02*
X62230000Y-132802002D01*
X52705000Y-136525000D02*
X58507002Y-136525000D01*
X70485000Y-151765000D02*
X66675000Y-155575000D01*
X76200000Y-151765000D02*
X70485000Y-151765000D01*
D22*
X72195000Y-138305000D02*
X103065000Y-138305000D01*
X87630000Y-149931559D02*
X87630000Y-153115000D01*
X99256559Y-138305000D02*
X87630000Y-149931559D01*
X103065000Y-138305000D02*
X99256559Y-138305000D01*
X77273441Y-138305000D02*
X87630000Y-148661559D01*
X87630000Y-148661559D02*
X87630000Y-153115000D01*
X72195000Y-138305000D02*
X77273441Y-138305000D01*
X87630000Y-153115000D02*
X87630000Y-155575000D01*
X41275000Y-135175000D02*
X41275000Y-132715000D01*
X29648441Y-149985000D02*
X25840000Y-149985000D01*
X41275000Y-138358441D02*
X29648441Y-149985000D01*
X41275000Y-135175000D02*
X41275000Y-138358441D01*
X51631559Y-149985000D02*
X56710000Y-149985000D01*
X41275000Y-139628441D02*
X51631559Y-149985000D01*
X41275000Y-135175000D02*
X41275000Y-139628441D01*
X56710000Y-149985000D02*
X25840000Y-149985000D01*
M02*
