G04 #@! TF.FileFunction,Copper,L2,Bot,Signal*
%FSLAX46Y46*%
G04 Gerber Fmt 4.6, Leading zero omitted, Abs format (unit mm)*
G04 Created by KiCad (PCBNEW 4.0.2+dfsg1-stable) date ke  9. elokuuta 2017 09.38.44*
%MOMM*%
G01*
G04 APERTURE LIST*
%ADD10C,0.100000*%
%ADD11R,1.750000X1.750000*%
%ADD12C,1.750000*%
%ADD13R,1.250000X1.750000*%
%ADD14O,1.250000X1.750000*%
%ADD15O,1.750000X1.200000*%
%ADD16R,1.750000X1.200000*%
%ADD17C,0.500000*%
G04 APERTURE END LIST*
D10*
D11*
X139700000Y-133985000D03*
D12*
X142240000Y-133985000D03*
X144780000Y-133985000D03*
X147320000Y-133985000D03*
X149860000Y-133985000D03*
X152400000Y-133985000D03*
X154940000Y-133985000D03*
D11*
X165100000Y-137795000D03*
D12*
X162560000Y-137795000D03*
X160020000Y-137795000D03*
X157480000Y-137795000D03*
X154940000Y-137795000D03*
X152400000Y-137795000D03*
X149860000Y-137795000D03*
X147320000Y-137795000D03*
X144780000Y-137795000D03*
X142240000Y-137795000D03*
X139700000Y-137795000D03*
X137160000Y-137795000D03*
X134620000Y-137795000D03*
X132080000Y-137795000D03*
X129540000Y-137795000D03*
X127000000Y-137795000D03*
X124460000Y-137795000D03*
X121920000Y-137795000D03*
X119380000Y-137795000D03*
X116840000Y-137795000D03*
D11*
X139700000Y-154940000D03*
D12*
X132080000Y-154940000D03*
D13*
X146304000Y-150114000D03*
D14*
X144272000Y-150114000D03*
D11*
X110474045Y-149821480D03*
D12*
X105394045Y-149821480D03*
D11*
X170815000Y-154305000D03*
D12*
X170815000Y-149225000D03*
D11*
X153035000Y-154305000D03*
D12*
X153035000Y-149225000D03*
D11*
X155575000Y-154305000D03*
D12*
X160655000Y-154305000D03*
X163195000Y-154305000D03*
X165735000Y-154305000D03*
X168275000Y-154305000D03*
X168275000Y-149225000D03*
X165735000Y-149225000D03*
X163195000Y-149225000D03*
X160655000Y-149225000D03*
X155575000Y-149225000D03*
D11*
X102235000Y-137160000D03*
D12*
X102235000Y-139700000D03*
X102235000Y-142240000D03*
X102235000Y-144780000D03*
D11*
X101547395Y-161937765D03*
D12*
X101547395Y-159397765D03*
X101547395Y-156857765D03*
D11*
X152400000Y-146050000D03*
D12*
X149860000Y-146050000D03*
X147320000Y-146050000D03*
D11*
X128905000Y-146050000D03*
D12*
X131445000Y-146050000D03*
X133985000Y-146050000D03*
X136525000Y-146050000D03*
X139065000Y-146050000D03*
X141605000Y-146050000D03*
X144145000Y-146050000D03*
D11*
X118110000Y-146050000D03*
D12*
X120650000Y-146050000D03*
X123190000Y-146050000D03*
X125730000Y-146050000D03*
D11*
X158115000Y-159385000D03*
D12*
X160655000Y-159385000D03*
X163195000Y-159385000D03*
X165735000Y-159385000D03*
D11*
X139065000Y-163830000D03*
D12*
X141605000Y-163830000D03*
X144145000Y-163830000D03*
X146685000Y-163830000D03*
X149225000Y-163830000D03*
X151765000Y-163830000D03*
X154305000Y-163830000D03*
D11*
X118110000Y-163830000D03*
D12*
X120650000Y-163830000D03*
X123190000Y-163830000D03*
X125730000Y-163830000D03*
X128270000Y-163830000D03*
X130810000Y-163830000D03*
X133350000Y-163830000D03*
X135890000Y-163830000D03*
X123190000Y-160020000D03*
X123190000Y-149860000D03*
X120650000Y-160020000D03*
X120650000Y-149860000D03*
X118110000Y-160020000D03*
X118110000Y-149860000D03*
X153670000Y-159385000D03*
X143510000Y-159385000D03*
X146685000Y-155575000D03*
X144145000Y-155575000D03*
X149225000Y-155575000D03*
X98372394Y-159397764D03*
X98372394Y-156857764D03*
X98372394Y-161937764D03*
D11*
X107879571Y-156820660D03*
D12*
X107879571Y-159360660D03*
X107879571Y-161900660D03*
X107879571Y-164440660D03*
D15*
X110419571Y-157930660D03*
D16*
X110419571Y-163330660D03*
D15*
X110419571Y-161530660D03*
X110419571Y-159730660D03*
D11*
X110474045Y-147281481D03*
D12*
X110474045Y-142201481D03*
X110474045Y-139661481D03*
X110474045Y-137121481D03*
X105394045Y-137121481D03*
X105394045Y-139661481D03*
X105394045Y-142201481D03*
X105394045Y-147281481D03*
D17*
X170535000Y-149505000D02*
X169935000Y-149505000D01*
X169735000Y-149305000D02*
X169935000Y-149505000D01*
X169735000Y-149305000D02*
X169735000Y-149225000D01*
X170535000Y-149505000D02*
X170815000Y-149225000D01*
X168555000Y-149505000D02*
X169135000Y-149505000D01*
X169335000Y-149305000D02*
X169135000Y-149505000D01*
X169335000Y-149305000D02*
X169335000Y-149225000D01*
X168555000Y-149505000D02*
X168275000Y-149225000D01*
X139065000Y-163830000D02*
X138760000Y-163830000D01*
X139065000Y-163830000D02*
X139065000Y-163435000D01*
X139065000Y-163435000D02*
X138535000Y-162905000D01*
X138535000Y-162905000D02*
X138140000Y-162905000D01*
X139065000Y-163830000D02*
X138140000Y-162905000D01*
X138140000Y-162905000D02*
X138112500Y-162877500D01*
X132080000Y-156845000D02*
X132080000Y-156083000D01*
X138112500Y-162877500D02*
X132080000Y-156845000D01*
X131635000Y-155385000D02*
X131635000Y-155705000D01*
X132013000Y-156083000D02*
X131635000Y-155705000D01*
X132013000Y-156083000D02*
X132080000Y-156083000D01*
X131635000Y-155385000D02*
X132080000Y-154940000D01*
X154051000Y-149225000D02*
X153797000Y-149479000D01*
X153797000Y-149479000D02*
X153035000Y-149225000D01*
X154559000Y-149225000D02*
X154813000Y-149479000D01*
X154813000Y-149479000D02*
X155575000Y-149225000D01*
X152400000Y-148463000D02*
X152400000Y-149987000D01*
X152400000Y-149987000D02*
X152273000Y-149987000D01*
X152273000Y-149987000D02*
X152781000Y-149987000D01*
X152781000Y-149987000D02*
X153035000Y-149733000D01*
X153035000Y-149733000D02*
X153035000Y-149225000D01*
X152400000Y-147193000D02*
X152527000Y-147193000D01*
X152527000Y-147193000D02*
X152781000Y-146939000D01*
X139065000Y-163449000D02*
X139065000Y-163830000D01*
X138557000Y-163830000D02*
X139065000Y-163830000D01*
X132969000Y-154051000D02*
X132969000Y-154559000D01*
X132969000Y-154559000D02*
X132588000Y-154940000D01*
X132588000Y-154940000D02*
X132080000Y-154940000D01*
X132080000Y-154432000D02*
X132080000Y-154940000D01*
X138684000Y-150114000D02*
X138303000Y-150495000D01*
X138430000Y-149860000D02*
X138684000Y-150114000D01*
X138684000Y-150114000D02*
X139065000Y-150495000D01*
X139065000Y-150495000D02*
X138811000Y-150495000D01*
X141097000Y-147193000D02*
X142113000Y-147193000D01*
X141859000Y-147193000D02*
X141859000Y-146939000D01*
X142113000Y-147193000D02*
X141859000Y-147193000D01*
X144272000Y-150114000D02*
X143764000Y-150114000D01*
X143764000Y-150114000D02*
X143383000Y-150495000D01*
X143891000Y-148971000D02*
X143891000Y-149733000D01*
X143891000Y-149733000D02*
X144272000Y-150114000D01*
X149479000Y-154051000D02*
X149479000Y-155321000D01*
X149479000Y-155321000D02*
X149225000Y-155575000D01*
X141605000Y-146050000D02*
X141605000Y-146685000D01*
X141605000Y-146685000D02*
X141097000Y-147193000D01*
X141097000Y-147193000D02*
X138430000Y-149860000D01*
X138430000Y-149860000D02*
X137795000Y-150495000D01*
X141605000Y-146685000D02*
X141859000Y-146939000D01*
X141859000Y-146939000D02*
X143891000Y-148971000D01*
X143891000Y-148971000D02*
X144272000Y-149352000D01*
X144272000Y-149352000D02*
X144272000Y-150114000D01*
X132080000Y-154940000D02*
X132969000Y-154051000D01*
X132969000Y-154051000D02*
X136525000Y-150495000D01*
X136525000Y-150495000D02*
X137795000Y-150495000D01*
X137795000Y-150495000D02*
X138303000Y-150495000D01*
X138303000Y-150495000D02*
X138811000Y-150495000D01*
X138811000Y-150495000D02*
X143383000Y-150495000D01*
X143383000Y-150495000D02*
X143891000Y-150495000D01*
X143891000Y-150495000D02*
X144272000Y-150114000D01*
X132080000Y-156083000D02*
X132080000Y-154940000D01*
X123190000Y-146050000D02*
X123190000Y-145415000D01*
X123190000Y-145415000D02*
X121920000Y-144145000D01*
X141605000Y-146050000D02*
X141605000Y-145415000D01*
X141605000Y-145415000D02*
X140335000Y-144145000D01*
X146685000Y-163830000D02*
X146685000Y-164465000D01*
X146685000Y-164465000D02*
X147955000Y-165735000D01*
X170815000Y-149225000D02*
X171450000Y-149225000D01*
X171450000Y-149225000D02*
X172720000Y-147955000D01*
X151130000Y-144145000D02*
X153670000Y-144145000D01*
X142875000Y-144145000D02*
X151130000Y-144145000D01*
X151130000Y-144145000D02*
X152400000Y-145415000D01*
X140335000Y-144145000D02*
X142875000Y-144145000D01*
X142875000Y-144145000D02*
X141605000Y-145415000D01*
X124460000Y-144145000D02*
X140335000Y-144145000D01*
X121920000Y-144145000D02*
X124460000Y-144145000D01*
X124460000Y-144145000D02*
X123190000Y-145415000D01*
X137795000Y-165735000D02*
X116840000Y-165735000D01*
X116840000Y-144145000D02*
X121920000Y-144145000D01*
X116205000Y-144780000D02*
X116840000Y-144145000D01*
X116205000Y-165100000D02*
X116205000Y-144780000D01*
X116840000Y-165735000D02*
X116205000Y-165100000D01*
X139065000Y-163830000D02*
X139065000Y-164465000D01*
X139065000Y-164465000D02*
X140335000Y-165735000D01*
X140335000Y-165735000D02*
X137795000Y-165735000D01*
X137795000Y-165735000D02*
X139065000Y-164465000D01*
X145415000Y-165735000D02*
X140335000Y-165735000D01*
X147955000Y-165735000D02*
X145415000Y-165735000D01*
X145415000Y-165735000D02*
X146685000Y-164465000D01*
X172720000Y-150495000D02*
X172720000Y-165100000D01*
X172085000Y-165735000D02*
X147955000Y-165735000D01*
X172720000Y-165100000D02*
X172085000Y-165735000D01*
X172720000Y-147955000D02*
X172720000Y-150495000D01*
X153670000Y-144145000D02*
X172085000Y-144145000D01*
X172720000Y-144780000D02*
X172720000Y-147955000D01*
X172085000Y-144145000D02*
X172720000Y-144780000D01*
X152400000Y-145415000D02*
X153670000Y-144145000D01*
X172720000Y-150495000D02*
X171450000Y-149225000D01*
X152400000Y-146050000D02*
X152400000Y-147193000D01*
X152400000Y-147193000D02*
X152400000Y-148463000D01*
X152400000Y-148463000D02*
X152400000Y-148590000D01*
X152400000Y-148590000D02*
X153035000Y-149225000D01*
X153035000Y-149225000D02*
X154051000Y-149225000D01*
X154051000Y-149225000D02*
X154559000Y-149225000D01*
X154559000Y-149225000D02*
X155575000Y-149225000D01*
X149225000Y-155575000D02*
X149225000Y-154305000D01*
X149225000Y-154305000D02*
X149479000Y-154051000D01*
X149479000Y-154051000D02*
X151130000Y-152400000D01*
X151130000Y-151130000D02*
X152273000Y-149987000D01*
X151130000Y-152400000D02*
X151130000Y-151130000D01*
X152273000Y-149987000D02*
X153035000Y-149225000D01*
X152400000Y-146050000D02*
X152400000Y-145415000D01*
X170815000Y-149225000D02*
X169735000Y-149225000D01*
X169735000Y-149225000D02*
X169335000Y-149225000D01*
X169335000Y-149225000D02*
X168275000Y-149225000D01*
X102235000Y-144780000D02*
X103505000Y-146050000D01*
X103505000Y-146050000D02*
X103505000Y-150495000D01*
X103505000Y-150495000D02*
X104775000Y-151765000D01*
X104775000Y-151765000D02*
X108530525Y-151765000D01*
X108530525Y-151765000D02*
X110474045Y-149821480D01*
X110474045Y-147281481D02*
X110474045Y-149821480D01*
X102235000Y-142240000D02*
X105410000Y-145415000D01*
X105410000Y-145415000D02*
X105410000Y-147265526D01*
X105410000Y-147265526D02*
X105394045Y-147281481D01*
X105394045Y-149821480D02*
X105394045Y-147281481D01*
X147320000Y-147193000D02*
X147193000Y-147193000D01*
X147193000Y-147193000D02*
X146050000Y-146050000D01*
X146050000Y-146050000D02*
X146177000Y-146177000D01*
X146177000Y-146177000D02*
X146177000Y-146050000D01*
X145415000Y-146050000D02*
X144780000Y-146685000D01*
X141175000Y-162765000D02*
X141175000Y-163400000D01*
X141175000Y-163400000D02*
X141605000Y-163830000D01*
X143510000Y-159385000D02*
X143510000Y-158730000D01*
X143510000Y-158730000D02*
X144145000Y-158095000D01*
X144145000Y-158095000D02*
X144145000Y-158195000D01*
X143835000Y-155265000D02*
X143835000Y-154705000D01*
X144135000Y-154305000D02*
X143835000Y-154605000D01*
X143835000Y-154605000D02*
X143835000Y-154705000D01*
X144135000Y-154305000D02*
X144145000Y-154305000D01*
X143835000Y-155265000D02*
X144145000Y-155575000D01*
X143835000Y-155885000D02*
X143835000Y-156405000D01*
X144135000Y-156705000D02*
X143835000Y-156405000D01*
X144135000Y-156705000D02*
X144145000Y-156705000D01*
X143835000Y-155885000D02*
X144145000Y-155575000D01*
X147024000Y-149394000D02*
X146854000Y-149394000D01*
X146854000Y-149394000D02*
X146050000Y-148590000D01*
X147320000Y-148717000D02*
X147320000Y-149098000D01*
X147320000Y-149098000D02*
X147024000Y-149394000D01*
X147024000Y-149394000D02*
X146304000Y-150114000D01*
X147320000Y-147193000D02*
X147320000Y-148717000D01*
X144018000Y-158877000D02*
X143510000Y-159385000D01*
X145923000Y-151892000D02*
X145923000Y-151511000D01*
X145923000Y-151003000D02*
X145923000Y-151511000D01*
X145923000Y-151003000D02*
X146304000Y-150622000D01*
X145923000Y-151892000D02*
X145923000Y-151765000D01*
X145923000Y-151765000D02*
X145923000Y-151892000D01*
X146304000Y-150114000D02*
X146304000Y-150622000D01*
X146050000Y-149860000D02*
X146304000Y-150114000D01*
X144780000Y-147320000D02*
X144780000Y-146685000D01*
X144780000Y-146685000D02*
X144145000Y-146050000D01*
X144145000Y-158750000D02*
X144145000Y-159385000D01*
X144145000Y-159385000D02*
X143510000Y-159385000D01*
X144145000Y-153670000D02*
X142875000Y-152400000D01*
X145415000Y-152400000D02*
X142875000Y-152400000D01*
X142875000Y-152400000D02*
X138430000Y-152400000D01*
X138430000Y-152400000D02*
X137160000Y-153670000D01*
X137160000Y-153670000D02*
X137160000Y-158750000D01*
X137160000Y-158750000D02*
X140970000Y-162560000D01*
X140970000Y-162560000D02*
X141175000Y-162765000D01*
X141175000Y-162765000D02*
X141605000Y-163195000D01*
X141605000Y-163195000D02*
X141605000Y-163830000D01*
X144145000Y-155575000D02*
X144145000Y-156705000D01*
X144145000Y-156705000D02*
X144145000Y-157861000D01*
X144145000Y-157861000D02*
X144145000Y-158195000D01*
X144145000Y-158195000D02*
X144145000Y-158750000D01*
X144145000Y-158750000D02*
X143510000Y-159385000D01*
X146304000Y-150114000D02*
X146304000Y-151511000D01*
X144145000Y-153670000D02*
X144145000Y-154305000D01*
X144145000Y-154305000D02*
X144145000Y-155575000D01*
X146304000Y-151511000D02*
X145923000Y-151892000D01*
X145923000Y-151892000D02*
X145415000Y-152400000D01*
X145415000Y-152400000D02*
X144145000Y-153670000D01*
X144145000Y-146050000D02*
X144145000Y-146685000D01*
X144145000Y-146685000D02*
X144780000Y-147320000D01*
X144780000Y-147320000D02*
X146050000Y-148590000D01*
X146050000Y-148590000D02*
X146304000Y-148844000D01*
X146304000Y-148844000D02*
X146304000Y-150114000D01*
X147320000Y-146050000D02*
X147320000Y-147193000D01*
X144145000Y-146050000D02*
X145415000Y-146050000D01*
X145415000Y-146050000D02*
X146177000Y-146050000D01*
X146177000Y-146050000D02*
X147320000Y-146050000D01*
X101547395Y-159397765D02*
X98372395Y-159397765D01*
X98372395Y-159397765D02*
X98372394Y-159397764D01*
X98372394Y-156857764D02*
X101547394Y-156857764D01*
X101547394Y-156857764D02*
X101547395Y-156857765D01*
X101547395Y-161937765D02*
X98372395Y-161937765D01*
X98372395Y-161937765D02*
X98372394Y-161937764D01*
X162985000Y-155955000D02*
X162985000Y-154515000D01*
X162985000Y-154515000D02*
X163195000Y-154305000D01*
X161035000Y-157905000D02*
X161035000Y-159005000D01*
X161035000Y-159005000D02*
X160655000Y-159385000D01*
X160655000Y-159385000D02*
X160655000Y-158285000D01*
X163195000Y-155745000D02*
X163195000Y-154305000D01*
X160655000Y-158285000D02*
X161035000Y-157905000D01*
X161035000Y-157905000D02*
X162985000Y-155955000D01*
X162985000Y-155955000D02*
X163195000Y-155745000D01*
X165735000Y-156305000D02*
X165735000Y-155405000D01*
X165735000Y-155405000D02*
X165435000Y-155105000D01*
X165435000Y-155105000D02*
X165735000Y-154305000D01*
X165735000Y-157605000D02*
X165735000Y-158305000D01*
X165735000Y-158305000D02*
X166035000Y-158605000D01*
X166035000Y-158605000D02*
X165735000Y-159385000D01*
X165735000Y-154305000D02*
X165735000Y-156305000D01*
X165735000Y-156305000D02*
X165735000Y-157605000D01*
X165735000Y-157605000D02*
X165735000Y-159385000D01*
X123571000Y-163449000D02*
X123571000Y-162941000D01*
X123317000Y-162687000D02*
X123571000Y-162941000D01*
X123317000Y-162687000D02*
X123190000Y-162687000D01*
X123571000Y-163449000D02*
X123190000Y-163830000D01*
X122809000Y-163449000D02*
X123190000Y-163830000D01*
X123571000Y-160401000D02*
X123571000Y-160909000D01*
X123317000Y-161163000D02*
X123571000Y-160909000D01*
X123317000Y-161163000D02*
X123190000Y-161163000D01*
X123571000Y-160401000D02*
X123190000Y-160020000D01*
X122809000Y-160401000D02*
X123190000Y-160020000D01*
X123190000Y-160020000D02*
X123190000Y-161163000D01*
X123190000Y-161163000D02*
X123190000Y-162687000D01*
X123190000Y-162687000D02*
X123190000Y-163830000D01*
X121031000Y-163449000D02*
X121031000Y-162941000D01*
X120777000Y-162687000D02*
X121031000Y-162941000D01*
X120777000Y-162687000D02*
X120650000Y-162687000D01*
X121031000Y-163449000D02*
X120650000Y-163830000D01*
X120269000Y-163449000D02*
X120650000Y-163830000D01*
X121031000Y-160401000D02*
X121031000Y-160909000D01*
X120777000Y-161163000D02*
X121031000Y-160909000D01*
X120777000Y-161163000D02*
X120650000Y-161163000D01*
X121031000Y-160401000D02*
X120650000Y-160020000D01*
X120269000Y-160401000D02*
X120650000Y-160020000D01*
X120650000Y-163830000D02*
X120650000Y-162687000D01*
X120650000Y-162687000D02*
X120650000Y-161163000D01*
X120650000Y-161163000D02*
X120650000Y-160020000D01*
X118110000Y-162105000D02*
X118110000Y-162580000D01*
X118110000Y-162580000D02*
X118435000Y-162905000D01*
X117729000Y-163449000D02*
X118110000Y-163830000D01*
X118491000Y-163449000D02*
X118110000Y-163830000D01*
X118491000Y-160401000D02*
X118491000Y-160909000D01*
X118237000Y-161163000D02*
X118491000Y-160909000D01*
X118237000Y-161163000D02*
X118110000Y-161163000D01*
X118491000Y-160401000D02*
X118110000Y-160020000D01*
X117729000Y-160401000D02*
X118110000Y-160020000D01*
X118110000Y-160020000D02*
X118110000Y-161163000D01*
X118110000Y-161163000D02*
X118110000Y-162105000D01*
X118110000Y-162105000D02*
X118110000Y-162405000D01*
X118110000Y-162405000D02*
X118110000Y-162687000D01*
X118110000Y-162687000D02*
X118110000Y-163830000D01*
X105394045Y-137121481D02*
X102273519Y-137121481D01*
X102273519Y-137121481D02*
X102235000Y-137160000D01*
X102235000Y-139700000D02*
X105355526Y-139700000D01*
X105355526Y-139700000D02*
X105394045Y-139661481D01*
X162895000Y-160765000D02*
X162895000Y-159685000D01*
X162895000Y-159685000D02*
X163195000Y-159385000D01*
X158485000Y-160855000D02*
X158485000Y-159755000D01*
X158485000Y-159755000D02*
X158115000Y-159385000D01*
X163195000Y-159385000D02*
X163195000Y-160465000D01*
X158115000Y-160485000D02*
X158115000Y-159385000D01*
X159035000Y-161405000D02*
X158485000Y-160855000D01*
X158485000Y-160855000D02*
X158115000Y-160485000D01*
X162255000Y-161405000D02*
X159035000Y-161405000D01*
X163195000Y-160465000D02*
X162895000Y-160765000D01*
X162895000Y-160765000D02*
X162255000Y-161405000D01*
X139700000Y-154940000D02*
X139700000Y-155270000D01*
X139700000Y-155270000D02*
X140235000Y-155805000D01*
X140235000Y-155805000D02*
X140232000Y-155805000D01*
X140232000Y-155805000D02*
X139700000Y-156337000D01*
X143645000Y-162695000D02*
X143645000Y-163330000D01*
X143645000Y-163330000D02*
X144145000Y-163830000D01*
X139700000Y-154940000D02*
X139700000Y-155194000D01*
X139700000Y-154940000D02*
X139700000Y-156337000D01*
X139700000Y-156337000D02*
X139700000Y-158750000D01*
X139700000Y-158750000D02*
X143645000Y-162695000D01*
X143645000Y-162695000D02*
X143510000Y-162560000D01*
X143510000Y-162560000D02*
X144145000Y-163195000D01*
X144145000Y-163195000D02*
X144145000Y-163830000D01*
X168275000Y-154305000D02*
X168275000Y-154765000D01*
X168275000Y-154765000D02*
X167935000Y-155105000D01*
X167935000Y-155105000D02*
X168275000Y-154305000D01*
X168275000Y-155405000D02*
X168235000Y-155405000D01*
X168235000Y-155405000D02*
X167935000Y-155105000D01*
X167935000Y-155105000D02*
X168275000Y-154305000D01*
X170385000Y-155555000D02*
X170385000Y-154735000D01*
X170385000Y-154735000D02*
X170815000Y-154305000D01*
X170815000Y-154305000D02*
X170815000Y-155125000D01*
X170815000Y-155125000D02*
X170385000Y-155555000D01*
X170385000Y-155555000D02*
X168275000Y-157665000D01*
X168275000Y-154305000D02*
X170815000Y-154305000D01*
X154305000Y-163830000D02*
X166510000Y-163830000D01*
X168275000Y-162065000D02*
X168275000Y-157665000D01*
X168275000Y-157665000D02*
X168275000Y-155405000D01*
X168275000Y-155405000D02*
X168275000Y-154305000D01*
X166510000Y-163830000D02*
X168275000Y-162065000D01*
X152285000Y-162655000D02*
X152285000Y-163310000D01*
X152285000Y-163310000D02*
X151765000Y-163830000D01*
X153585000Y-155555000D02*
X153585000Y-154855000D01*
X153585000Y-154855000D02*
X153035000Y-154305000D01*
X156035000Y-154765000D02*
X156035000Y-155205000D01*
X155635000Y-155605000D02*
X156035000Y-155205000D01*
X155635000Y-155605000D02*
X155575000Y-155605000D01*
X156035000Y-154765000D02*
X155575000Y-154305000D01*
X155575000Y-154305000D02*
X155575000Y-154745000D01*
X155585000Y-157555000D02*
X153585000Y-155555000D01*
X153585000Y-155555000D02*
X153235000Y-155205000D01*
X153235000Y-155205000D02*
X153235000Y-154505000D01*
X153235000Y-154505000D02*
X153035000Y-154305000D01*
X153035000Y-154305000D02*
X153135000Y-154305000D01*
X153035000Y-154305000D02*
X155575000Y-154305000D01*
X151765000Y-163830000D02*
X151765000Y-163175000D01*
X151765000Y-163175000D02*
X152285000Y-162655000D01*
X152285000Y-162655000D02*
X153435000Y-161505000D01*
X153435000Y-161505000D02*
X154635000Y-161505000D01*
X154635000Y-161505000D02*
X155835000Y-160305000D01*
X155835000Y-160305000D02*
X155835000Y-157805000D01*
X155835000Y-157805000D02*
X155585000Y-157555000D01*
X155585000Y-157555000D02*
X155575000Y-157545000D01*
X155575000Y-156745000D02*
X155575000Y-155605000D01*
X155575000Y-157545000D02*
X155575000Y-156745000D01*
X155575000Y-155605000D02*
X155575000Y-154305000D01*
X147256500Y-154905000D02*
X147256500Y-156781500D01*
X150241000Y-146431000D02*
X150241000Y-146939000D01*
X150241000Y-146939000D02*
X149860000Y-147320000D01*
X150241000Y-146431000D02*
X149860000Y-146050000D01*
X149860000Y-147447000D02*
X149860000Y-147320000D01*
X149479000Y-146431000D02*
X149860000Y-146050000D01*
X147256500Y-156781500D02*
X147256500Y-156146500D01*
X147256500Y-156146500D02*
X146685000Y-155575000D01*
X147256500Y-154368500D02*
X147256500Y-154905000D01*
X147256500Y-154905000D02*
X147256500Y-155003500D01*
X147256500Y-155003500D02*
X146685000Y-155575000D01*
X149542500Y-162877500D02*
X149542500Y-163512500D01*
X149542500Y-163512500D02*
X149225000Y-163830000D01*
X152717500Y-159702500D02*
X153352500Y-159702500D01*
X153352500Y-159702500D02*
X153670000Y-159385000D01*
X149225000Y-163830000D02*
X149225000Y-158750000D01*
X153670000Y-159385000D02*
X149860000Y-159385000D01*
X149860000Y-159385000D02*
X149225000Y-158750000D01*
X149225000Y-158750000D02*
X147256500Y-156781500D01*
X147256500Y-156781500D02*
X146685000Y-156210000D01*
X146685000Y-156210000D02*
X146685000Y-155575000D01*
X149225000Y-163830000D02*
X149225000Y-163195000D01*
X149225000Y-163195000D02*
X149542500Y-162877500D01*
X149542500Y-162877500D02*
X152717500Y-159702500D01*
X152717500Y-159702500D02*
X153035000Y-159385000D01*
X153035000Y-159385000D02*
X153670000Y-159385000D01*
X149860000Y-146050000D02*
X149860000Y-147447000D01*
X149860000Y-147447000D02*
X149860000Y-151765000D01*
X149860000Y-151765000D02*
X147256500Y-154368500D01*
X147256500Y-154368500D02*
X146685000Y-154940000D01*
X128651000Y-146304000D02*
X128651000Y-146939000D01*
X128460500Y-147129500D02*
X128651000Y-146939000D01*
X128460500Y-147129500D02*
X127825500Y-147129500D01*
X128651000Y-146304000D02*
X128905000Y-146050000D01*
X125095000Y-162560000D02*
X125730000Y-163195000D01*
X125730000Y-163195000D02*
X125730000Y-163830000D01*
X125095000Y-163195000D02*
X125095000Y-163830000D01*
X125095000Y-163830000D02*
X125730000Y-163830000D01*
X128905000Y-146050000D02*
X127825500Y-147129500D01*
X127825500Y-147129500D02*
X125095000Y-149860000D01*
X125095000Y-149860000D02*
X125095000Y-162560000D01*
X125095000Y-163195000D02*
X125730000Y-163830000D01*
X125095000Y-162560000D02*
X125095000Y-163195000D01*
X130937000Y-147193000D02*
X130937000Y-146558000D01*
X130937000Y-146558000D02*
X131445000Y-146050000D01*
X127635000Y-163195000D02*
X128270000Y-163195000D01*
X128270000Y-163195000D02*
X128270000Y-163830000D01*
X127635000Y-163195000D02*
X127635000Y-163830000D01*
X127635000Y-163830000D02*
X128270000Y-163830000D01*
X131445000Y-146050000D02*
X131445000Y-146685000D01*
X131445000Y-146685000D02*
X130937000Y-147193000D01*
X130937000Y-147193000D02*
X126365000Y-151765000D01*
X126365000Y-151765000D02*
X126365000Y-161925000D01*
X126365000Y-161925000D02*
X127635000Y-163195000D01*
X127635000Y-163195000D02*
X128270000Y-163830000D01*
X133985000Y-146050000D02*
X133350000Y-146050000D01*
X133350000Y-146050000D02*
X133286500Y-146113500D01*
X133286500Y-146113500D02*
X133286500Y-146748500D01*
X133985000Y-146050000D02*
X133286500Y-146748500D01*
X127635000Y-152400000D02*
X127635000Y-160655000D01*
X127635000Y-160655000D02*
X130175000Y-163195000D01*
X133286500Y-146748500D02*
X127635000Y-152400000D01*
X130175000Y-163195000D02*
X130810000Y-163195000D01*
X130810000Y-163195000D02*
X130810000Y-163830000D01*
X130175000Y-163195000D02*
X130175000Y-163830000D01*
X130175000Y-163830000D02*
X130810000Y-163830000D01*
X130175000Y-163195000D02*
X130810000Y-163830000D01*
X136525000Y-146050000D02*
X136090000Y-146050000D01*
X136090000Y-146050000D02*
X135735000Y-146405000D01*
X135735000Y-146405000D02*
X135735000Y-146840000D01*
X136525000Y-146050000D02*
X135735000Y-146840000D01*
X135735000Y-146840000D02*
X135699500Y-146875500D01*
X135699500Y-146875500D02*
X130810000Y-151765000D01*
X128905000Y-159385000D02*
X132715000Y-163195000D01*
X128905000Y-153035000D02*
X128905000Y-159385000D01*
X130175000Y-151765000D02*
X128905000Y-153035000D01*
X130810000Y-151765000D02*
X130175000Y-151765000D01*
X132715000Y-163195000D02*
X133350000Y-163195000D01*
X133350000Y-163195000D02*
X133350000Y-163830000D01*
X132715000Y-163195000D02*
X132715000Y-163830000D01*
X132715000Y-163830000D02*
X133350000Y-163830000D01*
X132715000Y-163195000D02*
X133350000Y-163830000D01*
X138665000Y-146050000D02*
X139065000Y-146050000D01*
X138272500Y-146442500D02*
X138665000Y-146050000D01*
X138272500Y-146842500D02*
X138272500Y-146442500D01*
X138272500Y-146842500D02*
X138239500Y-146875500D01*
X139065000Y-146050000D02*
X138272500Y-146842500D01*
X132080000Y-153035000D02*
X130810000Y-153035000D01*
X130810000Y-153035000D02*
X130175000Y-153670000D01*
X130175000Y-153670000D02*
X130175000Y-158115000D01*
X130175000Y-158115000D02*
X135255000Y-163195000D01*
X138239500Y-146875500D02*
X132080000Y-153035000D01*
X135255000Y-163195000D02*
X135255000Y-163830000D01*
X135255000Y-163830000D02*
X135890000Y-163830000D01*
X135255000Y-163195000D02*
X135890000Y-163195000D01*
X135890000Y-163195000D02*
X135890000Y-163830000D01*
X135255000Y-163195000D02*
X135890000Y-163830000D01*
X118491000Y-146431000D02*
X118491000Y-146939000D01*
X118237000Y-147193000D02*
X118491000Y-146939000D01*
X118237000Y-147193000D02*
X118110000Y-147193000D01*
X118491000Y-146431000D02*
X118110000Y-146050000D01*
X117729000Y-146431000D02*
X118110000Y-146050000D01*
X118491000Y-149479000D02*
X118491000Y-148971000D01*
X118237000Y-148717000D02*
X118491000Y-148971000D01*
X118237000Y-148717000D02*
X118110000Y-148717000D01*
X118491000Y-149479000D02*
X118110000Y-149860000D01*
X117729000Y-149479000D02*
X118110000Y-149860000D01*
X118110000Y-149860000D02*
X118110000Y-148717000D01*
X118110000Y-148717000D02*
X118110000Y-147193000D01*
X118110000Y-147193000D02*
X118110000Y-146050000D01*
X121031000Y-146431000D02*
X121031000Y-146939000D01*
X120777000Y-147193000D02*
X121031000Y-146939000D01*
X120777000Y-147193000D02*
X120650000Y-147193000D01*
X121031000Y-146431000D02*
X120650000Y-146050000D01*
X120269000Y-146431000D02*
X120650000Y-146050000D01*
X121031000Y-149479000D02*
X121031000Y-148971000D01*
X120777000Y-148717000D02*
X121031000Y-148971000D01*
X120777000Y-148717000D02*
X120650000Y-148717000D01*
X121031000Y-149479000D02*
X120650000Y-149860000D01*
X120269000Y-149479000D02*
X120650000Y-149860000D01*
X120650000Y-146050000D02*
X120650000Y-147193000D01*
X120650000Y-147193000D02*
X120650000Y-148717000D01*
X120650000Y-148717000D02*
X120650000Y-149860000D01*
X123888500Y-148526500D02*
X123888500Y-149161500D01*
X123888500Y-149161500D02*
X123190000Y-149860000D01*
X125158500Y-147256500D02*
X125158500Y-146621500D01*
X125158500Y-146621500D02*
X125730000Y-146050000D01*
X123190000Y-149225000D02*
X123888500Y-148526500D01*
X123888500Y-148526500D02*
X125158500Y-147256500D01*
X125158500Y-147256500D02*
X125730000Y-146685000D01*
X125730000Y-146685000D02*
X125730000Y-146050000D01*
X107879571Y-156820660D02*
X109309571Y-156820660D01*
X109309571Y-156820660D02*
X110419571Y-157930660D01*
X107879571Y-159360660D02*
X108814660Y-159360660D01*
X109184660Y-159730660D02*
X110419571Y-159730660D01*
X108814660Y-159360660D02*
X109184660Y-159730660D01*
X107879571Y-161900660D02*
X108863340Y-161900660D01*
X109233340Y-161530660D02*
X110419571Y-161530660D01*
X108863340Y-161900660D02*
X109233340Y-161530660D01*
X107879571Y-164440660D02*
X109309571Y-164440660D01*
X109309571Y-164440660D02*
X110419571Y-163330660D01*
X142240000Y-133985000D02*
X142240000Y-134620000D01*
X142240000Y-134620000D02*
X140970000Y-135890000D01*
X140970000Y-135890000D02*
X130810000Y-135890000D01*
X130810000Y-135890000D02*
X129540000Y-137160000D01*
X129540000Y-137160000D02*
X129540000Y-137795000D01*
X144780000Y-137795000D02*
X144780000Y-133985000D01*
X147320000Y-137795000D02*
X147320000Y-133985000D01*
X149860000Y-137795000D02*
X149860000Y-133985000D01*
X160020000Y-137795000D02*
X160020000Y-138430000D01*
X160020000Y-138430000D02*
X161290000Y-139700000D01*
X163830000Y-139700000D02*
X165100000Y-138430000D01*
X161290000Y-139700000D02*
X163830000Y-139700000D01*
X165100000Y-138430000D02*
X165100000Y-137795000D01*
X157480000Y-137795000D02*
X160020000Y-137795000D01*
X154940000Y-137795000D02*
X157480000Y-137795000D01*
X152400000Y-137795000D02*
X154940000Y-137795000D01*
X142240000Y-137795000D02*
X142240000Y-138430000D01*
X142240000Y-138430000D02*
X143510000Y-139700000D01*
X151130000Y-139700000D02*
X152400000Y-138430000D01*
X143510000Y-139700000D02*
X151130000Y-139700000D01*
X152400000Y-138430000D02*
X152400000Y-137795000D01*
X139700000Y-137795000D02*
X142240000Y-137795000D01*
X137160000Y-137795000D02*
X139700000Y-137795000D01*
X134620000Y-137795000D02*
X137160000Y-137795000D01*
X132080000Y-137795000D02*
X134620000Y-137795000D01*
X124460000Y-137795000D02*
X124460000Y-138430000D01*
X124460000Y-138430000D02*
X125730000Y-139700000D01*
X130810000Y-139700000D02*
X132080000Y-138430000D01*
X125730000Y-139700000D02*
X130810000Y-139700000D01*
X132080000Y-138430000D02*
X132080000Y-137795000D01*
X121920000Y-137795000D02*
X124460000Y-137795000D01*
X119380000Y-137795000D02*
X121920000Y-137795000D01*
X116840000Y-137795000D02*
X119380000Y-137795000D01*
X152400000Y-137795000D02*
X152400000Y-133985000D01*
X154940000Y-133985000D02*
X156845000Y-135890000D01*
X161290000Y-135890000D02*
X162560000Y-137160000D01*
X156845000Y-135890000D02*
X161290000Y-135890000D01*
X162560000Y-137160000D02*
X162560000Y-137795000D01*
X127000000Y-137795000D02*
X127000000Y-137160000D01*
X127000000Y-137160000D02*
X129540000Y-134620000D01*
X129540000Y-134620000D02*
X139065000Y-134620000D01*
X139065000Y-134620000D02*
X139700000Y-133985000D01*
M02*
