%FSLAX45Y45*%
G04 Gerber Fmt 4.5, Leading zero omitted, Abs format (unit mm)*
G04 Created by KiCad (PCBNEW 4.0.7-e2-6376~58~ubuntu16.04.1) date Mon Dec 10 15:36:58 2018*
%MOMM*%
%LPD*%
G01*
G04 APERTURE LIST*
%ADD10C,0.127000*%
%ADD11C,0.150000*%
%ADD12C,0.200000*%
%ADD13C,0.300000*%
G04 APERTURE END LIST*
D10*
D11*
X24955500Y-18923000D02*
G75*
G03X24955500Y-18923000I-254000J0D01*
G01*
X24955500Y-1905000D02*
G75*
G03X24955500Y-1905000I-254000J0D01*
G01*
X2222500Y-18923000D02*
G75*
G03X2222500Y-18923000I-254000J0D01*
G01*
X2222500Y-1905000D02*
G75*
G03X2222500Y-1905000I-254000J0D01*
G01*
X1333500Y-19304000D02*
X1333500Y-1524000D01*
X1333500Y-19558000D02*
X1333500Y-19304000D01*
X1587500Y-19558000D02*
X1333500Y-19558000D01*
X25082500Y-19558000D02*
X1587500Y-19558000D01*
X25336500Y-19558000D02*
X25082500Y-19558000D01*
X25336500Y-19304000D02*
X25336500Y-19558000D01*
X25336500Y-1524000D02*
X25336500Y-19304000D01*
X25336500Y-1270000D02*
X25336500Y-1524000D01*
X25082500Y-1270000D02*
X25336500Y-1270000D01*
X1587500Y-1270000D02*
X25082500Y-1270000D01*
X1333500Y-1270000D02*
X1587500Y-1270000D01*
X1333500Y-1524000D02*
X1333500Y-1270000D01*
X7810500Y-10922000D02*
X9080500Y-10922000D01*
X3048000Y-17462500D02*
X3175000Y-17589500D01*
X3937000Y-17589500D02*
X4064000Y-17462500D01*
X4064000Y-17462500D02*
X4064000Y-16891000D01*
X4064000Y-16891000D02*
X4064000Y-16764000D01*
X6731000Y-17081500D02*
X6604000Y-16954500D01*
X6604000Y-16954500D02*
X6604000Y-16700500D01*
X5461000Y-16954500D02*
X5588000Y-16954500D01*
X5651500Y-17462500D02*
X5524500Y-17462500D01*
X5588000Y-16827500D02*
X5715000Y-16700500D01*
X5588000Y-16827500D02*
X5588000Y-16954500D01*
X2857500Y-14795500D02*
X2984500Y-14922500D01*
X2857500Y-14732000D02*
X2857500Y-14795500D01*
X2857500Y-14605000D02*
X2857500Y-14541500D01*
X3302000Y-11557000D02*
X4445000Y-11557000D01*
X7493000Y-11493500D02*
X7874000Y-11493500D01*
X7874000Y-11493500D02*
X7937500Y-11493500D01*
X7937500Y-11493500D02*
X8001000Y-11557000D01*
X8001000Y-11557000D02*
X8509000Y-11557000D01*
X8509000Y-11557000D02*
X8509000Y-12065000D01*
X6604000Y-17462500D02*
X6731000Y-17335500D01*
X6731000Y-17335500D02*
X6731000Y-17081500D01*
X3048000Y-16891000D02*
X3175000Y-16764000D01*
X2984500Y-12382500D02*
X3556000Y-12382500D01*
X5461000Y-16954500D02*
X5461000Y-17018000D01*
X5461000Y-17462500D02*
X5524500Y-17462500D01*
X6604000Y-17462500D02*
X6413500Y-17462500D01*
X3810000Y-12382500D02*
X3556000Y-12382500D01*
X6794500Y-12382500D02*
X6540500Y-12382500D01*
X3175000Y-11938000D02*
X3175000Y-12001500D01*
X3302000Y-11557000D02*
X3238500Y-11620500D01*
X3175000Y-11874500D02*
X3175000Y-11938000D01*
X2921000Y-12446000D02*
X2984500Y-12382500D01*
X2857500Y-12763500D02*
X2857500Y-12700000D01*
X5461000Y-17272000D02*
X5461000Y-17462500D01*
X5778500Y-17462500D02*
X5651500Y-17462500D01*
X2857500Y-13906500D02*
X2857500Y-13779500D01*
X3175000Y-16510000D02*
X3048000Y-16383000D01*
X4508500Y-16510000D02*
X4572000Y-16446500D01*
X3048000Y-16002000D02*
X3048000Y-15875000D01*
X3048000Y-15875000D02*
X3111500Y-15811500D01*
X3111500Y-15811500D02*
X3111500Y-15176500D01*
X8445500Y-16319500D02*
X8509000Y-16383000D01*
X8509000Y-17399000D02*
X8445500Y-17462500D01*
X8445500Y-17462500D02*
X8445500Y-17780000D01*
X8445500Y-17780000D02*
X8318500Y-17780000D01*
X8318500Y-17780000D02*
X8318500Y-18034000D01*
X7556500Y-18034000D02*
X7556500Y-17780000D01*
X7556500Y-17780000D02*
X7429500Y-17780000D01*
X7429500Y-17780000D02*
X7429500Y-17462500D01*
X7429500Y-17462500D02*
X7302500Y-17335500D01*
X7302500Y-17335500D02*
X7302500Y-17272000D01*
X7302500Y-17272000D02*
X7175500Y-17272000D01*
X7175500Y-17272000D02*
X7175500Y-16700500D01*
X7175500Y-16700500D02*
X7112000Y-16637000D01*
X7112000Y-16637000D02*
X7112000Y-16446500D01*
X3175000Y-11874500D02*
X3175000Y-11684000D01*
X3175000Y-11684000D02*
X3238500Y-11620500D01*
X2857500Y-12700000D02*
X2857500Y-12509500D01*
X2857500Y-12509500D02*
X2921000Y-12446000D01*
X5461000Y-17018000D02*
X5461000Y-17272000D01*
X3111500Y-15176500D02*
X3365500Y-15176500D01*
X3365500Y-15176500D02*
X3365500Y-14922500D01*
X3619500Y-14922500D02*
X3619500Y-15176500D01*
X3619500Y-15176500D02*
X5842000Y-15176500D01*
X5842000Y-15176500D02*
X5842000Y-14922500D01*
X6096000Y-14922500D02*
X6096000Y-15176500D01*
X6096000Y-15176500D02*
X7620000Y-15176500D01*
X8445500Y-15176500D02*
X8191500Y-15176500D01*
X8191500Y-15176500D02*
X8191500Y-14922500D01*
X7937500Y-14922500D02*
X7937500Y-15176500D01*
X7937500Y-15176500D02*
X7620000Y-15176500D01*
X3365500Y-14922500D02*
X2984500Y-14922500D01*
X3619500Y-14922500D02*
X5842000Y-14922500D01*
X6096000Y-14922500D02*
X7937500Y-14922500D01*
X8191500Y-14922500D02*
X8636000Y-14922500D01*
X5715000Y-16700500D02*
X5715000Y-16446500D01*
X5715000Y-16446500D02*
X4572000Y-16446500D01*
X5969000Y-16446500D02*
X5969000Y-16700500D01*
X5969000Y-16700500D02*
X6223000Y-16700500D01*
X6604000Y-16700500D02*
X6604000Y-16446500D01*
X6604000Y-16446500D02*
X7112000Y-16446500D01*
X6350000Y-16700500D02*
X6223000Y-16700500D01*
X6350000Y-16700500D02*
X6350000Y-16446500D01*
X6350000Y-16446500D02*
X5969000Y-16446500D01*
X6223000Y-17462500D02*
X6413500Y-17462500D01*
X3175000Y-16764000D02*
X3175000Y-16510000D01*
X3429000Y-16764000D02*
X3429000Y-16510000D01*
X4064000Y-16764000D02*
X4064000Y-16510000D01*
X4064000Y-16510000D02*
X4508500Y-16510000D01*
X3810000Y-16764000D02*
X3810000Y-16510000D01*
X3810000Y-16510000D02*
X3429000Y-16510000D01*
X3429000Y-16764000D02*
X3810000Y-16764000D01*
X2857500Y-14097000D02*
X2857500Y-13906500D01*
X2857500Y-14732000D02*
X2857500Y-14605000D01*
X6921500Y-11239500D02*
X6985000Y-11303000D01*
X6985000Y-11303000D02*
X7048500Y-11366500D01*
X7048500Y-11366500D02*
X7048500Y-11493500D01*
X7048500Y-11493500D02*
X7493000Y-11493500D01*
X6921500Y-11239500D02*
X6858000Y-11176000D01*
X5143500Y-11176000D02*
X5080000Y-11176000D01*
X5016500Y-11239500D02*
X5016500Y-11366500D01*
X5016500Y-11366500D02*
X4699000Y-11366500D01*
X4699000Y-11366500D02*
X4508500Y-11557000D01*
X4508500Y-11557000D02*
X4445000Y-11557000D01*
X5080000Y-11176000D02*
X5016500Y-11176000D01*
X5016500Y-11176000D02*
X5016500Y-11239500D01*
X3175000Y-12065000D02*
X3175000Y-12001500D01*
X3175000Y-12065000D02*
X4191000Y-12065000D01*
X4191000Y-12065000D02*
X4254500Y-12128500D01*
X4889500Y-12128500D02*
X4953000Y-12065000D01*
X4953000Y-12065000D02*
X5842000Y-12065000D01*
X8191500Y-12128500D02*
X8255000Y-12065000D01*
X8255000Y-12065000D02*
X8509000Y-12065000D01*
X7937500Y-12128500D02*
X7937500Y-12382500D01*
X7937500Y-12128500D02*
X7810500Y-12128500D01*
X7810500Y-12128500D02*
X7747000Y-12065000D01*
X7747000Y-12065000D02*
X6985000Y-12065000D01*
X6985000Y-12065000D02*
X6921500Y-12128500D01*
X6858000Y-12128500D02*
X6921500Y-12128500D01*
X6667500Y-12128500D02*
X6858000Y-12128500D01*
X6032500Y-12128500D02*
X5969000Y-12065000D01*
X5969000Y-12065000D02*
X5842000Y-12065000D01*
X6159500Y-12128500D02*
X6159500Y-12382500D01*
X6096000Y-12382500D02*
X5524500Y-12382500D01*
X6413500Y-12128500D02*
X6413500Y-12382500D01*
X4254500Y-12128500D02*
X4445000Y-12128500D01*
X4127500Y-12382500D02*
X3810000Y-12382500D01*
X4699000Y-12128500D02*
X4889500Y-12128500D01*
X4445000Y-12128500D02*
X4445000Y-12382500D01*
X8636000Y-14922500D02*
X8699500Y-14922500D01*
X8699500Y-14922500D02*
X8826500Y-14795500D01*
X8826500Y-12509500D02*
X8699500Y-12382500D01*
X8699500Y-12382500D02*
X8636000Y-12382500D01*
X4699000Y-12128500D02*
X4699000Y-12382500D01*
X4699000Y-12382500D02*
X5524500Y-12382500D01*
X4445000Y-12382500D02*
X4127500Y-12382500D01*
X6096000Y-12382500D02*
X6159500Y-12382500D01*
X6032500Y-12128500D02*
X6159500Y-12128500D01*
X6413500Y-12128500D02*
X6667500Y-12128500D01*
X6413500Y-12382500D02*
X7874000Y-12382500D01*
X8191500Y-12128500D02*
X8191500Y-12382500D01*
X7874000Y-12382500D02*
X7937500Y-12382500D01*
X8191500Y-12382500D02*
X8636000Y-12382500D01*
X9080500Y-12509500D02*
X9080500Y-10922000D01*
X9080500Y-12509500D02*
X9080500Y-12763500D01*
X9080500Y-12763500D02*
X8826500Y-12763500D01*
X8826500Y-13017500D02*
X9080500Y-13017500D01*
X9080500Y-13017500D02*
X9080500Y-13906500D01*
X9080500Y-14541500D02*
X8826500Y-14541500D01*
X9080500Y-14541500D02*
X9080500Y-15113000D01*
X8826500Y-14287500D02*
X9080500Y-14287500D01*
X9080500Y-14287500D02*
X9080500Y-13906500D01*
X5270500Y-11176000D02*
X5270500Y-10922000D01*
X5524500Y-11176000D02*
X5524500Y-10922000D01*
X6604000Y-11176000D02*
X6604000Y-10922000D01*
X6350000Y-10922000D02*
X6350000Y-11176000D01*
X2857500Y-12763500D02*
X2603500Y-12763500D01*
X2603500Y-13017500D02*
X2857500Y-13017500D01*
X2857500Y-14541500D02*
X2603500Y-14541500D01*
X2603500Y-14287500D02*
X2857500Y-14287500D01*
X2603500Y-12763500D02*
X2603500Y-10922000D01*
X2603500Y-13017500D02*
X2603500Y-14287500D01*
X3048000Y-16256000D02*
X2794000Y-16256000D01*
X2794000Y-16256000D02*
X2603500Y-16256000D01*
X2603500Y-16256000D02*
X2603500Y-16891000D01*
X3048000Y-17018000D02*
X2667000Y-17018000D01*
X2667000Y-17018000D02*
X2603500Y-17018000D01*
X2603500Y-17018000D02*
X2603500Y-16891000D01*
X3048000Y-17272000D02*
X2603500Y-17272000D01*
X2603500Y-17272000D02*
X2603500Y-17653000D01*
X3048000Y-17018000D02*
X3048000Y-16891000D01*
X3048000Y-17272000D02*
X3048000Y-17462500D01*
X3048000Y-16002000D02*
X2603500Y-16002000D01*
X2603500Y-16002000D02*
X2603500Y-14541500D01*
X3048000Y-16383000D02*
X3048000Y-16256000D01*
X2857500Y-14287500D02*
X2857500Y-14097000D01*
X2857500Y-13017500D02*
X2857500Y-13779500D01*
X5143500Y-11176000D02*
X5270500Y-11176000D01*
X5524500Y-11176000D02*
X6350000Y-11176000D01*
X6604000Y-11176000D02*
X6858000Y-11176000D01*
X5524500Y-10922000D02*
X6350000Y-10922000D01*
X2603500Y-10922000D02*
X5270500Y-10922000D01*
X6604000Y-10922000D02*
X8699500Y-10922000D01*
X9080500Y-10922000D02*
X8699500Y-10922000D01*
X8826500Y-12763500D02*
X8826500Y-12509500D01*
X8826500Y-14287500D02*
X8826500Y-13017500D01*
X8826500Y-14795500D02*
X8826500Y-14541500D01*
X7810500Y-18034000D02*
X7810500Y-18288000D01*
X8064500Y-18288000D02*
X8064500Y-18034000D01*
X7810500Y-18034000D02*
X7556500Y-18034000D01*
X8064500Y-18034000D02*
X8318500Y-18034000D01*
X5905500Y-17462500D02*
X5905500Y-17653000D01*
X6159500Y-17462500D02*
X6159500Y-17653000D01*
X6159500Y-17653000D02*
X6159500Y-17716500D01*
X5905500Y-17716500D02*
X5905500Y-17653000D01*
X3429000Y-17589500D02*
X3429000Y-17843500D01*
X3683000Y-17589500D02*
X3683000Y-17843500D01*
X3175000Y-17589500D02*
X3429000Y-17589500D01*
X3683000Y-17589500D02*
X3937000Y-17589500D01*
X7302500Y-18288000D02*
X6731000Y-17716500D01*
X6731000Y-17716500D02*
X6159500Y-17716500D01*
X7302500Y-18288000D02*
X7810500Y-18288000D01*
X3683000Y-17843500D02*
X4889500Y-17843500D01*
X5905500Y-17716500D02*
X5016500Y-17716500D01*
X5016500Y-17716500D02*
X4889500Y-17843500D01*
X3429000Y-17843500D02*
X2603500Y-17843500D01*
X2603500Y-17843500D02*
X2603500Y-17653000D01*
X6223000Y-17462500D02*
X6159500Y-17462500D01*
X5905500Y-17462500D02*
X5778500Y-17462500D01*
X8509000Y-17145000D02*
X8763000Y-17145000D01*
X8763000Y-16891000D02*
X8509000Y-16891000D01*
X8509000Y-16891000D02*
X8509000Y-16383000D01*
X8509000Y-17145000D02*
X8509000Y-17399000D01*
X8064500Y-18288000D02*
X8763000Y-18288000D01*
X8763000Y-18288000D02*
X8763000Y-17145000D01*
X8445500Y-15430500D02*
X8763000Y-15430500D01*
X8763000Y-15430500D02*
X9080500Y-15113000D01*
X8445500Y-15684500D02*
X8763000Y-15684500D01*
X8445500Y-15684500D02*
X8445500Y-16319500D01*
X8445500Y-15430500D02*
X8445500Y-15176500D01*
X8763000Y-15684500D02*
X8763000Y-16891000D01*
X10096500Y-10922000D02*
X10096500Y-11176000D01*
X16256000Y-15684500D02*
X16256000Y-16891000D01*
X15938500Y-15430500D02*
X15938500Y-15176500D01*
X15938500Y-15684500D02*
X15938500Y-16319500D01*
X15938500Y-15684500D02*
X16256000Y-15684500D01*
X16256000Y-15430500D02*
X16573500Y-15113000D01*
X15938500Y-15430500D02*
X16256000Y-15430500D01*
X16256000Y-18288000D02*
X16256000Y-17145000D01*
X15557500Y-18288000D02*
X16256000Y-18288000D01*
X16002000Y-17145000D02*
X16002000Y-17399000D01*
X16002000Y-16891000D02*
X16002000Y-16383000D01*
X16256000Y-16891000D02*
X16002000Y-16891000D01*
X16002000Y-17145000D02*
X16256000Y-17145000D01*
X13398500Y-17462500D02*
X13271500Y-17462500D01*
X13716000Y-17462500D02*
X13652500Y-17462500D01*
X10096500Y-17843500D02*
X10096500Y-17653000D01*
X10922000Y-17843500D02*
X10096500Y-17843500D01*
X12509500Y-17716500D02*
X12382500Y-17843500D01*
X13398500Y-17716500D02*
X12509500Y-17716500D01*
X11176000Y-17843500D02*
X12382500Y-17843500D01*
X14795500Y-18288000D02*
X15303500Y-18288000D01*
X14224000Y-17716500D02*
X13652500Y-17716500D01*
X14795500Y-18288000D02*
X14224000Y-17716500D01*
X11176000Y-17589500D02*
X11430000Y-17589500D01*
X10668000Y-17589500D02*
X10922000Y-17589500D01*
X11176000Y-17589500D02*
X11176000Y-17843500D01*
X10922000Y-17589500D02*
X10922000Y-17843500D01*
X13398500Y-17716500D02*
X13398500Y-17653000D01*
X13652500Y-17653000D02*
X13652500Y-17716500D01*
X13652500Y-17462500D02*
X13652500Y-17653000D01*
X13398500Y-17462500D02*
X13398500Y-17653000D01*
X15557500Y-18034000D02*
X15811500Y-18034000D01*
X15303500Y-18034000D02*
X15049500Y-18034000D01*
X15557500Y-18288000D02*
X15557500Y-18034000D01*
X15303500Y-18034000D02*
X15303500Y-18288000D01*
X16319500Y-14795500D02*
X16319500Y-14541500D01*
X16319500Y-14287500D02*
X16319500Y-13017500D01*
X16319500Y-12763500D02*
X16319500Y-12509500D01*
X16573500Y-10922000D02*
X16192500Y-10922000D01*
X14097000Y-10922000D02*
X16192500Y-10922000D01*
X10096500Y-10922000D02*
X12763500Y-10922000D01*
X13017500Y-10922000D02*
X13843000Y-10922000D01*
X14097000Y-11176000D02*
X14351000Y-11176000D01*
X13017500Y-11176000D02*
X13843000Y-11176000D01*
X12636500Y-11176000D02*
X12763500Y-11176000D01*
X10350500Y-13017500D02*
X10350500Y-13779500D01*
X10350500Y-14287500D02*
X10350500Y-14097000D01*
X10541000Y-16383000D02*
X10541000Y-16256000D01*
X10096500Y-16002000D02*
X10096500Y-14541500D01*
X10541000Y-16002000D02*
X10096500Y-16002000D01*
X10541000Y-17272000D02*
X10541000Y-17462500D01*
X10541000Y-17018000D02*
X10541000Y-16891000D01*
X10096500Y-17272000D02*
X10096500Y-17653000D01*
X10541000Y-17272000D02*
X10096500Y-17272000D01*
X10096500Y-17018000D02*
X10096500Y-16891000D01*
X10160000Y-17018000D02*
X10096500Y-17018000D01*
X10541000Y-17018000D02*
X10160000Y-17018000D01*
X10096500Y-16256000D02*
X10096500Y-16891000D01*
X10287000Y-16256000D02*
X10096500Y-16256000D01*
X10541000Y-16256000D02*
X10287000Y-16256000D01*
X10096500Y-13017500D02*
X10096500Y-14287500D01*
X10096500Y-12763500D02*
X10096500Y-10922000D01*
X10096500Y-14287500D02*
X10350500Y-14287500D01*
X10350500Y-14541500D02*
X10096500Y-14541500D01*
X10096500Y-13017500D02*
X10350500Y-13017500D01*
X10350500Y-12763500D02*
X10096500Y-12763500D01*
X13843000Y-10922000D02*
X13843000Y-11176000D01*
X14097000Y-11176000D02*
X14097000Y-10922000D01*
X13017500Y-11176000D02*
X13017500Y-10922000D01*
X12763500Y-11176000D02*
X12763500Y-10922000D01*
X16573500Y-14287500D02*
X16573500Y-13906500D01*
X16319500Y-14287500D02*
X16573500Y-14287500D01*
X16573500Y-14541500D02*
X16573500Y-15113000D01*
X16573500Y-14541500D02*
X16319500Y-14541500D01*
X16573500Y-13017500D02*
X16573500Y-13906500D01*
X16319500Y-13017500D02*
X16573500Y-13017500D01*
X16573500Y-12763500D02*
X16319500Y-12763500D01*
X16573500Y-12509500D02*
X16573500Y-12763500D01*
X16573500Y-12509500D02*
X16573500Y-10922000D01*
X15684500Y-12382500D02*
X16129000Y-12382500D01*
X15367000Y-12382500D02*
X15430500Y-12382500D01*
X15684500Y-12128500D02*
X15684500Y-12382500D01*
X13906500Y-12382500D02*
X15367000Y-12382500D01*
X13906500Y-12128500D02*
X14160500Y-12128500D01*
X13525500Y-12128500D02*
X13652500Y-12128500D01*
X13589000Y-12382500D02*
X13652500Y-12382500D01*
X11938000Y-12382500D02*
X11620500Y-12382500D01*
X12192000Y-12382500D02*
X13017500Y-12382500D01*
X12192000Y-12128500D02*
X12192000Y-12382500D01*
X16192500Y-12382500D02*
X16129000Y-12382500D01*
X16319500Y-12509500D02*
X16192500Y-12382500D01*
X16192500Y-14922500D02*
X16319500Y-14795500D01*
X16129000Y-14922500D02*
X16192500Y-14922500D01*
X11938000Y-12128500D02*
X11938000Y-12382500D01*
X12192000Y-12128500D02*
X12382500Y-12128500D01*
X11620500Y-12382500D02*
X11303000Y-12382500D01*
X11747500Y-12128500D02*
X11938000Y-12128500D01*
X13906500Y-12128500D02*
X13906500Y-12382500D01*
X13589000Y-12382500D02*
X13017500Y-12382500D01*
X13652500Y-12128500D02*
X13652500Y-12382500D01*
X13462000Y-12065000D02*
X13335000Y-12065000D01*
X13525500Y-12128500D02*
X13462000Y-12065000D01*
X14160500Y-12128500D02*
X14351000Y-12128500D01*
X14351000Y-12128500D02*
X14414500Y-12128500D01*
X14478000Y-12065000D02*
X14414500Y-12128500D01*
X15240000Y-12065000D02*
X14478000Y-12065000D01*
X15303500Y-12128500D02*
X15240000Y-12065000D01*
X15430500Y-12128500D02*
X15303500Y-12128500D01*
X15430500Y-12128500D02*
X15430500Y-12382500D01*
X15748000Y-12065000D02*
X16002000Y-12065000D01*
X15684500Y-12128500D02*
X15748000Y-12065000D01*
X12446000Y-12065000D02*
X13335000Y-12065000D01*
X12382500Y-12128500D02*
X12446000Y-12065000D01*
X11684000Y-12065000D02*
X11747500Y-12128500D01*
X10668000Y-12065000D02*
X11684000Y-12065000D01*
X10668000Y-12065000D02*
X10668000Y-12001500D01*
X12509500Y-11176000D02*
X12509500Y-11239500D01*
X12573000Y-11176000D02*
X12509500Y-11176000D01*
X12001500Y-11557000D02*
X11938000Y-11557000D01*
X12192000Y-11366500D02*
X12001500Y-11557000D01*
X12509500Y-11366500D02*
X12192000Y-11366500D01*
X12509500Y-11239500D02*
X12509500Y-11366500D01*
X12636500Y-11176000D02*
X12573000Y-11176000D01*
X14414500Y-11239500D02*
X14351000Y-11176000D01*
X14541500Y-11493500D02*
X14986000Y-11493500D01*
X14541500Y-11366500D02*
X14541500Y-11493500D01*
X14478000Y-11303000D02*
X14541500Y-11366500D01*
X14414500Y-11239500D02*
X14478000Y-11303000D01*
X10350500Y-14732000D02*
X10350500Y-14605000D01*
X10350500Y-14097000D02*
X10350500Y-13906500D01*
X10922000Y-16764000D02*
X11303000Y-16764000D01*
X11303000Y-16510000D02*
X10922000Y-16510000D01*
X11303000Y-16764000D02*
X11303000Y-16510000D01*
X11557000Y-16510000D02*
X12001500Y-16510000D01*
X11557000Y-16764000D02*
X11557000Y-16510000D01*
X10922000Y-16764000D02*
X10922000Y-16510000D01*
X10668000Y-16764000D02*
X10668000Y-16510000D01*
X13716000Y-17462500D02*
X13906500Y-17462500D01*
X13843000Y-16446500D02*
X13462000Y-16446500D01*
X13843000Y-16700500D02*
X13843000Y-16446500D01*
X13843000Y-16700500D02*
X13716000Y-16700500D01*
X14097000Y-16446500D02*
X14605000Y-16446500D01*
X14097000Y-16700500D02*
X14097000Y-16446500D01*
X13462000Y-16700500D02*
X13716000Y-16700500D01*
X13462000Y-16446500D02*
X13462000Y-16700500D01*
X13208000Y-16446500D02*
X12065000Y-16446500D01*
X13208000Y-16700500D02*
X13208000Y-16446500D01*
X15684500Y-14922500D02*
X16129000Y-14922500D01*
X13589000Y-14922500D02*
X15430500Y-14922500D01*
X11112500Y-14922500D02*
X13335000Y-14922500D01*
X10858500Y-14922500D02*
X10477500Y-14922500D01*
X15430500Y-15176500D02*
X15113000Y-15176500D01*
X15430500Y-14922500D02*
X15430500Y-15176500D01*
X15684500Y-15176500D02*
X15684500Y-14922500D01*
X15938500Y-15176500D02*
X15684500Y-15176500D01*
X13589000Y-15176500D02*
X15113000Y-15176500D01*
X13589000Y-14922500D02*
X13589000Y-15176500D01*
X13335000Y-15176500D02*
X13335000Y-14922500D01*
X11112500Y-15176500D02*
X13335000Y-15176500D01*
X11112500Y-14922500D02*
X11112500Y-15176500D01*
X10858500Y-15176500D02*
X10858500Y-14922500D01*
X10604500Y-15176500D02*
X10858500Y-15176500D01*
X12954000Y-17018000D02*
X12954000Y-17272000D01*
X10350500Y-12509500D02*
X10414000Y-12446000D01*
X10350500Y-12700000D02*
X10350500Y-12509500D01*
X10668000Y-11684000D02*
X10731500Y-11620500D01*
X10668000Y-11874500D02*
X10668000Y-11684000D01*
X14605000Y-16637000D02*
X14605000Y-16446500D01*
X14668500Y-16700500D02*
X14605000Y-16637000D01*
X14668500Y-17272000D02*
X14668500Y-16700500D01*
X14795500Y-17272000D02*
X14668500Y-17272000D01*
X14795500Y-17335500D02*
X14795500Y-17272000D01*
X14922500Y-17462500D02*
X14795500Y-17335500D01*
X14922500Y-17780000D02*
X14922500Y-17462500D01*
X15049500Y-17780000D02*
X14922500Y-17780000D01*
X15049500Y-18034000D02*
X15049500Y-17780000D01*
X15811500Y-17780000D02*
X15811500Y-18034000D01*
X15938500Y-17780000D02*
X15811500Y-17780000D01*
X15938500Y-17462500D02*
X15938500Y-17780000D01*
X16002000Y-17399000D02*
X15938500Y-17462500D01*
X15938500Y-16319500D02*
X16002000Y-16383000D01*
X10604500Y-15811500D02*
X10604500Y-15176500D01*
X10541000Y-15875000D02*
X10604500Y-15811500D01*
X10541000Y-16002000D02*
X10541000Y-15875000D01*
X12001500Y-16510000D02*
X12065000Y-16446500D01*
X10668000Y-16510000D02*
X10541000Y-16383000D01*
X10350500Y-13906500D02*
X10350500Y-13779500D01*
X13271500Y-17462500D02*
X13144500Y-17462500D01*
X12954000Y-17272000D02*
X12954000Y-17462500D01*
X10350500Y-12763500D02*
X10350500Y-12700000D01*
X10414000Y-12446000D02*
X10477500Y-12382500D01*
X10668000Y-11874500D02*
X10668000Y-11938000D01*
X10795000Y-11557000D02*
X10731500Y-11620500D01*
X10668000Y-11938000D02*
X10668000Y-12001500D01*
X14287500Y-12382500D02*
X14033500Y-12382500D01*
X11303000Y-12382500D02*
X11049000Y-12382500D01*
X14097000Y-17462500D02*
X13906500Y-17462500D01*
X12954000Y-17462500D02*
X13017500Y-17462500D01*
X12954000Y-16954500D02*
X12954000Y-17018000D01*
X10477500Y-12382500D02*
X11049000Y-12382500D01*
X10541000Y-16891000D02*
X10668000Y-16764000D01*
X14224000Y-17335500D02*
X14224000Y-17081500D01*
X14097000Y-17462500D02*
X14224000Y-17335500D01*
X16002000Y-11557000D02*
X16002000Y-12065000D01*
X15494000Y-11557000D02*
X16002000Y-11557000D01*
X15430500Y-11493500D02*
X15494000Y-11557000D01*
X15367000Y-11493500D02*
X15430500Y-11493500D01*
X14986000Y-11493500D02*
X15367000Y-11493500D01*
X10795000Y-11557000D02*
X11938000Y-11557000D01*
X10350500Y-14605000D02*
X10350500Y-14541500D01*
X10350500Y-14732000D02*
X10350500Y-14795500D01*
X10350500Y-14795500D02*
X10477500Y-14922500D01*
X13081000Y-16827500D02*
X13081000Y-16954500D01*
X13081000Y-16827500D02*
X13208000Y-16700500D01*
X13144500Y-17462500D02*
X13017500Y-17462500D01*
X12954000Y-16954500D02*
X13081000Y-16954500D01*
X14097000Y-16954500D02*
X14097000Y-16700500D01*
X14224000Y-17081500D02*
X14097000Y-16954500D01*
X11557000Y-16891000D02*
X11557000Y-16764000D01*
X11557000Y-17462500D02*
X11557000Y-16891000D01*
X11430000Y-17589500D02*
X11557000Y-17462500D01*
X10541000Y-17462500D02*
X10668000Y-17589500D01*
X23749000Y-15684500D02*
X23749000Y-16891000D01*
X23431500Y-15430500D02*
X23431500Y-15176500D01*
X23431500Y-15684500D02*
X23431500Y-16319500D01*
X23431500Y-15684500D02*
X23749000Y-15684500D01*
X23749000Y-15430500D02*
X24066500Y-15113000D01*
X23431500Y-15430500D02*
X23749000Y-15430500D01*
X23749000Y-18288000D02*
X23749000Y-17145000D01*
X23050500Y-18288000D02*
X23749000Y-18288000D01*
X23495000Y-17145000D02*
X23495000Y-17399000D01*
X23495000Y-16891000D02*
X23495000Y-16383000D01*
X23749000Y-16891000D02*
X23495000Y-16891000D01*
X23495000Y-17145000D02*
X23749000Y-17145000D01*
X20891500Y-17462500D02*
X20764500Y-17462500D01*
X21209000Y-17462500D02*
X21145500Y-17462500D01*
X17589500Y-17843500D02*
X17589500Y-17653000D01*
X18415000Y-17843500D02*
X17589500Y-17843500D01*
X20002500Y-17716500D02*
X19875500Y-17843500D01*
X20891500Y-17716500D02*
X20002500Y-17716500D01*
X18669000Y-17843500D02*
X19875500Y-17843500D01*
X22288500Y-18288000D02*
X22796500Y-18288000D01*
X21717000Y-17716500D02*
X21145500Y-17716500D01*
X22288500Y-18288000D02*
X21717000Y-17716500D01*
X18669000Y-17589500D02*
X18923000Y-17589500D01*
X18161000Y-17589500D02*
X18415000Y-17589500D01*
X18669000Y-17589500D02*
X18669000Y-17843500D01*
X18415000Y-17589500D02*
X18415000Y-17843500D01*
X20891500Y-17716500D02*
X20891500Y-17653000D01*
X21145500Y-17653000D02*
X21145500Y-17716500D01*
X21145500Y-17462500D02*
X21145500Y-17653000D01*
X20891500Y-17462500D02*
X20891500Y-17653000D01*
X23050500Y-18034000D02*
X23304500Y-18034000D01*
X22796500Y-18034000D02*
X22542500Y-18034000D01*
X23050500Y-18288000D02*
X23050500Y-18034000D01*
X22796500Y-18034000D02*
X22796500Y-18288000D01*
X23812500Y-14795500D02*
X23812500Y-14541500D01*
X23812500Y-14287500D02*
X23812500Y-13017500D01*
X23812500Y-12763500D02*
X23812500Y-12509500D01*
X24066500Y-10922000D02*
X23685500Y-10922000D01*
X21590000Y-10922000D02*
X23685500Y-10922000D01*
X17589500Y-10922000D02*
X20256500Y-10922000D01*
X20510500Y-10922000D02*
X21336000Y-10922000D01*
X21590000Y-11176000D02*
X21844000Y-11176000D01*
X20510500Y-11176000D02*
X21336000Y-11176000D01*
X20129500Y-11176000D02*
X20256500Y-11176000D01*
X17843500Y-13017500D02*
X17843500Y-13779500D01*
X17843500Y-14287500D02*
X17843500Y-14097000D01*
X18034000Y-16383000D02*
X18034000Y-16256000D01*
X17589500Y-16002000D02*
X17589500Y-14541500D01*
X18034000Y-16002000D02*
X17589500Y-16002000D01*
X18034000Y-17272000D02*
X18034000Y-17462500D01*
X18034000Y-17018000D02*
X18034000Y-16891000D01*
X17589500Y-17272000D02*
X17589500Y-17653000D01*
X18034000Y-17272000D02*
X17589500Y-17272000D01*
X17589500Y-17018000D02*
X17589500Y-16891000D01*
X17653000Y-17018000D02*
X17589500Y-17018000D01*
X18034000Y-17018000D02*
X17653000Y-17018000D01*
X17589500Y-16256000D02*
X17589500Y-16891000D01*
X17780000Y-16256000D02*
X17589500Y-16256000D01*
X18034000Y-16256000D02*
X17780000Y-16256000D01*
X17589500Y-13017500D02*
X17589500Y-14287500D01*
X17589500Y-12763500D02*
X17589500Y-10922000D01*
X17589500Y-14287500D02*
X17843500Y-14287500D01*
X17843500Y-14541500D02*
X17589500Y-14541500D01*
X17589500Y-13017500D02*
X17843500Y-13017500D01*
X17843500Y-12763500D02*
X17589500Y-12763500D01*
X21336000Y-10922000D02*
X21336000Y-11176000D01*
X21590000Y-11176000D02*
X21590000Y-10922000D01*
X20510500Y-11176000D02*
X20510500Y-10922000D01*
X20256500Y-11176000D02*
X20256500Y-10922000D01*
X24066500Y-14287500D02*
X24066500Y-13906500D01*
X23812500Y-14287500D02*
X24066500Y-14287500D01*
X24066500Y-14541500D02*
X24066500Y-15113000D01*
X24066500Y-14541500D02*
X23812500Y-14541500D01*
X24066500Y-13017500D02*
X24066500Y-13906500D01*
X23812500Y-13017500D02*
X24066500Y-13017500D01*
X24066500Y-12763500D02*
X23812500Y-12763500D01*
X24066500Y-12509500D02*
X24066500Y-12763500D01*
X24066500Y-12509500D02*
X24066500Y-10922000D01*
X23177500Y-12382500D02*
X23622000Y-12382500D01*
X22860000Y-12382500D02*
X22923500Y-12382500D01*
X23177500Y-12128500D02*
X23177500Y-12382500D01*
X21399500Y-12382500D02*
X22860000Y-12382500D01*
X21399500Y-12128500D02*
X21653500Y-12128500D01*
X21018500Y-12128500D02*
X21145500Y-12128500D01*
X21082000Y-12382500D02*
X21145500Y-12382500D01*
X19431000Y-12382500D02*
X19113500Y-12382500D01*
X19685000Y-12382500D02*
X20510500Y-12382500D01*
X19685000Y-12128500D02*
X19685000Y-12382500D01*
X23685500Y-12382500D02*
X23622000Y-12382500D01*
X23812500Y-12509500D02*
X23685500Y-12382500D01*
X23685500Y-14922500D02*
X23812500Y-14795500D01*
X23622000Y-14922500D02*
X23685500Y-14922500D01*
X19431000Y-12128500D02*
X19431000Y-12382500D01*
X19685000Y-12128500D02*
X19875500Y-12128500D01*
X19113500Y-12382500D02*
X18796000Y-12382500D01*
X19240500Y-12128500D02*
X19431000Y-12128500D01*
X21399500Y-12128500D02*
X21399500Y-12382500D01*
X21082000Y-12382500D02*
X20510500Y-12382500D01*
X21145500Y-12128500D02*
X21145500Y-12382500D01*
X20955000Y-12065000D02*
X20828000Y-12065000D01*
X21018500Y-12128500D02*
X20955000Y-12065000D01*
X21653500Y-12128500D02*
X21844000Y-12128500D01*
X21844000Y-12128500D02*
X21907500Y-12128500D01*
X21971000Y-12065000D02*
X21907500Y-12128500D01*
X22733000Y-12065000D02*
X21971000Y-12065000D01*
X22796500Y-12128500D02*
X22733000Y-12065000D01*
X22923500Y-12128500D02*
X22796500Y-12128500D01*
X22923500Y-12128500D02*
X22923500Y-12382500D01*
X23241000Y-12065000D02*
X23495000Y-12065000D01*
X23177500Y-12128500D02*
X23241000Y-12065000D01*
X19939000Y-12065000D02*
X20828000Y-12065000D01*
X19875500Y-12128500D02*
X19939000Y-12065000D01*
X19177000Y-12065000D02*
X19240500Y-12128500D01*
X18161000Y-12065000D02*
X19177000Y-12065000D01*
X18161000Y-12065000D02*
X18161000Y-12001500D01*
X20002500Y-11176000D02*
X20002500Y-11239500D01*
X20066000Y-11176000D02*
X20002500Y-11176000D01*
X19494500Y-11557000D02*
X19431000Y-11557000D01*
X19685000Y-11366500D02*
X19494500Y-11557000D01*
X20002500Y-11366500D02*
X19685000Y-11366500D01*
X20002500Y-11239500D02*
X20002500Y-11366500D01*
X20129500Y-11176000D02*
X20066000Y-11176000D01*
X21907500Y-11239500D02*
X21844000Y-11176000D01*
X22034500Y-11493500D02*
X22479000Y-11493500D01*
X22034500Y-11366500D02*
X22034500Y-11493500D01*
X21971000Y-11303000D02*
X22034500Y-11366500D01*
X21907500Y-11239500D02*
X21971000Y-11303000D01*
X17843500Y-14732000D02*
X17843500Y-14605000D01*
X17843500Y-14097000D02*
X17843500Y-13906500D01*
X18415000Y-16764000D02*
X18796000Y-16764000D01*
X18796000Y-16510000D02*
X18415000Y-16510000D01*
X18796000Y-16764000D02*
X18796000Y-16510000D01*
X19050000Y-16510000D02*
X19494500Y-16510000D01*
X19050000Y-16764000D02*
X19050000Y-16510000D01*
X18415000Y-16764000D02*
X18415000Y-16510000D01*
X18161000Y-16764000D02*
X18161000Y-16510000D01*
X21209000Y-17462500D02*
X21399500Y-17462500D01*
X21336000Y-16446500D02*
X20955000Y-16446500D01*
X21336000Y-16700500D02*
X21336000Y-16446500D01*
X21336000Y-16700500D02*
X21209000Y-16700500D01*
X21590000Y-16446500D02*
X22098000Y-16446500D01*
X21590000Y-16700500D02*
X21590000Y-16446500D01*
X20955000Y-16700500D02*
X21209000Y-16700500D01*
X20955000Y-16446500D02*
X20955000Y-16700500D01*
X20701000Y-16446500D02*
X19558000Y-16446500D01*
X20701000Y-16700500D02*
X20701000Y-16446500D01*
X23177500Y-14922500D02*
X23622000Y-14922500D01*
X21082000Y-14922500D02*
X22923500Y-14922500D01*
X18605500Y-14922500D02*
X20828000Y-14922500D01*
X18351500Y-14922500D02*
X17970500Y-14922500D01*
X22923500Y-15176500D02*
X22606000Y-15176500D01*
X22923500Y-14922500D02*
X22923500Y-15176500D01*
X23177500Y-15176500D02*
X23177500Y-14922500D01*
X23431500Y-15176500D02*
X23177500Y-15176500D01*
X21082000Y-15176500D02*
X22606000Y-15176500D01*
X21082000Y-14922500D02*
X21082000Y-15176500D01*
X20828000Y-15176500D02*
X20828000Y-14922500D01*
X18605500Y-15176500D02*
X20828000Y-15176500D01*
X18605500Y-14922500D02*
X18605500Y-15176500D01*
X18351500Y-15176500D02*
X18351500Y-14922500D01*
X18097500Y-15176500D02*
X18351500Y-15176500D01*
X20447000Y-17018000D02*
X20447000Y-17272000D01*
X17843500Y-12509500D02*
X17907000Y-12446000D01*
X17843500Y-12700000D02*
X17843500Y-12509500D01*
X18161000Y-11684000D02*
X18224500Y-11620500D01*
X18161000Y-11874500D02*
X18161000Y-11684000D01*
X22098000Y-16637000D02*
X22098000Y-16446500D01*
X22161500Y-16700500D02*
X22098000Y-16637000D01*
X22161500Y-17272000D02*
X22161500Y-16700500D01*
X22288500Y-17272000D02*
X22161500Y-17272000D01*
X22288500Y-17335500D02*
X22288500Y-17272000D01*
X22415500Y-17462500D02*
X22288500Y-17335500D01*
X22415500Y-17780000D02*
X22415500Y-17462500D01*
X22542500Y-17780000D02*
X22415500Y-17780000D01*
X22542500Y-18034000D02*
X22542500Y-17780000D01*
X23304500Y-17780000D02*
X23304500Y-18034000D01*
X23431500Y-17780000D02*
X23304500Y-17780000D01*
X23431500Y-17462500D02*
X23431500Y-17780000D01*
X23495000Y-17399000D02*
X23431500Y-17462500D01*
X23431500Y-16319500D02*
X23495000Y-16383000D01*
X18097500Y-15811500D02*
X18097500Y-15176500D01*
X18034000Y-15875000D02*
X18097500Y-15811500D01*
X18034000Y-16002000D02*
X18034000Y-15875000D01*
X19494500Y-16510000D02*
X19558000Y-16446500D01*
X18161000Y-16510000D02*
X18034000Y-16383000D01*
X17843500Y-13906500D02*
X17843500Y-13779500D01*
X20764500Y-17462500D02*
X20637500Y-17462500D01*
X20447000Y-17272000D02*
X20447000Y-17462500D01*
X17843500Y-12763500D02*
X17843500Y-12700000D01*
X17907000Y-12446000D02*
X17970500Y-12382500D01*
X18161000Y-11874500D02*
X18161000Y-11938000D01*
X18288000Y-11557000D02*
X18224500Y-11620500D01*
X18161000Y-11938000D02*
X18161000Y-12001500D01*
X21780500Y-12382500D02*
X21526500Y-12382500D01*
X18796000Y-12382500D02*
X18542000Y-12382500D01*
X21590000Y-17462500D02*
X21399500Y-17462500D01*
X20447000Y-17462500D02*
X20510500Y-17462500D01*
X20447000Y-16954500D02*
X20447000Y-17018000D01*
X17970500Y-12382500D02*
X18542000Y-12382500D01*
X18034000Y-16891000D02*
X18161000Y-16764000D01*
X21717000Y-17335500D02*
X21717000Y-17081500D01*
X21590000Y-17462500D02*
X21717000Y-17335500D01*
X23495000Y-11557000D02*
X23495000Y-12065000D01*
X22987000Y-11557000D02*
X23495000Y-11557000D01*
X22923500Y-11493500D02*
X22987000Y-11557000D01*
X22860000Y-11493500D02*
X22923500Y-11493500D01*
X22479000Y-11493500D02*
X22860000Y-11493500D01*
X18288000Y-11557000D02*
X19431000Y-11557000D01*
X17843500Y-14605000D02*
X17843500Y-14541500D01*
X17843500Y-14732000D02*
X17843500Y-14795500D01*
X17843500Y-14795500D02*
X17970500Y-14922500D01*
X20574000Y-16827500D02*
X20574000Y-16954500D01*
X20574000Y-16827500D02*
X20701000Y-16700500D01*
X20637500Y-17462500D02*
X20510500Y-17462500D01*
X20447000Y-16954500D02*
X20574000Y-16954500D01*
X21590000Y-16954500D02*
X21590000Y-16700500D01*
X21717000Y-17081500D02*
X21590000Y-16954500D01*
X19050000Y-16891000D02*
X19050000Y-16764000D01*
X19050000Y-17462500D02*
X19050000Y-16891000D01*
X18923000Y-17589500D02*
X19050000Y-17462500D01*
X18034000Y-17462500D02*
X18161000Y-17589500D01*
X18034000Y-9080500D02*
X18161000Y-9207500D01*
X18923000Y-9207500D02*
X19050000Y-9080500D01*
X19050000Y-9080500D02*
X19050000Y-8509000D01*
X19050000Y-8509000D02*
X19050000Y-8382000D01*
X21717000Y-8699500D02*
X21590000Y-8572500D01*
X21590000Y-8572500D02*
X21590000Y-8318500D01*
X20447000Y-8572500D02*
X20574000Y-8572500D01*
X20637500Y-9080500D02*
X20510500Y-9080500D01*
X20574000Y-8445500D02*
X20701000Y-8318500D01*
X20574000Y-8445500D02*
X20574000Y-8572500D01*
X17843500Y-6413500D02*
X17970500Y-6540500D01*
X17843500Y-6350000D02*
X17843500Y-6413500D01*
X17843500Y-6223000D02*
X17843500Y-6159500D01*
X18288000Y-3175000D02*
X19431000Y-3175000D01*
X22479000Y-3111500D02*
X22860000Y-3111500D01*
X22860000Y-3111500D02*
X22923500Y-3111500D01*
X22923500Y-3111500D02*
X22987000Y-3175000D01*
X22987000Y-3175000D02*
X23495000Y-3175000D01*
X23495000Y-3175000D02*
X23495000Y-3683000D01*
X21590000Y-9080500D02*
X21717000Y-8953500D01*
X21717000Y-8953500D02*
X21717000Y-8699500D01*
X18034000Y-8509000D02*
X18161000Y-8382000D01*
X17970500Y-4000500D02*
X18542000Y-4000500D01*
X20447000Y-8572500D02*
X20447000Y-8636000D01*
X20447000Y-9080500D02*
X20510500Y-9080500D01*
X21590000Y-9080500D02*
X21399500Y-9080500D01*
X18796000Y-4000500D02*
X18542000Y-4000500D01*
X21780500Y-4000500D02*
X21526500Y-4000500D01*
X18161000Y-3556000D02*
X18161000Y-3619500D01*
X18288000Y-3175000D02*
X18224500Y-3238500D01*
X18161000Y-3492500D02*
X18161000Y-3556000D01*
X17907000Y-4064000D02*
X17970500Y-4000500D01*
X17843500Y-4381500D02*
X17843500Y-4318000D01*
X20447000Y-8890000D02*
X20447000Y-9080500D01*
X20764500Y-9080500D02*
X20637500Y-9080500D01*
X17843500Y-5524500D02*
X17843500Y-5397500D01*
X18161000Y-8128000D02*
X18034000Y-8001000D01*
X19494500Y-8128000D02*
X19558000Y-8064500D01*
X18034000Y-7620000D02*
X18034000Y-7493000D01*
X18034000Y-7493000D02*
X18097500Y-7429500D01*
X18097500Y-7429500D02*
X18097500Y-6794500D01*
X23431500Y-7937500D02*
X23495000Y-8001000D01*
X23495000Y-9017000D02*
X23431500Y-9080500D01*
X23431500Y-9080500D02*
X23431500Y-9398000D01*
X23431500Y-9398000D02*
X23304500Y-9398000D01*
X23304500Y-9398000D02*
X23304500Y-9652000D01*
X22542500Y-9652000D02*
X22542500Y-9398000D01*
X22542500Y-9398000D02*
X22415500Y-9398000D01*
X22415500Y-9398000D02*
X22415500Y-9080500D01*
X22415500Y-9080500D02*
X22288500Y-8953500D01*
X22288500Y-8953500D02*
X22288500Y-8890000D01*
X22288500Y-8890000D02*
X22161500Y-8890000D01*
X22161500Y-8890000D02*
X22161500Y-8318500D01*
X22161500Y-8318500D02*
X22098000Y-8255000D01*
X22098000Y-8255000D02*
X22098000Y-8064500D01*
X18161000Y-3492500D02*
X18161000Y-3302000D01*
X18161000Y-3302000D02*
X18224500Y-3238500D01*
X17843500Y-4318000D02*
X17843500Y-4127500D01*
X17843500Y-4127500D02*
X17907000Y-4064000D01*
X20447000Y-8636000D02*
X20447000Y-8890000D01*
X18097500Y-6794500D02*
X18351500Y-6794500D01*
X18351500Y-6794500D02*
X18351500Y-6540500D01*
X18605500Y-6540500D02*
X18605500Y-6794500D01*
X18605500Y-6794500D02*
X20828000Y-6794500D01*
X20828000Y-6794500D02*
X20828000Y-6540500D01*
X21082000Y-6540500D02*
X21082000Y-6794500D01*
X21082000Y-6794500D02*
X22606000Y-6794500D01*
X23431500Y-6794500D02*
X23177500Y-6794500D01*
X23177500Y-6794500D02*
X23177500Y-6540500D01*
X22923500Y-6540500D02*
X22923500Y-6794500D01*
X22923500Y-6794500D02*
X22606000Y-6794500D01*
X18351500Y-6540500D02*
X17970500Y-6540500D01*
X18605500Y-6540500D02*
X20828000Y-6540500D01*
X21082000Y-6540500D02*
X22923500Y-6540500D01*
X23177500Y-6540500D02*
X23622000Y-6540500D01*
X20701000Y-8318500D02*
X20701000Y-8064500D01*
X20701000Y-8064500D02*
X19558000Y-8064500D01*
X20955000Y-8064500D02*
X20955000Y-8318500D01*
X20955000Y-8318500D02*
X21209000Y-8318500D01*
X21590000Y-8318500D02*
X21590000Y-8064500D01*
X21590000Y-8064500D02*
X22098000Y-8064500D01*
X21336000Y-8318500D02*
X21209000Y-8318500D01*
X21336000Y-8318500D02*
X21336000Y-8064500D01*
X21336000Y-8064500D02*
X20955000Y-8064500D01*
X21209000Y-9080500D02*
X21399500Y-9080500D01*
X18161000Y-8382000D02*
X18161000Y-8128000D01*
X18415000Y-8382000D02*
X18415000Y-8128000D01*
X19050000Y-8382000D02*
X19050000Y-8128000D01*
X19050000Y-8128000D02*
X19494500Y-8128000D01*
X18796000Y-8382000D02*
X18796000Y-8128000D01*
X18796000Y-8128000D02*
X18415000Y-8128000D01*
X18415000Y-8382000D02*
X18796000Y-8382000D01*
X17843500Y-5715000D02*
X17843500Y-5524500D01*
X17843500Y-6350000D02*
X17843500Y-6223000D01*
X21907500Y-2857500D02*
X21971000Y-2921000D01*
X21971000Y-2921000D02*
X22034500Y-2984500D01*
X22034500Y-2984500D02*
X22034500Y-3111500D01*
X22034500Y-3111500D02*
X22479000Y-3111500D01*
X21907500Y-2857500D02*
X21844000Y-2794000D01*
X20129500Y-2794000D02*
X20066000Y-2794000D01*
X20002500Y-2857500D02*
X20002500Y-2984500D01*
X20002500Y-2984500D02*
X19685000Y-2984500D01*
X19685000Y-2984500D02*
X19494500Y-3175000D01*
X19494500Y-3175000D02*
X19431000Y-3175000D01*
X20066000Y-2794000D02*
X20002500Y-2794000D01*
X20002500Y-2794000D02*
X20002500Y-2857500D01*
X18161000Y-3683000D02*
X18161000Y-3619500D01*
X18161000Y-3683000D02*
X19177000Y-3683000D01*
X19177000Y-3683000D02*
X19240500Y-3746500D01*
X19875500Y-3746500D02*
X19939000Y-3683000D01*
X19939000Y-3683000D02*
X20828000Y-3683000D01*
X23177500Y-3746500D02*
X23241000Y-3683000D01*
X23241000Y-3683000D02*
X23495000Y-3683000D01*
X22923500Y-3746500D02*
X22923500Y-4000500D01*
X22923500Y-3746500D02*
X22796500Y-3746500D01*
X22796500Y-3746500D02*
X22733000Y-3683000D01*
X22733000Y-3683000D02*
X21971000Y-3683000D01*
X21971000Y-3683000D02*
X21907500Y-3746500D01*
X21844000Y-3746500D02*
X21907500Y-3746500D01*
X21653500Y-3746500D02*
X21844000Y-3746500D01*
X21018500Y-3746500D02*
X20955000Y-3683000D01*
X20955000Y-3683000D02*
X20828000Y-3683000D01*
X21145500Y-3746500D02*
X21145500Y-4000500D01*
X21082000Y-4000500D02*
X20510500Y-4000500D01*
X21399500Y-3746500D02*
X21399500Y-4000500D01*
X19240500Y-3746500D02*
X19431000Y-3746500D01*
X19113500Y-4000500D02*
X18796000Y-4000500D01*
X19685000Y-3746500D02*
X19875500Y-3746500D01*
X19431000Y-3746500D02*
X19431000Y-4000500D01*
X23622000Y-6540500D02*
X23685500Y-6540500D01*
X23685500Y-6540500D02*
X23812500Y-6413500D01*
X23812500Y-4127500D02*
X23685500Y-4000500D01*
X23685500Y-4000500D02*
X23622000Y-4000500D01*
X19685000Y-3746500D02*
X19685000Y-4000500D01*
X19685000Y-4000500D02*
X20510500Y-4000500D01*
X19431000Y-4000500D02*
X19113500Y-4000500D01*
X21082000Y-4000500D02*
X21145500Y-4000500D01*
X21018500Y-3746500D02*
X21145500Y-3746500D01*
X21399500Y-3746500D02*
X21653500Y-3746500D01*
X21399500Y-4000500D02*
X22860000Y-4000500D01*
X23177500Y-3746500D02*
X23177500Y-4000500D01*
X22860000Y-4000500D02*
X22923500Y-4000500D01*
X23177500Y-4000500D02*
X23622000Y-4000500D01*
X24066500Y-4127500D02*
X24066500Y-2540000D01*
X24066500Y-4127500D02*
X24066500Y-4381500D01*
X24066500Y-4381500D02*
X23812500Y-4381500D01*
X23812500Y-4635500D02*
X24066500Y-4635500D01*
X24066500Y-4635500D02*
X24066500Y-5524500D01*
X24066500Y-6159500D02*
X23812500Y-6159500D01*
X24066500Y-6159500D02*
X24066500Y-6731000D01*
X23812500Y-5905500D02*
X24066500Y-5905500D01*
X24066500Y-5905500D02*
X24066500Y-5524500D01*
X20256500Y-2794000D02*
X20256500Y-2540000D01*
X20510500Y-2794000D02*
X20510500Y-2540000D01*
X21590000Y-2794000D02*
X21590000Y-2540000D01*
X21336000Y-2540000D02*
X21336000Y-2794000D01*
X17843500Y-4381500D02*
X17589500Y-4381500D01*
X17589500Y-4635500D02*
X17843500Y-4635500D01*
X17843500Y-6159500D02*
X17589500Y-6159500D01*
X17589500Y-5905500D02*
X17843500Y-5905500D01*
X17589500Y-4381500D02*
X17589500Y-2540000D01*
X17589500Y-4635500D02*
X17589500Y-5905500D01*
X18034000Y-7874000D02*
X17780000Y-7874000D01*
X17780000Y-7874000D02*
X17589500Y-7874000D01*
X17589500Y-7874000D02*
X17589500Y-8509000D01*
X18034000Y-8636000D02*
X17653000Y-8636000D01*
X17653000Y-8636000D02*
X17589500Y-8636000D01*
X17589500Y-8636000D02*
X17589500Y-8509000D01*
X18034000Y-8890000D02*
X17589500Y-8890000D01*
X17589500Y-8890000D02*
X17589500Y-9271000D01*
X18034000Y-8636000D02*
X18034000Y-8509000D01*
X18034000Y-8890000D02*
X18034000Y-9080500D01*
X18034000Y-7620000D02*
X17589500Y-7620000D01*
X17589500Y-7620000D02*
X17589500Y-6159500D01*
X18034000Y-8001000D02*
X18034000Y-7874000D01*
X17843500Y-5905500D02*
X17843500Y-5715000D01*
X17843500Y-4635500D02*
X17843500Y-5397500D01*
X20129500Y-2794000D02*
X20256500Y-2794000D01*
X20510500Y-2794000D02*
X21336000Y-2794000D01*
X21590000Y-2794000D02*
X21844000Y-2794000D01*
X20510500Y-2540000D02*
X21336000Y-2540000D01*
X17589500Y-2540000D02*
X20256500Y-2540000D01*
X21590000Y-2540000D02*
X23685500Y-2540000D01*
X24066500Y-2540000D02*
X23685500Y-2540000D01*
X23812500Y-4381500D02*
X23812500Y-4127500D01*
X23812500Y-5905500D02*
X23812500Y-4635500D01*
X23812500Y-6413500D02*
X23812500Y-6159500D01*
X22796500Y-9652000D02*
X22796500Y-9906000D01*
X23050500Y-9906000D02*
X23050500Y-9652000D01*
X22796500Y-9652000D02*
X22542500Y-9652000D01*
X23050500Y-9652000D02*
X23304500Y-9652000D01*
X20891500Y-9080500D02*
X20891500Y-9271000D01*
X21145500Y-9080500D02*
X21145500Y-9271000D01*
X21145500Y-9271000D02*
X21145500Y-9334500D01*
X20891500Y-9334500D02*
X20891500Y-9271000D01*
X18415000Y-9207500D02*
X18415000Y-9461500D01*
X18669000Y-9207500D02*
X18669000Y-9461500D01*
X18161000Y-9207500D02*
X18415000Y-9207500D01*
X18669000Y-9207500D02*
X18923000Y-9207500D01*
X22288500Y-9906000D02*
X21717000Y-9334500D01*
X21717000Y-9334500D02*
X21145500Y-9334500D01*
X22288500Y-9906000D02*
X22796500Y-9906000D01*
X18669000Y-9461500D02*
X19875500Y-9461500D01*
X20891500Y-9334500D02*
X20002500Y-9334500D01*
X20002500Y-9334500D02*
X19875500Y-9461500D01*
X18415000Y-9461500D02*
X17589500Y-9461500D01*
X17589500Y-9461500D02*
X17589500Y-9271000D01*
X21209000Y-9080500D02*
X21145500Y-9080500D01*
X20891500Y-9080500D02*
X20764500Y-9080500D01*
X23495000Y-8763000D02*
X23749000Y-8763000D01*
X23749000Y-8509000D02*
X23495000Y-8509000D01*
X23495000Y-8509000D02*
X23495000Y-8001000D01*
X23495000Y-8763000D02*
X23495000Y-9017000D01*
X23050500Y-9906000D02*
X23749000Y-9906000D01*
X23749000Y-9906000D02*
X23749000Y-8763000D01*
X23431500Y-7048500D02*
X23749000Y-7048500D01*
X23749000Y-7048500D02*
X24066500Y-6731000D01*
X23431500Y-7302500D02*
X23749000Y-7302500D01*
X23431500Y-7302500D02*
X23431500Y-7937500D01*
X23431500Y-7048500D02*
X23431500Y-6794500D01*
X23749000Y-7302500D02*
X23749000Y-8509000D01*
X10541000Y-9080500D02*
X10668000Y-9207500D01*
X11430000Y-9207500D02*
X11557000Y-9080500D01*
X11557000Y-9080500D02*
X11557000Y-8509000D01*
X11557000Y-8509000D02*
X11557000Y-8382000D01*
X14224000Y-8699500D02*
X14097000Y-8572500D01*
X14097000Y-8572500D02*
X14097000Y-8318500D01*
X12954000Y-8572500D02*
X13081000Y-8572500D01*
X13144500Y-9080500D02*
X13017500Y-9080500D01*
X13081000Y-8445500D02*
X13208000Y-8318500D01*
X13081000Y-8445500D02*
X13081000Y-8572500D01*
X10350500Y-6413500D02*
X10477500Y-6540500D01*
X10350500Y-6350000D02*
X10350500Y-6413500D01*
X10350500Y-6223000D02*
X10350500Y-6159500D01*
X10795000Y-3175000D02*
X11938000Y-3175000D01*
X14986000Y-3111500D02*
X15367000Y-3111500D01*
X15367000Y-3111500D02*
X15430500Y-3111500D01*
X15430500Y-3111500D02*
X15494000Y-3175000D01*
X15494000Y-3175000D02*
X16002000Y-3175000D01*
X16002000Y-3175000D02*
X16002000Y-3683000D01*
X14097000Y-9080500D02*
X14224000Y-8953500D01*
X14224000Y-8953500D02*
X14224000Y-8699500D01*
X10541000Y-8509000D02*
X10668000Y-8382000D01*
X10477500Y-4000500D02*
X11049000Y-4000500D01*
X12954000Y-8572500D02*
X12954000Y-8636000D01*
X12954000Y-9080500D02*
X13017500Y-9080500D01*
X14097000Y-9080500D02*
X13906500Y-9080500D01*
X11303000Y-4000500D02*
X11049000Y-4000500D01*
X14287500Y-4000500D02*
X14033500Y-4000500D01*
X10668000Y-3556000D02*
X10668000Y-3619500D01*
X10795000Y-3175000D02*
X10731500Y-3238500D01*
X10668000Y-3492500D02*
X10668000Y-3556000D01*
X10414000Y-4064000D02*
X10477500Y-4000500D01*
X10350500Y-4381500D02*
X10350500Y-4318000D01*
X12954000Y-8890000D02*
X12954000Y-9080500D01*
X13271500Y-9080500D02*
X13144500Y-9080500D01*
X10350500Y-5524500D02*
X10350500Y-5397500D01*
X10668000Y-8128000D02*
X10541000Y-8001000D01*
X12001500Y-8128000D02*
X12065000Y-8064500D01*
X10541000Y-7620000D02*
X10541000Y-7493000D01*
X10541000Y-7493000D02*
X10604500Y-7429500D01*
X10604500Y-7429500D02*
X10604500Y-6794500D01*
X15938500Y-7937500D02*
X16002000Y-8001000D01*
X16002000Y-9017000D02*
X15938500Y-9080500D01*
X15938500Y-9080500D02*
X15938500Y-9398000D01*
X15938500Y-9398000D02*
X15811500Y-9398000D01*
X15811500Y-9398000D02*
X15811500Y-9652000D01*
X15049500Y-9652000D02*
X15049500Y-9398000D01*
X15049500Y-9398000D02*
X14922500Y-9398000D01*
X14922500Y-9398000D02*
X14922500Y-9080500D01*
X14922500Y-9080500D02*
X14795500Y-8953500D01*
X14795500Y-8953500D02*
X14795500Y-8890000D01*
X14795500Y-8890000D02*
X14668500Y-8890000D01*
X14668500Y-8890000D02*
X14668500Y-8318500D01*
X14668500Y-8318500D02*
X14605000Y-8255000D01*
X14605000Y-8255000D02*
X14605000Y-8064500D01*
X10668000Y-3492500D02*
X10668000Y-3302000D01*
X10668000Y-3302000D02*
X10731500Y-3238500D01*
X10350500Y-4318000D02*
X10350500Y-4127500D01*
X10350500Y-4127500D02*
X10414000Y-4064000D01*
X12954000Y-8636000D02*
X12954000Y-8890000D01*
X10604500Y-6794500D02*
X10858500Y-6794500D01*
X10858500Y-6794500D02*
X10858500Y-6540500D01*
X11112500Y-6540500D02*
X11112500Y-6794500D01*
X11112500Y-6794500D02*
X13335000Y-6794500D01*
X13335000Y-6794500D02*
X13335000Y-6540500D01*
X13589000Y-6540500D02*
X13589000Y-6794500D01*
X13589000Y-6794500D02*
X15113000Y-6794500D01*
X15938500Y-6794500D02*
X15684500Y-6794500D01*
X15684500Y-6794500D02*
X15684500Y-6540500D01*
X15430500Y-6540500D02*
X15430500Y-6794500D01*
X15430500Y-6794500D02*
X15113000Y-6794500D01*
X10858500Y-6540500D02*
X10477500Y-6540500D01*
X11112500Y-6540500D02*
X13335000Y-6540500D01*
X13589000Y-6540500D02*
X15430500Y-6540500D01*
X15684500Y-6540500D02*
X16129000Y-6540500D01*
X13208000Y-8318500D02*
X13208000Y-8064500D01*
X13208000Y-8064500D02*
X12065000Y-8064500D01*
X13462000Y-8064500D02*
X13462000Y-8318500D01*
X13462000Y-8318500D02*
X13716000Y-8318500D01*
X14097000Y-8318500D02*
X14097000Y-8064500D01*
X14097000Y-8064500D02*
X14605000Y-8064500D01*
X13843000Y-8318500D02*
X13716000Y-8318500D01*
X13843000Y-8318500D02*
X13843000Y-8064500D01*
X13843000Y-8064500D02*
X13462000Y-8064500D01*
X13716000Y-9080500D02*
X13906500Y-9080500D01*
X10668000Y-8382000D02*
X10668000Y-8128000D01*
X10922000Y-8382000D02*
X10922000Y-8128000D01*
X11557000Y-8382000D02*
X11557000Y-8128000D01*
X11557000Y-8128000D02*
X12001500Y-8128000D01*
X11303000Y-8382000D02*
X11303000Y-8128000D01*
X11303000Y-8128000D02*
X10922000Y-8128000D01*
X10922000Y-8382000D02*
X11303000Y-8382000D01*
X10350500Y-5715000D02*
X10350500Y-5524500D01*
X10350500Y-6350000D02*
X10350500Y-6223000D01*
X14414500Y-2857500D02*
X14478000Y-2921000D01*
X14478000Y-2921000D02*
X14541500Y-2984500D01*
X14541500Y-2984500D02*
X14541500Y-3111500D01*
X14541500Y-3111500D02*
X14986000Y-3111500D01*
X14414500Y-2857500D02*
X14351000Y-2794000D01*
X12636500Y-2794000D02*
X12573000Y-2794000D01*
X12509500Y-2857500D02*
X12509500Y-2984500D01*
X12509500Y-2984500D02*
X12192000Y-2984500D01*
X12192000Y-2984500D02*
X12001500Y-3175000D01*
X12001500Y-3175000D02*
X11938000Y-3175000D01*
X12573000Y-2794000D02*
X12509500Y-2794000D01*
X12509500Y-2794000D02*
X12509500Y-2857500D01*
X10668000Y-3683000D02*
X10668000Y-3619500D01*
X10668000Y-3683000D02*
X11684000Y-3683000D01*
X11684000Y-3683000D02*
X11747500Y-3746500D01*
X12382500Y-3746500D02*
X12446000Y-3683000D01*
X12446000Y-3683000D02*
X13335000Y-3683000D01*
X15684500Y-3746500D02*
X15748000Y-3683000D01*
X15748000Y-3683000D02*
X16002000Y-3683000D01*
X15430500Y-3746500D02*
X15430500Y-4000500D01*
X15430500Y-3746500D02*
X15303500Y-3746500D01*
X15303500Y-3746500D02*
X15240000Y-3683000D01*
X15240000Y-3683000D02*
X14478000Y-3683000D01*
X14478000Y-3683000D02*
X14414500Y-3746500D01*
X14351000Y-3746500D02*
X14414500Y-3746500D01*
X14160500Y-3746500D02*
X14351000Y-3746500D01*
X13525500Y-3746500D02*
X13462000Y-3683000D01*
X13462000Y-3683000D02*
X13335000Y-3683000D01*
X13652500Y-3746500D02*
X13652500Y-4000500D01*
X13589000Y-4000500D02*
X13017500Y-4000500D01*
X13906500Y-3746500D02*
X13906500Y-4000500D01*
X11747500Y-3746500D02*
X11938000Y-3746500D01*
X11620500Y-4000500D02*
X11303000Y-4000500D01*
X12192000Y-3746500D02*
X12382500Y-3746500D01*
X11938000Y-3746500D02*
X11938000Y-4000500D01*
X16129000Y-6540500D02*
X16192500Y-6540500D01*
X16192500Y-6540500D02*
X16319500Y-6413500D01*
X16319500Y-4127500D02*
X16192500Y-4000500D01*
X16192500Y-4000500D02*
X16129000Y-4000500D01*
X12192000Y-3746500D02*
X12192000Y-4000500D01*
X12192000Y-4000500D02*
X13017500Y-4000500D01*
X11938000Y-4000500D02*
X11620500Y-4000500D01*
X13589000Y-4000500D02*
X13652500Y-4000500D01*
X13525500Y-3746500D02*
X13652500Y-3746500D01*
X13906500Y-3746500D02*
X14160500Y-3746500D01*
X13906500Y-4000500D02*
X15367000Y-4000500D01*
X15684500Y-3746500D02*
X15684500Y-4000500D01*
X15367000Y-4000500D02*
X15430500Y-4000500D01*
X15684500Y-4000500D02*
X16129000Y-4000500D01*
X16573500Y-4127500D02*
X16573500Y-2540000D01*
X16573500Y-4127500D02*
X16573500Y-4381500D01*
X16573500Y-4381500D02*
X16319500Y-4381500D01*
X16319500Y-4635500D02*
X16573500Y-4635500D01*
X16573500Y-4635500D02*
X16573500Y-5524500D01*
X16573500Y-6159500D02*
X16319500Y-6159500D01*
X16573500Y-6159500D02*
X16573500Y-6731000D01*
X16319500Y-5905500D02*
X16573500Y-5905500D01*
X16573500Y-5905500D02*
X16573500Y-5524500D01*
X12763500Y-2794000D02*
X12763500Y-2540000D01*
X13017500Y-2794000D02*
X13017500Y-2540000D01*
X14097000Y-2794000D02*
X14097000Y-2540000D01*
X13843000Y-2540000D02*
X13843000Y-2794000D01*
X10350500Y-4381500D02*
X10096500Y-4381500D01*
X10096500Y-4635500D02*
X10350500Y-4635500D01*
X10350500Y-6159500D02*
X10096500Y-6159500D01*
X10096500Y-5905500D02*
X10350500Y-5905500D01*
X10096500Y-4381500D02*
X10096500Y-2540000D01*
X10096500Y-4635500D02*
X10096500Y-5905500D01*
X10541000Y-7874000D02*
X10287000Y-7874000D01*
X10287000Y-7874000D02*
X10096500Y-7874000D01*
X10096500Y-7874000D02*
X10096500Y-8509000D01*
X10541000Y-8636000D02*
X10160000Y-8636000D01*
X10160000Y-8636000D02*
X10096500Y-8636000D01*
X10096500Y-8636000D02*
X10096500Y-8509000D01*
X10541000Y-8890000D02*
X10096500Y-8890000D01*
X10096500Y-8890000D02*
X10096500Y-9271000D01*
X10541000Y-8636000D02*
X10541000Y-8509000D01*
X10541000Y-8890000D02*
X10541000Y-9080500D01*
X10541000Y-7620000D02*
X10096500Y-7620000D01*
X10096500Y-7620000D02*
X10096500Y-6159500D01*
X10541000Y-8001000D02*
X10541000Y-7874000D01*
X10350500Y-5905500D02*
X10350500Y-5715000D01*
X10350500Y-4635500D02*
X10350500Y-5397500D01*
X12636500Y-2794000D02*
X12763500Y-2794000D01*
X13017500Y-2794000D02*
X13843000Y-2794000D01*
X14097000Y-2794000D02*
X14351000Y-2794000D01*
X13017500Y-2540000D02*
X13843000Y-2540000D01*
X10096500Y-2540000D02*
X12763500Y-2540000D01*
X14097000Y-2540000D02*
X16192500Y-2540000D01*
X16573500Y-2540000D02*
X16192500Y-2540000D01*
X16319500Y-4381500D02*
X16319500Y-4127500D01*
X16319500Y-5905500D02*
X16319500Y-4635500D01*
X16319500Y-6413500D02*
X16319500Y-6159500D01*
X15303500Y-9652000D02*
X15303500Y-9906000D01*
X15557500Y-9906000D02*
X15557500Y-9652000D01*
X15303500Y-9652000D02*
X15049500Y-9652000D01*
X15557500Y-9652000D02*
X15811500Y-9652000D01*
X13398500Y-9080500D02*
X13398500Y-9271000D01*
X13652500Y-9080500D02*
X13652500Y-9271000D01*
X13652500Y-9271000D02*
X13652500Y-9334500D01*
X13398500Y-9334500D02*
X13398500Y-9271000D01*
X10922000Y-9207500D02*
X10922000Y-9461500D01*
X11176000Y-9207500D02*
X11176000Y-9461500D01*
X10668000Y-9207500D02*
X10922000Y-9207500D01*
X11176000Y-9207500D02*
X11430000Y-9207500D01*
X14795500Y-9906000D02*
X14224000Y-9334500D01*
X14224000Y-9334500D02*
X13652500Y-9334500D01*
X14795500Y-9906000D02*
X15303500Y-9906000D01*
X11176000Y-9461500D02*
X12382500Y-9461500D01*
X13398500Y-9334500D02*
X12509500Y-9334500D01*
X12509500Y-9334500D02*
X12382500Y-9461500D01*
X10922000Y-9461500D02*
X10096500Y-9461500D01*
X10096500Y-9461500D02*
X10096500Y-9271000D01*
X13716000Y-9080500D02*
X13652500Y-9080500D01*
X13398500Y-9080500D02*
X13271500Y-9080500D01*
X16002000Y-8763000D02*
X16256000Y-8763000D01*
X16256000Y-8509000D02*
X16002000Y-8509000D01*
X16002000Y-8509000D02*
X16002000Y-8001000D01*
X16002000Y-8763000D02*
X16002000Y-9017000D01*
X15557500Y-9906000D02*
X16256000Y-9906000D01*
X16256000Y-9906000D02*
X16256000Y-8763000D01*
X15938500Y-7048500D02*
X16256000Y-7048500D01*
X16256000Y-7048500D02*
X16573500Y-6731000D01*
X15938500Y-7302500D02*
X16256000Y-7302500D01*
X15938500Y-7302500D02*
X15938500Y-7937500D01*
X15938500Y-7048500D02*
X15938500Y-6794500D01*
X16256000Y-7302500D02*
X16256000Y-8509000D01*
X10096500Y-2540000D02*
X10096500Y-2794000D01*
X8763000Y-7302500D02*
X8763000Y-8509000D01*
X8445500Y-7048500D02*
X8445500Y-6794500D01*
X8445500Y-7302500D02*
X8445500Y-7937500D01*
X8445500Y-7302500D02*
X8763000Y-7302500D01*
X8763000Y-7048500D02*
X9080500Y-6731000D01*
X8445500Y-7048500D02*
X8763000Y-7048500D01*
X8763000Y-9906000D02*
X8763000Y-8763000D01*
X8064500Y-9906000D02*
X8763000Y-9906000D01*
X8509000Y-8763000D02*
X8509000Y-9017000D01*
X8509000Y-8509000D02*
X8509000Y-8001000D01*
X8763000Y-8509000D02*
X8509000Y-8509000D01*
X8509000Y-8763000D02*
X8763000Y-8763000D01*
X5905500Y-9080500D02*
X5778500Y-9080500D01*
X6223000Y-9080500D02*
X6159500Y-9080500D01*
X7810500Y-10922000D02*
X6858000Y-10922000D01*
X2603500Y-9461500D02*
X2603500Y-9271000D01*
X3429000Y-9461500D02*
X2603500Y-9461500D01*
X5016500Y-9334500D02*
X4889500Y-9461500D01*
X5905500Y-9334500D02*
X5016500Y-9334500D01*
X3683000Y-9461500D02*
X4889500Y-9461500D01*
X7302500Y-9906000D02*
X7810500Y-9906000D01*
X6731000Y-9334500D02*
X6159500Y-9334500D01*
X7302500Y-9906000D02*
X6731000Y-9334500D01*
X3683000Y-9207500D02*
X3937000Y-9207500D01*
X3175000Y-9207500D02*
X3429000Y-9207500D01*
X3683000Y-9207500D02*
X3683000Y-9461500D01*
X3429000Y-9207500D02*
X3429000Y-9461500D01*
X5905500Y-9334500D02*
X5905500Y-9271000D01*
X6159500Y-9271000D02*
X6159500Y-9334500D01*
X6159500Y-9080500D02*
X6159500Y-9271000D01*
X5905500Y-9080500D02*
X5905500Y-9271000D01*
X8064500Y-9652000D02*
X8318500Y-9652000D01*
X7810500Y-9652000D02*
X7556500Y-9652000D01*
X8064500Y-9906000D02*
X8064500Y-9652000D01*
X7810500Y-9652000D02*
X7810500Y-9906000D01*
X8826500Y-6413500D02*
X8826500Y-6159500D01*
X8826500Y-5905500D02*
X8826500Y-4635500D01*
X8826500Y-4381500D02*
X8826500Y-4127500D01*
X9080500Y-2540000D02*
X8699500Y-2540000D01*
X6604000Y-2540000D02*
X8699500Y-2540000D01*
X2603500Y-2540000D02*
X5270500Y-2540000D01*
X5524500Y-2540000D02*
X6350000Y-2540000D01*
X6604000Y-2794000D02*
X6858000Y-2794000D01*
X5524500Y-2794000D02*
X6350000Y-2794000D01*
X5143500Y-2794000D02*
X5270500Y-2794000D01*
X2857500Y-4635500D02*
X2857500Y-5397500D01*
X2857500Y-5905500D02*
X2857500Y-5715000D01*
X3048000Y-8001000D02*
X3048000Y-7874000D01*
X2603500Y-7620000D02*
X2603500Y-6159500D01*
X3048000Y-7620000D02*
X2603500Y-7620000D01*
X3048000Y-8890000D02*
X3048000Y-9080500D01*
X3048000Y-8636000D02*
X3048000Y-8509000D01*
X2603500Y-8890000D02*
X2603500Y-9271000D01*
X3048000Y-8890000D02*
X2603500Y-8890000D01*
X2603500Y-8636000D02*
X2603500Y-8509000D01*
X2667000Y-8636000D02*
X2603500Y-8636000D01*
X3048000Y-8636000D02*
X2667000Y-8636000D01*
X2603500Y-7874000D02*
X2603500Y-8509000D01*
X2794000Y-7874000D02*
X2603500Y-7874000D01*
X3048000Y-7874000D02*
X2794000Y-7874000D01*
X2603500Y-4635500D02*
X2603500Y-5905500D01*
X2603500Y-4381500D02*
X2603500Y-2540000D01*
X2603500Y-5905500D02*
X2857500Y-5905500D01*
X2857500Y-6159500D02*
X2603500Y-6159500D01*
X2603500Y-4635500D02*
X2857500Y-4635500D01*
X2857500Y-4381500D02*
X2603500Y-4381500D01*
X6350000Y-2540000D02*
X6350000Y-2794000D01*
X6604000Y-2794000D02*
X6604000Y-2540000D01*
X5524500Y-2794000D02*
X5524500Y-2540000D01*
X5270500Y-2794000D02*
X5270500Y-2540000D01*
X9080500Y-5905500D02*
X9080500Y-5524500D01*
X8826500Y-5905500D02*
X9080500Y-5905500D01*
X9080500Y-6159500D02*
X9080500Y-6731000D01*
X9080500Y-6159500D02*
X8826500Y-6159500D01*
X9080500Y-4635500D02*
X9080500Y-5524500D01*
X8826500Y-4635500D02*
X9080500Y-4635500D01*
X9080500Y-4381500D02*
X8826500Y-4381500D01*
X9080500Y-4127500D02*
X9080500Y-4381500D01*
X9080500Y-4127500D02*
X9080500Y-2540000D01*
X8191500Y-4000500D02*
X8636000Y-4000500D01*
X7874000Y-4000500D02*
X7937500Y-4000500D01*
X8191500Y-3746500D02*
X8191500Y-4000500D01*
X6413500Y-4000500D02*
X7874000Y-4000500D01*
X6413500Y-3746500D02*
X6667500Y-3746500D01*
X6032500Y-3746500D02*
X6159500Y-3746500D01*
X6096000Y-4000500D02*
X6159500Y-4000500D01*
X4445000Y-4000500D02*
X4127500Y-4000500D01*
X4699000Y-4000500D02*
X5524500Y-4000500D01*
X4699000Y-3746500D02*
X4699000Y-4000500D01*
X8699500Y-4000500D02*
X8636000Y-4000500D01*
X8826500Y-4127500D02*
X8699500Y-4000500D01*
X8699500Y-6540500D02*
X8826500Y-6413500D01*
X8636000Y-6540500D02*
X8699500Y-6540500D01*
X4445000Y-3746500D02*
X4445000Y-4000500D01*
X4699000Y-3746500D02*
X4889500Y-3746500D01*
X4127500Y-4000500D02*
X3810000Y-4000500D01*
X4254500Y-3746500D02*
X4445000Y-3746500D01*
X6413500Y-3746500D02*
X6413500Y-4000500D01*
X6096000Y-4000500D02*
X5524500Y-4000500D01*
X6159500Y-3746500D02*
X6159500Y-4000500D01*
X5969000Y-3683000D02*
X5842000Y-3683000D01*
X6032500Y-3746500D02*
X5969000Y-3683000D01*
X6667500Y-3746500D02*
X6858000Y-3746500D01*
X6858000Y-3746500D02*
X6921500Y-3746500D01*
X6985000Y-3683000D02*
X6921500Y-3746500D01*
X7747000Y-3683000D02*
X6985000Y-3683000D01*
X7810500Y-3746500D02*
X7747000Y-3683000D01*
X7937500Y-3746500D02*
X7810500Y-3746500D01*
X7937500Y-3746500D02*
X7937500Y-4000500D01*
X8255000Y-3683000D02*
X8509000Y-3683000D01*
X8191500Y-3746500D02*
X8255000Y-3683000D01*
X4953000Y-3683000D02*
X5842000Y-3683000D01*
X4889500Y-3746500D02*
X4953000Y-3683000D01*
X4191000Y-3683000D02*
X4254500Y-3746500D01*
X3175000Y-3683000D02*
X4191000Y-3683000D01*
X3175000Y-3683000D02*
X3175000Y-3619500D01*
X5016500Y-2794000D02*
X5016500Y-2857500D01*
X5080000Y-2794000D02*
X5016500Y-2794000D01*
X4508500Y-3175000D02*
X4445000Y-3175000D01*
X4699000Y-2984500D02*
X4508500Y-3175000D01*
X5016500Y-2984500D02*
X4699000Y-2984500D01*
X5016500Y-2857500D02*
X5016500Y-2984500D01*
X5143500Y-2794000D02*
X5080000Y-2794000D01*
X6921500Y-2857500D02*
X6858000Y-2794000D01*
X7048500Y-3111500D02*
X7493000Y-3111500D01*
X7048500Y-2984500D02*
X7048500Y-3111500D01*
X6985000Y-2921000D02*
X7048500Y-2984500D01*
X6921500Y-2857500D02*
X6985000Y-2921000D01*
X2857500Y-6350000D02*
X2857500Y-6223000D01*
X2857500Y-5715000D02*
X2857500Y-5524500D01*
X3429000Y-8382000D02*
X3810000Y-8382000D01*
X3810000Y-8128000D02*
X3429000Y-8128000D01*
X3810000Y-8382000D02*
X3810000Y-8128000D01*
X4064000Y-8128000D02*
X4508500Y-8128000D01*
X4064000Y-8382000D02*
X4064000Y-8128000D01*
X3429000Y-8382000D02*
X3429000Y-8128000D01*
X3175000Y-8382000D02*
X3175000Y-8128000D01*
X6223000Y-9080500D02*
X6413500Y-9080500D01*
X6350000Y-8064500D02*
X5969000Y-8064500D01*
X6350000Y-8318500D02*
X6350000Y-8064500D01*
X6350000Y-8318500D02*
X6223000Y-8318500D01*
X6604000Y-8064500D02*
X7112000Y-8064500D01*
X6604000Y-8318500D02*
X6604000Y-8064500D01*
X5969000Y-8318500D02*
X6223000Y-8318500D01*
X5969000Y-8064500D02*
X5969000Y-8318500D01*
X5715000Y-8064500D02*
X4572000Y-8064500D01*
X5715000Y-8318500D02*
X5715000Y-8064500D01*
X8191500Y-6540500D02*
X8636000Y-6540500D01*
X6096000Y-6540500D02*
X7937500Y-6540500D01*
X3619500Y-6540500D02*
X5842000Y-6540500D01*
X3365500Y-6540500D02*
X2984500Y-6540500D01*
X7937500Y-6794500D02*
X7620000Y-6794500D01*
X7937500Y-6540500D02*
X7937500Y-6794500D01*
X8191500Y-6794500D02*
X8191500Y-6540500D01*
X8445500Y-6794500D02*
X8191500Y-6794500D01*
X6096000Y-6794500D02*
X7620000Y-6794500D01*
X6096000Y-6540500D02*
X6096000Y-6794500D01*
X5842000Y-6794500D02*
X5842000Y-6540500D01*
X3619500Y-6794500D02*
X5842000Y-6794500D01*
X3619500Y-6540500D02*
X3619500Y-6794500D01*
X3365500Y-6794500D02*
X3365500Y-6540500D01*
X3111500Y-6794500D02*
X3365500Y-6794500D01*
X5461000Y-8636000D02*
X5461000Y-8890000D01*
X2857500Y-4127500D02*
X2921000Y-4064000D01*
X2857500Y-4318000D02*
X2857500Y-4127500D01*
X3175000Y-3302000D02*
X3238500Y-3238500D01*
X3175000Y-3492500D02*
X3175000Y-3302000D01*
X7112000Y-8255000D02*
X7112000Y-8064500D01*
X7175500Y-8318500D02*
X7112000Y-8255000D01*
X7175500Y-8890000D02*
X7175500Y-8318500D01*
X7302500Y-8890000D02*
X7175500Y-8890000D01*
X7302500Y-8953500D02*
X7302500Y-8890000D01*
X7429500Y-9080500D02*
X7302500Y-8953500D01*
X7429500Y-9398000D02*
X7429500Y-9080500D01*
X7556500Y-9398000D02*
X7429500Y-9398000D01*
X7556500Y-9652000D02*
X7556500Y-9398000D01*
X8318500Y-9398000D02*
X8318500Y-9652000D01*
X8445500Y-9398000D02*
X8318500Y-9398000D01*
X8445500Y-9080500D02*
X8445500Y-9398000D01*
X8509000Y-9017000D02*
X8445500Y-9080500D01*
X8445500Y-7937500D02*
X8509000Y-8001000D01*
X3111500Y-7429500D02*
X3111500Y-6794500D01*
X3048000Y-7493000D02*
X3111500Y-7429500D01*
X3048000Y-7620000D02*
X3048000Y-7493000D01*
X4508500Y-8128000D02*
X4572000Y-8064500D01*
X3175000Y-8128000D02*
X3048000Y-8001000D01*
X2857500Y-5524500D02*
X2857500Y-5397500D01*
X5778500Y-9080500D02*
X5651500Y-9080500D01*
X5461000Y-8890000D02*
X5461000Y-9080500D01*
X2857500Y-4381500D02*
X2857500Y-4318000D01*
X2921000Y-4064000D02*
X2984500Y-4000500D01*
X3175000Y-3492500D02*
X3175000Y-3556000D01*
X3302000Y-3175000D02*
X3238500Y-3238500D01*
X3175000Y-3556000D02*
X3175000Y-3619500D01*
X6794500Y-4000500D02*
X6540500Y-4000500D01*
X3810000Y-4000500D02*
X3556000Y-4000500D01*
X6604000Y-9080500D02*
X6413500Y-9080500D01*
X5461000Y-9080500D02*
X5524500Y-9080500D01*
X5461000Y-8572500D02*
X5461000Y-8636000D01*
X2984500Y-4000500D02*
X3556000Y-4000500D01*
X3048000Y-8509000D02*
X3175000Y-8382000D01*
X6731000Y-8953500D02*
X6731000Y-8699500D01*
X6604000Y-9080500D02*
X6731000Y-8953500D01*
X8509000Y-3175000D02*
X8509000Y-3683000D01*
X8001000Y-3175000D02*
X8509000Y-3175000D01*
X7937500Y-3111500D02*
X8001000Y-3175000D01*
X7874000Y-3111500D02*
X7937500Y-3111500D01*
X7493000Y-3111500D02*
X7874000Y-3111500D01*
X3302000Y-3175000D02*
X4445000Y-3175000D01*
X2857500Y-6223000D02*
X2857500Y-6159500D01*
X2857500Y-6350000D02*
X2857500Y-6413500D01*
X2857500Y-6413500D02*
X2984500Y-6540500D01*
X5588000Y-8445500D02*
X5588000Y-8572500D01*
X5588000Y-8445500D02*
X5715000Y-8318500D01*
X5651500Y-9080500D02*
X5524500Y-9080500D01*
X5461000Y-8572500D02*
X5588000Y-8572500D01*
X6604000Y-8572500D02*
X6604000Y-8318500D01*
X6731000Y-8699500D02*
X6604000Y-8572500D01*
X4064000Y-8509000D02*
X4064000Y-8382000D01*
X4064000Y-9080500D02*
X4064000Y-8509000D01*
X3937000Y-9207500D02*
X4064000Y-9080500D01*
X3048000Y-9080500D02*
X3175000Y-9207500D01*
D12*
X2749000Y-4463500D02*
X2839000Y-4553500D01*
X2839000Y-4463500D02*
X2749000Y-4553500D01*
X2749000Y-5987500D02*
X2839000Y-6077500D01*
X2839000Y-5987500D02*
X2749000Y-6077500D01*
X2749000Y-12845500D02*
X2839000Y-12935500D01*
X2839000Y-12845500D02*
X2749000Y-12935500D01*
X2749000Y-14369500D02*
X2839000Y-14459500D01*
X2839000Y-14369500D02*
X2749000Y-14459500D01*
X2939500Y-7702000D02*
X3029500Y-7792000D01*
X3029500Y-7702000D02*
X2939500Y-7792000D01*
X2939500Y-8718000D02*
X3029500Y-8808000D01*
X3029500Y-8718000D02*
X2939500Y-8808000D01*
X2939500Y-16084000D02*
X3029500Y-16174000D01*
X3029500Y-16084000D02*
X2939500Y-16174000D01*
X2939500Y-17100000D02*
X3029500Y-17190000D01*
X3029500Y-17100000D02*
X2939500Y-17190000D01*
X3257000Y-8146500D02*
X3347000Y-8236500D01*
X3347000Y-8146500D02*
X3257000Y-8236500D01*
X3257000Y-16528500D02*
X3347000Y-16618500D01*
X3347000Y-16528500D02*
X3257000Y-16618500D01*
X3447500Y-6559000D02*
X3537500Y-6649000D01*
X3537500Y-6559000D02*
X3447500Y-6649000D01*
X3447500Y-14941000D02*
X3537500Y-15031000D01*
X3537500Y-14941000D02*
X3447500Y-15031000D01*
X3511000Y-9226000D02*
X3601000Y-9316000D01*
X3601000Y-9226000D02*
X3511000Y-9316000D01*
X3511000Y-17608000D02*
X3601000Y-17698000D01*
X3601000Y-17608000D02*
X3511000Y-17698000D01*
X3892000Y-8146500D02*
X3982000Y-8236500D01*
X3982000Y-8146500D02*
X3892000Y-8236500D01*
X3892000Y-16528500D02*
X3982000Y-16618500D01*
X3982000Y-16528500D02*
X3892000Y-16618500D01*
X4527000Y-3765000D02*
X4617000Y-3855000D01*
X4617000Y-3765000D02*
X4527000Y-3855000D01*
X4527000Y-12147000D02*
X4617000Y-12237000D01*
X4617000Y-12147000D02*
X4527000Y-12237000D01*
X5352500Y-2685500D02*
X5442500Y-2775500D01*
X5442500Y-2685500D02*
X5352500Y-2775500D01*
X5352500Y-11067500D02*
X5442500Y-11157500D01*
X5442500Y-11067500D02*
X5352500Y-11157500D01*
X5797000Y-8083000D02*
X5887000Y-8173000D01*
X5887000Y-8083000D02*
X5797000Y-8173000D01*
X5797000Y-16465000D02*
X5887000Y-16555000D01*
X5887000Y-16465000D02*
X5797000Y-16555000D01*
X5924000Y-6559000D02*
X6014000Y-6649000D01*
X6014000Y-6559000D02*
X5924000Y-6649000D01*
X5924000Y-14941000D02*
X6014000Y-15031000D01*
X6014000Y-14941000D02*
X5924000Y-15031000D01*
X5987500Y-9099000D02*
X6077500Y-9189000D01*
X6077500Y-9099000D02*
X5987500Y-9189000D01*
X5987500Y-17481000D02*
X6077500Y-17571000D01*
X6077500Y-17481000D02*
X5987500Y-17571000D01*
X6241500Y-3765000D02*
X6331500Y-3855000D01*
X6331500Y-3765000D02*
X6241500Y-3855000D01*
X6241500Y-12147000D02*
X6331500Y-12237000D01*
X6331500Y-12147000D02*
X6241500Y-12237000D01*
X6432000Y-2685500D02*
X6522000Y-2775500D01*
X6522000Y-2685500D02*
X6432000Y-2775500D01*
X6432000Y-8083000D02*
X6522000Y-8173000D01*
X6522000Y-8083000D02*
X6432000Y-8173000D01*
X6432000Y-11067500D02*
X6522000Y-11157500D01*
X6522000Y-11067500D02*
X6432000Y-11157500D01*
X6432000Y-16465000D02*
X6522000Y-16555000D01*
X6522000Y-16465000D02*
X6432000Y-16555000D01*
X7892500Y-9670500D02*
X7982500Y-9760500D01*
X7982500Y-9670500D02*
X7892500Y-9760500D01*
X7892500Y-18052500D02*
X7982500Y-18142500D01*
X7982500Y-18052500D02*
X7892500Y-18142500D01*
X8019500Y-3765000D02*
X8109500Y-3855000D01*
X8109500Y-3765000D02*
X8019500Y-3855000D01*
X8019500Y-6559000D02*
X8109500Y-6649000D01*
X8109500Y-6559000D02*
X8019500Y-6649000D01*
X8019500Y-12147000D02*
X8109500Y-12237000D01*
X8109500Y-12147000D02*
X8019500Y-12237000D01*
X8019500Y-14941000D02*
X8109500Y-15031000D01*
X8109500Y-14941000D02*
X8019500Y-15031000D01*
X8464000Y-7130500D02*
X8554000Y-7220500D01*
X8554000Y-7130500D02*
X8464000Y-7220500D01*
X8464000Y-15512500D02*
X8554000Y-15602500D01*
X8554000Y-15512500D02*
X8464000Y-15602500D01*
X8527500Y-8591000D02*
X8617500Y-8681000D01*
X8617500Y-8591000D02*
X8527500Y-8681000D01*
X8527500Y-16973000D02*
X8617500Y-17063000D01*
X8617500Y-16973000D02*
X8527500Y-17063000D01*
X8845000Y-4463500D02*
X8935000Y-4553500D01*
X8935000Y-4463500D02*
X8845000Y-4553500D01*
X8845000Y-5987500D02*
X8935000Y-6077500D01*
X8935000Y-5987500D02*
X8845000Y-6077500D01*
X8845000Y-12845500D02*
X8935000Y-12935500D01*
X8935000Y-12845500D02*
X8845000Y-12935500D01*
X8845000Y-14369500D02*
X8935000Y-14459500D01*
X8935000Y-14369500D02*
X8845000Y-14459500D01*
X10242000Y-4463500D02*
X10332000Y-4553500D01*
X10332000Y-4463500D02*
X10242000Y-4553500D01*
X10242000Y-5987500D02*
X10332000Y-6077500D01*
X10332000Y-5987500D02*
X10242000Y-6077500D01*
X10242000Y-12845500D02*
X10332000Y-12935500D01*
X10332000Y-12845500D02*
X10242000Y-12935500D01*
X10242000Y-14369500D02*
X10332000Y-14459500D01*
X10332000Y-14369500D02*
X10242000Y-14459500D01*
X10432500Y-7702000D02*
X10522500Y-7792000D01*
X10522500Y-7702000D02*
X10432500Y-7792000D01*
X10432500Y-8718000D02*
X10522500Y-8808000D01*
X10522500Y-8718000D02*
X10432500Y-8808000D01*
X10432500Y-16084000D02*
X10522500Y-16174000D01*
X10522500Y-16084000D02*
X10432500Y-16174000D01*
X10432500Y-17100000D02*
X10522500Y-17190000D01*
X10522500Y-17100000D02*
X10432500Y-17190000D01*
X10750000Y-8146500D02*
X10840000Y-8236500D01*
X10840000Y-8146500D02*
X10750000Y-8236500D01*
X10750000Y-16528500D02*
X10840000Y-16618500D01*
X10840000Y-16528500D02*
X10750000Y-16618500D01*
X10940500Y-6559000D02*
X11030500Y-6649000D01*
X11030500Y-6559000D02*
X10940500Y-6649000D01*
X10940500Y-14941000D02*
X11030500Y-15031000D01*
X11030500Y-14941000D02*
X10940500Y-15031000D01*
X11004000Y-9226000D02*
X11094000Y-9316000D01*
X11094000Y-9226000D02*
X11004000Y-9316000D01*
X11004000Y-17608000D02*
X11094000Y-17698000D01*
X11094000Y-17608000D02*
X11004000Y-17698000D01*
X11385000Y-8146500D02*
X11475000Y-8236500D01*
X11475000Y-8146500D02*
X11385000Y-8236500D01*
X11385000Y-16528500D02*
X11475000Y-16618500D01*
X11475000Y-16528500D02*
X11385000Y-16618500D01*
X12020000Y-3765000D02*
X12110000Y-3855000D01*
X12110000Y-3765000D02*
X12020000Y-3855000D01*
X12020000Y-12147000D02*
X12110000Y-12237000D01*
X12110000Y-12147000D02*
X12020000Y-12237000D01*
X12845500Y-2685500D02*
X12935500Y-2775500D01*
X12935500Y-2685500D02*
X12845500Y-2775500D01*
X12845500Y-11067500D02*
X12935500Y-11157500D01*
X12935500Y-11067500D02*
X12845500Y-11157500D01*
X13290000Y-8083000D02*
X13380000Y-8173000D01*
X13380000Y-8083000D02*
X13290000Y-8173000D01*
X13290000Y-16465000D02*
X13380000Y-16555000D01*
X13380000Y-16465000D02*
X13290000Y-16555000D01*
X13417000Y-6559000D02*
X13507000Y-6649000D01*
X13507000Y-6559000D02*
X13417000Y-6649000D01*
X13417000Y-14941000D02*
X13507000Y-15031000D01*
X13507000Y-14941000D02*
X13417000Y-15031000D01*
X13480500Y-9099000D02*
X13570500Y-9189000D01*
X13570500Y-9099000D02*
X13480500Y-9189000D01*
X13480500Y-17481000D02*
X13570500Y-17571000D01*
X13570500Y-17481000D02*
X13480500Y-17571000D01*
X13734500Y-3765000D02*
X13824500Y-3855000D01*
X13824500Y-3765000D02*
X13734500Y-3855000D01*
X13734500Y-12147000D02*
X13824500Y-12237000D01*
X13824500Y-12147000D02*
X13734500Y-12237000D01*
X13925000Y-2685500D02*
X14015000Y-2775500D01*
X14015000Y-2685500D02*
X13925000Y-2775500D01*
X13925000Y-8083000D02*
X14015000Y-8173000D01*
X14015000Y-8083000D02*
X13925000Y-8173000D01*
X13925000Y-11067500D02*
X14015000Y-11157500D01*
X14015000Y-11067500D02*
X13925000Y-11157500D01*
X13925000Y-16465000D02*
X14015000Y-16555000D01*
X14015000Y-16465000D02*
X13925000Y-16555000D01*
X15385500Y-9670500D02*
X15475500Y-9760500D01*
X15475500Y-9670500D02*
X15385500Y-9760500D01*
X15385500Y-18052500D02*
X15475500Y-18142500D01*
X15475500Y-18052500D02*
X15385500Y-18142500D01*
X15512500Y-3765000D02*
X15602500Y-3855000D01*
X15602500Y-3765000D02*
X15512500Y-3855000D01*
X15512500Y-6559000D02*
X15602500Y-6649000D01*
X15602500Y-6559000D02*
X15512500Y-6649000D01*
X15512500Y-12147000D02*
X15602500Y-12237000D01*
X15602500Y-12147000D02*
X15512500Y-12237000D01*
X15512500Y-14941000D02*
X15602500Y-15031000D01*
X15602500Y-14941000D02*
X15512500Y-15031000D01*
X15957000Y-7130500D02*
X16047000Y-7220500D01*
X16047000Y-7130500D02*
X15957000Y-7220500D01*
X15957000Y-15512500D02*
X16047000Y-15602500D01*
X16047000Y-15512500D02*
X15957000Y-15602500D01*
X16020500Y-8591000D02*
X16110500Y-8681000D01*
X16110500Y-8591000D02*
X16020500Y-8681000D01*
X16020500Y-16973000D02*
X16110500Y-17063000D01*
X16110500Y-16973000D02*
X16020500Y-17063000D01*
X16338000Y-4463500D02*
X16428000Y-4553500D01*
X16428000Y-4463500D02*
X16338000Y-4553500D01*
X16338000Y-5987500D02*
X16428000Y-6077500D01*
X16428000Y-5987500D02*
X16338000Y-6077500D01*
X16338000Y-12845500D02*
X16428000Y-12935500D01*
X16428000Y-12845500D02*
X16338000Y-12935500D01*
X16338000Y-14369500D02*
X16428000Y-14459500D01*
X16428000Y-14369500D02*
X16338000Y-14459500D01*
X17735000Y-4463500D02*
X17825000Y-4553500D01*
X17825000Y-4463500D02*
X17735000Y-4553500D01*
X17735000Y-5987500D02*
X17825000Y-6077500D01*
X17825000Y-5987500D02*
X17735000Y-6077500D01*
X17735000Y-12845500D02*
X17825000Y-12935500D01*
X17825000Y-12845500D02*
X17735000Y-12935500D01*
X17735000Y-14369500D02*
X17825000Y-14459500D01*
X17825000Y-14369500D02*
X17735000Y-14459500D01*
X17925500Y-7702000D02*
X18015500Y-7792000D01*
X18015500Y-7702000D02*
X17925500Y-7792000D01*
X17925500Y-8718000D02*
X18015500Y-8808000D01*
X18015500Y-8718000D02*
X17925500Y-8808000D01*
X17925500Y-16084000D02*
X18015500Y-16174000D01*
X18015500Y-16084000D02*
X17925500Y-16174000D01*
X17925500Y-17100000D02*
X18015500Y-17190000D01*
X18015500Y-17100000D02*
X17925500Y-17190000D01*
X18243000Y-8146500D02*
X18333000Y-8236500D01*
X18333000Y-8146500D02*
X18243000Y-8236500D01*
X18243000Y-16528500D02*
X18333000Y-16618500D01*
X18333000Y-16528500D02*
X18243000Y-16618500D01*
X18433500Y-6559000D02*
X18523500Y-6649000D01*
X18523500Y-6559000D02*
X18433500Y-6649000D01*
X18433500Y-14941000D02*
X18523500Y-15031000D01*
X18523500Y-14941000D02*
X18433500Y-15031000D01*
X18497000Y-9226000D02*
X18587000Y-9316000D01*
X18587000Y-9226000D02*
X18497000Y-9316000D01*
X18497000Y-17608000D02*
X18587000Y-17698000D01*
X18587000Y-17608000D02*
X18497000Y-17698000D01*
X18878000Y-8146500D02*
X18968000Y-8236500D01*
X18968000Y-8146500D02*
X18878000Y-8236500D01*
X18878000Y-16528500D02*
X18968000Y-16618500D01*
X18968000Y-16528500D02*
X18878000Y-16618500D01*
X19513000Y-3765000D02*
X19603000Y-3855000D01*
X19603000Y-3765000D02*
X19513000Y-3855000D01*
X19513000Y-12147000D02*
X19603000Y-12237000D01*
X19603000Y-12147000D02*
X19513000Y-12237000D01*
X20338500Y-2685500D02*
X20428500Y-2775500D01*
X20428500Y-2685500D02*
X20338500Y-2775500D01*
X20338500Y-11067500D02*
X20428500Y-11157500D01*
X20428500Y-11067500D02*
X20338500Y-11157500D01*
X20783000Y-8083000D02*
X20873000Y-8173000D01*
X20873000Y-8083000D02*
X20783000Y-8173000D01*
X20783000Y-16465000D02*
X20873000Y-16555000D01*
X20873000Y-16465000D02*
X20783000Y-16555000D01*
X20910000Y-6559000D02*
X21000000Y-6649000D01*
X21000000Y-6559000D02*
X20910000Y-6649000D01*
X20910000Y-14941000D02*
X21000000Y-15031000D01*
X21000000Y-14941000D02*
X20910000Y-15031000D01*
X20973500Y-9099000D02*
X21063500Y-9189000D01*
X21063500Y-9099000D02*
X20973500Y-9189000D01*
X20973500Y-17481000D02*
X21063500Y-17571000D01*
X21063500Y-17481000D02*
X20973500Y-17571000D01*
X21227500Y-3765000D02*
X21317500Y-3855000D01*
X21317500Y-3765000D02*
X21227500Y-3855000D01*
X21227500Y-12147000D02*
X21317500Y-12237000D01*
X21317500Y-12147000D02*
X21227500Y-12237000D01*
X21418000Y-2685500D02*
X21508000Y-2775500D01*
X21508000Y-2685500D02*
X21418000Y-2775500D01*
X21418000Y-8083000D02*
X21508000Y-8173000D01*
X21508000Y-8083000D02*
X21418000Y-8173000D01*
X21418000Y-11067500D02*
X21508000Y-11157500D01*
X21508000Y-11067500D02*
X21418000Y-11157500D01*
X21418000Y-16465000D02*
X21508000Y-16555000D01*
X21508000Y-16465000D02*
X21418000Y-16555000D01*
X22878500Y-9670500D02*
X22968500Y-9760500D01*
X22968500Y-9670500D02*
X22878500Y-9760500D01*
X22878500Y-18052500D02*
X22968500Y-18142500D01*
X22968500Y-18052500D02*
X22878500Y-18142500D01*
X23005500Y-3765000D02*
X23095500Y-3855000D01*
X23095500Y-3765000D02*
X23005500Y-3855000D01*
X23005500Y-6559000D02*
X23095500Y-6649000D01*
X23095500Y-6559000D02*
X23005500Y-6649000D01*
X23005500Y-12147000D02*
X23095500Y-12237000D01*
X23095500Y-12147000D02*
X23005500Y-12237000D01*
X23005500Y-14941000D02*
X23095500Y-15031000D01*
X23095500Y-14941000D02*
X23005500Y-15031000D01*
X23450000Y-7130500D02*
X23540000Y-7220500D01*
X23540000Y-7130500D02*
X23450000Y-7220500D01*
X23450000Y-15512500D02*
X23540000Y-15602500D01*
X23540000Y-15512500D02*
X23450000Y-15602500D01*
X23513500Y-8591000D02*
X23603500Y-8681000D01*
X23603500Y-8591000D02*
X23513500Y-8681000D01*
X23513500Y-16973000D02*
X23603500Y-17063000D01*
X23603500Y-16973000D02*
X23513500Y-17063000D01*
X23831000Y-4463500D02*
X23921000Y-4553500D01*
X23921000Y-4463500D02*
X23831000Y-4553500D01*
X23831000Y-5987500D02*
X23921000Y-6077500D01*
X23921000Y-5987500D02*
X23831000Y-6077500D01*
X23831000Y-12845500D02*
X23921000Y-12935500D01*
X23921000Y-12845500D02*
X23831000Y-12935500D01*
X23831000Y-14369500D02*
X23921000Y-14459500D01*
X23921000Y-14369500D02*
X23831000Y-14459500D01*
D13*
X1597428Y-20031214D02*
X1597428Y-19731214D01*
X1668857Y-19731214D01*
X1711714Y-19745500D01*
X1740286Y-19774072D01*
X1754571Y-19802643D01*
X1768857Y-19859786D01*
X1768857Y-19902643D01*
X1754571Y-19959786D01*
X1740286Y-19988357D01*
X1711714Y-20016929D01*
X1668857Y-20031214D01*
X1597428Y-20031214D01*
X1897428Y-20031214D02*
X1897428Y-19831214D01*
X1897428Y-19888357D02*
X1911714Y-19859786D01*
X1926000Y-19845500D01*
X1954571Y-19831214D01*
X1983143Y-19831214D01*
X2083143Y-20031214D02*
X2083143Y-19831214D01*
X2083143Y-19731214D02*
X2068857Y-19745500D01*
X2083143Y-19759786D01*
X2097429Y-19745500D01*
X2083143Y-19731214D01*
X2083143Y-19759786D01*
X2268857Y-20031214D02*
X2240286Y-20016929D01*
X2226000Y-19988357D01*
X2226000Y-19731214D01*
X2426000Y-20031214D02*
X2397429Y-20016929D01*
X2383143Y-19988357D01*
X2383143Y-19731214D01*
X2768857Y-20031214D02*
X2768857Y-19731214D01*
X2868857Y-19945500D01*
X2968857Y-19731214D01*
X2968857Y-20031214D01*
X3240286Y-20031214D02*
X3240286Y-19874072D01*
X3226000Y-19845500D01*
X3197428Y-19831214D01*
X3140286Y-19831214D01*
X3111714Y-19845500D01*
X3240286Y-20016929D02*
X3211714Y-20031214D01*
X3140286Y-20031214D01*
X3111714Y-20016929D01*
X3097428Y-19988357D01*
X3097428Y-19959786D01*
X3111714Y-19931214D01*
X3140286Y-19916929D01*
X3211714Y-19916929D01*
X3240286Y-19902643D01*
X3383143Y-19831214D02*
X3383143Y-20131214D01*
X3383143Y-19845500D02*
X3411714Y-19831214D01*
X3468857Y-19831214D01*
X3497428Y-19845500D01*
X3511714Y-19859786D01*
X3526000Y-19888357D01*
X3526000Y-19974072D01*
X3511714Y-20002643D01*
X3497428Y-20016929D01*
X3468857Y-20031214D01*
X3411714Y-20031214D01*
X3383143Y-20016929D01*
X3654571Y-20002643D02*
X3668857Y-20016929D01*
X3654571Y-20031214D01*
X3640286Y-20016929D01*
X3654571Y-20002643D01*
X3654571Y-20031214D01*
X3654571Y-19845500D02*
X3668857Y-19859786D01*
X3654571Y-19874072D01*
X3640286Y-19859786D01*
X3654571Y-19845500D01*
X3654571Y-19874072D01*
X1236000Y-20480500D02*
X1326000Y-20570500D01*
X1326000Y-20480500D02*
X1236000Y-20570500D01*
X1654571Y-20361214D02*
X1683143Y-20361214D01*
X1711714Y-20375500D01*
X1726000Y-20389786D01*
X1740286Y-20418357D01*
X1754571Y-20475500D01*
X1754571Y-20546929D01*
X1740286Y-20604072D01*
X1726000Y-20632643D01*
X1711714Y-20646929D01*
X1683143Y-20661214D01*
X1654571Y-20661214D01*
X1626000Y-20646929D01*
X1611714Y-20632643D01*
X1597428Y-20604072D01*
X1583143Y-20546929D01*
X1583143Y-20475500D01*
X1597428Y-20418357D01*
X1611714Y-20389786D01*
X1626000Y-20375500D01*
X1654571Y-20361214D01*
X1883143Y-20632643D02*
X1897428Y-20646929D01*
X1883143Y-20661214D01*
X1868857Y-20646929D01*
X1883143Y-20632643D01*
X1883143Y-20661214D01*
X2040286Y-20661214D02*
X2097428Y-20661214D01*
X2126000Y-20646929D01*
X2140286Y-20632643D01*
X2168857Y-20589786D01*
X2183143Y-20532643D01*
X2183143Y-20418357D01*
X2168857Y-20389786D01*
X2154571Y-20375500D01*
X2126000Y-20361214D01*
X2068857Y-20361214D01*
X2040286Y-20375500D01*
X2026000Y-20389786D01*
X2011714Y-20418357D01*
X2011714Y-20489786D01*
X2026000Y-20518357D01*
X2040286Y-20532643D01*
X2068857Y-20546929D01*
X2126000Y-20546929D01*
X2154571Y-20532643D01*
X2168857Y-20518357D01*
X2183143Y-20489786D01*
X2368857Y-20361214D02*
X2397429Y-20361214D01*
X2426000Y-20375500D01*
X2440286Y-20389786D01*
X2454571Y-20418357D01*
X2468857Y-20475500D01*
X2468857Y-20546929D01*
X2454571Y-20604072D01*
X2440286Y-20632643D01*
X2426000Y-20646929D01*
X2397429Y-20661214D01*
X2368857Y-20661214D01*
X2340286Y-20646929D01*
X2326000Y-20632643D01*
X2311714Y-20604072D01*
X2297429Y-20546929D01*
X2297429Y-20475500D01*
X2311714Y-20418357D01*
X2326000Y-20389786D01*
X2340286Y-20375500D01*
X2368857Y-20361214D01*
X2597429Y-20661214D02*
X2597429Y-20461214D01*
X2597429Y-20489786D02*
X2611714Y-20475500D01*
X2640286Y-20461214D01*
X2683143Y-20461214D01*
X2711714Y-20475500D01*
X2726000Y-20504072D01*
X2726000Y-20661214D01*
X2726000Y-20504072D02*
X2740286Y-20475500D01*
X2768857Y-20461214D01*
X2811714Y-20461214D01*
X2840286Y-20475500D01*
X2854571Y-20504072D01*
X2854571Y-20661214D01*
X2997428Y-20661214D02*
X2997428Y-20461214D01*
X2997428Y-20489786D02*
X3011714Y-20475500D01*
X3040286Y-20461214D01*
X3083143Y-20461214D01*
X3111714Y-20475500D01*
X3126000Y-20504072D01*
X3126000Y-20661214D01*
X3126000Y-20504072D02*
X3140286Y-20475500D01*
X3168857Y-20461214D01*
X3211714Y-20461214D01*
X3240286Y-20475500D01*
X3254571Y-20504072D01*
X3254571Y-20661214D01*
X3840286Y-20346929D02*
X3583143Y-20732643D01*
X4226000Y-20361214D02*
X4254571Y-20361214D01*
X4283143Y-20375500D01*
X4297428Y-20389786D01*
X4311714Y-20418357D01*
X4326000Y-20475500D01*
X4326000Y-20546929D01*
X4311714Y-20604072D01*
X4297428Y-20632643D01*
X4283143Y-20646929D01*
X4254571Y-20661214D01*
X4226000Y-20661214D01*
X4197428Y-20646929D01*
X4183143Y-20632643D01*
X4168857Y-20604072D01*
X4154571Y-20546929D01*
X4154571Y-20475500D01*
X4168857Y-20418357D01*
X4183143Y-20389786D01*
X4197428Y-20375500D01*
X4226000Y-20361214D01*
X4454571Y-20632643D02*
X4468857Y-20646929D01*
X4454571Y-20661214D01*
X4440286Y-20646929D01*
X4454571Y-20632643D01*
X4454571Y-20661214D01*
X4654571Y-20361214D02*
X4683143Y-20361214D01*
X4711714Y-20375500D01*
X4726000Y-20389786D01*
X4740286Y-20418357D01*
X4754571Y-20475500D01*
X4754571Y-20546929D01*
X4740286Y-20604072D01*
X4726000Y-20632643D01*
X4711714Y-20646929D01*
X4683143Y-20661214D01*
X4654571Y-20661214D01*
X4626000Y-20646929D01*
X4611714Y-20632643D01*
X4597428Y-20604072D01*
X4583143Y-20546929D01*
X4583143Y-20475500D01*
X4597428Y-20418357D01*
X4611714Y-20389786D01*
X4626000Y-20375500D01*
X4654571Y-20361214D01*
X4854571Y-20361214D02*
X5040286Y-20361214D01*
X4940286Y-20475500D01*
X4983143Y-20475500D01*
X5011714Y-20489786D01*
X5026000Y-20504072D01*
X5040286Y-20532643D01*
X5040286Y-20604072D01*
X5026000Y-20632643D01*
X5011714Y-20646929D01*
X4983143Y-20661214D01*
X4897428Y-20661214D01*
X4868857Y-20646929D01*
X4854571Y-20632643D01*
X5311714Y-20361214D02*
X5168857Y-20361214D01*
X5154571Y-20504072D01*
X5168857Y-20489786D01*
X5197428Y-20475500D01*
X5268857Y-20475500D01*
X5297428Y-20489786D01*
X5311714Y-20504072D01*
X5326000Y-20532643D01*
X5326000Y-20604072D01*
X5311714Y-20632643D01*
X5297428Y-20646929D01*
X5268857Y-20661214D01*
X5197428Y-20661214D01*
X5168857Y-20646929D01*
X5154571Y-20632643D01*
X5440286Y-20361214D02*
X5440286Y-20418357D01*
X5554571Y-20361214D02*
X5554571Y-20418357D01*
X5997428Y-20775500D02*
X5983143Y-20761214D01*
X5954571Y-20718357D01*
X5940285Y-20689786D01*
X5926000Y-20646929D01*
X5911714Y-20575500D01*
X5911714Y-20518357D01*
X5926000Y-20446929D01*
X5940285Y-20404072D01*
X5954571Y-20375500D01*
X5983143Y-20332643D01*
X5997428Y-20318357D01*
X6268857Y-20661214D02*
X6097428Y-20661214D01*
X6183143Y-20661214D02*
X6183143Y-20361214D01*
X6154571Y-20404072D01*
X6126000Y-20432643D01*
X6097428Y-20446929D01*
X6368857Y-20361214D02*
X6554571Y-20361214D01*
X6454571Y-20475500D01*
X6497428Y-20475500D01*
X6526000Y-20489786D01*
X6540285Y-20504072D01*
X6554571Y-20532643D01*
X6554571Y-20604072D01*
X6540285Y-20632643D01*
X6526000Y-20646929D01*
X6497428Y-20661214D01*
X6411714Y-20661214D01*
X6383143Y-20646929D01*
X6368857Y-20632643D01*
X6726000Y-20489786D02*
X6697428Y-20475500D01*
X6683143Y-20461214D01*
X6668857Y-20432643D01*
X6668857Y-20418357D01*
X6683143Y-20389786D01*
X6697428Y-20375500D01*
X6726000Y-20361214D01*
X6783143Y-20361214D01*
X6811714Y-20375500D01*
X6826000Y-20389786D01*
X6840285Y-20418357D01*
X6840285Y-20432643D01*
X6826000Y-20461214D01*
X6811714Y-20475500D01*
X6783143Y-20489786D01*
X6726000Y-20489786D01*
X6697428Y-20504072D01*
X6683143Y-20518357D01*
X6668857Y-20546929D01*
X6668857Y-20604072D01*
X6683143Y-20632643D01*
X6697428Y-20646929D01*
X6726000Y-20661214D01*
X6783143Y-20661214D01*
X6811714Y-20646929D01*
X6826000Y-20632643D01*
X6840285Y-20604072D01*
X6840285Y-20546929D01*
X6826000Y-20518357D01*
X6811714Y-20504072D01*
X6783143Y-20489786D01*
X7197428Y-20661214D02*
X7197428Y-20361214D01*
X7326000Y-20661214D02*
X7326000Y-20504072D01*
X7311714Y-20475500D01*
X7283143Y-20461214D01*
X7240285Y-20461214D01*
X7211714Y-20475500D01*
X7197428Y-20489786D01*
X7511714Y-20661214D02*
X7483143Y-20646929D01*
X7468857Y-20632643D01*
X7454571Y-20604072D01*
X7454571Y-20518357D01*
X7468857Y-20489786D01*
X7483143Y-20475500D01*
X7511714Y-20461214D01*
X7554571Y-20461214D01*
X7583143Y-20475500D01*
X7597428Y-20489786D01*
X7611714Y-20518357D01*
X7611714Y-20604072D01*
X7597428Y-20632643D01*
X7583143Y-20646929D01*
X7554571Y-20661214D01*
X7511714Y-20661214D01*
X7783143Y-20661214D02*
X7754571Y-20646929D01*
X7740286Y-20618357D01*
X7740286Y-20361214D01*
X8011714Y-20646929D02*
X7983143Y-20661214D01*
X7926000Y-20661214D01*
X7897428Y-20646929D01*
X7883143Y-20618357D01*
X7883143Y-20504072D01*
X7897428Y-20475500D01*
X7926000Y-20461214D01*
X7983143Y-20461214D01*
X8011714Y-20475500D01*
X8026000Y-20504072D01*
X8026000Y-20532643D01*
X7883143Y-20561214D01*
X8140286Y-20646929D02*
X8168857Y-20661214D01*
X8226000Y-20661214D01*
X8254571Y-20646929D01*
X8268857Y-20618357D01*
X8268857Y-20604072D01*
X8254571Y-20575500D01*
X8226000Y-20561214D01*
X8183143Y-20561214D01*
X8154571Y-20546929D01*
X8140286Y-20518357D01*
X8140286Y-20504072D01*
X8154571Y-20475500D01*
X8183143Y-20461214D01*
X8226000Y-20461214D01*
X8254571Y-20475500D01*
X8368857Y-20775500D02*
X8383143Y-20761214D01*
X8411714Y-20718357D01*
X8426000Y-20689786D01*
X8440286Y-20646929D01*
X8454571Y-20575500D01*
X8454571Y-20518357D01*
X8440286Y-20446929D01*
X8426000Y-20404072D01*
X8411714Y-20375500D01*
X8383143Y-20332643D01*
X8368857Y-20318357D01*
X8911714Y-20775500D02*
X8897428Y-20761214D01*
X8868857Y-20718357D01*
X8854571Y-20689786D01*
X8840286Y-20646929D01*
X8826000Y-20575500D01*
X8826000Y-20518357D01*
X8840286Y-20446929D01*
X8854571Y-20404072D01*
X8868857Y-20375500D01*
X8897428Y-20332643D01*
X8911714Y-20318357D01*
X9026000Y-20461214D02*
X9026000Y-20661214D01*
X9026000Y-20489786D02*
X9040286Y-20475500D01*
X9068857Y-20461214D01*
X9111714Y-20461214D01*
X9140286Y-20475500D01*
X9154571Y-20504072D01*
X9154571Y-20661214D01*
X9340286Y-20661214D02*
X9311714Y-20646929D01*
X9297429Y-20632643D01*
X9283143Y-20604072D01*
X9283143Y-20518357D01*
X9297429Y-20489786D01*
X9311714Y-20475500D01*
X9340286Y-20461214D01*
X9383143Y-20461214D01*
X9411714Y-20475500D01*
X9426000Y-20489786D01*
X9440286Y-20518357D01*
X9440286Y-20604072D01*
X9426000Y-20632643D01*
X9411714Y-20646929D01*
X9383143Y-20661214D01*
X9340286Y-20661214D01*
X9526000Y-20461214D02*
X9640286Y-20461214D01*
X9568857Y-20361214D02*
X9568857Y-20618357D01*
X9583143Y-20646929D01*
X9611714Y-20661214D01*
X9640286Y-20661214D01*
X9968857Y-20461214D02*
X9968857Y-20761214D01*
X9968857Y-20475500D02*
X9997429Y-20461214D01*
X10054571Y-20461214D01*
X10083143Y-20475500D01*
X10097429Y-20489786D01*
X10111714Y-20518357D01*
X10111714Y-20604072D01*
X10097429Y-20632643D01*
X10083143Y-20646929D01*
X10054571Y-20661214D01*
X9997429Y-20661214D01*
X9968857Y-20646929D01*
X10283143Y-20661214D02*
X10254571Y-20646929D01*
X10240286Y-20618357D01*
X10240286Y-20361214D01*
X10526000Y-20661214D02*
X10526000Y-20504072D01*
X10511714Y-20475500D01*
X10483143Y-20461214D01*
X10426000Y-20461214D01*
X10397429Y-20475500D01*
X10526000Y-20646929D02*
X10497429Y-20661214D01*
X10426000Y-20661214D01*
X10397429Y-20646929D01*
X10383143Y-20618357D01*
X10383143Y-20589786D01*
X10397429Y-20561214D01*
X10426000Y-20546929D01*
X10497429Y-20546929D01*
X10526000Y-20532643D01*
X10626000Y-20461214D02*
X10740286Y-20461214D01*
X10668857Y-20361214D02*
X10668857Y-20618357D01*
X10683143Y-20646929D01*
X10711714Y-20661214D01*
X10740286Y-20661214D01*
X10954572Y-20646929D02*
X10926000Y-20661214D01*
X10868857Y-20661214D01*
X10840286Y-20646929D01*
X10826000Y-20618357D01*
X10826000Y-20504072D01*
X10840286Y-20475500D01*
X10868857Y-20461214D01*
X10926000Y-20461214D01*
X10954572Y-20475500D01*
X10968857Y-20504072D01*
X10968857Y-20532643D01*
X10826000Y-20561214D01*
X11226000Y-20661214D02*
X11226000Y-20361214D01*
X11226000Y-20646929D02*
X11197429Y-20661214D01*
X11140286Y-20661214D01*
X11111714Y-20646929D01*
X11097429Y-20632643D01*
X11083143Y-20604072D01*
X11083143Y-20518357D01*
X11097429Y-20489786D01*
X11111714Y-20475500D01*
X11140286Y-20461214D01*
X11197429Y-20461214D01*
X11226000Y-20475500D01*
X11340286Y-20775500D02*
X11354572Y-20761214D01*
X11383143Y-20718357D01*
X11397429Y-20689786D01*
X11411714Y-20646929D01*
X11426000Y-20575500D01*
X11426000Y-20518357D01*
X11411714Y-20446929D01*
X11397429Y-20404072D01*
X11383143Y-20375500D01*
X11354572Y-20332643D01*
X11340286Y-20318357D01*
M02*
