G04 #@! TF.FileFunction,Copper,L2,Bot,Signal*
%FSLAX46Y46*%
G04 Gerber Fmt 4.6, Leading zero omitted, Abs format (unit mm)*
G04 Created by KiCad (PCBNEW 4.0.7-e2-6376~58~ubuntu16.04.1) date Mon Dec 10 15:36:52 2018*
%MOMM*%
%LPD*%
G01*
G04 APERTURE LIST*
%ADD10C,0.100000*%
%ADD11R,1.750000X1.750000*%
%ADD12C,1.750000*%
%ADD13R,1.524000X1.524000*%
%ADD14C,1.524000*%
%ADD15C,1.250000*%
%ADD16O,1.200000X1.750000*%
%ADD17R,1.200000X1.750000*%
%ADD18C,0.500000*%
G04 APERTURE END LIST*
D10*
D11*
X31750000Y-146050000D03*
D12*
X34290000Y-146050000D03*
X36830000Y-146050000D03*
X39370000Y-146050000D03*
X41910000Y-146050000D03*
X44450000Y-146050000D03*
X46990000Y-146050000D03*
X49530000Y-146050000D03*
D11*
X80645000Y-177800000D03*
D12*
X78105000Y-177800000D03*
D11*
X76835000Y-160020000D03*
D12*
X81915000Y-160020000D03*
D11*
X74295000Y-170180000D03*
D12*
X74295000Y-165100000D03*
D13*
X33655000Y-156845000D03*
D14*
X33655000Y-154305000D03*
X36195000Y-156845000D03*
X36195000Y-154305000D03*
X38735000Y-156845000D03*
X38735000Y-154305000D03*
X41275000Y-156845000D03*
X41275000Y-154305000D03*
X43815000Y-156845000D03*
X43815000Y-154305000D03*
X46355000Y-154305000D03*
X48895000Y-154305000D03*
X56515000Y-156845000D03*
X59055000Y-156845000D03*
X61595000Y-156845000D03*
X61595000Y-154305000D03*
X64135000Y-154305000D03*
X66675000Y-156845000D03*
X66675000Y-154305000D03*
X69215000Y-156845000D03*
X69215000Y-154305000D03*
X71755000Y-156845000D03*
X71755000Y-154305000D03*
X74295000Y-156845000D03*
X74295000Y-154305000D03*
X76835000Y-156845000D03*
X76835000Y-154305000D03*
X79375000Y-156845000D03*
X79375000Y-154305000D03*
X81915000Y-156845000D03*
X81915000Y-154305000D03*
D11*
X33655000Y-161925000D03*
D12*
X36195000Y-161925000D03*
X38735000Y-161925000D03*
X41275000Y-161925000D03*
X43815000Y-161925000D03*
X46355000Y-161925000D03*
X48895000Y-161925000D03*
D11*
X53975000Y-161925000D03*
D12*
X56515000Y-161925000D03*
X59055000Y-161925000D03*
X61595000Y-161925000D03*
X64135000Y-161925000D03*
X66675000Y-161925000D03*
X69215000Y-161925000D03*
X71755000Y-161925000D03*
D11*
X57125660Y-172155429D03*
D12*
X59665660Y-172155429D03*
X62205660Y-172155429D03*
X64745660Y-172155429D03*
X35572764Y-173407606D03*
X33032764Y-173407606D03*
X38112764Y-173407606D03*
X61595000Y-136525000D03*
X59055000Y-136525000D03*
X64135000Y-136525000D03*
X67310000Y-141605000D03*
X57150000Y-141605000D03*
X31750000Y-140970000D03*
X31750000Y-130810000D03*
X34290000Y-140970000D03*
X34290000Y-130810000D03*
X36830000Y-140970000D03*
X36830000Y-130810000D03*
D11*
X31750000Y-127000000D03*
D12*
X34290000Y-127000000D03*
X36830000Y-127000000D03*
X39370000Y-127000000D03*
D11*
X52705000Y-127000000D03*
D12*
X55245000Y-127000000D03*
X57785000Y-127000000D03*
X60325000Y-127000000D03*
X62865000Y-127000000D03*
X65405000Y-127000000D03*
X67945000Y-127000000D03*
D11*
X76200000Y-127000000D03*
D12*
X73660000Y-127000000D03*
X71120000Y-127000000D03*
D11*
X38112765Y-170232605D03*
D12*
X35572765Y-170232605D03*
X33032765Y-170232605D03*
D11*
X67310000Y-138430000D03*
D12*
X67310000Y-133350000D03*
D11*
X85090000Y-138430000D03*
D12*
X85090000Y-133350000D03*
D10*
G36*
X64009080Y-131986643D02*
X62771643Y-133224080D01*
X61887760Y-132340197D01*
X63125197Y-131102760D01*
X64009080Y-131986643D01*
X64009080Y-131986643D01*
G37*
D15*
X61334803Y-130903357D02*
X61688357Y-130549803D01*
D11*
X82550000Y-118110000D03*
D12*
X80010000Y-118110000D03*
X77470000Y-118110000D03*
X74930000Y-118110000D03*
X72390000Y-118110000D03*
X69850000Y-118110000D03*
X67310000Y-118110000D03*
X64770000Y-118110000D03*
X62230000Y-118110000D03*
X59690000Y-118110000D03*
X57150000Y-118110000D03*
X54610000Y-118110000D03*
X52070000Y-118110000D03*
X49530000Y-118110000D03*
X46990000Y-118110000D03*
X44450000Y-118110000D03*
X41910000Y-118110000D03*
X39370000Y-118110000D03*
X36830000Y-118110000D03*
X34290000Y-118110000D03*
D11*
X52705000Y-114300000D03*
D12*
X55245000Y-114300000D03*
X57785000Y-114300000D03*
X60325000Y-114300000D03*
X62865000Y-114300000D03*
X65405000Y-114300000D03*
X67945000Y-114300000D03*
D11*
X69850000Y-138430000D03*
D12*
X74930000Y-138430000D03*
X77470000Y-138430000D03*
X80010000Y-138430000D03*
X82550000Y-138430000D03*
X82550000Y-133350000D03*
X80010000Y-133350000D03*
X77470000Y-133350000D03*
X74930000Y-133350000D03*
X69850000Y-133350000D03*
D11*
X52705000Y-146050000D03*
D12*
X55245000Y-146050000D03*
X57785000Y-146050000D03*
X60325000Y-146050000D03*
X62865000Y-146050000D03*
X65405000Y-146050000D03*
X67945000Y-146050000D03*
D11*
X74295000Y-142875000D03*
D12*
X76835000Y-142875000D03*
X79375000Y-142875000D03*
X81915000Y-142875000D03*
D11*
X76835000Y-162560000D03*
D12*
X76835000Y-167640000D03*
X76835000Y-170180000D03*
X76835000Y-172720000D03*
X76835000Y-175260000D03*
X81915000Y-175260000D03*
X81915000Y-172720000D03*
X81915000Y-170180000D03*
X81915000Y-167640000D03*
X81915000Y-162560000D03*
D16*
X58260000Y-169545000D03*
D17*
X63660000Y-169545000D03*
D16*
X61860000Y-169545000D03*
X60060000Y-169545000D03*
D11*
X53340000Y-136525000D03*
D12*
X45720000Y-136525000D03*
D11*
X128270000Y-136525000D03*
D12*
X120650000Y-136525000D03*
D16*
X133190000Y-169545000D03*
D17*
X138590000Y-169545000D03*
D16*
X136790000Y-169545000D03*
X134990000Y-169545000D03*
D11*
X151765000Y-162560000D03*
D12*
X151765000Y-167640000D03*
X151765000Y-170180000D03*
X151765000Y-172720000D03*
X151765000Y-175260000D03*
X156845000Y-175260000D03*
X156845000Y-172720000D03*
X156845000Y-170180000D03*
X156845000Y-167640000D03*
X156845000Y-162560000D03*
D11*
X149225000Y-142875000D03*
D12*
X151765000Y-142875000D03*
X154305000Y-142875000D03*
X156845000Y-142875000D03*
D11*
X127635000Y-146050000D03*
D12*
X130175000Y-146050000D03*
X132715000Y-146050000D03*
X135255000Y-146050000D03*
X137795000Y-146050000D03*
X140335000Y-146050000D03*
X142875000Y-146050000D03*
D11*
X144780000Y-138430000D03*
D12*
X149860000Y-138430000D03*
X152400000Y-138430000D03*
X154940000Y-138430000D03*
X157480000Y-138430000D03*
X157480000Y-133350000D03*
X154940000Y-133350000D03*
X152400000Y-133350000D03*
X149860000Y-133350000D03*
X144780000Y-133350000D03*
D11*
X127635000Y-114300000D03*
D12*
X130175000Y-114300000D03*
X132715000Y-114300000D03*
X135255000Y-114300000D03*
X137795000Y-114300000D03*
X140335000Y-114300000D03*
X142875000Y-114300000D03*
D11*
X157480000Y-118110000D03*
D12*
X154940000Y-118110000D03*
X152400000Y-118110000D03*
X149860000Y-118110000D03*
X147320000Y-118110000D03*
X144780000Y-118110000D03*
X142240000Y-118110000D03*
X139700000Y-118110000D03*
X137160000Y-118110000D03*
X134620000Y-118110000D03*
X132080000Y-118110000D03*
X129540000Y-118110000D03*
X127000000Y-118110000D03*
X124460000Y-118110000D03*
X121920000Y-118110000D03*
X119380000Y-118110000D03*
X116840000Y-118110000D03*
X114300000Y-118110000D03*
X111760000Y-118110000D03*
X109220000Y-118110000D03*
D10*
G36*
X138939080Y-131986643D02*
X137701643Y-133224080D01*
X136817760Y-132340197D01*
X138055197Y-131102760D01*
X138939080Y-131986643D01*
X138939080Y-131986643D01*
G37*
D15*
X136264803Y-130903357D02*
X136618357Y-130549803D01*
D11*
X160020000Y-138430000D03*
D12*
X160020000Y-133350000D03*
D11*
X142240000Y-138430000D03*
D12*
X142240000Y-133350000D03*
D11*
X113042765Y-170232605D03*
D12*
X110502765Y-170232605D03*
X107962765Y-170232605D03*
D11*
X151130000Y-127000000D03*
D12*
X148590000Y-127000000D03*
X146050000Y-127000000D03*
D11*
X127635000Y-127000000D03*
D12*
X130175000Y-127000000D03*
X132715000Y-127000000D03*
X135255000Y-127000000D03*
X137795000Y-127000000D03*
X140335000Y-127000000D03*
X142875000Y-127000000D03*
D11*
X106680000Y-127000000D03*
D12*
X109220000Y-127000000D03*
X111760000Y-127000000D03*
X114300000Y-127000000D03*
X111760000Y-140970000D03*
X111760000Y-130810000D03*
X109220000Y-140970000D03*
X109220000Y-130810000D03*
X106680000Y-140970000D03*
X106680000Y-130810000D03*
X142240000Y-141605000D03*
X132080000Y-141605000D03*
X136525000Y-136525000D03*
X133985000Y-136525000D03*
X139065000Y-136525000D03*
X110502764Y-173407606D03*
X107962764Y-173407606D03*
X113042764Y-173407606D03*
D11*
X132055660Y-172155429D03*
D12*
X134595660Y-172155429D03*
X137135660Y-172155429D03*
X139675660Y-172155429D03*
D11*
X128905000Y-161925000D03*
D12*
X131445000Y-161925000D03*
X133985000Y-161925000D03*
X136525000Y-161925000D03*
X139065000Y-161925000D03*
X141605000Y-161925000D03*
X144145000Y-161925000D03*
X146685000Y-161925000D03*
D11*
X108585000Y-161925000D03*
D12*
X111125000Y-161925000D03*
X113665000Y-161925000D03*
X116205000Y-161925000D03*
X118745000Y-161925000D03*
X121285000Y-161925000D03*
X123825000Y-161925000D03*
D13*
X108585000Y-156845000D03*
D14*
X108585000Y-154305000D03*
X111125000Y-156845000D03*
X111125000Y-154305000D03*
X113665000Y-156845000D03*
X113665000Y-154305000D03*
X116205000Y-156845000D03*
X116205000Y-154305000D03*
X118745000Y-156845000D03*
X118745000Y-154305000D03*
X121285000Y-154305000D03*
X123825000Y-154305000D03*
X131445000Y-156845000D03*
X133985000Y-156845000D03*
X136525000Y-156845000D03*
X136525000Y-154305000D03*
X139065000Y-154305000D03*
X141605000Y-156845000D03*
X141605000Y-154305000D03*
X144145000Y-156845000D03*
X144145000Y-154305000D03*
X146685000Y-156845000D03*
X146685000Y-154305000D03*
X149225000Y-156845000D03*
X149225000Y-154305000D03*
X151765000Y-156845000D03*
X151765000Y-154305000D03*
X154305000Y-156845000D03*
X154305000Y-154305000D03*
X156845000Y-156845000D03*
X156845000Y-154305000D03*
D11*
X149225000Y-170180000D03*
D12*
X149225000Y-165100000D03*
D11*
X151765000Y-160020000D03*
D12*
X156845000Y-160020000D03*
D11*
X155575000Y-177800000D03*
D12*
X153035000Y-177800000D03*
D11*
X106680000Y-146050000D03*
D12*
X109220000Y-146050000D03*
X111760000Y-146050000D03*
X114300000Y-146050000D03*
X116840000Y-146050000D03*
X119380000Y-146050000D03*
X121920000Y-146050000D03*
X124460000Y-146050000D03*
D11*
X203200000Y-136525000D03*
D12*
X195580000Y-136525000D03*
D16*
X208120000Y-169545000D03*
D17*
X213520000Y-169545000D03*
D16*
X211720000Y-169545000D03*
X209920000Y-169545000D03*
D11*
X226695000Y-162560000D03*
D12*
X226695000Y-167640000D03*
X226695000Y-170180000D03*
X226695000Y-172720000D03*
X226695000Y-175260000D03*
X231775000Y-175260000D03*
X231775000Y-172720000D03*
X231775000Y-170180000D03*
X231775000Y-167640000D03*
X231775000Y-162560000D03*
D11*
X224155000Y-142875000D03*
D12*
X226695000Y-142875000D03*
X229235000Y-142875000D03*
X231775000Y-142875000D03*
D11*
X202565000Y-146050000D03*
D12*
X205105000Y-146050000D03*
X207645000Y-146050000D03*
X210185000Y-146050000D03*
X212725000Y-146050000D03*
X215265000Y-146050000D03*
X217805000Y-146050000D03*
D11*
X219710000Y-138430000D03*
D12*
X224790000Y-138430000D03*
X227330000Y-138430000D03*
X229870000Y-138430000D03*
X232410000Y-138430000D03*
X232410000Y-133350000D03*
X229870000Y-133350000D03*
X227330000Y-133350000D03*
X224790000Y-133350000D03*
X219710000Y-133350000D03*
D11*
X202565000Y-114300000D03*
D12*
X205105000Y-114300000D03*
X207645000Y-114300000D03*
X210185000Y-114300000D03*
X212725000Y-114300000D03*
X215265000Y-114300000D03*
X217805000Y-114300000D03*
D11*
X232410000Y-118110000D03*
D12*
X229870000Y-118110000D03*
X227330000Y-118110000D03*
X224790000Y-118110000D03*
X222250000Y-118110000D03*
X219710000Y-118110000D03*
X217170000Y-118110000D03*
X214630000Y-118110000D03*
X212090000Y-118110000D03*
X209550000Y-118110000D03*
X207010000Y-118110000D03*
X204470000Y-118110000D03*
X201930000Y-118110000D03*
X199390000Y-118110000D03*
X196850000Y-118110000D03*
X194310000Y-118110000D03*
X191770000Y-118110000D03*
X189230000Y-118110000D03*
X186690000Y-118110000D03*
X184150000Y-118110000D03*
D10*
G36*
X213869080Y-131986643D02*
X212631643Y-133224080D01*
X211747760Y-132340197D01*
X212985197Y-131102760D01*
X213869080Y-131986643D01*
X213869080Y-131986643D01*
G37*
D15*
X211194803Y-130903357D02*
X211548357Y-130549803D01*
D11*
X234950000Y-138430000D03*
D12*
X234950000Y-133350000D03*
D11*
X217170000Y-138430000D03*
D12*
X217170000Y-133350000D03*
D11*
X187972765Y-170232605D03*
D12*
X185432765Y-170232605D03*
X182892765Y-170232605D03*
D11*
X226060000Y-127000000D03*
D12*
X223520000Y-127000000D03*
X220980000Y-127000000D03*
D11*
X202565000Y-127000000D03*
D12*
X205105000Y-127000000D03*
X207645000Y-127000000D03*
X210185000Y-127000000D03*
X212725000Y-127000000D03*
X215265000Y-127000000D03*
X217805000Y-127000000D03*
D11*
X181610000Y-127000000D03*
D12*
X184150000Y-127000000D03*
X186690000Y-127000000D03*
X189230000Y-127000000D03*
X186690000Y-140970000D03*
X186690000Y-130810000D03*
X184150000Y-140970000D03*
X184150000Y-130810000D03*
X181610000Y-140970000D03*
X181610000Y-130810000D03*
X217170000Y-141605000D03*
X207010000Y-141605000D03*
X211455000Y-136525000D03*
X208915000Y-136525000D03*
X213995000Y-136525000D03*
X185432764Y-173407606D03*
X182892764Y-173407606D03*
X187972764Y-173407606D03*
D11*
X206985660Y-172155429D03*
D12*
X209525660Y-172155429D03*
X212065660Y-172155429D03*
X214605660Y-172155429D03*
D11*
X203835000Y-161925000D03*
D12*
X206375000Y-161925000D03*
X208915000Y-161925000D03*
X211455000Y-161925000D03*
X213995000Y-161925000D03*
X216535000Y-161925000D03*
X219075000Y-161925000D03*
X221615000Y-161925000D03*
D11*
X183515000Y-161925000D03*
D12*
X186055000Y-161925000D03*
X188595000Y-161925000D03*
X191135000Y-161925000D03*
X193675000Y-161925000D03*
X196215000Y-161925000D03*
X198755000Y-161925000D03*
D13*
X183515000Y-156845000D03*
D14*
X183515000Y-154305000D03*
X186055000Y-156845000D03*
X186055000Y-154305000D03*
X188595000Y-156845000D03*
X188595000Y-154305000D03*
X191135000Y-156845000D03*
X191135000Y-154305000D03*
X193675000Y-156845000D03*
X193675000Y-154305000D03*
X196215000Y-154305000D03*
X198755000Y-154305000D03*
X206375000Y-156845000D03*
X208915000Y-156845000D03*
X211455000Y-156845000D03*
X211455000Y-154305000D03*
X213995000Y-154305000D03*
X216535000Y-156845000D03*
X216535000Y-154305000D03*
X219075000Y-156845000D03*
X219075000Y-154305000D03*
X221615000Y-156845000D03*
X221615000Y-154305000D03*
X224155000Y-156845000D03*
X224155000Y-154305000D03*
X226695000Y-156845000D03*
X226695000Y-154305000D03*
X229235000Y-156845000D03*
X229235000Y-154305000D03*
X231775000Y-156845000D03*
X231775000Y-154305000D03*
D11*
X224155000Y-170180000D03*
D12*
X224155000Y-165100000D03*
D11*
X226695000Y-160020000D03*
D12*
X231775000Y-160020000D03*
D11*
X230505000Y-177800000D03*
D12*
X227965000Y-177800000D03*
D11*
X181610000Y-146050000D03*
D12*
X184150000Y-146050000D03*
X186690000Y-146050000D03*
X189230000Y-146050000D03*
X191770000Y-146050000D03*
X194310000Y-146050000D03*
X196850000Y-146050000D03*
X199390000Y-146050000D03*
D11*
X181610000Y-62230000D03*
D12*
X184150000Y-62230000D03*
X186690000Y-62230000D03*
X189230000Y-62230000D03*
X191770000Y-62230000D03*
X194310000Y-62230000D03*
X196850000Y-62230000D03*
X199390000Y-62230000D03*
D11*
X230505000Y-93980000D03*
D12*
X227965000Y-93980000D03*
D11*
X226695000Y-76200000D03*
D12*
X231775000Y-76200000D03*
D11*
X224155000Y-86360000D03*
D12*
X224155000Y-81280000D03*
D13*
X183515000Y-73025000D03*
D14*
X183515000Y-70485000D03*
X186055000Y-73025000D03*
X186055000Y-70485000D03*
X188595000Y-73025000D03*
X188595000Y-70485000D03*
X191135000Y-73025000D03*
X191135000Y-70485000D03*
X193675000Y-73025000D03*
X193675000Y-70485000D03*
X196215000Y-70485000D03*
X198755000Y-70485000D03*
X206375000Y-73025000D03*
X208915000Y-73025000D03*
X211455000Y-73025000D03*
X211455000Y-70485000D03*
X213995000Y-70485000D03*
X216535000Y-73025000D03*
X216535000Y-70485000D03*
X219075000Y-73025000D03*
X219075000Y-70485000D03*
X221615000Y-73025000D03*
X221615000Y-70485000D03*
X224155000Y-73025000D03*
X224155000Y-70485000D03*
X226695000Y-73025000D03*
X226695000Y-70485000D03*
X229235000Y-73025000D03*
X229235000Y-70485000D03*
X231775000Y-73025000D03*
X231775000Y-70485000D03*
D11*
X183515000Y-78105000D03*
D12*
X186055000Y-78105000D03*
X188595000Y-78105000D03*
X191135000Y-78105000D03*
X193675000Y-78105000D03*
X196215000Y-78105000D03*
X198755000Y-78105000D03*
D11*
X203835000Y-78105000D03*
D12*
X206375000Y-78105000D03*
X208915000Y-78105000D03*
X211455000Y-78105000D03*
X213995000Y-78105000D03*
X216535000Y-78105000D03*
X219075000Y-78105000D03*
X221615000Y-78105000D03*
D11*
X206985660Y-88335429D03*
D12*
X209525660Y-88335429D03*
X212065660Y-88335429D03*
X214605660Y-88335429D03*
X185432764Y-89587606D03*
X182892764Y-89587606D03*
X187972764Y-89587606D03*
X211455000Y-52705000D03*
X208915000Y-52705000D03*
X213995000Y-52705000D03*
X217170000Y-57785000D03*
X207010000Y-57785000D03*
X181610000Y-57150000D03*
X181610000Y-46990000D03*
X184150000Y-57150000D03*
X184150000Y-46990000D03*
X186690000Y-57150000D03*
X186690000Y-46990000D03*
D11*
X181610000Y-43180000D03*
D12*
X184150000Y-43180000D03*
X186690000Y-43180000D03*
X189230000Y-43180000D03*
D11*
X202565000Y-43180000D03*
D12*
X205105000Y-43180000D03*
X207645000Y-43180000D03*
X210185000Y-43180000D03*
X212725000Y-43180000D03*
X215265000Y-43180000D03*
X217805000Y-43180000D03*
D11*
X226060000Y-43180000D03*
D12*
X223520000Y-43180000D03*
X220980000Y-43180000D03*
D11*
X187972765Y-86412605D03*
D12*
X185432765Y-86412605D03*
X182892765Y-86412605D03*
D11*
X217170000Y-54610000D03*
D12*
X217170000Y-49530000D03*
D11*
X234950000Y-54610000D03*
D12*
X234950000Y-49530000D03*
D10*
G36*
X213869080Y-48166643D02*
X212631643Y-49404080D01*
X211747760Y-48520197D01*
X212985197Y-47282760D01*
X213869080Y-48166643D01*
X213869080Y-48166643D01*
G37*
D15*
X211194803Y-47083357D02*
X211548357Y-46729803D01*
D11*
X232410000Y-34290000D03*
D12*
X229870000Y-34290000D03*
X227330000Y-34290000D03*
X224790000Y-34290000D03*
X222250000Y-34290000D03*
X219710000Y-34290000D03*
X217170000Y-34290000D03*
X214630000Y-34290000D03*
X212090000Y-34290000D03*
X209550000Y-34290000D03*
X207010000Y-34290000D03*
X204470000Y-34290000D03*
X201930000Y-34290000D03*
X199390000Y-34290000D03*
X196850000Y-34290000D03*
X194310000Y-34290000D03*
X191770000Y-34290000D03*
X189230000Y-34290000D03*
X186690000Y-34290000D03*
X184150000Y-34290000D03*
D11*
X202565000Y-30480000D03*
D12*
X205105000Y-30480000D03*
X207645000Y-30480000D03*
X210185000Y-30480000D03*
X212725000Y-30480000D03*
X215265000Y-30480000D03*
X217805000Y-30480000D03*
D11*
X219710000Y-54610000D03*
D12*
X224790000Y-54610000D03*
X227330000Y-54610000D03*
X229870000Y-54610000D03*
X232410000Y-54610000D03*
X232410000Y-49530000D03*
X229870000Y-49530000D03*
X227330000Y-49530000D03*
X224790000Y-49530000D03*
X219710000Y-49530000D03*
D11*
X202565000Y-62230000D03*
D12*
X205105000Y-62230000D03*
X207645000Y-62230000D03*
X210185000Y-62230000D03*
X212725000Y-62230000D03*
X215265000Y-62230000D03*
X217805000Y-62230000D03*
D11*
X224155000Y-59055000D03*
D12*
X226695000Y-59055000D03*
X229235000Y-59055000D03*
X231775000Y-59055000D03*
D11*
X226695000Y-78740000D03*
D12*
X226695000Y-83820000D03*
X226695000Y-86360000D03*
X226695000Y-88900000D03*
X226695000Y-91440000D03*
X231775000Y-91440000D03*
X231775000Y-88900000D03*
X231775000Y-86360000D03*
X231775000Y-83820000D03*
X231775000Y-78740000D03*
D16*
X208120000Y-85725000D03*
D17*
X213520000Y-85725000D03*
D16*
X211720000Y-85725000D03*
X209920000Y-85725000D03*
D11*
X203200000Y-52705000D03*
D12*
X195580000Y-52705000D03*
D11*
X106680000Y-62230000D03*
D12*
X109220000Y-62230000D03*
X111760000Y-62230000D03*
X114300000Y-62230000D03*
X116840000Y-62230000D03*
X119380000Y-62230000D03*
X121920000Y-62230000D03*
X124460000Y-62230000D03*
D11*
X155575000Y-93980000D03*
D12*
X153035000Y-93980000D03*
D11*
X151765000Y-76200000D03*
D12*
X156845000Y-76200000D03*
D11*
X149225000Y-86360000D03*
D12*
X149225000Y-81280000D03*
D13*
X108585000Y-73025000D03*
D14*
X108585000Y-70485000D03*
X111125000Y-73025000D03*
X111125000Y-70485000D03*
X113665000Y-73025000D03*
X113665000Y-70485000D03*
X116205000Y-73025000D03*
X116205000Y-70485000D03*
X118745000Y-73025000D03*
X118745000Y-70485000D03*
X121285000Y-70485000D03*
X123825000Y-70485000D03*
X131445000Y-73025000D03*
X133985000Y-73025000D03*
X136525000Y-73025000D03*
X136525000Y-70485000D03*
X139065000Y-70485000D03*
X141605000Y-73025000D03*
X141605000Y-70485000D03*
X144145000Y-73025000D03*
X144145000Y-70485000D03*
X146685000Y-73025000D03*
X146685000Y-70485000D03*
X149225000Y-73025000D03*
X149225000Y-70485000D03*
X151765000Y-73025000D03*
X151765000Y-70485000D03*
X154305000Y-73025000D03*
X154305000Y-70485000D03*
X156845000Y-73025000D03*
X156845000Y-70485000D03*
D11*
X108585000Y-78105000D03*
D12*
X111125000Y-78105000D03*
X113665000Y-78105000D03*
X116205000Y-78105000D03*
X118745000Y-78105000D03*
X121285000Y-78105000D03*
X123825000Y-78105000D03*
D11*
X128905000Y-78105000D03*
D12*
X131445000Y-78105000D03*
X133985000Y-78105000D03*
X136525000Y-78105000D03*
X139065000Y-78105000D03*
X141605000Y-78105000D03*
X144145000Y-78105000D03*
X146685000Y-78105000D03*
D11*
X132055660Y-88335429D03*
D12*
X134595660Y-88335429D03*
X137135660Y-88335429D03*
X139675660Y-88335429D03*
X110502764Y-89587606D03*
X107962764Y-89587606D03*
X113042764Y-89587606D03*
X136525000Y-52705000D03*
X133985000Y-52705000D03*
X139065000Y-52705000D03*
X142240000Y-57785000D03*
X132080000Y-57785000D03*
X106680000Y-57150000D03*
X106680000Y-46990000D03*
X109220000Y-57150000D03*
X109220000Y-46990000D03*
X111760000Y-57150000D03*
X111760000Y-46990000D03*
D11*
X106680000Y-43180000D03*
D12*
X109220000Y-43180000D03*
X111760000Y-43180000D03*
X114300000Y-43180000D03*
D11*
X127635000Y-43180000D03*
D12*
X130175000Y-43180000D03*
X132715000Y-43180000D03*
X135255000Y-43180000D03*
X137795000Y-43180000D03*
X140335000Y-43180000D03*
X142875000Y-43180000D03*
D11*
X151130000Y-43180000D03*
D12*
X148590000Y-43180000D03*
X146050000Y-43180000D03*
D11*
X113042765Y-86412605D03*
D12*
X110502765Y-86412605D03*
X107962765Y-86412605D03*
D11*
X142240000Y-54610000D03*
D12*
X142240000Y-49530000D03*
D11*
X160020000Y-54610000D03*
D12*
X160020000Y-49530000D03*
D10*
G36*
X138939080Y-48166643D02*
X137701643Y-49404080D01*
X136817760Y-48520197D01*
X138055197Y-47282760D01*
X138939080Y-48166643D01*
X138939080Y-48166643D01*
G37*
D15*
X136264803Y-47083357D02*
X136618357Y-46729803D01*
D11*
X157480000Y-34290000D03*
D12*
X154940000Y-34290000D03*
X152400000Y-34290000D03*
X149860000Y-34290000D03*
X147320000Y-34290000D03*
X144780000Y-34290000D03*
X142240000Y-34290000D03*
X139700000Y-34290000D03*
X137160000Y-34290000D03*
X134620000Y-34290000D03*
X132080000Y-34290000D03*
X129540000Y-34290000D03*
X127000000Y-34290000D03*
X124460000Y-34290000D03*
X121920000Y-34290000D03*
X119380000Y-34290000D03*
X116840000Y-34290000D03*
X114300000Y-34290000D03*
X111760000Y-34290000D03*
X109220000Y-34290000D03*
D11*
X127635000Y-30480000D03*
D12*
X130175000Y-30480000D03*
X132715000Y-30480000D03*
X135255000Y-30480000D03*
X137795000Y-30480000D03*
X140335000Y-30480000D03*
X142875000Y-30480000D03*
D11*
X144780000Y-54610000D03*
D12*
X149860000Y-54610000D03*
X152400000Y-54610000D03*
X154940000Y-54610000D03*
X157480000Y-54610000D03*
X157480000Y-49530000D03*
X154940000Y-49530000D03*
X152400000Y-49530000D03*
X149860000Y-49530000D03*
X144780000Y-49530000D03*
D11*
X127635000Y-62230000D03*
D12*
X130175000Y-62230000D03*
X132715000Y-62230000D03*
X135255000Y-62230000D03*
X137795000Y-62230000D03*
X140335000Y-62230000D03*
X142875000Y-62230000D03*
D11*
X149225000Y-59055000D03*
D12*
X151765000Y-59055000D03*
X154305000Y-59055000D03*
X156845000Y-59055000D03*
D11*
X151765000Y-78740000D03*
D12*
X151765000Y-83820000D03*
X151765000Y-86360000D03*
X151765000Y-88900000D03*
X151765000Y-91440000D03*
X156845000Y-91440000D03*
X156845000Y-88900000D03*
X156845000Y-86360000D03*
X156845000Y-83820000D03*
X156845000Y-78740000D03*
D16*
X133190000Y-85725000D03*
D17*
X138590000Y-85725000D03*
D16*
X136790000Y-85725000D03*
X134990000Y-85725000D03*
D11*
X128270000Y-52705000D03*
D12*
X120650000Y-52705000D03*
D11*
X53340000Y-52705000D03*
D12*
X45720000Y-52705000D03*
D16*
X58260000Y-85725000D03*
D17*
X63660000Y-85725000D03*
D16*
X61860000Y-85725000D03*
X60060000Y-85725000D03*
D11*
X76835000Y-78740000D03*
D12*
X76835000Y-83820000D03*
X76835000Y-86360000D03*
X76835000Y-88900000D03*
X76835000Y-91440000D03*
X81915000Y-91440000D03*
X81915000Y-88900000D03*
X81915000Y-86360000D03*
X81915000Y-83820000D03*
X81915000Y-78740000D03*
D11*
X74295000Y-59055000D03*
D12*
X76835000Y-59055000D03*
X79375000Y-59055000D03*
X81915000Y-59055000D03*
D11*
X52705000Y-62230000D03*
D12*
X55245000Y-62230000D03*
X57785000Y-62230000D03*
X60325000Y-62230000D03*
X62865000Y-62230000D03*
X65405000Y-62230000D03*
X67945000Y-62230000D03*
D11*
X69850000Y-54610000D03*
D12*
X74930000Y-54610000D03*
X77470000Y-54610000D03*
X80010000Y-54610000D03*
X82550000Y-54610000D03*
X82550000Y-49530000D03*
X80010000Y-49530000D03*
X77470000Y-49530000D03*
X74930000Y-49530000D03*
X69850000Y-49530000D03*
D11*
X52705000Y-30480000D03*
D12*
X55245000Y-30480000D03*
X57785000Y-30480000D03*
X60325000Y-30480000D03*
X62865000Y-30480000D03*
X65405000Y-30480000D03*
X67945000Y-30480000D03*
D11*
X82550000Y-34290000D03*
D12*
X80010000Y-34290000D03*
X77470000Y-34290000D03*
X74930000Y-34290000D03*
X72390000Y-34290000D03*
X69850000Y-34290000D03*
X67310000Y-34290000D03*
X64770000Y-34290000D03*
X62230000Y-34290000D03*
X59690000Y-34290000D03*
X57150000Y-34290000D03*
X54610000Y-34290000D03*
X52070000Y-34290000D03*
X49530000Y-34290000D03*
X46990000Y-34290000D03*
X44450000Y-34290000D03*
X41910000Y-34290000D03*
X39370000Y-34290000D03*
X36830000Y-34290000D03*
X34290000Y-34290000D03*
D10*
G36*
X64009080Y-48166643D02*
X62771643Y-49404080D01*
X61887760Y-48520197D01*
X63125197Y-47282760D01*
X64009080Y-48166643D01*
X64009080Y-48166643D01*
G37*
D15*
X61334803Y-47083357D02*
X61688357Y-46729803D01*
D11*
X85090000Y-54610000D03*
D12*
X85090000Y-49530000D03*
D11*
X67310000Y-54610000D03*
D12*
X67310000Y-49530000D03*
D11*
X38112765Y-86412605D03*
D12*
X35572765Y-86412605D03*
X33032765Y-86412605D03*
D11*
X76200000Y-43180000D03*
D12*
X73660000Y-43180000D03*
X71120000Y-43180000D03*
D11*
X52705000Y-43180000D03*
D12*
X55245000Y-43180000D03*
X57785000Y-43180000D03*
X60325000Y-43180000D03*
X62865000Y-43180000D03*
X65405000Y-43180000D03*
X67945000Y-43180000D03*
D11*
X31750000Y-43180000D03*
D12*
X34290000Y-43180000D03*
X36830000Y-43180000D03*
X39370000Y-43180000D03*
X36830000Y-57150000D03*
X36830000Y-46990000D03*
X34290000Y-57150000D03*
X34290000Y-46990000D03*
X31750000Y-57150000D03*
X31750000Y-46990000D03*
X67310000Y-57785000D03*
X57150000Y-57785000D03*
X61595000Y-52705000D03*
X59055000Y-52705000D03*
X64135000Y-52705000D03*
X35572764Y-89587606D03*
X33032764Y-89587606D03*
X38112764Y-89587606D03*
D11*
X57125660Y-88335429D03*
D12*
X59665660Y-88335429D03*
X62205660Y-88335429D03*
X64745660Y-88335429D03*
D11*
X53975000Y-78105000D03*
D12*
X56515000Y-78105000D03*
X59055000Y-78105000D03*
X61595000Y-78105000D03*
X64135000Y-78105000D03*
X66675000Y-78105000D03*
X69215000Y-78105000D03*
X71755000Y-78105000D03*
D11*
X33655000Y-78105000D03*
D12*
X36195000Y-78105000D03*
X38735000Y-78105000D03*
X41275000Y-78105000D03*
X43815000Y-78105000D03*
X46355000Y-78105000D03*
X48895000Y-78105000D03*
D13*
X33655000Y-73025000D03*
D14*
X33655000Y-70485000D03*
X36195000Y-73025000D03*
X36195000Y-70485000D03*
X38735000Y-73025000D03*
X38735000Y-70485000D03*
X41275000Y-73025000D03*
X41275000Y-70485000D03*
X43815000Y-73025000D03*
X43815000Y-70485000D03*
X46355000Y-70485000D03*
X48895000Y-70485000D03*
X56515000Y-73025000D03*
X59055000Y-73025000D03*
X61595000Y-73025000D03*
X61595000Y-70485000D03*
X64135000Y-70485000D03*
X66675000Y-73025000D03*
X66675000Y-70485000D03*
X69215000Y-73025000D03*
X69215000Y-70485000D03*
X71755000Y-73025000D03*
X71755000Y-70485000D03*
X74295000Y-73025000D03*
X74295000Y-70485000D03*
X76835000Y-73025000D03*
X76835000Y-70485000D03*
X79375000Y-73025000D03*
X79375000Y-70485000D03*
X81915000Y-73025000D03*
X81915000Y-70485000D03*
D11*
X74295000Y-86360000D03*
D12*
X74295000Y-81280000D03*
D11*
X76835000Y-76200000D03*
D12*
X81915000Y-76200000D03*
D11*
X80645000Y-93980000D03*
D12*
X78105000Y-93980000D03*
D11*
X31750000Y-62230000D03*
D12*
X34290000Y-62230000D03*
X36830000Y-62230000D03*
X39370000Y-62230000D03*
X41910000Y-62230000D03*
X44450000Y-62230000D03*
X46990000Y-62230000D03*
X49530000Y-62230000D03*
D18*
X45653000Y-137033000D02*
X45720000Y-137033000D01*
X45720000Y-137795000D02*
X45720000Y-137033000D01*
X45720000Y-139065000D02*
X45720000Y-137795000D01*
X51752500Y-145097500D02*
X45720000Y-139065000D01*
X51780000Y-145125000D02*
X51752500Y-145097500D01*
X52705000Y-146050000D02*
X51780000Y-145125000D01*
X38735000Y-125095000D02*
X36830000Y-127000000D01*
X63500000Y-125095000D02*
X57150000Y-125095000D01*
X57150000Y-125095000D02*
X53975000Y-125095000D01*
X53975000Y-125095000D02*
X38735000Y-125095000D01*
X36830000Y-127000000D02*
X34925000Y-125095000D01*
X34925000Y-125095000D02*
X38735000Y-125095000D01*
X62230000Y-147955000D02*
X60325000Y-146050000D01*
X30480000Y-147955000D02*
X29845000Y-147320000D01*
X29845000Y-147320000D02*
X29845000Y-132080000D01*
X29845000Y-125730000D02*
X29845000Y-132080000D01*
X30480000Y-125095000D02*
X29845000Y-125730000D01*
X30480000Y-125095000D02*
X34925000Y-125095000D01*
X50800000Y-147955000D02*
X30480000Y-147955000D01*
X54610000Y-147955000D02*
X50800000Y-147955000D01*
X58420000Y-147955000D02*
X54610000Y-147955000D01*
X62230000Y-147955000D02*
X58420000Y-147955000D01*
X52705000Y-146050000D02*
X50800000Y-147955000D01*
X52705000Y-146050000D02*
X54610000Y-147955000D01*
X60325000Y-146050000D02*
X58420000Y-147955000D01*
X64135000Y-125095000D02*
X63500000Y-125095000D01*
X67310000Y-125095000D02*
X64135000Y-125095000D01*
X73025000Y-125095000D02*
X67310000Y-125095000D01*
X74295000Y-125095000D02*
X73025000Y-125095000D01*
X78105000Y-125095000D02*
X74295000Y-125095000D01*
X86995000Y-132080000D02*
X86995000Y-135255000D01*
X86995000Y-128905000D02*
X86995000Y-132080000D01*
X85725000Y-125095000D02*
X86360000Y-125095000D01*
X86995000Y-125730000D02*
X86995000Y-126365000D01*
X86360000Y-125095000D02*
X86995000Y-125730000D01*
X86995000Y-128905000D02*
X86995000Y-126365000D01*
X85725000Y-125095000D02*
X78105000Y-125095000D01*
X86995000Y-147320000D02*
X86995000Y-146685000D01*
X86360000Y-147955000D02*
X86995000Y-147320000D01*
X86995000Y-135255000D02*
X86995000Y-146685000D01*
X85725000Y-147955000D02*
X62230000Y-147955000D01*
X85725000Y-147955000D02*
X86360000Y-147955000D01*
X61678420Y-130726580D02*
X65405000Y-127000000D01*
X61511580Y-130726580D02*
X61678420Y-130726580D01*
X65405000Y-127000000D02*
X63500000Y-125095000D01*
X65405000Y-127000000D02*
X67310000Y-125095000D01*
X76200000Y-127000000D02*
X74295000Y-125095000D01*
X76200000Y-127000000D02*
X78105000Y-125095000D01*
X86995000Y-131445000D02*
X86995000Y-132080000D01*
X85090000Y-133350000D02*
X86995000Y-131445000D01*
X85090000Y-133350000D02*
X86995000Y-135255000D01*
X82550000Y-133350000D02*
X85090000Y-133350000D01*
X64135000Y-136525000D02*
X67310000Y-133350000D01*
X67310000Y-133350000D02*
X69850000Y-133350000D01*
X69850000Y-133350000D02*
X76200000Y-127000000D01*
X45720000Y-137795000D02*
X45720000Y-136525000D01*
X120650000Y-137795000D02*
X120650000Y-136525000D01*
X144780000Y-133350000D02*
X151130000Y-127000000D01*
X142240000Y-133350000D02*
X144780000Y-133350000D01*
X139065000Y-136525000D02*
X142240000Y-133350000D01*
X157480000Y-133350000D02*
X160020000Y-133350000D01*
X160020000Y-133350000D02*
X161925000Y-135255000D01*
X160020000Y-133350000D02*
X161925000Y-131445000D01*
X161925000Y-131445000D02*
X161925000Y-132080000D01*
X151130000Y-127000000D02*
X153035000Y-125095000D01*
X151130000Y-127000000D02*
X149225000Y-125095000D01*
X140335000Y-127000000D02*
X142240000Y-125095000D01*
X140335000Y-127000000D02*
X138430000Y-125095000D01*
X136441580Y-130726580D02*
X136608420Y-130726580D01*
X136608420Y-130726580D02*
X140335000Y-127000000D01*
X160655000Y-147955000D02*
X161290000Y-147955000D01*
X160655000Y-147955000D02*
X137160000Y-147955000D01*
X161925000Y-135255000D02*
X161925000Y-146685000D01*
X161290000Y-147955000D02*
X161925000Y-147320000D01*
X161925000Y-147320000D02*
X161925000Y-146685000D01*
X160655000Y-125095000D02*
X153035000Y-125095000D01*
X161925000Y-128905000D02*
X161925000Y-126365000D01*
X161290000Y-125095000D02*
X161925000Y-125730000D01*
X161925000Y-125730000D02*
X161925000Y-126365000D01*
X160655000Y-125095000D02*
X161290000Y-125095000D01*
X161925000Y-128905000D02*
X161925000Y-132080000D01*
X161925000Y-132080000D02*
X161925000Y-135255000D01*
X153035000Y-125095000D02*
X149225000Y-125095000D01*
X149225000Y-125095000D02*
X147955000Y-125095000D01*
X147955000Y-125095000D02*
X142240000Y-125095000D01*
X142240000Y-125095000D02*
X139065000Y-125095000D01*
X139065000Y-125095000D02*
X138430000Y-125095000D01*
X135255000Y-146050000D02*
X133350000Y-147955000D01*
X127635000Y-146050000D02*
X129540000Y-147955000D01*
X127635000Y-146050000D02*
X125730000Y-147955000D01*
X137160000Y-147955000D02*
X133350000Y-147955000D01*
X133350000Y-147955000D02*
X129540000Y-147955000D01*
X129540000Y-147955000D02*
X125730000Y-147955000D01*
X125730000Y-147955000D02*
X105410000Y-147955000D01*
X105410000Y-125095000D02*
X109855000Y-125095000D01*
X105410000Y-125095000D02*
X104775000Y-125730000D01*
X104775000Y-125730000D02*
X104775000Y-132080000D01*
X104775000Y-147320000D02*
X104775000Y-132080000D01*
X105410000Y-147955000D02*
X104775000Y-147320000D01*
X137160000Y-147955000D02*
X135255000Y-146050000D01*
X109855000Y-125095000D02*
X113665000Y-125095000D01*
X111760000Y-127000000D02*
X109855000Y-125095000D01*
X128905000Y-125095000D02*
X113665000Y-125095000D01*
X132080000Y-125095000D02*
X128905000Y-125095000D01*
X138430000Y-125095000D02*
X132080000Y-125095000D01*
X113665000Y-125095000D02*
X111760000Y-127000000D01*
X127635000Y-146050000D02*
X126710000Y-145125000D01*
X126710000Y-145125000D02*
X126682500Y-145097500D01*
X126682500Y-145097500D02*
X120650000Y-139065000D01*
X120650000Y-139065000D02*
X120650000Y-137795000D01*
X120650000Y-137795000D02*
X120650000Y-137033000D01*
X120583000Y-137033000D02*
X120650000Y-137033000D01*
X195580000Y-137795000D02*
X195580000Y-136525000D01*
X219710000Y-133350000D02*
X226060000Y-127000000D01*
X217170000Y-133350000D02*
X219710000Y-133350000D01*
X213995000Y-136525000D02*
X217170000Y-133350000D01*
X232410000Y-133350000D02*
X234950000Y-133350000D01*
X234950000Y-133350000D02*
X236855000Y-135255000D01*
X234950000Y-133350000D02*
X236855000Y-131445000D01*
X236855000Y-131445000D02*
X236855000Y-132080000D01*
X226060000Y-127000000D02*
X227965000Y-125095000D01*
X226060000Y-127000000D02*
X224155000Y-125095000D01*
X215265000Y-127000000D02*
X217170000Y-125095000D01*
X215265000Y-127000000D02*
X213360000Y-125095000D01*
X211371580Y-130726580D02*
X211538420Y-130726580D01*
X211538420Y-130726580D02*
X215265000Y-127000000D01*
X235585000Y-147955000D02*
X236220000Y-147955000D01*
X235585000Y-147955000D02*
X212090000Y-147955000D01*
X236855000Y-135255000D02*
X236855000Y-146685000D01*
X236220000Y-147955000D02*
X236855000Y-147320000D01*
X236855000Y-147320000D02*
X236855000Y-146685000D01*
X235585000Y-125095000D02*
X227965000Y-125095000D01*
X236855000Y-128905000D02*
X236855000Y-126365000D01*
X236220000Y-125095000D02*
X236855000Y-125730000D01*
X236855000Y-125730000D02*
X236855000Y-126365000D01*
X235585000Y-125095000D02*
X236220000Y-125095000D01*
X236855000Y-128905000D02*
X236855000Y-132080000D01*
X236855000Y-132080000D02*
X236855000Y-135255000D01*
X227965000Y-125095000D02*
X224155000Y-125095000D01*
X224155000Y-125095000D02*
X222885000Y-125095000D01*
X222885000Y-125095000D02*
X217170000Y-125095000D01*
X217170000Y-125095000D02*
X213995000Y-125095000D01*
X213995000Y-125095000D02*
X213360000Y-125095000D01*
X210185000Y-146050000D02*
X208280000Y-147955000D01*
X202565000Y-146050000D02*
X204470000Y-147955000D01*
X202565000Y-146050000D02*
X200660000Y-147955000D01*
X212090000Y-147955000D02*
X208280000Y-147955000D01*
X208280000Y-147955000D02*
X204470000Y-147955000D01*
X204470000Y-147955000D02*
X200660000Y-147955000D01*
X200660000Y-147955000D02*
X180340000Y-147955000D01*
X180340000Y-125095000D02*
X184785000Y-125095000D01*
X180340000Y-125095000D02*
X179705000Y-125730000D01*
X179705000Y-125730000D02*
X179705000Y-132080000D01*
X179705000Y-147320000D02*
X179705000Y-132080000D01*
X180340000Y-147955000D02*
X179705000Y-147320000D01*
X212090000Y-147955000D02*
X210185000Y-146050000D01*
X184785000Y-125095000D02*
X188595000Y-125095000D01*
X186690000Y-127000000D02*
X184785000Y-125095000D01*
X203835000Y-125095000D02*
X188595000Y-125095000D01*
X207010000Y-125095000D02*
X203835000Y-125095000D01*
X213360000Y-125095000D02*
X207010000Y-125095000D01*
X188595000Y-125095000D02*
X186690000Y-127000000D01*
X202565000Y-146050000D02*
X201640000Y-145125000D01*
X201640000Y-145125000D02*
X201612500Y-145097500D01*
X201612500Y-145097500D02*
X195580000Y-139065000D01*
X195580000Y-139065000D02*
X195580000Y-137795000D01*
X195580000Y-137795000D02*
X195580000Y-137033000D01*
X195513000Y-137033000D02*
X195580000Y-137033000D01*
X195513000Y-53213000D02*
X195580000Y-53213000D01*
X195580000Y-53975000D02*
X195580000Y-53213000D01*
X195580000Y-55245000D02*
X195580000Y-53975000D01*
X201612500Y-61277500D02*
X195580000Y-55245000D01*
X201640000Y-61305000D02*
X201612500Y-61277500D01*
X202565000Y-62230000D02*
X201640000Y-61305000D01*
X188595000Y-41275000D02*
X186690000Y-43180000D01*
X213360000Y-41275000D02*
X207010000Y-41275000D01*
X207010000Y-41275000D02*
X203835000Y-41275000D01*
X203835000Y-41275000D02*
X188595000Y-41275000D01*
X186690000Y-43180000D02*
X184785000Y-41275000D01*
X184785000Y-41275000D02*
X188595000Y-41275000D01*
X212090000Y-64135000D02*
X210185000Y-62230000D01*
X180340000Y-64135000D02*
X179705000Y-63500000D01*
X179705000Y-63500000D02*
X179705000Y-48260000D01*
X179705000Y-41910000D02*
X179705000Y-48260000D01*
X180340000Y-41275000D02*
X179705000Y-41910000D01*
X180340000Y-41275000D02*
X184785000Y-41275000D01*
X200660000Y-64135000D02*
X180340000Y-64135000D01*
X204470000Y-64135000D02*
X200660000Y-64135000D01*
X208280000Y-64135000D02*
X204470000Y-64135000D01*
X212090000Y-64135000D02*
X208280000Y-64135000D01*
X202565000Y-62230000D02*
X200660000Y-64135000D01*
X202565000Y-62230000D02*
X204470000Y-64135000D01*
X210185000Y-62230000D02*
X208280000Y-64135000D01*
X213995000Y-41275000D02*
X213360000Y-41275000D01*
X217170000Y-41275000D02*
X213995000Y-41275000D01*
X222885000Y-41275000D02*
X217170000Y-41275000D01*
X224155000Y-41275000D02*
X222885000Y-41275000D01*
X227965000Y-41275000D02*
X224155000Y-41275000D01*
X236855000Y-48260000D02*
X236855000Y-51435000D01*
X236855000Y-45085000D02*
X236855000Y-48260000D01*
X235585000Y-41275000D02*
X236220000Y-41275000D01*
X236855000Y-41910000D02*
X236855000Y-42545000D01*
X236220000Y-41275000D02*
X236855000Y-41910000D01*
X236855000Y-45085000D02*
X236855000Y-42545000D01*
X235585000Y-41275000D02*
X227965000Y-41275000D01*
X236855000Y-63500000D02*
X236855000Y-62865000D01*
X236220000Y-64135000D02*
X236855000Y-63500000D01*
X236855000Y-51435000D02*
X236855000Y-62865000D01*
X235585000Y-64135000D02*
X212090000Y-64135000D01*
X235585000Y-64135000D02*
X236220000Y-64135000D01*
X211538420Y-46906580D02*
X215265000Y-43180000D01*
X211371580Y-46906580D02*
X211538420Y-46906580D01*
X215265000Y-43180000D02*
X213360000Y-41275000D01*
X215265000Y-43180000D02*
X217170000Y-41275000D01*
X226060000Y-43180000D02*
X224155000Y-41275000D01*
X226060000Y-43180000D02*
X227965000Y-41275000D01*
X236855000Y-47625000D02*
X236855000Y-48260000D01*
X234950000Y-49530000D02*
X236855000Y-47625000D01*
X234950000Y-49530000D02*
X236855000Y-51435000D01*
X232410000Y-49530000D02*
X234950000Y-49530000D01*
X213995000Y-52705000D02*
X217170000Y-49530000D01*
X217170000Y-49530000D02*
X219710000Y-49530000D01*
X219710000Y-49530000D02*
X226060000Y-43180000D01*
X195580000Y-53975000D02*
X195580000Y-52705000D01*
X120583000Y-53213000D02*
X120650000Y-53213000D01*
X120650000Y-53975000D02*
X120650000Y-53213000D01*
X120650000Y-55245000D02*
X120650000Y-53975000D01*
X126682500Y-61277500D02*
X120650000Y-55245000D01*
X126710000Y-61305000D02*
X126682500Y-61277500D01*
X127635000Y-62230000D02*
X126710000Y-61305000D01*
X113665000Y-41275000D02*
X111760000Y-43180000D01*
X138430000Y-41275000D02*
X132080000Y-41275000D01*
X132080000Y-41275000D02*
X128905000Y-41275000D01*
X128905000Y-41275000D02*
X113665000Y-41275000D01*
X111760000Y-43180000D02*
X109855000Y-41275000D01*
X109855000Y-41275000D02*
X113665000Y-41275000D01*
X137160000Y-64135000D02*
X135255000Y-62230000D01*
X105410000Y-64135000D02*
X104775000Y-63500000D01*
X104775000Y-63500000D02*
X104775000Y-48260000D01*
X104775000Y-41910000D02*
X104775000Y-48260000D01*
X105410000Y-41275000D02*
X104775000Y-41910000D01*
X105410000Y-41275000D02*
X109855000Y-41275000D01*
X125730000Y-64135000D02*
X105410000Y-64135000D01*
X129540000Y-64135000D02*
X125730000Y-64135000D01*
X133350000Y-64135000D02*
X129540000Y-64135000D01*
X137160000Y-64135000D02*
X133350000Y-64135000D01*
X127635000Y-62230000D02*
X125730000Y-64135000D01*
X127635000Y-62230000D02*
X129540000Y-64135000D01*
X135255000Y-62230000D02*
X133350000Y-64135000D01*
X139065000Y-41275000D02*
X138430000Y-41275000D01*
X142240000Y-41275000D02*
X139065000Y-41275000D01*
X147955000Y-41275000D02*
X142240000Y-41275000D01*
X149225000Y-41275000D02*
X147955000Y-41275000D01*
X153035000Y-41275000D02*
X149225000Y-41275000D01*
X161925000Y-48260000D02*
X161925000Y-51435000D01*
X161925000Y-45085000D02*
X161925000Y-48260000D01*
X160655000Y-41275000D02*
X161290000Y-41275000D01*
X161925000Y-41910000D02*
X161925000Y-42545000D01*
X161290000Y-41275000D02*
X161925000Y-41910000D01*
X161925000Y-45085000D02*
X161925000Y-42545000D01*
X160655000Y-41275000D02*
X153035000Y-41275000D01*
X161925000Y-63500000D02*
X161925000Y-62865000D01*
X161290000Y-64135000D02*
X161925000Y-63500000D01*
X161925000Y-51435000D02*
X161925000Y-62865000D01*
X160655000Y-64135000D02*
X137160000Y-64135000D01*
X160655000Y-64135000D02*
X161290000Y-64135000D01*
X136608420Y-46906580D02*
X140335000Y-43180000D01*
X136441580Y-46906580D02*
X136608420Y-46906580D01*
X140335000Y-43180000D02*
X138430000Y-41275000D01*
X140335000Y-43180000D02*
X142240000Y-41275000D01*
X151130000Y-43180000D02*
X149225000Y-41275000D01*
X151130000Y-43180000D02*
X153035000Y-41275000D01*
X161925000Y-47625000D02*
X161925000Y-48260000D01*
X160020000Y-49530000D02*
X161925000Y-47625000D01*
X160020000Y-49530000D02*
X161925000Y-51435000D01*
X157480000Y-49530000D02*
X160020000Y-49530000D01*
X139065000Y-52705000D02*
X142240000Y-49530000D01*
X142240000Y-49530000D02*
X144780000Y-49530000D01*
X144780000Y-49530000D02*
X151130000Y-43180000D01*
X120650000Y-53975000D02*
X120650000Y-52705000D01*
X45720000Y-53975000D02*
X45720000Y-52705000D01*
X69850000Y-49530000D02*
X76200000Y-43180000D01*
X67310000Y-49530000D02*
X69850000Y-49530000D01*
X64135000Y-52705000D02*
X67310000Y-49530000D01*
X82550000Y-49530000D02*
X85090000Y-49530000D01*
X85090000Y-49530000D02*
X86995000Y-51435000D01*
X85090000Y-49530000D02*
X86995000Y-47625000D01*
X86995000Y-47625000D02*
X86995000Y-48260000D01*
X76200000Y-43180000D02*
X78105000Y-41275000D01*
X76200000Y-43180000D02*
X74295000Y-41275000D01*
X65405000Y-43180000D02*
X67310000Y-41275000D01*
X65405000Y-43180000D02*
X63500000Y-41275000D01*
X61511580Y-46906580D02*
X61678420Y-46906580D01*
X61678420Y-46906580D02*
X65405000Y-43180000D01*
X85725000Y-64135000D02*
X86360000Y-64135000D01*
X85725000Y-64135000D02*
X62230000Y-64135000D01*
X86995000Y-51435000D02*
X86995000Y-62865000D01*
X86360000Y-64135000D02*
X86995000Y-63500000D01*
X86995000Y-63500000D02*
X86995000Y-62865000D01*
X85725000Y-41275000D02*
X78105000Y-41275000D01*
X86995000Y-45085000D02*
X86995000Y-42545000D01*
X86360000Y-41275000D02*
X86995000Y-41910000D01*
X86995000Y-41910000D02*
X86995000Y-42545000D01*
X85725000Y-41275000D02*
X86360000Y-41275000D01*
X86995000Y-45085000D02*
X86995000Y-48260000D01*
X86995000Y-48260000D02*
X86995000Y-51435000D01*
X78105000Y-41275000D02*
X74295000Y-41275000D01*
X74295000Y-41275000D02*
X73025000Y-41275000D01*
X73025000Y-41275000D02*
X67310000Y-41275000D01*
X67310000Y-41275000D02*
X64135000Y-41275000D01*
X64135000Y-41275000D02*
X63500000Y-41275000D01*
X60325000Y-62230000D02*
X58420000Y-64135000D01*
X52705000Y-62230000D02*
X54610000Y-64135000D01*
X52705000Y-62230000D02*
X50800000Y-64135000D01*
X62230000Y-64135000D02*
X58420000Y-64135000D01*
X58420000Y-64135000D02*
X54610000Y-64135000D01*
X54610000Y-64135000D02*
X50800000Y-64135000D01*
X50800000Y-64135000D02*
X30480000Y-64135000D01*
X30480000Y-41275000D02*
X34925000Y-41275000D01*
X30480000Y-41275000D02*
X29845000Y-41910000D01*
X29845000Y-41910000D02*
X29845000Y-48260000D01*
X29845000Y-63500000D02*
X29845000Y-48260000D01*
X30480000Y-64135000D02*
X29845000Y-63500000D01*
X62230000Y-64135000D02*
X60325000Y-62230000D01*
X34925000Y-41275000D02*
X38735000Y-41275000D01*
X36830000Y-43180000D02*
X34925000Y-41275000D01*
X53975000Y-41275000D02*
X38735000Y-41275000D01*
X57150000Y-41275000D02*
X53975000Y-41275000D01*
X63500000Y-41275000D02*
X57150000Y-41275000D01*
X38735000Y-41275000D02*
X36830000Y-43180000D01*
X52705000Y-62230000D02*
X51780000Y-61305000D01*
X51780000Y-61305000D02*
X51752500Y-61277500D01*
X51752500Y-61277500D02*
X45720000Y-55245000D01*
X45720000Y-55245000D02*
X45720000Y-53975000D01*
X45720000Y-53975000D02*
X45720000Y-53213000D01*
X45653000Y-53213000D02*
X45720000Y-53213000D01*
X54815000Y-145620000D02*
X55245000Y-146050000D01*
X54815000Y-144985000D02*
X55245000Y-145415000D01*
X54815000Y-144985000D02*
X54815000Y-145620000D01*
X59055000Y-139700000D02*
X59055000Y-136525000D01*
X57150000Y-141605000D02*
X59055000Y-139700000D01*
X51435000Y-141605000D02*
X51435000Y-135255000D01*
X51435000Y-135255000D02*
X52070000Y-134620000D01*
X52070000Y-134620000D02*
X54610000Y-134620000D01*
X54610000Y-134620000D02*
X56515000Y-136525000D01*
X56515000Y-136525000D02*
X59055000Y-136525000D01*
X55245000Y-145415000D02*
X51435000Y-141605000D01*
X55245000Y-146050000D02*
X55245000Y-145415000D01*
X59055000Y-136525000D02*
X62865000Y-132715000D01*
X62948420Y-131996580D02*
X67945000Y-127000000D01*
X67945000Y-127000000D02*
X71120000Y-127000000D01*
X62865000Y-132715000D02*
X62865000Y-131826000D01*
X137795000Y-132715000D02*
X137795000Y-131826000D01*
X142875000Y-127000000D02*
X146050000Y-127000000D01*
X137878420Y-131996580D02*
X142875000Y-127000000D01*
X133985000Y-136525000D02*
X137795000Y-132715000D01*
X130175000Y-146050000D02*
X130175000Y-145415000D01*
X130175000Y-145415000D02*
X126365000Y-141605000D01*
X131445000Y-136525000D02*
X133985000Y-136525000D01*
X129540000Y-134620000D02*
X131445000Y-136525000D01*
X127000000Y-134620000D02*
X129540000Y-134620000D01*
X126365000Y-135255000D02*
X127000000Y-134620000D01*
X126365000Y-141605000D02*
X126365000Y-135255000D01*
X132080000Y-141605000D02*
X133985000Y-139700000D01*
X133985000Y-139700000D02*
X133985000Y-136525000D01*
X129745000Y-144985000D02*
X129745000Y-145620000D01*
X129745000Y-144985000D02*
X130175000Y-145415000D01*
X129745000Y-145620000D02*
X130175000Y-146050000D01*
X212725000Y-132715000D02*
X212725000Y-131826000D01*
X217805000Y-127000000D02*
X220980000Y-127000000D01*
X212808420Y-131996580D02*
X217805000Y-127000000D01*
X208915000Y-136525000D02*
X212725000Y-132715000D01*
X205105000Y-146050000D02*
X205105000Y-145415000D01*
X205105000Y-145415000D02*
X201295000Y-141605000D01*
X206375000Y-136525000D02*
X208915000Y-136525000D01*
X204470000Y-134620000D02*
X206375000Y-136525000D01*
X201930000Y-134620000D02*
X204470000Y-134620000D01*
X201295000Y-135255000D02*
X201930000Y-134620000D01*
X201295000Y-141605000D02*
X201295000Y-135255000D01*
X207010000Y-141605000D02*
X208915000Y-139700000D01*
X208915000Y-139700000D02*
X208915000Y-136525000D01*
X204675000Y-144985000D02*
X204675000Y-145620000D01*
X204675000Y-144985000D02*
X205105000Y-145415000D01*
X204675000Y-145620000D02*
X205105000Y-146050000D01*
X204675000Y-61800000D02*
X205105000Y-62230000D01*
X204675000Y-61165000D02*
X205105000Y-61595000D01*
X204675000Y-61165000D02*
X204675000Y-61800000D01*
X208915000Y-55880000D02*
X208915000Y-52705000D01*
X207010000Y-57785000D02*
X208915000Y-55880000D01*
X201295000Y-57785000D02*
X201295000Y-51435000D01*
X201295000Y-51435000D02*
X201930000Y-50800000D01*
X201930000Y-50800000D02*
X204470000Y-50800000D01*
X204470000Y-50800000D02*
X206375000Y-52705000D01*
X206375000Y-52705000D02*
X208915000Y-52705000D01*
X205105000Y-61595000D02*
X201295000Y-57785000D01*
X205105000Y-62230000D02*
X205105000Y-61595000D01*
X208915000Y-52705000D02*
X212725000Y-48895000D01*
X212808420Y-48176580D02*
X217805000Y-43180000D01*
X217805000Y-43180000D02*
X220980000Y-43180000D01*
X212725000Y-48895000D02*
X212725000Y-48006000D01*
X129745000Y-61800000D02*
X130175000Y-62230000D01*
X129745000Y-61165000D02*
X130175000Y-61595000D01*
X129745000Y-61165000D02*
X129745000Y-61800000D01*
X133985000Y-55880000D02*
X133985000Y-52705000D01*
X132080000Y-57785000D02*
X133985000Y-55880000D01*
X126365000Y-57785000D02*
X126365000Y-51435000D01*
X126365000Y-51435000D02*
X127000000Y-50800000D01*
X127000000Y-50800000D02*
X129540000Y-50800000D01*
X129540000Y-50800000D02*
X131445000Y-52705000D01*
X131445000Y-52705000D02*
X133985000Y-52705000D01*
X130175000Y-61595000D02*
X126365000Y-57785000D01*
X130175000Y-62230000D02*
X130175000Y-61595000D01*
X133985000Y-52705000D02*
X137795000Y-48895000D01*
X137878420Y-48176580D02*
X142875000Y-43180000D01*
X142875000Y-43180000D02*
X146050000Y-43180000D01*
X137795000Y-48895000D02*
X137795000Y-48006000D01*
X62865000Y-48895000D02*
X62865000Y-48006000D01*
X67945000Y-43180000D02*
X71120000Y-43180000D01*
X62948420Y-48176580D02*
X67945000Y-43180000D01*
X59055000Y-52705000D02*
X62865000Y-48895000D01*
X55245000Y-62230000D02*
X55245000Y-61595000D01*
X55245000Y-61595000D02*
X51435000Y-57785000D01*
X56515000Y-52705000D02*
X59055000Y-52705000D01*
X54610000Y-50800000D02*
X56515000Y-52705000D01*
X52070000Y-50800000D02*
X54610000Y-50800000D01*
X51435000Y-51435000D02*
X52070000Y-50800000D01*
X51435000Y-57785000D02*
X51435000Y-51435000D01*
X57150000Y-57785000D02*
X59055000Y-55880000D01*
X59055000Y-55880000D02*
X59055000Y-52705000D01*
X54815000Y-61165000D02*
X54815000Y-61800000D01*
X54815000Y-61165000D02*
X55245000Y-61595000D01*
X54815000Y-61800000D02*
X55245000Y-62230000D01*
X35572765Y-173407605D02*
X35572764Y-173407606D01*
X35572765Y-170232605D02*
X35572765Y-173407605D01*
X110502765Y-170232605D02*
X110502765Y-173407605D01*
X110502765Y-173407605D02*
X110502764Y-173407606D01*
X185432765Y-170232605D02*
X185432765Y-173407605D01*
X185432765Y-173407605D02*
X185432764Y-173407606D01*
X185432765Y-89587605D02*
X185432764Y-89587606D01*
X185432765Y-86412605D02*
X185432765Y-89587605D01*
X110502765Y-89587605D02*
X110502764Y-89587606D01*
X110502765Y-86412605D02*
X110502765Y-89587605D01*
X35572765Y-86412605D02*
X35572765Y-89587605D01*
X35572765Y-89587605D02*
X35572764Y-89587606D01*
X33032764Y-170232606D02*
X33032765Y-170232605D01*
X33032764Y-173407606D02*
X33032764Y-170232606D01*
X107962764Y-173407606D02*
X107962764Y-170232606D01*
X107962764Y-170232606D02*
X107962765Y-170232605D01*
X182892764Y-173407606D02*
X182892764Y-170232606D01*
X182892764Y-170232606D02*
X182892765Y-170232605D01*
X182892764Y-86412606D02*
X182892765Y-86412605D01*
X182892764Y-89587606D02*
X182892764Y-86412606D01*
X107962764Y-86412606D02*
X107962765Y-86412605D01*
X107962764Y-89587606D02*
X107962764Y-86412606D01*
X33032764Y-89587606D02*
X33032764Y-86412606D01*
X33032764Y-86412606D02*
X33032765Y-86412605D01*
X38112765Y-173407605D02*
X38112764Y-173407606D01*
X38112765Y-170232605D02*
X38112765Y-173407605D01*
X113042765Y-170232605D02*
X113042765Y-173407605D01*
X113042765Y-173407605D02*
X113042764Y-173407606D01*
X187972765Y-170232605D02*
X187972765Y-173407605D01*
X187972765Y-173407605D02*
X187972764Y-173407606D01*
X187972765Y-89587605D02*
X187972764Y-89587606D01*
X187972765Y-86412605D02*
X187972765Y-89587605D01*
X113042765Y-89587605D02*
X113042764Y-89587606D01*
X113042765Y-86412605D02*
X113042765Y-89587605D01*
X38112765Y-86412605D02*
X38112765Y-89587605D01*
X38112765Y-89587605D02*
X38112764Y-89587606D01*
X57785000Y-145415000D02*
X57785000Y-146050000D01*
X57285000Y-145550000D02*
X57785000Y-146050000D01*
X57285000Y-144915000D02*
X57285000Y-145550000D01*
X57150000Y-144780000D02*
X57785000Y-145415000D01*
X57285000Y-144915000D02*
X57150000Y-144780000D01*
X57285000Y-144915000D02*
X53340000Y-140970000D01*
X53340000Y-140970000D02*
X53340000Y-139700000D01*
X53340000Y-137795000D02*
X53340000Y-137287000D01*
X53340000Y-139700000D02*
X53340000Y-137795000D01*
X53340000Y-137795000D02*
X53340000Y-136525000D01*
X128270000Y-137795000D02*
X128270000Y-136525000D01*
X128270000Y-139700000D02*
X128270000Y-137795000D01*
X128270000Y-137795000D02*
X128270000Y-137287000D01*
X128270000Y-140970000D02*
X128270000Y-139700000D01*
X132215000Y-144915000D02*
X128270000Y-140970000D01*
X132215000Y-144915000D02*
X132080000Y-144780000D01*
X132080000Y-144780000D02*
X132715000Y-145415000D01*
X132215000Y-144915000D02*
X132215000Y-145550000D01*
X132215000Y-145550000D02*
X132715000Y-146050000D01*
X132715000Y-145415000D02*
X132715000Y-146050000D01*
X203200000Y-137795000D02*
X203200000Y-136525000D01*
X203200000Y-139700000D02*
X203200000Y-137795000D01*
X203200000Y-137795000D02*
X203200000Y-137287000D01*
X203200000Y-140970000D02*
X203200000Y-139700000D01*
X207145000Y-144915000D02*
X203200000Y-140970000D01*
X207145000Y-144915000D02*
X207010000Y-144780000D01*
X207010000Y-144780000D02*
X207645000Y-145415000D01*
X207145000Y-144915000D02*
X207145000Y-145550000D01*
X207145000Y-145550000D02*
X207645000Y-146050000D01*
X207645000Y-145415000D02*
X207645000Y-146050000D01*
X207645000Y-61595000D02*
X207645000Y-62230000D01*
X207145000Y-61730000D02*
X207645000Y-62230000D01*
X207145000Y-61095000D02*
X207145000Y-61730000D01*
X207010000Y-60960000D02*
X207645000Y-61595000D01*
X207145000Y-61095000D02*
X207010000Y-60960000D01*
X207145000Y-61095000D02*
X203200000Y-57150000D01*
X203200000Y-57150000D02*
X203200000Y-55880000D01*
X203200000Y-53975000D02*
X203200000Y-53467000D01*
X203200000Y-55880000D02*
X203200000Y-53975000D01*
X203200000Y-53975000D02*
X203200000Y-52705000D01*
X132715000Y-61595000D02*
X132715000Y-62230000D01*
X132215000Y-61730000D02*
X132715000Y-62230000D01*
X132215000Y-61095000D02*
X132215000Y-61730000D01*
X132080000Y-60960000D02*
X132715000Y-61595000D01*
X132215000Y-61095000D02*
X132080000Y-60960000D01*
X132215000Y-61095000D02*
X128270000Y-57150000D01*
X128270000Y-57150000D02*
X128270000Y-55880000D01*
X128270000Y-53975000D02*
X128270000Y-53467000D01*
X128270000Y-55880000D02*
X128270000Y-53975000D01*
X128270000Y-53975000D02*
X128270000Y-52705000D01*
X53340000Y-53975000D02*
X53340000Y-52705000D01*
X53340000Y-55880000D02*
X53340000Y-53975000D01*
X53340000Y-53975000D02*
X53340000Y-53467000D01*
X53340000Y-57150000D02*
X53340000Y-55880000D01*
X57285000Y-61095000D02*
X53340000Y-57150000D01*
X57285000Y-61095000D02*
X57150000Y-60960000D01*
X57150000Y-60960000D02*
X57785000Y-61595000D01*
X57285000Y-61095000D02*
X57285000Y-61730000D01*
X57285000Y-61730000D02*
X57785000Y-62230000D01*
X57785000Y-61595000D02*
X57785000Y-62230000D01*
X85090000Y-140335000D02*
X85090000Y-138557000D01*
X82550000Y-138430000D02*
X85090000Y-138430000D01*
X85090000Y-140970000D02*
X85090000Y-140335000D01*
X82550000Y-138430000D02*
X85090000Y-140970000D01*
X72390000Y-146050000D02*
X67945000Y-146050000D01*
X73660000Y-146685000D02*
X73025000Y-146685000D01*
X73660000Y-146685000D02*
X84455000Y-146685000D01*
X85090000Y-140335000D02*
X85090000Y-146050000D01*
X84455000Y-146685000D02*
X85090000Y-146050000D01*
X73025000Y-146685000D02*
X72390000Y-146050000D01*
X147955000Y-146685000D02*
X147320000Y-146050000D01*
X159385000Y-146685000D02*
X160020000Y-146050000D01*
X160020000Y-140335000D02*
X160020000Y-146050000D01*
X148590000Y-146685000D02*
X159385000Y-146685000D01*
X148590000Y-146685000D02*
X147955000Y-146685000D01*
X147320000Y-146050000D02*
X142875000Y-146050000D01*
X157480000Y-138430000D02*
X160020000Y-140970000D01*
X160020000Y-140970000D02*
X160020000Y-140335000D01*
X157480000Y-138430000D02*
X160020000Y-138430000D01*
X160020000Y-140335000D02*
X160020000Y-138557000D01*
X222885000Y-146685000D02*
X222250000Y-146050000D01*
X234315000Y-146685000D02*
X234950000Y-146050000D01*
X234950000Y-140335000D02*
X234950000Y-146050000D01*
X223520000Y-146685000D02*
X234315000Y-146685000D01*
X223520000Y-146685000D02*
X222885000Y-146685000D01*
X222250000Y-146050000D02*
X217805000Y-146050000D01*
X232410000Y-138430000D02*
X234950000Y-140970000D01*
X234950000Y-140970000D02*
X234950000Y-140335000D01*
X232410000Y-138430000D02*
X234950000Y-138430000D01*
X234950000Y-140335000D02*
X234950000Y-138557000D01*
X234950000Y-56515000D02*
X234950000Y-54737000D01*
X232410000Y-54610000D02*
X234950000Y-54610000D01*
X234950000Y-57150000D02*
X234950000Y-56515000D01*
X232410000Y-54610000D02*
X234950000Y-57150000D01*
X222250000Y-62230000D02*
X217805000Y-62230000D01*
X223520000Y-62865000D02*
X222885000Y-62865000D01*
X223520000Y-62865000D02*
X234315000Y-62865000D01*
X234950000Y-56515000D02*
X234950000Y-62230000D01*
X234315000Y-62865000D02*
X234950000Y-62230000D01*
X222885000Y-62865000D02*
X222250000Y-62230000D01*
X160020000Y-56515000D02*
X160020000Y-54737000D01*
X157480000Y-54610000D02*
X160020000Y-54610000D01*
X160020000Y-57150000D02*
X160020000Y-56515000D01*
X157480000Y-54610000D02*
X160020000Y-57150000D01*
X147320000Y-62230000D02*
X142875000Y-62230000D01*
X148590000Y-62865000D02*
X147955000Y-62865000D01*
X148590000Y-62865000D02*
X159385000Y-62865000D01*
X160020000Y-56515000D02*
X160020000Y-62230000D01*
X159385000Y-62865000D02*
X160020000Y-62230000D01*
X147955000Y-62865000D02*
X147320000Y-62230000D01*
X73025000Y-62865000D02*
X72390000Y-62230000D01*
X84455000Y-62865000D02*
X85090000Y-62230000D01*
X85090000Y-56515000D02*
X85090000Y-62230000D01*
X73660000Y-62865000D02*
X84455000Y-62865000D01*
X73660000Y-62865000D02*
X73025000Y-62865000D01*
X72390000Y-62230000D02*
X67945000Y-62230000D01*
X82550000Y-54610000D02*
X85090000Y-57150000D01*
X85090000Y-57150000D02*
X85090000Y-56515000D01*
X82550000Y-54610000D02*
X85090000Y-54610000D01*
X85090000Y-56515000D02*
X85090000Y-54737000D01*
X65925000Y-145530000D02*
X65405000Y-146050000D01*
X69215000Y-142240000D02*
X65405000Y-146050000D01*
X69215000Y-140970000D02*
X69215000Y-142240000D01*
X67945000Y-139700000D02*
X69215000Y-140970000D01*
X67310000Y-139065000D02*
X67945000Y-139700000D01*
X67310000Y-138430000D02*
X67310000Y-139065000D01*
X67945000Y-139065000D02*
X67310000Y-138430000D01*
X67945000Y-139700000D02*
X67945000Y-139065000D01*
X69850000Y-140335000D02*
X69850000Y-138430000D01*
X69215000Y-140970000D02*
X69850000Y-140335000D01*
X69850000Y-138430000D02*
X67310000Y-138430000D01*
X144780000Y-138430000D02*
X142240000Y-138430000D01*
X144145000Y-140970000D02*
X144780000Y-140335000D01*
X144780000Y-140335000D02*
X144780000Y-138430000D01*
X142875000Y-139700000D02*
X142875000Y-139065000D01*
X142875000Y-139065000D02*
X142240000Y-138430000D01*
X142240000Y-138430000D02*
X142240000Y-139065000D01*
X142240000Y-139065000D02*
X142875000Y-139700000D01*
X142875000Y-139700000D02*
X144145000Y-140970000D01*
X144145000Y-140970000D02*
X144145000Y-142240000D01*
X144145000Y-142240000D02*
X140335000Y-146050000D01*
X140855000Y-145530000D02*
X140335000Y-146050000D01*
X219710000Y-138430000D02*
X217170000Y-138430000D01*
X219075000Y-140970000D02*
X219710000Y-140335000D01*
X219710000Y-140335000D02*
X219710000Y-138430000D01*
X217805000Y-139700000D02*
X217805000Y-139065000D01*
X217805000Y-139065000D02*
X217170000Y-138430000D01*
X217170000Y-138430000D02*
X217170000Y-139065000D01*
X217170000Y-139065000D02*
X217805000Y-139700000D01*
X217805000Y-139700000D02*
X219075000Y-140970000D01*
X219075000Y-140970000D02*
X219075000Y-142240000D01*
X219075000Y-142240000D02*
X215265000Y-146050000D01*
X215785000Y-145530000D02*
X215265000Y-146050000D01*
X215785000Y-61710000D02*
X215265000Y-62230000D01*
X219075000Y-58420000D02*
X215265000Y-62230000D01*
X219075000Y-57150000D02*
X219075000Y-58420000D01*
X217805000Y-55880000D02*
X219075000Y-57150000D01*
X217170000Y-55245000D02*
X217805000Y-55880000D01*
X217170000Y-54610000D02*
X217170000Y-55245000D01*
X217805000Y-55245000D02*
X217170000Y-54610000D01*
X217805000Y-55880000D02*
X217805000Y-55245000D01*
X219710000Y-56515000D02*
X219710000Y-54610000D01*
X219075000Y-57150000D02*
X219710000Y-56515000D01*
X219710000Y-54610000D02*
X217170000Y-54610000D01*
X140855000Y-61710000D02*
X140335000Y-62230000D01*
X144145000Y-58420000D02*
X140335000Y-62230000D01*
X144145000Y-57150000D02*
X144145000Y-58420000D01*
X142875000Y-55880000D02*
X144145000Y-57150000D01*
X142240000Y-55245000D02*
X142875000Y-55880000D01*
X142240000Y-54610000D02*
X142240000Y-55245000D01*
X142875000Y-55245000D02*
X142240000Y-54610000D01*
X142875000Y-55880000D02*
X142875000Y-55245000D01*
X144780000Y-56515000D02*
X144780000Y-54610000D01*
X144145000Y-57150000D02*
X144780000Y-56515000D01*
X144780000Y-54610000D02*
X142240000Y-54610000D01*
X69850000Y-54610000D02*
X67310000Y-54610000D01*
X69215000Y-57150000D02*
X69850000Y-56515000D01*
X69850000Y-56515000D02*
X69850000Y-54610000D01*
X67945000Y-55880000D02*
X67945000Y-55245000D01*
X67945000Y-55245000D02*
X67310000Y-54610000D01*
X67310000Y-54610000D02*
X67310000Y-55245000D01*
X67310000Y-55245000D02*
X67945000Y-55880000D01*
X67945000Y-55880000D02*
X69215000Y-57150000D01*
X69215000Y-57150000D02*
X69215000Y-58420000D01*
X69215000Y-58420000D02*
X65405000Y-62230000D01*
X65925000Y-61710000D02*
X65405000Y-62230000D01*
X62865000Y-146050000D02*
X62865000Y-145415000D01*
X63182500Y-145732500D02*
X62865000Y-146050000D01*
X62865000Y-140970000D02*
X62865000Y-146050000D01*
X62865000Y-146050000D02*
X67310000Y-141605000D01*
X66675000Y-140970000D02*
X67310000Y-141605000D01*
X66040000Y-140970000D02*
X66675000Y-140970000D01*
X69215000Y-131445000D02*
X73660000Y-127000000D01*
X62865000Y-139700000D02*
X62865000Y-140970000D01*
X61595000Y-136525000D02*
X62865000Y-137795000D01*
X62865000Y-139700000D02*
X62865000Y-137795000D01*
X66040000Y-140970000D02*
X61595000Y-136525000D01*
X61595000Y-136525000D02*
X66675000Y-131445000D01*
X66675000Y-131445000D02*
X69215000Y-131445000D01*
X141605000Y-131445000D02*
X144145000Y-131445000D01*
X136525000Y-136525000D02*
X141605000Y-131445000D01*
X140970000Y-140970000D02*
X136525000Y-136525000D01*
X137795000Y-139700000D02*
X137795000Y-137795000D01*
X136525000Y-136525000D02*
X137795000Y-137795000D01*
X137795000Y-139700000D02*
X137795000Y-140970000D01*
X144145000Y-131445000D02*
X148590000Y-127000000D01*
X140970000Y-140970000D02*
X141605000Y-140970000D01*
X141605000Y-140970000D02*
X142240000Y-141605000D01*
X137795000Y-146050000D02*
X142240000Y-141605000D01*
X137795000Y-140970000D02*
X137795000Y-146050000D01*
X138112500Y-145732500D02*
X137795000Y-146050000D01*
X137795000Y-146050000D02*
X137795000Y-145415000D01*
X216535000Y-131445000D02*
X219075000Y-131445000D01*
X211455000Y-136525000D02*
X216535000Y-131445000D01*
X215900000Y-140970000D02*
X211455000Y-136525000D01*
X212725000Y-139700000D02*
X212725000Y-137795000D01*
X211455000Y-136525000D02*
X212725000Y-137795000D01*
X212725000Y-139700000D02*
X212725000Y-140970000D01*
X219075000Y-131445000D02*
X223520000Y-127000000D01*
X215900000Y-140970000D02*
X216535000Y-140970000D01*
X216535000Y-140970000D02*
X217170000Y-141605000D01*
X212725000Y-146050000D02*
X217170000Y-141605000D01*
X212725000Y-140970000D02*
X212725000Y-146050000D01*
X213042500Y-145732500D02*
X212725000Y-146050000D01*
X212725000Y-146050000D02*
X212725000Y-145415000D01*
X212725000Y-62230000D02*
X212725000Y-61595000D01*
X213042500Y-61912500D02*
X212725000Y-62230000D01*
X212725000Y-57150000D02*
X212725000Y-62230000D01*
X212725000Y-62230000D02*
X217170000Y-57785000D01*
X216535000Y-57150000D02*
X217170000Y-57785000D01*
X215900000Y-57150000D02*
X216535000Y-57150000D01*
X219075000Y-47625000D02*
X223520000Y-43180000D01*
X212725000Y-55880000D02*
X212725000Y-57150000D01*
X211455000Y-52705000D02*
X212725000Y-53975000D01*
X212725000Y-55880000D02*
X212725000Y-53975000D01*
X215900000Y-57150000D02*
X211455000Y-52705000D01*
X211455000Y-52705000D02*
X216535000Y-47625000D01*
X216535000Y-47625000D02*
X219075000Y-47625000D01*
X137795000Y-62230000D02*
X137795000Y-61595000D01*
X138112500Y-61912500D02*
X137795000Y-62230000D01*
X137795000Y-57150000D02*
X137795000Y-62230000D01*
X137795000Y-62230000D02*
X142240000Y-57785000D01*
X141605000Y-57150000D02*
X142240000Y-57785000D01*
X140970000Y-57150000D02*
X141605000Y-57150000D01*
X144145000Y-47625000D02*
X148590000Y-43180000D01*
X137795000Y-55880000D02*
X137795000Y-57150000D01*
X136525000Y-52705000D02*
X137795000Y-53975000D01*
X137795000Y-55880000D02*
X137795000Y-53975000D01*
X140970000Y-57150000D02*
X136525000Y-52705000D01*
X136525000Y-52705000D02*
X141605000Y-47625000D01*
X141605000Y-47625000D02*
X144145000Y-47625000D01*
X66675000Y-47625000D02*
X69215000Y-47625000D01*
X61595000Y-52705000D02*
X66675000Y-47625000D01*
X66040000Y-57150000D02*
X61595000Y-52705000D01*
X62865000Y-55880000D02*
X62865000Y-53975000D01*
X61595000Y-52705000D02*
X62865000Y-53975000D01*
X62865000Y-55880000D02*
X62865000Y-57150000D01*
X69215000Y-47625000D02*
X73660000Y-43180000D01*
X66040000Y-57150000D02*
X66675000Y-57150000D01*
X66675000Y-57150000D02*
X67310000Y-57785000D01*
X62865000Y-62230000D02*
X67310000Y-57785000D01*
X62865000Y-57150000D02*
X62865000Y-62230000D01*
X63182500Y-61912500D02*
X62865000Y-62230000D01*
X62865000Y-62230000D02*
X62865000Y-61595000D01*
X57125660Y-170725429D02*
X58235660Y-169615429D01*
X57125660Y-172155429D02*
X57125660Y-170725429D01*
X132055660Y-172155429D02*
X132055660Y-170725429D01*
X132055660Y-170725429D02*
X133165660Y-169615429D01*
X206985660Y-172155429D02*
X206985660Y-170725429D01*
X206985660Y-170725429D02*
X208095660Y-169615429D01*
X206985660Y-86905429D02*
X208095660Y-85795429D01*
X206985660Y-88335429D02*
X206985660Y-86905429D01*
X132055660Y-86905429D02*
X133165660Y-85795429D01*
X132055660Y-88335429D02*
X132055660Y-86905429D01*
X57125660Y-88335429D02*
X57125660Y-86905429D01*
X57125660Y-86905429D02*
X58235660Y-85795429D01*
X59665660Y-171220340D02*
X60035660Y-170850340D01*
X60035660Y-170850340D02*
X60035660Y-169615429D01*
X59665660Y-172155429D02*
X59665660Y-171220340D01*
X134595660Y-172155429D02*
X134595660Y-171220340D01*
X134965660Y-170850340D02*
X134965660Y-169615429D01*
X134595660Y-171220340D02*
X134965660Y-170850340D01*
X209525660Y-172155429D02*
X209525660Y-171220340D01*
X209895660Y-170850340D02*
X209895660Y-169615429D01*
X209525660Y-171220340D02*
X209895660Y-170850340D01*
X209525660Y-87400340D02*
X209895660Y-87030340D01*
X209895660Y-87030340D02*
X209895660Y-85795429D01*
X209525660Y-88335429D02*
X209525660Y-87400340D01*
X134595660Y-87400340D02*
X134965660Y-87030340D01*
X134965660Y-87030340D02*
X134965660Y-85795429D01*
X134595660Y-88335429D02*
X134595660Y-87400340D01*
X59665660Y-88335429D02*
X59665660Y-87400340D01*
X60035660Y-87030340D02*
X60035660Y-85795429D01*
X59665660Y-87400340D02*
X60035660Y-87030340D01*
X62205660Y-171171660D02*
X61835660Y-170801660D01*
X61835660Y-170801660D02*
X61835660Y-169615429D01*
X62205660Y-172155429D02*
X62205660Y-171171660D01*
X137135660Y-172155429D02*
X137135660Y-171171660D01*
X136765660Y-170801660D02*
X136765660Y-169615429D01*
X137135660Y-171171660D02*
X136765660Y-170801660D01*
X212065660Y-172155429D02*
X212065660Y-171171660D01*
X211695660Y-170801660D02*
X211695660Y-169615429D01*
X212065660Y-171171660D02*
X211695660Y-170801660D01*
X212065660Y-87351660D02*
X211695660Y-86981660D01*
X211695660Y-86981660D02*
X211695660Y-85795429D01*
X212065660Y-88335429D02*
X212065660Y-87351660D01*
X137135660Y-87351660D02*
X136765660Y-86981660D01*
X136765660Y-86981660D02*
X136765660Y-85795429D01*
X137135660Y-88335429D02*
X137135660Y-87351660D01*
X62205660Y-88335429D02*
X62205660Y-87351660D01*
X61835660Y-86981660D02*
X61835660Y-85795429D01*
X62205660Y-87351660D02*
X61835660Y-86981660D01*
X64745660Y-170725429D02*
X63635660Y-169615429D01*
X64745660Y-172155429D02*
X64745660Y-170725429D01*
X139675660Y-172155429D02*
X139675660Y-170725429D01*
X139675660Y-170725429D02*
X138565660Y-169615429D01*
X214605660Y-172155429D02*
X214605660Y-170725429D01*
X214605660Y-170725429D02*
X213495660Y-169615429D01*
X214605660Y-86905429D02*
X213495660Y-85795429D01*
X214605660Y-88335429D02*
X214605660Y-86905429D01*
X139675660Y-86905429D02*
X138565660Y-85795429D01*
X139675660Y-88335429D02*
X139675660Y-86905429D01*
X64745660Y-88335429D02*
X64745660Y-86905429D01*
X64745660Y-86905429D02*
X63635660Y-85795429D01*
X55245000Y-114935000D02*
X55245000Y-114300000D01*
X48895000Y-116205000D02*
X53975000Y-116205000D01*
X53975000Y-116205000D02*
X55245000Y-114935000D01*
X46990000Y-118110000D02*
X48895000Y-116205000D01*
X121920000Y-118110000D02*
X123825000Y-116205000D01*
X128905000Y-116205000D02*
X130175000Y-114935000D01*
X123825000Y-116205000D02*
X128905000Y-116205000D01*
X130175000Y-114935000D02*
X130175000Y-114300000D01*
X196850000Y-118110000D02*
X198755000Y-116205000D01*
X203835000Y-116205000D02*
X205105000Y-114935000D01*
X198755000Y-116205000D02*
X203835000Y-116205000D01*
X205105000Y-114935000D02*
X205105000Y-114300000D01*
X205105000Y-31115000D02*
X205105000Y-30480000D01*
X198755000Y-32385000D02*
X203835000Y-32385000D01*
X203835000Y-32385000D02*
X205105000Y-31115000D01*
X196850000Y-34290000D02*
X198755000Y-32385000D01*
X130175000Y-31115000D02*
X130175000Y-30480000D01*
X123825000Y-32385000D02*
X128905000Y-32385000D01*
X128905000Y-32385000D02*
X130175000Y-31115000D01*
X121920000Y-34290000D02*
X123825000Y-32385000D01*
X46990000Y-34290000D02*
X48895000Y-32385000D01*
X53975000Y-32385000D02*
X55245000Y-31115000D01*
X48895000Y-32385000D02*
X53975000Y-32385000D01*
X55245000Y-31115000D02*
X55245000Y-30480000D01*
X60325000Y-116205000D02*
X59690000Y-116205000D01*
X59690000Y-116205000D02*
X58420000Y-114935000D01*
X62230000Y-118110000D02*
X60325000Y-116205000D01*
X57785000Y-114300000D02*
X58420000Y-114935000D01*
X132715000Y-114300000D02*
X133350000Y-114935000D01*
X137160000Y-118110000D02*
X135255000Y-116205000D01*
X134620000Y-116205000D02*
X133350000Y-114935000D01*
X135255000Y-116205000D02*
X134620000Y-116205000D01*
X207645000Y-114300000D02*
X208280000Y-114935000D01*
X212090000Y-118110000D02*
X210185000Y-116205000D01*
X209550000Y-116205000D02*
X208280000Y-114935000D01*
X210185000Y-116205000D02*
X209550000Y-116205000D01*
X210185000Y-32385000D02*
X209550000Y-32385000D01*
X209550000Y-32385000D02*
X208280000Y-31115000D01*
X212090000Y-34290000D02*
X210185000Y-32385000D01*
X207645000Y-30480000D02*
X208280000Y-31115000D01*
X135255000Y-32385000D02*
X134620000Y-32385000D01*
X134620000Y-32385000D02*
X133350000Y-31115000D01*
X137160000Y-34290000D02*
X135255000Y-32385000D01*
X132715000Y-30480000D02*
X133350000Y-31115000D01*
X57785000Y-30480000D02*
X58420000Y-31115000D01*
X62230000Y-34290000D02*
X60325000Y-32385000D01*
X59690000Y-32385000D02*
X58420000Y-31115000D01*
X60325000Y-32385000D02*
X59690000Y-32385000D01*
X62230000Y-116205000D02*
X62865000Y-116205000D01*
X62865000Y-116205000D02*
X64770000Y-118110000D01*
X60325000Y-114300000D02*
X62230000Y-116205000D01*
X135255000Y-114300000D02*
X137160000Y-116205000D01*
X137795000Y-116205000D02*
X139700000Y-118110000D01*
X137160000Y-116205000D02*
X137795000Y-116205000D01*
X210185000Y-114300000D02*
X212090000Y-116205000D01*
X212725000Y-116205000D02*
X214630000Y-118110000D01*
X212090000Y-116205000D02*
X212725000Y-116205000D01*
X212090000Y-32385000D02*
X212725000Y-32385000D01*
X212725000Y-32385000D02*
X214630000Y-34290000D01*
X210185000Y-30480000D02*
X212090000Y-32385000D01*
X137160000Y-32385000D02*
X137795000Y-32385000D01*
X137795000Y-32385000D02*
X139700000Y-34290000D01*
X135255000Y-30480000D02*
X137160000Y-32385000D01*
X60325000Y-30480000D02*
X62230000Y-32385000D01*
X62865000Y-32385000D02*
X64770000Y-34290000D01*
X62230000Y-32385000D02*
X62865000Y-32385000D01*
X65405000Y-116205000D02*
X64770000Y-116205000D01*
X64770000Y-116205000D02*
X63500000Y-114935000D01*
X67310000Y-118110000D02*
X65405000Y-116205000D01*
X63500000Y-114935000D02*
X62865000Y-114300000D01*
X138430000Y-114935000D02*
X137795000Y-114300000D01*
X142240000Y-118110000D02*
X140335000Y-116205000D01*
X139700000Y-116205000D02*
X138430000Y-114935000D01*
X140335000Y-116205000D02*
X139700000Y-116205000D01*
X213360000Y-114935000D02*
X212725000Y-114300000D01*
X217170000Y-118110000D02*
X215265000Y-116205000D01*
X214630000Y-116205000D02*
X213360000Y-114935000D01*
X215265000Y-116205000D02*
X214630000Y-116205000D01*
X215265000Y-32385000D02*
X214630000Y-32385000D01*
X214630000Y-32385000D02*
X213360000Y-31115000D01*
X217170000Y-34290000D02*
X215265000Y-32385000D01*
X213360000Y-31115000D02*
X212725000Y-30480000D01*
X140335000Y-32385000D02*
X139700000Y-32385000D01*
X139700000Y-32385000D02*
X138430000Y-31115000D01*
X142240000Y-34290000D02*
X140335000Y-32385000D01*
X138430000Y-31115000D02*
X137795000Y-30480000D01*
X63500000Y-31115000D02*
X62865000Y-30480000D01*
X67310000Y-34290000D02*
X65405000Y-32385000D01*
X64770000Y-32385000D02*
X63500000Y-31115000D01*
X65405000Y-32385000D02*
X64770000Y-32385000D01*
X34290000Y-118110000D02*
X36830000Y-118110000D01*
X36830000Y-118110000D02*
X39370000Y-118110000D01*
X39370000Y-118110000D02*
X41910000Y-118110000D01*
X49530000Y-118745000D02*
X49530000Y-118110000D01*
X43180000Y-120015000D02*
X48260000Y-120015000D01*
X48260000Y-120015000D02*
X49530000Y-118745000D01*
X41910000Y-118745000D02*
X43180000Y-120015000D01*
X41910000Y-118110000D02*
X41910000Y-118745000D01*
X49530000Y-118110000D02*
X52070000Y-118110000D01*
X52070000Y-118110000D02*
X54610000Y-118110000D01*
X54610000Y-118110000D02*
X57150000Y-118110000D01*
X57150000Y-118110000D02*
X59690000Y-118110000D01*
X69850000Y-118745000D02*
X69850000Y-118110000D01*
X60960000Y-120015000D02*
X68580000Y-120015000D01*
X68580000Y-120015000D02*
X69850000Y-118745000D01*
X59690000Y-118745000D02*
X60960000Y-120015000D01*
X59690000Y-118110000D02*
X59690000Y-118745000D01*
X69850000Y-118110000D02*
X72390000Y-118110000D01*
X72390000Y-118110000D02*
X74930000Y-118110000D01*
X74930000Y-118110000D02*
X77470000Y-118110000D01*
X82550000Y-118745000D02*
X82550000Y-118110000D01*
X78740000Y-120015000D02*
X81280000Y-120015000D01*
X81915000Y-119380000D02*
X82550000Y-118745000D01*
X81280000Y-120015000D02*
X81915000Y-119380000D01*
X77470000Y-118745000D02*
X78740000Y-120015000D01*
X77470000Y-118110000D02*
X77470000Y-118745000D01*
X67945000Y-116205000D02*
X67310000Y-116205000D01*
X67310000Y-116205000D02*
X66040000Y-114935000D01*
X69850000Y-118110000D02*
X67945000Y-116205000D01*
X65405000Y-114300000D02*
X66040000Y-114935000D01*
X81915000Y-118745000D02*
X82550000Y-118110000D01*
X81915000Y-119380000D02*
X81915000Y-118745000D01*
X156845000Y-119380000D02*
X156845000Y-118745000D01*
X156845000Y-118745000D02*
X157480000Y-118110000D01*
X140335000Y-114300000D02*
X140970000Y-114935000D01*
X144780000Y-118110000D02*
X142875000Y-116205000D01*
X142240000Y-116205000D02*
X140970000Y-114935000D01*
X142875000Y-116205000D02*
X142240000Y-116205000D01*
X152400000Y-118110000D02*
X152400000Y-118745000D01*
X152400000Y-118745000D02*
X153670000Y-120015000D01*
X156210000Y-120015000D02*
X156845000Y-119380000D01*
X156845000Y-119380000D02*
X157480000Y-118745000D01*
X153670000Y-120015000D02*
X156210000Y-120015000D01*
X157480000Y-118745000D02*
X157480000Y-118110000D01*
X149860000Y-118110000D02*
X152400000Y-118110000D01*
X147320000Y-118110000D02*
X149860000Y-118110000D01*
X144780000Y-118110000D02*
X147320000Y-118110000D01*
X134620000Y-118110000D02*
X134620000Y-118745000D01*
X134620000Y-118745000D02*
X135890000Y-120015000D01*
X143510000Y-120015000D02*
X144780000Y-118745000D01*
X135890000Y-120015000D02*
X143510000Y-120015000D01*
X144780000Y-118745000D02*
X144780000Y-118110000D01*
X132080000Y-118110000D02*
X134620000Y-118110000D01*
X129540000Y-118110000D02*
X132080000Y-118110000D01*
X127000000Y-118110000D02*
X129540000Y-118110000D01*
X124460000Y-118110000D02*
X127000000Y-118110000D01*
X116840000Y-118110000D02*
X116840000Y-118745000D01*
X116840000Y-118745000D02*
X118110000Y-120015000D01*
X123190000Y-120015000D02*
X124460000Y-118745000D01*
X118110000Y-120015000D02*
X123190000Y-120015000D01*
X124460000Y-118745000D02*
X124460000Y-118110000D01*
X114300000Y-118110000D02*
X116840000Y-118110000D01*
X111760000Y-118110000D02*
X114300000Y-118110000D01*
X109220000Y-118110000D02*
X111760000Y-118110000D01*
X231775000Y-119380000D02*
X231775000Y-118745000D01*
X231775000Y-118745000D02*
X232410000Y-118110000D01*
X215265000Y-114300000D02*
X215900000Y-114935000D01*
X219710000Y-118110000D02*
X217805000Y-116205000D01*
X217170000Y-116205000D02*
X215900000Y-114935000D01*
X217805000Y-116205000D02*
X217170000Y-116205000D01*
X227330000Y-118110000D02*
X227330000Y-118745000D01*
X227330000Y-118745000D02*
X228600000Y-120015000D01*
X231140000Y-120015000D02*
X231775000Y-119380000D01*
X231775000Y-119380000D02*
X232410000Y-118745000D01*
X228600000Y-120015000D02*
X231140000Y-120015000D01*
X232410000Y-118745000D02*
X232410000Y-118110000D01*
X224790000Y-118110000D02*
X227330000Y-118110000D01*
X222250000Y-118110000D02*
X224790000Y-118110000D01*
X219710000Y-118110000D02*
X222250000Y-118110000D01*
X209550000Y-118110000D02*
X209550000Y-118745000D01*
X209550000Y-118745000D02*
X210820000Y-120015000D01*
X218440000Y-120015000D02*
X219710000Y-118745000D01*
X210820000Y-120015000D02*
X218440000Y-120015000D01*
X219710000Y-118745000D02*
X219710000Y-118110000D01*
X207010000Y-118110000D02*
X209550000Y-118110000D01*
X204470000Y-118110000D02*
X207010000Y-118110000D01*
X201930000Y-118110000D02*
X204470000Y-118110000D01*
X199390000Y-118110000D02*
X201930000Y-118110000D01*
X191770000Y-118110000D02*
X191770000Y-118745000D01*
X191770000Y-118745000D02*
X193040000Y-120015000D01*
X198120000Y-120015000D02*
X199390000Y-118745000D01*
X193040000Y-120015000D02*
X198120000Y-120015000D01*
X199390000Y-118745000D02*
X199390000Y-118110000D01*
X189230000Y-118110000D02*
X191770000Y-118110000D01*
X186690000Y-118110000D02*
X189230000Y-118110000D01*
X184150000Y-118110000D02*
X186690000Y-118110000D01*
X184150000Y-34290000D02*
X186690000Y-34290000D01*
X186690000Y-34290000D02*
X189230000Y-34290000D01*
X189230000Y-34290000D02*
X191770000Y-34290000D01*
X199390000Y-34925000D02*
X199390000Y-34290000D01*
X193040000Y-36195000D02*
X198120000Y-36195000D01*
X198120000Y-36195000D02*
X199390000Y-34925000D01*
X191770000Y-34925000D02*
X193040000Y-36195000D01*
X191770000Y-34290000D02*
X191770000Y-34925000D01*
X199390000Y-34290000D02*
X201930000Y-34290000D01*
X201930000Y-34290000D02*
X204470000Y-34290000D01*
X204470000Y-34290000D02*
X207010000Y-34290000D01*
X207010000Y-34290000D02*
X209550000Y-34290000D01*
X219710000Y-34925000D02*
X219710000Y-34290000D01*
X210820000Y-36195000D02*
X218440000Y-36195000D01*
X218440000Y-36195000D02*
X219710000Y-34925000D01*
X209550000Y-34925000D02*
X210820000Y-36195000D01*
X209550000Y-34290000D02*
X209550000Y-34925000D01*
X219710000Y-34290000D02*
X222250000Y-34290000D01*
X222250000Y-34290000D02*
X224790000Y-34290000D01*
X224790000Y-34290000D02*
X227330000Y-34290000D01*
X232410000Y-34925000D02*
X232410000Y-34290000D01*
X228600000Y-36195000D02*
X231140000Y-36195000D01*
X231775000Y-35560000D02*
X232410000Y-34925000D01*
X231140000Y-36195000D02*
X231775000Y-35560000D01*
X227330000Y-34925000D02*
X228600000Y-36195000D01*
X227330000Y-34290000D02*
X227330000Y-34925000D01*
X217805000Y-32385000D02*
X217170000Y-32385000D01*
X217170000Y-32385000D02*
X215900000Y-31115000D01*
X219710000Y-34290000D02*
X217805000Y-32385000D01*
X215265000Y-30480000D02*
X215900000Y-31115000D01*
X231775000Y-34925000D02*
X232410000Y-34290000D01*
X231775000Y-35560000D02*
X231775000Y-34925000D01*
X109220000Y-34290000D02*
X111760000Y-34290000D01*
X111760000Y-34290000D02*
X114300000Y-34290000D01*
X114300000Y-34290000D02*
X116840000Y-34290000D01*
X124460000Y-34925000D02*
X124460000Y-34290000D01*
X118110000Y-36195000D02*
X123190000Y-36195000D01*
X123190000Y-36195000D02*
X124460000Y-34925000D01*
X116840000Y-34925000D02*
X118110000Y-36195000D01*
X116840000Y-34290000D02*
X116840000Y-34925000D01*
X124460000Y-34290000D02*
X127000000Y-34290000D01*
X127000000Y-34290000D02*
X129540000Y-34290000D01*
X129540000Y-34290000D02*
X132080000Y-34290000D01*
X132080000Y-34290000D02*
X134620000Y-34290000D01*
X144780000Y-34925000D02*
X144780000Y-34290000D01*
X135890000Y-36195000D02*
X143510000Y-36195000D01*
X143510000Y-36195000D02*
X144780000Y-34925000D01*
X134620000Y-34925000D02*
X135890000Y-36195000D01*
X134620000Y-34290000D02*
X134620000Y-34925000D01*
X144780000Y-34290000D02*
X147320000Y-34290000D01*
X147320000Y-34290000D02*
X149860000Y-34290000D01*
X149860000Y-34290000D02*
X152400000Y-34290000D01*
X157480000Y-34925000D02*
X157480000Y-34290000D01*
X153670000Y-36195000D02*
X156210000Y-36195000D01*
X156845000Y-35560000D02*
X157480000Y-34925000D01*
X156210000Y-36195000D02*
X156845000Y-35560000D01*
X152400000Y-34925000D02*
X153670000Y-36195000D01*
X152400000Y-34290000D02*
X152400000Y-34925000D01*
X142875000Y-32385000D02*
X142240000Y-32385000D01*
X142240000Y-32385000D02*
X140970000Y-31115000D01*
X144780000Y-34290000D02*
X142875000Y-32385000D01*
X140335000Y-30480000D02*
X140970000Y-31115000D01*
X156845000Y-34925000D02*
X157480000Y-34290000D01*
X156845000Y-35560000D02*
X156845000Y-34925000D01*
X81915000Y-35560000D02*
X81915000Y-34925000D01*
X81915000Y-34925000D02*
X82550000Y-34290000D01*
X65405000Y-30480000D02*
X66040000Y-31115000D01*
X69850000Y-34290000D02*
X67945000Y-32385000D01*
X67310000Y-32385000D02*
X66040000Y-31115000D01*
X67945000Y-32385000D02*
X67310000Y-32385000D01*
X77470000Y-34290000D02*
X77470000Y-34925000D01*
X77470000Y-34925000D02*
X78740000Y-36195000D01*
X81280000Y-36195000D02*
X81915000Y-35560000D01*
X81915000Y-35560000D02*
X82550000Y-34925000D01*
X78740000Y-36195000D02*
X81280000Y-36195000D01*
X82550000Y-34925000D02*
X82550000Y-34290000D01*
X74930000Y-34290000D02*
X77470000Y-34290000D01*
X72390000Y-34290000D02*
X74930000Y-34290000D01*
X69850000Y-34290000D02*
X72390000Y-34290000D01*
X59690000Y-34290000D02*
X59690000Y-34925000D01*
X59690000Y-34925000D02*
X60960000Y-36195000D01*
X68580000Y-36195000D02*
X69850000Y-34925000D01*
X60960000Y-36195000D02*
X68580000Y-36195000D01*
X69850000Y-34925000D02*
X69850000Y-34290000D01*
X57150000Y-34290000D02*
X59690000Y-34290000D01*
X54610000Y-34290000D02*
X57150000Y-34290000D01*
X52070000Y-34290000D02*
X54610000Y-34290000D01*
X49530000Y-34290000D02*
X52070000Y-34290000D01*
X41910000Y-34290000D02*
X41910000Y-34925000D01*
X41910000Y-34925000D02*
X43180000Y-36195000D01*
X48260000Y-36195000D02*
X49530000Y-34925000D01*
X43180000Y-36195000D02*
X48260000Y-36195000D01*
X49530000Y-34925000D02*
X49530000Y-34290000D01*
X39370000Y-34290000D02*
X41910000Y-34290000D01*
X36830000Y-34290000D02*
X39370000Y-34290000D01*
X34290000Y-34290000D02*
X36830000Y-34290000D01*
X78105000Y-116205000D02*
X70485000Y-116205000D01*
X80010000Y-118110000D02*
X78105000Y-116205000D01*
X69850000Y-116205000D02*
X70485000Y-116205000D01*
X67945000Y-114300000D02*
X69850000Y-116205000D01*
X142875000Y-114300000D02*
X144780000Y-116205000D01*
X144780000Y-116205000D02*
X145415000Y-116205000D01*
X154940000Y-118110000D02*
X153035000Y-116205000D01*
X153035000Y-116205000D02*
X145415000Y-116205000D01*
X217805000Y-114300000D02*
X219710000Y-116205000D01*
X219710000Y-116205000D02*
X220345000Y-116205000D01*
X229870000Y-118110000D02*
X227965000Y-116205000D01*
X227965000Y-116205000D02*
X220345000Y-116205000D01*
X227965000Y-32385000D02*
X220345000Y-32385000D01*
X229870000Y-34290000D02*
X227965000Y-32385000D01*
X219710000Y-32385000D02*
X220345000Y-32385000D01*
X217805000Y-30480000D02*
X219710000Y-32385000D01*
X153035000Y-32385000D02*
X145415000Y-32385000D01*
X154940000Y-34290000D02*
X153035000Y-32385000D01*
X144780000Y-32385000D02*
X145415000Y-32385000D01*
X142875000Y-30480000D02*
X144780000Y-32385000D01*
X67945000Y-30480000D02*
X69850000Y-32385000D01*
X69850000Y-32385000D02*
X70485000Y-32385000D01*
X80010000Y-34290000D02*
X78105000Y-32385000D01*
X78105000Y-32385000D02*
X70485000Y-32385000D01*
X52070000Y-114935000D02*
X52705000Y-114300000D01*
X51435000Y-114935000D02*
X52070000Y-114935000D01*
X47625000Y-114935000D02*
X51435000Y-114935000D01*
X44450000Y-118110000D02*
X47625000Y-114935000D01*
X52070000Y-114300000D02*
X52705000Y-114300000D01*
X51435000Y-114935000D02*
X52070000Y-114300000D01*
X126365000Y-114935000D02*
X127000000Y-114300000D01*
X127000000Y-114300000D02*
X127635000Y-114300000D01*
X119380000Y-118110000D02*
X122555000Y-114935000D01*
X122555000Y-114935000D02*
X126365000Y-114935000D01*
X126365000Y-114935000D02*
X127000000Y-114935000D01*
X127000000Y-114935000D02*
X127635000Y-114300000D01*
X201295000Y-114935000D02*
X201930000Y-114300000D01*
X201930000Y-114300000D02*
X202565000Y-114300000D01*
X194310000Y-118110000D02*
X197485000Y-114935000D01*
X197485000Y-114935000D02*
X201295000Y-114935000D01*
X201295000Y-114935000D02*
X201930000Y-114935000D01*
X201930000Y-114935000D02*
X202565000Y-114300000D01*
X201930000Y-31115000D02*
X202565000Y-30480000D01*
X201295000Y-31115000D02*
X201930000Y-31115000D01*
X197485000Y-31115000D02*
X201295000Y-31115000D01*
X194310000Y-34290000D02*
X197485000Y-31115000D01*
X201930000Y-30480000D02*
X202565000Y-30480000D01*
X201295000Y-31115000D02*
X201930000Y-30480000D01*
X127000000Y-31115000D02*
X127635000Y-30480000D01*
X126365000Y-31115000D02*
X127000000Y-31115000D01*
X122555000Y-31115000D02*
X126365000Y-31115000D01*
X119380000Y-34290000D02*
X122555000Y-31115000D01*
X127000000Y-30480000D02*
X127635000Y-30480000D01*
X126365000Y-31115000D02*
X127000000Y-30480000D01*
X51435000Y-31115000D02*
X52070000Y-30480000D01*
X52070000Y-30480000D02*
X52705000Y-30480000D01*
X44450000Y-34290000D02*
X47625000Y-31115000D01*
X47625000Y-31115000D02*
X51435000Y-31115000D01*
X51435000Y-31115000D02*
X52070000Y-31115000D01*
X52070000Y-31115000D02*
X52705000Y-30480000D01*
X80010000Y-178435000D02*
X80010000Y-177800000D01*
X80010000Y-176530000D02*
X80010000Y-178435000D01*
X80010000Y-173355000D02*
X80010000Y-176530000D01*
X76835000Y-170180000D02*
X80010000Y-173355000D01*
X80645000Y-177800000D02*
X80010000Y-177165000D01*
X80645000Y-177165000D02*
X80645000Y-177800000D01*
X80645000Y-177165000D02*
X80645000Y-177800000D01*
X80645000Y-177165000D02*
X80645000Y-177800000D01*
X80010000Y-176530000D02*
X80645000Y-177165000D01*
X154940000Y-176530000D02*
X155575000Y-177165000D01*
X155575000Y-177165000D02*
X155575000Y-177800000D01*
X155575000Y-177165000D02*
X155575000Y-177800000D01*
X155575000Y-177165000D02*
X155575000Y-177800000D01*
X155575000Y-177800000D02*
X154940000Y-177165000D01*
X151765000Y-170180000D02*
X154940000Y-173355000D01*
X154940000Y-173355000D02*
X154940000Y-176530000D01*
X154940000Y-176530000D02*
X154940000Y-178435000D01*
X154940000Y-178435000D02*
X154940000Y-177800000D01*
X229870000Y-176530000D02*
X230505000Y-177165000D01*
X230505000Y-177165000D02*
X230505000Y-177800000D01*
X230505000Y-177165000D02*
X230505000Y-177800000D01*
X230505000Y-177165000D02*
X230505000Y-177800000D01*
X230505000Y-177800000D02*
X229870000Y-177165000D01*
X226695000Y-170180000D02*
X229870000Y-173355000D01*
X229870000Y-173355000D02*
X229870000Y-176530000D01*
X229870000Y-176530000D02*
X229870000Y-178435000D01*
X229870000Y-178435000D02*
X229870000Y-177800000D01*
X229870000Y-94615000D02*
X229870000Y-93980000D01*
X229870000Y-92710000D02*
X229870000Y-94615000D01*
X229870000Y-89535000D02*
X229870000Y-92710000D01*
X226695000Y-86360000D02*
X229870000Y-89535000D01*
X230505000Y-93980000D02*
X229870000Y-93345000D01*
X230505000Y-93345000D02*
X230505000Y-93980000D01*
X230505000Y-93345000D02*
X230505000Y-93980000D01*
X230505000Y-93345000D02*
X230505000Y-93980000D01*
X229870000Y-92710000D02*
X230505000Y-93345000D01*
X154940000Y-94615000D02*
X154940000Y-93980000D01*
X154940000Y-92710000D02*
X154940000Y-94615000D01*
X154940000Y-89535000D02*
X154940000Y-92710000D01*
X151765000Y-86360000D02*
X154940000Y-89535000D01*
X155575000Y-93980000D02*
X154940000Y-93345000D01*
X155575000Y-93345000D02*
X155575000Y-93980000D01*
X155575000Y-93345000D02*
X155575000Y-93980000D01*
X155575000Y-93345000D02*
X155575000Y-93980000D01*
X154940000Y-92710000D02*
X155575000Y-93345000D01*
X80010000Y-92710000D02*
X80645000Y-93345000D01*
X80645000Y-93345000D02*
X80645000Y-93980000D01*
X80645000Y-93345000D02*
X80645000Y-93980000D01*
X80645000Y-93345000D02*
X80645000Y-93980000D01*
X80645000Y-93980000D02*
X80010000Y-93345000D01*
X76835000Y-86360000D02*
X80010000Y-89535000D01*
X80010000Y-89535000D02*
X80010000Y-92710000D01*
X80010000Y-92710000D02*
X80010000Y-94615000D01*
X80010000Y-94615000D02*
X80010000Y-93980000D01*
X78105000Y-177165000D02*
X78105000Y-177800000D01*
X78105000Y-177165000D02*
X78105000Y-177800000D01*
X78740000Y-174625000D02*
X78740000Y-175895000D01*
X78740000Y-175895000D02*
X78105000Y-176530000D01*
X78105000Y-176530000D02*
X78105000Y-177800000D01*
X76835000Y-172720000D02*
X78740000Y-174625000D01*
X151765000Y-172720000D02*
X153670000Y-174625000D01*
X153035000Y-176530000D02*
X153035000Y-177800000D01*
X153670000Y-175895000D02*
X153035000Y-176530000D01*
X153670000Y-174625000D02*
X153670000Y-175895000D01*
X153035000Y-177165000D02*
X153035000Y-177800000D01*
X153035000Y-177165000D02*
X153035000Y-177800000D01*
X226695000Y-172720000D02*
X228600000Y-174625000D01*
X227965000Y-176530000D02*
X227965000Y-177800000D01*
X228600000Y-175895000D02*
X227965000Y-176530000D01*
X228600000Y-174625000D02*
X228600000Y-175895000D01*
X227965000Y-177165000D02*
X227965000Y-177800000D01*
X227965000Y-177165000D02*
X227965000Y-177800000D01*
X227965000Y-93345000D02*
X227965000Y-93980000D01*
X227965000Y-93345000D02*
X227965000Y-93980000D01*
X228600000Y-90805000D02*
X228600000Y-92075000D01*
X228600000Y-92075000D02*
X227965000Y-92710000D01*
X227965000Y-92710000D02*
X227965000Y-93980000D01*
X226695000Y-88900000D02*
X228600000Y-90805000D01*
X153035000Y-93345000D02*
X153035000Y-93980000D01*
X153035000Y-93345000D02*
X153035000Y-93980000D01*
X153670000Y-90805000D02*
X153670000Y-92075000D01*
X153670000Y-92075000D02*
X153035000Y-92710000D01*
X153035000Y-92710000D02*
X153035000Y-93980000D01*
X151765000Y-88900000D02*
X153670000Y-90805000D01*
X76835000Y-88900000D02*
X78740000Y-90805000D01*
X78105000Y-92710000D02*
X78105000Y-93980000D01*
X78740000Y-92075000D02*
X78105000Y-92710000D01*
X78740000Y-90805000D02*
X78740000Y-92075000D01*
X78105000Y-93345000D02*
X78105000Y-93980000D01*
X78105000Y-93345000D02*
X78105000Y-93980000D01*
X74295000Y-159385000D02*
X74295000Y-162560000D01*
X74295000Y-162560000D02*
X72390000Y-164465000D01*
X72390000Y-164465000D02*
X72390000Y-165735000D01*
X72390000Y-165735000D02*
X74295000Y-167640000D01*
X74295000Y-167640000D02*
X74295000Y-170180000D01*
X76835000Y-156845000D02*
X74295000Y-159385000D01*
X74295000Y-172720000D02*
X76835000Y-175260000D01*
X74295000Y-170180000D02*
X74295000Y-172720000D01*
X149225000Y-170180000D02*
X149225000Y-172720000D01*
X149225000Y-172720000D02*
X151765000Y-175260000D01*
X151765000Y-156845000D02*
X149225000Y-159385000D01*
X149225000Y-167640000D02*
X149225000Y-170180000D01*
X147320000Y-165735000D02*
X149225000Y-167640000D01*
X147320000Y-164465000D02*
X147320000Y-165735000D01*
X149225000Y-162560000D02*
X147320000Y-164465000D01*
X149225000Y-159385000D02*
X149225000Y-162560000D01*
X224155000Y-170180000D02*
X224155000Y-172720000D01*
X224155000Y-172720000D02*
X226695000Y-175260000D01*
X226695000Y-156845000D02*
X224155000Y-159385000D01*
X224155000Y-167640000D02*
X224155000Y-170180000D01*
X222250000Y-165735000D02*
X224155000Y-167640000D01*
X222250000Y-164465000D02*
X222250000Y-165735000D01*
X224155000Y-162560000D02*
X222250000Y-164465000D01*
X224155000Y-159385000D02*
X224155000Y-162560000D01*
X224155000Y-75565000D02*
X224155000Y-78740000D01*
X224155000Y-78740000D02*
X222250000Y-80645000D01*
X222250000Y-80645000D02*
X222250000Y-81915000D01*
X222250000Y-81915000D02*
X224155000Y-83820000D01*
X224155000Y-83820000D02*
X224155000Y-86360000D01*
X226695000Y-73025000D02*
X224155000Y-75565000D01*
X224155000Y-88900000D02*
X226695000Y-91440000D01*
X224155000Y-86360000D02*
X224155000Y-88900000D01*
X149225000Y-75565000D02*
X149225000Y-78740000D01*
X149225000Y-78740000D02*
X147320000Y-80645000D01*
X147320000Y-80645000D02*
X147320000Y-81915000D01*
X147320000Y-81915000D02*
X149225000Y-83820000D01*
X149225000Y-83820000D02*
X149225000Y-86360000D01*
X151765000Y-73025000D02*
X149225000Y-75565000D01*
X149225000Y-88900000D02*
X151765000Y-91440000D01*
X149225000Y-86360000D02*
X149225000Y-88900000D01*
X74295000Y-86360000D02*
X74295000Y-88900000D01*
X74295000Y-88900000D02*
X76835000Y-91440000D01*
X76835000Y-73025000D02*
X74295000Y-75565000D01*
X74295000Y-83820000D02*
X74295000Y-86360000D01*
X72390000Y-81915000D02*
X74295000Y-83820000D01*
X72390000Y-80645000D02*
X72390000Y-81915000D01*
X74295000Y-78740000D02*
X72390000Y-80645000D01*
X74295000Y-75565000D02*
X74295000Y-78740000D01*
X83820000Y-167005000D02*
X83820000Y-173355000D01*
X81915000Y-162560000D02*
X83820000Y-164465000D01*
X83820000Y-164465000D02*
X83820000Y-167005000D01*
X83820000Y-173355000D02*
X81915000Y-175260000D01*
X81915000Y-156845000D02*
X81915000Y-162560000D01*
X79375000Y-165100000D02*
X81915000Y-162560000D01*
X74295000Y-165100000D02*
X79375000Y-165100000D01*
X81915000Y-165100000D02*
X83820000Y-167005000D01*
X79375000Y-165100000D02*
X81915000Y-165100000D01*
X81915000Y-162560000D02*
X81915000Y-160020000D01*
X156845000Y-162560000D02*
X156845000Y-160020000D01*
X154305000Y-165100000D02*
X156845000Y-165100000D01*
X156845000Y-165100000D02*
X158750000Y-167005000D01*
X149225000Y-165100000D02*
X154305000Y-165100000D01*
X154305000Y-165100000D02*
X156845000Y-162560000D01*
X156845000Y-156845000D02*
X156845000Y-162560000D01*
X158750000Y-173355000D02*
X156845000Y-175260000D01*
X158750000Y-164465000D02*
X158750000Y-167005000D01*
X156845000Y-162560000D02*
X158750000Y-164465000D01*
X158750000Y-167005000D02*
X158750000Y-173355000D01*
X231775000Y-162560000D02*
X231775000Y-160020000D01*
X229235000Y-165100000D02*
X231775000Y-165100000D01*
X231775000Y-165100000D02*
X233680000Y-167005000D01*
X224155000Y-165100000D02*
X229235000Y-165100000D01*
X229235000Y-165100000D02*
X231775000Y-162560000D01*
X231775000Y-156845000D02*
X231775000Y-162560000D01*
X233680000Y-173355000D02*
X231775000Y-175260000D01*
X233680000Y-164465000D02*
X233680000Y-167005000D01*
X231775000Y-162560000D02*
X233680000Y-164465000D01*
X233680000Y-167005000D02*
X233680000Y-173355000D01*
X233680000Y-83185000D02*
X233680000Y-89535000D01*
X231775000Y-78740000D02*
X233680000Y-80645000D01*
X233680000Y-80645000D02*
X233680000Y-83185000D01*
X233680000Y-89535000D02*
X231775000Y-91440000D01*
X231775000Y-73025000D02*
X231775000Y-78740000D01*
X229235000Y-81280000D02*
X231775000Y-78740000D01*
X224155000Y-81280000D02*
X229235000Y-81280000D01*
X231775000Y-81280000D02*
X233680000Y-83185000D01*
X229235000Y-81280000D02*
X231775000Y-81280000D01*
X231775000Y-78740000D02*
X231775000Y-76200000D01*
X158750000Y-83185000D02*
X158750000Y-89535000D01*
X156845000Y-78740000D02*
X158750000Y-80645000D01*
X158750000Y-80645000D02*
X158750000Y-83185000D01*
X158750000Y-89535000D02*
X156845000Y-91440000D01*
X156845000Y-73025000D02*
X156845000Y-78740000D01*
X154305000Y-81280000D02*
X156845000Y-78740000D01*
X149225000Y-81280000D02*
X154305000Y-81280000D01*
X156845000Y-81280000D02*
X158750000Y-83185000D01*
X154305000Y-81280000D02*
X156845000Y-81280000D01*
X156845000Y-78740000D02*
X156845000Y-76200000D01*
X81915000Y-78740000D02*
X81915000Y-76200000D01*
X79375000Y-81280000D02*
X81915000Y-81280000D01*
X81915000Y-81280000D02*
X83820000Y-83185000D01*
X74295000Y-81280000D02*
X79375000Y-81280000D01*
X79375000Y-81280000D02*
X81915000Y-78740000D01*
X81915000Y-73025000D02*
X81915000Y-78740000D01*
X83820000Y-89535000D02*
X81915000Y-91440000D01*
X83820000Y-80645000D02*
X83820000Y-83185000D01*
X81915000Y-78740000D02*
X83820000Y-80645000D01*
X83820000Y-83185000D02*
X83820000Y-89535000D01*
X79375000Y-156845000D02*
X79375000Y-157480000D01*
X76835000Y-160020000D02*
X76835000Y-162560000D01*
X79375000Y-157480000D02*
X76835000Y-160020000D01*
X154305000Y-157480000D02*
X151765000Y-160020000D01*
X151765000Y-160020000D02*
X151765000Y-162560000D01*
X154305000Y-156845000D02*
X154305000Y-157480000D01*
X229235000Y-157480000D02*
X226695000Y-160020000D01*
X226695000Y-160020000D02*
X226695000Y-162560000D01*
X229235000Y-156845000D02*
X229235000Y-157480000D01*
X229235000Y-73025000D02*
X229235000Y-73660000D01*
X226695000Y-76200000D02*
X226695000Y-78740000D01*
X229235000Y-73660000D02*
X226695000Y-76200000D01*
X154305000Y-73025000D02*
X154305000Y-73660000D01*
X151765000Y-76200000D02*
X151765000Y-78740000D01*
X154305000Y-73660000D02*
X151765000Y-76200000D01*
X79375000Y-73660000D02*
X76835000Y-76200000D01*
X76835000Y-76200000D02*
X76835000Y-78740000D01*
X79375000Y-73025000D02*
X79375000Y-73660000D01*
X38735000Y-145415000D02*
X38735000Y-133350000D01*
X38735000Y-133350000D02*
X43815000Y-128270000D01*
X43815000Y-128270000D02*
X48895000Y-128270000D01*
X51435000Y-128270000D02*
X52705000Y-127000000D01*
X51435000Y-128270000D02*
X48895000Y-128270000D01*
X39370000Y-146050000D02*
X38735000Y-145415000D01*
X38735000Y-146050000D02*
X39370000Y-146050000D01*
X38735000Y-145415000D02*
X38735000Y-146050000D01*
X113665000Y-145415000D02*
X113665000Y-146050000D01*
X113665000Y-146050000D02*
X114300000Y-146050000D01*
X114300000Y-146050000D02*
X113665000Y-145415000D01*
X126365000Y-128270000D02*
X123825000Y-128270000D01*
X126365000Y-128270000D02*
X127635000Y-127000000D01*
X118745000Y-128270000D02*
X123825000Y-128270000D01*
X113665000Y-133350000D02*
X118745000Y-128270000D01*
X113665000Y-145415000D02*
X113665000Y-133350000D01*
X188595000Y-145415000D02*
X188595000Y-146050000D01*
X188595000Y-146050000D02*
X189230000Y-146050000D01*
X189230000Y-146050000D02*
X188595000Y-145415000D01*
X201295000Y-128270000D02*
X198755000Y-128270000D01*
X201295000Y-128270000D02*
X202565000Y-127000000D01*
X193675000Y-128270000D02*
X198755000Y-128270000D01*
X188595000Y-133350000D02*
X193675000Y-128270000D01*
X188595000Y-145415000D02*
X188595000Y-133350000D01*
X188595000Y-61595000D02*
X188595000Y-49530000D01*
X188595000Y-49530000D02*
X193675000Y-44450000D01*
X193675000Y-44450000D02*
X198755000Y-44450000D01*
X201295000Y-44450000D02*
X202565000Y-43180000D01*
X201295000Y-44450000D02*
X198755000Y-44450000D01*
X189230000Y-62230000D02*
X188595000Y-61595000D01*
X188595000Y-62230000D02*
X189230000Y-62230000D01*
X188595000Y-61595000D02*
X188595000Y-62230000D01*
X113665000Y-61595000D02*
X113665000Y-49530000D01*
X113665000Y-49530000D02*
X118745000Y-44450000D01*
X118745000Y-44450000D02*
X123825000Y-44450000D01*
X126365000Y-44450000D02*
X127635000Y-43180000D01*
X126365000Y-44450000D02*
X123825000Y-44450000D01*
X114300000Y-62230000D02*
X113665000Y-61595000D01*
X113665000Y-62230000D02*
X114300000Y-62230000D01*
X113665000Y-61595000D02*
X113665000Y-62230000D01*
X38735000Y-61595000D02*
X38735000Y-62230000D01*
X38735000Y-62230000D02*
X39370000Y-62230000D01*
X39370000Y-62230000D02*
X38735000Y-61595000D01*
X51435000Y-44450000D02*
X48895000Y-44450000D01*
X51435000Y-44450000D02*
X52705000Y-43180000D01*
X43815000Y-44450000D02*
X48895000Y-44450000D01*
X38735000Y-49530000D02*
X43815000Y-44450000D01*
X38735000Y-61595000D02*
X38735000Y-49530000D01*
X40005000Y-144145000D02*
X41910000Y-146050000D01*
X40005000Y-133985000D02*
X40005000Y-144145000D01*
X44450000Y-129540000D02*
X40005000Y-133985000D01*
X53340000Y-129540000D02*
X44450000Y-129540000D01*
X55245000Y-127635000D02*
X53340000Y-129540000D01*
X55245000Y-127000000D02*
X55245000Y-127635000D01*
X130175000Y-127000000D02*
X130175000Y-127635000D01*
X130175000Y-127635000D02*
X128270000Y-129540000D01*
X128270000Y-129540000D02*
X119380000Y-129540000D01*
X119380000Y-129540000D02*
X114935000Y-133985000D01*
X114935000Y-133985000D02*
X114935000Y-144145000D01*
X114935000Y-144145000D02*
X116840000Y-146050000D01*
X205105000Y-127000000D02*
X205105000Y-127635000D01*
X205105000Y-127635000D02*
X203200000Y-129540000D01*
X203200000Y-129540000D02*
X194310000Y-129540000D01*
X194310000Y-129540000D02*
X189865000Y-133985000D01*
X189865000Y-133985000D02*
X189865000Y-144145000D01*
X189865000Y-144145000D02*
X191770000Y-146050000D01*
X189865000Y-60325000D02*
X191770000Y-62230000D01*
X189865000Y-50165000D02*
X189865000Y-60325000D01*
X194310000Y-45720000D02*
X189865000Y-50165000D01*
X203200000Y-45720000D02*
X194310000Y-45720000D01*
X205105000Y-43815000D02*
X203200000Y-45720000D01*
X205105000Y-43180000D02*
X205105000Y-43815000D01*
X114935000Y-60325000D02*
X116840000Y-62230000D01*
X114935000Y-50165000D02*
X114935000Y-60325000D01*
X119380000Y-45720000D02*
X114935000Y-50165000D01*
X128270000Y-45720000D02*
X119380000Y-45720000D01*
X130175000Y-43815000D02*
X128270000Y-45720000D01*
X130175000Y-43180000D02*
X130175000Y-43815000D01*
X55245000Y-43180000D02*
X55245000Y-43815000D01*
X55245000Y-43815000D02*
X53340000Y-45720000D01*
X53340000Y-45720000D02*
X44450000Y-45720000D01*
X44450000Y-45720000D02*
X40005000Y-50165000D01*
X40005000Y-50165000D02*
X40005000Y-60325000D01*
X40005000Y-60325000D02*
X41910000Y-62230000D01*
X53975000Y-130810000D02*
X45085000Y-130810000D01*
X45085000Y-130810000D02*
X41275000Y-134620000D01*
X41275000Y-134620000D02*
X41275000Y-142875000D01*
X41275000Y-142875000D02*
X44450000Y-146050000D01*
X57785000Y-127000000D02*
X53975000Y-130810000D01*
X132715000Y-127000000D02*
X128905000Y-130810000D01*
X116205000Y-142875000D02*
X119380000Y-146050000D01*
X116205000Y-134620000D02*
X116205000Y-142875000D01*
X120015000Y-130810000D02*
X116205000Y-134620000D01*
X128905000Y-130810000D02*
X120015000Y-130810000D01*
X207645000Y-127000000D02*
X203835000Y-130810000D01*
X191135000Y-142875000D02*
X194310000Y-146050000D01*
X191135000Y-134620000D02*
X191135000Y-142875000D01*
X194945000Y-130810000D02*
X191135000Y-134620000D01*
X203835000Y-130810000D02*
X194945000Y-130810000D01*
X203835000Y-46990000D02*
X194945000Y-46990000D01*
X194945000Y-46990000D02*
X191135000Y-50800000D01*
X191135000Y-50800000D02*
X191135000Y-59055000D01*
X191135000Y-59055000D02*
X194310000Y-62230000D01*
X207645000Y-43180000D02*
X203835000Y-46990000D01*
X128905000Y-46990000D02*
X120015000Y-46990000D01*
X120015000Y-46990000D02*
X116205000Y-50800000D01*
X116205000Y-50800000D02*
X116205000Y-59055000D01*
X116205000Y-59055000D02*
X119380000Y-62230000D01*
X132715000Y-43180000D02*
X128905000Y-46990000D01*
X57785000Y-43180000D02*
X53975000Y-46990000D01*
X41275000Y-59055000D02*
X44450000Y-62230000D01*
X41275000Y-50800000D02*
X41275000Y-59055000D01*
X45085000Y-46990000D02*
X41275000Y-50800000D01*
X53975000Y-46990000D02*
X45085000Y-46990000D01*
X55245000Y-132080000D02*
X45720000Y-132080000D01*
X45720000Y-132080000D02*
X42545000Y-135255000D01*
X42545000Y-135255000D02*
X42545000Y-141605000D01*
X42545000Y-141605000D02*
X46990000Y-146050000D01*
X60325000Y-127000000D02*
X55245000Y-132080000D01*
X135255000Y-127000000D02*
X130175000Y-132080000D01*
X117475000Y-141605000D02*
X121920000Y-146050000D01*
X117475000Y-135255000D02*
X117475000Y-141605000D01*
X120650000Y-132080000D02*
X117475000Y-135255000D01*
X130175000Y-132080000D02*
X120650000Y-132080000D01*
X210185000Y-127000000D02*
X205105000Y-132080000D01*
X192405000Y-141605000D02*
X196850000Y-146050000D01*
X192405000Y-135255000D02*
X192405000Y-141605000D01*
X195580000Y-132080000D02*
X192405000Y-135255000D01*
X205105000Y-132080000D02*
X195580000Y-132080000D01*
X205105000Y-48260000D02*
X195580000Y-48260000D01*
X195580000Y-48260000D02*
X192405000Y-51435000D01*
X192405000Y-51435000D02*
X192405000Y-57785000D01*
X192405000Y-57785000D02*
X196850000Y-62230000D01*
X210185000Y-43180000D02*
X205105000Y-48260000D01*
X130175000Y-48260000D02*
X120650000Y-48260000D01*
X120650000Y-48260000D02*
X117475000Y-51435000D01*
X117475000Y-51435000D02*
X117475000Y-57785000D01*
X117475000Y-57785000D02*
X121920000Y-62230000D01*
X135255000Y-43180000D02*
X130175000Y-48260000D01*
X60325000Y-43180000D02*
X55245000Y-48260000D01*
X42545000Y-57785000D02*
X46990000Y-62230000D01*
X42545000Y-51435000D02*
X42545000Y-57785000D01*
X45720000Y-48260000D02*
X42545000Y-51435000D01*
X55245000Y-48260000D02*
X45720000Y-48260000D01*
X43815000Y-140335000D02*
X43815000Y-135890000D01*
X43815000Y-135890000D02*
X46355000Y-133350000D01*
X46355000Y-133350000D02*
X52705000Y-133350000D01*
X56515000Y-133350000D02*
X62865000Y-127000000D01*
X56515000Y-133350000D02*
X52705000Y-133350000D01*
X49530000Y-146050000D02*
X43815000Y-140335000D01*
X124460000Y-146050000D02*
X118745000Y-140335000D01*
X131445000Y-133350000D02*
X127635000Y-133350000D01*
X131445000Y-133350000D02*
X137795000Y-127000000D01*
X121285000Y-133350000D02*
X127635000Y-133350000D01*
X118745000Y-135890000D02*
X121285000Y-133350000D01*
X118745000Y-140335000D02*
X118745000Y-135890000D01*
X199390000Y-146050000D02*
X193675000Y-140335000D01*
X206375000Y-133350000D02*
X202565000Y-133350000D01*
X206375000Y-133350000D02*
X212725000Y-127000000D01*
X196215000Y-133350000D02*
X202565000Y-133350000D01*
X193675000Y-135890000D02*
X196215000Y-133350000D01*
X193675000Y-140335000D02*
X193675000Y-135890000D01*
X193675000Y-56515000D02*
X193675000Y-52070000D01*
X193675000Y-52070000D02*
X196215000Y-49530000D01*
X196215000Y-49530000D02*
X202565000Y-49530000D01*
X206375000Y-49530000D02*
X212725000Y-43180000D01*
X206375000Y-49530000D02*
X202565000Y-49530000D01*
X199390000Y-62230000D02*
X193675000Y-56515000D01*
X118745000Y-56515000D02*
X118745000Y-52070000D01*
X118745000Y-52070000D02*
X121285000Y-49530000D01*
X121285000Y-49530000D02*
X127635000Y-49530000D01*
X131445000Y-49530000D02*
X137795000Y-43180000D01*
X131445000Y-49530000D02*
X127635000Y-49530000D01*
X124460000Y-62230000D02*
X118745000Y-56515000D01*
X49530000Y-62230000D02*
X43815000Y-56515000D01*
X56515000Y-49530000D02*
X52705000Y-49530000D01*
X56515000Y-49530000D02*
X62865000Y-43180000D01*
X46355000Y-49530000D02*
X52705000Y-49530000D01*
X43815000Y-52070000D02*
X46355000Y-49530000D01*
X43815000Y-56515000D02*
X43815000Y-52070000D01*
X31750000Y-127000000D02*
X31750000Y-130810000D01*
X106680000Y-127000000D02*
X106680000Y-130810000D01*
X181610000Y-127000000D02*
X181610000Y-130810000D01*
X181610000Y-43180000D02*
X181610000Y-46990000D01*
X106680000Y-43180000D02*
X106680000Y-46990000D01*
X31750000Y-43180000D02*
X31750000Y-46990000D01*
X34290000Y-127000000D02*
X34290000Y-130810000D01*
X109220000Y-127000000D02*
X109220000Y-130810000D01*
X184150000Y-127000000D02*
X184150000Y-130810000D01*
X184150000Y-43180000D02*
X184150000Y-46990000D01*
X109220000Y-43180000D02*
X109220000Y-46990000D01*
X34290000Y-43180000D02*
X34290000Y-46990000D01*
X36830000Y-130175000D02*
X36830000Y-130810000D01*
X39370000Y-127635000D02*
X36830000Y-130175000D01*
X39370000Y-127000000D02*
X39370000Y-127635000D01*
X114300000Y-127000000D02*
X114300000Y-127635000D01*
X114300000Y-127635000D02*
X111760000Y-130175000D01*
X111760000Y-130175000D02*
X111760000Y-130810000D01*
X189230000Y-127000000D02*
X189230000Y-127635000D01*
X189230000Y-127635000D02*
X186690000Y-130175000D01*
X186690000Y-130175000D02*
X186690000Y-130810000D01*
X186690000Y-46355000D02*
X186690000Y-46990000D01*
X189230000Y-43815000D02*
X186690000Y-46355000D01*
X189230000Y-43180000D02*
X189230000Y-43815000D01*
X111760000Y-46355000D02*
X111760000Y-46990000D01*
X114300000Y-43815000D02*
X111760000Y-46355000D01*
X114300000Y-43180000D02*
X114300000Y-43815000D01*
X39370000Y-43180000D02*
X39370000Y-43815000D01*
X39370000Y-43815000D02*
X36830000Y-46355000D01*
X36830000Y-46355000D02*
X36830000Y-46990000D01*
X31750000Y-140970000D02*
X31750000Y-146050000D01*
X106680000Y-140970000D02*
X106680000Y-146050000D01*
X181610000Y-140970000D02*
X181610000Y-146050000D01*
X181610000Y-57150000D02*
X181610000Y-62230000D01*
X106680000Y-57150000D02*
X106680000Y-62230000D01*
X31750000Y-57150000D02*
X31750000Y-62230000D01*
X34290000Y-146050000D02*
X34290000Y-140970000D01*
X109220000Y-146050000D02*
X109220000Y-140970000D01*
X184150000Y-146050000D02*
X184150000Y-140970000D01*
X184150000Y-62230000D02*
X184150000Y-57150000D01*
X109220000Y-62230000D02*
X109220000Y-57150000D01*
X34290000Y-62230000D02*
X34290000Y-57150000D01*
X36830000Y-140970000D02*
X36830000Y-146050000D01*
X111760000Y-140970000D02*
X111760000Y-146050000D01*
X186690000Y-140970000D02*
X186690000Y-146050000D01*
X186690000Y-57150000D02*
X186690000Y-62230000D01*
X111760000Y-57150000D02*
X111760000Y-62230000D01*
X36830000Y-57150000D02*
X36830000Y-62230000D01*
X76200000Y-142875000D02*
X76835000Y-142875000D01*
X77470000Y-142875000D02*
X76835000Y-142875000D01*
X78105000Y-140335000D02*
X77470000Y-140970000D01*
X77470000Y-140970000D02*
X77470000Y-142875000D01*
X78105000Y-138430000D02*
X78105000Y-140335000D01*
X77470000Y-138430000D02*
X78105000Y-138430000D01*
X76200000Y-142875000D02*
X76835000Y-142875000D01*
X76835000Y-140335000D02*
X76200000Y-140970000D01*
X76200000Y-140970000D02*
X76200000Y-142875000D01*
X76835000Y-138430000D02*
X76835000Y-140335000D01*
X77470000Y-138430000D02*
X76835000Y-138430000D01*
X152400000Y-138430000D02*
X151765000Y-138430000D01*
X151765000Y-138430000D02*
X151765000Y-140335000D01*
X151130000Y-140970000D02*
X151130000Y-142875000D01*
X151765000Y-140335000D02*
X151130000Y-140970000D01*
X151130000Y-142875000D02*
X151765000Y-142875000D01*
X152400000Y-138430000D02*
X153035000Y-138430000D01*
X153035000Y-138430000D02*
X153035000Y-140335000D01*
X152400000Y-140970000D02*
X152400000Y-142875000D01*
X153035000Y-140335000D02*
X152400000Y-140970000D01*
X152400000Y-142875000D02*
X151765000Y-142875000D01*
X151130000Y-142875000D02*
X151765000Y-142875000D01*
X227330000Y-138430000D02*
X226695000Y-138430000D01*
X226695000Y-138430000D02*
X226695000Y-140335000D01*
X226060000Y-140970000D02*
X226060000Y-142875000D01*
X226695000Y-140335000D02*
X226060000Y-140970000D01*
X226060000Y-142875000D02*
X226695000Y-142875000D01*
X227330000Y-138430000D02*
X227965000Y-138430000D01*
X227965000Y-138430000D02*
X227965000Y-140335000D01*
X227330000Y-140970000D02*
X227330000Y-142875000D01*
X227965000Y-140335000D02*
X227330000Y-140970000D01*
X227330000Y-142875000D02*
X226695000Y-142875000D01*
X226060000Y-142875000D02*
X226695000Y-142875000D01*
X226060000Y-59055000D02*
X226695000Y-59055000D01*
X227330000Y-59055000D02*
X226695000Y-59055000D01*
X227965000Y-56515000D02*
X227330000Y-57150000D01*
X227330000Y-57150000D02*
X227330000Y-59055000D01*
X227965000Y-54610000D02*
X227965000Y-56515000D01*
X227330000Y-54610000D02*
X227965000Y-54610000D01*
X226060000Y-59055000D02*
X226695000Y-59055000D01*
X226695000Y-56515000D02*
X226060000Y-57150000D01*
X226060000Y-57150000D02*
X226060000Y-59055000D01*
X226695000Y-54610000D02*
X226695000Y-56515000D01*
X227330000Y-54610000D02*
X226695000Y-54610000D01*
X151130000Y-59055000D02*
X151765000Y-59055000D01*
X152400000Y-59055000D02*
X151765000Y-59055000D01*
X153035000Y-56515000D02*
X152400000Y-57150000D01*
X152400000Y-57150000D02*
X152400000Y-59055000D01*
X153035000Y-54610000D02*
X153035000Y-56515000D01*
X152400000Y-54610000D02*
X153035000Y-54610000D01*
X151130000Y-59055000D02*
X151765000Y-59055000D01*
X151765000Y-56515000D02*
X151130000Y-57150000D01*
X151130000Y-57150000D02*
X151130000Y-59055000D01*
X151765000Y-54610000D02*
X151765000Y-56515000D01*
X152400000Y-54610000D02*
X151765000Y-54610000D01*
X77470000Y-54610000D02*
X76835000Y-54610000D01*
X76835000Y-54610000D02*
X76835000Y-56515000D01*
X76200000Y-57150000D02*
X76200000Y-59055000D01*
X76835000Y-56515000D02*
X76200000Y-57150000D01*
X76200000Y-59055000D02*
X76835000Y-59055000D01*
X77470000Y-54610000D02*
X78105000Y-54610000D01*
X78105000Y-54610000D02*
X78105000Y-56515000D01*
X77470000Y-57150000D02*
X77470000Y-59055000D01*
X78105000Y-56515000D02*
X77470000Y-57150000D01*
X77470000Y-59055000D02*
X76835000Y-59055000D01*
X76200000Y-59055000D02*
X76835000Y-59055000D01*
X82550000Y-142875000D02*
X81915000Y-142875000D01*
X82550000Y-141605000D02*
X82550000Y-142875000D01*
X80645000Y-139700000D02*
X82550000Y-141605000D01*
X80645000Y-138430000D02*
X80645000Y-139700000D01*
X80010000Y-138430000D02*
X80645000Y-138430000D01*
X81280000Y-142875000D02*
X81915000Y-142875000D01*
X81280000Y-142875000D02*
X81915000Y-142875000D01*
X81280000Y-142875000D02*
X81915000Y-142875000D01*
X79375000Y-139700000D02*
X81280000Y-141605000D01*
X81280000Y-141605000D02*
X81280000Y-142875000D01*
X79375000Y-138430000D02*
X79375000Y-139700000D01*
X80010000Y-138430000D02*
X79375000Y-138430000D01*
X154940000Y-138430000D02*
X154305000Y-138430000D01*
X154305000Y-138430000D02*
X154305000Y-139700000D01*
X156210000Y-141605000D02*
X156210000Y-142875000D01*
X154305000Y-139700000D02*
X156210000Y-141605000D01*
X156210000Y-142875000D02*
X156845000Y-142875000D01*
X156210000Y-142875000D02*
X156845000Y-142875000D01*
X156210000Y-142875000D02*
X156845000Y-142875000D01*
X154940000Y-138430000D02*
X155575000Y-138430000D01*
X155575000Y-138430000D02*
X155575000Y-139700000D01*
X155575000Y-139700000D02*
X157480000Y-141605000D01*
X157480000Y-141605000D02*
X157480000Y-142875000D01*
X157480000Y-142875000D02*
X156845000Y-142875000D01*
X229870000Y-138430000D02*
X229235000Y-138430000D01*
X229235000Y-138430000D02*
X229235000Y-139700000D01*
X231140000Y-141605000D02*
X231140000Y-142875000D01*
X229235000Y-139700000D02*
X231140000Y-141605000D01*
X231140000Y-142875000D02*
X231775000Y-142875000D01*
X231140000Y-142875000D02*
X231775000Y-142875000D01*
X231140000Y-142875000D02*
X231775000Y-142875000D01*
X229870000Y-138430000D02*
X230505000Y-138430000D01*
X230505000Y-138430000D02*
X230505000Y-139700000D01*
X230505000Y-139700000D02*
X232410000Y-141605000D01*
X232410000Y-141605000D02*
X232410000Y-142875000D01*
X232410000Y-142875000D02*
X231775000Y-142875000D01*
X232410000Y-59055000D02*
X231775000Y-59055000D01*
X232410000Y-57785000D02*
X232410000Y-59055000D01*
X230505000Y-55880000D02*
X232410000Y-57785000D01*
X230505000Y-54610000D02*
X230505000Y-55880000D01*
X229870000Y-54610000D02*
X230505000Y-54610000D01*
X231140000Y-59055000D02*
X231775000Y-59055000D01*
X231140000Y-59055000D02*
X231775000Y-59055000D01*
X231140000Y-59055000D02*
X231775000Y-59055000D01*
X229235000Y-55880000D02*
X231140000Y-57785000D01*
X231140000Y-57785000D02*
X231140000Y-59055000D01*
X229235000Y-54610000D02*
X229235000Y-55880000D01*
X229870000Y-54610000D02*
X229235000Y-54610000D01*
X157480000Y-59055000D02*
X156845000Y-59055000D01*
X157480000Y-57785000D02*
X157480000Y-59055000D01*
X155575000Y-55880000D02*
X157480000Y-57785000D01*
X155575000Y-54610000D02*
X155575000Y-55880000D01*
X154940000Y-54610000D02*
X155575000Y-54610000D01*
X156210000Y-59055000D02*
X156845000Y-59055000D01*
X156210000Y-59055000D02*
X156845000Y-59055000D01*
X156210000Y-59055000D02*
X156845000Y-59055000D01*
X154305000Y-55880000D02*
X156210000Y-57785000D01*
X156210000Y-57785000D02*
X156210000Y-59055000D01*
X154305000Y-54610000D02*
X154305000Y-55880000D01*
X154940000Y-54610000D02*
X154305000Y-54610000D01*
X80010000Y-54610000D02*
X79375000Y-54610000D01*
X79375000Y-54610000D02*
X79375000Y-55880000D01*
X81280000Y-57785000D02*
X81280000Y-59055000D01*
X79375000Y-55880000D02*
X81280000Y-57785000D01*
X81280000Y-59055000D02*
X81915000Y-59055000D01*
X81280000Y-59055000D02*
X81915000Y-59055000D01*
X81280000Y-59055000D02*
X81915000Y-59055000D01*
X80010000Y-54610000D02*
X80645000Y-54610000D01*
X80645000Y-54610000D02*
X80645000Y-55880000D01*
X80645000Y-55880000D02*
X82550000Y-57785000D01*
X82550000Y-57785000D02*
X82550000Y-59055000D01*
X82550000Y-59055000D02*
X81915000Y-59055000D01*
X78740000Y-142875000D02*
X79375000Y-142875000D01*
X74295000Y-142875000D02*
X73660000Y-142875000D01*
X78740000Y-142875000D02*
X79375000Y-142875000D01*
X74930000Y-144145000D02*
X75565000Y-144780000D01*
X75565000Y-144780000D02*
X78105000Y-144780000D01*
X78105000Y-144780000D02*
X78740000Y-144145000D01*
X78740000Y-144145000D02*
X78740000Y-142875000D01*
X74930000Y-142875000D02*
X74930000Y-144145000D01*
X74295000Y-142875000D02*
X74930000Y-142875000D01*
X73660000Y-142875000D02*
X74295000Y-142875000D01*
X80010000Y-144145000D02*
X78740000Y-145415000D01*
X78740000Y-145415000D02*
X74930000Y-145415000D01*
X74930000Y-145415000D02*
X73660000Y-144145000D01*
X73660000Y-144145000D02*
X73660000Y-142875000D01*
X80010000Y-142875000D02*
X80010000Y-144145000D01*
X79375000Y-142875000D02*
X80010000Y-142875000D01*
X154305000Y-142875000D02*
X154940000Y-142875000D01*
X154940000Y-142875000D02*
X154940000Y-144145000D01*
X148590000Y-144145000D02*
X148590000Y-142875000D01*
X149860000Y-145415000D02*
X148590000Y-144145000D01*
X153670000Y-145415000D02*
X149860000Y-145415000D01*
X154940000Y-144145000D02*
X153670000Y-145415000D01*
X148590000Y-142875000D02*
X149225000Y-142875000D01*
X149225000Y-142875000D02*
X149860000Y-142875000D01*
X149860000Y-142875000D02*
X149860000Y-144145000D01*
X153670000Y-144145000D02*
X153670000Y-142875000D01*
X153035000Y-144780000D02*
X153670000Y-144145000D01*
X150495000Y-144780000D02*
X153035000Y-144780000D01*
X149860000Y-144145000D02*
X150495000Y-144780000D01*
X153670000Y-142875000D02*
X154305000Y-142875000D01*
X149225000Y-142875000D02*
X148590000Y-142875000D01*
X153670000Y-142875000D02*
X154305000Y-142875000D01*
X229235000Y-142875000D02*
X229870000Y-142875000D01*
X229870000Y-142875000D02*
X229870000Y-144145000D01*
X223520000Y-144145000D02*
X223520000Y-142875000D01*
X224790000Y-145415000D02*
X223520000Y-144145000D01*
X228600000Y-145415000D02*
X224790000Y-145415000D01*
X229870000Y-144145000D02*
X228600000Y-145415000D01*
X223520000Y-142875000D02*
X224155000Y-142875000D01*
X224155000Y-142875000D02*
X224790000Y-142875000D01*
X224790000Y-142875000D02*
X224790000Y-144145000D01*
X228600000Y-144145000D02*
X228600000Y-142875000D01*
X227965000Y-144780000D02*
X228600000Y-144145000D01*
X225425000Y-144780000D02*
X227965000Y-144780000D01*
X224790000Y-144145000D02*
X225425000Y-144780000D01*
X228600000Y-142875000D02*
X229235000Y-142875000D01*
X224155000Y-142875000D02*
X223520000Y-142875000D01*
X228600000Y-142875000D02*
X229235000Y-142875000D01*
X228600000Y-59055000D02*
X229235000Y-59055000D01*
X224155000Y-59055000D02*
X223520000Y-59055000D01*
X228600000Y-59055000D02*
X229235000Y-59055000D01*
X224790000Y-60325000D02*
X225425000Y-60960000D01*
X225425000Y-60960000D02*
X227965000Y-60960000D01*
X227965000Y-60960000D02*
X228600000Y-60325000D01*
X228600000Y-60325000D02*
X228600000Y-59055000D01*
X224790000Y-59055000D02*
X224790000Y-60325000D01*
X224155000Y-59055000D02*
X224790000Y-59055000D01*
X223520000Y-59055000D02*
X224155000Y-59055000D01*
X229870000Y-60325000D02*
X228600000Y-61595000D01*
X228600000Y-61595000D02*
X224790000Y-61595000D01*
X224790000Y-61595000D02*
X223520000Y-60325000D01*
X223520000Y-60325000D02*
X223520000Y-59055000D01*
X229870000Y-59055000D02*
X229870000Y-60325000D01*
X229235000Y-59055000D02*
X229870000Y-59055000D01*
X153670000Y-59055000D02*
X154305000Y-59055000D01*
X149225000Y-59055000D02*
X148590000Y-59055000D01*
X153670000Y-59055000D02*
X154305000Y-59055000D01*
X149860000Y-60325000D02*
X150495000Y-60960000D01*
X150495000Y-60960000D02*
X153035000Y-60960000D01*
X153035000Y-60960000D02*
X153670000Y-60325000D01*
X153670000Y-60325000D02*
X153670000Y-59055000D01*
X149860000Y-59055000D02*
X149860000Y-60325000D01*
X149225000Y-59055000D02*
X149860000Y-59055000D01*
X148590000Y-59055000D02*
X149225000Y-59055000D01*
X154940000Y-60325000D02*
X153670000Y-61595000D01*
X153670000Y-61595000D02*
X149860000Y-61595000D01*
X149860000Y-61595000D02*
X148590000Y-60325000D01*
X148590000Y-60325000D02*
X148590000Y-59055000D01*
X154940000Y-59055000D02*
X154940000Y-60325000D01*
X154305000Y-59055000D02*
X154940000Y-59055000D01*
X79375000Y-59055000D02*
X80010000Y-59055000D01*
X80010000Y-59055000D02*
X80010000Y-60325000D01*
X73660000Y-60325000D02*
X73660000Y-59055000D01*
X74930000Y-61595000D02*
X73660000Y-60325000D01*
X78740000Y-61595000D02*
X74930000Y-61595000D01*
X80010000Y-60325000D02*
X78740000Y-61595000D01*
X73660000Y-59055000D02*
X74295000Y-59055000D01*
X74295000Y-59055000D02*
X74930000Y-59055000D01*
X74930000Y-59055000D02*
X74930000Y-60325000D01*
X78740000Y-60325000D02*
X78740000Y-59055000D01*
X78105000Y-60960000D02*
X78740000Y-60325000D01*
X75565000Y-60960000D02*
X78105000Y-60960000D01*
X74930000Y-60325000D02*
X75565000Y-60960000D01*
X78740000Y-59055000D02*
X79375000Y-59055000D01*
X74295000Y-59055000D02*
X73660000Y-59055000D01*
X78740000Y-59055000D02*
X79375000Y-59055000D01*
X59690000Y-154940000D02*
X55880000Y-154940000D01*
X55880000Y-154940000D02*
X54610000Y-156210000D01*
X54610000Y-156210000D02*
X54610000Y-158750000D01*
X54610000Y-158750000D02*
X53975000Y-159385000D01*
X53975000Y-159385000D02*
X53975000Y-161925000D01*
X61595000Y-156845000D02*
X59690000Y-154940000D01*
X136525000Y-156845000D02*
X134620000Y-154940000D01*
X128905000Y-159385000D02*
X128905000Y-161925000D01*
X129540000Y-158750000D02*
X128905000Y-159385000D01*
X129540000Y-156210000D02*
X129540000Y-158750000D01*
X130810000Y-154940000D02*
X129540000Y-156210000D01*
X134620000Y-154940000D02*
X130810000Y-154940000D01*
X211455000Y-156845000D02*
X209550000Y-154940000D01*
X203835000Y-159385000D02*
X203835000Y-161925000D01*
X204470000Y-158750000D02*
X203835000Y-159385000D01*
X204470000Y-156210000D02*
X204470000Y-158750000D01*
X205740000Y-154940000D02*
X204470000Y-156210000D01*
X209550000Y-154940000D02*
X205740000Y-154940000D01*
X209550000Y-71120000D02*
X205740000Y-71120000D01*
X205740000Y-71120000D02*
X204470000Y-72390000D01*
X204470000Y-72390000D02*
X204470000Y-74930000D01*
X204470000Y-74930000D02*
X203835000Y-75565000D01*
X203835000Y-75565000D02*
X203835000Y-78105000D01*
X211455000Y-73025000D02*
X209550000Y-71120000D01*
X134620000Y-71120000D02*
X130810000Y-71120000D01*
X130810000Y-71120000D02*
X129540000Y-72390000D01*
X129540000Y-72390000D02*
X129540000Y-74930000D01*
X129540000Y-74930000D02*
X128905000Y-75565000D01*
X128905000Y-75565000D02*
X128905000Y-78105000D01*
X136525000Y-73025000D02*
X134620000Y-71120000D01*
X61595000Y-73025000D02*
X59690000Y-71120000D01*
X53975000Y-75565000D02*
X53975000Y-78105000D01*
X54610000Y-74930000D02*
X53975000Y-75565000D01*
X54610000Y-72390000D02*
X54610000Y-74930000D01*
X55880000Y-71120000D02*
X54610000Y-72390000D01*
X59690000Y-71120000D02*
X55880000Y-71120000D01*
X56515000Y-156845000D02*
X56515000Y-161925000D01*
X131445000Y-156845000D02*
X131445000Y-161925000D01*
X206375000Y-156845000D02*
X206375000Y-161925000D01*
X206375000Y-73025000D02*
X206375000Y-78105000D01*
X131445000Y-73025000D02*
X131445000Y-78105000D01*
X56515000Y-73025000D02*
X56515000Y-78105000D01*
X59055000Y-156845000D02*
X59055000Y-161925000D01*
X133985000Y-156845000D02*
X133985000Y-161925000D01*
X208915000Y-156845000D02*
X208915000Y-161925000D01*
X208915000Y-73025000D02*
X208915000Y-78105000D01*
X133985000Y-73025000D02*
X133985000Y-78105000D01*
X59055000Y-73025000D02*
X59055000Y-78105000D01*
X63500000Y-156210000D02*
X63500000Y-157480000D01*
X63500000Y-157480000D02*
X61595000Y-159385000D01*
X61595000Y-159385000D02*
X61595000Y-161925000D01*
X61595000Y-154305000D02*
X63500000Y-156210000D01*
X136525000Y-154305000D02*
X138430000Y-156210000D01*
X136525000Y-159385000D02*
X136525000Y-161925000D01*
X138430000Y-157480000D02*
X136525000Y-159385000D01*
X138430000Y-156210000D02*
X138430000Y-157480000D01*
X211455000Y-154305000D02*
X213360000Y-156210000D01*
X211455000Y-159385000D02*
X211455000Y-161925000D01*
X213360000Y-157480000D02*
X211455000Y-159385000D01*
X213360000Y-156210000D02*
X213360000Y-157480000D01*
X213360000Y-72390000D02*
X213360000Y-73660000D01*
X213360000Y-73660000D02*
X211455000Y-75565000D01*
X211455000Y-75565000D02*
X211455000Y-78105000D01*
X211455000Y-70485000D02*
X213360000Y-72390000D01*
X138430000Y-72390000D02*
X138430000Y-73660000D01*
X138430000Y-73660000D02*
X136525000Y-75565000D01*
X136525000Y-75565000D02*
X136525000Y-78105000D01*
X136525000Y-70485000D02*
X138430000Y-72390000D01*
X61595000Y-70485000D02*
X63500000Y-72390000D01*
X61595000Y-75565000D02*
X61595000Y-78105000D01*
X63500000Y-73660000D02*
X61595000Y-75565000D01*
X63500000Y-72390000D02*
X63500000Y-73660000D01*
X64135000Y-160020000D02*
X64135000Y-161925000D01*
X66675000Y-157480000D02*
X64135000Y-160020000D01*
X66675000Y-156845000D02*
X66675000Y-157480000D01*
X141605000Y-156845000D02*
X141605000Y-157480000D01*
X141605000Y-157480000D02*
X139065000Y-160020000D01*
X139065000Y-160020000D02*
X139065000Y-161925000D01*
X216535000Y-156845000D02*
X216535000Y-157480000D01*
X216535000Y-157480000D02*
X213995000Y-160020000D01*
X213995000Y-160020000D02*
X213995000Y-161925000D01*
X213995000Y-76200000D02*
X213995000Y-78105000D01*
X216535000Y-73660000D02*
X213995000Y-76200000D01*
X216535000Y-73025000D02*
X216535000Y-73660000D01*
X139065000Y-76200000D02*
X139065000Y-78105000D01*
X141605000Y-73660000D02*
X139065000Y-76200000D01*
X141605000Y-73025000D02*
X141605000Y-73660000D01*
X66675000Y-73025000D02*
X66675000Y-73660000D01*
X66675000Y-73660000D02*
X64135000Y-76200000D01*
X64135000Y-76200000D02*
X64135000Y-78105000D01*
X66675000Y-160020000D02*
X66675000Y-161925000D01*
X69215000Y-157480000D02*
X66675000Y-160020000D01*
X69215000Y-156845000D02*
X69215000Y-157480000D01*
X144145000Y-156845000D02*
X144145000Y-157480000D01*
X144145000Y-157480000D02*
X141605000Y-160020000D01*
X141605000Y-160020000D02*
X141605000Y-161925000D01*
X219075000Y-156845000D02*
X219075000Y-157480000D01*
X219075000Y-157480000D02*
X216535000Y-160020000D01*
X216535000Y-160020000D02*
X216535000Y-161925000D01*
X216535000Y-76200000D02*
X216535000Y-78105000D01*
X219075000Y-73660000D02*
X216535000Y-76200000D01*
X219075000Y-73025000D02*
X219075000Y-73660000D01*
X141605000Y-76200000D02*
X141605000Y-78105000D01*
X144145000Y-73660000D02*
X141605000Y-76200000D01*
X144145000Y-73025000D02*
X144145000Y-73660000D01*
X69215000Y-73025000D02*
X69215000Y-73660000D01*
X69215000Y-73660000D02*
X66675000Y-76200000D01*
X66675000Y-76200000D02*
X66675000Y-78105000D01*
X69215000Y-160020000D02*
X69215000Y-161925000D01*
X71755000Y-157480000D02*
X69215000Y-160020000D01*
X71755000Y-156845000D02*
X71755000Y-157480000D01*
X146685000Y-156845000D02*
X146685000Y-157480000D01*
X146685000Y-157480000D02*
X144145000Y-160020000D01*
X144145000Y-160020000D02*
X144145000Y-161925000D01*
X221615000Y-156845000D02*
X221615000Y-157480000D01*
X221615000Y-157480000D02*
X219075000Y-160020000D01*
X219075000Y-160020000D02*
X219075000Y-161925000D01*
X219075000Y-76200000D02*
X219075000Y-78105000D01*
X221615000Y-73660000D02*
X219075000Y-76200000D01*
X221615000Y-73025000D02*
X221615000Y-73660000D01*
X144145000Y-76200000D02*
X144145000Y-78105000D01*
X146685000Y-73660000D02*
X144145000Y-76200000D01*
X146685000Y-73025000D02*
X146685000Y-73660000D01*
X71755000Y-73025000D02*
X71755000Y-73660000D01*
X71755000Y-73660000D02*
X69215000Y-76200000D01*
X69215000Y-76200000D02*
X69215000Y-78105000D01*
X71755000Y-160020000D02*
X71755000Y-161925000D01*
X74295000Y-157480000D02*
X71755000Y-160020000D01*
X74295000Y-156845000D02*
X74295000Y-157480000D01*
X149225000Y-156845000D02*
X149225000Y-157480000D01*
X149225000Y-157480000D02*
X146685000Y-160020000D01*
X146685000Y-160020000D02*
X146685000Y-161925000D01*
X224155000Y-156845000D02*
X224155000Y-157480000D01*
X224155000Y-157480000D02*
X221615000Y-160020000D01*
X221615000Y-160020000D02*
X221615000Y-161925000D01*
X221615000Y-76200000D02*
X221615000Y-78105000D01*
X224155000Y-73660000D02*
X221615000Y-76200000D01*
X224155000Y-73025000D02*
X224155000Y-73660000D01*
X146685000Y-76200000D02*
X146685000Y-78105000D01*
X149225000Y-73660000D02*
X146685000Y-76200000D01*
X149225000Y-73025000D02*
X149225000Y-73660000D01*
X74295000Y-73025000D02*
X74295000Y-73660000D01*
X74295000Y-73660000D02*
X71755000Y-76200000D01*
X71755000Y-76200000D02*
X71755000Y-78105000D01*
X33655000Y-160020000D02*
X33655000Y-161925000D01*
X36195000Y-157480000D02*
X33655000Y-160020000D01*
X36195000Y-156845000D02*
X36195000Y-157480000D01*
X111125000Y-156845000D02*
X111125000Y-157480000D01*
X111125000Y-157480000D02*
X108585000Y-160020000D01*
X108585000Y-160020000D02*
X108585000Y-161925000D01*
X186055000Y-156845000D02*
X186055000Y-157480000D01*
X186055000Y-157480000D02*
X183515000Y-160020000D01*
X183515000Y-160020000D02*
X183515000Y-161925000D01*
X183515000Y-76200000D02*
X183515000Y-78105000D01*
X186055000Y-73660000D02*
X183515000Y-76200000D01*
X186055000Y-73025000D02*
X186055000Y-73660000D01*
X108585000Y-76200000D02*
X108585000Y-78105000D01*
X111125000Y-73660000D02*
X108585000Y-76200000D01*
X111125000Y-73025000D02*
X111125000Y-73660000D01*
X36195000Y-73025000D02*
X36195000Y-73660000D01*
X36195000Y-73660000D02*
X33655000Y-76200000D01*
X33655000Y-76200000D02*
X33655000Y-78105000D01*
X36195000Y-160020000D02*
X36195000Y-161925000D01*
X38735000Y-157480000D02*
X36195000Y-160020000D01*
X38735000Y-156845000D02*
X38735000Y-157480000D01*
X113665000Y-156845000D02*
X113665000Y-157480000D01*
X113665000Y-157480000D02*
X111125000Y-160020000D01*
X111125000Y-160020000D02*
X111125000Y-161925000D01*
X188595000Y-156845000D02*
X188595000Y-157480000D01*
X188595000Y-157480000D02*
X186055000Y-160020000D01*
X186055000Y-160020000D02*
X186055000Y-161925000D01*
X186055000Y-76200000D02*
X186055000Y-78105000D01*
X188595000Y-73660000D02*
X186055000Y-76200000D01*
X188595000Y-73025000D02*
X188595000Y-73660000D01*
X111125000Y-76200000D02*
X111125000Y-78105000D01*
X113665000Y-73660000D02*
X111125000Y-76200000D01*
X113665000Y-73025000D02*
X113665000Y-73660000D01*
X38735000Y-73025000D02*
X38735000Y-73660000D01*
X38735000Y-73660000D02*
X36195000Y-76200000D01*
X36195000Y-76200000D02*
X36195000Y-78105000D01*
X38735000Y-160020000D02*
X38735000Y-161925000D01*
X41275000Y-157480000D02*
X38735000Y-160020000D01*
X41275000Y-156845000D02*
X41275000Y-157480000D01*
X116205000Y-156845000D02*
X116205000Y-157480000D01*
X116205000Y-157480000D02*
X113665000Y-160020000D01*
X113665000Y-160020000D02*
X113665000Y-161925000D01*
X191135000Y-156845000D02*
X191135000Y-157480000D01*
X191135000Y-157480000D02*
X188595000Y-160020000D01*
X188595000Y-160020000D02*
X188595000Y-161925000D01*
X188595000Y-76200000D02*
X188595000Y-78105000D01*
X191135000Y-73660000D02*
X188595000Y-76200000D01*
X191135000Y-73025000D02*
X191135000Y-73660000D01*
X113665000Y-76200000D02*
X113665000Y-78105000D01*
X116205000Y-73660000D02*
X113665000Y-76200000D01*
X116205000Y-73025000D02*
X116205000Y-73660000D01*
X41275000Y-73025000D02*
X41275000Y-73660000D01*
X41275000Y-73660000D02*
X38735000Y-76200000D01*
X38735000Y-76200000D02*
X38735000Y-78105000D01*
X41275000Y-160020000D02*
X41275000Y-161925000D01*
X43815000Y-157480000D02*
X41275000Y-160020000D01*
X43815000Y-156845000D02*
X43815000Y-157480000D01*
X118745000Y-156845000D02*
X118745000Y-157480000D01*
X118745000Y-157480000D02*
X116205000Y-160020000D01*
X116205000Y-160020000D02*
X116205000Y-161925000D01*
X193675000Y-156845000D02*
X193675000Y-157480000D01*
X193675000Y-157480000D02*
X191135000Y-160020000D01*
X191135000Y-160020000D02*
X191135000Y-161925000D01*
X191135000Y-76200000D02*
X191135000Y-78105000D01*
X193675000Y-73660000D02*
X191135000Y-76200000D01*
X193675000Y-73025000D02*
X193675000Y-73660000D01*
X116205000Y-76200000D02*
X116205000Y-78105000D01*
X118745000Y-73660000D02*
X116205000Y-76200000D01*
X118745000Y-73025000D02*
X118745000Y-73660000D01*
X43815000Y-73025000D02*
X43815000Y-73660000D01*
X43815000Y-73660000D02*
X41275000Y-76200000D01*
X41275000Y-76200000D02*
X41275000Y-78105000D01*
X43815000Y-160020000D02*
X46355000Y-157480000D01*
X46355000Y-157480000D02*
X46355000Y-154305000D01*
X43815000Y-161925000D02*
X43815000Y-160020000D01*
X118745000Y-161925000D02*
X118745000Y-160020000D01*
X121285000Y-157480000D02*
X121285000Y-154305000D01*
X118745000Y-160020000D02*
X121285000Y-157480000D01*
X193675000Y-161925000D02*
X193675000Y-160020000D01*
X196215000Y-157480000D02*
X196215000Y-154305000D01*
X193675000Y-160020000D02*
X196215000Y-157480000D01*
X193675000Y-76200000D02*
X196215000Y-73660000D01*
X196215000Y-73660000D02*
X196215000Y-70485000D01*
X193675000Y-78105000D02*
X193675000Y-76200000D01*
X118745000Y-76200000D02*
X121285000Y-73660000D01*
X121285000Y-73660000D02*
X121285000Y-70485000D01*
X118745000Y-78105000D02*
X118745000Y-76200000D01*
X43815000Y-78105000D02*
X43815000Y-76200000D01*
X46355000Y-73660000D02*
X46355000Y-70485000D01*
X43815000Y-76200000D02*
X46355000Y-73660000D01*
X44450000Y-163830000D02*
X46355000Y-161925000D01*
X32385000Y-163830000D02*
X44450000Y-163830000D01*
X31750000Y-163195000D02*
X32385000Y-163830000D01*
X31750000Y-159385000D02*
X31750000Y-163195000D01*
X33655000Y-157480000D02*
X31750000Y-159385000D01*
X33655000Y-156845000D02*
X33655000Y-157480000D01*
X108585000Y-156845000D02*
X108585000Y-157480000D01*
X108585000Y-157480000D02*
X106680000Y-159385000D01*
X106680000Y-159385000D02*
X106680000Y-163195000D01*
X106680000Y-163195000D02*
X107315000Y-163830000D01*
X107315000Y-163830000D02*
X119380000Y-163830000D01*
X119380000Y-163830000D02*
X121285000Y-161925000D01*
X183515000Y-156845000D02*
X183515000Y-157480000D01*
X183515000Y-157480000D02*
X181610000Y-159385000D01*
X181610000Y-159385000D02*
X181610000Y-163195000D01*
X181610000Y-163195000D02*
X182245000Y-163830000D01*
X182245000Y-163830000D02*
X194310000Y-163830000D01*
X194310000Y-163830000D02*
X196215000Y-161925000D01*
X194310000Y-80010000D02*
X196215000Y-78105000D01*
X182245000Y-80010000D02*
X194310000Y-80010000D01*
X181610000Y-79375000D02*
X182245000Y-80010000D01*
X181610000Y-75565000D02*
X181610000Y-79375000D01*
X183515000Y-73660000D02*
X181610000Y-75565000D01*
X183515000Y-73025000D02*
X183515000Y-73660000D01*
X119380000Y-80010000D02*
X121285000Y-78105000D01*
X107315000Y-80010000D02*
X119380000Y-80010000D01*
X106680000Y-79375000D02*
X107315000Y-80010000D01*
X106680000Y-75565000D02*
X106680000Y-79375000D01*
X108585000Y-73660000D02*
X106680000Y-75565000D01*
X108585000Y-73025000D02*
X108585000Y-73660000D01*
X33655000Y-73025000D02*
X33655000Y-73660000D01*
X33655000Y-73660000D02*
X31750000Y-75565000D01*
X31750000Y-75565000D02*
X31750000Y-79375000D01*
X31750000Y-79375000D02*
X32385000Y-80010000D01*
X32385000Y-80010000D02*
X44450000Y-80010000D01*
X44450000Y-80010000D02*
X46355000Y-78105000D01*
X48895000Y-154305000D02*
X48895000Y-161925000D01*
X123825000Y-154305000D02*
X123825000Y-161925000D01*
X198755000Y-154305000D02*
X198755000Y-161925000D01*
X198755000Y-70485000D02*
X198755000Y-78105000D01*
X123825000Y-70485000D02*
X123825000Y-78105000D01*
X48895000Y-70485000D02*
X48895000Y-78105000D01*
M02*
