G04 #@! TF.FileFunction,Soldermask,Top*
%FSLAX46Y46*%
G04 Gerber Fmt 4.6, Leading zero omitted, Abs format (unit mm)*
G04 Created by KiCad (PCBNEW 4.0.7-e2-6376~58~ubuntu16.04.1) date Mon Dec 10 15:36:52 2018*
%MOMM*%
%LPD*%
G01*
G04 APERTURE LIST*
%ADD10C,0.100000*%
%ADD11R,2.150000X2.150000*%
%ADD12C,2.150000*%
%ADD13R,1.924000X1.924000*%
%ADD14C,1.924000*%
%ADD15C,1.650000*%
%ADD16O,1.600000X2.150000*%
%ADD17R,1.600000X2.150000*%
G04 APERTURE END LIST*
D10*
D11*
X31750000Y-146050000D03*
D12*
X34290000Y-146050000D03*
X36830000Y-146050000D03*
X39370000Y-146050000D03*
X41910000Y-146050000D03*
X44450000Y-146050000D03*
X46990000Y-146050000D03*
X49530000Y-146050000D03*
D11*
X80645000Y-177800000D03*
D12*
X78105000Y-177800000D03*
D11*
X76835000Y-160020000D03*
D12*
X81915000Y-160020000D03*
D11*
X74295000Y-170180000D03*
D12*
X74295000Y-165100000D03*
D13*
X33655000Y-156845000D03*
D14*
X33655000Y-154305000D03*
X36195000Y-156845000D03*
X36195000Y-154305000D03*
X38735000Y-156845000D03*
X38735000Y-154305000D03*
X41275000Y-156845000D03*
X41275000Y-154305000D03*
X43815000Y-156845000D03*
X43815000Y-154305000D03*
X46355000Y-154305000D03*
X48895000Y-154305000D03*
X56515000Y-156845000D03*
X59055000Y-156845000D03*
X61595000Y-156845000D03*
X61595000Y-154305000D03*
X64135000Y-154305000D03*
X66675000Y-156845000D03*
X66675000Y-154305000D03*
X69215000Y-156845000D03*
X69215000Y-154305000D03*
X71755000Y-156845000D03*
X71755000Y-154305000D03*
X74295000Y-156845000D03*
X74295000Y-154305000D03*
X76835000Y-156845000D03*
X76835000Y-154305000D03*
X79375000Y-156845000D03*
X79375000Y-154305000D03*
X81915000Y-156845000D03*
X81915000Y-154305000D03*
D11*
X33655000Y-161925000D03*
D12*
X36195000Y-161925000D03*
X38735000Y-161925000D03*
X41275000Y-161925000D03*
X43815000Y-161925000D03*
X46355000Y-161925000D03*
X48895000Y-161925000D03*
D11*
X53975000Y-161925000D03*
D12*
X56515000Y-161925000D03*
X59055000Y-161925000D03*
X61595000Y-161925000D03*
X64135000Y-161925000D03*
X66675000Y-161925000D03*
X69215000Y-161925000D03*
X71755000Y-161925000D03*
D11*
X57125660Y-172155429D03*
D12*
X59665660Y-172155429D03*
X62205660Y-172155429D03*
X64745660Y-172155429D03*
X35572764Y-173407606D03*
X33032764Y-173407606D03*
X38112764Y-173407606D03*
X61595000Y-136525000D03*
X59055000Y-136525000D03*
X64135000Y-136525000D03*
X67310000Y-141605000D03*
X57150000Y-141605000D03*
X31750000Y-140970000D03*
X31750000Y-130810000D03*
X34290000Y-140970000D03*
X34290000Y-130810000D03*
X36830000Y-140970000D03*
X36830000Y-130810000D03*
D11*
X31750000Y-127000000D03*
D12*
X34290000Y-127000000D03*
X36830000Y-127000000D03*
X39370000Y-127000000D03*
D11*
X52705000Y-127000000D03*
D12*
X55245000Y-127000000D03*
X57785000Y-127000000D03*
X60325000Y-127000000D03*
X62865000Y-127000000D03*
X65405000Y-127000000D03*
X67945000Y-127000000D03*
D11*
X76200000Y-127000000D03*
D12*
X73660000Y-127000000D03*
X71120000Y-127000000D03*
D11*
X38112765Y-170232605D03*
D12*
X35572765Y-170232605D03*
X33032765Y-170232605D03*
D11*
X67310000Y-138430000D03*
D12*
X67310000Y-133350000D03*
D11*
X85090000Y-138430000D03*
D12*
X85090000Y-133350000D03*
D10*
G36*
X64291923Y-131986643D02*
X62771643Y-133506923D01*
X61604917Y-132340197D01*
X63125197Y-130819917D01*
X64291923Y-131986643D01*
X64291923Y-131986643D01*
G37*
D15*
X61334803Y-130903357D02*
X61688357Y-130549803D01*
D11*
X82550000Y-118110000D03*
D12*
X80010000Y-118110000D03*
X77470000Y-118110000D03*
X74930000Y-118110000D03*
X72390000Y-118110000D03*
X69850000Y-118110000D03*
X67310000Y-118110000D03*
X64770000Y-118110000D03*
X62230000Y-118110000D03*
X59690000Y-118110000D03*
X57150000Y-118110000D03*
X54610000Y-118110000D03*
X52070000Y-118110000D03*
X49530000Y-118110000D03*
X46990000Y-118110000D03*
X44450000Y-118110000D03*
X41910000Y-118110000D03*
X39370000Y-118110000D03*
X36830000Y-118110000D03*
X34290000Y-118110000D03*
D11*
X52705000Y-114300000D03*
D12*
X55245000Y-114300000D03*
X57785000Y-114300000D03*
X60325000Y-114300000D03*
X62865000Y-114300000D03*
X65405000Y-114300000D03*
X67945000Y-114300000D03*
D11*
X69850000Y-138430000D03*
D12*
X74930000Y-138430000D03*
X77470000Y-138430000D03*
X80010000Y-138430000D03*
X82550000Y-138430000D03*
X82550000Y-133350000D03*
X80010000Y-133350000D03*
X77470000Y-133350000D03*
X74930000Y-133350000D03*
X69850000Y-133350000D03*
D11*
X52705000Y-146050000D03*
D12*
X55245000Y-146050000D03*
X57785000Y-146050000D03*
X60325000Y-146050000D03*
X62865000Y-146050000D03*
X65405000Y-146050000D03*
X67945000Y-146050000D03*
D11*
X74295000Y-142875000D03*
D12*
X76835000Y-142875000D03*
X79375000Y-142875000D03*
X81915000Y-142875000D03*
D11*
X76835000Y-162560000D03*
D12*
X76835000Y-167640000D03*
X76835000Y-170180000D03*
X76835000Y-172720000D03*
X76835000Y-175260000D03*
X81915000Y-175260000D03*
X81915000Y-172720000D03*
X81915000Y-170180000D03*
X81915000Y-167640000D03*
X81915000Y-162560000D03*
D16*
X58260000Y-169545000D03*
D17*
X63660000Y-169545000D03*
D16*
X61860000Y-169545000D03*
X60060000Y-169545000D03*
D11*
X53340000Y-136525000D03*
D12*
X45720000Y-136525000D03*
D11*
X128270000Y-136525000D03*
D12*
X120650000Y-136525000D03*
D16*
X133190000Y-169545000D03*
D17*
X138590000Y-169545000D03*
D16*
X136790000Y-169545000D03*
X134990000Y-169545000D03*
D11*
X151765000Y-162560000D03*
D12*
X151765000Y-167640000D03*
X151765000Y-170180000D03*
X151765000Y-172720000D03*
X151765000Y-175260000D03*
X156845000Y-175260000D03*
X156845000Y-172720000D03*
X156845000Y-170180000D03*
X156845000Y-167640000D03*
X156845000Y-162560000D03*
D11*
X149225000Y-142875000D03*
D12*
X151765000Y-142875000D03*
X154305000Y-142875000D03*
X156845000Y-142875000D03*
D11*
X127635000Y-146050000D03*
D12*
X130175000Y-146050000D03*
X132715000Y-146050000D03*
X135255000Y-146050000D03*
X137795000Y-146050000D03*
X140335000Y-146050000D03*
X142875000Y-146050000D03*
D11*
X144780000Y-138430000D03*
D12*
X149860000Y-138430000D03*
X152400000Y-138430000D03*
X154940000Y-138430000D03*
X157480000Y-138430000D03*
X157480000Y-133350000D03*
X154940000Y-133350000D03*
X152400000Y-133350000D03*
X149860000Y-133350000D03*
X144780000Y-133350000D03*
D11*
X127635000Y-114300000D03*
D12*
X130175000Y-114300000D03*
X132715000Y-114300000D03*
X135255000Y-114300000D03*
X137795000Y-114300000D03*
X140335000Y-114300000D03*
X142875000Y-114300000D03*
D11*
X157480000Y-118110000D03*
D12*
X154940000Y-118110000D03*
X152400000Y-118110000D03*
X149860000Y-118110000D03*
X147320000Y-118110000D03*
X144780000Y-118110000D03*
X142240000Y-118110000D03*
X139700000Y-118110000D03*
X137160000Y-118110000D03*
X134620000Y-118110000D03*
X132080000Y-118110000D03*
X129540000Y-118110000D03*
X127000000Y-118110000D03*
X124460000Y-118110000D03*
X121920000Y-118110000D03*
X119380000Y-118110000D03*
X116840000Y-118110000D03*
X114300000Y-118110000D03*
X111760000Y-118110000D03*
X109220000Y-118110000D03*
D10*
G36*
X139221923Y-131986643D02*
X137701643Y-133506923D01*
X136534917Y-132340197D01*
X138055197Y-130819917D01*
X139221923Y-131986643D01*
X139221923Y-131986643D01*
G37*
D15*
X136264803Y-130903357D02*
X136618357Y-130549803D01*
D11*
X160020000Y-138430000D03*
D12*
X160020000Y-133350000D03*
D11*
X142240000Y-138430000D03*
D12*
X142240000Y-133350000D03*
D11*
X113042765Y-170232605D03*
D12*
X110502765Y-170232605D03*
X107962765Y-170232605D03*
D11*
X151130000Y-127000000D03*
D12*
X148590000Y-127000000D03*
X146050000Y-127000000D03*
D11*
X127635000Y-127000000D03*
D12*
X130175000Y-127000000D03*
X132715000Y-127000000D03*
X135255000Y-127000000D03*
X137795000Y-127000000D03*
X140335000Y-127000000D03*
X142875000Y-127000000D03*
D11*
X106680000Y-127000000D03*
D12*
X109220000Y-127000000D03*
X111760000Y-127000000D03*
X114300000Y-127000000D03*
X111760000Y-140970000D03*
X111760000Y-130810000D03*
X109220000Y-140970000D03*
X109220000Y-130810000D03*
X106680000Y-140970000D03*
X106680000Y-130810000D03*
X142240000Y-141605000D03*
X132080000Y-141605000D03*
X136525000Y-136525000D03*
X133985000Y-136525000D03*
X139065000Y-136525000D03*
X110502764Y-173407606D03*
X107962764Y-173407606D03*
X113042764Y-173407606D03*
D11*
X132055660Y-172155429D03*
D12*
X134595660Y-172155429D03*
X137135660Y-172155429D03*
X139675660Y-172155429D03*
D11*
X128905000Y-161925000D03*
D12*
X131445000Y-161925000D03*
X133985000Y-161925000D03*
X136525000Y-161925000D03*
X139065000Y-161925000D03*
X141605000Y-161925000D03*
X144145000Y-161925000D03*
X146685000Y-161925000D03*
D11*
X108585000Y-161925000D03*
D12*
X111125000Y-161925000D03*
X113665000Y-161925000D03*
X116205000Y-161925000D03*
X118745000Y-161925000D03*
X121285000Y-161925000D03*
X123825000Y-161925000D03*
D13*
X108585000Y-156845000D03*
D14*
X108585000Y-154305000D03*
X111125000Y-156845000D03*
X111125000Y-154305000D03*
X113665000Y-156845000D03*
X113665000Y-154305000D03*
X116205000Y-156845000D03*
X116205000Y-154305000D03*
X118745000Y-156845000D03*
X118745000Y-154305000D03*
X121285000Y-154305000D03*
X123825000Y-154305000D03*
X131445000Y-156845000D03*
X133985000Y-156845000D03*
X136525000Y-156845000D03*
X136525000Y-154305000D03*
X139065000Y-154305000D03*
X141605000Y-156845000D03*
X141605000Y-154305000D03*
X144145000Y-156845000D03*
X144145000Y-154305000D03*
X146685000Y-156845000D03*
X146685000Y-154305000D03*
X149225000Y-156845000D03*
X149225000Y-154305000D03*
X151765000Y-156845000D03*
X151765000Y-154305000D03*
X154305000Y-156845000D03*
X154305000Y-154305000D03*
X156845000Y-156845000D03*
X156845000Y-154305000D03*
D11*
X149225000Y-170180000D03*
D12*
X149225000Y-165100000D03*
D11*
X151765000Y-160020000D03*
D12*
X156845000Y-160020000D03*
D11*
X155575000Y-177800000D03*
D12*
X153035000Y-177800000D03*
D11*
X106680000Y-146050000D03*
D12*
X109220000Y-146050000D03*
X111760000Y-146050000D03*
X114300000Y-146050000D03*
X116840000Y-146050000D03*
X119380000Y-146050000D03*
X121920000Y-146050000D03*
X124460000Y-146050000D03*
D11*
X203200000Y-136525000D03*
D12*
X195580000Y-136525000D03*
D16*
X208120000Y-169545000D03*
D17*
X213520000Y-169545000D03*
D16*
X211720000Y-169545000D03*
X209920000Y-169545000D03*
D11*
X226695000Y-162560000D03*
D12*
X226695000Y-167640000D03*
X226695000Y-170180000D03*
X226695000Y-172720000D03*
X226695000Y-175260000D03*
X231775000Y-175260000D03*
X231775000Y-172720000D03*
X231775000Y-170180000D03*
X231775000Y-167640000D03*
X231775000Y-162560000D03*
D11*
X224155000Y-142875000D03*
D12*
X226695000Y-142875000D03*
X229235000Y-142875000D03*
X231775000Y-142875000D03*
D11*
X202565000Y-146050000D03*
D12*
X205105000Y-146050000D03*
X207645000Y-146050000D03*
X210185000Y-146050000D03*
X212725000Y-146050000D03*
X215265000Y-146050000D03*
X217805000Y-146050000D03*
D11*
X219710000Y-138430000D03*
D12*
X224790000Y-138430000D03*
X227330000Y-138430000D03*
X229870000Y-138430000D03*
X232410000Y-138430000D03*
X232410000Y-133350000D03*
X229870000Y-133350000D03*
X227330000Y-133350000D03*
X224790000Y-133350000D03*
X219710000Y-133350000D03*
D11*
X202565000Y-114300000D03*
D12*
X205105000Y-114300000D03*
X207645000Y-114300000D03*
X210185000Y-114300000D03*
X212725000Y-114300000D03*
X215265000Y-114300000D03*
X217805000Y-114300000D03*
D11*
X232410000Y-118110000D03*
D12*
X229870000Y-118110000D03*
X227330000Y-118110000D03*
X224790000Y-118110000D03*
X222250000Y-118110000D03*
X219710000Y-118110000D03*
X217170000Y-118110000D03*
X214630000Y-118110000D03*
X212090000Y-118110000D03*
X209550000Y-118110000D03*
X207010000Y-118110000D03*
X204470000Y-118110000D03*
X201930000Y-118110000D03*
X199390000Y-118110000D03*
X196850000Y-118110000D03*
X194310000Y-118110000D03*
X191770000Y-118110000D03*
X189230000Y-118110000D03*
X186690000Y-118110000D03*
X184150000Y-118110000D03*
D10*
G36*
X214151923Y-131986643D02*
X212631643Y-133506923D01*
X211464917Y-132340197D01*
X212985197Y-130819917D01*
X214151923Y-131986643D01*
X214151923Y-131986643D01*
G37*
D15*
X211194803Y-130903357D02*
X211548357Y-130549803D01*
D11*
X234950000Y-138430000D03*
D12*
X234950000Y-133350000D03*
D11*
X217170000Y-138430000D03*
D12*
X217170000Y-133350000D03*
D11*
X187972765Y-170232605D03*
D12*
X185432765Y-170232605D03*
X182892765Y-170232605D03*
D11*
X226060000Y-127000000D03*
D12*
X223520000Y-127000000D03*
X220980000Y-127000000D03*
D11*
X202565000Y-127000000D03*
D12*
X205105000Y-127000000D03*
X207645000Y-127000000D03*
X210185000Y-127000000D03*
X212725000Y-127000000D03*
X215265000Y-127000000D03*
X217805000Y-127000000D03*
D11*
X181610000Y-127000000D03*
D12*
X184150000Y-127000000D03*
X186690000Y-127000000D03*
X189230000Y-127000000D03*
X186690000Y-140970000D03*
X186690000Y-130810000D03*
X184150000Y-140970000D03*
X184150000Y-130810000D03*
X181610000Y-140970000D03*
X181610000Y-130810000D03*
X217170000Y-141605000D03*
X207010000Y-141605000D03*
X211455000Y-136525000D03*
X208915000Y-136525000D03*
X213995000Y-136525000D03*
X185432764Y-173407606D03*
X182892764Y-173407606D03*
X187972764Y-173407606D03*
D11*
X206985660Y-172155429D03*
D12*
X209525660Y-172155429D03*
X212065660Y-172155429D03*
X214605660Y-172155429D03*
D11*
X203835000Y-161925000D03*
D12*
X206375000Y-161925000D03*
X208915000Y-161925000D03*
X211455000Y-161925000D03*
X213995000Y-161925000D03*
X216535000Y-161925000D03*
X219075000Y-161925000D03*
X221615000Y-161925000D03*
D11*
X183515000Y-161925000D03*
D12*
X186055000Y-161925000D03*
X188595000Y-161925000D03*
X191135000Y-161925000D03*
X193675000Y-161925000D03*
X196215000Y-161925000D03*
X198755000Y-161925000D03*
D13*
X183515000Y-156845000D03*
D14*
X183515000Y-154305000D03*
X186055000Y-156845000D03*
X186055000Y-154305000D03*
X188595000Y-156845000D03*
X188595000Y-154305000D03*
X191135000Y-156845000D03*
X191135000Y-154305000D03*
X193675000Y-156845000D03*
X193675000Y-154305000D03*
X196215000Y-154305000D03*
X198755000Y-154305000D03*
X206375000Y-156845000D03*
X208915000Y-156845000D03*
X211455000Y-156845000D03*
X211455000Y-154305000D03*
X213995000Y-154305000D03*
X216535000Y-156845000D03*
X216535000Y-154305000D03*
X219075000Y-156845000D03*
X219075000Y-154305000D03*
X221615000Y-156845000D03*
X221615000Y-154305000D03*
X224155000Y-156845000D03*
X224155000Y-154305000D03*
X226695000Y-156845000D03*
X226695000Y-154305000D03*
X229235000Y-156845000D03*
X229235000Y-154305000D03*
X231775000Y-156845000D03*
X231775000Y-154305000D03*
D11*
X224155000Y-170180000D03*
D12*
X224155000Y-165100000D03*
D11*
X226695000Y-160020000D03*
D12*
X231775000Y-160020000D03*
D11*
X230505000Y-177800000D03*
D12*
X227965000Y-177800000D03*
D11*
X181610000Y-146050000D03*
D12*
X184150000Y-146050000D03*
X186690000Y-146050000D03*
X189230000Y-146050000D03*
X191770000Y-146050000D03*
X194310000Y-146050000D03*
X196850000Y-146050000D03*
X199390000Y-146050000D03*
D11*
X181610000Y-62230000D03*
D12*
X184150000Y-62230000D03*
X186690000Y-62230000D03*
X189230000Y-62230000D03*
X191770000Y-62230000D03*
X194310000Y-62230000D03*
X196850000Y-62230000D03*
X199390000Y-62230000D03*
D11*
X230505000Y-93980000D03*
D12*
X227965000Y-93980000D03*
D11*
X226695000Y-76200000D03*
D12*
X231775000Y-76200000D03*
D11*
X224155000Y-86360000D03*
D12*
X224155000Y-81280000D03*
D13*
X183515000Y-73025000D03*
D14*
X183515000Y-70485000D03*
X186055000Y-73025000D03*
X186055000Y-70485000D03*
X188595000Y-73025000D03*
X188595000Y-70485000D03*
X191135000Y-73025000D03*
X191135000Y-70485000D03*
X193675000Y-73025000D03*
X193675000Y-70485000D03*
X196215000Y-70485000D03*
X198755000Y-70485000D03*
X206375000Y-73025000D03*
X208915000Y-73025000D03*
X211455000Y-73025000D03*
X211455000Y-70485000D03*
X213995000Y-70485000D03*
X216535000Y-73025000D03*
X216535000Y-70485000D03*
X219075000Y-73025000D03*
X219075000Y-70485000D03*
X221615000Y-73025000D03*
X221615000Y-70485000D03*
X224155000Y-73025000D03*
X224155000Y-70485000D03*
X226695000Y-73025000D03*
X226695000Y-70485000D03*
X229235000Y-73025000D03*
X229235000Y-70485000D03*
X231775000Y-73025000D03*
X231775000Y-70485000D03*
D11*
X183515000Y-78105000D03*
D12*
X186055000Y-78105000D03*
X188595000Y-78105000D03*
X191135000Y-78105000D03*
X193675000Y-78105000D03*
X196215000Y-78105000D03*
X198755000Y-78105000D03*
D11*
X203835000Y-78105000D03*
D12*
X206375000Y-78105000D03*
X208915000Y-78105000D03*
X211455000Y-78105000D03*
X213995000Y-78105000D03*
X216535000Y-78105000D03*
X219075000Y-78105000D03*
X221615000Y-78105000D03*
D11*
X206985660Y-88335429D03*
D12*
X209525660Y-88335429D03*
X212065660Y-88335429D03*
X214605660Y-88335429D03*
X185432764Y-89587606D03*
X182892764Y-89587606D03*
X187972764Y-89587606D03*
X211455000Y-52705000D03*
X208915000Y-52705000D03*
X213995000Y-52705000D03*
X217170000Y-57785000D03*
X207010000Y-57785000D03*
X181610000Y-57150000D03*
X181610000Y-46990000D03*
X184150000Y-57150000D03*
X184150000Y-46990000D03*
X186690000Y-57150000D03*
X186690000Y-46990000D03*
D11*
X181610000Y-43180000D03*
D12*
X184150000Y-43180000D03*
X186690000Y-43180000D03*
X189230000Y-43180000D03*
D11*
X202565000Y-43180000D03*
D12*
X205105000Y-43180000D03*
X207645000Y-43180000D03*
X210185000Y-43180000D03*
X212725000Y-43180000D03*
X215265000Y-43180000D03*
X217805000Y-43180000D03*
D11*
X226060000Y-43180000D03*
D12*
X223520000Y-43180000D03*
X220980000Y-43180000D03*
D11*
X187972765Y-86412605D03*
D12*
X185432765Y-86412605D03*
X182892765Y-86412605D03*
D11*
X217170000Y-54610000D03*
D12*
X217170000Y-49530000D03*
D11*
X234950000Y-54610000D03*
D12*
X234950000Y-49530000D03*
D10*
G36*
X214151923Y-48166643D02*
X212631643Y-49686923D01*
X211464917Y-48520197D01*
X212985197Y-46999917D01*
X214151923Y-48166643D01*
X214151923Y-48166643D01*
G37*
D15*
X211194803Y-47083357D02*
X211548357Y-46729803D01*
D11*
X232410000Y-34290000D03*
D12*
X229870000Y-34290000D03*
X227330000Y-34290000D03*
X224790000Y-34290000D03*
X222250000Y-34290000D03*
X219710000Y-34290000D03*
X217170000Y-34290000D03*
X214630000Y-34290000D03*
X212090000Y-34290000D03*
X209550000Y-34290000D03*
X207010000Y-34290000D03*
X204470000Y-34290000D03*
X201930000Y-34290000D03*
X199390000Y-34290000D03*
X196850000Y-34290000D03*
X194310000Y-34290000D03*
X191770000Y-34290000D03*
X189230000Y-34290000D03*
X186690000Y-34290000D03*
X184150000Y-34290000D03*
D11*
X202565000Y-30480000D03*
D12*
X205105000Y-30480000D03*
X207645000Y-30480000D03*
X210185000Y-30480000D03*
X212725000Y-30480000D03*
X215265000Y-30480000D03*
X217805000Y-30480000D03*
D11*
X219710000Y-54610000D03*
D12*
X224790000Y-54610000D03*
X227330000Y-54610000D03*
X229870000Y-54610000D03*
X232410000Y-54610000D03*
X232410000Y-49530000D03*
X229870000Y-49530000D03*
X227330000Y-49530000D03*
X224790000Y-49530000D03*
X219710000Y-49530000D03*
D11*
X202565000Y-62230000D03*
D12*
X205105000Y-62230000D03*
X207645000Y-62230000D03*
X210185000Y-62230000D03*
X212725000Y-62230000D03*
X215265000Y-62230000D03*
X217805000Y-62230000D03*
D11*
X224155000Y-59055000D03*
D12*
X226695000Y-59055000D03*
X229235000Y-59055000D03*
X231775000Y-59055000D03*
D11*
X226695000Y-78740000D03*
D12*
X226695000Y-83820000D03*
X226695000Y-86360000D03*
X226695000Y-88900000D03*
X226695000Y-91440000D03*
X231775000Y-91440000D03*
X231775000Y-88900000D03*
X231775000Y-86360000D03*
X231775000Y-83820000D03*
X231775000Y-78740000D03*
D16*
X208120000Y-85725000D03*
D17*
X213520000Y-85725000D03*
D16*
X211720000Y-85725000D03*
X209920000Y-85725000D03*
D11*
X203200000Y-52705000D03*
D12*
X195580000Y-52705000D03*
D11*
X106680000Y-62230000D03*
D12*
X109220000Y-62230000D03*
X111760000Y-62230000D03*
X114300000Y-62230000D03*
X116840000Y-62230000D03*
X119380000Y-62230000D03*
X121920000Y-62230000D03*
X124460000Y-62230000D03*
D11*
X155575000Y-93980000D03*
D12*
X153035000Y-93980000D03*
D11*
X151765000Y-76200000D03*
D12*
X156845000Y-76200000D03*
D11*
X149225000Y-86360000D03*
D12*
X149225000Y-81280000D03*
D13*
X108585000Y-73025000D03*
D14*
X108585000Y-70485000D03*
X111125000Y-73025000D03*
X111125000Y-70485000D03*
X113665000Y-73025000D03*
X113665000Y-70485000D03*
X116205000Y-73025000D03*
X116205000Y-70485000D03*
X118745000Y-73025000D03*
X118745000Y-70485000D03*
X121285000Y-70485000D03*
X123825000Y-70485000D03*
X131445000Y-73025000D03*
X133985000Y-73025000D03*
X136525000Y-73025000D03*
X136525000Y-70485000D03*
X139065000Y-70485000D03*
X141605000Y-73025000D03*
X141605000Y-70485000D03*
X144145000Y-73025000D03*
X144145000Y-70485000D03*
X146685000Y-73025000D03*
X146685000Y-70485000D03*
X149225000Y-73025000D03*
X149225000Y-70485000D03*
X151765000Y-73025000D03*
X151765000Y-70485000D03*
X154305000Y-73025000D03*
X154305000Y-70485000D03*
X156845000Y-73025000D03*
X156845000Y-70485000D03*
D11*
X108585000Y-78105000D03*
D12*
X111125000Y-78105000D03*
X113665000Y-78105000D03*
X116205000Y-78105000D03*
X118745000Y-78105000D03*
X121285000Y-78105000D03*
X123825000Y-78105000D03*
D11*
X128905000Y-78105000D03*
D12*
X131445000Y-78105000D03*
X133985000Y-78105000D03*
X136525000Y-78105000D03*
X139065000Y-78105000D03*
X141605000Y-78105000D03*
X144145000Y-78105000D03*
X146685000Y-78105000D03*
D11*
X132055660Y-88335429D03*
D12*
X134595660Y-88335429D03*
X137135660Y-88335429D03*
X139675660Y-88335429D03*
X110502764Y-89587606D03*
X107962764Y-89587606D03*
X113042764Y-89587606D03*
X136525000Y-52705000D03*
X133985000Y-52705000D03*
X139065000Y-52705000D03*
X142240000Y-57785000D03*
X132080000Y-57785000D03*
X106680000Y-57150000D03*
X106680000Y-46990000D03*
X109220000Y-57150000D03*
X109220000Y-46990000D03*
X111760000Y-57150000D03*
X111760000Y-46990000D03*
D11*
X106680000Y-43180000D03*
D12*
X109220000Y-43180000D03*
X111760000Y-43180000D03*
X114300000Y-43180000D03*
D11*
X127635000Y-43180000D03*
D12*
X130175000Y-43180000D03*
X132715000Y-43180000D03*
X135255000Y-43180000D03*
X137795000Y-43180000D03*
X140335000Y-43180000D03*
X142875000Y-43180000D03*
D11*
X151130000Y-43180000D03*
D12*
X148590000Y-43180000D03*
X146050000Y-43180000D03*
D11*
X113042765Y-86412605D03*
D12*
X110502765Y-86412605D03*
X107962765Y-86412605D03*
D11*
X142240000Y-54610000D03*
D12*
X142240000Y-49530000D03*
D11*
X160020000Y-54610000D03*
D12*
X160020000Y-49530000D03*
D10*
G36*
X139221923Y-48166643D02*
X137701643Y-49686923D01*
X136534917Y-48520197D01*
X138055197Y-46999917D01*
X139221923Y-48166643D01*
X139221923Y-48166643D01*
G37*
D15*
X136264803Y-47083357D02*
X136618357Y-46729803D01*
D11*
X157480000Y-34290000D03*
D12*
X154940000Y-34290000D03*
X152400000Y-34290000D03*
X149860000Y-34290000D03*
X147320000Y-34290000D03*
X144780000Y-34290000D03*
X142240000Y-34290000D03*
X139700000Y-34290000D03*
X137160000Y-34290000D03*
X134620000Y-34290000D03*
X132080000Y-34290000D03*
X129540000Y-34290000D03*
X127000000Y-34290000D03*
X124460000Y-34290000D03*
X121920000Y-34290000D03*
X119380000Y-34290000D03*
X116840000Y-34290000D03*
X114300000Y-34290000D03*
X111760000Y-34290000D03*
X109220000Y-34290000D03*
D11*
X127635000Y-30480000D03*
D12*
X130175000Y-30480000D03*
X132715000Y-30480000D03*
X135255000Y-30480000D03*
X137795000Y-30480000D03*
X140335000Y-30480000D03*
X142875000Y-30480000D03*
D11*
X144780000Y-54610000D03*
D12*
X149860000Y-54610000D03*
X152400000Y-54610000D03*
X154940000Y-54610000D03*
X157480000Y-54610000D03*
X157480000Y-49530000D03*
X154940000Y-49530000D03*
X152400000Y-49530000D03*
X149860000Y-49530000D03*
X144780000Y-49530000D03*
D11*
X127635000Y-62230000D03*
D12*
X130175000Y-62230000D03*
X132715000Y-62230000D03*
X135255000Y-62230000D03*
X137795000Y-62230000D03*
X140335000Y-62230000D03*
X142875000Y-62230000D03*
D11*
X149225000Y-59055000D03*
D12*
X151765000Y-59055000D03*
X154305000Y-59055000D03*
X156845000Y-59055000D03*
D11*
X151765000Y-78740000D03*
D12*
X151765000Y-83820000D03*
X151765000Y-86360000D03*
X151765000Y-88900000D03*
X151765000Y-91440000D03*
X156845000Y-91440000D03*
X156845000Y-88900000D03*
X156845000Y-86360000D03*
X156845000Y-83820000D03*
X156845000Y-78740000D03*
D16*
X133190000Y-85725000D03*
D17*
X138590000Y-85725000D03*
D16*
X136790000Y-85725000D03*
X134990000Y-85725000D03*
D11*
X128270000Y-52705000D03*
D12*
X120650000Y-52705000D03*
D11*
X53340000Y-52705000D03*
D12*
X45720000Y-52705000D03*
D16*
X58260000Y-85725000D03*
D17*
X63660000Y-85725000D03*
D16*
X61860000Y-85725000D03*
X60060000Y-85725000D03*
D11*
X76835000Y-78740000D03*
D12*
X76835000Y-83820000D03*
X76835000Y-86360000D03*
X76835000Y-88900000D03*
X76835000Y-91440000D03*
X81915000Y-91440000D03*
X81915000Y-88900000D03*
X81915000Y-86360000D03*
X81915000Y-83820000D03*
X81915000Y-78740000D03*
D11*
X74295000Y-59055000D03*
D12*
X76835000Y-59055000D03*
X79375000Y-59055000D03*
X81915000Y-59055000D03*
D11*
X52705000Y-62230000D03*
D12*
X55245000Y-62230000D03*
X57785000Y-62230000D03*
X60325000Y-62230000D03*
X62865000Y-62230000D03*
X65405000Y-62230000D03*
X67945000Y-62230000D03*
D11*
X69850000Y-54610000D03*
D12*
X74930000Y-54610000D03*
X77470000Y-54610000D03*
X80010000Y-54610000D03*
X82550000Y-54610000D03*
X82550000Y-49530000D03*
X80010000Y-49530000D03*
X77470000Y-49530000D03*
X74930000Y-49530000D03*
X69850000Y-49530000D03*
D11*
X52705000Y-30480000D03*
D12*
X55245000Y-30480000D03*
X57785000Y-30480000D03*
X60325000Y-30480000D03*
X62865000Y-30480000D03*
X65405000Y-30480000D03*
X67945000Y-30480000D03*
D11*
X82550000Y-34290000D03*
D12*
X80010000Y-34290000D03*
X77470000Y-34290000D03*
X74930000Y-34290000D03*
X72390000Y-34290000D03*
X69850000Y-34290000D03*
X67310000Y-34290000D03*
X64770000Y-34290000D03*
X62230000Y-34290000D03*
X59690000Y-34290000D03*
X57150000Y-34290000D03*
X54610000Y-34290000D03*
X52070000Y-34290000D03*
X49530000Y-34290000D03*
X46990000Y-34290000D03*
X44450000Y-34290000D03*
X41910000Y-34290000D03*
X39370000Y-34290000D03*
X36830000Y-34290000D03*
X34290000Y-34290000D03*
D10*
G36*
X64291923Y-48166643D02*
X62771643Y-49686923D01*
X61604917Y-48520197D01*
X63125197Y-46999917D01*
X64291923Y-48166643D01*
X64291923Y-48166643D01*
G37*
D15*
X61334803Y-47083357D02*
X61688357Y-46729803D01*
D11*
X85090000Y-54610000D03*
D12*
X85090000Y-49530000D03*
D11*
X67310000Y-54610000D03*
D12*
X67310000Y-49530000D03*
D11*
X38112765Y-86412605D03*
D12*
X35572765Y-86412605D03*
X33032765Y-86412605D03*
D11*
X76200000Y-43180000D03*
D12*
X73660000Y-43180000D03*
X71120000Y-43180000D03*
D11*
X52705000Y-43180000D03*
D12*
X55245000Y-43180000D03*
X57785000Y-43180000D03*
X60325000Y-43180000D03*
X62865000Y-43180000D03*
X65405000Y-43180000D03*
X67945000Y-43180000D03*
D11*
X31750000Y-43180000D03*
D12*
X34290000Y-43180000D03*
X36830000Y-43180000D03*
X39370000Y-43180000D03*
X36830000Y-57150000D03*
X36830000Y-46990000D03*
X34290000Y-57150000D03*
X34290000Y-46990000D03*
X31750000Y-57150000D03*
X31750000Y-46990000D03*
X67310000Y-57785000D03*
X57150000Y-57785000D03*
X61595000Y-52705000D03*
X59055000Y-52705000D03*
X64135000Y-52705000D03*
X35572764Y-89587606D03*
X33032764Y-89587606D03*
X38112764Y-89587606D03*
D11*
X57125660Y-88335429D03*
D12*
X59665660Y-88335429D03*
X62205660Y-88335429D03*
X64745660Y-88335429D03*
D11*
X53975000Y-78105000D03*
D12*
X56515000Y-78105000D03*
X59055000Y-78105000D03*
X61595000Y-78105000D03*
X64135000Y-78105000D03*
X66675000Y-78105000D03*
X69215000Y-78105000D03*
X71755000Y-78105000D03*
D11*
X33655000Y-78105000D03*
D12*
X36195000Y-78105000D03*
X38735000Y-78105000D03*
X41275000Y-78105000D03*
X43815000Y-78105000D03*
X46355000Y-78105000D03*
X48895000Y-78105000D03*
D13*
X33655000Y-73025000D03*
D14*
X33655000Y-70485000D03*
X36195000Y-73025000D03*
X36195000Y-70485000D03*
X38735000Y-73025000D03*
X38735000Y-70485000D03*
X41275000Y-73025000D03*
X41275000Y-70485000D03*
X43815000Y-73025000D03*
X43815000Y-70485000D03*
X46355000Y-70485000D03*
X48895000Y-70485000D03*
X56515000Y-73025000D03*
X59055000Y-73025000D03*
X61595000Y-73025000D03*
X61595000Y-70485000D03*
X64135000Y-70485000D03*
X66675000Y-73025000D03*
X66675000Y-70485000D03*
X69215000Y-73025000D03*
X69215000Y-70485000D03*
X71755000Y-73025000D03*
X71755000Y-70485000D03*
X74295000Y-73025000D03*
X74295000Y-70485000D03*
X76835000Y-73025000D03*
X76835000Y-70485000D03*
X79375000Y-73025000D03*
X79375000Y-70485000D03*
X81915000Y-73025000D03*
X81915000Y-70485000D03*
D11*
X74295000Y-86360000D03*
D12*
X74295000Y-81280000D03*
D11*
X76835000Y-76200000D03*
D12*
X81915000Y-76200000D03*
D11*
X80645000Y-93980000D03*
D12*
X78105000Y-93980000D03*
D11*
X31750000Y-62230000D03*
D12*
X34290000Y-62230000D03*
X36830000Y-62230000D03*
X39370000Y-62230000D03*
X41910000Y-62230000D03*
X44450000Y-62230000D03*
X46990000Y-62230000D03*
X49530000Y-62230000D03*
M02*
