%FSLAX45Y45*%
G04 Gerber Fmt 4.5, Leading zero omitted, Abs format (unit mm)*
G04 Created by KiCad (PCBNEW 4.0.7-e2-6376~58~ubuntu16.04.1) date Mon Dec 10 15:36:58 2018*
%MOMM*%
%LPD*%
G01*
G04 APERTURE LIST*
%ADD10C,0.127000*%
%ADD11C,0.150000*%
%ADD12C,0.200000*%
%ADD13C,0.300000*%
G04 APERTURE END LIST*
D10*
D11*
X24955500Y-18923000D02*
G75*
G03X24955500Y-18923000I-254000J0D01*
G01*
X24955500Y-1905000D02*
G75*
G03X24955500Y-1905000I-254000J0D01*
G01*
X2222500Y-18923000D02*
G75*
G03X2222500Y-18923000I-254000J0D01*
G01*
X2222500Y-1905000D02*
G75*
G03X2222500Y-1905000I-254000J0D01*
G01*
X1333500Y-19304000D02*
X1333500Y-1524000D01*
X1333500Y-19558000D02*
X1333500Y-19304000D01*
X1587500Y-19558000D02*
X1333500Y-19558000D01*
X25082500Y-19558000D02*
X1587500Y-19558000D01*
X25336500Y-19558000D02*
X25082500Y-19558000D01*
X25336500Y-19304000D02*
X25336500Y-19558000D01*
X25336500Y-1524000D02*
X25336500Y-19304000D01*
X25336500Y-1270000D02*
X25336500Y-1524000D01*
X25082500Y-1270000D02*
X25336500Y-1270000D01*
X1587500Y-1270000D02*
X25082500Y-1270000D01*
X1333500Y-1270000D02*
X1587500Y-1270000D01*
X1333500Y-1524000D02*
X1333500Y-1270000D01*
X7810500Y-10922000D02*
X9080500Y-10922000D01*
X3048000Y-17462500D02*
X3175000Y-17589500D01*
X3937000Y-17589500D02*
X4064000Y-17462500D01*
X4064000Y-17462500D02*
X4064000Y-16891000D01*
X4064000Y-16891000D02*
X4064000Y-16764000D01*
X6731000Y-17081500D02*
X6604000Y-16954500D01*
X6604000Y-16954500D02*
X6604000Y-16700500D01*
X5461000Y-16954500D02*
X5588000Y-16954500D01*
X5651500Y-17462500D02*
X5524500Y-17462500D01*
X5588000Y-16827500D02*
X5715000Y-16700500D01*
X5588000Y-16827500D02*
X5588000Y-16954500D01*
X2857500Y-14795500D02*
X2984500Y-14922500D01*
X2857500Y-14732000D02*
X2857500Y-14795500D01*
X2857500Y-14605000D02*
X2857500Y-14541500D01*
X3302000Y-11557000D02*
X4445000Y-11557000D01*
X7493000Y-11493500D02*
X7874000Y-11493500D01*
X7874000Y-11493500D02*
X7937500Y-11493500D01*
X7937500Y-11493500D02*
X8001000Y-11557000D01*
X8001000Y-11557000D02*
X8509000Y-11557000D01*
X8509000Y-11557000D02*
X8509000Y-12065000D01*
X6604000Y-17462500D02*
X6731000Y-17335500D01*
X6731000Y-17335500D02*
X6731000Y-17081500D01*
X3048000Y-16891000D02*
X3175000Y-16764000D01*
X2984500Y-12382500D02*
X3556000Y-12382500D01*
X5461000Y-16954500D02*
X5461000Y-17018000D01*
X5461000Y-17462500D02*
X5524500Y-17462500D01*
X6604000Y-17462500D02*
X6413500Y-17462500D01*
X3810000Y-12382500D02*
X3556000Y-12382500D01*
X6794500Y-12382500D02*
X6540500Y-12382500D01*
X3175000Y-11938000D02*
X3175000Y-12001500D01*
X3302000Y-11557000D02*
X3238500Y-11620500D01*
X3175000Y-11874500D02*
X3175000Y-11938000D01*
X2921000Y-12446000D02*
X2984500Y-12382500D01*
X2857500Y-12763500D02*
X2857500Y-12700000D01*
X5461000Y-17272000D02*
X5461000Y-17462500D01*
X5778500Y-17462500D02*
X5651500Y-17462500D01*
X2857500Y-13906500D02*
X2857500Y-13779500D01*
X3175000Y-16510000D02*
X3048000Y-16383000D01*
X4508500Y-16510000D02*
X4572000Y-16446500D01*
X3048000Y-16002000D02*
X3048000Y-15875000D01*
X3048000Y-15875000D02*
X3111500Y-15811500D01*
X3111500Y-15811500D02*
X3111500Y-15176500D01*
X8445500Y-16319500D02*
X8509000Y-16383000D01*
X8509000Y-17399000D02*
X8445500Y-17462500D01*
X8445500Y-17462500D02*
X8445500Y-17780000D01*
X8445500Y-17780000D02*
X8318500Y-17780000D01*
X8318500Y-17780000D02*
X8318500Y-18034000D01*
X7556500Y-18034000D02*
X7556500Y-17780000D01*
X7556500Y-17780000D02*
X7429500Y-17780000D01*
X7429500Y-17780000D02*
X7429500Y-17462500D01*
X7429500Y-17462500D02*
X7302500Y-17335500D01*
X7302500Y-17335500D02*
X7302500Y-17272000D01*
X7302500Y-17272000D02*
X7175500Y-17272000D01*
X7175500Y-17272000D02*
X7175500Y-16700500D01*
X7175500Y-16700500D02*
X7112000Y-16637000D01*
X7112000Y-16637000D02*
X7112000Y-16446500D01*
X3175000Y-11874500D02*
X3175000Y-11684000D01*
X3175000Y-11684000D02*
X3238500Y-11620500D01*
X2857500Y-12700000D02*
X2857500Y-12509500D01*
X2857500Y-12509500D02*
X2921000Y-12446000D01*
X5461000Y-17018000D02*
X5461000Y-17272000D01*
X3111500Y-15176500D02*
X3365500Y-15176500D01*
X3365500Y-15176500D02*
X3365500Y-14922500D01*
X3619500Y-14922500D02*
X3619500Y-15176500D01*
X3619500Y-15176500D02*
X5842000Y-15176500D01*
X5842000Y-15176500D02*
X5842000Y-14922500D01*
X6096000Y-14922500D02*
X6096000Y-15176500D01*
X6096000Y-15176500D02*
X7620000Y-15176500D01*
X8445500Y-15176500D02*
X8191500Y-15176500D01*
X8191500Y-15176500D02*
X8191500Y-14922500D01*
X7937500Y-14922500D02*
X7937500Y-15176500D01*
X7937500Y-15176500D02*
X7620000Y-15176500D01*
X3365500Y-14922500D02*
X2984500Y-14922500D01*
X3619500Y-14922500D02*
X5842000Y-14922500D01*
X6096000Y-14922500D02*
X7937500Y-14922500D01*
X8191500Y-14922500D02*
X8636000Y-14922500D01*
X5715000Y-16700500D02*
X5715000Y-16446500D01*
X5715000Y-16446500D02*
X4572000Y-16446500D01*
X5969000Y-16446500D02*
X5969000Y-16700500D01*
X5969000Y-16700500D02*
X6223000Y-16700500D01*
X6604000Y-16700500D02*
X6604000Y-16446500D01*
X6604000Y-16446500D02*
X7112000Y-16446500D01*
X6350000Y-16700500D02*
X6223000Y-16700500D01*
X6350000Y-16700500D02*
X6350000Y-16446500D01*
X6350000Y-16446500D02*
X5969000Y-16446500D01*
X6223000Y-17462500D02*
X6413500Y-17462500D01*
X3175000Y-16764000D02*
X3175000Y-16510000D01*
X3429000Y-16764000D02*
X3429000Y-16510000D01*
X4064000Y-16764000D02*
X4064000Y-16510000D01*
X4064000Y-16510000D02*
X4508500Y-16510000D01*
X3810000Y-16764000D02*
X3810000Y-16510000D01*
X3810000Y-16510000D02*
X3429000Y-16510000D01*
X3429000Y-16764000D02*
X3810000Y-16764000D01*
X2857500Y-14097000D02*
X2857500Y-13906500D01*
X2857500Y-14732000D02*
X2857500Y-14605000D01*
X6921500Y-11239500D02*
X6985000Y-11303000D01*
X6985000Y-11303000D02*
X7048500Y-11366500D01*
X7048500Y-11366500D02*
X7048500Y-11493500D01*
X7048500Y-11493500D02*
X7493000Y-11493500D01*
X6921500Y-11239500D02*
X6858000Y-11176000D01*
X5143500Y-11176000D02*
X5080000Y-11176000D01*
X5016500Y-11239500D02*
X5016500Y-11366500D01*
X5016500Y-11366500D02*
X4699000Y-11366500D01*
X4699000Y-11366500D02*
X4508500Y-11557000D01*
X4508500Y-11557000D02*
X4445000Y-11557000D01*
X5080000Y-11176000D02*
X5016500Y-11176000D01*
X5016500Y-11176000D02*
X5016500Y-11239500D01*
X3175000Y-12065000D02*
X3175000Y-12001500D01*
X3175000Y-12065000D02*
X4191000Y-12065000D01*
X4191000Y-12065000D02*
X4254500Y-12128500D01*
X4889500Y-12128500D02*
X4953000Y-12065000D01*
X4953000Y-12065000D02*
X5842000Y-12065000D01*
X8191500Y-12128500D02*
X8255000Y-12065000D01*
X8255000Y-12065000D02*
X8509000Y-12065000D01*
X7937500Y-12128500D02*
X7937500Y-12382500D01*
X7937500Y-12128500D02*
X7810500Y-12128500D01*
X7810500Y-12128500D02*
X7747000Y-12065000D01*
X7747000Y-12065000D02*
X6985000Y-12065000D01*
X6985000Y-12065000D02*
X6921500Y-12128500D01*
X6858000Y-12128500D02*
X6921500Y-12128500D01*
X6667500Y-12128500D02*
X6858000Y-12128500D01*
X6032500Y-12128500D02*
X5969000Y-12065000D01*
X5969000Y-12065000D02*
X5842000Y-12065000D01*
X6159500Y-12128500D02*
X6159500Y-12382500D01*
X6096000Y-12382500D02*
X5524500Y-12382500D01*
X6413500Y-12128500D02*
X6413500Y-12382500D01*
X4254500Y-12128500D02*
X4445000Y-12128500D01*
X4127500Y-12382500D02*
X3810000Y-12382500D01*
X4699000Y-12128500D02*
X4889500Y-12128500D01*
X4445000Y-12128500D02*
X4445000Y-12382500D01*
X8636000Y-14922500D02*
X8699500Y-14922500D01*
X8699500Y-14922500D02*
X8826500Y-14795500D01*
X8826500Y-12509500D02*
X8699500Y-12382500D01*
X8699500Y-12382500D02*
X8636000Y-12382500D01*
X4699000Y-12128500D02*
X4699000Y-12382500D01*
X4699000Y-12382500D02*
X5524500Y-12382500D01*
X4445000Y-12382500D02*
X4127500Y-12382500D01*
X6096000Y-12382500D02*
X6159500Y-12382500D01*
X6032500Y-12128500D02*
X6159500Y-12128500D01*
X6413500Y-12128500D02*
X6667500Y-12128500D01*
X6413500Y-12382500D02*
X7874000Y-12382500D01*
X8191500Y-12128500D02*
X8191500Y-12382500D01*
X7874000Y-12382500D02*
X7937500Y-12382500D01*
X8191500Y-12382500D02*
X8636000Y-12382500D01*
X9080500Y-12509500D02*
X9080500Y-10922000D01*
X9080500Y-12509500D02*
X9080500Y-12763500D01*
X9080500Y-12763500D02*
X8826500Y-12763500D01*
X8826500Y-13017500D02*
X9080500Y-13017500D01*
X9080500Y-13017500D02*
X9080500Y-13906500D01*
X9080500Y-14541500D02*
X8826500Y-14541500D01*
X9080500Y-14541500D02*
X9080500Y-15113000D01*
X8826500Y-14287500D02*
X9080500Y-14287500D01*
X9080500Y-14287500D02*
X9080500Y-13906500D01*
X5270500Y-11176000D02*
X5270500Y-10922000D01*
X5524500Y-11176000D02*
X5524500Y-10922000D01*
X6604000Y-11176000D02*
X6604000Y-10922000D01*
X6350000Y-10922000D02*
X6350000Y-11176000D01*
X2857500Y-12763500D02*
X2603500Y-12763500D01*
X2603500Y-13017500D02*
X2857500Y-13017500D01*
X2857500Y-14541500D02*
X2603500Y-14541500D01*
X2603500Y-14287500D02*
X2857500Y-14287500D01*
X2603500Y-12763500D02*
X2603500Y-10922000D01*
X2603500Y-13017500D02*
X2603500Y-14287500D01*
X3048000Y-16256000D02*
X2794000Y-16256000D01*
X2794000Y-16256000D02*
X2603500Y-16256000D01*
X2603500Y-16256000D02*
X2603500Y-16891000D01*
X3048000Y-17018000D02*
X2667000Y-17018000D01*
X2667000Y-17018000D02*
X2603500Y-17018000D01*
X2603500Y-17018000D02*
X2603500Y-16891000D01*
X3048000Y-17272000D02*
X2603500Y-17272000D01*
X2603500Y-17272000D02*
X2603500Y-17653000D01*
X3048000Y-17018000D02*
X3048000Y-16891000D01*
X3048000Y-17272000D02*
X3048000Y-17462500D01*
X3048000Y-16002000D02*
X2603500Y-16002000D01*
X2603500Y-16002000D02*
X2603500Y-14541500D01*
X3048000Y-16383000D02*
X3048000Y-16256000D01*
X2857500Y-14287500D02*
X2857500Y-14097000D01*
X2857500Y-13017500D02*
X2857500Y-13779500D01*
X5143500Y-11176000D02*
X5270500Y-11176000D01*
X5524500Y-11176000D02*
X6350000Y-11176000D01*
X6604000Y-11176000D02*
X6858000Y-11176000D01*
X5524500Y-10922000D02*
X6350000Y-10922000D01*
X2603500Y-10922000D02*
X5270500Y-10922000D01*
X6604000Y-10922000D02*
X8699500Y-10922000D01*
X9080500Y-10922000D02*
X8699500Y-10922000D01*
X8826500Y-12763500D02*
X8826500Y-12509500D01*
X8826500Y-14287500D02*
X8826500Y-13017500D01*
X8826500Y-14795500D02*
X8826500Y-14541500D01*
X7810500Y-18034000D02*
X7810500Y-18288000D01*
X8064500Y-18288000D02*
X8064500Y-18034000D01*
X7810500Y-18034000D02*
X7556500Y-18034000D01*
X8064500Y-18034000D02*
X8318500Y-18034000D01*
X5905500Y-17462500D02*
X5905500Y-17653000D01*
X6159500Y-17462500D02*
X6159500Y-17653000D01*
X6159500Y-17653000D02*
X6159500Y-17716500D01*
X5905500Y-17716500D02*
X5905500Y-17653000D01*
X3429000Y-17589500D02*
X3429000Y-17843500D01*
X3683000Y-17589500D02*
X3683000Y-17843500D01*
X3175000Y-17589500D02*
X3429000Y-17589500D01*
X3683000Y-17589500D02*
X3937000Y-17589500D01*
X7302500Y-18288000D02*
X6731000Y-17716500D01*
X6731000Y-17716500D02*
X6159500Y-17716500D01*
X7302500Y-18288000D02*
X7810500Y-18288000D01*
X3683000Y-17843500D02*
X4889500Y-17843500D01*
X5905500Y-17716500D02*
X5016500Y-17716500D01*
X5016500Y-17716500D02*
X4889500Y-17843500D01*
X3429000Y-17843500D02*
X2603500Y-17843500D01*
X2603500Y-17843500D02*
X2603500Y-17653000D01*
X6223000Y-17462500D02*
X6159500Y-17462500D01*
X5905500Y-17462500D02*
X5778500Y-17462500D01*
X8509000Y-17145000D02*
X8763000Y-17145000D01*
X8763000Y-16891000D02*
X8509000Y-16891000D01*
X8509000Y-16891000D02*
X8509000Y-16383000D01*
X8509000Y-17145000D02*
X8509000Y-17399000D01*
X8064500Y-18288000D02*
X8763000Y-18288000D01*
X8763000Y-18288000D02*
X8763000Y-17145000D01*
X8445500Y-15430500D02*
X8763000Y-15430500D01*
X8763000Y-15430500D02*
X9080500Y-15113000D01*
X8445500Y-15684500D02*
X8763000Y-15684500D01*
X8445500Y-15684500D02*
X8445500Y-16319500D01*
X8445500Y-15430500D02*
X8445500Y-15176500D01*
X8763000Y-15684500D02*
X8763000Y-16891000D01*
X10096500Y-10922000D02*
X10096500Y-11176000D01*
X16256000Y-15684500D02*
X16256000Y-16891000D01*
X15938500Y-15430500D02*
X15938500Y-15176500D01*
X15938500Y-15684500D02*
X15938500Y-16319500D01*
X15938500Y-15684500D02*
X16256000Y-15684500D01*
X16256000Y-15430500D02*
X16573500Y-15113000D01*
X15938500Y-15430500D02*
X16256000Y-15430500D01*
X16256000Y-18288000D02*
X16256000Y-17145000D01*
X15557500Y-18288000D02*
X16256000Y-18288000D01*
X16002000Y-17145000D02*
X16002000Y-17399000D01*
X16002000Y-16891000D02*
X16002000Y-16383000D01*
X16256000Y-16891000D02*
X16002000Y-16891000D01*
X16002000Y-17145000D02*
X16256000Y-17145000D01*
X13398500Y-17462500D02*
X13271500Y-17462500D01*
X13716000Y-17462500D02*
X13652500Y-17462500D01*
X10096500Y-17843500D02*
X10096500Y-17653000D01*
X10922000Y-17843500D02*
X10096500Y-17843500D01*
X12509500Y-17716500D02*
X12382500Y-17843500D01*
X13398500Y-17716500D02*
X12509500Y-17716500D01*
X11176000Y-17843500D02*
X12382500Y-17843500D01*
X14795500Y-18288000D02*
X15303500Y-18288000D01*
X14224000Y-17716500D02*
X13652500Y-17716500D01*
X14795500Y-18288000D02*
X14224000Y-17716500D01*
X11176000Y-17589500D02*
X11430000Y-17589500D01*
X10668000Y-17589500D02*
X10922000Y-17589500D01*
X11176000Y-17589500D02*
X11176000Y-17843500D01*
X10922000Y-17589500D02*
X10922000Y-17843500D01*
X13398500Y-17716500D02*
X13398500Y-17653000D01*
X13652500Y-17653000D02*
X13652500Y-17716500D01*
X13652500Y-17462500D02*
X13652500Y-17653000D01*
X13398500Y-17462500D02*
X13398500Y-17653000D01*
X15557500Y-18034000D02*
X15811500Y-18034000D01*
X15303500Y-18034000D02*
X15049500Y-18034000D01*
X15557500Y-18288000D02*
X15557500Y-18034000D01*
X15303500Y-18034000D02*
X15303500Y-18288000D01*
X16319500Y-14795500D02*
X16319500Y-14541500D01*
X16319500Y-14287500D02*
X16319500Y-13017500D01*
X16319500Y-12763500D02*
X16319500Y-12509500D01*
X16573500Y-10922000D02*
X16192500Y-10922000D01*
X14097000Y-10922000D02*
X16192500Y-10922000D01*
X10096500Y-10922000D02*
X12763500Y-10922000D01*
X13017500Y-10922000D02*
X13843000Y-10922000D01*
X14097000Y-11176000D02*
X14351000Y-11176000D01*
X13017500Y-11176000D02*
X13843000Y-11176000D01*
X12636500Y-11176000D02*
X12763500Y-11176000D01*
X10350500Y-13017500D02*
X10350500Y-13779500D01*
X10350500Y-14287500D02*
X10350500Y-14097000D01*
X10541000Y-16383000D02*
X10541000Y-16256000D01*
X10096500Y-16002000D02*
X10096500Y-14541500D01*
X10541000Y-16002000D02*
X10096500Y-16002000D01*
X10541000Y-17272000D02*
X10541000Y-17462500D01*
X10541000Y-17018000D02*
X10541000Y-16891000D01*
X10096500Y-17272000D02*
X10096500Y-17653000D01*
X10541000Y-17272000D02*
X10096500Y-17272000D01*
X10096500Y-17018000D02*
X10096500Y-16891000D01*
X10160000Y-17018000D02*
X10096500Y-17018000D01*
X10541000Y-17018000D02*
X10160000Y-17018000D01*
X10096500Y-16256000D02*
X10096500Y-16891000D01*
X10287000Y-16256000D02*
X10096500Y-16256000D01*
X10541000Y-16256000D02*
X10287000Y-16256000D01*
X10096500Y-13017500D02*
X10096500Y-14287500D01*
X10096500Y-12763500D02*
X10096500Y-10922000D01*
X10096500Y-14287500D02*
X10350500Y-14287500D01*
X10350500Y-14541500D02*
X10096500Y-14541500D01*
X10096500Y-13017500D02*
X10350500Y-13017500D01*
X10350500Y-12763500D02*
X10096500Y-12763500D01*
X13843000Y-10922000D02*
X13843000Y-11176000D01*
X14097000Y-11176000D02*
X14097000Y-10922000D01*
X13017500Y-11176000D02*
X13017500Y-10922000D01*
X12763500Y-11176000D02*
X12763500Y-10922000D01*
X16573500Y-14287500D02*
X16573500Y-13906500D01*
X16319500Y-14287500D02*
X16573500Y-14287500D01*
X16573500Y-14541500D02*
X16573500Y-15113000D01*
X16573500Y-14541500D02*
X16319500Y-14541500D01*
X16573500Y-13017500D02*
X16573500Y-13906500D01*
X16319500Y-13017500D02*
X16573500Y-13017500D01*
X16573500Y-12763500D02*
X16319500Y-12763500D01*
X16573500Y-12509500D02*
X16573500Y-12763500D01*
X16573500Y-12509500D02*
X16573500Y-10922000D01*
X15684500Y-12382500D02*
X16129000Y-12382500D01*
X15367000Y-12382500D02*
X15430500Y-12382500D01*
X15684500Y-12128500D02*
X15684500Y-12382500D01*
X13906500Y-12382500D02*
X15367000Y-12382500D01*
X13906500Y-12128500D02*
X14160500Y-12128500D01*
X13525500Y-12128500D02*
X13652500Y-12128500D01*
X13589000Y-12382500D02*
X13652500Y-12382500D01*
X11938000Y-12382500D02*
X11620500Y-12382500D01*
X12192000Y-12382500D02*
X13017500Y-12382500D01*
X12192000Y-12128500D02*
X12192000Y-12382500D01*
X16192500Y-12382500D02*
X16129000Y-12382500D01*
X16319500Y-12509500D02*
X16192500Y-12382500D01*
X16192500Y-14922500D02*
X16319500Y-14795500D01*
X16129000Y-14922500D02*
X16192500Y-14922500D01*
X11938000Y-12128500D02*
X11938000Y-12382500D01*
X12192000Y-12128500D02*
X12382500Y-12128500D01*
X11620500Y-12382500D02*
X11303000Y-12382500D01*
X11747500Y-12128500D02*
X11938000Y-12128500D01*
X13906500Y-12128500D02*
X13906500Y-12382500D01*
X13589000Y-12382500D02*
X13017500Y-12382500D01*
X13652500Y-12128500D02*
X13652500Y-12382500D01*
X13462000Y-12065000D02*
X13335000Y-12065000D01*
X13525500Y-12128500D02*
X13462000Y-12065000D01*
X14160500Y-12128500D02*
X14351000Y-12128500D01*
X14351000Y-12128500D02*
X14414500Y-12128500D01*
X14478000Y-12065000D02*
X14414500Y-12128500D01*
X15240000Y-12065000D02*
X14478000Y-12065000D01*
X15303500Y-12128500D02*
X15240000Y-12065000D01*
X15430500Y-12128500D02*
X15303500Y-12128500D01*
X15430500Y-12128500D02*
X15430500Y-12382500D01*
X15748000Y-12065000D02*
X16002000Y-12065000D01*
X15684500Y-12128500D02*
X15748000Y-12065000D01*
X12446000Y-12065000D02*
X13335000Y-12065000D01*
X12382500Y-12128500D02*
X12446000Y-12065000D01*
X11684000Y-12065000D02*
X11747500Y-12128500D01*
X10668000Y-12065000D02*
X11684000Y-12065000D01*
X10668000Y-12065000D02*
X10668000Y-12001500D01*
X12509500Y-11176000D02*
X12509500Y-11239500D01*
X12573000Y-11176000D02*
X12509500Y-11176000D01*
X12001500Y-11557000D02*
X11938000Y-11557000D01*
X12192000Y-11366500D02*
X12001500Y-11557000D01*
X12509500Y-11366500D02*
X12192000Y-11366500D01*
X12509500Y-11239500D02*
X12509500Y-11366500D01*
X12636500Y-11176000D02*
X12573000Y-11176000D01*
X14414500Y-11239500D02*
X14351000Y-11176000D01*
X14541500Y-11493500D02*
X14986000Y-11493500D01*
X14541500Y-11366500D02*
X14541500Y-11493500D01*
X14478000Y-11303000D02*
X14541500Y-11366500D01*
X14414500Y-11239500D02*
X14478000Y-11303000D01*
X10350500Y-14732000D02*
X10350500Y-14605000D01*
X10350500Y-14097000D02*
X10350500Y-13906500D01*
X10922000Y-16764000D02*
X11303000Y-16764000D01*
X11303000Y-16510000D02*
X10922000Y-16510000D01*
X11303000Y-16764000D02*
X11303000Y-16510000D01*
X11557000Y-16510000D02*
X12001500Y-16510000D01*
X11557000Y-16764000D02*
X11557000Y-16510000D01*
X10922000Y-16764000D02*
X10922000Y-16510000D01*
X10668000Y-16764000D02*
X10668000Y-16510000D01*
X13716000Y-17462500D02*
X13906500Y-17462500D01*
X13843000Y-16446500D02*
X13462000Y-16446500D01*
X13843000Y-16700500D02*
X13843000Y-16446500D01*
X13843000Y-16700500D02*
X13716000Y-16700500D01*
X14097000Y-16446500D02*
X14605000Y-16446500D01*
X14097000Y-16700500D02*
X14097000Y-16446500D01*
X13462000Y-16700500D02*
X13716000Y-16700500D01*
X13462000Y-16446500D02*
X13462000Y-16700500D01*
X13208000Y-16446500D02*
X12065000Y-16446500D01*
X13208000Y-16700500D02*
X13208000Y-16446500D01*
X15684500Y-14922500D02*
X16129000Y-14922500D01*
X13589000Y-14922500D02*
X15430500Y-14922500D01*
X11112500Y-14922500D02*
X13335000Y-14922500D01*
X10858500Y-14922500D02*
X10477500Y-14922500D01*
X15430500Y-15176500D02*
X15113000Y-15176500D01*
X15430500Y-14922500D02*
X15430500Y-15176500D01*
X15684500Y-15176500D02*
X15684500Y-14922500D01*
X15938500Y-15176500D02*
X15684500Y-15176500D01*
X13589000Y-15176500D02*
X15113000Y-15176500D01*
X13589000Y-14922500D02*
X13589000Y-15176500D01*
X13335000Y-15176500D02*
X13335000Y-14922500D01*
X11112500Y-15176500D02*
X13335000Y-15176500D01*
X11112500Y-14922500D02*
X11112500Y-15176500D01*
X10858500Y-15176500D02*
X10858500Y-14922500D01*
X10604500Y-15176500D02*
X10858500Y-15176500D01*
X12954000Y-17018000D02*
X12954000Y-17272000D01*
X10350500Y-12509500D02*
X10414000Y-12446000D01*
X10350500Y-12700000D02*
X10350500Y-12509500D01*
X10668000Y-11684000D02*
X10731500Y-11620500D01*
X10668000Y-11874500D02*
X10668000Y-11684000D01*
X14605000Y-16637000D02*
X14605000Y-16446500D01*
X14668500Y-16700500D02*
X14605000Y-16637000D01*
X14668500Y-17272000D02*
X14668500Y-16700500D01*
X14795500Y-17272000D02*
X14668500Y-17272000D01*
X14795500Y-17335500D02*
X14795500Y-17272000D01*
X14922500Y-17462500D02*
X14795500Y-17335500D01*
X14922500Y-17780000D02*
X14922500Y-17462500D01*
X15049500Y-17780000D02*
X14922500Y-17780000D01*
X15049500Y-18034000D02*
X15049500Y-17780000D01*
X15811500Y-17780000D02*
X15811500Y-18034000D01*
X15938500Y-17780000D02*
X15811500Y-17780000D01*
X15938500Y-17462500D02*
X15938500Y-17780000D01*
X16002000Y-17399000D02*
X15938500Y-17462500D01*
X15938500Y-16319500D02*
X16002000Y-16383000D01*
X10604500Y-15811500D02*
X10604500Y-15176500D01*
X10541000Y-15875000D02*
X10604500Y-15811500D01*
X10541000Y-16002000D02*
X10541000Y-15875000D01*
X12001500Y-16510000D02*
X12065000Y-16446500D01*
X10668000Y-16510000D02*
X10541000Y-16383000D01*
X10350500Y-13906500D02*
X10350500Y-13779500D01*
X13271500Y-17462500D02*
X13144500Y-17462500D01*
X12954000Y-17272000D02*
X12954000Y-17462500D01*
X10350500Y-12763500D02*
X10350500Y-12700000D01*
X10414000Y-12446000D02*
X10477500Y-12382500D01*
X10668000Y-11874500D02*
X10668000Y-11938000D01*
X10795000Y-11557000D02*
X10731500Y-11620500D01*
X10668000Y-11938000D02*
X10668000Y-12001500D01*
X14287500Y-12382500D02*
X14033500Y-12382500D01*
X11303000Y-12382500D02*
X11049000Y-12382500D01*
X14097000Y-17462500D02*
X13906500Y-17462500D01*
X12954000Y-17462500D02*
X13017500Y-17462500D01*
X12954000Y-16954500D02*
X12954000Y-17018000D01*
X10477500Y-12382500D02*
X11049000Y-12382500D01*
X10541000Y-16891000D02*
X10668000Y-16764000D01*
X14224000Y-17335500D02*
X14224000Y-17081500D01*
X14097000Y-17462500D02*
X14224000Y-17335500D01*
X16002000Y-11557000D02*
X16002000Y-12065000D01*
X15494000Y-11557000D02*
X16002000Y-11557000D01*
X15430500Y-11493500D02*
X15494000Y-11557000D01*
X15367000Y-11493500D02*
X15430500Y-11493500D01*
X14986000Y-11493500D02*
X15367000Y-11493500D01*
X10795000Y-11557000D02*
X11938000Y-11557000D01*
X10350500Y-14605000D02*
X10350500Y-14541500D01*
X10350500Y-14732000D02*
X10350500Y-14795500D01*
X10350500Y-14795500D02*
X10477500Y-14922500D01*
X13081000Y-16827500D02*
X13081000Y-16954500D01*
X13081000Y-16827500D02*
X13208000Y-16700500D01*
X13144500Y-17462500D02*
X13017500Y-17462500D01*
X12954000Y-16954500D02*
X13081000Y-16954500D01*
X14097000Y-16954500D02*
X14097000Y-16700500D01*
X14224000Y-17081500D02*
X14097000Y-16954500D01*
X11557000Y-16891000D02*
X11557000Y-16764000D01*
X11557000Y-17462500D02*
X11557000Y-16891000D01*
X11430000Y-17589500D02*
X11557000Y-17462500D01*
X10541000Y-17462500D02*
X10668000Y-17589500D01*
X23749000Y-15684500D02*
X23749000Y-16891000D01*
X23431500Y-15430500D02*
X23431500Y-15176500D01*
X23431500Y-15684500D02*
X23431500Y-16319500D01*
X23431500Y-15684500D02*
X23749000Y-15684500D01*
X23749000Y-15430500D02*
X24066500Y-15113000D01*
X23431500Y-15430500D02*
X23749000Y-15430500D01*
X23749000Y-18288000D02*
X23749000Y-17145000D01*
X23050500Y-18288000D02*
X23749000Y-18288000D01*
X23495000Y-17145000D02*
X23495000Y-17399000D01*
X23495000Y-16891000D02*
X23495000Y-16383000D01*
X23749000Y-16891000D02*
X23495000Y-16891000D01*
X23495000Y-17145000D02*
X23749000Y-17145000D01*
X20891500Y-17462500D02*
X20764500Y-17462500D01*
X21209000Y-17462500D02*
X21145500Y-17462500D01*
X17589500Y-17843500D02*
X17589500Y-17653000D01*
X18415000Y-17843500D02*
X17589500Y-17843500D01*
X20002500Y-17716500D02*
X19875500Y-17843500D01*
X20891500Y-17716500D02*
X20002500Y-17716500D01*
X18669000Y-17843500D02*
X19875500Y-17843500D01*
X22288500Y-18288000D02*
X22796500Y-18288000D01*
X21717000Y-17716500D02*
X21145500Y-17716500D01*
X22288500Y-18288000D02*
X21717000Y-17716500D01*
X18669000Y-17589500D02*
X18923000Y-17589500D01*
X18161000Y-17589500D02*
X18415000Y-17589500D01*
X18669000Y-17589500D02*
X18669000Y-17843500D01*
X18415000Y-17589500D02*
X18415000Y-17843500D01*
X20891500Y-17716500D02*
X20891500Y-17653000D01*
X21145500Y-17653000D02*
X21145500Y-17716500D01*
X21145500Y-17462500D02*
X21145500Y-17653000D01*
X20891500Y-17462500D02*
X20891500Y-17653000D01*
X23050500Y-18034000D02*
X23304500Y-18034000D01*
X22796500Y-18034000D02*
X22542500Y-18034000D01*
X23050500Y-18288000D02*
X23050500Y-18034000D01*
X22796500Y-18034000D02*
X22796500Y-18288000D01*
X23812500Y-14795500D02*
X23812500Y-14541500D01*
X23812500Y-14287500D02*
X23812500Y-13017500D01*
X23812500Y-12763500D02*
X23812500Y-12509500D01*
X24066500Y-10922000D02*
X23685500Y-10922000D01*
X21590000Y-10922000D02*
X23685500Y-10922000D01*
X17589500Y-10922000D02*
X20256500Y-10922000D01*
X20510500Y-10922000D02*
X21336000Y-10922000D01*
X21590000Y-11176000D02*
X21844000Y-11176000D01*
X20510500Y-11176000D02*
X21336000Y-11176000D01*
X20129500Y-11176000D02*
X20256500Y-11176000D01*
X17843500Y-13017500D02*
X17843500Y-13779500D01*
X17843500Y-14287500D02*
X17843500Y-14097000D01*
X18034000Y-16383000D02*
X18034000Y-16256000D01*
X17589500Y-16002000D02*
X17589500Y-14541500D01*
X18034000Y-16002000D02*
X17589500Y-16002000D01*
X18034000Y-17272000D02*
X18034000Y-17462500D01*
X18034000Y-17018000D02*
X18034000Y-16891000D01*
X17589500Y-17272000D02*
X17589500Y-17653000D01*
X18034000Y-17272000D02*
X17589500Y-17272000D01*
X17589500Y-17018000D02*
X17589500Y-16891000D01*
X17653000Y-17018000D02*
X17589500Y-17018000D01*
X18034000Y-17018000D02*
X17653000Y-17018000D01*
X17589500Y-16256000D02*
X17589500Y-16891000D01*
X17780000Y-16256000D02*
X17589500Y-16256000D01*
X18034000Y-16256000D02*
X17780000Y-16256000D01*
X17589500Y-13017500D02*
X17589500Y-14287500D01*
X17589500Y-12763500D02*
X17589500Y-10922000D01*
X17589500Y-14287500D02*
X17843500Y-14287500D01*
X17843500Y-14541500D02*
X17589500Y-14541500D01*
X17589500Y-13017500D02*
X17843500Y-13017500D01*
X17843500Y-12763500D02*
X17589500Y-12763500D01*
X21336000Y-10922000D02*
X21336000Y-11176000D01*
X21590000Y-11176000D02*
X21590000Y-10922000D01*
X20510500Y-11176000D02*
X20510500Y-10922000D01*
X20256500Y-11176000D02*
X20256500Y-10922000D01*
X24066500Y-14287500D02*
X24066500Y-13906500D01*
X23812500Y-14287500D02*
X24066500Y-14287500D01*
X24066500Y-14541500D02*
X24066500Y-15113000D01*
X24066500Y-14541500D02*
X23812500Y-14541500D01*
X24066500Y-13017500D02*
X24066500Y-13906500D01*
X23812500Y-13017500D02*
X24066500Y-13017500D01*
X24066500Y-12763500D02*
X23812500Y-12763500D01*
X24066500Y-12509500D02*
X24066500Y-12763500D01*
X24066500Y-12509500D02*
X24066500Y-10922000D01*
X23177500Y-12382500D02*
X23622000Y-12382500D01*
X22860000Y-12382500D02*
X22923500Y-12382500D01*
X23177500Y-12128500D02*
X23177500Y-12382500D01*
X21399500Y-12382500D02*
X22860000Y-12382500D01*
X21399500Y-12128500D02*
X21653500Y-12128500D01*
X21018500Y-12128500D02*
X21145500Y-12128500D01*
X21082000Y-12382500D02*
X21145500Y-12382500D01*
X19431000Y-12382500D02*
X19113500Y-12382500D01*
X19685000Y-12382500D02*
X20510500Y-12382500D01*
X19685000Y-12128500D02*
X19685000Y-12382500D01*
X23685500Y-12382500D02*
X23622000Y-12382500D01*
X23812500Y-12509500D02*
X23685500Y-12382500D01*
X23685500Y-14922500D02*
X23812500Y-14795500D01*
X23622000Y-14922500D02*
X23685500Y-14922500D01*
X19431000Y-12128500D02*
X19431000Y-12382500D01*
X19685000Y-12128500D02*
X19875500Y-12128500D01*
X19113500Y-12382500D02*
X18796000Y-12382500D01*
X19240500Y-12128500D02*
X19431000Y-12128500D01*
X21399500Y-12128500D02*
X21399500Y-12382500D01*
X21082000Y-12382500D02*
X20510500Y-12382500D01*
X21145500Y-12128500D02*
X21145500Y-12382500D01*
X20955000Y-12065000D02*
X20828000Y-12065000D01*
X21018500Y-12128500D02*
X20955000Y-12065000D01*
X21653500Y-12128500D02*
X21844000Y-12128500D01*
X21844000Y-12128500D02*
X21907500Y-12128500D01*
X21971000Y-12065000D02*
X21907500Y-12128500D01*
X22733000Y-12065000D02*
X21971000Y-12065000D01*
X22796500Y-12128500D02*
X22733000Y-12065000D01*
X22923500Y-12128500D02*
X22796500Y-12128500D01*
X22923500Y-12128500D02*
X22923500Y-12382500D01*
X23241000Y-12065000D02*
X23495000Y-12065000D01*
X23177500Y-12128500D02*
X23241000Y-12065000D01*
X19939000Y-12065000D02*
X20828000Y-12065000D01*
X19875500Y-12128500D02*
X19939000Y-12065000D01*
X19177000Y-12065000D02*
X19240500Y-12128500D01*
X18161000Y-12065000D02*
X19177000Y-12065000D01*
X18161000Y-12065000D02*
X18161000Y-12001500D01*
X20002500Y-11176000D02*
X20002500Y-11239500D01*
X20066000Y-11176000D02*
X20002500Y-11176000D01*
X19494500Y-11557000D02*
X19431000Y-11557000D01*
X19685000Y-11366500D02*
X19494500Y-11557000D01*
X20002500Y-11366500D02*
X19685000Y-11366500D01*
X20002500Y-11239500D02*
X20002500Y-11366500D01*
X20129500Y-11176000D02*
X20066000Y-11176000D01*
X21907500Y-11239500D02*
X21844000Y-11176000D01*
X22034500Y-11493500D02*
X22479000Y-11493500D01*
X22034500Y-11366500D02*
X22034500Y-11493500D01*
X21971000Y-11303000D02*
X22034500Y-11366500D01*
X21907500Y-11239500D02*
X21971000Y-11303000D01*
X17843500Y-14732000D02*
X17843500Y-14605000D01*
X17843500Y-14097000D02*
X17843500Y-13906500D01*
X18415000Y-16764000D02*
X18796000Y-16764000D01*
X18796000Y-16510000D02*
X18415000Y-16510000D01*
X18796000Y-16764000D02*
X18796000Y-16510000D01*
X19050000Y-16510000D02*
X19494500Y-16510000D01*
X19050000Y-16764000D02*
X19050000Y-16510000D01*
X18415000Y-16764000D02*
X18415000Y-16510000D01*
X18161000Y-16764000D02*
X18161000Y-16510000D01*
X21209000Y-17462500D02*
X21399500Y-17462500D01*
X21336000Y-16446500D02*
X20955000Y-16446500D01*
X21336000Y-16700500D02*
X21336000Y-16446500D01*
X21336000Y-16700500D02*
X21209000Y-16700500D01*
X21590000Y-16446500D02*
X22098000Y-16446500D01*
X21590000Y-16700500D02*
X21590000Y-16446500D01*
X20955000Y-16700500D02*
X21209000Y-16700500D01*
X20955000Y-16446500D02*
X20955000Y-16700500D01*
X20701000Y-16446500D02*
X19558000Y-16446500D01*
X20701000Y-16700500D02*
X20701000Y-16446500D01*
X23177500Y-14922500D02*
X23622000Y-14922500D01*
X21082000Y-14922500D02*
X22923500Y-14922500D01*
X18605500Y-14922500D02*
X20828000Y-14922500D01*
X18351500Y-14922500D02*
X17970500Y-14922500D01*
X22923500Y-15176500D02*
X22606000Y-15176500D01*
X22923500Y-14922500D02*
X22923500Y-15176500D01*
X23177500Y-15176500D02*
X23177500Y-14922500D01*
X23431500Y-15176500D02*
X23177500Y-15176500D01*
X21082000Y-15176500D02*
X22606000Y-15176500D01*
X21082000Y-14922500D02*
X21082000Y-15176500D01*
X20828000Y-15176500D02*
X20828000Y-14922500D01*
X18605500Y-15176500D02*
X20828000Y-15176500D01*
X18605500Y-14922500D02*
X18605500Y-15176500D01*
X18351500Y-15176500D02*
X18351500Y-14922500D01*
X18097500Y-15176500D02*
X18351500Y-15176500D01*
X20447000Y-17018000D02*
X20447000Y-17272000D01*
X17843500Y-12509500D02*
X17907000Y-12446000D01*
X17843500Y-12700000D02*
X17843500Y-12509500D01*
X18161000Y-11684000D02*
X18224500Y-11620500D01*
X18161000Y-11874500D02*
X18161000Y-11684000D01*
X22098000Y-16637000D02*
X22098000Y-16446500D01*
X22161500Y-16700500D02*
X22098000Y-16637000D01*
X22161500Y-17272000D02*
X22161500Y-16700500D01*
X22288500Y-17272000D02*
X22161500Y-17272000D01*
X22288500Y-17335500D02*
X22288500Y-17272000D01*
X22415500Y-17462500D02*
X22288500Y-17335500D01*
X22415500Y-17780000D02*
X22415500Y-17462500D01*
X22542500Y-17780000D02*
X22415500Y-17780000D01*
X22542500Y-18034000D02*
X22542500Y-17780000D01*
X23304500Y-17780000D02*
X23304500Y-18034000D01*
X23431500Y-17780000D02*
X23304500Y-17780000D01*
X23431500Y-17462500D02*
X23431500Y-17780000D01*
X23495000Y-17399000D02*
X23431500Y-17462500D01*
X23431500Y-16319500D02*
X23495000Y-16383000D01*
X18097500Y-15811500D02*
X18097500Y-15176500D01*
X18034000Y-15875000D02*
X18097500Y-15811500D01*
X18034000Y-16002000D02*
X18034000Y-15875000D01*
X19494500Y-16510000D02*
X19558000Y-16446500D01*
X18161000Y-16510000D02*
X18034000Y-16383000D01*
X17843500Y-13906500D02*
X17843500Y-13779500D01*
X20764500Y-17462500D02*
X20637500Y-17462500D01*
X20447000Y-17272000D02*
X20447000Y-17462500D01*
X17843500Y-12763500D02*
X17843500Y-12700000D01*
X17907000Y-12446000D02*
X17970500Y-12382500D01*
X18161000Y-11874500D02*
X18161000Y-11938000D01*
X18288000Y-11557000D02*
X18224500Y-11620500D01*
X18161000Y-11938000D02*
X18161000Y-12001500D01*
X21780500Y-12382500D02*
X21526500Y-12382500D01*
X18796000Y-12382500D02*
X18542000Y-12382500D01*
X21590000Y-17462500D02*
X21399500Y-17462500D01*
X20447000Y-17462500D02*
X20510500Y-17462500D01*
X20447000Y-16954500D02*
X20447000Y-17018000D01*
X17970500Y-12382500D02*
X18542000Y-12382500D01*
X18034000Y-16891000D02*
X18161000Y-16764000D01*
X21717000Y-17335500D02*
X21717000Y-17081500D01*
X21590000Y-17462500D02*
X21717000Y-17335500D01*
X23495000Y-11557000D02*
X23495000Y-12065000D01*
X22987000Y-11557000D02*
X23495000Y-11557000D01*
X22923500Y-11493500D02*
X22987000Y-11557000D01*
X22860000Y-11493500D02*
X22923500Y-11493500D01*
X22479000Y-11493500D02*
X22860000Y-11493500D01*
X18288000Y-11557000D02*
X19431000Y-11557000D01*
X17843500Y-14605000D02*
X17843500Y-14541500D01*
X17843500Y-14732000D02*
X17843500Y-14795500D01*
X17843500Y-14795500D02*
X17970500Y-14922500D01*
X20574000Y-16827500D02*
X20574000Y-16954500D01*
X20574000Y-16827500D02*
X20701000Y-16700500D01*
X20637500Y-17462500D02*
X20510500Y-17462500D01*
X20447000Y-16954500D02*
X20574000Y-16954500D01*
X21590000Y-16954500D02*
X21590000Y-16700500D01*
X21717000Y-17081500D02*
X21590000Y-16954500D01*
X19050000Y-16891000D02*
X19050000Y-16764000D01*
X19050000Y-17462500D02*
X19050000Y-16891000D01*
X18923000Y-17589500D02*
X19050000Y-17462500D01*
X18034000Y-17462500D02*
X18161000Y-17589500D01*
X18034000Y-9080500D02*
X18161000Y-9207500D01*
X18923000Y-9207500D02*
X19050000Y-9080500D01*
X19050000Y-9080500D02*
X19050000Y-8509000D01*
X19050000Y-8509000D02*
X19050000Y-8382000D01*
X21717000Y-8699500D02*
X21590000Y-8572500D01*
X21590000Y-8572500D02*
X21590000Y-8318500D01*
X20447000Y-8572500D02*
X20574000Y-8572500D01*
X20637500Y-9080500D02*
X20510500Y-9080500D01*
X20574000Y-8445500D02*
X20701000Y-8318500D01*
X20574000Y-8445500D02*
X20574000Y-8572500D01*
X17843500Y-6413500D02*
X17970500Y-6540500D01*
X17843500Y-6350000D02*
X17843500Y-6413500D01*
X17843500Y-6223000D02*
X17843500Y-6159500D01*
X18288000Y-3175000D02*
X19431000Y-3175000D01*
X22479000Y-3111500D02*
X22860000Y-3111500D01*
X22860000Y-3111500D02*
X22923500Y-3111500D01*
X22923500Y-3111500D02*
X22987000Y-3175000D01*
X22987000Y-3175000D02*
X23495000Y-3175000D01*
X23495000Y-3175000D02*
X23495000Y-3683000D01*
X21590000Y-9080500D02*
X21717000Y-8953500D01*
X21717000Y-8953500D02*
X21717000Y-8699500D01*
X18034000Y-8509000D02*
X18161000Y-8382000D01*
X17970500Y-4000500D02*
X18542000Y-4000500D01*
X20447000Y-8572500D02*
X20447000Y-8636000D01*
X20447000Y-9080500D02*
X20510500Y-9080500D01*
X21590000Y-9080500D02*
X21399500Y-9080500D01*
X18796000Y-4000500D02*
X18542000Y-4000500D01*
X21780500Y-4000500D02*
X21526500Y-4000500D01*
X18161000Y-3556000D02*
X18161000Y-3619500D01*
X18288000Y-3175000D02*
X18224500Y-3238500D01*
X18161000Y-3492500D02*
X18161000Y-3556000D01*
X17907000Y-4064000D02*
X17970500Y-4000500D01*
X17843500Y-4381500D02*
X17843500Y-4318000D01*
X20447000Y-8890000D02*
X20447000Y-9080500D01*
X20764500Y-9080500D02*
X20637500Y-9080500D01*
X17843500Y-5524500D02*
X17843500Y-5397500D01*
X18161000Y-8128000D02*
X18034000Y-8001000D01*
X19494500Y-8128000D02*
X19558000Y-8064500D01*
X18034000Y-7620000D02*
X18034000Y-7493000D01*
X18034000Y-7493000D02*
X18097500Y-7429500D01*
X18097500Y-7429500D02*
X18097500Y-6794500D01*
X23431500Y-7937500D02*
X23495000Y-8001000D01*
X23495000Y-9017000D02*
X23431500Y-9080500D01*
X23431500Y-9080500D02*
X23431500Y-9398000D01*
X23431500Y-9398000D02*
X23304500Y-9398000D01*
X23304500Y-9398000D02*
X23304500Y-9652000D01*
X22542500Y-9652000D02*
X22542500Y-9398000D01*
X22542500Y-9398000D02*
X22415500Y-9398000D01*
X22415500Y-9398000D02*
X22415500Y-9080500D01*
X22415500Y-9080500D02*
X22288500Y-8953500D01*
X22288500Y-8953500D02*
X22288500Y-8890000D01*
X22288500Y-8890000D02*
X22161500Y-8890000D01*
X22161500Y-8890000D02*
X22161500Y-8318500D01*
X22161500Y-8318500D02*
X22098000Y-8255000D01*
X22098000Y-8255000D02*
X22098000Y-8064500D01*
X18161000Y-3492500D02*
X18161000Y-3302000D01*
X18161000Y-3302000D02*
X18224500Y-3238500D01*
X17843500Y-4318000D02*
X17843500Y-4127500D01*
X17843500Y-4127500D02*
X17907000Y-4064000D01*
X20447000Y-8636000D02*
X20447000Y-8890000D01*
X18097500Y-6794500D02*
X18351500Y-6794500D01*
X18351500Y-6794500D02*
X18351500Y-6540500D01*
X18605500Y-6540500D02*
X18605500Y-6794500D01*
X18605500Y-6794500D02*
X20828000Y-6794500D01*
X20828000Y-6794500D02*
X20828000Y-6540500D01*
X21082000Y-6540500D02*
X21082000Y-6794500D01*
X21082000Y-6794500D02*
X22606000Y-6794500D01*
X23431500Y-6794500D02*
X23177500Y-6794500D01*
X23177500Y-6794500D02*
X23177500Y-6540500D01*
X22923500Y-6540500D02*
X22923500Y-6794500D01*
X22923500Y-6794500D02*
X22606000Y-6794500D01*
X18351500Y-6540500D02*
X17970500Y-6540500D01*
X18605500Y-6540500D02*
X20828000Y-6540500D01*
X21082000Y-6540500D02*
X22923500Y-6540500D01*
X23177500Y-6540500D02*
X23622000Y-6540500D01*
X20701000Y-8318500D02*
X20701000Y-8064500D01*
X20701000Y-8064500D02*
X19558000Y-8064500D01*
X20955000Y-8064500D02*
X20955000Y-8318500D01*
X20955000Y-8318500D02*
X21209000Y-8318500D01*
X21590000Y-8318500D02*
X21590000Y-8064500D01*
X21590000Y-8064500D02*
X22098000Y-8064500D01*
X21336000Y-8318500D02*
X21209000Y-8318500D01*
X21336000Y-8318500D02*
X21336000Y-8064500D01*
X21336000Y-8064500D02*
X20955000Y-8064500D01*
X21209000Y-9080500D02*
X21399500Y-9080500D01*
X18161000Y-8382000D02*
X18161000Y-8128000D01*
X18415000Y-8382000D02*
X18415000Y-8128000D01*
X19050000Y-8382000D02*
X19050000Y-8128000D01*
X19050000Y-8128000D02*
X19494500Y-8128000D01*
X18796000Y-8382000D02*
X18796000Y-8128000D01*
X18796000Y-8128000D02*
X18415000Y-8128000D01*
X18415000Y-8382000D02*
X18796000Y-8382000D01*
X17843500Y-5715000D02*
X17843500Y-5524500D01*
X17843500Y-6350000D02*
X17843500Y-6223000D01*
X21907500Y-2857500D02*
X21971000Y-2921000D01*
X21971000Y-2921000D02*
X22034500Y-2984500D01*
X22034500Y-2984500D02*
X22034500Y-3111500D01*
X22034500Y-3111500D02*
X22479000Y-3111500D01*
X21907500Y-2857500D02*
X21844000Y-2794000D01*
X20129500Y-2794000D02*
X20066000Y-2794000D01*
X20002500Y-2857500D02*
X20002500Y-2984500D01*
X20002500Y-2984500D02*
X19685000Y-2984500D01*
X19685000Y-2984500D02*
X19494500Y-3175000D01*
X19494500Y-3175000D02*
X19431000Y-3175000D01*
X20066000Y-2794000D02*
X20002500Y-2794000D01*
X20002500Y-2794000D02*
X20002500Y-2857500D01*
X18161000Y-3683000D02*
X18161000Y-3619500D01*
X18161000Y-3683000D02*
X19177000Y-3683000D01*
X19177000Y-3683000D02*
X19240500Y-3746500D01*
X19875500Y-3746500D02*
X19939000Y-3683000D01*
X19939000Y-3683000D02*
X20828000Y-3683000D01*
X23177500Y-3746500D02*
X23241000Y-3683000D01*
X23241000Y-3683000D02*
X23495000Y-3683000D01*
X22923500Y-3746500D02*
X22923500Y-4000500D01*
X22923500Y-3746500D02*
X22796500Y-3746500D01*
X22796500Y-3746500D02*
X22733000Y-3683000D01*
X22733000Y-3683000D02*
X21971000Y-3683000D01*
X21971000Y-3683000D02*
X21907500Y-3746500D01*
X21844000Y-3746500D02*
X21907500Y-3746500D01*
X21653500Y-3746500D02*
X21844000Y-3746500D01*
X21018500Y-3746500D02*
X20955000Y-3683000D01*
X20955000Y-3683000D02*
X20828000Y-3683000D01*
X21145500Y-3746500D02*
X21145500Y-4000500D01*
X21082000Y-4000500D02*
X20510500Y-4000500D01*
X21399500Y-3746500D02*
X21399500Y-4000500D01*
X19240500Y-3746500D02*
X19431000Y-3746500D01*
X19113500Y-4000500D02*
X18796000Y-4000500D01*
X19685000Y-3746500D02*
X19875500Y-3746500D01*
X19431000Y-3746500D02*
X19431000Y-4000500D01*
X23622000Y-6540500D02*
X23685500Y-6540500D01*
X23685500Y-6540500D02*
X23812500Y-6413500D01*
X23812500Y-4127500D02*
X23685500Y-4000500D01*
X23685500Y-4000500D02*
X23622000Y-4000500D01*
X19685000Y-3746500D02*
X19685000Y-4000500D01*
X19685000Y-4000500D02*
X20510500Y-4000500D01*
X19431000Y-4000500D02*
X19113500Y-4000500D01*
X21082000Y-4000500D02*
X21145500Y-4000500D01*
X21018500Y-3746500D02*
X21145500Y-3746500D01*
X21399500Y-3746500D02*
X21653500Y-3746500D01*
X21399500Y-4000500D02*
X22860000Y-4000500D01*
X23177500Y-3746500D02*
X23177500Y-4000500D01*
X22860000Y-4000500D02*
X22923500Y-4000500D01*
X23177500Y-4000500D02*
X23622000Y-4000500D01*
X24066500Y-4127500D02*
X24066500Y-2540000D01*
X24066500Y-4127500D02*
X24066500Y-4381500D01*
X24066500Y-4381500D02*
X23812500Y-4381500D01*
X23812500Y-4635500D02*
X24066500Y-4635500D01*
X24066500Y-4635500D02*
X24066500Y-5524500D01*
X24066500Y-6159500D02*
X23812500Y-6159500D01*
X24066500Y-6159500D02*
X24066500Y-6731000D01*
X23812500Y-5905500D02*
X24066500Y-5905500D01*
X24066500Y-5905500D02*
X24066500Y-5524500D01*
X20256500Y-2794000D02*
X20256500Y-2540000D01*
X20510500Y-2794000D02*
X20510500Y-2540000D01*
X21590000Y-2794000D02*
X21590000Y-2540000D01*
X21336000Y-2540000D02*
X21336000Y-2794000D01*
X17843500Y-4381500D02*
X17589500Y-4381500D01*
X17589500Y-4635500D02*
X17843500Y-4635500D01*
X17843500Y-6159500D02*
X17589500Y-6159500D01*
X17589500Y-5905500D02*
X17843500Y-5905500D01*
X17589500Y-4381500D02*
X17589500Y-2540000D01*
X17589500Y-4635500D02*
X17589500Y-5905500D01*
X18034000Y-7874000D02*
X17780000Y-7874000D01*
X17780000Y-7874000D02*
X17589500Y-7874000D01*
X17589500Y-7874000D02*
X17589500Y-8509000D01*
X18034000Y-8636000D02*
X17653000Y-8636000D01*
X17653000Y-8636000D02*
X17589500Y-8636000D01*
X17589500Y-8636000D02*
X17589500Y-8509000D01*
X18034000Y-8890000D02*
X17589500Y-8890000D01*
X17589500Y-8890000D02*
X17589500Y-9271000D01*
X18034000Y-8636000D02*
X18034000Y-8509000D01*
X18034000Y-8890000D02*
X18034000Y-9080500D01*
X18034000Y-7620000D02*
X17589500Y-7620000D01*
X17589500Y-7620000D02*
X17589500Y-6159500D01*
X18034000Y-8001000D02*
X18034000Y-7874000D01*
X17843500Y-5905500D02*
X17843500Y-5715000D01*
X17843500Y-4635500D02*
X17843500Y-5397500D01*
X20129500Y-2794000D02*
X20256500Y-2794000D01*
X20510500Y-2794000D02*
X21336000Y-2794000D01*
X21590000Y-2794000D02*
X21844000Y-2794000D01*
X20510500Y-2540000D02*
X21336000Y-2540000D01*
X17589500Y-2540000D02*
X20256500Y-2540000D01*
X21590000Y-2540000D02*
X23685500Y-2540000D01*
X24066500Y-2540000D02*
X23685500Y-2540000D01*
X23812500Y-4381500D02*
X23812500Y-4127500D01*
X23812500Y-5905500D02*
X23812500Y-4635500D01*
X23812500Y-6413500D02*
X23812500Y-6159500D01*
X22796500Y-9652000D02*
X22796500Y-9906000D01*
X23050500Y-9906000D02*
X23050500Y-9652000D01*
X22796500Y-9652000D02*
X22542500Y-9652000D01*
X23050500Y-9652000D02*
X23304500Y-9652000D01*
X20891500Y-9080500D02*
X20891500Y-9271000D01*
X21145500Y-9080500D02*
X21145500Y-9271000D01*
X21145500Y-9271000D02*
X21145500Y-9334500D01*
X20891500Y-9334500D02*
X20891500Y-9271000D01*
X18415000Y-9207500D02*
X18415000Y-9461500D01*
X18669000Y-9207500D02*
X18669000Y-9461500D01*
X18161000Y-9207500D02*
X18415000Y-9207500D01*
X18669000Y-9207500D02*
X18923000Y-9207500D01*
X22288500Y-9906000D02*
X21717000Y-9334500D01*
X21717000Y-9334500D02*
X21145500Y-9334500D01*
X22288500Y-9906000D02*
X22796500Y-9906000D01*
X18669000Y-9461500D02*
X19875500Y-9461500D01*
X20891500Y-9334500D02*
X20002500Y-9334500D01*
X20002500Y-9334500D02*
X19875500Y-9461500D01*
X18415000Y-9461500D02*
X17589500Y-9461500D01*
X17589500Y-9461500D02*
X17589500Y-9271000D01*
X21209000Y-9080500D02*
X21145500Y-9080500D01*
X20891500Y-9080500D02*
X20764500Y-9080500D01*
X23495000Y-8763000D02*
X23749000Y-8763000D01*
X23749000Y-8509000D02*
X23495000Y-8509000D01*
X23495000Y-8509000D02*
X23495000Y-8001000D01*
X23495000Y-8763000D02*
X23495000Y-9017000D01*
X23050500Y-9906000D02*
X23749000Y-9906000D01*
X23749000Y-9906000D02*
X23749000Y-8763000D01*
X23431500Y-7048500D02*
X23749000Y-7048500D01*
X23749000Y-7048500D02*
X24066500Y-6731000D01*
X23431500Y-7302500D02*
X23749000Y-7302500D01*
X23431500Y-7302500D02*
X23431500Y-7937500D01*
X23431500Y-7048500D02*
X23431500Y-6794500D01*
X23749000Y-7302500D02*
X23749000Y-8509000D01*
X10541000Y-9080500D02*
X10668000Y-9207500D01*
X11430000Y-9207500D02*
X11557000Y-9080500D01*
X11557000Y-9080500D02*
X11557000Y-8509000D01*
X11557000Y-8509000D02*
X11557000Y-8382000D01*
X14224000Y-8699500D02*
X14097000Y-8572500D01*
X14097000Y-8572500D02*
X14097000Y-8318500D01*
X12954000Y-8572500D02*
X13081000Y-8572500D01*
X13144500Y-9080500D02*
X13017500Y-9080500D01*
X13081000Y-8445500D02*
X13208000Y-8318500D01*
X13081000Y-8445500D02*
X13081000Y-8572500D01*
X10350500Y-6413500D02*
X10477500Y-6540500D01*
X10350500Y-6350000D02*
X10350500Y-6413500D01*
X10350500Y-6223000D02*
X10350500Y-6159500D01*
X10795000Y-3175000D02*
X11938000Y-3175000D01*
X14986000Y-3111500D02*
X15367000Y-3111500D01*
X15367000Y-3111500D02*
X15430500Y-3111500D01*
X15430500Y-3111500D02*
X15494000Y-3175000D01*
X15494000Y-3175000D02*
X16002000Y-3175000D01*
X16002000Y-3175000D02*
X16002000Y-3683000D01*
X14097000Y-9080500D02*
X14224000Y-8953500D01*
X14224000Y-8953500D02*
X14224000Y-8699500D01*
X10541000Y-8509000D02*
X10668000Y-8382000D01*
X10477500Y-4000500D02*
X11049000Y-4000500D01*
X12954000Y-8572500D02*
X12954000Y-8636000D01*
X12954000Y-9080500D02*
X13017500Y-9080500D01*
X14097000Y-9080500D02*
X13906500Y-9080500D01*
X11303000Y-4000500D02*
X11049000Y-4000500D01*
X14287500Y-4000500D02*
X14033500Y-4000500D01*
X10668000Y-3556000D02*
X10668000Y-3619500D01*
X10795000Y-3175000D02*
X10731500Y-3238500D01*
X10668000Y-3492500D02*
X10668000Y-3556000D01*
X10414000Y-4064000D02*
X10477500Y-4000500D01*
X10350500Y-4381500D02*
X10350500Y-4318000D01*
X12954000Y-8890000D02*
X12954000Y-9080500D01*
X13271500Y-9080500D02*
X13144500Y-9080500D01*
X10350500Y-5524500D02*
X10350500Y-5397500D01*
X10668000Y-8128000D02*
X10541000Y-8001000D01*
X12001500Y-8128000D02*
X12065000Y-8064500D01*
X10541000Y-7620000D02*
X10541000Y-7493000D01*
X10541000Y-7493000D02*
X10604500Y-7429500D01*
X10604500Y-7429500D02*
X10604500Y-6794500D01*
X15938500Y-7937500D02*
X16002000Y-8001000D01*
X16002000Y-9017000D02*
X15938500Y-9080500D01*
X15938500Y-9080500D02*
X15938500Y-9398000D01*
X15938500Y-9398000D02*
X15811500Y-9398000D01*
X15811500Y-9398000D02*
X15811500Y-9652000D01*
X15049500Y-9652000D02*
X15049500Y-9398000D01*
X15049500Y-9398000D02*
X14922500Y-9398000D01*
X14922500Y-9398000D02*
X14922500Y-9080500D01*
X14922500Y-9080500D02*
X14795500Y-8953500D01*
X14795500Y-8953500D02*
X14795500Y-8890000D01*
X14795500Y-8890000D02*
X14668500Y-8890000D01*
X14668500Y-8890000D02*
X14668500Y-8318500D01*
X14668500Y-8318500D02*
X14605000Y-8255000D01*
X14605000Y-8255000D02*
X14605000Y-8064500D01*
X10668000Y-3492500D02*
X10668000Y-3302000D01*
X10668000Y-3302000D02*
X10731500Y-3238500D01*
X10350500Y-4318000D02*
X10350500Y-4127500D01*
X10350500Y-4127500D02*
X10414000Y-4064000D01*
X12954000Y-8636000D02*
X12954000Y-8890000D01*
X10604500Y-6794500D02*
X10858500Y-6794500D01*
X10858500Y-6794500D02*
X10858500Y-6540500D01*
X11112500Y-6540500D02*
X11112500Y-6794500D01*
X11112500Y-6794500D02*
X13335000Y-6794500D01*
X13335000Y-6794500D02*
X13335000Y-6540500D01*
X13589000Y-6540500D02*
X13589000Y-6794500D01*
X13589000Y-6794500D02*
X15113000Y-6794500D01*
X15938500Y-6794500D02*
X15684500Y-6794500D01*
X15684500Y-6794500D02*
X15684500Y-6540500D01*
X15430500Y-6540500D02*
X15430500Y-6794500D01*
X15430500Y-6794500D02*
X15113000Y-6794500D01*
X10858500Y-6540500D02*
X10477500Y-6540500D01*
X11112500Y-6540500D02*
X13335000Y-6540500D01*
X13589000Y-6540500D02*
X15430500Y-6540500D01*
X15684500Y-6540500D02*
X16129000Y-6540500D01*
X13208000Y-8318500D02*
X13208000Y-8064500D01*
X13208000Y-8064500D02*
X12065000Y-8064500D01*
X13462000Y-8064500D02*
X13462000Y-8318500D01*
X13462000Y-8318500D02*
X13716000Y-8318500D01*
X14097000Y-8318500D02*
X14097000Y-8064500D01*
X14097000Y-8064500D02*
X14605000Y-8064500D01*
X13843000Y-8318500D02*
X13716000Y-8318500D01*
X13843000Y-8318500D02*
X13843000Y-8064500D01*
X13843000Y-8064500D02*
X13462000Y-8064500D01*
X13716000Y-9080500D02*
X13906500Y-9080500D01*
X10668000Y-8382000D02*
X10668000Y-8128000D01*
X10922000Y-8382000D02*
X10922000Y-8128000D01*
X11557000Y-8382000D02*
X11557000Y-8128000D01*
X11557000Y-8128000D02*
X12001500Y-8128000D01*
X11303000Y-8382000D02*
X11303000Y-8128000D01*
X11303000Y-8128000D02*
X10922000Y-8128000D01*
X10922000Y-8382000D02*
X11303000Y-8382000D01*
X10350500Y-5715000D02*
X10350500Y-5524500D01*
X10350500Y-6350000D02*
X10350500Y-6223000D01*
X14414500Y-2857500D02*
X14478000Y-2921000D01*
X14478000Y-2921000D02*
X14541500Y-2984500D01*
X14541500Y-2984500D02*
X14541500Y-3111500D01*
X14541500Y-3111500D02*
X14986000Y-3111500D01*
X14414500Y-2857500D02*
X14351000Y-2794000D01*
X12636500Y-2794000D02*
X12573000Y-2794000D01*
X12509500Y-2857500D02*
X12509500Y-2984500D01*
X12509500Y-2984500D02*
X12192000Y-2984500D01*
X12192000Y-2984500D02*
X12001500Y-3175000D01*
X12001500Y-3175000D02*
X11938000Y-3175000D01*
X12573000Y-2794000D02*
X12509500Y-2794000D01*
X12509500Y-2794000D02*
X12509500Y-2857500D01*
X10668000Y-3683000D02*
X10668000Y-3619500D01*
X10668000Y-3683000D02*
X11684000Y-3683000D01*
X11684000Y-3683000D02*
X11747500Y-3746500D01*
X12382500Y-3746500D02*
X12446000Y-3683000D01*
X12446000Y-3683000D02*
X13335000Y-3683000D01*
X15684500Y-3746500D02*
X15748000Y-3683000D01*
X15748000Y-3683000D02*
X16002000Y-3683000D01*
X15430500Y-3746500D02*
X15430500Y-4000500D01*
X15430500Y-3746500D02*
X15303500Y-3746500D01*
X15303500Y-3746500D02*
X15240000Y-3683000D01*
X15240000Y-3683000D02*
X14478000Y-3683000D01*
X14478000Y-3683000D02*
X14414500Y-3746500D01*
X14351000Y-3746500D02*
X14414500Y-3746500D01*
X14160500Y-3746500D02*
X14351000Y-3746500D01*
X13525500Y-3746500D02*
X13462000Y-3683000D01*
X13462000Y-3683000D02*
X13335000Y-3683000D01*
X13652500Y-3746500D02*
X13652500Y-4000500D01*
X13589000Y-4000500D02*
X13017500Y-4000500D01*
X13906500Y-3746500D02*
X13906500Y-4000500D01*
X11747500Y-3746500D02*
X11938000Y-3746500D01*
X11620500Y-4000500D02*
X11303000Y-4000500D01*
X12192000Y-3746500D02*
X12382500Y-3746500D01*
X11938000Y-3746500D02*
X11938000Y-4000500D01*
X16129000Y-6540500D02*
X16192500Y-6540500D01*
X16192500Y-6540500D02*
X16319500Y-6413500D01*
X16319500Y-4127500D02*
X16192500Y-4000500D01*
X16192500Y-4000500D02*
X16129000Y-4000500D01*
X12192000Y-3746500D02*
X12192000Y-4000500D01*
X12192000Y-4000500D02*
X13017500Y-4000500D01*
X11938000Y-4000500D02*
X11620500Y-4000500D01*
X13589000Y-4000500D02*
X13652500Y-4000500D01*
X13525500Y-3746500D02*
X13652500Y-3746500D01*
X13906500Y-3746500D02*
X14160500Y-3746500D01*
X13906500Y-4000500D02*
X15367000Y-4000500D01*
X15684500Y-3746500D02*
X15684500Y-4000500D01*
X15367000Y-4000500D02*
X15430500Y-4000500D01*
X15684500Y-4000500D02*
X16129000Y-4000500D01*
X16573500Y-4127500D02*
X16573500Y-2540000D01*
X16573500Y-4127500D02*
X16573500Y-4381500D01*
X16573500Y-4381500D02*
X16319500Y-4381500D01*
X16319500Y-4635500D02*
X16573500Y-4635500D01*
X16573500Y-4635500D02*
X16573500Y-5524500D01*
X16573500Y-6159500D02*
X16319500Y-6159500D01*
X16573500Y-6159500D02*
X16573500Y-6731000D01*
X16319500Y-5905500D02*
X16573500Y-5905500D01*
X16573500Y-5905500D02*
X16573500Y-5524500D01*
X12763500Y-2794000D02*
X12763500Y-2540000D01*
X13017500Y-2794000D02*
X13017500Y-2540000D01*
X14097000Y-2794000D02*
X14097000Y-2540000D01*
X13843000Y-2540000D02*
X13843000Y-2794000D01*
X10350500Y-4381500D02*
X10096500Y-4381500D01*
X10096500Y-4635500D02*
X10350500Y-4635500D01*
X10350500Y-6159500D02*
X10096500Y-6159500D01*
X10096500Y-5905500D02*
X10350500Y-5905500D01*
X10096500Y-4381500D02*
X10096500Y-2540000D01*
X10096500Y-4635500D02*
X10096500Y-5905500D01*
X10541000Y-7874000D02*
X10287000Y-7874000D01*
X10287000Y-7874000D02*
X10096500Y-7874000D01*
X10096500Y-7874000D02*
X10096500Y-8509000D01*
X10541000Y-8636000D02*
X10160000Y-8636000D01*
X10160000Y-8636000D02*
X10096500Y-8636000D01*
X10096500Y-8636000D02*
X10096500Y-8509000D01*
X10541000Y-8890000D02*
X10096500Y-8890000D01*
X10096500Y-8890000D02*
X10096500Y-9271000D01*
X10541000Y-8636000D02*
X10541000Y-8509000D01*
X10541000Y-8890000D02*
X10541000Y-9080500D01*
X10541000Y-7620000D02*
X10096500Y-7620000D01*
X10096500Y-7620000D02*
X10096500Y-6159500D01*
X10541000Y-8001000D02*
X10541000Y-7874000D01*
X10350500Y-5905500D02*
X10350500Y-5715000D01*
X10350500Y-4635500D02*
X10350500Y-5397500D01*
X12636500Y-2794000D02*
X12763500Y-2794000D01*
X13017500Y-2794000D02*
X13843000Y-2794000D01*
X14097000Y-2794000D02*
X14351000Y-2794000D01*
X13017500Y-2540000D02*
X13843000Y-2540000D01*
X10096500Y-2540000D02*
X12763500Y-2540000D01*
X14097000Y-2540000D02*
X16192500Y-2540000D01*
X16573500Y-2540000D02*
X16192500Y-2540000D01*
X16319500Y-4381500D02*
X16319500Y-4127500D01*
X16319500Y-5905500D02*
X16319500Y-4635500D01*
X16319500Y-6413500D02*
X16319500Y-6159500D01*
X15303500Y-9652000D02*
X15303500Y-9906000D01*
X15557500Y-9906000D02*
X15557500Y-9652000D01*
X15303500Y-9652000D02*
X15049500Y-9652000D01*
X15557500Y-9652000D02*
X15811500Y-9652000D01*
X13398500Y-9080500D02*
X13398500Y-9271000D01*
X13652500Y-9080500D02*
X13652500Y-9271000D01*
X13652500Y-9271000D02*
X13652500Y-9334500D01*
X13398500Y-9334500D02*
X13398500Y-9271000D01*
X10922000Y-9207500D02*
X10922000Y-9461500D01*
X11176000Y-9207500D02*
X11176000Y-9461500D01*
X10668000Y-9207500D02*
X10922000Y-9207500D01*
X11176000Y-9207500D02*
X11430000Y-9207500D01*
X14795500Y-9906000D02*
X14224000Y-9334500D01*
X14224000Y-9334500D02*
X13652500Y-9334500D01*
X14795500Y-9906000D02*
X15303500Y-9906000D01*
X11176000Y-9461500D02*
X12382500Y-9461500D01*
X13398500Y-9334500D02*
X12509500Y-9334500D01*
X12509500Y-9334500D02*
X12382500Y-9461500D01*
X10922000Y-9461500D02*
X10096500Y-9461500D01*
X10096500Y-9461500D02*
X10096500Y-9271000D01*
X13716000Y-9080500D02*
X13652500Y-9080500D01*
X13398500Y-9080500D02*
X13271500Y-9080500D01*
X16002000Y-8763000D02*
X16256000Y-8763000D01*
X16256000Y-8509000D02*
X16002000Y-8509000D01*
X16002000Y-8509000D02*
X16002000Y-8001000D01*
X16002000Y-8763000D02*
X16002000Y-9017000D01*
X15557500Y-9906000D02*
X16256000Y-9906000D01*
X16256000Y-9906000D02*
X16256000Y-8763000D01*
X15938500Y-7048500D02*
X16256000Y-7048500D01*
X16256000Y-7048500D02*
X16573500Y-6731000D01*
X15938500Y-7302500D02*
X16256000Y-7302500D01*
X15938500Y-7302500D02*
X15938500Y-7937500D01*
X15938500Y-7048500D02*
X15938500Y-6794500D01*
X16256000Y-7302500D02*
X16256000Y-8509000D01*
X10096500Y-2540000D02*
X10096500Y-2794000D01*
X8763000Y-7302500D02*
X8763000Y-8509000D01*
X8445500Y-7048500D02*
X8445500Y-6794500D01*
X8445500Y-7302500D02*
X8445500Y-7937500D01*
X8445500Y-7302500D02*
X8763000Y-7302500D01*
X8763000Y-7048500D02*
X9080500Y-6731000D01*
X8445500Y-7048500D02*
X8763000Y-7048500D01*
X8763000Y-9906000D02*
X8763000Y-8763000D01*
X8064500Y-9906000D02*
X8763000Y-9906000D01*
X8509000Y-8763000D02*
X8509000Y-9017000D01*
X8509000Y-8509000D02*
X8509000Y-8001000D01*
X8763000Y-8509000D02*
X8509000Y-8509000D01*
X8509000Y-8763000D02*
X8763000Y-8763000D01*
X5905500Y-9080500D02*
X5778500Y-9080500D01*
X6223000Y-9080500D02*
X6159500Y-9080500D01*
X7810500Y-10922000D02*
X6858000Y-10922000D01*
X2603500Y-9461500D02*
X2603500Y-9271000D01*
X3429000Y-9461500D02*
X2603500Y-9461500D01*
X5016500Y-9334500D02*
X4889500Y-9461500D01*
X5905500Y-9334500D02*
X5016500Y-9334500D01*
X3683000Y-9461500D02*
X4889500Y-9461500D01*
X7302500Y-9906000D02*
X7810500Y-9906000D01*
X6731000Y-9334500D02*
X6159500Y-9334500D01*
X7302500Y-9906000D02*
X6731000Y-9334500D01*
X3683000Y-9207500D02*
X3937000Y-9207500D01*
X3175000Y-9207500D02*
X3429000Y-9207500D01*
X3683000Y-9207500D02*
X3683000Y-9461500D01*
X3429000Y-9207500D02*
X3429000Y-9461500D01*
X5905500Y-9334500D02*
X5905500Y-9271000D01*
X6159500Y-9271000D02*
X6159500Y-9334500D01*
X6159500Y-9080500D02*
X6159500Y-9271000D01*
X5905500Y-9080500D02*
X5905500Y-9271000D01*
X8064500Y-9652000D02*
X8318500Y-9652000D01*
X7810500Y-9652000D02*
X7556500Y-9652000D01*
X8064500Y-9906000D02*
X8064500Y-9652000D01*
X7810500Y-9652000D02*
X7810500Y-9906000D01*
X8826500Y-6413500D02*
X8826500Y-6159500D01*
X8826500Y-5905500D02*
X8826500Y-4635500D01*
X8826500Y-4381500D02*
X8826500Y-4127500D01*
X9080500Y-2540000D02*
X8699500Y-2540000D01*
X6604000Y-2540000D02*
X8699500Y-2540000D01*
X2603500Y-2540000D02*
X5270500Y-2540000D01*
X5524500Y-2540000D02*
X6350000Y-2540000D01*
X6604000Y-2794000D02*
X6858000Y-2794000D01*
X5524500Y-2794000D02*
X6350000Y-2794000D01*
X5143500Y-2794000D02*
X5270500Y-2794000D01*
X2857500Y-4635500D02*
X2857500Y-5397500D01*
X2857500Y-5905500D02*
X2857500Y-5715000D01*
X3048000Y-8001000D02*
X3048000Y-7874000D01*
X2603500Y-7620000D02*
X2603500Y-6159500D01*
X3048000Y-7620000D02*
X2603500Y-7620000D01*
X3048000Y-8890000D02*
X3048000Y-9080500D01*
X3048000Y-8636000D02*
X3048000Y-8509000D01*
X2603500Y-8890000D02*
X2603500Y-9271000D01*
X3048000Y-8890000D02*
X2603500Y-8890000D01*
X2603500Y-8636000D02*
X2603500Y-8509000D01*
X2667000Y-8636000D02*
X2603500Y-8636000D01*
X3048000Y-8636000D02*
X2667000Y-8636000D01*
X2603500Y-7874000D02*
X2603500Y-8509000D01*
X2794000Y-7874000D02*
X2603500Y-7874000D01*
X3048000Y-7874000D02*
X2794000Y-7874000D01*
X2603500Y-4635500D02*
X2603500Y-5905500D01*
X2603500Y-4381500D02*
X2603500Y-2540000D01*
X2603500Y-5905500D02*
X2857500Y-5905500D01*
X2857500Y-6159500D02*
X2603500Y-6159500D01*
X2603500Y-4635500D02*
X2857500Y-4635500D01*
X2857500Y-4381500D02*
X2603500Y-4381500D01*
X6350000Y-2540000D02*
X6350000Y-2794000D01*
X6604000Y-2794000D02*
X6604000Y-2540000D01*
X5524500Y-2794000D02*
X5524500Y-2540000D01*
X5270500Y-2794000D02*
X5270500Y-2540000D01*
X9080500Y-5905500D02*
X9080500Y-5524500D01*
X8826500Y-5905500D02*
X9080500Y-5905500D01*
X9080500Y-6159500D02*
X9080500Y-6731000D01*
X9080500Y-6159500D02*
X8826500Y-6159500D01*
X9080500Y-4635500D02*
X9080500Y-5524500D01*
X8826500Y-4635500D02*
X9080500Y-4635500D01*
X9080500Y-4381500D02*
X8826500Y-4381500D01*
X9080500Y-4127500D02*
X9080500Y-4381500D01*
X9080500Y-4127500D02*
X9080500Y-2540000D01*
X8191500Y-4000500D02*
X8636000Y-4000500D01*
X7874000Y-4000500D02*
X7937500Y-4000500D01*
X8191500Y-3746500D02*
X8191500Y-4000500D01*
X6413500Y-4000500D02*
X7874000Y-4000500D01*
X6413500Y-3746500D02*
X6667500Y-3746500D01*
X6032500Y-3746500D02*
X6159500Y-3746500D01*
X6096000Y-4000500D02*
X6159500Y-4000500D01*
X4445000Y-4000500D02*
X4127500Y-4000500D01*
X4699000Y-4000500D02*
X5524500Y-4000500D01*
X4699000Y-3746500D02*
X4699000Y-4000500D01*
X8699500Y-4000500D02*
X8636000Y-4000500D01*
X8826500Y-4127500D02*
X8699500Y-4000500D01*
X8699500Y-6540500D02*
X8826500Y-6413500D01*
X8636000Y-6540500D02*
X8699500Y-6540500D01*
X4445000Y-3746500D02*
X4445000Y-4000500D01*
X4699000Y-3746500D02*
X4889500Y-3746500D01*
X4127500Y-4000500D02*
X3810000Y-4000500D01*
X4254500Y-3746500D02*
X4445000Y-3746500D01*
X6413500Y-3746500D02*
X6413500Y-4000500D01*
X6096000Y-4000500D02*
X5524500Y-4000500D01*
X6159500Y-3746500D02*
X6159500Y-4000500D01*
X5969000Y-3683000D02*
X5842000Y-3683000D01*
X6032500Y-3746500D02*
X5969000Y-3683000D01*
X6667500Y-3746500D02*
X6858000Y-3746500D01*
X6858000Y-3746500D02*
X6921500Y-3746500D01*
X6985000Y-3683000D02*
X6921500Y-3746500D01*
X7747000Y-3683000D02*
X6985000Y-3683000D01*
X7810500Y-3746500D02*
X7747000Y-3683000D01*
X7937500Y-3746500D02*
X7810500Y-3746500D01*
X7937500Y-3746500D02*
X7937500Y-4000500D01*
X8255000Y-3683000D02*
X8509000Y-3683000D01*
X8191500Y-3746500D02*
X8255000Y-3683000D01*
X4953000Y-3683000D02*
X5842000Y-3683000D01*
X4889500Y-3746500D02*
X4953000Y-3683000D01*
X4191000Y-3683000D02*
X4254500Y-3746500D01*
X3175000Y-3683000D02*
X4191000Y-3683000D01*
X3175000Y-3683000D02*
X3175000Y-3619500D01*
X5016500Y-2794000D02*
X5016500Y-2857500D01*
X5080000Y-2794000D02*
X5016500Y-2794000D01*
X4508500Y-3175000D02*
X4445000Y-3175000D01*
X4699000Y-2984500D02*
X4508500Y-3175000D01*
X5016500Y-2984500D02*
X4699000Y-2984500D01*
X5016500Y-2857500D02*
X5016500Y-2984500D01*
X5143500Y-2794000D02*
X5080000Y-2794000D01*
X6921500Y-2857500D02*
X6858000Y-2794000D01*
X7048500Y-3111500D02*
X7493000Y-3111500D01*
X7048500Y-2984500D02*
X7048500Y-3111500D01*
X6985000Y-2921000D02*
X7048500Y-2984500D01*
X6921500Y-2857500D02*
X6985000Y-2921000D01*
X2857500Y-6350000D02*
X2857500Y-6223000D01*
X2857500Y-5715000D02*
X2857500Y-5524500D01*
X3429000Y-8382000D02*
X3810000Y-8382000D01*
X3810000Y-8128000D02*
X3429000Y-8128000D01*
X3810000Y-8382000D02*
X3810000Y-8128000D01*
X4064000Y-8128000D02*
X4508500Y-8128000D01*
X4064000Y-8382000D02*
X4064000Y-8128000D01*
X3429000Y-8382000D02*
X3429000Y-8128000D01*
X3175000Y-8382000D02*
X3175000Y-8128000D01*
X6223000Y-9080500D02*
X6413500Y-9080500D01*
X6350000Y-8064500D02*
X5969000Y-8064500D01*
X6350000Y-8318500D02*
X6350000Y-8064500D01*
X6350000Y-8318500D02*
X6223000Y-8318500D01*
X6604000Y-8064500D02*
X7112000Y-8064500D01*
X6604000Y-8318500D02*
X6604000Y-8064500D01*
X5969000Y-8318500D02*
X6223000Y-8318500D01*
X5969000Y-8064500D02*
X5969000Y-8318500D01*
X5715000Y-8064500D02*
X4572000Y-8064500D01*
X5715000Y-8318500D02*
X5715000Y-8064500D01*
X8191500Y-6540500D02*
X8636000Y-6540500D01*
X6096000Y-6540500D02*
X7937500Y-6540500D01*
X3619500Y-6540500D02*
X5842000Y-6540500D01*
X3365500Y-6540500D02*
X2984500Y-6540500D01*
X7937500Y-6794500D02*
X7620000Y-6794500D01*
X7937500Y-6540500D02*
X7937500Y-6794500D01*
X8191500Y-6794500D02*
X8191500Y-6540500D01*
X8445500Y-6794500D02*
X8191500Y-6794500D01*
X6096000Y-6794500D02*
X7620000Y-6794500D01*
X6096000Y-6540500D02*
X6096000Y-6794500D01*
X5842000Y-6794500D02*
X5842000Y-6540500D01*
X3619500Y-6794500D02*
X5842000Y-6794500D01*
X3619500Y-6540500D02*
X3619500Y-6794500D01*
X3365500Y-6794500D02*
X3365500Y-6540500D01*
X3111500Y-6794500D02*
X3365500Y-6794500D01*
X5461000Y-8636000D02*
X5461000Y-8890000D01*
X2857500Y-4127500D02*
X2921000Y-4064000D01*
X2857500Y-4318000D02*
X2857500Y-4127500D01*
X3175000Y-3302000D02*
X3238500Y-3238500D01*
X3175000Y-3492500D02*
X3175000Y-3302000D01*
X7112000Y-8255000D02*
X7112000Y-8064500D01*
X7175500Y-8318500D02*
X7112000Y-8255000D01*
X7175500Y-8890000D02*
X7175500Y-8318500D01*
X7302500Y-8890000D02*
X7175500Y-8890000D01*
X7302500Y-8953500D02*
X7302500Y-8890000D01*
X7429500Y-9080500D02*
X7302500Y-8953500D01*
X7429500Y-9398000D02*
X7429500Y-9080500D01*
X7556500Y-9398000D02*
X7429500Y-9398000D01*
X7556500Y-9652000D02*
X7556500Y-9398000D01*
X8318500Y-9398000D02*
X8318500Y-9652000D01*
X8445500Y-9398000D02*
X8318500Y-9398000D01*
X8445500Y-9080500D02*
X8445500Y-9398000D01*
X8509000Y-9017000D02*
X8445500Y-9080500D01*
X8445500Y-7937500D02*
X8509000Y-8001000D01*
X3111500Y-7429500D02*
X3111500Y-6794500D01*
X3048000Y-7493000D02*
X3111500Y-7429500D01*
X3048000Y-7620000D02*
X3048000Y-7493000D01*
X4508500Y-8128000D02*
X4572000Y-8064500D01*
X3175000Y-8128000D02*
X3048000Y-8001000D01*
X2857500Y-5524500D02*
X2857500Y-5397500D01*
X5778500Y-9080500D02*
X5651500Y-9080500D01*
X5461000Y-8890000D02*
X5461000Y-9080500D01*
X2857500Y-4381500D02*
X2857500Y-4318000D01*
X2921000Y-4064000D02*
X2984500Y-4000500D01*
X3175000Y-3492500D02*
X3175000Y-3556000D01*
X3302000Y-3175000D02*
X3238500Y-3238500D01*
X3175000Y-3556000D02*
X3175000Y-3619500D01*
X6794500Y-4000500D02*
X6540500Y-4000500D01*
X3810000Y-4000500D02*
X3556000Y-4000500D01*
X6604000Y-9080500D02*
X6413500Y-9080500D01*
X5461000Y-9080500D02*
X5524500Y-9080500D01*
X5461000Y-8572500D02*
X5461000Y-8636000D01*
X2984500Y-4000500D02*
X3556000Y-4000500D01*
X3048000Y-8509000D02*
X3175000Y-8382000D01*
X6731000Y-8953500D02*
X6731000Y-8699500D01*
X6604000Y-9080500D02*
X6731000Y-8953500D01*
X8509000Y-3175000D02*
X8509000Y-3683000D01*
X8001000Y-3175000D02*
X8509000Y-3175000D01*
X7937500Y-3111500D02*
X8001000Y-3175000D01*
X7874000Y-3111500D02*
X7937500Y-3111500D01*
X7493000Y-3111500D02*
X7874000Y-3111500D01*
X3302000Y-3175000D02*
X4445000Y-3175000D01*
X2857500Y-6223000D02*
X2857500Y-6159500D01*
X2857500Y-6350000D02*
X2857500Y-6413500D01*
X2857500Y-6413500D02*
X2984500Y-6540500D01*
X5588000Y-8445500D02*
X5588000Y-8572500D01*
X5588000Y-8445500D02*
X5715000Y-8318500D01*
X5651500Y-9080500D02*
X5524500Y-9080500D01*
X5461000Y-8572500D02*
X5588000Y-8572500D01*
X6604000Y-8572500D02*
X6604000Y-8318500D01*
X6731000Y-8699500D02*
X6604000Y-8572500D01*
X4064000Y-8509000D02*
X4064000Y-8382000D01*
X4064000Y-9080500D02*
X4064000Y-8509000D01*
X3937000Y-9207500D02*
X4064000Y-9080500D01*
X3048000Y-9080500D02*
X3175000Y-9207500D01*
D12*
X3327400Y-7010400D02*
X3403600Y-7086600D01*
X3403600Y-7010400D02*
X3327400Y-7086600D01*
X3327400Y-7264400D02*
X3403600Y-7340600D01*
X3403600Y-7264400D02*
X3327400Y-7340600D01*
X3327400Y-15392400D02*
X3403600Y-15468600D01*
X3403600Y-15392400D02*
X3327400Y-15468600D01*
X3327400Y-15646400D02*
X3403600Y-15722600D01*
X3403600Y-15646400D02*
X3327400Y-15722600D01*
X3581400Y-7010400D02*
X3657600Y-7086600D01*
X3657600Y-7010400D02*
X3581400Y-7086600D01*
X3581400Y-7264400D02*
X3657600Y-7340600D01*
X3657600Y-7264400D02*
X3581400Y-7340600D01*
X3581400Y-15392400D02*
X3657600Y-15468600D01*
X3657600Y-15392400D02*
X3581400Y-15468600D01*
X3581400Y-15646400D02*
X3657600Y-15722600D01*
X3657600Y-15646400D02*
X3581400Y-15722600D01*
X3835400Y-7010400D02*
X3911600Y-7086600D01*
X3911600Y-7010400D02*
X3835400Y-7086600D01*
X3835400Y-7264400D02*
X3911600Y-7340600D01*
X3911600Y-7264400D02*
X3835400Y-7340600D01*
X3835400Y-15392400D02*
X3911600Y-15468600D01*
X3911600Y-15392400D02*
X3835400Y-15468600D01*
X3835400Y-15646400D02*
X3911600Y-15722600D01*
X3911600Y-15646400D02*
X3835400Y-15722600D01*
X4089400Y-7010400D02*
X4165600Y-7086600D01*
X4165600Y-7010400D02*
X4089400Y-7086600D01*
X4089400Y-7264400D02*
X4165600Y-7340600D01*
X4165600Y-7264400D02*
X4089400Y-7340600D01*
X4089400Y-15392400D02*
X4165600Y-15468600D01*
X4165600Y-15392400D02*
X4089400Y-15468600D01*
X4089400Y-15646400D02*
X4165600Y-15722600D01*
X4165600Y-15646400D02*
X4089400Y-15722600D01*
X4343400Y-7010400D02*
X4419600Y-7086600D01*
X4419600Y-7010400D02*
X4343400Y-7086600D01*
X4343400Y-7264400D02*
X4419600Y-7340600D01*
X4419600Y-7264400D02*
X4343400Y-7340600D01*
X4343400Y-15392400D02*
X4419600Y-15468600D01*
X4419600Y-15392400D02*
X4343400Y-15468600D01*
X4343400Y-15646400D02*
X4419600Y-15722600D01*
X4419600Y-15646400D02*
X4343400Y-15722600D01*
X4597400Y-7010400D02*
X4673600Y-7086600D01*
X4673600Y-7010400D02*
X4597400Y-7086600D01*
X4597400Y-15392400D02*
X4673600Y-15468600D01*
X4673600Y-15392400D02*
X4597400Y-15468600D01*
X4851400Y-7010400D02*
X4927600Y-7086600D01*
X4927600Y-7010400D02*
X4851400Y-7086600D01*
X4851400Y-15392400D02*
X4927600Y-15468600D01*
X4927600Y-15392400D02*
X4851400Y-15468600D01*
X5613400Y-7264400D02*
X5689600Y-7340600D01*
X5689600Y-7264400D02*
X5613400Y-7340600D01*
X5613400Y-15646400D02*
X5689600Y-15722600D01*
X5689600Y-15646400D02*
X5613400Y-15722600D01*
X5867400Y-7264400D02*
X5943600Y-7340600D01*
X5943600Y-7264400D02*
X5867400Y-7340600D01*
X5867400Y-15646400D02*
X5943600Y-15722600D01*
X5943600Y-15646400D02*
X5867400Y-15722600D01*
X6121400Y-7010400D02*
X6197600Y-7086600D01*
X6197600Y-7010400D02*
X6121400Y-7086600D01*
X6121400Y-7264400D02*
X6197600Y-7340600D01*
X6197600Y-7264400D02*
X6121400Y-7340600D01*
X6121400Y-15392400D02*
X6197600Y-15468600D01*
X6197600Y-15392400D02*
X6121400Y-15468600D01*
X6121400Y-15646400D02*
X6197600Y-15722600D01*
X6197600Y-15646400D02*
X6121400Y-15722600D01*
X6375400Y-7010400D02*
X6451600Y-7086600D01*
X6451600Y-7010400D02*
X6375400Y-7086600D01*
X6375400Y-15392400D02*
X6451600Y-15468600D01*
X6451600Y-15392400D02*
X6375400Y-15468600D01*
X6629400Y-7010400D02*
X6705600Y-7086600D01*
X6705600Y-7010400D02*
X6629400Y-7086600D01*
X6629400Y-7264400D02*
X6705600Y-7340600D01*
X6705600Y-7264400D02*
X6629400Y-7340600D01*
X6629400Y-15392400D02*
X6705600Y-15468600D01*
X6705600Y-15392400D02*
X6629400Y-15468600D01*
X6629400Y-15646400D02*
X6705600Y-15722600D01*
X6705600Y-15646400D02*
X6629400Y-15722600D01*
X6883400Y-7010400D02*
X6959600Y-7086600D01*
X6959600Y-7010400D02*
X6883400Y-7086600D01*
X6883400Y-7264400D02*
X6959600Y-7340600D01*
X6959600Y-7264400D02*
X6883400Y-7340600D01*
X6883400Y-15392400D02*
X6959600Y-15468600D01*
X6959600Y-15392400D02*
X6883400Y-15468600D01*
X6883400Y-15646400D02*
X6959600Y-15722600D01*
X6959600Y-15646400D02*
X6883400Y-15722600D01*
X7137400Y-7010400D02*
X7213600Y-7086600D01*
X7213600Y-7010400D02*
X7137400Y-7086600D01*
X7137400Y-7264400D02*
X7213600Y-7340600D01*
X7213600Y-7264400D02*
X7137400Y-7340600D01*
X7137400Y-15392400D02*
X7213600Y-15468600D01*
X7213600Y-15392400D02*
X7137400Y-15468600D01*
X7137400Y-15646400D02*
X7213600Y-15722600D01*
X7213600Y-15646400D02*
X7137400Y-15722600D01*
X7391400Y-7010400D02*
X7467600Y-7086600D01*
X7467600Y-7010400D02*
X7391400Y-7086600D01*
X7391400Y-7264400D02*
X7467600Y-7340600D01*
X7467600Y-7264400D02*
X7391400Y-7340600D01*
X7391400Y-15392400D02*
X7467600Y-15468600D01*
X7467600Y-15392400D02*
X7391400Y-15468600D01*
X7391400Y-15646400D02*
X7467600Y-15722600D01*
X7467600Y-15646400D02*
X7391400Y-15722600D01*
X7645400Y-7010400D02*
X7721600Y-7086600D01*
X7721600Y-7010400D02*
X7645400Y-7086600D01*
X7645400Y-7264400D02*
X7721600Y-7340600D01*
X7721600Y-7264400D02*
X7645400Y-7340600D01*
X7645400Y-15392400D02*
X7721600Y-15468600D01*
X7721600Y-15392400D02*
X7645400Y-15468600D01*
X7645400Y-15646400D02*
X7721600Y-15722600D01*
X7721600Y-15646400D02*
X7645400Y-15722600D01*
X7899400Y-7010400D02*
X7975600Y-7086600D01*
X7975600Y-7010400D02*
X7899400Y-7086600D01*
X7899400Y-7264400D02*
X7975600Y-7340600D01*
X7975600Y-7264400D02*
X7899400Y-7340600D01*
X7899400Y-15392400D02*
X7975600Y-15468600D01*
X7975600Y-15392400D02*
X7899400Y-15468600D01*
X7899400Y-15646400D02*
X7975600Y-15722600D01*
X7975600Y-15646400D02*
X7899400Y-15722600D01*
X8153400Y-7010400D02*
X8229600Y-7086600D01*
X8229600Y-7010400D02*
X8153400Y-7086600D01*
X8153400Y-7264400D02*
X8229600Y-7340600D01*
X8229600Y-7264400D02*
X8153400Y-7340600D01*
X8153400Y-15392400D02*
X8229600Y-15468600D01*
X8229600Y-15392400D02*
X8153400Y-15468600D01*
X8153400Y-15646400D02*
X8229600Y-15722600D01*
X8229600Y-15646400D02*
X8153400Y-15722600D01*
X10820400Y-7010400D02*
X10896600Y-7086600D01*
X10896600Y-7010400D02*
X10820400Y-7086600D01*
X10820400Y-7264400D02*
X10896600Y-7340600D01*
X10896600Y-7264400D02*
X10820400Y-7340600D01*
X10820400Y-15392400D02*
X10896600Y-15468600D01*
X10896600Y-15392400D02*
X10820400Y-15468600D01*
X10820400Y-15646400D02*
X10896600Y-15722600D01*
X10896600Y-15646400D02*
X10820400Y-15722600D01*
X11074400Y-7010400D02*
X11150600Y-7086600D01*
X11150600Y-7010400D02*
X11074400Y-7086600D01*
X11074400Y-7264400D02*
X11150600Y-7340600D01*
X11150600Y-7264400D02*
X11074400Y-7340600D01*
X11074400Y-15392400D02*
X11150600Y-15468600D01*
X11150600Y-15392400D02*
X11074400Y-15468600D01*
X11074400Y-15646400D02*
X11150600Y-15722600D01*
X11150600Y-15646400D02*
X11074400Y-15722600D01*
X11328400Y-7010400D02*
X11404600Y-7086600D01*
X11404600Y-7010400D02*
X11328400Y-7086600D01*
X11328400Y-7264400D02*
X11404600Y-7340600D01*
X11404600Y-7264400D02*
X11328400Y-7340600D01*
X11328400Y-15392400D02*
X11404600Y-15468600D01*
X11404600Y-15392400D02*
X11328400Y-15468600D01*
X11328400Y-15646400D02*
X11404600Y-15722600D01*
X11404600Y-15646400D02*
X11328400Y-15722600D01*
X11582400Y-7010400D02*
X11658600Y-7086600D01*
X11658600Y-7010400D02*
X11582400Y-7086600D01*
X11582400Y-7264400D02*
X11658600Y-7340600D01*
X11658600Y-7264400D02*
X11582400Y-7340600D01*
X11582400Y-15392400D02*
X11658600Y-15468600D01*
X11658600Y-15392400D02*
X11582400Y-15468600D01*
X11582400Y-15646400D02*
X11658600Y-15722600D01*
X11658600Y-15646400D02*
X11582400Y-15722600D01*
X11836400Y-7010400D02*
X11912600Y-7086600D01*
X11912600Y-7010400D02*
X11836400Y-7086600D01*
X11836400Y-7264400D02*
X11912600Y-7340600D01*
X11912600Y-7264400D02*
X11836400Y-7340600D01*
X11836400Y-15392400D02*
X11912600Y-15468600D01*
X11912600Y-15392400D02*
X11836400Y-15468600D01*
X11836400Y-15646400D02*
X11912600Y-15722600D01*
X11912600Y-15646400D02*
X11836400Y-15722600D01*
X12090400Y-7010400D02*
X12166600Y-7086600D01*
X12166600Y-7010400D02*
X12090400Y-7086600D01*
X12090400Y-15392400D02*
X12166600Y-15468600D01*
X12166600Y-15392400D02*
X12090400Y-15468600D01*
X12344400Y-7010400D02*
X12420600Y-7086600D01*
X12420600Y-7010400D02*
X12344400Y-7086600D01*
X12344400Y-15392400D02*
X12420600Y-15468600D01*
X12420600Y-15392400D02*
X12344400Y-15468600D01*
X13106400Y-7264400D02*
X13182600Y-7340600D01*
X13182600Y-7264400D02*
X13106400Y-7340600D01*
X13106400Y-15646400D02*
X13182600Y-15722600D01*
X13182600Y-15646400D02*
X13106400Y-15722600D01*
X13360400Y-7264400D02*
X13436600Y-7340600D01*
X13436600Y-7264400D02*
X13360400Y-7340600D01*
X13360400Y-15646400D02*
X13436600Y-15722600D01*
X13436600Y-15646400D02*
X13360400Y-15722600D01*
X13614400Y-7010400D02*
X13690600Y-7086600D01*
X13690600Y-7010400D02*
X13614400Y-7086600D01*
X13614400Y-7264400D02*
X13690600Y-7340600D01*
X13690600Y-7264400D02*
X13614400Y-7340600D01*
X13614400Y-15392400D02*
X13690600Y-15468600D01*
X13690600Y-15392400D02*
X13614400Y-15468600D01*
X13614400Y-15646400D02*
X13690600Y-15722600D01*
X13690600Y-15646400D02*
X13614400Y-15722600D01*
X13868400Y-7010400D02*
X13944600Y-7086600D01*
X13944600Y-7010400D02*
X13868400Y-7086600D01*
X13868400Y-15392400D02*
X13944600Y-15468600D01*
X13944600Y-15392400D02*
X13868400Y-15468600D01*
X14122400Y-7010400D02*
X14198600Y-7086600D01*
X14198600Y-7010400D02*
X14122400Y-7086600D01*
X14122400Y-7264400D02*
X14198600Y-7340600D01*
X14198600Y-7264400D02*
X14122400Y-7340600D01*
X14122400Y-15392400D02*
X14198600Y-15468600D01*
X14198600Y-15392400D02*
X14122400Y-15468600D01*
X14122400Y-15646400D02*
X14198600Y-15722600D01*
X14198600Y-15646400D02*
X14122400Y-15722600D01*
X14376400Y-7010400D02*
X14452600Y-7086600D01*
X14452600Y-7010400D02*
X14376400Y-7086600D01*
X14376400Y-7264400D02*
X14452600Y-7340600D01*
X14452600Y-7264400D02*
X14376400Y-7340600D01*
X14376400Y-15392400D02*
X14452600Y-15468600D01*
X14452600Y-15392400D02*
X14376400Y-15468600D01*
X14376400Y-15646400D02*
X14452600Y-15722600D01*
X14452600Y-15646400D02*
X14376400Y-15722600D01*
X14630400Y-7010400D02*
X14706600Y-7086600D01*
X14706600Y-7010400D02*
X14630400Y-7086600D01*
X14630400Y-7264400D02*
X14706600Y-7340600D01*
X14706600Y-7264400D02*
X14630400Y-7340600D01*
X14630400Y-15392400D02*
X14706600Y-15468600D01*
X14706600Y-15392400D02*
X14630400Y-15468600D01*
X14630400Y-15646400D02*
X14706600Y-15722600D01*
X14706600Y-15646400D02*
X14630400Y-15722600D01*
X14884400Y-7010400D02*
X14960600Y-7086600D01*
X14960600Y-7010400D02*
X14884400Y-7086600D01*
X14884400Y-7264400D02*
X14960600Y-7340600D01*
X14960600Y-7264400D02*
X14884400Y-7340600D01*
X14884400Y-15392400D02*
X14960600Y-15468600D01*
X14960600Y-15392400D02*
X14884400Y-15468600D01*
X14884400Y-15646400D02*
X14960600Y-15722600D01*
X14960600Y-15646400D02*
X14884400Y-15722600D01*
X15138400Y-7010400D02*
X15214600Y-7086600D01*
X15214600Y-7010400D02*
X15138400Y-7086600D01*
X15138400Y-7264400D02*
X15214600Y-7340600D01*
X15214600Y-7264400D02*
X15138400Y-7340600D01*
X15138400Y-15392400D02*
X15214600Y-15468600D01*
X15214600Y-15392400D02*
X15138400Y-15468600D01*
X15138400Y-15646400D02*
X15214600Y-15722600D01*
X15214600Y-15646400D02*
X15138400Y-15722600D01*
X15392400Y-7010400D02*
X15468600Y-7086600D01*
X15468600Y-7010400D02*
X15392400Y-7086600D01*
X15392400Y-7264400D02*
X15468600Y-7340600D01*
X15468600Y-7264400D02*
X15392400Y-7340600D01*
X15392400Y-15392400D02*
X15468600Y-15468600D01*
X15468600Y-15392400D02*
X15392400Y-15468600D01*
X15392400Y-15646400D02*
X15468600Y-15722600D01*
X15468600Y-15646400D02*
X15392400Y-15722600D01*
X15646400Y-7010400D02*
X15722600Y-7086600D01*
X15722600Y-7010400D02*
X15646400Y-7086600D01*
X15646400Y-7264400D02*
X15722600Y-7340600D01*
X15722600Y-7264400D02*
X15646400Y-7340600D01*
X15646400Y-15392400D02*
X15722600Y-15468600D01*
X15722600Y-15392400D02*
X15646400Y-15468600D01*
X15646400Y-15646400D02*
X15722600Y-15722600D01*
X15722600Y-15646400D02*
X15646400Y-15722600D01*
X18313400Y-7010400D02*
X18389600Y-7086600D01*
X18389600Y-7010400D02*
X18313400Y-7086600D01*
X18313400Y-7264400D02*
X18389600Y-7340600D01*
X18389600Y-7264400D02*
X18313400Y-7340600D01*
X18313400Y-15392400D02*
X18389600Y-15468600D01*
X18389600Y-15392400D02*
X18313400Y-15468600D01*
X18313400Y-15646400D02*
X18389600Y-15722600D01*
X18389600Y-15646400D02*
X18313400Y-15722600D01*
X18567400Y-7010400D02*
X18643600Y-7086600D01*
X18643600Y-7010400D02*
X18567400Y-7086600D01*
X18567400Y-7264400D02*
X18643600Y-7340600D01*
X18643600Y-7264400D02*
X18567400Y-7340600D01*
X18567400Y-15392400D02*
X18643600Y-15468600D01*
X18643600Y-15392400D02*
X18567400Y-15468600D01*
X18567400Y-15646400D02*
X18643600Y-15722600D01*
X18643600Y-15646400D02*
X18567400Y-15722600D01*
X18821400Y-7010400D02*
X18897600Y-7086600D01*
X18897600Y-7010400D02*
X18821400Y-7086600D01*
X18821400Y-7264400D02*
X18897600Y-7340600D01*
X18897600Y-7264400D02*
X18821400Y-7340600D01*
X18821400Y-15392400D02*
X18897600Y-15468600D01*
X18897600Y-15392400D02*
X18821400Y-15468600D01*
X18821400Y-15646400D02*
X18897600Y-15722600D01*
X18897600Y-15646400D02*
X18821400Y-15722600D01*
X19075400Y-7010400D02*
X19151600Y-7086600D01*
X19151600Y-7010400D02*
X19075400Y-7086600D01*
X19075400Y-7264400D02*
X19151600Y-7340600D01*
X19151600Y-7264400D02*
X19075400Y-7340600D01*
X19075400Y-15392400D02*
X19151600Y-15468600D01*
X19151600Y-15392400D02*
X19075400Y-15468600D01*
X19075400Y-15646400D02*
X19151600Y-15722600D01*
X19151600Y-15646400D02*
X19075400Y-15722600D01*
X19329400Y-7010400D02*
X19405600Y-7086600D01*
X19405600Y-7010400D02*
X19329400Y-7086600D01*
X19329400Y-7264400D02*
X19405600Y-7340600D01*
X19405600Y-7264400D02*
X19329400Y-7340600D01*
X19329400Y-15392400D02*
X19405600Y-15468600D01*
X19405600Y-15392400D02*
X19329400Y-15468600D01*
X19329400Y-15646400D02*
X19405600Y-15722600D01*
X19405600Y-15646400D02*
X19329400Y-15722600D01*
X19583400Y-7010400D02*
X19659600Y-7086600D01*
X19659600Y-7010400D02*
X19583400Y-7086600D01*
X19583400Y-15392400D02*
X19659600Y-15468600D01*
X19659600Y-15392400D02*
X19583400Y-15468600D01*
X19837400Y-7010400D02*
X19913600Y-7086600D01*
X19913600Y-7010400D02*
X19837400Y-7086600D01*
X19837400Y-15392400D02*
X19913600Y-15468600D01*
X19913600Y-15392400D02*
X19837400Y-15468600D01*
X20599400Y-7264400D02*
X20675600Y-7340600D01*
X20675600Y-7264400D02*
X20599400Y-7340600D01*
X20599400Y-15646400D02*
X20675600Y-15722600D01*
X20675600Y-15646400D02*
X20599400Y-15722600D01*
X20853400Y-7264400D02*
X20929600Y-7340600D01*
X20929600Y-7264400D02*
X20853400Y-7340600D01*
X20853400Y-15646400D02*
X20929600Y-15722600D01*
X20929600Y-15646400D02*
X20853400Y-15722600D01*
X21107400Y-7010400D02*
X21183600Y-7086600D01*
X21183600Y-7010400D02*
X21107400Y-7086600D01*
X21107400Y-7264400D02*
X21183600Y-7340600D01*
X21183600Y-7264400D02*
X21107400Y-7340600D01*
X21107400Y-15392400D02*
X21183600Y-15468600D01*
X21183600Y-15392400D02*
X21107400Y-15468600D01*
X21107400Y-15646400D02*
X21183600Y-15722600D01*
X21183600Y-15646400D02*
X21107400Y-15722600D01*
X21361400Y-7010400D02*
X21437600Y-7086600D01*
X21437600Y-7010400D02*
X21361400Y-7086600D01*
X21361400Y-15392400D02*
X21437600Y-15468600D01*
X21437600Y-15392400D02*
X21361400Y-15468600D01*
X21615400Y-7010400D02*
X21691600Y-7086600D01*
X21691600Y-7010400D02*
X21615400Y-7086600D01*
X21615400Y-7264400D02*
X21691600Y-7340600D01*
X21691600Y-7264400D02*
X21615400Y-7340600D01*
X21615400Y-15392400D02*
X21691600Y-15468600D01*
X21691600Y-15392400D02*
X21615400Y-15468600D01*
X21615400Y-15646400D02*
X21691600Y-15722600D01*
X21691600Y-15646400D02*
X21615400Y-15722600D01*
X21869400Y-7010400D02*
X21945600Y-7086600D01*
X21945600Y-7010400D02*
X21869400Y-7086600D01*
X21869400Y-7264400D02*
X21945600Y-7340600D01*
X21945600Y-7264400D02*
X21869400Y-7340600D01*
X21869400Y-15392400D02*
X21945600Y-15468600D01*
X21945600Y-15392400D02*
X21869400Y-15468600D01*
X21869400Y-15646400D02*
X21945600Y-15722600D01*
X21945600Y-15646400D02*
X21869400Y-15722600D01*
X22123400Y-7010400D02*
X22199600Y-7086600D01*
X22199600Y-7010400D02*
X22123400Y-7086600D01*
X22123400Y-7264400D02*
X22199600Y-7340600D01*
X22199600Y-7264400D02*
X22123400Y-7340600D01*
X22123400Y-15392400D02*
X22199600Y-15468600D01*
X22199600Y-15392400D02*
X22123400Y-15468600D01*
X22123400Y-15646400D02*
X22199600Y-15722600D01*
X22199600Y-15646400D02*
X22123400Y-15722600D01*
X22377400Y-7010400D02*
X22453600Y-7086600D01*
X22453600Y-7010400D02*
X22377400Y-7086600D01*
X22377400Y-7264400D02*
X22453600Y-7340600D01*
X22453600Y-7264400D02*
X22377400Y-7340600D01*
X22377400Y-15392400D02*
X22453600Y-15468600D01*
X22453600Y-15392400D02*
X22377400Y-15468600D01*
X22377400Y-15646400D02*
X22453600Y-15722600D01*
X22453600Y-15646400D02*
X22377400Y-15722600D01*
X22631400Y-7010400D02*
X22707600Y-7086600D01*
X22707600Y-7010400D02*
X22631400Y-7086600D01*
X22631400Y-7264400D02*
X22707600Y-7340600D01*
X22707600Y-7264400D02*
X22631400Y-7340600D01*
X22631400Y-15392400D02*
X22707600Y-15468600D01*
X22707600Y-15392400D02*
X22631400Y-15468600D01*
X22631400Y-15646400D02*
X22707600Y-15722600D01*
X22707600Y-15646400D02*
X22631400Y-15722600D01*
X22885400Y-7010400D02*
X22961600Y-7086600D01*
X22961600Y-7010400D02*
X22885400Y-7086600D01*
X22885400Y-7264400D02*
X22961600Y-7340600D01*
X22961600Y-7264400D02*
X22885400Y-7340600D01*
X22885400Y-15392400D02*
X22961600Y-15468600D01*
X22961600Y-15392400D02*
X22885400Y-15468600D01*
X22885400Y-15646400D02*
X22961600Y-15722600D01*
X22961600Y-15646400D02*
X22885400Y-15722600D01*
X23139400Y-7010400D02*
X23215600Y-7086600D01*
X23215600Y-7010400D02*
X23139400Y-7086600D01*
X23139400Y-7264400D02*
X23215600Y-7340600D01*
X23215600Y-7264400D02*
X23139400Y-7340600D01*
X23139400Y-15392400D02*
X23215600Y-15468600D01*
X23215600Y-15392400D02*
X23139400Y-15468600D01*
X23139400Y-15646400D02*
X23215600Y-15722600D01*
X23215600Y-15646400D02*
X23139400Y-15722600D01*
X3220000Y-4318000D02*
G75*
G03X3220000Y-4318000I-45000J0D01*
G01*
X3220000Y-4699000D02*
G75*
G03X3220000Y-4699000I-45000J0D01*
G01*
X3220000Y-5715000D02*
G75*
G03X3220000Y-5715000I-45000J0D01*
G01*
X3220000Y-6223000D02*
G75*
G03X3220000Y-6223000I-45000J0D01*
G01*
X3220000Y-12700000D02*
G75*
G03X3220000Y-12700000I-45000J0D01*
G01*
X3220000Y-13081000D02*
G75*
G03X3220000Y-13081000I-45000J0D01*
G01*
X3220000Y-14097000D02*
G75*
G03X3220000Y-14097000I-45000J0D01*
G01*
X3220000Y-14605000D02*
G75*
G03X3220000Y-14605000I-45000J0D01*
G01*
X3348276Y-8958761D02*
G75*
G03X3348276Y-8958761I-45000J0D01*
G01*
X3348276Y-17340761D02*
G75*
G03X3348276Y-17340761I-45000J0D01*
G01*
X3348276Y-8641261D02*
G75*
G03X3348276Y-8641261I-45000J0D01*
G01*
X3348276Y-17023261D02*
G75*
G03X3348276Y-17023261I-45000J0D01*
G01*
X3410500Y-7810500D02*
G75*
G03X3410500Y-7810500I-45000J0D01*
G01*
X3410500Y-16192500D02*
G75*
G03X3410500Y-16192500I-45000J0D01*
G01*
X3474000Y-3429000D02*
G75*
G03X3474000Y-3429000I-45000J0D01*
G01*
X3474000Y-4318000D02*
G75*
G03X3474000Y-4318000I-45000J0D01*
G01*
X3474000Y-4699000D02*
G75*
G03X3474000Y-4699000I-45000J0D01*
G01*
X3474000Y-5715000D02*
G75*
G03X3474000Y-5715000I-45000J0D01*
G01*
X3474000Y-6223000D02*
G75*
G03X3474000Y-6223000I-45000J0D01*
G01*
X3474000Y-11811000D02*
G75*
G03X3474000Y-11811000I-45000J0D01*
G01*
X3474000Y-12700000D02*
G75*
G03X3474000Y-12700000I-45000J0D01*
G01*
X3474000Y-13081000D02*
G75*
G03X3474000Y-13081000I-45000J0D01*
G01*
X3474000Y-14097000D02*
G75*
G03X3474000Y-14097000I-45000J0D01*
G01*
X3474000Y-14605000D02*
G75*
G03X3474000Y-14605000I-45000J0D01*
G01*
X3602276Y-8958761D02*
G75*
G03X3602276Y-8958761I-45000J0D01*
G01*
X3602276Y-17340761D02*
G75*
G03X3602276Y-17340761I-45000J0D01*
G01*
X3602276Y-8641261D02*
G75*
G03X3602276Y-8641261I-45000J0D01*
G01*
X3602276Y-17023261D02*
G75*
G03X3602276Y-17023261I-45000J0D01*
G01*
X3664500Y-7810500D02*
G75*
G03X3664500Y-7810500I-45000J0D01*
G01*
X3664500Y-16192500D02*
G75*
G03X3664500Y-16192500I-45000J0D01*
G01*
X3728000Y-3429000D02*
G75*
G03X3728000Y-3429000I-45000J0D01*
G01*
X3728000Y-4318000D02*
G75*
G03X3728000Y-4318000I-45000J0D01*
G01*
X3728000Y-4699000D02*
G75*
G03X3728000Y-4699000I-45000J0D01*
G01*
X3728000Y-5715000D02*
G75*
G03X3728000Y-5715000I-45000J0D01*
G01*
X3728000Y-6223000D02*
G75*
G03X3728000Y-6223000I-45000J0D01*
G01*
X3728000Y-11811000D02*
G75*
G03X3728000Y-11811000I-45000J0D01*
G01*
X3728000Y-12700000D02*
G75*
G03X3728000Y-12700000I-45000J0D01*
G01*
X3728000Y-13081000D02*
G75*
G03X3728000Y-13081000I-45000J0D01*
G01*
X3728000Y-14097000D02*
G75*
G03X3728000Y-14097000I-45000J0D01*
G01*
X3728000Y-14605000D02*
G75*
G03X3728000Y-14605000I-45000J0D01*
G01*
X3856276Y-8958761D02*
G75*
G03X3856276Y-8958761I-45000J0D01*
G01*
X3856276Y-17340761D02*
G75*
G03X3856276Y-17340761I-45000J0D01*
G01*
X3856276Y-8641261D02*
G75*
G03X3856276Y-8641261I-45000J0D01*
G01*
X3856276Y-17023261D02*
G75*
G03X3856276Y-17023261I-45000J0D01*
G01*
X3918500Y-7810500D02*
G75*
G03X3918500Y-7810500I-45000J0D01*
G01*
X3918500Y-16192500D02*
G75*
G03X3918500Y-16192500I-45000J0D01*
G01*
X3982000Y-3429000D02*
G75*
G03X3982000Y-3429000I-45000J0D01*
G01*
X3982000Y-4318000D02*
G75*
G03X3982000Y-4318000I-45000J0D01*
G01*
X3982000Y-6223000D02*
G75*
G03X3982000Y-6223000I-45000J0D01*
G01*
X3982000Y-11811000D02*
G75*
G03X3982000Y-11811000I-45000J0D01*
G01*
X3982000Y-12700000D02*
G75*
G03X3982000Y-12700000I-45000J0D01*
G01*
X3982000Y-14605000D02*
G75*
G03X3982000Y-14605000I-45000J0D01*
G01*
X4172500Y-7810500D02*
G75*
G03X4172500Y-7810500I-45000J0D01*
G01*
X4172500Y-16192500D02*
G75*
G03X4172500Y-16192500I-45000J0D01*
G01*
X4236000Y-3429000D02*
G75*
G03X4236000Y-3429000I-45000J0D01*
G01*
X4236000Y-6223000D02*
G75*
G03X4236000Y-6223000I-45000J0D01*
G01*
X4236000Y-11811000D02*
G75*
G03X4236000Y-11811000I-45000J0D01*
G01*
X4236000Y-14605000D02*
G75*
G03X4236000Y-14605000I-45000J0D01*
G01*
X4426500Y-7810500D02*
G75*
G03X4426500Y-7810500I-45000J0D01*
G01*
X4426500Y-16192500D02*
G75*
G03X4426500Y-16192500I-45000J0D01*
G01*
X4490000Y-3429000D02*
G75*
G03X4490000Y-3429000I-45000J0D01*
G01*
X4490000Y-6223000D02*
G75*
G03X4490000Y-6223000I-45000J0D01*
G01*
X4490000Y-11811000D02*
G75*
G03X4490000Y-11811000I-45000J0D01*
G01*
X4490000Y-14605000D02*
G75*
G03X4490000Y-14605000I-45000J0D01*
G01*
X4617000Y-5270500D02*
G75*
G03X4617000Y-5270500I-45000J0D01*
G01*
X4617000Y-13652500D02*
G75*
G03X4617000Y-13652500I-45000J0D01*
G01*
X4680500Y-7810500D02*
G75*
G03X4680500Y-7810500I-45000J0D01*
G01*
X4680500Y-16192500D02*
G75*
G03X4680500Y-16192500I-45000J0D01*
G01*
X4744000Y-3429000D02*
G75*
G03X4744000Y-3429000I-45000J0D01*
G01*
X4744000Y-6223000D02*
G75*
G03X4744000Y-6223000I-45000J0D01*
G01*
X4744000Y-11811000D02*
G75*
G03X4744000Y-11811000I-45000J0D01*
G01*
X4744000Y-14605000D02*
G75*
G03X4744000Y-14605000I-45000J0D01*
G01*
X4934500Y-7810500D02*
G75*
G03X4934500Y-7810500I-45000J0D01*
G01*
X4934500Y-16192500D02*
G75*
G03X4934500Y-16192500I-45000J0D01*
G01*
X4998000Y-3429000D02*
G75*
G03X4998000Y-3429000I-45000J0D01*
G01*
X4998000Y-6223000D02*
G75*
G03X4998000Y-6223000I-45000J0D01*
G01*
X4998000Y-11811000D02*
G75*
G03X4998000Y-11811000I-45000J0D01*
G01*
X4998000Y-14605000D02*
G75*
G03X4998000Y-14605000I-45000J0D01*
G01*
X5252000Y-3429000D02*
G75*
G03X5252000Y-3429000I-45000J0D01*
G01*
X5252000Y-11811000D02*
G75*
G03X5252000Y-11811000I-45000J0D01*
G01*
X5315500Y-3048000D02*
G75*
G03X5315500Y-3048000I-45000J0D01*
G01*
X5315500Y-4318000D02*
G75*
G03X5315500Y-4318000I-45000J0D01*
G01*
X5315500Y-6223000D02*
G75*
G03X5315500Y-6223000I-45000J0D01*
G01*
X5315500Y-11430000D02*
G75*
G03X5315500Y-11430000I-45000J0D01*
G01*
X5315500Y-12700000D02*
G75*
G03X5315500Y-12700000I-45000J0D01*
G01*
X5315500Y-14605000D02*
G75*
G03X5315500Y-14605000I-45000J0D01*
G01*
X5379000Y-5270500D02*
G75*
G03X5379000Y-5270500I-45000J0D01*
G01*
X5379000Y-13652500D02*
G75*
G03X5379000Y-13652500I-45000J0D01*
G01*
X5442500Y-7810500D02*
G75*
G03X5442500Y-7810500I-45000J0D01*
G01*
X5442500Y-16192500D02*
G75*
G03X5442500Y-16192500I-45000J0D01*
G01*
X5506000Y-3429000D02*
G75*
G03X5506000Y-3429000I-45000J0D01*
G01*
X5506000Y-11811000D02*
G75*
G03X5506000Y-11811000I-45000J0D01*
G01*
X5569500Y-3048000D02*
G75*
G03X5569500Y-3048000I-45000J0D01*
G01*
X5569500Y-4318000D02*
G75*
G03X5569500Y-4318000I-45000J0D01*
G01*
X5569500Y-6223000D02*
G75*
G03X5569500Y-6223000I-45000J0D01*
G01*
X5569500Y-11430000D02*
G75*
G03X5569500Y-11430000I-45000J0D01*
G01*
X5569500Y-12700000D02*
G75*
G03X5569500Y-12700000I-45000J0D01*
G01*
X5569500Y-14605000D02*
G75*
G03X5569500Y-14605000I-45000J0D01*
G01*
X5696500Y-7810500D02*
G75*
G03X5696500Y-7810500I-45000J0D01*
G01*
X5696500Y-16192500D02*
G75*
G03X5696500Y-16192500I-45000J0D01*
G01*
X5757566Y-8833543D02*
G75*
G03X5757566Y-8833543I-45000J0D01*
G01*
X5757566Y-17215543D02*
G75*
G03X5757566Y-17215543I-45000J0D01*
G01*
X5760000Y-3429000D02*
G75*
G03X5760000Y-3429000I-45000J0D01*
G01*
X5760000Y-5778500D02*
G75*
G03X5760000Y-5778500I-45000J0D01*
G01*
X5760000Y-11811000D02*
G75*
G03X5760000Y-11811000I-45000J0D01*
G01*
X5760000Y-14160500D02*
G75*
G03X5760000Y-14160500I-45000J0D01*
G01*
X5823500Y-3048000D02*
G75*
G03X5823500Y-3048000I-45000J0D01*
G01*
X5823500Y-4318000D02*
G75*
G03X5823500Y-4318000I-45000J0D01*
G01*
X5823500Y-6223000D02*
G75*
G03X5823500Y-6223000I-45000J0D01*
G01*
X5823500Y-11430000D02*
G75*
G03X5823500Y-11430000I-45000J0D01*
G01*
X5823500Y-12700000D02*
G75*
G03X5823500Y-12700000I-45000J0D01*
G01*
X5823500Y-14605000D02*
G75*
G03X5823500Y-14605000I-45000J0D01*
G01*
X5871000Y-8572500D02*
G75*
G03X5871000Y-8572500I-45000J0D01*
G01*
X5871000Y-16954500D02*
G75*
G03X5871000Y-16954500I-45000J0D01*
G01*
X5950500Y-5270500D02*
G75*
G03X5950500Y-5270500I-45000J0D01*
G01*
X5950500Y-7810500D02*
G75*
G03X5950500Y-7810500I-45000J0D01*
G01*
X5950500Y-13652500D02*
G75*
G03X5950500Y-13652500I-45000J0D01*
G01*
X5950500Y-16192500D02*
G75*
G03X5950500Y-16192500I-45000J0D01*
G01*
X6011566Y-8833543D02*
G75*
G03X6011566Y-8833543I-45000J0D01*
G01*
X6011566Y-17215543D02*
G75*
G03X6011566Y-17215543I-45000J0D01*
G01*
X6014000Y-3429000D02*
G75*
G03X6014000Y-3429000I-45000J0D01*
G01*
X6014000Y-11811000D02*
G75*
G03X6014000Y-11811000I-45000J0D01*
G01*
X6051000Y-8572500D02*
G75*
G03X6051000Y-8572500I-45000J0D01*
G01*
X6051000Y-16954500D02*
G75*
G03X6051000Y-16954500I-45000J0D01*
G01*
X6077500Y-3048000D02*
G75*
G03X6077500Y-3048000I-45000J0D01*
G01*
X6077500Y-4318000D02*
G75*
G03X6077500Y-4318000I-45000J0D01*
G01*
X6077500Y-6223000D02*
G75*
G03X6077500Y-6223000I-45000J0D01*
G01*
X6077500Y-11430000D02*
G75*
G03X6077500Y-11430000I-45000J0D01*
G01*
X6077500Y-12700000D02*
G75*
G03X6077500Y-12700000I-45000J0D01*
G01*
X6077500Y-14605000D02*
G75*
G03X6077500Y-14605000I-45000J0D01*
G01*
X6196158Y-4690658D02*
G75*
G03X6196158Y-4690658I-45000J0D01*
G01*
X6196158Y-13072658D02*
G75*
G03X6196158Y-13072658I-45000J0D01*
G01*
X6204500Y-5270500D02*
G75*
G03X6204500Y-5270500I-45000J0D01*
G01*
X6204500Y-7810500D02*
G75*
G03X6204500Y-7810500I-45000J0D01*
G01*
X6204500Y-13652500D02*
G75*
G03X6204500Y-13652500I-45000J0D01*
G01*
X6204500Y-16192500D02*
G75*
G03X6204500Y-16192500I-45000J0D01*
G01*
X6231000Y-8572500D02*
G75*
G03X6231000Y-8572500I-45000J0D01*
G01*
X6231000Y-16954500D02*
G75*
G03X6231000Y-16954500I-45000J0D01*
G01*
X6265566Y-8833543D02*
G75*
G03X6265566Y-8833543I-45000J0D01*
G01*
X6265566Y-17215543D02*
G75*
G03X6265566Y-17215543I-45000J0D01*
G01*
X6268000Y-3429000D02*
G75*
G03X6268000Y-3429000I-45000J0D01*
G01*
X6268000Y-11811000D02*
G75*
G03X6268000Y-11811000I-45000J0D01*
G01*
X6331500Y-3048000D02*
G75*
G03X6331500Y-3048000I-45000J0D01*
G01*
X6331500Y-4318000D02*
G75*
G03X6331500Y-4318000I-45000J0D01*
G01*
X6331500Y-6223000D02*
G75*
G03X6331500Y-6223000I-45000J0D01*
G01*
X6331500Y-11430000D02*
G75*
G03X6331500Y-11430000I-45000J0D01*
G01*
X6331500Y-12700000D02*
G75*
G03X6331500Y-12700000I-45000J0D01*
G01*
X6331500Y-14605000D02*
G75*
G03X6331500Y-14605000I-45000J0D01*
G01*
X6339842Y-4834342D02*
G75*
G03X6339842Y-4834342I-45000J0D01*
G01*
X6339842Y-13216342D02*
G75*
G03X6339842Y-13216342I-45000J0D01*
G01*
X6411000Y-8572500D02*
G75*
G03X6411000Y-8572500I-45000J0D01*
G01*
X6411000Y-16954500D02*
G75*
G03X6411000Y-16954500I-45000J0D01*
G01*
X6458500Y-5270500D02*
G75*
G03X6458500Y-5270500I-45000J0D01*
G01*
X6458500Y-7810500D02*
G75*
G03X6458500Y-7810500I-45000J0D01*
G01*
X6458500Y-13652500D02*
G75*
G03X6458500Y-13652500I-45000J0D01*
G01*
X6458500Y-16192500D02*
G75*
G03X6458500Y-16192500I-45000J0D01*
G01*
X6519566Y-8833543D02*
G75*
G03X6519566Y-8833543I-45000J0D01*
G01*
X6519566Y-17215543D02*
G75*
G03X6519566Y-17215543I-45000J0D01*
G01*
X6522000Y-3429000D02*
G75*
G03X6522000Y-3429000I-45000J0D01*
G01*
X6522000Y-11811000D02*
G75*
G03X6522000Y-11811000I-45000J0D01*
G01*
X6585500Y-3048000D02*
G75*
G03X6585500Y-3048000I-45000J0D01*
G01*
X6585500Y-4318000D02*
G75*
G03X6585500Y-4318000I-45000J0D01*
G01*
X6585500Y-6223000D02*
G75*
G03X6585500Y-6223000I-45000J0D01*
G01*
X6585500Y-11430000D02*
G75*
G03X6585500Y-11430000I-45000J0D01*
G01*
X6585500Y-12700000D02*
G75*
G03X6585500Y-12700000I-45000J0D01*
G01*
X6585500Y-14605000D02*
G75*
G03X6585500Y-14605000I-45000J0D01*
G01*
X6712500Y-7810500D02*
G75*
G03X6712500Y-7810500I-45000J0D01*
G01*
X6712500Y-16192500D02*
G75*
G03X6712500Y-16192500I-45000J0D01*
G01*
X6776000Y-3429000D02*
G75*
G03X6776000Y-3429000I-45000J0D01*
G01*
X6776000Y-4953000D02*
G75*
G03X6776000Y-4953000I-45000J0D01*
G01*
X6776000Y-5461000D02*
G75*
G03X6776000Y-5461000I-45000J0D01*
G01*
X6776000Y-5778500D02*
G75*
G03X6776000Y-5778500I-45000J0D01*
G01*
X6776000Y-11811000D02*
G75*
G03X6776000Y-11811000I-45000J0D01*
G01*
X6776000Y-13335000D02*
G75*
G03X6776000Y-13335000I-45000J0D01*
G01*
X6776000Y-13843000D02*
G75*
G03X6776000Y-13843000I-45000J0D01*
G01*
X6776000Y-14160500D02*
G75*
G03X6776000Y-14160500I-45000J0D01*
G01*
X6839500Y-3048000D02*
G75*
G03X6839500Y-3048000I-45000J0D01*
G01*
X6839500Y-4318000D02*
G75*
G03X6839500Y-4318000I-45000J0D01*
G01*
X6839500Y-6223000D02*
G75*
G03X6839500Y-6223000I-45000J0D01*
G01*
X6839500Y-11430000D02*
G75*
G03X6839500Y-11430000I-45000J0D01*
G01*
X6839500Y-12700000D02*
G75*
G03X6839500Y-12700000I-45000J0D01*
G01*
X6839500Y-14605000D02*
G75*
G03X6839500Y-14605000I-45000J0D01*
G01*
X6966500Y-7810500D02*
G75*
G03X6966500Y-7810500I-45000J0D01*
G01*
X6966500Y-16192500D02*
G75*
G03X6966500Y-16192500I-45000J0D01*
G01*
X7030000Y-3429000D02*
G75*
G03X7030000Y-3429000I-45000J0D01*
G01*
X7030000Y-4953000D02*
G75*
G03X7030000Y-4953000I-45000J0D01*
G01*
X7030000Y-5461000D02*
G75*
G03X7030000Y-5461000I-45000J0D01*
G01*
X7030000Y-11811000D02*
G75*
G03X7030000Y-11811000I-45000J0D01*
G01*
X7030000Y-13335000D02*
G75*
G03X7030000Y-13335000I-45000J0D01*
G01*
X7030000Y-13843000D02*
G75*
G03X7030000Y-13843000I-45000J0D01*
G01*
X7157000Y-4318000D02*
G75*
G03X7157000Y-4318000I-45000J0D01*
G01*
X7157000Y-12700000D02*
G75*
G03X7157000Y-12700000I-45000J0D01*
G01*
X7220500Y-7810500D02*
G75*
G03X7220500Y-7810500I-45000J0D01*
G01*
X7220500Y-16192500D02*
G75*
G03X7220500Y-16192500I-45000J0D01*
G01*
X7284000Y-3429000D02*
G75*
G03X7284000Y-3429000I-45000J0D01*
G01*
X7284000Y-11811000D02*
G75*
G03X7284000Y-11811000I-45000J0D01*
G01*
X7411000Y-4318000D02*
G75*
G03X7411000Y-4318000I-45000J0D01*
G01*
X7411000Y-12700000D02*
G75*
G03X7411000Y-12700000I-45000J0D01*
G01*
X7474500Y-5905500D02*
G75*
G03X7474500Y-5905500I-45000J0D01*
G01*
X7474500Y-8128000D02*
G75*
G03X7474500Y-8128000I-45000J0D01*
G01*
X7474500Y-8636000D02*
G75*
G03X7474500Y-8636000I-45000J0D01*
G01*
X7474500Y-14287500D02*
G75*
G03X7474500Y-14287500I-45000J0D01*
G01*
X7474500Y-16510000D02*
G75*
G03X7474500Y-16510000I-45000J0D01*
G01*
X7474500Y-17018000D02*
G75*
G03X7474500Y-17018000I-45000J0D01*
G01*
X7538000Y-3429000D02*
G75*
G03X7538000Y-3429000I-45000J0D01*
G01*
X7538000Y-4953000D02*
G75*
G03X7538000Y-4953000I-45000J0D01*
G01*
X7538000Y-5461000D02*
G75*
G03X7538000Y-5461000I-45000J0D01*
G01*
X7538000Y-11811000D02*
G75*
G03X7538000Y-11811000I-45000J0D01*
G01*
X7538000Y-13335000D02*
G75*
G03X7538000Y-13335000I-45000J0D01*
G01*
X7538000Y-13843000D02*
G75*
G03X7538000Y-13843000I-45000J0D01*
G01*
X7665000Y-4318000D02*
G75*
G03X7665000Y-4318000I-45000J0D01*
G01*
X7665000Y-12700000D02*
G75*
G03X7665000Y-12700000I-45000J0D01*
G01*
X7728500Y-5905500D02*
G75*
G03X7728500Y-5905500I-45000J0D01*
G01*
X7728500Y-7620000D02*
G75*
G03X7728500Y-7620000I-45000J0D01*
G01*
X7728500Y-7874000D02*
G75*
G03X7728500Y-7874000I-45000J0D01*
G01*
X7728500Y-8382000D02*
G75*
G03X7728500Y-8382000I-45000J0D01*
G01*
X7728500Y-8636000D02*
G75*
G03X7728500Y-8636000I-45000J0D01*
G01*
X7728500Y-8890000D02*
G75*
G03X7728500Y-8890000I-45000J0D01*
G01*
X7728500Y-9144000D02*
G75*
G03X7728500Y-9144000I-45000J0D01*
G01*
X7728500Y-14287500D02*
G75*
G03X7728500Y-14287500I-45000J0D01*
G01*
X7728500Y-16002000D02*
G75*
G03X7728500Y-16002000I-45000J0D01*
G01*
X7728500Y-16256000D02*
G75*
G03X7728500Y-16256000I-45000J0D01*
G01*
X7728500Y-16764000D02*
G75*
G03X7728500Y-16764000I-45000J0D01*
G01*
X7728500Y-17018000D02*
G75*
G03X7728500Y-17018000I-45000J0D01*
G01*
X7728500Y-17272000D02*
G75*
G03X7728500Y-17272000I-45000J0D01*
G01*
X7728500Y-17526000D02*
G75*
G03X7728500Y-17526000I-45000J0D01*
G01*
X7792000Y-3429000D02*
G75*
G03X7792000Y-3429000I-45000J0D01*
G01*
X7792000Y-4953000D02*
G75*
G03X7792000Y-4953000I-45000J0D01*
G01*
X7792000Y-5461000D02*
G75*
G03X7792000Y-5461000I-45000J0D01*
G01*
X7792000Y-11811000D02*
G75*
G03X7792000Y-11811000I-45000J0D01*
G01*
X7792000Y-13335000D02*
G75*
G03X7792000Y-13335000I-45000J0D01*
G01*
X7792000Y-13843000D02*
G75*
G03X7792000Y-13843000I-45000J0D01*
G01*
X7855500Y-9398000D02*
G75*
G03X7855500Y-9398000I-45000J0D01*
G01*
X7855500Y-17780000D02*
G75*
G03X7855500Y-17780000I-45000J0D01*
G01*
X7982500Y-5905500D02*
G75*
G03X7982500Y-5905500I-45000J0D01*
G01*
X7982500Y-14287500D02*
G75*
G03X7982500Y-14287500I-45000J0D01*
G01*
X8046000Y-3429000D02*
G75*
G03X8046000Y-3429000I-45000J0D01*
G01*
X8046000Y-4953000D02*
G75*
G03X8046000Y-4953000I-45000J0D01*
G01*
X8046000Y-5461000D02*
G75*
G03X8046000Y-5461000I-45000J0D01*
G01*
X8046000Y-11811000D02*
G75*
G03X8046000Y-11811000I-45000J0D01*
G01*
X8046000Y-13335000D02*
G75*
G03X8046000Y-13335000I-45000J0D01*
G01*
X8046000Y-13843000D02*
G75*
G03X8046000Y-13843000I-45000J0D01*
G01*
X8109500Y-9398000D02*
G75*
G03X8109500Y-9398000I-45000J0D01*
G01*
X8109500Y-17780000D02*
G75*
G03X8109500Y-17780000I-45000J0D01*
G01*
X8236500Y-5905500D02*
G75*
G03X8236500Y-5905500I-45000J0D01*
G01*
X8236500Y-7620000D02*
G75*
G03X8236500Y-7620000I-45000J0D01*
G01*
X8236500Y-7874000D02*
G75*
G03X8236500Y-7874000I-45000J0D01*
G01*
X8236500Y-8382000D02*
G75*
G03X8236500Y-8382000I-45000J0D01*
G01*
X8236500Y-8636000D02*
G75*
G03X8236500Y-8636000I-45000J0D01*
G01*
X8236500Y-8890000D02*
G75*
G03X8236500Y-8890000I-45000J0D01*
G01*
X8236500Y-9144000D02*
G75*
G03X8236500Y-9144000I-45000J0D01*
G01*
X8236500Y-14287500D02*
G75*
G03X8236500Y-14287500I-45000J0D01*
G01*
X8236500Y-16002000D02*
G75*
G03X8236500Y-16002000I-45000J0D01*
G01*
X8236500Y-16256000D02*
G75*
G03X8236500Y-16256000I-45000J0D01*
G01*
X8236500Y-16764000D02*
G75*
G03X8236500Y-16764000I-45000J0D01*
G01*
X8236500Y-17018000D02*
G75*
G03X8236500Y-17018000I-45000J0D01*
G01*
X8236500Y-17272000D02*
G75*
G03X8236500Y-17272000I-45000J0D01*
G01*
X8236500Y-17526000D02*
G75*
G03X8236500Y-17526000I-45000J0D01*
G01*
X8300000Y-3429000D02*
G75*
G03X8300000Y-3429000I-45000J0D01*
G01*
X8300000Y-4953000D02*
G75*
G03X8300000Y-4953000I-45000J0D01*
G01*
X8300000Y-5461000D02*
G75*
G03X8300000Y-5461000I-45000J0D01*
G01*
X8300000Y-11811000D02*
G75*
G03X8300000Y-11811000I-45000J0D01*
G01*
X8300000Y-13335000D02*
G75*
G03X8300000Y-13335000I-45000J0D01*
G01*
X8300000Y-13843000D02*
G75*
G03X8300000Y-13843000I-45000J0D01*
G01*
X8554000Y-4953000D02*
G75*
G03X8554000Y-4953000I-45000J0D01*
G01*
X8554000Y-5461000D02*
G75*
G03X8554000Y-5461000I-45000J0D01*
G01*
X8554000Y-13335000D02*
G75*
G03X8554000Y-13335000I-45000J0D01*
G01*
X8554000Y-13843000D02*
G75*
G03X8554000Y-13843000I-45000J0D01*
G01*
X10713000Y-4318000D02*
G75*
G03X10713000Y-4318000I-45000J0D01*
G01*
X10713000Y-4699000D02*
G75*
G03X10713000Y-4699000I-45000J0D01*
G01*
X10713000Y-5715000D02*
G75*
G03X10713000Y-5715000I-45000J0D01*
G01*
X10713000Y-6223000D02*
G75*
G03X10713000Y-6223000I-45000J0D01*
G01*
X10713000Y-12700000D02*
G75*
G03X10713000Y-12700000I-45000J0D01*
G01*
X10713000Y-13081000D02*
G75*
G03X10713000Y-13081000I-45000J0D01*
G01*
X10713000Y-14097000D02*
G75*
G03X10713000Y-14097000I-45000J0D01*
G01*
X10713000Y-14605000D02*
G75*
G03X10713000Y-14605000I-45000J0D01*
G01*
X10841276Y-8958761D02*
G75*
G03X10841276Y-8958761I-45000J0D01*
G01*
X10841276Y-17340761D02*
G75*
G03X10841276Y-17340761I-45000J0D01*
G01*
X10841277Y-8641261D02*
G75*
G03X10841277Y-8641261I-45000J0D01*
G01*
X10841277Y-17023261D02*
G75*
G03X10841277Y-17023261I-45000J0D01*
G01*
X10903500Y-7810500D02*
G75*
G03X10903500Y-7810500I-45000J0D01*
G01*
X10903500Y-16192500D02*
G75*
G03X10903500Y-16192500I-45000J0D01*
G01*
X10967000Y-3429000D02*
G75*
G03X10967000Y-3429000I-45000J0D01*
G01*
X10967000Y-4318000D02*
G75*
G03X10967000Y-4318000I-45000J0D01*
G01*
X10967000Y-4699000D02*
G75*
G03X10967000Y-4699000I-45000J0D01*
G01*
X10967000Y-5715000D02*
G75*
G03X10967000Y-5715000I-45000J0D01*
G01*
X10967000Y-6223000D02*
G75*
G03X10967000Y-6223000I-45000J0D01*
G01*
X10967000Y-11811000D02*
G75*
G03X10967000Y-11811000I-45000J0D01*
G01*
X10967000Y-12700000D02*
G75*
G03X10967000Y-12700000I-45000J0D01*
G01*
X10967000Y-13081000D02*
G75*
G03X10967000Y-13081000I-45000J0D01*
G01*
X10967000Y-14097000D02*
G75*
G03X10967000Y-14097000I-45000J0D01*
G01*
X10967000Y-14605000D02*
G75*
G03X10967000Y-14605000I-45000J0D01*
G01*
X11095276Y-8958761D02*
G75*
G03X11095276Y-8958761I-45000J0D01*
G01*
X11095276Y-17340761D02*
G75*
G03X11095276Y-17340761I-45000J0D01*
G01*
X11095277Y-8641261D02*
G75*
G03X11095277Y-8641261I-45000J0D01*
G01*
X11095277Y-17023261D02*
G75*
G03X11095277Y-17023261I-45000J0D01*
G01*
X11157500Y-7810500D02*
G75*
G03X11157500Y-7810500I-45000J0D01*
G01*
X11157500Y-16192500D02*
G75*
G03X11157500Y-16192500I-45000J0D01*
G01*
X11221000Y-3429000D02*
G75*
G03X11221000Y-3429000I-45000J0D01*
G01*
X11221000Y-4318000D02*
G75*
G03X11221000Y-4318000I-45000J0D01*
G01*
X11221000Y-4699000D02*
G75*
G03X11221000Y-4699000I-45000J0D01*
G01*
X11221000Y-5715000D02*
G75*
G03X11221000Y-5715000I-45000J0D01*
G01*
X11221000Y-6223000D02*
G75*
G03X11221000Y-6223000I-45000J0D01*
G01*
X11221000Y-11811000D02*
G75*
G03X11221000Y-11811000I-45000J0D01*
G01*
X11221000Y-12700000D02*
G75*
G03X11221000Y-12700000I-45000J0D01*
G01*
X11221000Y-13081000D02*
G75*
G03X11221000Y-13081000I-45000J0D01*
G01*
X11221000Y-14097000D02*
G75*
G03X11221000Y-14097000I-45000J0D01*
G01*
X11221000Y-14605000D02*
G75*
G03X11221000Y-14605000I-45000J0D01*
G01*
X11349276Y-8958761D02*
G75*
G03X11349276Y-8958761I-45000J0D01*
G01*
X11349276Y-17340761D02*
G75*
G03X11349276Y-17340761I-45000J0D01*
G01*
X11349276Y-8641261D02*
G75*
G03X11349276Y-8641261I-45000J0D01*
G01*
X11349276Y-17023261D02*
G75*
G03X11349276Y-17023261I-45000J0D01*
G01*
X11411500Y-7810500D02*
G75*
G03X11411500Y-7810500I-45000J0D01*
G01*
X11411500Y-16192500D02*
G75*
G03X11411500Y-16192500I-45000J0D01*
G01*
X11475000Y-3429000D02*
G75*
G03X11475000Y-3429000I-45000J0D01*
G01*
X11475000Y-4318000D02*
G75*
G03X11475000Y-4318000I-45000J0D01*
G01*
X11475000Y-6223000D02*
G75*
G03X11475000Y-6223000I-45000J0D01*
G01*
X11475000Y-11811000D02*
G75*
G03X11475000Y-11811000I-45000J0D01*
G01*
X11475000Y-12700000D02*
G75*
G03X11475000Y-12700000I-45000J0D01*
G01*
X11475000Y-14605000D02*
G75*
G03X11475000Y-14605000I-45000J0D01*
G01*
X11665500Y-7810500D02*
G75*
G03X11665500Y-7810500I-45000J0D01*
G01*
X11665500Y-16192500D02*
G75*
G03X11665500Y-16192500I-45000J0D01*
G01*
X11729000Y-3429000D02*
G75*
G03X11729000Y-3429000I-45000J0D01*
G01*
X11729000Y-6223000D02*
G75*
G03X11729000Y-6223000I-45000J0D01*
G01*
X11729000Y-11811000D02*
G75*
G03X11729000Y-11811000I-45000J0D01*
G01*
X11729000Y-14605000D02*
G75*
G03X11729000Y-14605000I-45000J0D01*
G01*
X11919500Y-7810500D02*
G75*
G03X11919500Y-7810500I-45000J0D01*
G01*
X11919500Y-16192500D02*
G75*
G03X11919500Y-16192500I-45000J0D01*
G01*
X11983000Y-3429000D02*
G75*
G03X11983000Y-3429000I-45000J0D01*
G01*
X11983000Y-6223000D02*
G75*
G03X11983000Y-6223000I-45000J0D01*
G01*
X11983000Y-11811000D02*
G75*
G03X11983000Y-11811000I-45000J0D01*
G01*
X11983000Y-14605000D02*
G75*
G03X11983000Y-14605000I-45000J0D01*
G01*
X12110000Y-5270500D02*
G75*
G03X12110000Y-5270500I-45000J0D01*
G01*
X12110000Y-13652500D02*
G75*
G03X12110000Y-13652500I-45000J0D01*
G01*
X12173500Y-7810500D02*
G75*
G03X12173500Y-7810500I-45000J0D01*
G01*
X12173500Y-16192500D02*
G75*
G03X12173500Y-16192500I-45000J0D01*
G01*
X12237000Y-3429000D02*
G75*
G03X12237000Y-3429000I-45000J0D01*
G01*
X12237000Y-6223000D02*
G75*
G03X12237000Y-6223000I-45000J0D01*
G01*
X12237000Y-11811000D02*
G75*
G03X12237000Y-11811000I-45000J0D01*
G01*
X12237000Y-14605000D02*
G75*
G03X12237000Y-14605000I-45000J0D01*
G01*
X12427500Y-7810500D02*
G75*
G03X12427500Y-7810500I-45000J0D01*
G01*
X12427500Y-16192500D02*
G75*
G03X12427500Y-16192500I-45000J0D01*
G01*
X12491000Y-3429000D02*
G75*
G03X12491000Y-3429000I-45000J0D01*
G01*
X12491000Y-6223000D02*
G75*
G03X12491000Y-6223000I-45000J0D01*
G01*
X12491000Y-11811000D02*
G75*
G03X12491000Y-11811000I-45000J0D01*
G01*
X12491000Y-14605000D02*
G75*
G03X12491000Y-14605000I-45000J0D01*
G01*
X12745000Y-3429000D02*
G75*
G03X12745000Y-3429000I-45000J0D01*
G01*
X12745000Y-11811000D02*
G75*
G03X12745000Y-11811000I-45000J0D01*
G01*
X12808500Y-3048000D02*
G75*
G03X12808500Y-3048000I-45000J0D01*
G01*
X12808500Y-4318000D02*
G75*
G03X12808500Y-4318000I-45000J0D01*
G01*
X12808500Y-6223000D02*
G75*
G03X12808500Y-6223000I-45000J0D01*
G01*
X12808500Y-11430000D02*
G75*
G03X12808500Y-11430000I-45000J0D01*
G01*
X12808500Y-12700000D02*
G75*
G03X12808500Y-12700000I-45000J0D01*
G01*
X12808500Y-14605000D02*
G75*
G03X12808500Y-14605000I-45000J0D01*
G01*
X12872000Y-5270500D02*
G75*
G03X12872000Y-5270500I-45000J0D01*
G01*
X12872000Y-13652500D02*
G75*
G03X12872000Y-13652500I-45000J0D01*
G01*
X12935500Y-7810500D02*
G75*
G03X12935500Y-7810500I-45000J0D01*
G01*
X12935500Y-16192500D02*
G75*
G03X12935500Y-16192500I-45000J0D01*
G01*
X12999000Y-3429000D02*
G75*
G03X12999000Y-3429000I-45000J0D01*
G01*
X12999000Y-11811000D02*
G75*
G03X12999000Y-11811000I-45000J0D01*
G01*
X13062500Y-3048000D02*
G75*
G03X13062500Y-3048000I-45000J0D01*
G01*
X13062500Y-4318000D02*
G75*
G03X13062500Y-4318000I-45000J0D01*
G01*
X13062500Y-6223000D02*
G75*
G03X13062500Y-6223000I-45000J0D01*
G01*
X13062500Y-11430000D02*
G75*
G03X13062500Y-11430000I-45000J0D01*
G01*
X13062500Y-12700000D02*
G75*
G03X13062500Y-12700000I-45000J0D01*
G01*
X13062500Y-14605000D02*
G75*
G03X13062500Y-14605000I-45000J0D01*
G01*
X13189500Y-7810500D02*
G75*
G03X13189500Y-7810500I-45000J0D01*
G01*
X13189500Y-16192500D02*
G75*
G03X13189500Y-16192500I-45000J0D01*
G01*
X13250566Y-8833543D02*
G75*
G03X13250566Y-8833543I-45000J0D01*
G01*
X13250566Y-17215543D02*
G75*
G03X13250566Y-17215543I-45000J0D01*
G01*
X13253000Y-3429000D02*
G75*
G03X13253000Y-3429000I-45000J0D01*
G01*
X13253000Y-5778500D02*
G75*
G03X13253000Y-5778500I-45000J0D01*
G01*
X13253000Y-11811000D02*
G75*
G03X13253000Y-11811000I-45000J0D01*
G01*
X13253000Y-14160500D02*
G75*
G03X13253000Y-14160500I-45000J0D01*
G01*
X13316500Y-3048000D02*
G75*
G03X13316500Y-3048000I-45000J0D01*
G01*
X13316500Y-4318000D02*
G75*
G03X13316500Y-4318000I-45000J0D01*
G01*
X13316500Y-6223000D02*
G75*
G03X13316500Y-6223000I-45000J0D01*
G01*
X13316500Y-11430000D02*
G75*
G03X13316500Y-11430000I-45000J0D01*
G01*
X13316500Y-12700000D02*
G75*
G03X13316500Y-12700000I-45000J0D01*
G01*
X13316500Y-14605000D02*
G75*
G03X13316500Y-14605000I-45000J0D01*
G01*
X13364000Y-8572500D02*
G75*
G03X13364000Y-8572500I-45000J0D01*
G01*
X13364000Y-16954500D02*
G75*
G03X13364000Y-16954500I-45000J0D01*
G01*
X13443500Y-5270500D02*
G75*
G03X13443500Y-5270500I-45000J0D01*
G01*
X13443500Y-7810500D02*
G75*
G03X13443500Y-7810500I-45000J0D01*
G01*
X13443500Y-13652500D02*
G75*
G03X13443500Y-13652500I-45000J0D01*
G01*
X13443500Y-16192500D02*
G75*
G03X13443500Y-16192500I-45000J0D01*
G01*
X13504566Y-8833543D02*
G75*
G03X13504566Y-8833543I-45000J0D01*
G01*
X13504566Y-17215543D02*
G75*
G03X13504566Y-17215543I-45000J0D01*
G01*
X13507000Y-3429000D02*
G75*
G03X13507000Y-3429000I-45000J0D01*
G01*
X13507000Y-11811000D02*
G75*
G03X13507000Y-11811000I-45000J0D01*
G01*
X13544000Y-8572500D02*
G75*
G03X13544000Y-8572500I-45000J0D01*
G01*
X13544000Y-16954500D02*
G75*
G03X13544000Y-16954500I-45000J0D01*
G01*
X13570500Y-3048000D02*
G75*
G03X13570500Y-3048000I-45000J0D01*
G01*
X13570500Y-4318000D02*
G75*
G03X13570500Y-4318000I-45000J0D01*
G01*
X13570500Y-6223000D02*
G75*
G03X13570500Y-6223000I-45000J0D01*
G01*
X13570500Y-11430000D02*
G75*
G03X13570500Y-11430000I-45000J0D01*
G01*
X13570500Y-12700000D02*
G75*
G03X13570500Y-12700000I-45000J0D01*
G01*
X13570500Y-14605000D02*
G75*
G03X13570500Y-14605000I-45000J0D01*
G01*
X13689158Y-4690658D02*
G75*
G03X13689158Y-4690658I-45000J0D01*
G01*
X13689158Y-13072658D02*
G75*
G03X13689158Y-13072658I-45000J0D01*
G01*
X13697500Y-5270500D02*
G75*
G03X13697500Y-5270500I-45000J0D01*
G01*
X13697500Y-7810500D02*
G75*
G03X13697500Y-7810500I-45000J0D01*
G01*
X13697500Y-13652500D02*
G75*
G03X13697500Y-13652500I-45000J0D01*
G01*
X13697500Y-16192500D02*
G75*
G03X13697500Y-16192500I-45000J0D01*
G01*
X13724000Y-8572500D02*
G75*
G03X13724000Y-8572500I-45000J0D01*
G01*
X13724000Y-16954500D02*
G75*
G03X13724000Y-16954500I-45000J0D01*
G01*
X13758566Y-8833543D02*
G75*
G03X13758566Y-8833543I-45000J0D01*
G01*
X13758566Y-17215543D02*
G75*
G03X13758566Y-17215543I-45000J0D01*
G01*
X13761000Y-3429000D02*
G75*
G03X13761000Y-3429000I-45000J0D01*
G01*
X13761000Y-11811000D02*
G75*
G03X13761000Y-11811000I-45000J0D01*
G01*
X13824500Y-3048000D02*
G75*
G03X13824500Y-3048000I-45000J0D01*
G01*
X13824500Y-4318000D02*
G75*
G03X13824500Y-4318000I-45000J0D01*
G01*
X13824500Y-6223000D02*
G75*
G03X13824500Y-6223000I-45000J0D01*
G01*
X13824500Y-11430000D02*
G75*
G03X13824500Y-11430000I-45000J0D01*
G01*
X13824500Y-12700000D02*
G75*
G03X13824500Y-12700000I-45000J0D01*
G01*
X13824500Y-14605000D02*
G75*
G03X13824500Y-14605000I-45000J0D01*
G01*
X13832842Y-4834342D02*
G75*
G03X13832842Y-4834342I-45000J0D01*
G01*
X13832842Y-13216342D02*
G75*
G03X13832842Y-13216342I-45000J0D01*
G01*
X13904000Y-8572500D02*
G75*
G03X13904000Y-8572500I-45000J0D01*
G01*
X13904000Y-16954500D02*
G75*
G03X13904000Y-16954500I-45000J0D01*
G01*
X13951500Y-5270500D02*
G75*
G03X13951500Y-5270500I-45000J0D01*
G01*
X13951500Y-7810500D02*
G75*
G03X13951500Y-7810500I-45000J0D01*
G01*
X13951500Y-13652500D02*
G75*
G03X13951500Y-13652500I-45000J0D01*
G01*
X13951500Y-16192500D02*
G75*
G03X13951500Y-16192500I-45000J0D01*
G01*
X14012566Y-8833543D02*
G75*
G03X14012566Y-8833543I-45000J0D01*
G01*
X14012566Y-17215543D02*
G75*
G03X14012566Y-17215543I-45000J0D01*
G01*
X14015000Y-3429000D02*
G75*
G03X14015000Y-3429000I-45000J0D01*
G01*
X14015000Y-11811000D02*
G75*
G03X14015000Y-11811000I-45000J0D01*
G01*
X14078500Y-3048000D02*
G75*
G03X14078500Y-3048000I-45000J0D01*
G01*
X14078500Y-4318000D02*
G75*
G03X14078500Y-4318000I-45000J0D01*
G01*
X14078500Y-6223000D02*
G75*
G03X14078500Y-6223000I-45000J0D01*
G01*
X14078500Y-11430000D02*
G75*
G03X14078500Y-11430000I-45000J0D01*
G01*
X14078500Y-12700000D02*
G75*
G03X14078500Y-12700000I-45000J0D01*
G01*
X14078500Y-14605000D02*
G75*
G03X14078500Y-14605000I-45000J0D01*
G01*
X14205500Y-7810500D02*
G75*
G03X14205500Y-7810500I-45000J0D01*
G01*
X14205500Y-16192500D02*
G75*
G03X14205500Y-16192500I-45000J0D01*
G01*
X14269000Y-3429000D02*
G75*
G03X14269000Y-3429000I-45000J0D01*
G01*
X14269000Y-4953000D02*
G75*
G03X14269000Y-4953000I-45000J0D01*
G01*
X14269000Y-5461000D02*
G75*
G03X14269000Y-5461000I-45000J0D01*
G01*
X14269000Y-5778500D02*
G75*
G03X14269000Y-5778500I-45000J0D01*
G01*
X14269000Y-11811000D02*
G75*
G03X14269000Y-11811000I-45000J0D01*
G01*
X14269000Y-13335000D02*
G75*
G03X14269000Y-13335000I-45000J0D01*
G01*
X14269000Y-13843000D02*
G75*
G03X14269000Y-13843000I-45000J0D01*
G01*
X14269000Y-14160500D02*
G75*
G03X14269000Y-14160500I-45000J0D01*
G01*
X14332500Y-3048000D02*
G75*
G03X14332500Y-3048000I-45000J0D01*
G01*
X14332500Y-4318000D02*
G75*
G03X14332500Y-4318000I-45000J0D01*
G01*
X14332500Y-6223000D02*
G75*
G03X14332500Y-6223000I-45000J0D01*
G01*
X14332500Y-11430000D02*
G75*
G03X14332500Y-11430000I-45000J0D01*
G01*
X14332500Y-12700000D02*
G75*
G03X14332500Y-12700000I-45000J0D01*
G01*
X14332500Y-14605000D02*
G75*
G03X14332500Y-14605000I-45000J0D01*
G01*
X14459500Y-7810500D02*
G75*
G03X14459500Y-7810500I-45000J0D01*
G01*
X14459500Y-16192500D02*
G75*
G03X14459500Y-16192500I-45000J0D01*
G01*
X14523000Y-3429000D02*
G75*
G03X14523000Y-3429000I-45000J0D01*
G01*
X14523000Y-4953000D02*
G75*
G03X14523000Y-4953000I-45000J0D01*
G01*
X14523000Y-5461000D02*
G75*
G03X14523000Y-5461000I-45000J0D01*
G01*
X14523000Y-11811000D02*
G75*
G03X14523000Y-11811000I-45000J0D01*
G01*
X14523000Y-13335000D02*
G75*
G03X14523000Y-13335000I-45000J0D01*
G01*
X14523000Y-13843000D02*
G75*
G03X14523000Y-13843000I-45000J0D01*
G01*
X14650000Y-4318000D02*
G75*
G03X14650000Y-4318000I-45000J0D01*
G01*
X14650000Y-12700000D02*
G75*
G03X14650000Y-12700000I-45000J0D01*
G01*
X14713500Y-7810500D02*
G75*
G03X14713500Y-7810500I-45000J0D01*
G01*
X14713500Y-16192500D02*
G75*
G03X14713500Y-16192500I-45000J0D01*
G01*
X14777000Y-3429000D02*
G75*
G03X14777000Y-3429000I-45000J0D01*
G01*
X14777000Y-11811000D02*
G75*
G03X14777000Y-11811000I-45000J0D01*
G01*
X14904000Y-4318000D02*
G75*
G03X14904000Y-4318000I-45000J0D01*
G01*
X14904000Y-12700000D02*
G75*
G03X14904000Y-12700000I-45000J0D01*
G01*
X14967500Y-5905500D02*
G75*
G03X14967500Y-5905500I-45000J0D01*
G01*
X14967500Y-8128000D02*
G75*
G03X14967500Y-8128000I-45000J0D01*
G01*
X14967500Y-8636000D02*
G75*
G03X14967500Y-8636000I-45000J0D01*
G01*
X14967500Y-14287500D02*
G75*
G03X14967500Y-14287500I-45000J0D01*
G01*
X14967500Y-16510000D02*
G75*
G03X14967500Y-16510000I-45000J0D01*
G01*
X14967500Y-17018000D02*
G75*
G03X14967500Y-17018000I-45000J0D01*
G01*
X15031000Y-3429000D02*
G75*
G03X15031000Y-3429000I-45000J0D01*
G01*
X15031000Y-4953000D02*
G75*
G03X15031000Y-4953000I-45000J0D01*
G01*
X15031000Y-5461000D02*
G75*
G03X15031000Y-5461000I-45000J0D01*
G01*
X15031000Y-11811000D02*
G75*
G03X15031000Y-11811000I-45000J0D01*
G01*
X15031000Y-13335000D02*
G75*
G03X15031000Y-13335000I-45000J0D01*
G01*
X15031000Y-13843000D02*
G75*
G03X15031000Y-13843000I-45000J0D01*
G01*
X15158000Y-4318000D02*
G75*
G03X15158000Y-4318000I-45000J0D01*
G01*
X15158000Y-12700000D02*
G75*
G03X15158000Y-12700000I-45000J0D01*
G01*
X15221500Y-5905500D02*
G75*
G03X15221500Y-5905500I-45000J0D01*
G01*
X15221500Y-7620000D02*
G75*
G03X15221500Y-7620000I-45000J0D01*
G01*
X15221500Y-7874000D02*
G75*
G03X15221500Y-7874000I-45000J0D01*
G01*
X15221500Y-8382000D02*
G75*
G03X15221500Y-8382000I-45000J0D01*
G01*
X15221500Y-8636000D02*
G75*
G03X15221500Y-8636000I-45000J0D01*
G01*
X15221500Y-8890000D02*
G75*
G03X15221500Y-8890000I-45000J0D01*
G01*
X15221500Y-9144000D02*
G75*
G03X15221500Y-9144000I-45000J0D01*
G01*
X15221500Y-14287500D02*
G75*
G03X15221500Y-14287500I-45000J0D01*
G01*
X15221500Y-16002000D02*
G75*
G03X15221500Y-16002000I-45000J0D01*
G01*
X15221500Y-16256000D02*
G75*
G03X15221500Y-16256000I-45000J0D01*
G01*
X15221500Y-16764000D02*
G75*
G03X15221500Y-16764000I-45000J0D01*
G01*
X15221500Y-17018000D02*
G75*
G03X15221500Y-17018000I-45000J0D01*
G01*
X15221500Y-17272000D02*
G75*
G03X15221500Y-17272000I-45000J0D01*
G01*
X15221500Y-17526000D02*
G75*
G03X15221500Y-17526000I-45000J0D01*
G01*
X15285000Y-3429000D02*
G75*
G03X15285000Y-3429000I-45000J0D01*
G01*
X15285000Y-4953000D02*
G75*
G03X15285000Y-4953000I-45000J0D01*
G01*
X15285000Y-5461000D02*
G75*
G03X15285000Y-5461000I-45000J0D01*
G01*
X15285000Y-11811000D02*
G75*
G03X15285000Y-11811000I-45000J0D01*
G01*
X15285000Y-13335000D02*
G75*
G03X15285000Y-13335000I-45000J0D01*
G01*
X15285000Y-13843000D02*
G75*
G03X15285000Y-13843000I-45000J0D01*
G01*
X15348500Y-9398000D02*
G75*
G03X15348500Y-9398000I-45000J0D01*
G01*
X15348500Y-17780000D02*
G75*
G03X15348500Y-17780000I-45000J0D01*
G01*
X15475500Y-5905500D02*
G75*
G03X15475500Y-5905500I-45000J0D01*
G01*
X15475500Y-14287500D02*
G75*
G03X15475500Y-14287500I-45000J0D01*
G01*
X15539000Y-3429000D02*
G75*
G03X15539000Y-3429000I-45000J0D01*
G01*
X15539000Y-4953000D02*
G75*
G03X15539000Y-4953000I-45000J0D01*
G01*
X15539000Y-5461000D02*
G75*
G03X15539000Y-5461000I-45000J0D01*
G01*
X15539000Y-11811000D02*
G75*
G03X15539000Y-11811000I-45000J0D01*
G01*
X15539000Y-13335000D02*
G75*
G03X15539000Y-13335000I-45000J0D01*
G01*
X15539000Y-13843000D02*
G75*
G03X15539000Y-13843000I-45000J0D01*
G01*
X15602500Y-9398000D02*
G75*
G03X15602500Y-9398000I-45000J0D01*
G01*
X15602500Y-17780000D02*
G75*
G03X15602500Y-17780000I-45000J0D01*
G01*
X15729500Y-5905500D02*
G75*
G03X15729500Y-5905500I-45000J0D01*
G01*
X15729500Y-7620000D02*
G75*
G03X15729500Y-7620000I-45000J0D01*
G01*
X15729500Y-7874000D02*
G75*
G03X15729500Y-7874000I-45000J0D01*
G01*
X15729500Y-8382000D02*
G75*
G03X15729500Y-8382000I-45000J0D01*
G01*
X15729500Y-8636000D02*
G75*
G03X15729500Y-8636000I-45000J0D01*
G01*
X15729500Y-8890000D02*
G75*
G03X15729500Y-8890000I-45000J0D01*
G01*
X15729500Y-9144000D02*
G75*
G03X15729500Y-9144000I-45000J0D01*
G01*
X15729500Y-14287500D02*
G75*
G03X15729500Y-14287500I-45000J0D01*
G01*
X15729500Y-16002000D02*
G75*
G03X15729500Y-16002000I-45000J0D01*
G01*
X15729500Y-16256000D02*
G75*
G03X15729500Y-16256000I-45000J0D01*
G01*
X15729500Y-16764000D02*
G75*
G03X15729500Y-16764000I-45000J0D01*
G01*
X15729500Y-17018000D02*
G75*
G03X15729500Y-17018000I-45000J0D01*
G01*
X15729500Y-17272000D02*
G75*
G03X15729500Y-17272000I-45000J0D01*
G01*
X15729500Y-17526000D02*
G75*
G03X15729500Y-17526000I-45000J0D01*
G01*
X15793000Y-3429000D02*
G75*
G03X15793000Y-3429000I-45000J0D01*
G01*
X15793000Y-4953000D02*
G75*
G03X15793000Y-4953000I-45000J0D01*
G01*
X15793000Y-5461000D02*
G75*
G03X15793000Y-5461000I-45000J0D01*
G01*
X15793000Y-11811000D02*
G75*
G03X15793000Y-11811000I-45000J0D01*
G01*
X15793000Y-13335000D02*
G75*
G03X15793000Y-13335000I-45000J0D01*
G01*
X15793000Y-13843000D02*
G75*
G03X15793000Y-13843000I-45000J0D01*
G01*
X16047000Y-4953000D02*
G75*
G03X16047000Y-4953000I-45000J0D01*
G01*
X16047000Y-5461000D02*
G75*
G03X16047000Y-5461000I-45000J0D01*
G01*
X16047000Y-13335000D02*
G75*
G03X16047000Y-13335000I-45000J0D01*
G01*
X16047000Y-13843000D02*
G75*
G03X16047000Y-13843000I-45000J0D01*
G01*
X18206000Y-4318000D02*
G75*
G03X18206000Y-4318000I-45000J0D01*
G01*
X18206000Y-4699000D02*
G75*
G03X18206000Y-4699000I-45000J0D01*
G01*
X18206000Y-5715000D02*
G75*
G03X18206000Y-5715000I-45000J0D01*
G01*
X18206000Y-6223000D02*
G75*
G03X18206000Y-6223000I-45000J0D01*
G01*
X18206000Y-12700000D02*
G75*
G03X18206000Y-12700000I-45000J0D01*
G01*
X18206000Y-13081000D02*
G75*
G03X18206000Y-13081000I-45000J0D01*
G01*
X18206000Y-14097000D02*
G75*
G03X18206000Y-14097000I-45000J0D01*
G01*
X18206000Y-14605000D02*
G75*
G03X18206000Y-14605000I-45000J0D01*
G01*
X18334276Y-8958761D02*
G75*
G03X18334276Y-8958761I-45000J0D01*
G01*
X18334276Y-17340761D02*
G75*
G03X18334276Y-17340761I-45000J0D01*
G01*
X18334277Y-8641261D02*
G75*
G03X18334277Y-8641261I-45000J0D01*
G01*
X18334277Y-17023261D02*
G75*
G03X18334277Y-17023261I-45000J0D01*
G01*
X18396500Y-7810500D02*
G75*
G03X18396500Y-7810500I-45000J0D01*
G01*
X18396500Y-16192500D02*
G75*
G03X18396500Y-16192500I-45000J0D01*
G01*
X18460000Y-3429000D02*
G75*
G03X18460000Y-3429000I-45000J0D01*
G01*
X18460000Y-4318000D02*
G75*
G03X18460000Y-4318000I-45000J0D01*
G01*
X18460000Y-4699000D02*
G75*
G03X18460000Y-4699000I-45000J0D01*
G01*
X18460000Y-5715000D02*
G75*
G03X18460000Y-5715000I-45000J0D01*
G01*
X18460000Y-6223000D02*
G75*
G03X18460000Y-6223000I-45000J0D01*
G01*
X18460000Y-11811000D02*
G75*
G03X18460000Y-11811000I-45000J0D01*
G01*
X18460000Y-12700000D02*
G75*
G03X18460000Y-12700000I-45000J0D01*
G01*
X18460000Y-13081000D02*
G75*
G03X18460000Y-13081000I-45000J0D01*
G01*
X18460000Y-14097000D02*
G75*
G03X18460000Y-14097000I-45000J0D01*
G01*
X18460000Y-14605000D02*
G75*
G03X18460000Y-14605000I-45000J0D01*
G01*
X18588276Y-8958761D02*
G75*
G03X18588276Y-8958761I-45000J0D01*
G01*
X18588276Y-17340761D02*
G75*
G03X18588276Y-17340761I-45000J0D01*
G01*
X18588277Y-8641261D02*
G75*
G03X18588277Y-8641261I-45000J0D01*
G01*
X18588277Y-17023261D02*
G75*
G03X18588277Y-17023261I-45000J0D01*
G01*
X18650500Y-7810500D02*
G75*
G03X18650500Y-7810500I-45000J0D01*
G01*
X18650500Y-16192500D02*
G75*
G03X18650500Y-16192500I-45000J0D01*
G01*
X18714000Y-3429000D02*
G75*
G03X18714000Y-3429000I-45000J0D01*
G01*
X18714000Y-4318000D02*
G75*
G03X18714000Y-4318000I-45000J0D01*
G01*
X18714000Y-4699000D02*
G75*
G03X18714000Y-4699000I-45000J0D01*
G01*
X18714000Y-5715000D02*
G75*
G03X18714000Y-5715000I-45000J0D01*
G01*
X18714000Y-6223000D02*
G75*
G03X18714000Y-6223000I-45000J0D01*
G01*
X18714000Y-11811000D02*
G75*
G03X18714000Y-11811000I-45000J0D01*
G01*
X18714000Y-12700000D02*
G75*
G03X18714000Y-12700000I-45000J0D01*
G01*
X18714000Y-13081000D02*
G75*
G03X18714000Y-13081000I-45000J0D01*
G01*
X18714000Y-14097000D02*
G75*
G03X18714000Y-14097000I-45000J0D01*
G01*
X18714000Y-14605000D02*
G75*
G03X18714000Y-14605000I-45000J0D01*
G01*
X18842276Y-8958761D02*
G75*
G03X18842276Y-8958761I-45000J0D01*
G01*
X18842276Y-17340761D02*
G75*
G03X18842276Y-17340761I-45000J0D01*
G01*
X18842277Y-8641261D02*
G75*
G03X18842277Y-8641261I-45000J0D01*
G01*
X18842277Y-17023261D02*
G75*
G03X18842277Y-17023261I-45000J0D01*
G01*
X18904500Y-7810500D02*
G75*
G03X18904500Y-7810500I-45000J0D01*
G01*
X18904500Y-16192500D02*
G75*
G03X18904500Y-16192500I-45000J0D01*
G01*
X18968000Y-3429000D02*
G75*
G03X18968000Y-3429000I-45000J0D01*
G01*
X18968000Y-4318000D02*
G75*
G03X18968000Y-4318000I-45000J0D01*
G01*
X18968000Y-6223000D02*
G75*
G03X18968000Y-6223000I-45000J0D01*
G01*
X18968000Y-11811000D02*
G75*
G03X18968000Y-11811000I-45000J0D01*
G01*
X18968000Y-12700000D02*
G75*
G03X18968000Y-12700000I-45000J0D01*
G01*
X18968000Y-14605000D02*
G75*
G03X18968000Y-14605000I-45000J0D01*
G01*
X19158500Y-7810500D02*
G75*
G03X19158500Y-7810500I-45000J0D01*
G01*
X19158500Y-16192500D02*
G75*
G03X19158500Y-16192500I-45000J0D01*
G01*
X19222000Y-3429000D02*
G75*
G03X19222000Y-3429000I-45000J0D01*
G01*
X19222000Y-6223000D02*
G75*
G03X19222000Y-6223000I-45000J0D01*
G01*
X19222000Y-11811000D02*
G75*
G03X19222000Y-11811000I-45000J0D01*
G01*
X19222000Y-14605000D02*
G75*
G03X19222000Y-14605000I-45000J0D01*
G01*
X19412500Y-7810500D02*
G75*
G03X19412500Y-7810500I-45000J0D01*
G01*
X19412500Y-16192500D02*
G75*
G03X19412500Y-16192500I-45000J0D01*
G01*
X19476000Y-3429000D02*
G75*
G03X19476000Y-3429000I-45000J0D01*
G01*
X19476000Y-6223000D02*
G75*
G03X19476000Y-6223000I-45000J0D01*
G01*
X19476000Y-11811000D02*
G75*
G03X19476000Y-11811000I-45000J0D01*
G01*
X19476000Y-14605000D02*
G75*
G03X19476000Y-14605000I-45000J0D01*
G01*
X19603000Y-5270500D02*
G75*
G03X19603000Y-5270500I-45000J0D01*
G01*
X19603000Y-13652500D02*
G75*
G03X19603000Y-13652500I-45000J0D01*
G01*
X19666500Y-7810500D02*
G75*
G03X19666500Y-7810500I-45000J0D01*
G01*
X19666500Y-16192500D02*
G75*
G03X19666500Y-16192500I-45000J0D01*
G01*
X19730000Y-3429000D02*
G75*
G03X19730000Y-3429000I-45000J0D01*
G01*
X19730000Y-6223000D02*
G75*
G03X19730000Y-6223000I-45000J0D01*
G01*
X19730000Y-11811000D02*
G75*
G03X19730000Y-11811000I-45000J0D01*
G01*
X19730000Y-14605000D02*
G75*
G03X19730000Y-14605000I-45000J0D01*
G01*
X19920500Y-7810500D02*
G75*
G03X19920500Y-7810500I-45000J0D01*
G01*
X19920500Y-16192500D02*
G75*
G03X19920500Y-16192500I-45000J0D01*
G01*
X19984000Y-3429000D02*
G75*
G03X19984000Y-3429000I-45000J0D01*
G01*
X19984000Y-6223000D02*
G75*
G03X19984000Y-6223000I-45000J0D01*
G01*
X19984000Y-11811000D02*
G75*
G03X19984000Y-11811000I-45000J0D01*
G01*
X19984000Y-14605000D02*
G75*
G03X19984000Y-14605000I-45000J0D01*
G01*
X20238000Y-3429000D02*
G75*
G03X20238000Y-3429000I-45000J0D01*
G01*
X20238000Y-11811000D02*
G75*
G03X20238000Y-11811000I-45000J0D01*
G01*
X20301500Y-3048000D02*
G75*
G03X20301500Y-3048000I-45000J0D01*
G01*
X20301500Y-4318000D02*
G75*
G03X20301500Y-4318000I-45000J0D01*
G01*
X20301500Y-6223000D02*
G75*
G03X20301500Y-6223000I-45000J0D01*
G01*
X20301500Y-11430000D02*
G75*
G03X20301500Y-11430000I-45000J0D01*
G01*
X20301500Y-12700000D02*
G75*
G03X20301500Y-12700000I-45000J0D01*
G01*
X20301500Y-14605000D02*
G75*
G03X20301500Y-14605000I-45000J0D01*
G01*
X20365000Y-5270500D02*
G75*
G03X20365000Y-5270500I-45000J0D01*
G01*
X20365000Y-13652500D02*
G75*
G03X20365000Y-13652500I-45000J0D01*
G01*
X20428500Y-7810500D02*
G75*
G03X20428500Y-7810500I-45000J0D01*
G01*
X20428500Y-16192500D02*
G75*
G03X20428500Y-16192500I-45000J0D01*
G01*
X20492000Y-3429000D02*
G75*
G03X20492000Y-3429000I-45000J0D01*
G01*
X20492000Y-11811000D02*
G75*
G03X20492000Y-11811000I-45000J0D01*
G01*
X20555500Y-3048000D02*
G75*
G03X20555500Y-3048000I-45000J0D01*
G01*
X20555500Y-4318000D02*
G75*
G03X20555500Y-4318000I-45000J0D01*
G01*
X20555500Y-6223000D02*
G75*
G03X20555500Y-6223000I-45000J0D01*
G01*
X20555500Y-11430000D02*
G75*
G03X20555500Y-11430000I-45000J0D01*
G01*
X20555500Y-12700000D02*
G75*
G03X20555500Y-12700000I-45000J0D01*
G01*
X20555500Y-14605000D02*
G75*
G03X20555500Y-14605000I-45000J0D01*
G01*
X20682500Y-7810500D02*
G75*
G03X20682500Y-7810500I-45000J0D01*
G01*
X20682500Y-16192500D02*
G75*
G03X20682500Y-16192500I-45000J0D01*
G01*
X20743566Y-8833543D02*
G75*
G03X20743566Y-8833543I-45000J0D01*
G01*
X20743566Y-17215543D02*
G75*
G03X20743566Y-17215543I-45000J0D01*
G01*
X20746000Y-3429000D02*
G75*
G03X20746000Y-3429000I-45000J0D01*
G01*
X20746000Y-5778500D02*
G75*
G03X20746000Y-5778500I-45000J0D01*
G01*
X20746000Y-11811000D02*
G75*
G03X20746000Y-11811000I-45000J0D01*
G01*
X20746000Y-14160500D02*
G75*
G03X20746000Y-14160500I-45000J0D01*
G01*
X20809500Y-3048000D02*
G75*
G03X20809500Y-3048000I-45000J0D01*
G01*
X20809500Y-4318000D02*
G75*
G03X20809500Y-4318000I-45000J0D01*
G01*
X20809500Y-6223000D02*
G75*
G03X20809500Y-6223000I-45000J0D01*
G01*
X20809500Y-11430000D02*
G75*
G03X20809500Y-11430000I-45000J0D01*
G01*
X20809500Y-12700000D02*
G75*
G03X20809500Y-12700000I-45000J0D01*
G01*
X20809500Y-14605000D02*
G75*
G03X20809500Y-14605000I-45000J0D01*
G01*
X20857000Y-8572500D02*
G75*
G03X20857000Y-8572500I-45000J0D01*
G01*
X20857000Y-16954500D02*
G75*
G03X20857000Y-16954500I-45000J0D01*
G01*
X20936500Y-5270500D02*
G75*
G03X20936500Y-5270500I-45000J0D01*
G01*
X20936500Y-7810500D02*
G75*
G03X20936500Y-7810500I-45000J0D01*
G01*
X20936500Y-13652500D02*
G75*
G03X20936500Y-13652500I-45000J0D01*
G01*
X20936500Y-16192500D02*
G75*
G03X20936500Y-16192500I-45000J0D01*
G01*
X20997566Y-8833543D02*
G75*
G03X20997566Y-8833543I-45000J0D01*
G01*
X20997566Y-17215543D02*
G75*
G03X20997566Y-17215543I-45000J0D01*
G01*
X21000000Y-3429000D02*
G75*
G03X21000000Y-3429000I-45000J0D01*
G01*
X21000000Y-11811000D02*
G75*
G03X21000000Y-11811000I-45000J0D01*
G01*
X21037000Y-8572500D02*
G75*
G03X21037000Y-8572500I-45000J0D01*
G01*
X21037000Y-16954500D02*
G75*
G03X21037000Y-16954500I-45000J0D01*
G01*
X21063500Y-3048000D02*
G75*
G03X21063500Y-3048000I-45000J0D01*
G01*
X21063500Y-4318000D02*
G75*
G03X21063500Y-4318000I-45000J0D01*
G01*
X21063500Y-6223000D02*
G75*
G03X21063500Y-6223000I-45000J0D01*
G01*
X21063500Y-11430000D02*
G75*
G03X21063500Y-11430000I-45000J0D01*
G01*
X21063500Y-12700000D02*
G75*
G03X21063500Y-12700000I-45000J0D01*
G01*
X21063500Y-14605000D02*
G75*
G03X21063500Y-14605000I-45000J0D01*
G01*
X21182158Y-4690658D02*
G75*
G03X21182158Y-4690658I-45000J0D01*
G01*
X21182158Y-13072658D02*
G75*
G03X21182158Y-13072658I-45000J0D01*
G01*
X21190500Y-5270500D02*
G75*
G03X21190500Y-5270500I-45000J0D01*
G01*
X21190500Y-7810500D02*
G75*
G03X21190500Y-7810500I-45000J0D01*
G01*
X21190500Y-13652500D02*
G75*
G03X21190500Y-13652500I-45000J0D01*
G01*
X21190500Y-16192500D02*
G75*
G03X21190500Y-16192500I-45000J0D01*
G01*
X21217000Y-8572500D02*
G75*
G03X21217000Y-8572500I-45000J0D01*
G01*
X21217000Y-16954500D02*
G75*
G03X21217000Y-16954500I-45000J0D01*
G01*
X21251566Y-8833543D02*
G75*
G03X21251566Y-8833543I-45000J0D01*
G01*
X21251566Y-17215543D02*
G75*
G03X21251566Y-17215543I-45000J0D01*
G01*
X21254000Y-3429000D02*
G75*
G03X21254000Y-3429000I-45000J0D01*
G01*
X21254000Y-11811000D02*
G75*
G03X21254000Y-11811000I-45000J0D01*
G01*
X21317500Y-3048000D02*
G75*
G03X21317500Y-3048000I-45000J0D01*
G01*
X21317500Y-4318000D02*
G75*
G03X21317500Y-4318000I-45000J0D01*
G01*
X21317500Y-6223000D02*
G75*
G03X21317500Y-6223000I-45000J0D01*
G01*
X21317500Y-11430000D02*
G75*
G03X21317500Y-11430000I-45000J0D01*
G01*
X21317500Y-12700000D02*
G75*
G03X21317500Y-12700000I-45000J0D01*
G01*
X21317500Y-14605000D02*
G75*
G03X21317500Y-14605000I-45000J0D01*
G01*
X21325842Y-4834342D02*
G75*
G03X21325842Y-4834342I-45000J0D01*
G01*
X21325842Y-13216342D02*
G75*
G03X21325842Y-13216342I-45000J0D01*
G01*
X21397000Y-8572500D02*
G75*
G03X21397000Y-8572500I-45000J0D01*
G01*
X21397000Y-16954500D02*
G75*
G03X21397000Y-16954500I-45000J0D01*
G01*
X21444500Y-5270500D02*
G75*
G03X21444500Y-5270500I-45000J0D01*
G01*
X21444500Y-7810500D02*
G75*
G03X21444500Y-7810500I-45000J0D01*
G01*
X21444500Y-13652500D02*
G75*
G03X21444500Y-13652500I-45000J0D01*
G01*
X21444500Y-16192500D02*
G75*
G03X21444500Y-16192500I-45000J0D01*
G01*
X21505566Y-8833543D02*
G75*
G03X21505566Y-8833543I-45000J0D01*
G01*
X21505566Y-17215543D02*
G75*
G03X21505566Y-17215543I-45000J0D01*
G01*
X21508000Y-3429000D02*
G75*
G03X21508000Y-3429000I-45000J0D01*
G01*
X21508000Y-11811000D02*
G75*
G03X21508000Y-11811000I-45000J0D01*
G01*
X21571500Y-3048000D02*
G75*
G03X21571500Y-3048000I-45000J0D01*
G01*
X21571500Y-4318000D02*
G75*
G03X21571500Y-4318000I-45000J0D01*
G01*
X21571500Y-6223000D02*
G75*
G03X21571500Y-6223000I-45000J0D01*
G01*
X21571500Y-11430000D02*
G75*
G03X21571500Y-11430000I-45000J0D01*
G01*
X21571500Y-12700000D02*
G75*
G03X21571500Y-12700000I-45000J0D01*
G01*
X21571500Y-14605000D02*
G75*
G03X21571500Y-14605000I-45000J0D01*
G01*
X21698500Y-7810500D02*
G75*
G03X21698500Y-7810500I-45000J0D01*
G01*
X21698500Y-16192500D02*
G75*
G03X21698500Y-16192500I-45000J0D01*
G01*
X21762000Y-3429000D02*
G75*
G03X21762000Y-3429000I-45000J0D01*
G01*
X21762000Y-4953000D02*
G75*
G03X21762000Y-4953000I-45000J0D01*
G01*
X21762000Y-5461000D02*
G75*
G03X21762000Y-5461000I-45000J0D01*
G01*
X21762000Y-5778500D02*
G75*
G03X21762000Y-5778500I-45000J0D01*
G01*
X21762000Y-11811000D02*
G75*
G03X21762000Y-11811000I-45000J0D01*
G01*
X21762000Y-13335000D02*
G75*
G03X21762000Y-13335000I-45000J0D01*
G01*
X21762000Y-13843000D02*
G75*
G03X21762000Y-13843000I-45000J0D01*
G01*
X21762000Y-14160500D02*
G75*
G03X21762000Y-14160500I-45000J0D01*
G01*
X21825500Y-3048000D02*
G75*
G03X21825500Y-3048000I-45000J0D01*
G01*
X21825500Y-4318000D02*
G75*
G03X21825500Y-4318000I-45000J0D01*
G01*
X21825500Y-6223000D02*
G75*
G03X21825500Y-6223000I-45000J0D01*
G01*
X21825500Y-11430000D02*
G75*
G03X21825500Y-11430000I-45000J0D01*
G01*
X21825500Y-12700000D02*
G75*
G03X21825500Y-12700000I-45000J0D01*
G01*
X21825500Y-14605000D02*
G75*
G03X21825500Y-14605000I-45000J0D01*
G01*
X21952500Y-7810500D02*
G75*
G03X21952500Y-7810500I-45000J0D01*
G01*
X21952500Y-16192500D02*
G75*
G03X21952500Y-16192500I-45000J0D01*
G01*
X22016000Y-3429000D02*
G75*
G03X22016000Y-3429000I-45000J0D01*
G01*
X22016000Y-4953000D02*
G75*
G03X22016000Y-4953000I-45000J0D01*
G01*
X22016000Y-5461000D02*
G75*
G03X22016000Y-5461000I-45000J0D01*
G01*
X22016000Y-11811000D02*
G75*
G03X22016000Y-11811000I-45000J0D01*
G01*
X22016000Y-13335000D02*
G75*
G03X22016000Y-13335000I-45000J0D01*
G01*
X22016000Y-13843000D02*
G75*
G03X22016000Y-13843000I-45000J0D01*
G01*
X22143000Y-4318000D02*
G75*
G03X22143000Y-4318000I-45000J0D01*
G01*
X22143000Y-12700000D02*
G75*
G03X22143000Y-12700000I-45000J0D01*
G01*
X22206500Y-7810500D02*
G75*
G03X22206500Y-7810500I-45000J0D01*
G01*
X22206500Y-16192500D02*
G75*
G03X22206500Y-16192500I-45000J0D01*
G01*
X22270000Y-3429000D02*
G75*
G03X22270000Y-3429000I-45000J0D01*
G01*
X22270000Y-11811000D02*
G75*
G03X22270000Y-11811000I-45000J0D01*
G01*
X22397000Y-4318000D02*
G75*
G03X22397000Y-4318000I-45000J0D01*
G01*
X22397000Y-12700000D02*
G75*
G03X22397000Y-12700000I-45000J0D01*
G01*
X22460500Y-5905500D02*
G75*
G03X22460500Y-5905500I-45000J0D01*
G01*
X22460500Y-8128000D02*
G75*
G03X22460500Y-8128000I-45000J0D01*
G01*
X22460500Y-8636000D02*
G75*
G03X22460500Y-8636000I-45000J0D01*
G01*
X22460500Y-14287500D02*
G75*
G03X22460500Y-14287500I-45000J0D01*
G01*
X22460500Y-16510000D02*
G75*
G03X22460500Y-16510000I-45000J0D01*
G01*
X22460500Y-17018000D02*
G75*
G03X22460500Y-17018000I-45000J0D01*
G01*
X22524000Y-3429000D02*
G75*
G03X22524000Y-3429000I-45000J0D01*
G01*
X22524000Y-4953000D02*
G75*
G03X22524000Y-4953000I-45000J0D01*
G01*
X22524000Y-5461000D02*
G75*
G03X22524000Y-5461000I-45000J0D01*
G01*
X22524000Y-11811000D02*
G75*
G03X22524000Y-11811000I-45000J0D01*
G01*
X22524000Y-13335000D02*
G75*
G03X22524000Y-13335000I-45000J0D01*
G01*
X22524000Y-13843000D02*
G75*
G03X22524000Y-13843000I-45000J0D01*
G01*
X22651000Y-4318000D02*
G75*
G03X22651000Y-4318000I-45000J0D01*
G01*
X22651000Y-12700000D02*
G75*
G03X22651000Y-12700000I-45000J0D01*
G01*
X22714500Y-5905500D02*
G75*
G03X22714500Y-5905500I-45000J0D01*
G01*
X22714500Y-7620000D02*
G75*
G03X22714500Y-7620000I-45000J0D01*
G01*
X22714500Y-7874000D02*
G75*
G03X22714500Y-7874000I-45000J0D01*
G01*
X22714500Y-8382000D02*
G75*
G03X22714500Y-8382000I-45000J0D01*
G01*
X22714500Y-8636000D02*
G75*
G03X22714500Y-8636000I-45000J0D01*
G01*
X22714500Y-8890000D02*
G75*
G03X22714500Y-8890000I-45000J0D01*
G01*
X22714500Y-9144000D02*
G75*
G03X22714500Y-9144000I-45000J0D01*
G01*
X22714500Y-14287500D02*
G75*
G03X22714500Y-14287500I-45000J0D01*
G01*
X22714500Y-16002000D02*
G75*
G03X22714500Y-16002000I-45000J0D01*
G01*
X22714500Y-16256000D02*
G75*
G03X22714500Y-16256000I-45000J0D01*
G01*
X22714500Y-16764000D02*
G75*
G03X22714500Y-16764000I-45000J0D01*
G01*
X22714500Y-17018000D02*
G75*
G03X22714500Y-17018000I-45000J0D01*
G01*
X22714500Y-17272000D02*
G75*
G03X22714500Y-17272000I-45000J0D01*
G01*
X22714500Y-17526000D02*
G75*
G03X22714500Y-17526000I-45000J0D01*
G01*
X22778000Y-3429000D02*
G75*
G03X22778000Y-3429000I-45000J0D01*
G01*
X22778000Y-4953000D02*
G75*
G03X22778000Y-4953000I-45000J0D01*
G01*
X22778000Y-5461000D02*
G75*
G03X22778000Y-5461000I-45000J0D01*
G01*
X22778000Y-11811000D02*
G75*
G03X22778000Y-11811000I-45000J0D01*
G01*
X22778000Y-13335000D02*
G75*
G03X22778000Y-13335000I-45000J0D01*
G01*
X22778000Y-13843000D02*
G75*
G03X22778000Y-13843000I-45000J0D01*
G01*
X22841500Y-9398000D02*
G75*
G03X22841500Y-9398000I-45000J0D01*
G01*
X22841500Y-17780000D02*
G75*
G03X22841500Y-17780000I-45000J0D01*
G01*
X22968500Y-5905500D02*
G75*
G03X22968500Y-5905500I-45000J0D01*
G01*
X22968500Y-14287500D02*
G75*
G03X22968500Y-14287500I-45000J0D01*
G01*
X23032000Y-3429000D02*
G75*
G03X23032000Y-3429000I-45000J0D01*
G01*
X23032000Y-4953000D02*
G75*
G03X23032000Y-4953000I-45000J0D01*
G01*
X23032000Y-5461000D02*
G75*
G03X23032000Y-5461000I-45000J0D01*
G01*
X23032000Y-11811000D02*
G75*
G03X23032000Y-11811000I-45000J0D01*
G01*
X23032000Y-13335000D02*
G75*
G03X23032000Y-13335000I-45000J0D01*
G01*
X23032000Y-13843000D02*
G75*
G03X23032000Y-13843000I-45000J0D01*
G01*
X23095500Y-9398000D02*
G75*
G03X23095500Y-9398000I-45000J0D01*
G01*
X23095500Y-17780000D02*
G75*
G03X23095500Y-17780000I-45000J0D01*
G01*
X23222500Y-5905500D02*
G75*
G03X23222500Y-5905500I-45000J0D01*
G01*
X23222500Y-7620000D02*
G75*
G03X23222500Y-7620000I-45000J0D01*
G01*
X23222500Y-7874000D02*
G75*
G03X23222500Y-7874000I-45000J0D01*
G01*
X23222500Y-8382000D02*
G75*
G03X23222500Y-8382000I-45000J0D01*
G01*
X23222500Y-8636000D02*
G75*
G03X23222500Y-8636000I-45000J0D01*
G01*
X23222500Y-8890000D02*
G75*
G03X23222500Y-8890000I-45000J0D01*
G01*
X23222500Y-9144000D02*
G75*
G03X23222500Y-9144000I-45000J0D01*
G01*
X23222500Y-14287500D02*
G75*
G03X23222500Y-14287500I-45000J0D01*
G01*
X23222500Y-16002000D02*
G75*
G03X23222500Y-16002000I-45000J0D01*
G01*
X23222500Y-16256000D02*
G75*
G03X23222500Y-16256000I-45000J0D01*
G01*
X23222500Y-16764000D02*
G75*
G03X23222500Y-16764000I-45000J0D01*
G01*
X23222500Y-17018000D02*
G75*
G03X23222500Y-17018000I-45000J0D01*
G01*
X23222500Y-17272000D02*
G75*
G03X23222500Y-17272000I-45000J0D01*
G01*
X23222500Y-17526000D02*
G75*
G03X23222500Y-17526000I-45000J0D01*
G01*
X23286000Y-3429000D02*
G75*
G03X23286000Y-3429000I-45000J0D01*
G01*
X23286000Y-4953000D02*
G75*
G03X23286000Y-4953000I-45000J0D01*
G01*
X23286000Y-5461000D02*
G75*
G03X23286000Y-5461000I-45000J0D01*
G01*
X23286000Y-11811000D02*
G75*
G03X23286000Y-11811000I-45000J0D01*
G01*
X23286000Y-13335000D02*
G75*
G03X23286000Y-13335000I-45000J0D01*
G01*
X23286000Y-13843000D02*
G75*
G03X23286000Y-13843000I-45000J0D01*
G01*
X23540000Y-4953000D02*
G75*
G03X23540000Y-4953000I-45000J0D01*
G01*
X23540000Y-5461000D02*
G75*
G03X23540000Y-5461000I-45000J0D01*
G01*
X23540000Y-13335000D02*
G75*
G03X23540000Y-13335000I-45000J0D01*
G01*
X23540000Y-13843000D02*
G75*
G03X23540000Y-13843000I-45000J0D01*
G01*
D13*
X1597428Y-20031214D02*
X1597428Y-19731214D01*
X1668857Y-19731214D01*
X1711714Y-19745500D01*
X1740286Y-19774072D01*
X1754571Y-19802643D01*
X1768857Y-19859786D01*
X1768857Y-19902643D01*
X1754571Y-19959786D01*
X1740286Y-19988357D01*
X1711714Y-20016929D01*
X1668857Y-20031214D01*
X1597428Y-20031214D01*
X1897428Y-20031214D02*
X1897428Y-19831214D01*
X1897428Y-19888357D02*
X1911714Y-19859786D01*
X1926000Y-19845500D01*
X1954571Y-19831214D01*
X1983143Y-19831214D01*
X2083143Y-20031214D02*
X2083143Y-19831214D01*
X2083143Y-19731214D02*
X2068857Y-19745500D01*
X2083143Y-19759786D01*
X2097429Y-19745500D01*
X2083143Y-19731214D01*
X2083143Y-19759786D01*
X2268857Y-20031214D02*
X2240286Y-20016929D01*
X2226000Y-19988357D01*
X2226000Y-19731214D01*
X2426000Y-20031214D02*
X2397429Y-20016929D01*
X2383143Y-19988357D01*
X2383143Y-19731214D01*
X2768857Y-20031214D02*
X2768857Y-19731214D01*
X2868857Y-19945500D01*
X2968857Y-19731214D01*
X2968857Y-20031214D01*
X3240286Y-20031214D02*
X3240286Y-19874072D01*
X3226000Y-19845500D01*
X3197428Y-19831214D01*
X3140286Y-19831214D01*
X3111714Y-19845500D01*
X3240286Y-20016929D02*
X3211714Y-20031214D01*
X3140286Y-20031214D01*
X3111714Y-20016929D01*
X3097428Y-19988357D01*
X3097428Y-19959786D01*
X3111714Y-19931214D01*
X3140286Y-19916929D01*
X3211714Y-19916929D01*
X3240286Y-19902643D01*
X3383143Y-19831214D02*
X3383143Y-20131214D01*
X3383143Y-19845500D02*
X3411714Y-19831214D01*
X3468857Y-19831214D01*
X3497428Y-19845500D01*
X3511714Y-19859786D01*
X3526000Y-19888357D01*
X3526000Y-19974072D01*
X3511714Y-20002643D01*
X3497428Y-20016929D01*
X3468857Y-20031214D01*
X3411714Y-20031214D01*
X3383143Y-20016929D01*
X3654571Y-20002643D02*
X3668857Y-20016929D01*
X3654571Y-20031214D01*
X3640286Y-20016929D01*
X3654571Y-20002643D01*
X3654571Y-20031214D01*
X3654571Y-19845500D02*
X3668857Y-19859786D01*
X3654571Y-19874072D01*
X3640286Y-19859786D01*
X3654571Y-19845500D01*
X3654571Y-19874072D01*
X1249800Y-20487400D02*
X1326000Y-20563600D01*
X1326000Y-20487400D02*
X1249800Y-20563600D01*
X1654571Y-20361214D02*
X1683143Y-20361214D01*
X1711714Y-20375500D01*
X1726000Y-20389786D01*
X1740286Y-20418357D01*
X1754571Y-20475500D01*
X1754571Y-20546929D01*
X1740286Y-20604072D01*
X1726000Y-20632643D01*
X1711714Y-20646929D01*
X1683143Y-20661214D01*
X1654571Y-20661214D01*
X1626000Y-20646929D01*
X1611714Y-20632643D01*
X1597428Y-20604072D01*
X1583143Y-20546929D01*
X1583143Y-20475500D01*
X1597428Y-20418357D01*
X1611714Y-20389786D01*
X1626000Y-20375500D01*
X1654571Y-20361214D01*
X1883143Y-20632643D02*
X1897428Y-20646929D01*
X1883143Y-20661214D01*
X1868857Y-20646929D01*
X1883143Y-20632643D01*
X1883143Y-20661214D01*
X1997428Y-20361214D02*
X2197428Y-20361214D01*
X2068857Y-20661214D01*
X2440286Y-20361214D02*
X2383143Y-20361214D01*
X2354571Y-20375500D01*
X2340286Y-20389786D01*
X2311714Y-20432643D01*
X2297429Y-20489786D01*
X2297429Y-20604072D01*
X2311714Y-20632643D01*
X2326000Y-20646929D01*
X2354571Y-20661214D01*
X2411714Y-20661214D01*
X2440286Y-20646929D01*
X2454571Y-20632643D01*
X2468857Y-20604072D01*
X2468857Y-20532643D01*
X2454571Y-20504072D01*
X2440286Y-20489786D01*
X2411714Y-20475500D01*
X2354571Y-20475500D01*
X2326000Y-20489786D01*
X2311714Y-20504072D01*
X2297429Y-20532643D01*
X2597429Y-20661214D02*
X2597429Y-20461214D01*
X2597429Y-20489786D02*
X2611714Y-20475500D01*
X2640286Y-20461214D01*
X2683143Y-20461214D01*
X2711714Y-20475500D01*
X2726000Y-20504072D01*
X2726000Y-20661214D01*
X2726000Y-20504072D02*
X2740286Y-20475500D01*
X2768857Y-20461214D01*
X2811714Y-20461214D01*
X2840286Y-20475500D01*
X2854571Y-20504072D01*
X2854571Y-20661214D01*
X2997428Y-20661214D02*
X2997428Y-20461214D01*
X2997428Y-20489786D02*
X3011714Y-20475500D01*
X3040286Y-20461214D01*
X3083143Y-20461214D01*
X3111714Y-20475500D01*
X3126000Y-20504072D01*
X3126000Y-20661214D01*
X3126000Y-20504072D02*
X3140286Y-20475500D01*
X3168857Y-20461214D01*
X3211714Y-20461214D01*
X3240286Y-20475500D01*
X3254571Y-20504072D01*
X3254571Y-20661214D01*
X3840286Y-20346929D02*
X3583143Y-20732643D01*
X4226000Y-20361214D02*
X4254571Y-20361214D01*
X4283143Y-20375500D01*
X4297428Y-20389786D01*
X4311714Y-20418357D01*
X4326000Y-20475500D01*
X4326000Y-20546929D01*
X4311714Y-20604072D01*
X4297428Y-20632643D01*
X4283143Y-20646929D01*
X4254571Y-20661214D01*
X4226000Y-20661214D01*
X4197428Y-20646929D01*
X4183143Y-20632643D01*
X4168857Y-20604072D01*
X4154571Y-20546929D01*
X4154571Y-20475500D01*
X4168857Y-20418357D01*
X4183143Y-20389786D01*
X4197428Y-20375500D01*
X4226000Y-20361214D01*
X4454571Y-20632643D02*
X4468857Y-20646929D01*
X4454571Y-20661214D01*
X4440286Y-20646929D01*
X4454571Y-20632643D01*
X4454571Y-20661214D01*
X4654571Y-20361214D02*
X4683143Y-20361214D01*
X4711714Y-20375500D01*
X4726000Y-20389786D01*
X4740286Y-20418357D01*
X4754571Y-20475500D01*
X4754571Y-20546929D01*
X4740286Y-20604072D01*
X4726000Y-20632643D01*
X4711714Y-20646929D01*
X4683143Y-20661214D01*
X4654571Y-20661214D01*
X4626000Y-20646929D01*
X4611714Y-20632643D01*
X4597428Y-20604072D01*
X4583143Y-20546929D01*
X4583143Y-20475500D01*
X4597428Y-20418357D01*
X4611714Y-20389786D01*
X4626000Y-20375500D01*
X4654571Y-20361214D01*
X4854571Y-20361214D02*
X5040286Y-20361214D01*
X4940286Y-20475500D01*
X4983143Y-20475500D01*
X5011714Y-20489786D01*
X5026000Y-20504072D01*
X5040286Y-20532643D01*
X5040286Y-20604072D01*
X5026000Y-20632643D01*
X5011714Y-20646929D01*
X4983143Y-20661214D01*
X4897428Y-20661214D01*
X4868857Y-20646929D01*
X4854571Y-20632643D01*
X5226000Y-20361214D02*
X5254571Y-20361214D01*
X5283143Y-20375500D01*
X5297428Y-20389786D01*
X5311714Y-20418357D01*
X5326000Y-20475500D01*
X5326000Y-20546929D01*
X5311714Y-20604072D01*
X5297428Y-20632643D01*
X5283143Y-20646929D01*
X5254571Y-20661214D01*
X5226000Y-20661214D01*
X5197428Y-20646929D01*
X5183143Y-20632643D01*
X5168857Y-20604072D01*
X5154571Y-20546929D01*
X5154571Y-20475500D01*
X5168857Y-20418357D01*
X5183143Y-20389786D01*
X5197428Y-20375500D01*
X5226000Y-20361214D01*
X5440286Y-20361214D02*
X5440286Y-20418357D01*
X5554571Y-20361214D02*
X5554571Y-20418357D01*
X5997428Y-20775500D02*
X5983143Y-20761214D01*
X5954571Y-20718357D01*
X5940285Y-20689786D01*
X5926000Y-20646929D01*
X5911714Y-20575500D01*
X5911714Y-20518357D01*
X5926000Y-20446929D01*
X5940285Y-20404072D01*
X5954571Y-20375500D01*
X5983143Y-20332643D01*
X5997428Y-20318357D01*
X6268857Y-20661214D02*
X6097428Y-20661214D01*
X6183143Y-20661214D02*
X6183143Y-20361214D01*
X6154571Y-20404072D01*
X6126000Y-20432643D01*
X6097428Y-20446929D01*
X6440285Y-20489786D02*
X6411714Y-20475500D01*
X6397428Y-20461214D01*
X6383143Y-20432643D01*
X6383143Y-20418357D01*
X6397428Y-20389786D01*
X6411714Y-20375500D01*
X6440285Y-20361214D01*
X6497428Y-20361214D01*
X6526000Y-20375500D01*
X6540285Y-20389786D01*
X6554571Y-20418357D01*
X6554571Y-20432643D01*
X6540285Y-20461214D01*
X6526000Y-20475500D01*
X6497428Y-20489786D01*
X6440285Y-20489786D01*
X6411714Y-20504072D01*
X6397428Y-20518357D01*
X6383143Y-20546929D01*
X6383143Y-20604072D01*
X6397428Y-20632643D01*
X6411714Y-20646929D01*
X6440285Y-20661214D01*
X6497428Y-20661214D01*
X6526000Y-20646929D01*
X6540285Y-20632643D01*
X6554571Y-20604072D01*
X6554571Y-20546929D01*
X6540285Y-20518357D01*
X6526000Y-20504072D01*
X6497428Y-20489786D01*
X6811714Y-20361214D02*
X6754571Y-20361214D01*
X6726000Y-20375500D01*
X6711714Y-20389786D01*
X6683143Y-20432643D01*
X6668857Y-20489786D01*
X6668857Y-20604072D01*
X6683143Y-20632643D01*
X6697428Y-20646929D01*
X6726000Y-20661214D01*
X6783143Y-20661214D01*
X6811714Y-20646929D01*
X6826000Y-20632643D01*
X6840285Y-20604072D01*
X6840285Y-20532643D01*
X6826000Y-20504072D01*
X6811714Y-20489786D01*
X6783143Y-20475500D01*
X6726000Y-20475500D01*
X6697428Y-20489786D01*
X6683143Y-20504072D01*
X6668857Y-20532643D01*
X7197428Y-20661214D02*
X7197428Y-20361214D01*
X7326000Y-20661214D02*
X7326000Y-20504072D01*
X7311714Y-20475500D01*
X7283143Y-20461214D01*
X7240285Y-20461214D01*
X7211714Y-20475500D01*
X7197428Y-20489786D01*
X7511714Y-20661214D02*
X7483143Y-20646929D01*
X7468857Y-20632643D01*
X7454571Y-20604072D01*
X7454571Y-20518357D01*
X7468857Y-20489786D01*
X7483143Y-20475500D01*
X7511714Y-20461214D01*
X7554571Y-20461214D01*
X7583143Y-20475500D01*
X7597428Y-20489786D01*
X7611714Y-20518357D01*
X7611714Y-20604072D01*
X7597428Y-20632643D01*
X7583143Y-20646929D01*
X7554571Y-20661214D01*
X7511714Y-20661214D01*
X7783143Y-20661214D02*
X7754571Y-20646929D01*
X7740286Y-20618357D01*
X7740286Y-20361214D01*
X8011714Y-20646929D02*
X7983143Y-20661214D01*
X7926000Y-20661214D01*
X7897428Y-20646929D01*
X7883143Y-20618357D01*
X7883143Y-20504072D01*
X7897428Y-20475500D01*
X7926000Y-20461214D01*
X7983143Y-20461214D01*
X8011714Y-20475500D01*
X8026000Y-20504072D01*
X8026000Y-20532643D01*
X7883143Y-20561214D01*
X8140286Y-20646929D02*
X8168857Y-20661214D01*
X8226000Y-20661214D01*
X8254571Y-20646929D01*
X8268857Y-20618357D01*
X8268857Y-20604072D01*
X8254571Y-20575500D01*
X8226000Y-20561214D01*
X8183143Y-20561214D01*
X8154571Y-20546929D01*
X8140286Y-20518357D01*
X8140286Y-20504072D01*
X8154571Y-20475500D01*
X8183143Y-20461214D01*
X8226000Y-20461214D01*
X8254571Y-20475500D01*
X8368857Y-20775500D02*
X8383143Y-20761214D01*
X8411714Y-20718357D01*
X8426000Y-20689786D01*
X8440286Y-20646929D01*
X8454571Y-20575500D01*
X8454571Y-20518357D01*
X8440286Y-20446929D01*
X8426000Y-20404072D01*
X8411714Y-20375500D01*
X8383143Y-20332643D01*
X8368857Y-20318357D01*
X1326000Y-20921500D02*
G75*
G03X1326000Y-20921500I-45000J0D01*
G01*
X1654571Y-20757214D02*
X1683143Y-20757214D01*
X1711714Y-20771500D01*
X1726000Y-20785786D01*
X1740286Y-20814357D01*
X1754571Y-20871500D01*
X1754571Y-20942929D01*
X1740286Y-21000072D01*
X1726000Y-21028643D01*
X1711714Y-21042929D01*
X1683143Y-21057214D01*
X1654571Y-21057214D01*
X1626000Y-21042929D01*
X1611714Y-21028643D01*
X1597428Y-21000072D01*
X1583143Y-20942929D01*
X1583143Y-20871500D01*
X1597428Y-20814357D01*
X1611714Y-20785786D01*
X1626000Y-20771500D01*
X1654571Y-20757214D01*
X1883143Y-21028643D02*
X1897428Y-21042929D01*
X1883143Y-21057214D01*
X1868857Y-21042929D01*
X1883143Y-21028643D01*
X1883143Y-21057214D01*
X2040286Y-21057214D02*
X2097428Y-21057214D01*
X2126000Y-21042929D01*
X2140286Y-21028643D01*
X2168857Y-20985786D01*
X2183143Y-20928643D01*
X2183143Y-20814357D01*
X2168857Y-20785786D01*
X2154571Y-20771500D01*
X2126000Y-20757214D01*
X2068857Y-20757214D01*
X2040286Y-20771500D01*
X2026000Y-20785786D01*
X2011714Y-20814357D01*
X2011714Y-20885786D01*
X2026000Y-20914357D01*
X2040286Y-20928643D01*
X2068857Y-20942929D01*
X2126000Y-20942929D01*
X2154571Y-20928643D01*
X2168857Y-20914357D01*
X2183143Y-20885786D01*
X2368857Y-20757214D02*
X2397429Y-20757214D01*
X2426000Y-20771500D01*
X2440286Y-20785786D01*
X2454571Y-20814357D01*
X2468857Y-20871500D01*
X2468857Y-20942929D01*
X2454571Y-21000072D01*
X2440286Y-21028643D01*
X2426000Y-21042929D01*
X2397429Y-21057214D01*
X2368857Y-21057214D01*
X2340286Y-21042929D01*
X2326000Y-21028643D01*
X2311714Y-21000072D01*
X2297429Y-20942929D01*
X2297429Y-20871500D01*
X2311714Y-20814357D01*
X2326000Y-20785786D01*
X2340286Y-20771500D01*
X2368857Y-20757214D01*
X2597429Y-21057214D02*
X2597429Y-20857214D01*
X2597429Y-20885786D02*
X2611714Y-20871500D01*
X2640286Y-20857214D01*
X2683143Y-20857214D01*
X2711714Y-20871500D01*
X2726000Y-20900072D01*
X2726000Y-21057214D01*
X2726000Y-20900072D02*
X2740286Y-20871500D01*
X2768857Y-20857214D01*
X2811714Y-20857214D01*
X2840286Y-20871500D01*
X2854571Y-20900072D01*
X2854571Y-21057214D01*
X2997428Y-21057214D02*
X2997428Y-20857214D01*
X2997428Y-20885786D02*
X3011714Y-20871500D01*
X3040286Y-20857214D01*
X3083143Y-20857214D01*
X3111714Y-20871500D01*
X3126000Y-20900072D01*
X3126000Y-21057214D01*
X3126000Y-20900072D02*
X3140286Y-20871500D01*
X3168857Y-20857214D01*
X3211714Y-20857214D01*
X3240286Y-20871500D01*
X3254571Y-20900072D01*
X3254571Y-21057214D01*
X3840286Y-20742929D02*
X3583143Y-21128643D01*
X4226000Y-20757214D02*
X4254571Y-20757214D01*
X4283143Y-20771500D01*
X4297428Y-20785786D01*
X4311714Y-20814357D01*
X4326000Y-20871500D01*
X4326000Y-20942929D01*
X4311714Y-21000072D01*
X4297428Y-21028643D01*
X4283143Y-21042929D01*
X4254571Y-21057214D01*
X4226000Y-21057214D01*
X4197428Y-21042929D01*
X4183143Y-21028643D01*
X4168857Y-21000072D01*
X4154571Y-20942929D01*
X4154571Y-20871500D01*
X4168857Y-20814357D01*
X4183143Y-20785786D01*
X4197428Y-20771500D01*
X4226000Y-20757214D01*
X4454571Y-21028643D02*
X4468857Y-21042929D01*
X4454571Y-21057214D01*
X4440286Y-21042929D01*
X4454571Y-21028643D01*
X4454571Y-21057214D01*
X4654571Y-20757214D02*
X4683143Y-20757214D01*
X4711714Y-20771500D01*
X4726000Y-20785786D01*
X4740286Y-20814357D01*
X4754571Y-20871500D01*
X4754571Y-20942929D01*
X4740286Y-21000072D01*
X4726000Y-21028643D01*
X4711714Y-21042929D01*
X4683143Y-21057214D01*
X4654571Y-21057214D01*
X4626000Y-21042929D01*
X4611714Y-21028643D01*
X4597428Y-21000072D01*
X4583143Y-20942929D01*
X4583143Y-20871500D01*
X4597428Y-20814357D01*
X4611714Y-20785786D01*
X4626000Y-20771500D01*
X4654571Y-20757214D01*
X4854571Y-20757214D02*
X5040286Y-20757214D01*
X4940286Y-20871500D01*
X4983143Y-20871500D01*
X5011714Y-20885786D01*
X5026000Y-20900072D01*
X5040286Y-20928643D01*
X5040286Y-21000072D01*
X5026000Y-21028643D01*
X5011714Y-21042929D01*
X4983143Y-21057214D01*
X4897428Y-21057214D01*
X4868857Y-21042929D01*
X4854571Y-21028643D01*
X5311714Y-20757214D02*
X5168857Y-20757214D01*
X5154571Y-20900072D01*
X5168857Y-20885786D01*
X5197428Y-20871500D01*
X5268857Y-20871500D01*
X5297428Y-20885786D01*
X5311714Y-20900072D01*
X5326000Y-20928643D01*
X5326000Y-21000072D01*
X5311714Y-21028643D01*
X5297428Y-21042929D01*
X5268857Y-21057214D01*
X5197428Y-21057214D01*
X5168857Y-21042929D01*
X5154571Y-21028643D01*
X5440286Y-20757214D02*
X5440286Y-20814357D01*
X5554571Y-20757214D02*
X5554571Y-20814357D01*
X5997428Y-21171500D02*
X5983143Y-21157214D01*
X5954571Y-21114357D01*
X5940285Y-21085786D01*
X5926000Y-21042929D01*
X5911714Y-20971500D01*
X5911714Y-20914357D01*
X5926000Y-20842929D01*
X5940285Y-20800072D01*
X5954571Y-20771500D01*
X5983143Y-20728643D01*
X5997428Y-20714357D01*
X6154571Y-20885786D02*
X6126000Y-20871500D01*
X6111714Y-20857214D01*
X6097428Y-20828643D01*
X6097428Y-20814357D01*
X6111714Y-20785786D01*
X6126000Y-20771500D01*
X6154571Y-20757214D01*
X6211714Y-20757214D01*
X6240285Y-20771500D01*
X6254571Y-20785786D01*
X6268857Y-20814357D01*
X6268857Y-20828643D01*
X6254571Y-20857214D01*
X6240285Y-20871500D01*
X6211714Y-20885786D01*
X6154571Y-20885786D01*
X6126000Y-20900072D01*
X6111714Y-20914357D01*
X6097428Y-20942929D01*
X6097428Y-21000072D01*
X6111714Y-21028643D01*
X6126000Y-21042929D01*
X6154571Y-21057214D01*
X6211714Y-21057214D01*
X6240285Y-21042929D01*
X6254571Y-21028643D01*
X6268857Y-21000072D01*
X6268857Y-20942929D01*
X6254571Y-20914357D01*
X6240285Y-20900072D01*
X6211714Y-20885786D01*
X6454571Y-20757214D02*
X6483143Y-20757214D01*
X6511714Y-20771500D01*
X6526000Y-20785786D01*
X6540285Y-20814357D01*
X6554571Y-20871500D01*
X6554571Y-20942929D01*
X6540285Y-21000072D01*
X6526000Y-21028643D01*
X6511714Y-21042929D01*
X6483143Y-21057214D01*
X6454571Y-21057214D01*
X6426000Y-21042929D01*
X6411714Y-21028643D01*
X6397428Y-21000072D01*
X6383143Y-20942929D01*
X6383143Y-20871500D01*
X6397428Y-20814357D01*
X6411714Y-20785786D01*
X6426000Y-20771500D01*
X6454571Y-20757214D01*
X6811714Y-20857214D02*
X6811714Y-21057214D01*
X6740285Y-20742929D02*
X6668857Y-20957214D01*
X6854571Y-20957214D01*
X7197428Y-21057214D02*
X7197428Y-20757214D01*
X7326000Y-21057214D02*
X7326000Y-20900072D01*
X7311714Y-20871500D01*
X7283143Y-20857214D01*
X7240285Y-20857214D01*
X7211714Y-20871500D01*
X7197428Y-20885786D01*
X7511714Y-21057214D02*
X7483143Y-21042929D01*
X7468857Y-21028643D01*
X7454571Y-21000072D01*
X7454571Y-20914357D01*
X7468857Y-20885786D01*
X7483143Y-20871500D01*
X7511714Y-20857214D01*
X7554571Y-20857214D01*
X7583143Y-20871500D01*
X7597428Y-20885786D01*
X7611714Y-20914357D01*
X7611714Y-21000072D01*
X7597428Y-21028643D01*
X7583143Y-21042929D01*
X7554571Y-21057214D01*
X7511714Y-21057214D01*
X7783143Y-21057214D02*
X7754571Y-21042929D01*
X7740286Y-21014357D01*
X7740286Y-20757214D01*
X8011714Y-21042929D02*
X7983143Y-21057214D01*
X7926000Y-21057214D01*
X7897428Y-21042929D01*
X7883143Y-21014357D01*
X7883143Y-20900072D01*
X7897428Y-20871500D01*
X7926000Y-20857214D01*
X7983143Y-20857214D01*
X8011714Y-20871500D01*
X8026000Y-20900072D01*
X8026000Y-20928643D01*
X7883143Y-20957214D01*
X8140286Y-21042929D02*
X8168857Y-21057214D01*
X8226000Y-21057214D01*
X8254571Y-21042929D01*
X8268857Y-21014357D01*
X8268857Y-21000072D01*
X8254571Y-20971500D01*
X8226000Y-20957214D01*
X8183143Y-20957214D01*
X8154571Y-20942929D01*
X8140286Y-20914357D01*
X8140286Y-20900072D01*
X8154571Y-20871500D01*
X8183143Y-20857214D01*
X8226000Y-20857214D01*
X8254571Y-20871500D01*
X8368857Y-21171500D02*
X8383143Y-21157214D01*
X8411714Y-21114357D01*
X8426000Y-21085786D01*
X8440286Y-21042929D01*
X8454571Y-20971500D01*
X8454571Y-20914357D01*
X8440286Y-20842929D01*
X8426000Y-20800072D01*
X8411714Y-20771500D01*
X8383143Y-20728643D01*
X8368857Y-20714357D01*
M02*
