M48
;DRILL file {KiCad 4.0.7-e2-6376~58~ubuntu16.04.1} date Mon Dec 10 15:36:57 2018
;FORMAT={-:-/ absolute / metric / decimal}
FMAT,2
METRIC,TZ
T1C0.762
T2C0.900
%
G90
G05
M71
T1
X33.655Y-70.485
X33.655Y-73.025
X33.655Y-154.305
X33.655Y-156.845
X36.195Y-70.485
X36.195Y-73.025
X36.195Y-154.305
X36.195Y-156.845
X38.735Y-70.485
X38.735Y-73.025
X38.735Y-154.305
X38.735Y-156.845
X41.275Y-70.485
X41.275Y-73.025
X41.275Y-154.305
X41.275Y-156.845
X43.815Y-70.485
X43.815Y-73.025
X43.815Y-154.305
X43.815Y-156.845
X46.355Y-70.485
X46.355Y-154.305
X48.895Y-70.485
X48.895Y-154.305
X56.515Y-73.025
X56.515Y-156.845
X59.055Y-73.025
X59.055Y-156.845
X61.595Y-70.485
X61.595Y-73.025
X61.595Y-154.305
X61.595Y-156.845
X64.135Y-70.485
X64.135Y-154.305
X66.675Y-70.485
X66.675Y-73.025
X66.675Y-154.305
X66.675Y-156.845
X69.215Y-70.485
X69.215Y-73.025
X69.215Y-154.305
X69.215Y-156.845
X71.755Y-70.485
X71.755Y-73.025
X71.755Y-154.305
X71.755Y-156.845
X74.295Y-70.485
X74.295Y-73.025
X74.295Y-154.305
X74.295Y-156.845
X76.835Y-70.485
X76.835Y-73.025
X76.835Y-154.305
X76.835Y-156.845
X79.375Y-70.485
X79.375Y-73.025
X79.375Y-154.305
X79.375Y-156.845
X81.915Y-70.485
X81.915Y-73.025
X81.915Y-154.305
X81.915Y-156.845
X108.585Y-70.485
X108.585Y-73.025
X108.585Y-154.305
X108.585Y-156.845
X111.125Y-70.485
X111.125Y-73.025
X111.125Y-154.305
X111.125Y-156.845
X113.665Y-70.485
X113.665Y-73.025
X113.665Y-154.305
X113.665Y-156.845
X116.205Y-70.485
X116.205Y-73.025
X116.205Y-154.305
X116.205Y-156.845
X118.745Y-70.485
X118.745Y-73.025
X118.745Y-154.305
X118.745Y-156.845
X121.285Y-70.485
X121.285Y-154.305
X123.825Y-70.485
X123.825Y-154.305
X131.445Y-73.025
X131.445Y-156.845
X133.985Y-73.025
X133.985Y-156.845
X136.525Y-70.485
X136.525Y-73.025
X136.525Y-154.305
X136.525Y-156.845
X139.065Y-70.485
X139.065Y-154.305
X141.605Y-70.485
X141.605Y-73.025
X141.605Y-154.305
X141.605Y-156.845
X144.145Y-70.485
X144.145Y-73.025
X144.145Y-154.305
X144.145Y-156.845
X146.685Y-70.485
X146.685Y-73.025
X146.685Y-154.305
X146.685Y-156.845
X149.225Y-70.485
X149.225Y-73.025
X149.225Y-154.305
X149.225Y-156.845
X151.765Y-70.485
X151.765Y-73.025
X151.765Y-154.305
X151.765Y-156.845
X154.305Y-70.485
X154.305Y-73.025
X154.305Y-154.305
X154.305Y-156.845
X156.845Y-70.485
X156.845Y-73.025
X156.845Y-154.305
X156.845Y-156.845
X183.515Y-70.485
X183.515Y-73.025
X183.515Y-154.305
X183.515Y-156.845
X186.055Y-70.485
X186.055Y-73.025
X186.055Y-154.305
X186.055Y-156.845
X188.595Y-70.485
X188.595Y-73.025
X188.595Y-154.305
X188.595Y-156.845
X191.135Y-70.485
X191.135Y-73.025
X191.135Y-154.305
X191.135Y-156.845
X193.675Y-70.485
X193.675Y-73.025
X193.675Y-154.305
X193.675Y-156.845
X196.215Y-70.485
X196.215Y-154.305
X198.755Y-70.485
X198.755Y-154.305
X206.375Y-73.025
X206.375Y-156.845
X208.915Y-73.025
X208.915Y-156.845
X211.455Y-70.485
X211.455Y-73.025
X211.455Y-154.305
X211.455Y-156.845
X213.995Y-70.485
X213.995Y-154.305
X216.535Y-70.485
X216.535Y-73.025
X216.535Y-154.305
X216.535Y-156.845
X219.075Y-70.485
X219.075Y-73.025
X219.075Y-154.305
X219.075Y-156.845
X221.615Y-70.485
X221.615Y-73.025
X221.615Y-154.305
X221.615Y-156.845
X224.155Y-70.485
X224.155Y-73.025
X224.155Y-154.305
X224.155Y-156.845
X226.695Y-70.485
X226.695Y-73.025
X226.695Y-154.305
X226.695Y-156.845
X229.235Y-70.485
X229.235Y-73.025
X229.235Y-154.305
X229.235Y-156.845
X231.775Y-70.485
X231.775Y-73.025
X231.775Y-154.305
X231.775Y-156.845
T2
X31.75Y-43.18
X31.75Y-46.99
X31.75Y-57.15
X31.75Y-62.23
X31.75Y-127.
X31.75Y-130.81
X31.75Y-140.97
X31.75Y-146.05
X33.033Y-89.588
X33.033Y-173.408
X33.033Y-86.413
X33.033Y-170.233
X33.655Y-78.105
X33.655Y-161.925
X34.29Y-34.29
X34.29Y-43.18
X34.29Y-46.99
X34.29Y-57.15
X34.29Y-62.23
X34.29Y-118.11
X34.29Y-127.
X34.29Y-130.81
X34.29Y-140.97
X34.29Y-146.05
X35.573Y-89.588
X35.573Y-173.408
X35.573Y-86.413
X35.573Y-170.233
X36.195Y-78.105
X36.195Y-161.925
X36.83Y-34.29
X36.83Y-43.18
X36.83Y-46.99
X36.83Y-57.15
X36.83Y-62.23
X36.83Y-118.11
X36.83Y-127.
X36.83Y-130.81
X36.83Y-140.97
X36.83Y-146.05
X38.113Y-89.588
X38.113Y-173.408
X38.113Y-86.413
X38.113Y-170.233
X38.735Y-78.105
X38.735Y-161.925
X39.37Y-34.29
X39.37Y-43.18
X39.37Y-62.23
X39.37Y-118.11
X39.37Y-127.
X39.37Y-146.05
X41.275Y-78.105
X41.275Y-161.925
X41.91Y-34.29
X41.91Y-62.23
X41.91Y-118.11
X41.91Y-146.05
X43.815Y-78.105
X43.815Y-161.925
X44.45Y-34.29
X44.45Y-62.23
X44.45Y-118.11
X44.45Y-146.05
X45.72Y-52.705
X45.72Y-136.525
X46.355Y-78.105
X46.355Y-161.925
X46.99Y-34.29
X46.99Y-62.23
X46.99Y-118.11
X46.99Y-146.05
X48.895Y-78.105
X48.895Y-161.925
X49.53Y-34.29
X49.53Y-62.23
X49.53Y-118.11
X49.53Y-146.05
X52.07Y-34.29
X52.07Y-118.11
X52.705Y-30.48
X52.705Y-43.18
X52.705Y-62.23
X52.705Y-114.3
X52.705Y-127.
X52.705Y-146.05
X53.34Y-52.705
X53.34Y-136.525
X53.975Y-78.105
X53.975Y-161.925
X54.61Y-34.29
X54.61Y-118.11
X55.245Y-30.48
X55.245Y-43.18
X55.245Y-62.23
X55.245Y-114.3
X55.245Y-127.
X55.245Y-146.05
X56.515Y-78.105
X56.515Y-161.925
X57.126Y-88.335
X57.126Y-172.155
X57.15Y-34.29
X57.15Y-57.785
X57.15Y-118.11
X57.15Y-141.605
X57.785Y-30.48
X57.785Y-43.18
X57.785Y-62.23
X57.785Y-114.3
X57.785Y-127.
X57.785Y-146.05
X58.26Y-85.725
X58.26Y-169.545
X59.055Y-52.705
X59.055Y-78.105
X59.055Y-136.525
X59.055Y-161.925
X59.666Y-88.335
X59.666Y-172.155
X59.69Y-34.29
X59.69Y-118.11
X60.06Y-85.725
X60.06Y-169.545
X60.325Y-30.48
X60.325Y-43.18
X60.325Y-62.23
X60.325Y-114.3
X60.325Y-127.
X60.325Y-146.05
X61.512Y-46.907
X61.512Y-130.727
X61.595Y-52.705
X61.595Y-78.105
X61.595Y-136.525
X61.595Y-161.925
X61.86Y-85.725
X61.86Y-169.545
X62.206Y-88.335
X62.206Y-172.155
X62.23Y-34.29
X62.23Y-118.11
X62.865Y-30.48
X62.865Y-43.18
X62.865Y-62.23
X62.865Y-114.3
X62.865Y-127.
X62.865Y-146.05
X62.948Y-48.343
X62.948Y-132.163
X63.66Y-85.725
X63.66Y-169.545
X64.135Y-52.705
X64.135Y-78.105
X64.135Y-136.525
X64.135Y-161.925
X64.746Y-88.335
X64.746Y-172.155
X64.77Y-34.29
X64.77Y-118.11
X65.405Y-30.48
X65.405Y-43.18
X65.405Y-62.23
X65.405Y-114.3
X65.405Y-127.
X65.405Y-146.05
X66.675Y-78.105
X66.675Y-161.925
X67.31Y-34.29
X67.31Y-49.53
X67.31Y-54.61
X67.31Y-57.785
X67.31Y-118.11
X67.31Y-133.35
X67.31Y-138.43
X67.31Y-141.605
X67.945Y-30.48
X67.945Y-43.18
X67.945Y-62.23
X67.945Y-114.3
X67.945Y-127.
X67.945Y-146.05
X69.215Y-78.105
X69.215Y-161.925
X69.85Y-34.29
X69.85Y-49.53
X69.85Y-54.61
X69.85Y-118.11
X69.85Y-133.35
X69.85Y-138.43
X71.12Y-43.18
X71.12Y-127.
X71.755Y-78.105
X71.755Y-161.925
X72.39Y-34.29
X72.39Y-118.11
X73.66Y-43.18
X73.66Y-127.
X74.295Y-59.055
X74.295Y-81.28
X74.295Y-86.36
X74.295Y-142.875
X74.295Y-165.1
X74.295Y-170.18
X74.93Y-34.29
X74.93Y-49.53
X74.93Y-54.61
X74.93Y-118.11
X74.93Y-133.35
X74.93Y-138.43
X76.2Y-43.18
X76.2Y-127.
X76.835Y-59.055
X76.835Y-76.2
X76.835Y-78.74
X76.835Y-83.82
X76.835Y-86.36
X76.835Y-88.9
X76.835Y-91.44
X76.835Y-142.875
X76.835Y-160.02
X76.835Y-162.56
X76.835Y-167.64
X76.835Y-170.18
X76.835Y-172.72
X76.835Y-175.26
X77.47Y-34.29
X77.47Y-49.53
X77.47Y-54.61
X77.47Y-118.11
X77.47Y-133.35
X77.47Y-138.43
X78.105Y-93.98
X78.105Y-177.8
X79.375Y-59.055
X79.375Y-142.875
X80.01Y-34.29
X80.01Y-49.53
X80.01Y-54.61
X80.01Y-118.11
X80.01Y-133.35
X80.01Y-138.43
X80.645Y-93.98
X80.645Y-177.8
X81.915Y-59.055
X81.915Y-76.2
X81.915Y-78.74
X81.915Y-83.82
X81.915Y-86.36
X81.915Y-88.9
X81.915Y-91.44
X81.915Y-142.875
X81.915Y-160.02
X81.915Y-162.56
X81.915Y-167.64
X81.915Y-170.18
X81.915Y-172.72
X81.915Y-175.26
X82.55Y-34.29
X82.55Y-49.53
X82.55Y-54.61
X82.55Y-118.11
X82.55Y-133.35
X82.55Y-138.43
X85.09Y-49.53
X85.09Y-54.61
X85.09Y-133.35
X85.09Y-138.43
X106.68Y-43.18
X106.68Y-46.99
X106.68Y-57.15
X106.68Y-62.23
X106.68Y-127.
X106.68Y-130.81
X106.68Y-140.97
X106.68Y-146.05
X107.963Y-89.588
X107.963Y-173.408
X107.963Y-86.413
X107.963Y-170.233
X108.585Y-78.105
X108.585Y-161.925
X109.22Y-34.29
X109.22Y-43.18
X109.22Y-46.99
X109.22Y-57.15
X109.22Y-62.23
X109.22Y-118.11
X109.22Y-127.
X109.22Y-130.81
X109.22Y-140.97
X109.22Y-146.05
X110.503Y-89.588
X110.503Y-173.408
X110.503Y-86.413
X110.503Y-170.233
X111.125Y-78.105
X111.125Y-161.925
X111.76Y-34.29
X111.76Y-43.18
X111.76Y-46.99
X111.76Y-57.15
X111.76Y-62.23
X111.76Y-118.11
X111.76Y-127.
X111.76Y-130.81
X111.76Y-140.97
X111.76Y-146.05
X113.043Y-89.588
X113.043Y-173.408
X113.043Y-86.413
X113.043Y-170.233
X113.665Y-78.105
X113.665Y-161.925
X114.3Y-34.29
X114.3Y-43.18
X114.3Y-62.23
X114.3Y-118.11
X114.3Y-127.
X114.3Y-146.05
X116.205Y-78.105
X116.205Y-161.925
X116.84Y-34.29
X116.84Y-62.23
X116.84Y-118.11
X116.84Y-146.05
X118.745Y-78.105
X118.745Y-161.925
X119.38Y-34.29
X119.38Y-62.23
X119.38Y-118.11
X119.38Y-146.05
X120.65Y-52.705
X120.65Y-136.525
X121.285Y-78.105
X121.285Y-161.925
X121.92Y-34.29
X121.92Y-62.23
X121.92Y-118.11
X121.92Y-146.05
X123.825Y-78.105
X123.825Y-161.925
X124.46Y-34.29
X124.46Y-62.23
X124.46Y-118.11
X124.46Y-146.05
X127.Y-34.29
X127.Y-118.11
X127.635Y-30.48
X127.635Y-43.18
X127.635Y-62.23
X127.635Y-114.3
X127.635Y-127.
X127.635Y-146.05
X128.27Y-52.705
X128.27Y-136.525
X128.905Y-78.105
X128.905Y-161.925
X129.54Y-34.29
X129.54Y-118.11
X130.175Y-30.48
X130.175Y-43.18
X130.175Y-62.23
X130.175Y-114.3
X130.175Y-127.
X130.175Y-146.05
X131.445Y-78.105
X131.445Y-161.925
X132.056Y-88.335
X132.056Y-172.155
X132.08Y-34.29
X132.08Y-57.785
X132.08Y-118.11
X132.08Y-141.605
X132.715Y-30.48
X132.715Y-43.18
X132.715Y-62.23
X132.715Y-114.3
X132.715Y-127.
X132.715Y-146.05
X133.19Y-85.725
X133.19Y-169.545
X133.985Y-52.705
X133.985Y-78.105
X133.985Y-136.525
X133.985Y-161.925
X134.596Y-88.335
X134.596Y-172.155
X134.62Y-34.29
X134.62Y-118.11
X134.99Y-85.725
X134.99Y-169.545
X135.255Y-30.48
X135.255Y-43.18
X135.255Y-62.23
X135.255Y-114.3
X135.255Y-127.
X135.255Y-146.05
X136.442Y-46.907
X136.442Y-130.727
X136.525Y-52.705
X136.525Y-78.105
X136.525Y-136.525
X136.525Y-161.925
X136.79Y-85.725
X136.79Y-169.545
X137.136Y-88.335
X137.136Y-172.155
X137.16Y-34.29
X137.16Y-118.11
X137.795Y-30.48
X137.795Y-43.18
X137.795Y-62.23
X137.795Y-114.3
X137.795Y-127.
X137.795Y-146.05
X137.878Y-48.343
X137.878Y-132.163
X138.59Y-85.725
X138.59Y-169.545
X139.065Y-52.705
X139.065Y-78.105
X139.065Y-136.525
X139.065Y-161.925
X139.676Y-88.335
X139.676Y-172.155
X139.7Y-34.29
X139.7Y-118.11
X140.335Y-30.48
X140.335Y-43.18
X140.335Y-62.23
X140.335Y-114.3
X140.335Y-127.
X140.335Y-146.05
X141.605Y-78.105
X141.605Y-161.925
X142.24Y-34.29
X142.24Y-49.53
X142.24Y-54.61
X142.24Y-57.785
X142.24Y-118.11
X142.24Y-133.35
X142.24Y-138.43
X142.24Y-141.605
X142.875Y-30.48
X142.875Y-43.18
X142.875Y-62.23
X142.875Y-114.3
X142.875Y-127.
X142.875Y-146.05
X144.145Y-78.105
X144.145Y-161.925
X144.78Y-34.29
X144.78Y-49.53
X144.78Y-54.61
X144.78Y-118.11
X144.78Y-133.35
X144.78Y-138.43
X146.05Y-43.18
X146.05Y-127.
X146.685Y-78.105
X146.685Y-161.925
X147.32Y-34.29
X147.32Y-118.11
X148.59Y-43.18
X148.59Y-127.
X149.225Y-59.055
X149.225Y-81.28
X149.225Y-86.36
X149.225Y-142.875
X149.225Y-165.1
X149.225Y-170.18
X149.86Y-34.29
X149.86Y-49.53
X149.86Y-54.61
X149.86Y-118.11
X149.86Y-133.35
X149.86Y-138.43
X151.13Y-43.18
X151.13Y-127.
X151.765Y-59.055
X151.765Y-76.2
X151.765Y-78.74
X151.765Y-83.82
X151.765Y-86.36
X151.765Y-88.9
X151.765Y-91.44
X151.765Y-142.875
X151.765Y-160.02
X151.765Y-162.56
X151.765Y-167.64
X151.765Y-170.18
X151.765Y-172.72
X151.765Y-175.26
X152.4Y-34.29
X152.4Y-49.53
X152.4Y-54.61
X152.4Y-118.11
X152.4Y-133.35
X152.4Y-138.43
X153.035Y-93.98
X153.035Y-177.8
X154.305Y-59.055
X154.305Y-142.875
X154.94Y-34.29
X154.94Y-49.53
X154.94Y-54.61
X154.94Y-118.11
X154.94Y-133.35
X154.94Y-138.43
X155.575Y-93.98
X155.575Y-177.8
X156.845Y-59.055
X156.845Y-76.2
X156.845Y-78.74
X156.845Y-83.82
X156.845Y-86.36
X156.845Y-88.9
X156.845Y-91.44
X156.845Y-142.875
X156.845Y-160.02
X156.845Y-162.56
X156.845Y-167.64
X156.845Y-170.18
X156.845Y-172.72
X156.845Y-175.26
X157.48Y-34.29
X157.48Y-49.53
X157.48Y-54.61
X157.48Y-118.11
X157.48Y-133.35
X157.48Y-138.43
X160.02Y-49.53
X160.02Y-54.61
X160.02Y-133.35
X160.02Y-138.43
X181.61Y-43.18
X181.61Y-46.99
X181.61Y-57.15
X181.61Y-62.23
X181.61Y-127.
X181.61Y-130.81
X181.61Y-140.97
X181.61Y-146.05
X182.893Y-89.588
X182.893Y-173.408
X182.893Y-86.413
X182.893Y-170.233
X183.515Y-78.105
X183.515Y-161.925
X184.15Y-34.29
X184.15Y-43.18
X184.15Y-46.99
X184.15Y-57.15
X184.15Y-62.23
X184.15Y-118.11
X184.15Y-127.
X184.15Y-130.81
X184.15Y-140.97
X184.15Y-146.05
X185.433Y-89.588
X185.433Y-173.408
X185.433Y-86.413
X185.433Y-170.233
X186.055Y-78.105
X186.055Y-161.925
X186.69Y-34.29
X186.69Y-43.18
X186.69Y-46.99
X186.69Y-57.15
X186.69Y-62.23
X186.69Y-118.11
X186.69Y-127.
X186.69Y-130.81
X186.69Y-140.97
X186.69Y-146.05
X187.973Y-89.588
X187.973Y-173.408
X187.973Y-86.413
X187.973Y-170.233
X188.595Y-78.105
X188.595Y-161.925
X189.23Y-34.29
X189.23Y-43.18
X189.23Y-62.23
X189.23Y-118.11
X189.23Y-127.
X189.23Y-146.05
X191.135Y-78.105
X191.135Y-161.925
X191.77Y-34.29
X191.77Y-62.23
X191.77Y-118.11
X191.77Y-146.05
X193.675Y-78.105
X193.675Y-161.925
X194.31Y-34.29
X194.31Y-62.23
X194.31Y-118.11
X194.31Y-146.05
X195.58Y-52.705
X195.58Y-136.525
X196.215Y-78.105
X196.215Y-161.925
X196.85Y-34.29
X196.85Y-62.23
X196.85Y-118.11
X196.85Y-146.05
X198.755Y-78.105
X198.755Y-161.925
X199.39Y-34.29
X199.39Y-62.23
X199.39Y-118.11
X199.39Y-146.05
X201.93Y-34.29
X201.93Y-118.11
X202.565Y-30.48
X202.565Y-43.18
X202.565Y-62.23
X202.565Y-114.3
X202.565Y-127.
X202.565Y-146.05
X203.2Y-52.705
X203.2Y-136.525
X203.835Y-78.105
X203.835Y-161.925
X204.47Y-34.29
X204.47Y-118.11
X205.105Y-30.48
X205.105Y-43.18
X205.105Y-62.23
X205.105Y-114.3
X205.105Y-127.
X205.105Y-146.05
X206.375Y-78.105
X206.375Y-161.925
X206.986Y-88.335
X206.986Y-172.155
X207.01Y-34.29
X207.01Y-57.785
X207.01Y-118.11
X207.01Y-141.605
X207.645Y-30.48
X207.645Y-43.18
X207.645Y-62.23
X207.645Y-114.3
X207.645Y-127.
X207.645Y-146.05
X208.12Y-85.725
X208.12Y-169.545
X208.915Y-52.705
X208.915Y-78.105
X208.915Y-136.525
X208.915Y-161.925
X209.526Y-88.335
X209.526Y-172.155
X209.55Y-34.29
X209.55Y-118.11
X209.92Y-85.725
X209.92Y-169.545
X210.185Y-30.48
X210.185Y-43.18
X210.185Y-62.23
X210.185Y-114.3
X210.185Y-127.
X210.185Y-146.05
X211.372Y-46.907
X211.372Y-130.727
X211.455Y-52.705
X211.455Y-78.105
X211.455Y-136.525
X211.455Y-161.925
X211.72Y-85.725
X211.72Y-169.545
X212.066Y-88.335
X212.066Y-172.155
X212.09Y-34.29
X212.09Y-118.11
X212.725Y-30.48
X212.725Y-43.18
X212.725Y-62.23
X212.725Y-114.3
X212.725Y-127.
X212.725Y-146.05
X212.808Y-48.343
X212.808Y-132.163
X213.52Y-85.725
X213.52Y-169.545
X213.995Y-52.705
X213.995Y-78.105
X213.995Y-136.525
X213.995Y-161.925
X214.606Y-88.335
X214.606Y-172.155
X214.63Y-34.29
X214.63Y-118.11
X215.265Y-30.48
X215.265Y-43.18
X215.265Y-62.23
X215.265Y-114.3
X215.265Y-127.
X215.265Y-146.05
X216.535Y-78.105
X216.535Y-161.925
X217.17Y-34.29
X217.17Y-49.53
X217.17Y-54.61
X217.17Y-57.785
X217.17Y-118.11
X217.17Y-133.35
X217.17Y-138.43
X217.17Y-141.605
X217.805Y-30.48
X217.805Y-43.18
X217.805Y-62.23
X217.805Y-114.3
X217.805Y-127.
X217.805Y-146.05
X219.075Y-78.105
X219.075Y-161.925
X219.71Y-34.29
X219.71Y-49.53
X219.71Y-54.61
X219.71Y-118.11
X219.71Y-133.35
X219.71Y-138.43
X220.98Y-43.18
X220.98Y-127.
X221.615Y-78.105
X221.615Y-161.925
X222.25Y-34.29
X222.25Y-118.11
X223.52Y-43.18
X223.52Y-127.
X224.155Y-59.055
X224.155Y-81.28
X224.155Y-86.36
X224.155Y-142.875
X224.155Y-165.1
X224.155Y-170.18
X224.79Y-34.29
X224.79Y-49.53
X224.79Y-54.61
X224.79Y-118.11
X224.79Y-133.35
X224.79Y-138.43
X226.06Y-43.18
X226.06Y-127.
X226.695Y-59.055
X226.695Y-76.2
X226.695Y-78.74
X226.695Y-83.82
X226.695Y-86.36
X226.695Y-88.9
X226.695Y-91.44
X226.695Y-142.875
X226.695Y-160.02
X226.695Y-162.56
X226.695Y-167.64
X226.695Y-170.18
X226.695Y-172.72
X226.695Y-175.26
X227.33Y-34.29
X227.33Y-49.53
X227.33Y-54.61
X227.33Y-118.11
X227.33Y-133.35
X227.33Y-138.43
X227.965Y-93.98
X227.965Y-177.8
X229.235Y-59.055
X229.235Y-142.875
X229.87Y-34.29
X229.87Y-49.53
X229.87Y-54.61
X229.87Y-118.11
X229.87Y-133.35
X229.87Y-138.43
X230.505Y-93.98
X230.505Y-177.8
X231.775Y-59.055
X231.775Y-76.2
X231.775Y-78.74
X231.775Y-83.82
X231.775Y-86.36
X231.775Y-88.9
X231.775Y-91.44
X231.775Y-142.875
X231.775Y-160.02
X231.775Y-162.56
X231.775Y-167.64
X231.775Y-170.18
X231.775Y-172.72
X231.775Y-175.26
X232.41Y-34.29
X232.41Y-49.53
X232.41Y-54.61
X232.41Y-118.11
X232.41Y-133.35
X232.41Y-138.43
X234.95Y-49.53
X234.95Y-54.61
X234.95Y-133.35
X234.95Y-138.43
T0
M30
