M48
;DRILL file {KiCad 4.0.7-e2-6376~58~ubuntu16.04.1} date Mon Dec 10 15:36:57 2018
;FORMAT={-:-/ absolute / metric / decimal}
FMAT,2
METRIC,TZ
T1C0.900
%
G90
G05
M71
T1
X27.94Y-45.085
X27.94Y-60.325
X27.94Y-128.905
X27.94Y-144.145
X29.845Y-77.47
X29.845Y-87.63
X29.845Y-161.29
X29.845Y-171.45
X33.02Y-81.915
X33.02Y-165.735
X34.925Y-66.04
X34.925Y-149.86
X35.56Y-92.71
X35.56Y-176.53
X39.37Y-81.915
X39.37Y-165.735
X45.72Y-38.1
X45.72Y-121.92
X53.975Y-27.305
X53.975Y-111.125
X58.42Y-81.28
X58.42Y-165.1
X59.69Y-66.04
X59.69Y-149.86
X60.325Y-91.44
X60.325Y-175.26
X62.865Y-38.1
X62.865Y-121.92
X64.77Y-27.305
X64.77Y-81.28
X64.77Y-111.125
X64.77Y-165.1
X79.375Y-97.155
X79.375Y-180.975
X80.645Y-38.1
X80.645Y-66.04
X80.645Y-121.92
X80.645Y-149.86
X85.09Y-71.755
X85.09Y-155.575
X85.725Y-86.36
X85.725Y-170.18
X88.9Y-45.085
X88.9Y-60.325
X88.9Y-128.905
X88.9Y-144.145
X102.87Y-45.085
X102.87Y-60.325
X102.87Y-128.905
X102.87Y-144.145
X104.775Y-77.47
X104.775Y-87.63
X104.775Y-161.29
X104.775Y-171.45
X107.95Y-81.915
X107.95Y-165.735
X109.855Y-66.04
X109.855Y-149.86
X110.49Y-92.71
X110.49Y-176.53
X114.3Y-81.915
X114.3Y-165.735
X120.65Y-38.1
X120.65Y-121.92
X128.905Y-27.305
X128.905Y-111.125
X133.35Y-81.28
X133.35Y-165.1
X134.62Y-66.04
X134.62Y-149.86
X135.255Y-91.44
X135.255Y-175.26
X137.795Y-38.1
X137.795Y-121.92
X139.7Y-27.305
X139.7Y-81.28
X139.7Y-111.125
X139.7Y-165.1
X154.305Y-97.155
X154.305Y-180.975
X155.575Y-38.1
X155.575Y-66.04
X155.575Y-121.92
X155.575Y-149.86
X160.02Y-71.755
X160.02Y-155.575
X160.655Y-86.36
X160.655Y-170.18
X163.83Y-45.085
X163.83Y-60.325
X163.83Y-128.905
X163.83Y-144.145
X177.8Y-45.085
X177.8Y-60.325
X177.8Y-128.905
X177.8Y-144.145
X179.705Y-77.47
X179.705Y-87.63
X179.705Y-161.29
X179.705Y-171.45
X182.88Y-81.915
X182.88Y-165.735
X184.785Y-66.04
X184.785Y-149.86
X185.42Y-92.71
X185.42Y-176.53
X189.23Y-81.915
X189.23Y-165.735
X195.58Y-38.1
X195.58Y-121.92
X203.835Y-27.305
X203.835Y-111.125
X208.28Y-81.28
X208.28Y-165.1
X209.55Y-66.04
X209.55Y-149.86
X210.185Y-91.44
X210.185Y-175.26
X212.725Y-38.1
X212.725Y-121.92
X214.63Y-27.305
X214.63Y-81.28
X214.63Y-111.125
X214.63Y-165.1
X229.235Y-97.155
X229.235Y-180.975
X230.505Y-38.1
X230.505Y-66.04
X230.505Y-121.92
X230.505Y-149.86
X234.95Y-71.755
X234.95Y-155.575
X235.585Y-86.36
X235.585Y-170.18
X238.76Y-45.085
X238.76Y-60.325
X238.76Y-128.905
X238.76Y-144.145
T0
M30
