  0
SECTION
  2
HEADER
  9
$ACADVER
  1
AC1014
  9
$HANDSEED
  5
FFFF
  9
$MEASUREMENT
 70
     1
  0
ENDSEC
  0
SECTION
  2
TABLES
  0
TABLE
  2
VPORT
  5
8
330
0
100
AcDbSymbolTable
 70
     4
  0
VPORT
  5
2E
330
8
100
AcDbSymbolTableRecord
100
AcDbViewportTableRecord
  2
*ACTIVE
 70
     0
 10
0.0
 20
0.0
 11
1.0
 21
1.0
 12
210.0
 22
148.5
 13
0.0
 23
0.0
 14
10.0
 24
10.0
 15
10.0
 25
10.0
 16
0.0
 26
0.0
 36
1.0
 17
0.0
 27
0.0
 37
0.0
 40
341.0
 41
1.24
 42
50.0
 43
0.0
 44
0.0
 50
0.0
 51
0.0
 71
     0
 72
   100
 73
     1
 74
     3
 75
     0
 76
     0
 77
     0
 78
     0
  0
ENDTAB
  0
TABLE
  2
LTYPE
  5
5
330
0
100
AcDbSymbolTable
 70
     1
  0
LTYPE
  5
14
330
5
100
AcDbSymbolTableRecord
100
AcDbLinetypeTableRecord
  2
BYBLOCK
 70
     0
  3

 72
    65
 73
     0
 40
0.0
  0
LTYPE
  5
15
330
5
100
AcDbSymbolTableRecord
100
AcDbLinetypeTableRecord
  2
BYLAYER
 70
     0
  3

 72
    65
 73
     0
 40
0.0
  0
LTYPE
  5
16
330
5
100
AcDbSymbolTableRecord
100
AcDbLinetypeTableRecord
  2
CONTINUOUS
 70
     0
  3
Solid line
 72
    65
 73
     0
 40
0.0
  0
ENDTAB
  0
TABLE
  2
LAYER
  5
2
100
AcDbSymbolTable
 70
9
  0
LAYER
  5
50
100
AcDbSymbolTableRecord
100
AcDbLayerTableRecord
  2
0
 70
0
  6
CONTINUOUS
  0
LAYER
  5
51
100
AcDbSymbolTableRecord
100
AcDbLayerTableRecord
  2
RPi_case___Side_L001_contour
 70
0
  6
CONTINUOUS
  0
LAYER
  5
52
100
AcDbSymbolTableRecord
100
AcDbLayerTableRecord
  2
RPi_case___Side_T001_contour
 70
0
  6
CONTINUOUS
  0
LAYER
  5
53
100
AcDbSymbolTableRecord
100
AcDbLayerTableRecord
  2
RPi_case___Side_F001_contour
 70
0
  6
CONTINUOUS
  0
LAYER
  5
54
100
AcDbSymbolTableRecord
100
AcDbLayerTableRecord
  2
RPi_case___Side_R001_contour
 70
0
  6
CONTINUOUS
  0
LAYER
  5
55
100
AcDbSymbolTableRecord
100
AcDbLayerTableRecord
  2
RPi_case___Side_B001_contour
 70
0
  6
CONTINUOUS
  0
LAYER
  5
56
100
AcDbSymbolTableRecord
100
AcDbLayerTableRecord
  2
RPi_case___Back_support001_contour
 70
0
  6
CONTINUOUS
  0
LAYER
  5
57
100
AcDbSymbolTableRecord
100
AcDbLayerTableRecord
  2
View
 70
0
  6
CONTINUOUS
  0
LAYER
  5
58
100
AcDbSymbolTableRecord
100
AcDbLayerTableRecord
  2
Dimension
 70
0
  6
CONTINUOUS
  0
ENDTAB
  0
TABLE
  2
STYLE
  5
3
330
0
100
AcDbSymbolTable
 70
     1
  0
STYLE
  5
11
330
3
100
AcDbSymbolTableRecord
100
AcDbTextStyleTableRecord
  2
STANDARD
 70
     0
 40
0.0
 41
1.0
 50
0.0
 71
     0
 42
2.5
  3
txt
  4

  0
ENDTAB
  0
TABLE
  2
VIEW
  5
6
330
0
100
AcDbSymbolTable
 70
     0
  0
ENDTAB
  0
TABLE
  2
UCS
  5
7
330
0
100
AcDbSymbolTable
 70
     0
  0
ENDTAB
  0
TABLE
  2
APPID
  5
9
330
0
100
AcDbSymbolTable
 70
     2
  0
APPID
  5
12
330
9
100
AcDbSymbolTableRecord
100
AcDbRegAppTableRecord
  2
ACAD
 70
     0
  0
ENDTAB
  0
TABLE
  2
DIMSTYLE
  5
A
330
0
100
AcDbSymbolTable
 70
     1
  0
DIMSTYLE
105
27
330
A
100
AcDbSymbolTableRecord
100
AcDbDimStyleTableRecord
  2
ISO-25
 70
     0
  3

  4

  5

  6

  7

 40
1.0
 41
2.5
 42
0.625
 43
3.75
 44
1.25
 45
0.0
 46
0.0
 47
0.0
 48
0.0
140
2.5
141
2.5
142
0.0
143
0.03937007874016
144
1.0
145
0.0
146
1.0
147
0.625
 71
     0
 72
     0
 73
     0
 74
     0
 75
     0
 76
     0
 77
     1
 78
     8
170
     0
171
     3
172
     1
173
     0
174
     0
175
     0
176
     0
177
     0
178
     0
270
     2
271
     2
272
     2
273
     2
274
     3
340
11
275
     0
280
     0
281
     0
282
     0
283
     0
284
     8
285
     0
286
     0
287
     3
288
     0
  0
ENDTAB
  0
TABLE
  2
BLOCK_RECORD
  5
1
330
0
100
AcDbSymbolTable
 70
     1
  0
BLOCK_RECORD
  5
1F
330
1
100
AcDbSymbolTableRecord
100
AcDbBlockTableRecord
  2
*MODEL_SPACE
  0
BLOCK_RECORD
  5
1B
330
1
100
AcDbSymbolTableRecord
100
AcDbBlockTableRecord
  2
*PAPER_SPACE
  0
ENDTAB
  0
ENDSEC
  0
SECTION
  2
BLOCKS
  0
BLOCK
  5
20
330
1F
100
AcDbEntity
  8
0
100
AcDbBlockBegin
  2
*MODEL_SPACE
 70
     0
 10
0.0
 20
0.0
 30
0.0
  3
*MODEL_SPACE
  1

  0
ENDBLK
  5
21
330
1F
100
AcDbEntity
  8
0
100
AcDbBlockEnd
  0
BLOCK
  5
1C
330
1B
100
AcDbEntity
 67
     1
  8
0
100
AcDbBlockBegin
  2
*PAPER_SPACE
  1

  0
ENDBLK
  5
1D
330
1B
100
AcDbEntity
 67
     1
  8
0
100
AcDbBlockEnd
  0
ENDSEC
  0
SECTION
  2
ENTITIES
  0
LWPOLYLINE
  5
100
100
AcDbEntity
  8
RPi_case___Side_L001_contour
 62
7
100
AcDbPolyline
 90
4
 70
1
 10
14.942100
 20
139.883000
 30
0.0
 10
14.942100
 20
147.783000
 30
0.0
 10
22.842100
 20
147.783000
 30
0.0
 10
22.842100
 20
139.883000
 30
0.0
  0
LWPOLYLINE
  5
101
100
AcDbEntity
  8
RPi_case___Side_L001_contour
 62
7
100
AcDbPolyline
 90
3
 70
0
 10
20.842100
 20
193.283000
 30
0.0
 10
20.842100
 20
180.383000
 30
0.0
 10
13.642100
 20
180.383000
 30
0.0
  0
LWPOLYLINE
  5
102
100
AcDbEntity
  8
RPi_case___Side_L001_contour
 62
7
100
AcDbPolyline
 90
2
 70
0
 10
13.642100
 20
193.283000
 30
0.0
 10
13.642100
 20
180.383000
 30
0.0
  0
LWPOLYLINE
  5
103
100
AcDbEntity
  8
RPi_case___Side_L001_contour
 62
7
100
AcDbPolyline
 90
2
 70
0
 10
13.642100
 20
193.283000
 30
0.0
 10
20.842100
 20
193.283000
 30
0.0
  0
LWPOLYLINE
  5
104
100
AcDbEntity
  8
RPi_case___Side_L001_contour
 62
7
100
AcDbPolyline
 90
4
 70
1
 10
38.042100
 20
198.283000
 30
0.0
 10
38.042100
 20
188.583000
 30
0.0
 10
34.142100
 20
188.583000
 30
0.0
 10
34.142100
 20
198.283000
 30
0.0
  0
LWPOLYLINE
  5
105
100
AcDbEntity
  8
RPi_case___Side_L001_contour
 62
7
100
AcDbPolyline
 90
2
 70
0
 10
37.226300
 20
159.113000
 30
0.0
 10
36.592100
 20
159.033000
 30
0.0
  0
LWPOLYLINE
  5
106
100
AcDbEntity
  8
RPi_case___Side_L001_contour
 62
7
100
AcDbPolyline
 90
2
 70
0
 10
37.820600
 20
159.349000
 30
0.0
 10
37.226300
 20
159.113000
 30
0.0
  0
LWPOLYLINE
  5
107
100
AcDbEntity
  8
RPi_case___Side_L001_contour
 62
7
100
AcDbPolyline
 90
2
 70
0
 10
38.337700
 20
159.724000
 30
0.0
 10
37.820600
 20
159.349000
 30
0.0
  0
LWPOLYLINE
  5
108
100
AcDbEntity
  8
RPi_case___Side_L001_contour
 62
7
100
AcDbPolyline
 90
2
 70
0
 10
38.745200
 20
160.217000
 30
0.0
 10
38.337700
 20
159.724000
 30
0.0
  0
LWPOLYLINE
  5
109
100
AcDbEntity
  8
RPi_case___Side_L001_contour
 62
7
100
AcDbPolyline
 90
2
 70
0
 10
39.017300
 20
160.795000
 30
0.0
 10
38.745200
 20
160.217000
 30
0.0
  0
LWPOLYLINE
  5
10a
100
AcDbEntity
  8
RPi_case___Side_L001_contour
 62
7
100
AcDbPolyline
 90
2
 70
0
 10
39.137100
 20
161.423000
 30
0.0
 10
39.017300
 20
160.795000
 30
0.0
  0
LWPOLYLINE
  5
10b
100
AcDbEntity
  8
RPi_case___Side_L001_contour
 62
7
100
AcDbPolyline
 90
2
 70
0
 10
39.097000
 20
162.061000
 30
0.0
 10
39.137100
 20
161.423000
 30
0.0
  0
LWPOLYLINE
  5
10c
100
AcDbEntity
  8
RPi_case___Side_L001_contour
 62
7
100
AcDbPolyline
 90
2
 70
0
 10
38.899400
 20
162.669000
 30
0.0
 10
39.097000
 20
162.061000
 30
0.0
  0
LWPOLYLINE
  5
10d
100
AcDbEntity
  8
RPi_case___Side_L001_contour
 62
7
100
AcDbPolyline
 90
2
 70
0
 10
38.556900
 20
163.209000
 30
0.0
 10
38.899400
 20
162.669000
 30
0.0
  0
LWPOLYLINE
  5
10e
100
AcDbEntity
  8
RPi_case___Side_L001_contour
 62
7
100
AcDbPolyline
 90
2
 70
0
 10
38.091000
 20
163.646000
 30
0.0
 10
38.556900
 20
163.209000
 30
0.0
  0
LWPOLYLINE
  5
10f
100
AcDbEntity
  8
RPi_case___Side_L001_contour
 62
7
100
AcDbPolyline
 90
2
 70
0
 10
37.530900
 20
163.954000
 30
0.0
 10
38.091000
 20
163.646000
 30
0.0
  0
LWPOLYLINE
  5
110
100
AcDbEntity
  8
RPi_case___Side_L001_contour
 62
7
100
AcDbPolyline
 90
2
 70
0
 10
36.911700
 20
164.113000
 30
0.0
 10
37.530900
 20
163.954000
 30
0.0
  0
LWPOLYLINE
  5
111
100
AcDbEntity
  8
RPi_case___Side_L001_contour
 62
7
100
AcDbPolyline
 90
2
 70
0
 10
36.272500
 20
164.113000
 30
0.0
 10
36.911700
 20
164.113000
 30
0.0
  0
LWPOLYLINE
  5
112
100
AcDbEntity
  8
RPi_case___Side_L001_contour
 62
7
100
AcDbPolyline
 90
2
 70
0
 10
35.653400
 20
163.954000
 30
0.0
 10
36.272500
 20
164.113000
 30
0.0
  0
LWPOLYLINE
  5
113
100
AcDbEntity
  8
RPi_case___Side_L001_contour
 62
7
100
AcDbPolyline
 90
2
 70
0
 10
35.093300
 20
163.646000
 30
0.0
 10
35.653400
 20
163.954000
 30
0.0
  0
LWPOLYLINE
  5
114
100
AcDbEntity
  8
RPi_case___Side_L001_contour
 62
7
100
AcDbPolyline
 90
2
 70
0
 10
34.627300
 20
163.209000
 30
0.0
 10
35.093300
 20
163.646000
 30
0.0
  0
LWPOLYLINE
  5
115
100
AcDbEntity
  8
RPi_case___Side_L001_contour
 62
7
100
AcDbPolyline
 90
2
 70
0
 10
34.284800
 20
162.669000
 30
0.0
 10
34.627300
 20
163.209000
 30
0.0
  0
LWPOLYLINE
  5
116
100
AcDbEntity
  8
RPi_case___Side_L001_contour
 62
7
100
AcDbPolyline
 90
2
 70
0
 10
34.087300
 20
162.061000
 30
0.0
 10
34.284800
 20
162.669000
 30
0.0
  0
LWPOLYLINE
  5
117
100
AcDbEntity
  8
RPi_case___Side_L001_contour
 62
7
100
AcDbPolyline
 90
2
 70
0
 10
34.047200
 20
161.423000
 30
0.0
 10
34.087300
 20
162.061000
 30
0.0
  0
LWPOLYLINE
  5
118
100
AcDbEntity
  8
RPi_case___Side_L001_contour
 62
7
100
AcDbPolyline
 90
2
 70
0
 10
34.166900
 20
160.795000
 30
0.0
 10
34.047200
 20
161.423000
 30
0.0
  0
LWPOLYLINE
  5
119
100
AcDbEntity
  8
RPi_case___Side_L001_contour
 62
7
100
AcDbPolyline
 90
2
 70
0
 10
34.439100
 20
160.217000
 30
0.0
 10
34.166900
 20
160.795000
 30
0.0
  0
LWPOLYLINE
  5
11a
100
AcDbEntity
  8
RPi_case___Side_L001_contour
 62
7
100
AcDbPolyline
 90
2
 70
0
 10
34.846500
 20
159.724000
 30
0.0
 10
34.439100
 20
160.217000
 30
0.0
  0
LWPOLYLINE
  5
11b
100
AcDbEntity
  8
RPi_case___Side_L001_contour
 62
7
100
AcDbPolyline
 90
2
 70
0
 10
35.363700
 20
159.349000
 30
0.0
 10
34.846500
 20
159.724000
 30
0.0
  0
LWPOLYLINE
  5
11c
100
AcDbEntity
  8
RPi_case___Side_L001_contour
 62
7
100
AcDbPolyline
 90
2
 70
0
 10
35.958000
 20
159.113000
 30
0.0
 10
35.363700
 20
159.349000
 30
0.0
  0
LWPOLYLINE
  5
11d
100
AcDbEntity
  8
RPi_case___Side_L001_contour
 62
7
100
AcDbPolyline
 90
2
 70
0
 10
36.592100
 20
159.033000
 30
0.0
 10
35.958000
 20
159.113000
 30
0.0
  0
LWPOLYLINE
  5
11e
100
AcDbEntity
  8
RPi_case___Side_L001_contour
 62
7
100
AcDbPolyline
 90
4
 70
1
 10
38.042100
 20
178.283000
 30
0.0
 10
38.042100
 20
168.583000
 30
0.0
 10
34.142100
 20
168.583000
 30
0.0
 10
34.142100
 20
178.283000
 30
0.0
  0
LWPOLYLINE
  5
11f
100
AcDbEntity
  8
RPi_case___Side_L001_contour
 62
7
100
AcDbPolyline
 90
2
 70
0
 10
21.842100
 20
107.783000
 30
0.0
 10
21.842100
 20
111.783000
 30
0.0
  0
LWPOLYLINE
  5
120
100
AcDbEntity
  8
RPi_case___Side_L001_contour
 62
7
100
AcDbPolyline
 90
2
 70
0
 10
32.142100
 20
107.783000
 30
0.0
 10
21.842100
 20
107.783000
 30
0.0
  0
LWPOLYLINE
  5
121
100
AcDbEntity
  8
RPi_case___Side_L001_contour
 62
7
100
AcDbPolyline
 90
2
 70
0
 10
32.142100
 20
111.783000
 30
0.0
 10
32.142100
 20
107.783000
 30
0.0
  0
LWPOLYLINE
  5
122
100
AcDbEntity
  8
RPi_case___Side_L001_contour
 62
7
100
AcDbPolyline
 90
2
 70
0
 10
41.842100
 20
111.783000
 30
0.0
 10
32.142100
 20
111.783000
 30
0.0
  0
LWPOLYLINE
  5
123
100
AcDbEntity
  8
RPi_case___Side_L001_contour
 62
7
100
AcDbPolyline
 90
2
 70
0
 10
41.842100
 20
107.783000
 30
0.0
 10
41.842100
 20
111.783000
 30
0.0
  0
LWPOLYLINE
  5
124
100
AcDbEntity
  8
RPi_case___Side_L001_contour
 62
7
100
AcDbPolyline
 90
2
 70
0
 10
47.992100
 20
107.783000
 30
0.0
 10
41.842100
 20
107.783000
 30
0.0
  0
LWPOLYLINE
  5
125
100
AcDbEntity
  8
RPi_case___Side_L001_contour
 62
7
100
AcDbPolyline
 90
20
 70
0
 10
47.992100
 20
107.783000
 30
0.0
 10
48.992100
 20
107.783000
 30
0.0
 10
53.142100
 20
107.783000
 30
0.0
 10
53.142100
 20
118.583000
 30
0.0
 10
49.142100
 20
118.583000
 30
0.0
 10
49.142100
 20
128.783000
 30
0.0
 10
53.142100
 20
128.783000
 30
0.0
 10
53.142100
 20
139.583000
 30
0.0
 10
49.142100
 20
139.583000
 30
0.0
 10
49.142100
 20
149.783000
 30
0.0
 10
53.142100
 20
149.783000
 30
0.0
 10
53.142100
 20
160.083000
 30
0.0
 10
49.142100
 20
160.083000
 30
0.0
 10
49.142100
 20
169.783000
 30
0.0
 10
53.142100
 20
169.783000
 30
0.0
 10
53.142100
 20
180.083000
 30
0.0
 10
49.142100
 20
180.083000
 30
0.0
 10
49.142100
 20
189.783000
 30
0.0
 10
53.142100
 20
189.783000
 30
0.0
 10
53.142100
 20
198.583000
 30
0.0
  0
LWPOLYLINE
  5
126
100
AcDbEntity
  8
RPi_case___Side_L001_contour
 62
7
100
AcDbPolyline
 90
2
 70
0
 10
42.142100
 20
198.583000
 30
0.0
 10
53.142100
 20
198.583000
 30
0.0
  0
LWPOLYLINE
  5
127
100
AcDbEntity
  8
RPi_case___Side_L001_contour
 62
7
100
AcDbPolyline
 90
2
 70
0
 10
42.142100
 20
202.583000
 30
0.0
 10
42.142100
 20
198.583000
 30
0.0
  0
LWPOLYLINE
  5
128
100
AcDbEntity
  8
RPi_case___Side_L001_contour
 62
7
100
AcDbPolyline
 90
2
 70
0
 10
31.842100
 20
202.583000
 30
0.0
 10
42.142100
 20
202.583000
 30
0.0
  0
LWPOLYLINE
  5
129
100
AcDbEntity
  8
RPi_case___Side_L001_contour
 62
7
100
AcDbPolyline
 90
2
 70
0
 10
31.842100
 20
198.583000
 30
0.0
 10
31.842100
 20
202.583000
 30
0.0
  0
LWPOLYLINE
  5
12a
100
AcDbEntity
  8
RPi_case___Side_L001_contour
 62
7
100
AcDbPolyline
 90
2
 70
0
 10
22.142100
 20
198.583000
 30
0.0
 10
31.842100
 20
198.583000
 30
0.0
  0
LWPOLYLINE
  5
12b
100
AcDbEntity
  8
RPi_case___Side_L001_contour
 62
7
100
AcDbPolyline
 90
2
 70
0
 10
22.142100
 20
202.583000
 30
0.0
 10
22.142100
 20
198.583000
 30
0.0
  0
LWPOLYLINE
  5
12c
100
AcDbEntity
  8
RPi_case___Side_L001_contour
 62
7
100
AcDbPolyline
 90
2
 70
0
 10
11.842100
 20
202.583000
 30
0.0
 10
22.142100
 20
202.583000
 30
0.0
  0
LWPOLYLINE
  5
12d
100
AcDbEntity
  8
RPi_case___Side_L001_contour
 62
7
100
AcDbPolyline
 90
2
 70
0
 10
11.842100
 20
198.583000
 30
0.0
 10
11.842100
 20
202.583000
 30
0.0
  0
LWPOLYLINE
  5
12e
100
AcDbEntity
  8
RPi_case___Side_L001_contour
 62
7
100
AcDbPolyline
 90
2
 70
0
 10
7.842130
 20
198.583000
 30
0.0
 10
11.842100
 20
198.583000
 30
0.0
  0
LWPOLYLINE
  5
12f
100
AcDbEntity
  8
RPi_case___Side_L001_contour
 62
7
100
AcDbPolyline
 90
2
 70
0
 10
7.842130
 20
191.683000
 30
0.0
 10
7.842130
 20
198.583000
 30
0.0
  0
LWPOLYLINE
  5
130
100
AcDbEntity
  8
RPi_case___Side_L001_contour
 62
7
100
AcDbPolyline
 90
2
 70
0
 10
11.842100
 20
191.683000
 30
0.0
 10
7.842130
 20
191.683000
 30
0.0
  0
LWPOLYLINE
  5
131
100
AcDbEntity
  8
RPi_case___Side_L001_contour
 62
7
100
AcDbPolyline
 90
2
 70
0
 10
11.842100
 20
181.983000
 30
0.0
 10
11.842100
 20
191.683000
 30
0.0
  0
LWPOLYLINE
  5
132
100
AcDbEntity
  8
RPi_case___Side_L001_contour
 62
7
100
AcDbPolyline
 90
2
 70
0
 10
7.842130
 20
181.983000
 30
0.0
 10
11.842100
 20
181.983000
 30
0.0
  0
LWPOLYLINE
  5
133
100
AcDbEntity
  8
RPi_case___Side_L001_contour
 62
7
100
AcDbPolyline
 90
2
 70
0
 10
7.842130
 20
173.783000
 30
0.0
 10
7.842130
 20
181.983000
 30
0.0
  0
LWPOLYLINE
  5
134
100
AcDbEntity
  8
RPi_case___Side_L001_contour
 62
7
100
AcDbPolyline
 90
2
 70
0
 10
11.992100
 20
173.783000
 30
0.0
 10
7.842130
 20
173.783000
 30
0.0
  0
LWPOLYLINE
  5
135
100
AcDbEntity
  8
RPi_case___Side_L001_contour
 62
7
100
AcDbPolyline
 90
6
 70
0
 10
11.992100
 20
173.783000
 30
0.0
 10
11.992100
 20
175.883000
 30
0.0
 10
26.442100
 20
175.883000
 30
0.0
 10
26.442100
 20
154.983000
 30
0.0
 10
11.992100
 20
154.983000
 30
0.0
 10
11.992100
 20
157.083000
 30
0.0
  0
LWPOLYLINE
  5
136
100
AcDbEntity
  8
RPi_case___Side_L001_contour
 62
7
100
AcDbPolyline
 90
2
 70
0
 10
7.842130
 20
157.083000
 30
0.0
 10
11.992100
 20
157.083000
 30
0.0
  0
LWPOLYLINE
  5
137
100
AcDbEntity
  8
RPi_case___Side_L001_contour
 62
7
100
AcDbPolyline
 90
2
 70
0
 10
7.842130
 20
147.683000
 30
0.0
 10
7.842130
 20
157.083000
 30
0.0
  0
LWPOLYLINE
  5
138
100
AcDbEntity
  8
RPi_case___Side_L001_contour
 62
7
100
AcDbPolyline
 90
2
 70
0
 10
11.842100
 20
147.683000
 30
0.0
 10
7.842130
 20
147.683000
 30
0.0
  0
LWPOLYLINE
  5
139
100
AcDbEntity
  8
RPi_case___Side_L001_contour
 62
7
100
AcDbPolyline
 90
2
 70
0
 10
11.842100
 20
139.983000
 30
0.0
 10
11.842100
 20
147.683000
 30
0.0
  0
LWPOLYLINE
  5
13a
100
AcDbEntity
  8
RPi_case___Side_L001_contour
 62
7
100
AcDbPolyline
 90
2
 70
0
 10
7.842130
 20
139.983000
 30
0.0
 10
11.842100
 20
139.983000
 30
0.0
  0
LWPOLYLINE
  5
13b
100
AcDbEntity
  8
RPi_case___Side_L001_contour
 62
7
100
AcDbPolyline
 90
2
 70
0
 10
7.842130
 20
128.783000
 30
0.0
 10
7.842130
 20
139.983000
 30
0.0
  0
LWPOLYLINE
  5
13c
100
AcDbEntity
  8
RPi_case___Side_L001_contour
 62
7
100
AcDbPolyline
 90
2
 70
0
 10
11.842100
 20
128.783000
 30
0.0
 10
7.842130
 20
128.783000
 30
0.0
  0
LWPOLYLINE
  5
13d
100
AcDbEntity
  8
RPi_case___Side_L001_contour
 62
7
100
AcDbPolyline
 90
2
 70
0
 10
11.842100
 20
118.083000
 30
0.0
 10
11.842100
 20
128.783000
 30
0.0
  0
LWPOLYLINE
  5
13e
100
AcDbEntity
  8
RPi_case___Side_L001_contour
 62
7
100
AcDbPolyline
 90
2
 70
0
 10
7.842130
 20
118.083000
 30
0.0
 10
11.842100
 20
118.083000
 30
0.0
  0
LWPOLYLINE
  5
13f
100
AcDbEntity
  8
RPi_case___Side_L001_contour
 62
7
100
AcDbPolyline
 90
2
 70
0
 10
21.842100
 20
111.783000
 30
0.0
 10
12.142100
 20
111.783000
 30
0.0
  0
LWPOLYLINE
  5
140
100
AcDbEntity
  8
RPi_case___Side_L001_contour
 62
7
100
AcDbPolyline
 90
2
 70
0
 10
7.842130
 20
118.083000
 30
0.0
 10
7.842130
 20
107.783000
 30
0.0
  0
LWPOLYLINE
  5
141
100
AcDbEntity
  8
RPi_case___Side_L001_contour
 62
7
100
AcDbPolyline
 90
2
 70
0
 10
12.142100
 20
111.783000
 30
0.0
 10
12.142100
 20
107.783000
 30
0.0
  0
LWPOLYLINE
  5
142
100
AcDbEntity
  8
RPi_case___Side_L001_contour
 62
7
100
AcDbPolyline
 90
2
 70
0
 10
7.842130
 20
107.783000
 30
0.0
 10
12.142100
 20
107.783000
 30
0.0
  0
LWPOLYLINE
  5
143
100
AcDbEntity
  8
RPi_case___Side_T001_contour
 62
7
100
AcDbPolyline
 90
2
 70
0
 10
69.062100
 20
198.597000
 30
0.0
 10
65.062100
 20
198.597000
 30
0.0
  0
LWPOLYLINE
  5
144
100
AcDbEntity
  8
RPi_case___Side_T001_contour
 62
7
100
AcDbPolyline
 90
2
 70
0
 10
69.062100
 20
202.597000
 30
0.0
 10
69.062100
 20
198.597000
 30
0.0
  0
LWPOLYLINE
  5
145
100
AcDbEntity
  8
RPi_case___Side_T001_contour
 62
7
100
AcDbPolyline
 90
2
 70
0
 10
79.362100
 20
202.597000
 30
0.0
 10
69.062100
 20
202.597000
 30
0.0
  0
LWPOLYLINE
  5
146
100
AcDbEntity
  8
RPi_case___Side_T001_contour
 62
7
100
AcDbPolyline
 90
2
 70
0
 10
79.362100
 20
198.597000
 30
0.0
 10
79.362100
 20
202.597000
 30
0.0
  0
LWPOLYLINE
  5
147
100
AcDbEntity
  8
RPi_case___Side_T001_contour
 62
7
100
AcDbPolyline
 90
2
 70
0
 10
89.062100
 20
198.597000
 30
0.0
 10
79.362100
 20
198.597000
 30
0.0
  0
LWPOLYLINE
  5
148
100
AcDbEntity
  8
RPi_case___Side_T001_contour
 62
7
100
AcDbPolyline
 90
2
 70
0
 10
89.062100
 20
202.597000
 30
0.0
 10
89.062100
 20
198.597000
 30
0.0
  0
LWPOLYLINE
  5
149
100
AcDbEntity
  8
RPi_case___Side_T001_contour
 62
7
100
AcDbPolyline
 90
2
 70
0
 10
99.362100
 20
202.597000
 30
0.0
 10
89.062100
 20
202.597000
 30
0.0
  0
LWPOLYLINE
  5
14a
100
AcDbEntity
  8
RPi_case___Side_T001_contour
 62
7
100
AcDbPolyline
 90
2
 70
0
 10
99.362100
 20
198.597000
 30
0.0
 10
99.362100
 20
202.597000
 30
0.0
  0
LWPOLYLINE
  5
14b
100
AcDbEntity
  8
RPi_case___Side_T001_contour
 62
7
100
AcDbPolyline
 90
2
 70
0
 10
109.062000
 20
198.597000
 30
0.0
 10
99.362100
 20
198.597000
 30
0.0
  0
LWPOLYLINE
  5
14c
100
AcDbEntity
  8
RPi_case___Side_T001_contour
 62
7
100
AcDbPolyline
 90
2
 70
0
 10
109.062000
 20
202.597000
 30
0.0
 10
109.062000
 20
198.597000
 30
0.0
  0
LWPOLYLINE
  5
14d
100
AcDbEntity
  8
RPi_case___Side_T001_contour
 62
7
100
AcDbPolyline
 90
2
 70
0
 10
119.362000
 20
202.597000
 30
0.0
 10
109.062000
 20
202.597000
 30
0.0
  0
LWPOLYLINE
  5
14e
100
AcDbEntity
  8
RPi_case___Side_T001_contour
 62
7
100
AcDbPolyline
 90
2
 70
0
 10
119.362000
 20
198.597000
 30
0.0
 10
119.362000
 20
202.597000
 30
0.0
  0
LWPOLYLINE
  5
14f
100
AcDbEntity
  8
RPi_case___Side_T001_contour
 62
7
100
AcDbPolyline
 90
2
 70
0
 10
123.362000
 20
198.597000
 30
0.0
 10
119.362000
 20
198.597000
 30
0.0
  0
LWPOLYLINE
  5
150
100
AcDbEntity
  8
RPi_case___Side_T001_contour
 62
7
100
AcDbPolyline
 90
2
 70
0
 10
123.362000
 20
190.097000
 30
0.0
 10
123.362000
 20
198.597000
 30
0.0
  0
LWPOLYLINE
  5
151
100
AcDbEntity
  8
RPi_case___Side_T001_contour
 62
7
100
AcDbPolyline
 90
2
 70
0
 10
127.362000
 20
190.097000
 30
0.0
 10
123.362000
 20
190.097000
 30
0.0
  0
LWPOLYLINE
  5
152
100
AcDbEntity
  8
RPi_case___Side_T001_contour
 62
7
100
AcDbPolyline
 90
2
 70
0
 10
127.362000
 20
179.797000
 30
0.0
 10
127.362000
 20
190.097000
 30
0.0
  0
LWPOLYLINE
  5
153
100
AcDbEntity
  8
RPi_case___Side_T001_contour
 62
7
100
AcDbPolyline
 90
2
 70
0
 10
123.362000
 20
179.797000
 30
0.0
 10
127.362000
 20
179.797000
 30
0.0
  0
LWPOLYLINE
  5
154
100
AcDbEntity
  8
RPi_case___Side_T001_contour
 62
7
100
AcDbPolyline
 90
2
 70
0
 10
123.362000
 20
170.097000
 30
0.0
 10
123.362000
 20
179.797000
 30
0.0
  0
LWPOLYLINE
  5
155
100
AcDbEntity
  8
RPi_case___Side_T001_contour
 62
7
100
AcDbPolyline
 90
2
 70
0
 10
127.362000
 20
170.097000
 30
0.0
 10
123.362000
 20
170.097000
 30
0.0
  0
LWPOLYLINE
  5
156
100
AcDbEntity
  8
RPi_case___Side_T001_contour
 62
7
100
AcDbPolyline
 90
2
 70
0
 10
127.362000
 20
159.797000
 30
0.0
 10
127.362000
 20
170.097000
 30
0.0
  0
LWPOLYLINE
  5
157
100
AcDbEntity
  8
RPi_case___Side_T001_contour
 62
7
100
AcDbPolyline
 90
2
 70
0
 10
123.362000
 20
159.797000
 30
0.0
 10
127.362000
 20
159.797000
 30
0.0
  0
LWPOLYLINE
  5
158
100
AcDbEntity
  8
RPi_case___Side_T001_contour
 62
7
100
AcDbPolyline
 90
2
 70
0
 10
123.362000
 20
150.097000
 30
0.0
 10
123.362000
 20
159.797000
 30
0.0
  0
LWPOLYLINE
  5
159
100
AcDbEntity
  8
RPi_case___Side_T001_contour
 62
7
100
AcDbPolyline
 90
2
 70
0
 10
127.362000
 20
150.097000
 30
0.0
 10
123.362000
 20
150.097000
 30
0.0
  0
LWPOLYLINE
  5
15a
100
AcDbEntity
  8
RPi_case___Side_T001_contour
 62
7
100
AcDbPolyline
 90
2
 70
0
 10
127.362000
 20
139.297000
 30
0.0
 10
127.362000
 20
150.097000
 30
0.0
  0
LWPOLYLINE
  5
15b
100
AcDbEntity
  8
RPi_case___Side_T001_contour
 62
7
100
AcDbPolyline
 90
2
 70
0
 10
123.362000
 20
139.297000
 30
0.0
 10
127.362000
 20
139.297000
 30
0.0
  0
LWPOLYLINE
  5
15c
100
AcDbEntity
  8
RPi_case___Side_T001_contour
 62
7
100
AcDbPolyline
 90
2
 70
0
 10
123.362000
 20
129.097000
 30
0.0
 10
123.362000
 20
139.297000
 30
0.0
  0
LWPOLYLINE
  5
15d
100
AcDbEntity
  8
RPi_case___Side_T001_contour
 62
7
100
AcDbPolyline
 90
2
 70
0
 10
127.362000
 20
129.097000
 30
0.0
 10
123.362000
 20
129.097000
 30
0.0
  0
LWPOLYLINE
  5
15e
100
AcDbEntity
  8
RPi_case___Side_T001_contour
 62
7
100
AcDbPolyline
 90
2
 70
0
 10
127.362000
 20
118.297000
 30
0.0
 10
127.362000
 20
129.097000
 30
0.0
  0
LWPOLYLINE
  5
15f
100
AcDbEntity
  8
RPi_case___Side_T001_contour
 62
7
100
AcDbPolyline
 90
2
 70
0
 10
123.362000
 20
118.297000
 30
0.0
 10
127.362000
 20
118.297000
 30
0.0
  0
LWPOLYLINE
  5
160
100
AcDbEntity
  8
RPi_case___Side_T001_contour
 62
7
100
AcDbPolyline
 90
2
 70
0
 10
123.362000
 20
107.797000
 30
0.0
 10
123.362000
 20
118.297000
 30
0.0
  0
LWPOLYLINE
  5
161
100
AcDbEntity
  8
RPi_case___Side_T001_contour
 62
7
100
AcDbPolyline
 90
2
 70
0
 10
116.062000
 20
107.797000
 30
0.0
 10
123.362000
 20
107.797000
 30
0.0
  0
LWPOLYLINE
  5
162
100
AcDbEntity
  8
RPi_case___Side_T001_contour
 62
7
100
AcDbPolyline
 90
2
 70
0
 10
116.062000
 20
111.797000
 30
0.0
 10
116.062000
 20
107.797000
 30
0.0
  0
LWPOLYLINE
  5
163
100
AcDbEntity
  8
RPi_case___Side_T001_contour
 62
7
100
AcDbPolyline
 90
2
 70
0
 10
72.362100
 20
111.797000
 30
0.0
 10
116.062000
 20
111.797000
 30
0.0
  0
LWPOLYLINE
  5
164
100
AcDbEntity
  8
RPi_case___Side_T001_contour
 62
7
100
AcDbPolyline
 90
20
 70
0
 10
72.362100
 20
111.797000
 30
0.0
 10
72.362100
 20
107.797000
 30
0.0
 10
65.062100
 20
107.797000
 30
0.0
 10
65.062100
 20
118.297000
 30
0.0
 10
61.062100
 20
118.297000
 30
0.0
 10
61.062100
 20
129.097000
 30
0.0
 10
65.062100
 20
129.097000
 30
0.0
 10
65.062100
 20
139.297000
 30
0.0
 10
61.062100
 20
139.297000
 30
0.0
 10
61.062100
 20
150.097000
 30
0.0
 10
65.062100
 20
150.097000
 30
0.0
 10
65.062100
 20
159.797000
 30
0.0
 10
61.062100
 20
159.797000
 30
0.0
 10
61.062100
 20
170.097000
 30
0.0
 10
65.062100
 20
170.097000
 30
0.0
 10
65.062100
 20
179.797000
 30
0.0
 10
61.062100
 20
179.797000
 30
0.0
 10
61.062100
 20
190.097000
 30
0.0
 10
65.062100
 20
190.097000
 30
0.0
 10
65.062100
 20
198.597000
 30
0.0
  0
LWPOLYLINE
  5
165
100
AcDbEntity
  8
RPi_case___Side_F001_contour
 62
7
100
AcDbPolyline
 90
2
 70
0
 10
158.909000
 20
13.594800
 30
0.0
 10
158.909000
 20
28.594800
 30
0.0
  0
LWPOLYLINE
  5
166
100
AcDbEntity
  8
RPi_case___Side_F001_contour
 62
7
100
AcDbPolyline
 90
2
 70
0
 10
142.909000
 20
13.594800
 30
0.0
 10
158.909000
 20
13.594800
 30
0.0
  0
LWPOLYLINE
  5
167
100
AcDbEntity
  8
RPi_case___Side_F001_contour
 62
7
100
AcDbPolyline
 90
2
 70
0
 10
142.909000
 20
28.594800
 30
0.0
 10
142.909000
 20
13.594800
 30
0.0
  0
LWPOLYLINE
  5
168
100
AcDbEntity
  8
RPi_case___Side_F001_contour
 62
7
100
AcDbPolyline
 90
2
 70
0
 10
158.909000
 20
28.594800
 30
0.0
 10
142.909000
 20
28.594800
 30
0.0
  0
LWPOLYLINE
  5
169
100
AcDbEntity
  8
RPi_case___Side_F001_contour
 62
7
100
AcDbPolyline
 90
2
 70
0
 10
158.909000
 20
31.594800
 30
0.0
 10
158.909000
 20
46.594800
 30
0.0
  0
LWPOLYLINE
  5
16a
100
AcDbEntity
  8
RPi_case___Side_F001_contour
 62
7
100
AcDbPolyline
 90
2
 70
0
 10
142.909000
 20
31.594800
 30
0.0
 10
158.909000
 20
31.594800
 30
0.0
  0
LWPOLYLINE
  5
16b
100
AcDbEntity
  8
RPi_case___Side_F001_contour
 62
7
100
AcDbPolyline
 90
2
 70
0
 10
142.909000
 20
46.594800
 30
0.0
 10
142.909000
 20
31.594800
 30
0.0
  0
LWPOLYLINE
  5
16c
100
AcDbEntity
  8
RPi_case___Side_F001_contour
 62
7
100
AcDbPolyline
 90
2
 70
0
 10
158.909000
 20
46.594800
 30
0.0
 10
142.909000
 20
46.594800
 30
0.0
  0
LWPOLYLINE
  5
16d
100
AcDbEntity
  8
RPi_case___Side_F001_contour
 62
7
100
AcDbPolyline
 90
2
 70
0
 10
174.509000
 20
24.334800
 30
0.0
 10
174.509000
 20
55.034800
 30
0.0
  0
LWPOLYLINE
  5
16e
100
AcDbEntity
  8
RPi_case___Side_F001_contour
 62
7
100
AcDbPolyline
 90
4
 70
0
 10
174.509000
 20
24.334800
 30
0.0
 10
161.309000
 20
24.334800
 30
0.0
 10
161.309000
 20
55.034800
 30
0.0
 10
174.509000
 20
55.034800
 30
0.0
  0
LWPOLYLINE
  5
16f
100
AcDbEntity
  8
RPi_case___Side_F001_contour
 62
7
100
AcDbPolyline
 90
4
 70
1
 10
157.009000
 20
66.034800
 30
0.0
 10
157.009000
 20
49.634800
 30
0.0
 10
143.009000
 20
49.634800
 30
0.0
 10
143.009000
 20
66.034800
 30
0.0
  0
LWPOLYLINE
  5
170
100
AcDbEntity
  8
RPi_case___Side_F001_contour
 62
7
100
AcDbPolyline
 90
2
 70
0
 10
169.309000
 20
69.334800
 30
0.0
 10
176.309000
 20
69.334800
 30
0.0
  0
LWPOLYLINE
  5
171
100
AcDbEntity
  8
RPi_case___Side_F001_contour
 62
7
100
AcDbPolyline
 90
2
 70
0
 10
169.309000
 20
73.334800
 30
0.0
 10
169.309000
 20
69.334800
 30
0.0
  0
LWPOLYLINE
  5
172
100
AcDbEntity
  8
RPi_case___Side_F001_contour
 62
7
100
AcDbPolyline
 90
2
 70
0
 10
159.009000
 20
73.334800
 30
0.0
 10
169.309000
 20
73.334800
 30
0.0
  0
LWPOLYLINE
  5
173
100
AcDbEntity
  8
RPi_case___Side_F001_contour
 62
7
100
AcDbPolyline
 90
2
 70
0
 10
159.009000
 20
69.334800
 30
0.0
 10
159.009000
 20
73.334800
 30
0.0
  0
LWPOLYLINE
  5
174
100
AcDbEntity
  8
RPi_case___Side_F001_contour
 62
7
100
AcDbPolyline
 90
2
 70
0
 10
149.309000
 20
69.334800
 30
0.0
 10
159.009000
 20
69.334800
 30
0.0
  0
LWPOLYLINE
  5
175
100
AcDbEntity
  8
RPi_case___Side_F001_contour
 62
7
100
AcDbPolyline
 90
2
 70
0
 10
149.309000
 20
73.334800
 30
0.0
 10
149.309000
 20
69.334800
 30
0.0
  0
LWPOLYLINE
  5
176
100
AcDbEntity
  8
RPi_case___Side_F001_contour
 62
7
100
AcDbPolyline
 90
2
 70
0
 10
139.009000
 20
73.334800
 30
0.0
 10
149.309000
 20
73.334800
 30
0.0
  0
LWPOLYLINE
  5
177
100
AcDbEntity
  8
RPi_case___Side_F001_contour
 62
7
100
AcDbPolyline
 90
2
 70
0
 10
139.009000
 20
69.334800
 30
0.0
 10
139.009000
 20
73.334800
 30
0.0
  0
LWPOLYLINE
  5
178
100
AcDbEntity
  8
RPi_case___Side_F001_contour
 62
7
100
AcDbPolyline
 90
2
 70
0
 10
135.009000
 20
69.334800
 30
0.0
 10
139.009000
 20
69.334800
 30
0.0
  0
LWPOLYLINE
  5
179
100
AcDbEntity
  8
RPi_case___Side_F001_contour
 62
7
100
AcDbPolyline
 90
2
 70
0
 10
135.009000
 20
45.034800
 30
0.0
 10
135.009000
 20
69.334800
 30
0.0
  0
LWPOLYLINE
  5
17a
100
AcDbEntity
  8
RPi_case___Side_F001_contour
 62
7
100
AcDbPolyline
 90
4
 70
0
 10
135.009000
 20
45.034800
 30
0.0
 10
139.009000
 20
45.034800
 30
0.0
 10
139.009000
 20
35.334800
 30
0.0
 10
135.009000
 20
35.334800
 30
0.0
  0
LWPOLYLINE
  5
17b
100
AcDbEntity
  8
RPi_case___Side_F001_contour
 62
7
100
AcDbPolyline
 90
2
 70
0
 10
135.009000
 20
11.034800
 30
0.0
 10
135.009000
 20
35.334800
 30
0.0
  0
LWPOLYLINE
  5
17c
100
AcDbEntity
  8
RPi_case___Side_F001_contour
 62
7
100
AcDbPolyline
 90
2
 70
0
 10
139.009000
 20
11.034800
 30
0.0
 10
135.009000
 20
11.034800
 30
0.0
  0
LWPOLYLINE
  5
17d
100
AcDbEntity
  8
RPi_case___Side_F001_contour
 62
7
100
AcDbPolyline
 90
2
 70
0
 10
139.009000
 20
7.034800
 30
0.0
 10
139.009000
 20
11.034800
 30
0.0
  0
LWPOLYLINE
  5
17e
100
AcDbEntity
  8
RPi_case___Side_F001_contour
 62
7
100
AcDbPolyline
 90
2
 70
0
 10
149.309000
 20
7.034800
 30
0.0
 10
139.009000
 20
7.034800
 30
0.0
  0
LWPOLYLINE
  5
17f
100
AcDbEntity
  8
RPi_case___Side_F001_contour
 62
7
100
AcDbPolyline
 90
2
 70
0
 10
149.309000
 20
11.034800
 30
0.0
 10
149.309000
 20
7.034800
 30
0.0
  0
LWPOLYLINE
  5
180
100
AcDbEntity
  8
RPi_case___Side_F001_contour
 62
7
100
AcDbPolyline
 90
2
 70
0
 10
159.009000
 20
11.034800
 30
0.0
 10
149.309000
 20
11.034800
 30
0.0
  0
LWPOLYLINE
  5
181
100
AcDbEntity
  8
RPi_case___Side_F001_contour
 62
7
100
AcDbPolyline
 90
2
 70
0
 10
159.009000
 20
7.034800
 30
0.0
 10
159.009000
 20
11.034800
 30
0.0
  0
LWPOLYLINE
  5
182
100
AcDbEntity
  8
RPi_case___Side_F001_contour
 62
7
100
AcDbPolyline
 90
2
 70
0
 10
169.309000
 20
7.034800
 30
0.0
 10
159.009000
 20
7.034800
 30
0.0
  0
LWPOLYLINE
  5
183
100
AcDbEntity
  8
RPi_case___Side_F001_contour
 62
7
100
AcDbPolyline
 90
2
 70
0
 10
169.309000
 20
11.034800
 30
0.0
 10
169.309000
 20
7.034800
 30
0.0
  0
LWPOLYLINE
  5
184
100
AcDbEntity
  8
RPi_case___Side_F001_contour
 62
7
100
AcDbPolyline
 90
5
 70
0
 10
169.309000
 20
11.034800
 30
0.0
 10
176.309000
 20
11.034800
 30
0.0
 10
176.309000
 20
18.034800
 30
0.0
 10
180.309000
 20
18.034800
 30
0.0
 10
180.309000
 20
24.184800
 30
0.0
  0
LWPOLYLINE
  5
185
100
AcDbEntity
  8
RPi_case___Side_F001_contour
 62
7
100
AcDbPolyline
 90
2
 70
0
 10
180.309000
 20
55.184800
 30
0.0
 10
180.309000
 20
24.184800
 30
0.0
  0
LWPOLYLINE
  5
186
100
AcDbEntity
  8
RPi_case___Side_F001_contour
 62
7
100
AcDbPolyline
 90
4
 70
0
 10
180.309000
 20
55.184800
 30
0.0
 10
180.309000
 20
62.334800
 30
0.0
 10
176.309000
 20
62.334800
 30
0.0
 10
176.309000
 20
69.334800
 30
0.0
  0
LWPOLYLINE
  5
187
100
AcDbEntity
  8
RPi_case___Side_R001_contour
 62
7
100
AcDbPolyline
 90
2
 70
0
 10
26.228900
 20
20.410400
 30
0.0
 10
22.328900
 20
20.410400
 30
0.0
  0
LWPOLYLINE
  5
188
100
AcDbEntity
  8
RPi_case___Side_R001_contour
 62
7
100
AcDbPolyline
 90
2
 70
0
 10
26.228900
 20
10.710400
 30
0.0
 10
26.228900
 20
20.410400
 30
0.0
  0
LWPOLYLINE
  5
189
100
AcDbEntity
  8
RPi_case___Side_R001_contour
 62
7
100
AcDbPolyline
 90
2
 70
0
 10
22.328900
 20
10.710400
 30
0.0
 10
26.228900
 20
10.710400
 30
0.0
  0
LWPOLYLINE
  5
18a
100
AcDbEntity
  8
RPi_case___Side_R001_contour
 62
7
100
AcDbPolyline
 90
2
 70
0
 10
22.328900
 20
20.410400
 30
0.0
 10
22.328900
 20
10.710400
 30
0.0
  0
LWPOLYLINE
  5
18b
100
AcDbEntity
  8
RPi_case___Side_R001_contour
 62
7
100
AcDbPolyline
 90
19
 70
0
 10
12.378900
 20
101.210000
 30
0.0
 10
11.378900
 20
101.210000
 30
0.0
 10
7.228860
 20
101.210000
 30
0.0
 10
7.228860
 20
90.410400
 30
0.0
 10
11.228900
 20
90.410400
 30
0.0
 10
11.228900
 20
80.210400
 30
0.0
 10
7.228860
 20
80.210400
 30
0.0
 10
7.228860
 20
69.410400
 30
0.0
 10
11.228900
 20
69.410400
 30
0.0
 10
11.228900
 20
59.210400
 30
0.0
 10
7.228860
 20
59.210400
 30
0.0
 10
7.228860
 20
48.910400
 30
0.0
 10
11.228900
 20
48.910400
 30
0.0
 10
11.228900
 20
39.210400
 30
0.0
 10
7.228860
 20
39.210400
 30
0.0
 10
7.228860
 20
28.910400
 30
0.0
 10
11.228900
 20
28.910400
 30
0.0
 10
11.228900
 20
19.210400
 30
0.0
 10
7.228860
 20
19.210400
 30
0.0
  0
LWPOLYLINE
  5
18c
100
AcDbEntity
  8
RPi_case___Side_R001_contour
 62
7
100
AcDbPolyline
 90
2
 70
0
 10
7.228860
 20
10.410400
 30
0.0
 10
7.228860
 20
19.210400
 30
0.0
  0
LWPOLYLINE
  5
18d
100
AcDbEntity
  8
RPi_case___Side_R001_contour
 62
7
100
AcDbPolyline
 90
2
 70
0
 10
18.228900
 20
10.410400
 30
0.0
 10
7.228860
 20
10.410400
 30
0.0
  0
LWPOLYLINE
  5
18e
100
AcDbEntity
  8
RPi_case___Side_R001_contour
 62
7
100
AcDbPolyline
 90
2
 70
0
 10
18.228900
 20
6.410450
 30
0.0
 10
18.228900
 20
10.410400
 30
0.0
  0
LWPOLYLINE
  5
18f
100
AcDbEntity
  8
RPi_case___Side_R001_contour
 62
7
100
AcDbPolyline
 90
2
 70
0
 10
28.528900
 20
6.410450
 30
0.0
 10
18.228900
 20
6.410450
 30
0.0
  0
LWPOLYLINE
  5
190
100
AcDbEntity
  8
RPi_case___Side_R001_contour
 62
7
100
AcDbPolyline
 90
2
 70
0
 10
28.528900
 20
10.410400
 30
0.0
 10
28.528900
 20
6.410450
 30
0.0
  0
LWPOLYLINE
  5
191
100
AcDbEntity
  8
RPi_case___Side_R001_contour
 62
7
100
AcDbPolyline
 90
2
 70
0
 10
38.228900
 20
10.410400
 30
0.0
 10
28.528900
 20
10.410400
 30
0.0
  0
LWPOLYLINE
  5
192
100
AcDbEntity
  8
RPi_case___Side_R001_contour
 62
7
100
AcDbPolyline
 90
2
 70
0
 10
38.228900
 20
6.410450
 30
0.0
 10
38.228900
 20
10.410400
 30
0.0
  0
LWPOLYLINE
  5
193
100
AcDbEntity
  8
RPi_case___Side_R001_contour
 62
7
100
AcDbPolyline
 90
2
 70
0
 10
48.528900
 20
6.410450
 30
0.0
 10
38.228900
 20
6.410450
 30
0.0
  0
LWPOLYLINE
  5
194
100
AcDbEntity
  8
RPi_case___Side_R001_contour
 62
7
100
AcDbPolyline
 90
2
 70
0
 10
48.528900
 20
16.410400
 30
0.0
 10
48.528900
 20
6.410450
 30
0.0
  0
LWPOLYLINE
  5
195
100
AcDbEntity
  8
RPi_case___Side_R001_contour
 62
7
100
AcDbPolyline
 90
2
 70
0
 10
52.528900
 20
16.410400
 30
0.0
 10
48.528900
 20
16.410400
 30
0.0
  0
LWPOLYLINE
  5
196
100
AcDbEntity
  8
RPi_case___Side_R001_contour
 62
7
100
AcDbPolyline
 90
2
 70
0
 10
52.528900
 20
27.210400
 30
0.0
 10
52.528900
 20
16.410400
 30
0.0
  0
LWPOLYLINE
  5
197
100
AcDbEntity
  8
RPi_case___Side_R001_contour
 62
7
100
AcDbPolyline
 90
2
 70
0
 10
48.528900
 20
27.210400
 30
0.0
 10
52.528900
 20
27.210400
 30
0.0
  0
LWPOLYLINE
  5
198
100
AcDbEntity
  8
RPi_case___Side_R001_contour
 62
7
100
AcDbPolyline
 90
2
 70
0
 10
48.528900
 20
37.410400
 30
0.0
 10
48.528900
 20
27.210400
 30
0.0
  0
LWPOLYLINE
  5
199
100
AcDbEntity
  8
RPi_case___Side_R001_contour
 62
7
100
AcDbPolyline
 90
2
 70
0
 10
52.528900
 20
37.410400
 30
0.0
 10
48.528900
 20
37.410400
 30
0.0
  0
LWPOLYLINE
  5
19a
100
AcDbEntity
  8
RPi_case___Side_R001_contour
 62
7
100
AcDbPolyline
 90
2
 70
0
 10
52.528900
 20
48.210400
 30
0.0
 10
52.528900
 20
37.410400
 30
0.0
  0
LWPOLYLINE
  5
19b
100
AcDbEntity
  8
RPi_case___Side_R001_contour
 62
7
100
AcDbPolyline
 90
2
 70
0
 10
48.528900
 20
48.210400
 30
0.0
 10
52.528900
 20
48.210400
 30
0.0
  0
LWPOLYLINE
  5
19c
100
AcDbEntity
  8
RPi_case___Side_R001_contour
 62
7
100
AcDbPolyline
 90
2
 70
0
 10
48.528900
 20
58.410400
 30
0.0
 10
48.528900
 20
48.210400
 30
0.0
  0
LWPOLYLINE
  5
19d
100
AcDbEntity
  8
RPi_case___Side_R001_contour
 62
7
100
AcDbPolyline
 90
2
 70
0
 10
52.528900
 20
58.410400
 30
0.0
 10
48.528900
 20
58.410400
 30
0.0
  0
LWPOLYLINE
  5
19e
100
AcDbEntity
  8
RPi_case___Side_R001_contour
 62
7
100
AcDbPolyline
 90
2
 70
0
 10
52.528900
 20
69.710400
 30
0.0
 10
52.528900
 20
58.410400
 30
0.0
  0
LWPOLYLINE
  5
19f
100
AcDbEntity
  8
RPi_case___Side_R001_contour
 62
7
100
AcDbPolyline
 90
2
 70
0
 10
48.528900
 20
69.710400
 30
0.0
 10
52.528900
 20
69.710400
 30
0.0
  0
LWPOLYLINE
  5
1a0
100
AcDbEntity
  8
RPi_case___Side_R001_contour
 62
7
100
AcDbPolyline
 90
2
 70
0
 10
48.528900
 20
79.910400
 30
0.0
 10
48.528900
 20
69.710400
 30
0.0
  0
LWPOLYLINE
  5
1a1
100
AcDbEntity
  8
RPi_case___Side_R001_contour
 62
7
100
AcDbPolyline
 90
2
 70
0
 10
52.528900
 20
79.910400
 30
0.0
 10
48.528900
 20
79.910400
 30
0.0
  0
LWPOLYLINE
  5
1a2
100
AcDbEntity
  8
RPi_case___Side_R001_contour
 62
7
100
AcDbPolyline
 90
2
 70
0
 10
52.528900
 20
90.710400
 30
0.0
 10
52.528900
 20
79.910400
 30
0.0
  0
LWPOLYLINE
  5
1a3
100
AcDbEntity
  8
RPi_case___Side_R001_contour
 62
7
100
AcDbPolyline
 90
2
 70
0
 10
48.528900
 20
90.710400
 30
0.0
 10
52.528900
 20
90.710400
 30
0.0
  0
LWPOLYLINE
  5
1a4
100
AcDbEntity
  8
RPi_case___Side_R001_contour
 62
7
100
AcDbPolyline
 90
2
 70
0
 10
48.528900
 20
97.210400
 30
0.0
 10
48.528900
 20
90.710400
 30
0.0
  0
LWPOLYLINE
  5
1a5
100
AcDbEntity
  8
RPi_case___Side_R001_contour
 62
7
100
AcDbPolyline
 90
2
 70
0
 10
38.528900
 20
97.210400
 30
0.0
 10
48.528900
 20
97.210400
 30
0.0
  0
LWPOLYLINE
  5
1a6
100
AcDbEntity
  8
RPi_case___Side_R001_contour
 62
7
100
AcDbPolyline
 90
2
 70
0
 10
38.528900
 20
101.210000
 30
0.0
 10
38.528900
 20
97.210400
 30
0.0
  0
LWPOLYLINE
  5
1a7
100
AcDbEntity
  8
RPi_case___Side_R001_contour
 62
7
100
AcDbPolyline
 90
2
 70
0
 10
28.228900
 20
101.210000
 30
0.0
 10
38.528900
 20
101.210000
 30
0.0
  0
LWPOLYLINE
  5
1a8
100
AcDbEntity
  8
RPi_case___Side_R001_contour
 62
7
100
AcDbPolyline
 90
2
 70
0
 10
28.228900
 20
97.210400
 30
0.0
 10
28.228900
 20
101.210000
 30
0.0
  0
LWPOLYLINE
  5
1a9
100
AcDbEntity
  8
RPi_case___Side_R001_contour
 62
7
100
AcDbPolyline
 90
2
 70
0
 10
18.528900
 20
97.210400
 30
0.0
 10
28.228900
 20
97.210400
 30
0.0
  0
LWPOLYLINE
  5
1aa
100
AcDbEntity
  8
RPi_case___Side_R001_contour
 62
7
100
AcDbPolyline
 90
2
 70
0
 10
18.528900
 20
101.210000
 30
0.0
 10
18.528900
 20
97.210400
 30
0.0
  0
LWPOLYLINE
  5
1ab
100
AcDbEntity
  8
RPi_case___Side_R001_contour
 62
7
100
AcDbPolyline
 90
2
 70
0
 10
12.378900
 20
101.210000
 30
0.0
 10
18.528900
 20
101.210000
 30
0.0
  0
LWPOLYLINE
  5
1ac
100
AcDbEntity
  8
RPi_case___Side_B001_contour
 62
7
100
AcDbPolyline
 90
2
 70
0
 10
76.321400
 20
49.052400
 30
0.0
 10
76.321400
 20
39.852400
 30
0.0
  0
LWPOLYLINE
  5
1ad
100
AcDbEntity
  8
RPi_case___Side_B001_contour
 62
7
100
AcDbPolyline
 90
2
 70
0
 10
80.221400
 20
49.052400
 30
0.0
 10
76.321400
 20
49.052400
 30
0.0
  0
LWPOLYLINE
  5
1ae
100
AcDbEntity
  8
RPi_case___Side_B001_contour
 62
7
100
AcDbPolyline
 90
2
 70
0
 10
80.221400
 20
39.852400
 30
0.0
 10
80.221400
 20
49.052400
 30
0.0
  0
LWPOLYLINE
  5
1af
100
AcDbEntity
  8
RPi_case___Side_B001_contour
 62
7
100
AcDbPolyline
 90
2
 70
0
 10
76.321400
 20
39.852400
 30
0.0
 10
80.221400
 20
39.852400
 30
0.0
  0
LWPOLYLINE
  5
1b0
100
AcDbEntity
  8
RPi_case___Side_B001_contour
 62
7
100
AcDbPolyline
 90
2
 70
0
 10
76.321400
 20
30.052400
 30
0.0
 10
76.321400
 20
20.852400
 30
0.0
  0
LWPOLYLINE
  5
1b1
100
AcDbEntity
  8
RPi_case___Side_B001_contour
 62
7
100
AcDbPolyline
 90
2
 70
0
 10
80.221400
 20
30.052400
 30
0.0
 10
76.321400
 20
30.052400
 30
0.0
  0
LWPOLYLINE
  5
1b2
100
AcDbEntity
  8
RPi_case___Side_B001_contour
 62
7
100
AcDbPolyline
 90
2
 70
0
 10
80.221400
 20
20.852400
 30
0.0
 10
80.221400
 20
30.052400
 30
0.0
  0
LWPOLYLINE
  5
1b3
100
AcDbEntity
  8
RPi_case___Side_B001_contour
 62
7
100
AcDbPolyline
 90
2
 70
0
 10
76.321400
 20
20.852400
 30
0.0
 10
80.221400
 20
20.852400
 30
0.0
  0
LWPOLYLINE
  5
1b4
100
AcDbEntity
  8
RPi_case___Side_B001_contour
 62
7
100
AcDbPolyline
 90
2
 70
0
 10
80.221400
 20
58.852400
 30
0.0
 10
80.221400
 20
68.852400
 30
0.0
  0
LWPOLYLINE
  5
1b5
100
AcDbEntity
  8
RPi_case___Side_B001_contour
 62
7
100
AcDbPolyline
 90
2
 70
0
 10
76.321400
 20
58.852400
 30
0.0
 10
80.221400
 20
58.852400
 30
0.0
  0
LWPOLYLINE
  5
1b6
100
AcDbEntity
  8
RPi_case___Side_B001_contour
 62
7
100
AcDbPolyline
 90
2
 70
0
 10
76.321400
 20
68.852400
 30
0.0
 10
76.321400
 20
58.852400
 30
0.0
  0
LWPOLYLINE
  5
1b7
100
AcDbEntity
  8
RPi_case___Side_B001_contour
 62
7
100
AcDbPolyline
 90
2
 70
0
 10
72.521400
 20
68.852400
 30
0.0
 10
76.321400
 20
68.852400
 30
0.0
  0
LWPOLYLINE
  5
1b8
100
AcDbEntity
  8
RPi_case___Side_B001_contour
 62
7
100
AcDbPolyline
 90
2
 70
0
 10
72.521400
 20
72.852400
 30
0.0
 10
72.521400
 20
68.852400
 30
0.0
  0
LWPOLYLINE
  5
1b9
100
AcDbEntity
  8
RPi_case___Side_B001_contour
 62
7
100
AcDbPolyline
 90
2
 70
0
 10
61.221400
 20
72.852400
 30
0.0
 10
72.521400
 20
72.852400
 30
0.0
  0
LWPOLYLINE
  5
1ba
100
AcDbEntity
  8
RPi_case___Side_B001_contour
 62
7
100
AcDbPolyline
 90
2
 70
0
 10
61.221400
 20
68.702400
 30
0.0
 10
61.221400
 20
72.852400
 30
0.0
  0
LWPOLYLINE
  5
1bb
100
AcDbEntity
  8
RPi_case___Side_B001_contour
 62
7
100
AcDbPolyline
 90
10
 70
0
 10
61.221400
 20
68.702400
 30
0.0
 10
61.221400
 20
64.552400
 30
0.0
 10
65.221400
 20
64.552400
 30
0.0
 10
65.221400
 20
54.852400
 30
0.0
 10
61.221400
 20
54.852400
 30
0.0
 10
61.221400
 20
44.552400
 30
0.0
 10
65.371400
 20
44.552400
 30
0.0
 10
66.221400
 20
44.552400
 30
0.0
 10
66.221400
 20
34.852400
 30
0.0
 10
65.371400
 20
34.852400
 30
0.0
  0
LWPOLYLINE
  5
1bc
100
AcDbEntity
  8
RPi_case___Side_B001_contour
 62
7
100
AcDbPolyline
 90
2
 70
0
 10
61.221400
 20
34.852400
 30
0.0
 10
65.371400
 20
34.852400
 30
0.0
  0
LWPOLYLINE
  5
1bd
100
AcDbEntity
  8
RPi_case___Side_B001_contour
 62
7
100
AcDbPolyline
 90
2
 70
0
 10
61.221400
 20
24.552400
 30
0.0
 10
61.221400
 20
34.852400
 30
0.0
  0
LWPOLYLINE
  5
1be
100
AcDbEntity
  8
RPi_case___Side_B001_contour
 62
7
100
AcDbPolyline
 90
2
 70
0
 10
65.221400
 20
24.552400
 30
0.0
 10
61.221400
 20
24.552400
 30
0.0
  0
LWPOLYLINE
  5
1bf
100
AcDbEntity
  8
RPi_case___Side_B001_contour
 62
7
100
AcDbPolyline
 90
2
 70
0
 10
65.221400
 20
14.852400
 30
0.0
 10
65.221400
 20
24.552400
 30
0.0
  0
LWPOLYLINE
  5
1c0
100
AcDbEntity
  8
RPi_case___Side_B001_contour
 62
7
100
AcDbPolyline
 90
2
 70
0
 10
61.221400
 20
14.852400
 30
0.0
 10
65.221400
 20
14.852400
 30
0.0
  0
LWPOLYLINE
  5
1c1
100
AcDbEntity
  8
RPi_case___Side_B001_contour
 62
7
100
AcDbPolyline
 90
10
 70
0
 10
61.221400
 20
14.852400
 30
0.0
 10
61.221400
 20
10.702400
 30
0.0
 10
61.221400
 20
6.552390
 30
0.0
 10
72.521400
 20
6.552390
 30
0.0
 10
72.521400
 20
10.552400
 30
0.0
 10
82.221400
 20
10.552400
 30
0.0
 10
82.221400
 20
6.552390
 30
0.0
 10
92.521400
 20
6.552390
 30
0.0
 10
92.521400
 20
10.552400
 30
0.0
 10
106.521000
 20
10.552400
 30
0.0
  0
LWPOLYLINE
  5
1c2
100
AcDbEntity
  8
RPi_case___Side_B001_contour
 62
7
100
AcDbPolyline
 90
2
 70
0
 10
106.521000
 20
21.852400
 30
0.0
 10
106.521000
 20
10.552400
 30
0.0
  0
LWPOLYLINE
  5
1c3
100
AcDbEntity
  8
RPi_case___Side_B001_contour
 62
7
100
AcDbPolyline
 90
2
 70
0
 10
102.521000
 20
21.852400
 30
0.0
 10
106.521000
 20
21.852400
 30
0.0
  0
LWPOLYLINE
  5
1c4
100
AcDbEntity
  8
RPi_case___Side_B001_contour
 62
7
100
AcDbPolyline
 90
2
 70
0
 10
102.521000
 20
32.852400
 30
0.0
 10
102.521000
 20
21.852400
 30
0.0
  0
LWPOLYLINE
  5
1c5
100
AcDbEntity
  8
RPi_case___Side_B001_contour
 62
7
100
AcDbPolyline
 90
2
 70
0
 10
100.521000
 20
32.852400
 30
0.0
 10
102.521000
 20
32.852400
 30
0.0
  0
LWPOLYLINE
  5
1c6
100
AcDbEntity
  8
RPi_case___Side_B001_contour
 62
7
100
AcDbPolyline
 90
2
 70
0
 10
100.521000
 20
45.952400
 30
0.0
 10
100.521000
 20
32.852400
 30
0.0
  0
LWPOLYLINE
  5
1c7
100
AcDbEntity
  8
RPi_case___Side_B001_contour
 62
7
100
AcDbPolyline
 90
2
 70
0
 10
102.371000
 20
45.952400
 30
0.0
 10
100.521000
 20
45.952400
 30
0.0
  0
LWPOLYLINE
  5
1c8
100
AcDbEntity
  8
RPi_case___Side_B001_contour
 62
7
100
AcDbPolyline
 90
2
 70
0
 10
106.521000
 20
45.952400
 30
0.0
 10
102.371000
 20
45.952400
 30
0.0
  0
LWPOLYLINE
  5
1c9
100
AcDbEntity
  8
RPi_case___Side_B001_contour
 62
7
100
AcDbPolyline
 90
2
 70
0
 10
106.521000
 20
57.852400
 30
0.0
 10
106.521000
 20
45.952400
 30
0.0
  0
LWPOLYLINE
  5
1ca
100
AcDbEntity
  8
RPi_case___Side_B001_contour
 62
7
100
AcDbPolyline
 90
2
 70
0
 10
102.521000
 20
57.852400
 30
0.0
 10
106.521000
 20
57.852400
 30
0.0
  0
LWPOLYLINE
  5
1cb
100
AcDbEntity
  8
RPi_case___Side_B001_contour
 62
7
100
AcDbPolyline
 90
2
 70
0
 10
102.521000
 20
68.852400
 30
0.0
 10
102.521000
 20
57.852400
 30
0.0
  0
LWPOLYLINE
  5
1cc
100
AcDbEntity
  8
RPi_case___Side_B001_contour
 62
7
100
AcDbPolyline
 90
2
 70
0
 10
92.521400
 20
68.852400
 30
0.0
 10
102.521000
 20
68.852400
 30
0.0
  0
LWPOLYLINE
  5
1cd
100
AcDbEntity
  8
RPi_case___Side_B001_contour
 62
7
100
AcDbPolyline
 90
2
 70
0
 10
92.521400
 20
72.852400
 30
0.0
 10
92.521400
 20
68.852400
 30
0.0
  0
LWPOLYLINE
  5
1ce
100
AcDbEntity
  8
RPi_case___Side_B001_contour
 62
7
100
AcDbPolyline
 90
2
 70
0
 10
82.221400
 20
72.852400
 30
0.0
 10
92.521400
 20
72.852400
 30
0.0
  0
LWPOLYLINE
  5
1cf
100
AcDbEntity
  8
RPi_case___Side_B001_contour
 62
7
100
AcDbPolyline
 90
2
 70
0
 10
82.221400
 20
68.852400
 30
0.0
 10
82.221400
 20
72.852400
 30
0.0
  0
LWPOLYLINE
  5
1d0
100
AcDbEntity
  8
RPi_case___Side_B001_contour
 62
7
100
AcDbPolyline
 90
2
 70
0
 10
82.221400
 20
68.852400
 30
0.0
 10
80.221400
 20
68.852400
 30
0.0
  0
LWPOLYLINE
  5
1d1
100
AcDbEntity
  8
RPi_case___Back_support001_contour
 62
7
100
AcDbPolyline
 90
6
 70
0
 10
64.996600
 20
85.092700
 30
0.0
 10
64.996600
 20
84.092700
 30
0.0
 10
67.076600
 20
84.092700
 30
0.0
 10
67.076600
 20
85.242700
 30
0.0
 10
67.076600
 20
87.262700
 30
0.0
 10
72.371700
 20
87.262700
 30
0.0
  0
LWPOLYLINE
  5
1d2
100
AcDbEntity
  8
RPi_case___Back_support001_contour
 62
7
100
AcDbPolyline
 90
2
 70
0
 10
74.745600
 20
87.364600
 30
0.0
 10
72.371700
 20
87.262700
 30
0.0
  0
LWPOLYLINE
  5
1d3
100
AcDbEntity
  8
RPi_case___Back_support001_contour
 62
7
100
AcDbPolyline
 90
2
 70
0
 10
77.121800
 20
87.352600
 30
0.0
 10
74.745600
 20
87.364600
 30
0.0
  0
LWPOLYLINE
  5
1d4
100
AcDbEntity
  8
RPi_case___Back_support001_contour
 62
7
100
AcDbPolyline
 90
2
 70
0
 10
79.494600
 20
87.226700
 30
0.0
 10
77.121800
 20
87.352600
 30
0.0
  0
LWPOLYLINE
  5
1d5
100
AcDbEntity
  8
RPi_case___Back_support001_contour
 62
7
100
AcDbPolyline
 90
2
 70
0
 10
81.858600
 20
86.987300
 30
0.0
 10
79.494600
 20
87.226700
 30
0.0
  0
LWPOLYLINE
  5
1d6
100
AcDbEntity
  8
RPi_case___Back_support001_contour
 62
7
100
AcDbPolyline
 90
2
 70
0
 10
84.208500
 20
86.634900
 30
0.0
 10
81.858600
 20
86.987300
 30
0.0
  0
LWPOLYLINE
  5
1d7
100
AcDbEntity
  8
RPi_case___Back_support001_contour
 62
7
100
AcDbPolyline
 90
2
 70
0
 10
86.538800
 20
86.170300
 30
0.0
 10
84.208500
 20
86.634900
 30
0.0
  0
LWPOLYLINE
  5
1d8
100
AcDbEntity
  8
RPi_case___Back_support001_contour
 62
7
100
AcDbPolyline
 90
2
 70
0
 10
88.844100
 20
85.594500
 30
0.0
 10
86.538800
 20
86.170300
 30
0.0
  0
LWPOLYLINE
  5
1d9
100
AcDbEntity
  8
RPi_case___Back_support001_contour
 62
7
100
AcDbPolyline
 90
2
 70
0
 10
91.119200
 20
84.909000
 30
0.0
 10
88.844100
 20
85.594500
 30
0.0
  0
LWPOLYLINE
  5
1da
100
AcDbEntity
  8
RPi_case___Back_support001_contour
 62
7
100
AcDbPolyline
 90
2
 70
0
 10
93.358900
 20
84.115200
 30
0.0
 10
91.119200
 20
84.909000
 30
0.0
  0
LWPOLYLINE
  5
1db
100
AcDbEntity
  8
RPi_case___Back_support001_contour
 62
7
100
AcDbPolyline
 90
2
 70
0
 10
95.557900
 20
83.214900
 30
0.0
 10
93.358900
 20
84.115200
 30
0.0
  0
LWPOLYLINE
  5
1dc
100
AcDbEntity
  8
RPi_case___Back_support001_contour
 62
7
100
AcDbPolyline
 90
2
 70
0
 10
97.711300
 20
82.210400
 30
0.0
 10
95.557900
 20
83.214900
 30
0.0
  0
LWPOLYLINE
  5
1dd
100
AcDbEntity
  8
RPi_case___Back_support001_contour
 62
7
100
AcDbPolyline
 90
2
 70
0
 10
99.814000
 20
81.103800
 30
0.0
 10
97.711300
 20
82.210400
 30
0.0
  0
LWPOLYLINE
  5
1de
100
AcDbEntity
  8
RPi_case___Back_support001_contour
 62
7
100
AcDbPolyline
 90
2
 70
0
 10
101.861000
 20
79.897700
 30
0.0
 10
99.814000
 20
81.103800
 30
0.0
  0
LWPOLYLINE
  5
1df
100
AcDbEntity
  8
RPi_case___Back_support001_contour
 62
7
100
AcDbPolyline
 90
2
 70
0
 10
103.848000
 20
78.594800
 30
0.0
 10
101.861000
 20
79.897700
 30
0.0
  0
LWPOLYLINE
  5
1e0
100
AcDbEntity
  8
RPi_case___Back_support001_contour
 62
7
100
AcDbPolyline
 90
2
 70
0
 10
105.771000
 20
77.198300
 30
0.0
 10
103.848000
 20
78.594800
 30
0.0
  0
LWPOLYLINE
  5
1e1
100
AcDbEntity
  8
RPi_case___Back_support001_contour
 62
7
100
AcDbPolyline
 90
2
 70
0
 10
107.624000
 20
75.711200
 30
0.0
 10
105.771000
 20
77.198300
 30
0.0
  0
LWPOLYLINE
  5
1e2
100
AcDbEntity
  8
RPi_case___Back_support001_contour
 62
7
100
AcDbPolyline
 90
2
 70
0
 10
109.404000
 20
74.137000
 30
0.0
 10
107.624000
 20
75.711200
 30
0.0
  0
LWPOLYLINE
  5
1e3
100
AcDbEntity
  8
RPi_case___Back_support001_contour
 62
7
100
AcDbPolyline
 90
2
 70
0
 10
111.106000
 20
72.479300
 30
0.0
 10
109.404000
 20
74.137000
 30
0.0
  0
LWPOLYLINE
  5
1e4
100
AcDbEntity
  8
RPi_case___Back_support001_contour
 62
7
100
AcDbPolyline
 90
2
 70
0
 10
112.728000
 20
70.742000
 30
0.0
 10
111.106000
 20
72.479300
 30
0.0
  0
LWPOLYLINE
  5
1e5
100
AcDbEntity
  8
RPi_case___Back_support001_contour
 62
7
100
AcDbPolyline
 90
2
 70
0
 10
114.263000
 20
68.929000
 30
0.0
 10
112.728000
 20
70.742000
 30
0.0
  0
LWPOLYLINE
  5
1e6
100
AcDbEntity
  8
RPi_case___Back_support001_contour
 62
7
100
AcDbPolyline
 90
2
 70
0
 10
115.711000
 20
67.044400
 30
0.0
 10
114.263000
 20
68.929000
 30
0.0
  0
LWPOLYLINE
  5
1e7
100
AcDbEntity
  8
RPi_case___Back_support001_contour
 62
7
100
AcDbPolyline
 90
2
 70
0
 10
117.066000
 20
65.092700
 30
0.0
 10
115.711000
 20
67.044400
 30
0.0
  0
LWPOLYLINE
  5
1e8
100
AcDbEntity
  8
RPi_case___Back_support001_contour
 62
7
100
AcDbPolyline
 90
2
 70
0
 10
123.147000
 20
65.092700
 30
0.0
 10
117.066000
 20
65.092700
 30
0.0
  0
LWPOLYLINE
  5
1e9
100
AcDbEntity
  8
RPi_case___Back_support001_contour
 62
7
100
AcDbPolyline
 90
2
 70
0
 10
127.297000
 20
65.092700
 30
0.0
 10
123.147000
 20
65.092700
 30
0.0
  0
LWPOLYLINE
  5
1ea
100
AcDbEntity
  8
RPi_case___Back_support001_contour
 62
7
100
AcDbPolyline
 90
2
 70
0
 10
127.297000
 20
75.392700
 30
0.0
 10
127.297000
 20
65.092700
 30
0.0
  0
LWPOLYLINE
  5
1eb
100
AcDbEntity
  8
RPi_case___Back_support001_contour
 62
7
100
AcDbPolyline
 90
2
 70
0
 10
123.297000
 20
75.392700
 30
0.0
 10
127.297000
 20
75.392700
 30
0.0
  0
LWPOLYLINE
  5
1ec
100
AcDbEntity
  8
RPi_case___Back_support001_contour
 62
7
100
AcDbPolyline
 90
2
 70
0
 10
123.297000
 20
85.092700
 30
0.0
 10
123.297000
 20
75.392700
 30
0.0
  0
LWPOLYLINE
  5
1ed
100
AcDbEntity
  8
RPi_case___Back_support001_contour
 62
7
100
AcDbPolyline
 90
2
 70
0
 10
127.297000
 20
85.092700
 30
0.0
 10
123.297000
 20
85.092700
 30
0.0
  0
LWPOLYLINE
  5
1ee
100
AcDbEntity
  8
RPi_case___Back_support001_contour
 62
7
100
AcDbPolyline
 90
2
 70
0
 10
127.297000
 20
95.392700
 30
0.0
 10
127.297000
 20
85.092700
 30
0.0
  0
LWPOLYLINE
  5
1ef
100
AcDbEntity
  8
RPi_case___Back_support001_contour
 62
7
100
AcDbPolyline
 90
2
 70
0
 10
123.297000
 20
95.392700
 30
0.0
 10
127.297000
 20
95.392700
 30
0.0
  0
LWPOLYLINE
  5
1f0
100
AcDbEntity
  8
RPi_case___Back_support001_contour
 62
7
100
AcDbPolyline
 90
16
 70
0
 10
123.297000
 20
95.392700
 30
0.0
 10
123.297000
 20
99.392700
 30
0.0
 10
112.997000
 20
99.392700
 30
0.0
 10
112.997000
 20
95.392700
 30
0.0
 10
103.797000
 20
95.392700
 30
0.0
 10
103.797000
 20
99.392700
 30
0.0
 10
93.996600
 20
99.392700
 30
0.0
 10
93.996600
 20
95.392700
 30
0.0
 10
84.796600
 20
95.392700
 30
0.0
 10
84.796600
 20
99.392700
 30
0.0
 10
74.996600
 20
99.392700
 30
0.0
 10
74.996600
 20
95.392700
 30
0.0
 10
65.146600
 20
95.392700
 30
0.0
 10
60.996600
 20
95.392700
 30
0.0
 10
60.996600
 20
85.092700
 30
0.0
 10
64.996600
 20
85.092700
 30
0.0
  0
LWPOLYLINE
  5
1f1
100
AcDbEntity
  8
RPi_case___Back_support001_contour
 62
7
100
AcDbPolyline
 90
6
 70
0
 10
182.359287
 20
224.013502
 30
0.0
 10
183.359287
 20
224.013502
 30
0.0
 10
183.359287
 20
226.093503
 30
0.0
 10
182.209287
 20
226.093503
 30
0.0
 10
180.189288
 20
226.093503
 30
0.0
 10
180.189288
 20
231.388604
 30
0.0
  0
LWPOLYLINE
  5
1f2
100
AcDbEntity
  8
RPi_case___Back_support001_contour
 62
7
100
AcDbPolyline
 90
2
 70
0
 10
180.087386
 20
233.762504
 30
0.0
 10
180.189288
 20
231.388604
 30
0.0
  0
LWPOLYLINE
  5
1f3
100
AcDbEntity
  8
RPi_case___Back_support001_contour
 62
7
100
AcDbPolyline
 90
2
 70
0
 10
180.099388
 20
236.138703
 30
0.0
 10
180.087376
 20
233.762504
 30
0.0
  0
LWPOLYLINE
  5
1f4
100
AcDbEntity
  8
RPi_case___Back_support001_contour
 62
7
100
AcDbPolyline
 90
2
 70
0
 10
180.225287
 20
238.511502
 30
0.0
 10
180.099388
 20
236.138703
 30
0.0
  0
LWPOLYLINE
  5
1f5
100
AcDbEntity
  8
RPi_case___Back_support001_contour
 62
7
100
AcDbPolyline
 90
2
 70
0
 10
180.464688
 20
240.875504
 30
0.0
 10
180.225287
 20
238.511502
 30
0.0
  0
LWPOLYLINE
  5
1f6
100
AcDbEntity
  8
RPi_case___Back_support001_contour
 62
7
100
AcDbPolyline
 90
2
 70
0
 10
180.817086
 20
243.225403
 30
0.0
 10
180.464688
 20
240.875504
 30
0.0
  0
LWPOLYLINE
  5
1f7
100
AcDbEntity
  8
RPi_case___Back_support001_contour
 62
7
100
AcDbPolyline
 90
2
 70
0
 10
181.281686
 20
245.555703
 30
0.0
 10
180.817086
 20
243.225403
 30
0.0
  0
LWPOLYLINE
  5
1f8
100
AcDbEntity
  8
RPi_case___Back_support001_contour
 62
7
100
AcDbPolyline
 90
2
 70
0
 10
181.857486
 20
247.861004
 30
0.0
 10
181.281686
 20
245.555703
 30
0.0
  0
LWPOLYLINE
  5
1f9
100
AcDbEntity
  8
RPi_case___Back_support001_contour
 62
7
100
AcDbPolyline
 90
2
 70
0
 10
182.542987
 20
250.136106
 30
0.0
 10
181.857486
 20
247.861004
 30
0.0
  0
LWPOLYLINE
  5
1fa
100
AcDbEntity
  8
RPi_case___Back_support001_contour
 62
7
100
AcDbPolyline
 90
2
 70
0
 10
183.336787
 20
252.375804
 30
0.0
 10
182.542987
 20
250.136106
 30
0.0
  0
LWPOLYLINE
  5
1fb
100
AcDbEntity
  8
RPi_case___Back_support001_contour
 62
7
100
AcDbPolyline
 90
2
 70
0
 10
184.237088
 20
254.574806
 30
0.0
 10
183.336787
 20
252.375804
 30
0.0
  0
LWPOLYLINE
  5
1fc
100
AcDbEntity
  8
RPi_case___Back_support001_contour
 62
7
100
AcDbPolyline
 90
2
 70
0
 10
185.241586
 20
256.728205
 30
0.0
 10
184.237088
 20
254.574806
 30
0.0
  0
LWPOLYLINE
  5
1fd
100
AcDbEntity
  8
RPi_case___Back_support001_contour
 62
7
100
AcDbPolyline
 90
2
 70
0
 10
186.348187
 20
258.830904
 30
0.0
 10
185.241586
 20
256.728205
 30
0.0
  0
LWPOLYLINE
  5
1fe
100
AcDbEntity
  8
RPi_case___Back_support001_contour
 62
7
100
AcDbPolyline
 90
2
 70
0
 10
187.554288
 20
260.877906
 30
0.0
 10
186.348187
 20
258.830904
 30
0.0
  0
LWPOLYLINE
  5
1ff
100
AcDbEntity
  8
RPi_case___Back_support001_contour
 62
7
100
AcDbPolyline
 90
2
 70
0
 10
188.857186
 20
262.864906
 30
0.0
 10
187.554288
 20
260.877906
 30
0.0
  0
LWPOLYLINE
  5
200
100
AcDbEntity
  8
RPi_case___Back_support001_contour
 62
7
100
AcDbPolyline
 90
2
 70
0
 10
190.253686
 20
264.787905
 30
0.0
 10
188.857186
 20
262.864906
 30
0.0
  0
LWPOLYLINE
  5
201
100
AcDbEntity
  8
RPi_case___Back_support001_contour
 62
7
100
AcDbPolyline
 90
2
 70
0
 10
191.740787
 20
266.640904
 30
0.0
 10
190.253686
 20
264.787905
 30
0.0
  0
LWPOLYLINE
  5
202
100
AcDbEntity
  8
RPi_case___Back_support001_contour
 62
7
100
AcDbPolyline
 90
2
 70
0
 10
193.314987
 20
268.420904
 30
0.0
 10
191.740787
 20
266.640904
 30
0.0
  0
LWPOLYLINE
  5
203
100
AcDbEntity
  8
RPi_case___Back_support001_contour
 62
7
100
AcDbPolyline
 90
2
 70
0
 10
194.972686
 20
270.122905
 30
0.0
 10
193.314987
 20
268.420904
 30
0.0
  0
LWPOLYLINE
  5
204
100
AcDbEntity
  8
RPi_case___Back_support001_contour
 62
7
100
AcDbPolyline
 90
2
 70
0
 10
196.709988
 20
271.744905
 30
0.0
 10
194.972686
 20
270.122905
 30
0.0
  0
LWPOLYLINE
  5
205
100
AcDbEntity
  8
RPi_case___Back_support001_contour
 62
7
100
AcDbPolyline
 90
2
 70
0
 10
198.522987
 20
273.279906
 30
0.0
 10
196.709988
 20
271.744905
 30
0.0
  0
LWPOLYLINE
  5
206
100
AcDbEntity
  8
RPi_case___Back_support001_contour
 62
7
100
AcDbPolyline
 90
2
 70
0
 10
200.407588
 20
274.727905
 30
0.0
 10
198.522987
 20
273.279906
 30
0.0
  0
LWPOLYLINE
  5
207
100
AcDbEntity
  8
RPi_case___Back_support001_contour
 62
7
100
AcDbPolyline
 90
2
 70
0
 10
202.359286
 20
276.082905
 30
0.0
 10
200.407588
 20
274.727905
 30
0.0
  0
LWPOLYLINE
  5
208
100
AcDbEntity
  8
RPi_case___Back_support001_contour
 62
7
100
AcDbPolyline
 90
2
 70
0
 10
202.359286
 20
282.163906
 30
0.0
 10
202.359286
 20
276.082905
 30
0.0
  0
LWPOLYLINE
  5
209
100
AcDbEntity
  8
RPi_case___Back_support001_contour
 62
7
100
AcDbPolyline
 90
2
 70
0
 10
202.359286
 20
286.313905
 30
0.0
 10
202.359286
 20
282.163906
 30
0.0
  0
LWPOLYLINE
  5
20a
100
AcDbEntity
  8
RPi_case___Back_support001_contour
 62
7
100
AcDbPolyline
 90
2
 70
0
 10
192.059287
 20
286.313905
 30
0.0
 10
202.359286
 20
286.313905
 30
0.0
  0
LWPOLYLINE
  5
20b
100
AcDbEntity
  8
RPi_case___Back_support001_contour
 62
7
100
AcDbPolyline
 90
2
 70
0
 10
192.059287
 20
282.313905
 30
0.0
 10
192.059287
 20
286.313905
 30
0.0
  0
LWPOLYLINE
  5
20c
100
AcDbEntity
  8
RPi_case___Back_support001_contour
 62
7
100
AcDbPolyline
 90
2
 70
0
 10
182.359287
 20
282.313905
 30
0.0
 10
192.059287
 20
282.313905
 30
0.0
  0
LWPOLYLINE
  5
20d
100
AcDbEntity
  8
RPi_case___Back_support001_contour
 62
7
100
AcDbPolyline
 90
2
 70
0
 10
182.359287
 20
286.313905
 30
0.0
 10
182.359287
 20
282.313905
 30
0.0
  0
LWPOLYLINE
  5
20e
100
AcDbEntity
  8
RPi_case___Back_support001_contour
 62
7
100
AcDbPolyline
 90
2
 70
0
 10
172.059288
 20
286.313905
 30
0.0
 10
182.359287
 20
286.313905
 30
0.0
  0
LWPOLYLINE
  5
20f
100
AcDbEntity
  8
RPi_case___Back_support001_contour
 62
7
100
AcDbPolyline
 90
2
 70
0
 10
172.059288
 20
282.313905
 30
0.0
 10
172.059288
 20
286.313905
 30
0.0
  0
SPLINE
  5
210
100
AcDbEntity
  8
RPi_case___Back_support001_contour
 62
7
100
AcDbSpline
 70
8
 71
3
 72
8
 73
4
 74
0
 40
0
 40
0
 40
0
 40
0
 40
1
 40
1
 40
1
 40
1
 10
101.100553
 20
186.276431
 30
0.0
 10
101.100553
 20
186.276431
 30
0.0
 10
109.736913
 20
173.287372
 30
0.0
 10
109.088671
 20
158.634429
 30
0.0
  0
LWPOLYLINE
  5
211
100
AcDbEntity
  8
RPi_case___Back_support001_contour
 62
7
100
AcDbPolyline
 90
16
 70
0
 10
172.059288
 20
282.313905
 30
0.0
 10
168.059291
 20
282.313905
 30
0.0
 10
168.059291
 20
272.013906
 30
0.0
 10
172.059288
 20
272.013906
 30
0.0
 10
172.059288
 20
262.813905
 30
0.0
 10
168.059291
 20
262.813905
 30
0.0
 10
168.059291
 20
253.013505
 30
0.0
 10
172.059288
 20
253.013505
 30
0.0
 10
172.059288
 20
243.813503
 30
0.0
 10
168.059291
 20
243.813503
 30
0.0
 10
168.059291
 20
234.013503
 30
0.0
 10
172.059288
 20
234.013503
 30
0.0
 10
172.059288
 20
224.163502
 30
0.0
 10
172.059288
 20
220.013502
 30
0.0
 10
182.359287
 20
220.013502
 30
0.0
 10
182.359287
 20
224.013502
 30
0.0
  0
SPLINE
  5
212
100
AcDbEntity
  8
RPi_case___Back_support001_contour
 62
7
100
AcDbSpline
 70
8
 71
3
 72
8
 73
4
 74
0
 40
0
 40
0
 40
0
 40
0
 40
1
 40
1
 40
1
 40
1
 10
80.322183
 20
154.215661
 30
0.0
 10
81.310156
 20
162.520133
 30
0.0
 10
83.683453
 20
168.199828
 30
0.0
 10
87.772540
 20
175.899081
 30
0.0
  0
SPLINE
  5
213
100
AcDbEntity
  8
RPi_case___Back_support001_contour
 62
7
100
AcDbSpline
 70
8
 71
3
 72
8
 73
4
 74
0
 40
0
 40
0
 40
0
 40
0
 40
1
 40
1
 40
1
 40
1
 10
87.772540
 20
175.899081
 30
0.0
 10
69.717959
 20
164.630431
 30
0.0
 10
69.029481
 20
134.704184
 30
0.0
 10
87.891175
 20
123.317785
 30
0.0
  0
SPLINE
  5
214
100
AcDbEntity
  8
RPi_case___Back_support001_contour
 62
7
100
AcDbSpline
 70
8
 71
3
 72
8
 73
4
 74
0
 40
0
 40
0
 40
0
 40
0
 40
1
 40
1
 40
1
 40
1
 10
87.891175
 20
123.317785
 30
0.0
 10
82.392153
 20
132.065947
 30
0.0
 10
80.715236
 20
139.652204
 30
0.0
 10
80.039605
 20
148.221215
 30
0.0
  0
LWPOLYLINE
  5
215
100
AcDbEntity
  8
RPi_case___Back_support001_contour
 62
7
100
AcDbPolyline
 90
5
 70
0
 10
109.088671
 20
158.634429
 30
0.0
 10
91.616754
 20
175.953224
 30
0.0
 10
93.043457
 20
154.215661
 30
0.0
 10
86.915255
 20
154.215661
 30
0.0
 10
80.322183
 20
154.215661
 30
0.0
  0
SPLINE
  5
216
100
AcDbEntity
  8
RPi_case___Back_support001_contour
 62
7
100
AcDbSpline
 70
8
 71
3
 72
8
 73
4
 74
0
 40
0
 40
0
 40
0
 40
0
 40
1
 40
1
 40
1
 40
1
 10
108.165511
 20
151.006409
 30
0.0
 10
106.934554
 20
144.571835
 30
0.0
 10
104.513635
 20
139.415940
 30
0.0
 10
101.352306
 20
133.820665
 30
0.0
  0
SPLINE
  5
217
100
AcDbEntity
  8
RPi_case___Back_support001_contour
 62
7
100
AcDbSpline
 70
8
 71
3
 72
8
 73
4
 74
0
 40
0
 40
0
 40
0
 40
0
 40
1
 40
1
 40
1
 40
1
 10
101.352306
 20
133.820665
 30
0.0
 10
114.061016
 20
140.449146
 30
0.0
 10
124.911768
 20
169.964356
 30
0.0
 10
101.100553
 20
186.276425
 30
0.0
  0
LWPOLYLINE
  5
218
100
AcDbEntity
  8
RPi_case___Back_support001_contour
 62
7
100
AcDbPolyline
 90
5
 70
0
 10
80.039605
 20
148.221215
 30
0.0
 10
93.463164
 20
148.256384
 30
0.0
 10
94.618182
 20
134.556638
 30
0.0
 10
97.491535
 20
161.433351
 30
0.0
 10
108.165511
 20
151.006409
 30
0.0
  0
LWPOLYLINE
  5
219
100
AcDbEntity
  8
RPi_case___Back_support001_contour
 62
7
100
AcDbPolyline
 90
1
 70
1
 10
101.100553
 20
186.276425
 30
0.0
  0
LWPOLYLINE
  5
21a
100
AcDbEntity
  8
View
 62
7
100
AcDbPolyline
 90
13
 70
0
 10
197.455000
 20
122.811000
 30
0.0
 10
201.455000
 20
122.811000
 30
0.0
 10
201.455000
 20
131.111000
 30
0.0
 10
197.455000
 20
131.111000
 30
0.0
 10
197.455000
 20
139.911000
 30
0.0
 10
201.455000
 20
139.911000
 30
0.0
 10
201.455000
 20
157.211000
 30
0.0
 10
197.455000
 20
157.211000
 30
0.0
 10
197.455000
 20
164.811000
 30
0.0
 10
201.455000
 20
164.811000
 30
0.0
 10
201.455000
 20
175.111000
 30
0.0
 10
197.455000
 20
175.111000
 30
0.0
 10
197.455000
 20
181.411000
 30
0.0
  0
LWPOLYLINE
  5
21b
100
AcDbEntity
  8
View
 62
7
100
AcDbPolyline
 90
2
 70
0
 10
201.455000
 20
181.411000
 30
0.0
 10
197.455000
 20
181.411000
 30
0.0
  0
LWPOLYLINE
  5
21c
100
AcDbEntity
  8
View
 62
7
100
AcDbPolyline
 90
2
 70
0
 10
201.455000
 20
181.411000
 30
0.0
 10
201.455000
 20
201.711000
 30
0.0
  0
LWPOLYLINE
  5
21d
100
AcDbEntity
  8
View
 62
7
100
AcDbPolyline
 90
2
 70
0
 10
179.555000
 20
201.711000
 30
0.0
 10
201.455000
 20
201.711000
 30
0.0
  0
LWPOLYLINE
  5
21e
100
AcDbEntity
  8
View
 62
7
100
AcDbPolyline
 90
2
 70
0
 10
179.555000
 20
201.711000
 30
0.0
 10
179.555000
 20
185.511000
 30
0.0
  0
LWPOLYLINE
  5
21f
100
AcDbEntity
  8
View
 62
7
100
AcDbPolyline
 90
2
 70
0
 10
186.155000
 20
185.511000
 30
0.0
 10
179.555000
 20
185.511000
 30
0.0
  0
LWPOLYLINE
  5
220
100
AcDbEntity
  8
View
 62
7
100
AcDbPolyline
 90
2
 70
0
 10
186.155000
 20
181.611000
 30
0.0
 10
186.155000
 20
185.511000
 30
0.0
  0
LWPOLYLINE
  5
221
100
AcDbEntity
  8
View
 62
7
100
AcDbPolyline
 90
2
 70
0
 10
174.555000
 20
181.611000
 30
0.0
 10
186.155000
 20
181.611000
 30
0.0
  0
LWPOLYLINE
  5
222
100
AcDbEntity
  8
View
 62
7
100
AcDbPolyline
 90
6
 70
0
 10
174.555000
 20
181.611000
 30
0.0
 10
174.555000
 20
177.111000
 30
0.0
 10
161.455000
 20
177.111000
 30
0.0
 10
161.455000
 20
185.611000
 30
0.0
 10
156.455000
 20
185.611000
 30
0.0
 10
156.455000
 20
201.711000
 30
0.0
  0
LWPOLYLINE
  5
223
100
AcDbEntity
  8
View
 62
7
100
AcDbPolyline
 90
2
 70
0
 10
135.155000
 20
201.711000
 30
0.0
 10
156.455000
 20
201.711000
 30
0.0
  0
LWPOLYLINE
  5
224
100
AcDbEntity
  8
View
 62
7
100
AcDbPolyline
 90
2
 70
0
 10
135.155000
 20
201.711000
 30
0.0
 10
135.155000
 20
175.411000
 30
0.0
  0
LWPOLYLINE
  5
225
100
AcDbEntity
  8
View
 62
7
100
AcDbPolyline
 90
2
 70
0
 10
139.155000
 20
175.411000
 30
0.0
 10
135.155000
 20
175.411000
 30
0.0
  0
LWPOLYLINE
  5
226
100
AcDbEntity
  8
View
 62
7
100
AcDbPolyline
 90
2
 70
0
 10
139.155000
 20
165.211000
 30
0.0
 10
139.155000
 20
175.411000
 30
0.0
  0
LWPOLYLINE
  5
227
100
AcDbEntity
  8
View
 62
7
100
AcDbPolyline
 90
2
 70
0
 10
135.155000
 20
165.211000
 30
0.0
 10
139.155000
 20
165.211000
 30
0.0
  0
LWPOLYLINE
  5
228
100
AcDbEntity
  8
View
 62
7
100
AcDbPolyline
 90
2
 70
0
 10
135.155000
 20
165.211000
 30
0.0
 10
135.155000
 20
154.411000
 30
0.0
  0
LWPOLYLINE
  5
229
100
AcDbEntity
  8
View
 62
7
100
AcDbPolyline
 90
2
 70
0
 10
139.155000
 20
154.411000
 30
0.0
 10
135.155000
 20
154.411000
 30
0.0
  0
LWPOLYLINE
  5
22a
100
AcDbEntity
  8
View
 62
7
100
AcDbPolyline
 90
2
 70
0
 10
139.155000
 20
144.211000
 30
0.0
 10
139.155000
 20
154.411000
 30
0.0
  0
LWPOLYLINE
  5
22b
100
AcDbEntity
  8
View
 62
7
100
AcDbPolyline
 90
2
 70
0
 10
135.155000
 20
144.211000
 30
0.0
 10
139.155000
 20
144.211000
 30
0.0
  0
LWPOLYLINE
  5
22c
100
AcDbEntity
  8
View
 62
7
100
AcDbPolyline
 90
2
 70
0
 10
135.155000
 20
133.411000
 30
0.0
 10
135.155000
 20
144.211000
 30
0.0
  0
LWPOLYLINE
  5
22d
100
AcDbEntity
  8
View
 62
7
100
AcDbPolyline
 90
2
 70
0
 10
139.155000
 20
133.411000
 30
0.0
 10
135.155000
 20
133.411000
 30
0.0
  0
LWPOLYLINE
  5
22e
100
AcDbEntity
  8
View
 62
7
100
AcDbPolyline
 90
2
 70
0
 10
139.155000
 20
122.711000
 30
0.0
 10
139.155000
 20
133.411000
 30
0.0
  0
LWPOLYLINE
  5
22f
100
AcDbEntity
  8
View
 62
7
100
AcDbPolyline
 90
2
 70
0
 10
135.155000
 20
122.711000
 30
0.0
 10
139.155000
 20
122.711000
 30
0.0
  0
LWPOLYLINE
  5
230
100
AcDbEntity
  8
View
 62
7
100
AcDbPolyline
 90
2
 70
0
 10
135.155000
 20
111.911000
 30
0.0
 10
135.155000
 20
122.711000
 30
0.0
  0
LWPOLYLINE
  5
231
100
AcDbEntity
  8
View
 62
7
100
AcDbPolyline
 90
2
 70
0
 10
139.155000
 20
111.911000
 30
0.0
 10
135.155000
 20
111.911000
 30
0.0
  0
LWPOLYLINE
  5
232
100
AcDbEntity
  8
View
 62
7
100
AcDbPolyline
 90
2
 70
0
 10
139.155000
 20
101.711000
 30
0.0
 10
139.155000
 20
111.911000
 30
0.0
  0
LWPOLYLINE
  5
233
100
AcDbEntity
  8
View
 62
7
100
AcDbPolyline
 90
2
 70
0
 10
135.155000
 20
101.711000
 30
0.0
 10
139.155000
 20
101.711000
 30
0.0
  0
LWPOLYLINE
  5
234
100
AcDbEntity
  8
View
 62
7
100
AcDbPolyline
 90
2
 70
0
 10
135.155000
 20
101.711000
 30
0.0
 10
135.155000
 20
90.911300
 30
0.0
  0
LWPOLYLINE
  5
235
100
AcDbEntity
  8
View
 62
7
100
AcDbPolyline
 90
2
 70
0
 10
139.455000
 20
90.911300
 30
0.0
 10
135.155000
 20
90.911300
 30
0.0
  0
LWPOLYLINE
  5
236
100
AcDbEntity
  8
View
 62
7
100
AcDbPolyline
 90
8
 70
0
 10
139.455000
 20
90.911300
 30
0.0
 10
139.455000
 20
94.911300
 30
0.0
 10
163.155000
 20
94.911300
 30
0.0
 10
163.155000
 20
90.911300
 30
0.0
 10
173.455000
 20
90.911300
 30
0.0
 10
173.455000
 20
94.911300
 30
0.0
 10
197.455000
 20
94.911300
 30
0.0
 10
197.455000
 20
100.911000
 30
0.0
  0
LWPOLYLINE
  5
237
100
AcDbEntity
  8
View
 62
7
100
AcDbPolyline
 90
2
 70
0
 10
201.455000
 20
100.911000
 30
0.0
 10
197.455000
 20
100.911000
 30
0.0
  0
LWPOLYLINE
  5
238
100
AcDbEntity
  8
View
 62
7
100
AcDbPolyline
 90
2
 70
0
 10
201.455000
 20
112.211000
 30
0.0
 10
201.455000
 20
100.911000
 30
0.0
  0
LWPOLYLINE
  5
239
100
AcDbEntity
  8
View
 62
7
100
AcDbPolyline
 90
2
 70
0
 10
197.455000
 20
112.211000
 30
0.0
 10
201.455000
 20
112.211000
 30
0.0
  0
SPLINE
  5
23a
100
AcDbEntity
  8
View
 62
7
100
AcDbSpline
 70
8
 71
3
 72
8
 73
4
 74
0
 40
0
 40
0
 40
0
 40
0
 40
1
 40
1
 40
1
 40
1
 10
147.655000
 20
193.561000
 30
0.0
 10
147.655000
 20
194.221941
 30
0.0
 10
147.302392
 20
194.832676
 30
0.0
 10
146.730000
 20
195.163147
 30
0.0
  0
SPLINE
  5
23b
100
AcDbEntity
  8
View
 62
7
100
AcDbSpline
 70
8
 71
3
 72
8
 73
4
 74
0
 40
0
 40
0
 40
0
 40
0
 40
1
 40
1
 40
1
 40
1
 10
146.730000
 20
195.163147
 30
0.0
 10
146.157608
 20
195.493618
 30
0.0
 10
145.452392
 20
195.493618
 30
0.0
 10
144.880000
 20
195.163147
 30
0.0
  0
SPLINE
  5
23c
100
AcDbEntity
  8
View
 62
7
100
AcDbSpline
 70
8
 71
3
 72
8
 73
4
 74
0
 40
0
 40
0
 40
0
 40
0
 40
1
 40
1
 40
1
 40
1
 10
144.880000
 20
195.163147
 30
0.0
 10
144.307608
 20
194.832676
 30
0.0
 10
143.955000
 20
194.221941
 30
0.0
 10
143.955000
 20
193.561000
 30
0.0
  0
SPLINE
  5
23d
100
AcDbEntity
  8
View
 62
7
100
AcDbSpline
 70
8
 71
3
 72
8
 73
4
 74
0
 40
0
 40
0
 40
0
 40
0
 40
1
 40
1
 40
1
 40
1
 10
143.955000
 20
193.561000
 30
0.0
 10
143.955000
 20
192.900059
 30
0.0
 10
144.307608
 20
192.289324
 30
0.0
 10
144.880000
 20
191.958853
 30
0.0
  0
SPLINE
  5
23e
100
AcDbEntity
  8
View
 62
7
100
AcDbSpline
 70
8
 71
3
 72
8
 73
4
 74
0
 40
0
 40
0
 40
0
 40
0
 40
1
 40
1
 40
1
 40
1
 10
144.880000
 20
191.958853
 30
0.0
 10
145.452392
 20
191.628382
 30
0.0
 10
146.157608
 20
191.628382
 30
0.0
 10
146.730000
 20
191.958853
 30
0.0
  0
SPLINE
  5
23f
100
AcDbEntity
  8
View
 62
7
100
AcDbSpline
 70
8
 71
3
 72
8
 73
4
 74
0
 40
0
 40
0
 40
0
 40
0
 40
1
 40
1
 40
1
 40
1
 10
146.730000
 20
191.958853
 30
0.0
 10
147.302392
 20
192.289324
 30
0.0
 10
147.655000
 20
192.900059
 30
0.0
 10
147.655000
 20
193.561000
 30
0.0
  0
LWPOLYLINE
  5
240
100
AcDbEntity
  8
View
 62
7
100
AcDbPolyline
 90
2
 70
0
 10
197.455000
 20
122.811000
 30
0.0
 10
197.455000
 20
112.211000
 30
0.0
  0
LWPOLYLINE
  5
241
100
AcDbEntity
  8
View
 62
7
100
AcDbPolyline
 90
1
 70
1
 10
147.655000
 20
193.561000
 30
0.0
  0
LWPOLYLINE
  5
242
100
AcDbEntity
  8
View
 62
7
100
AcDbPolyline
 90
2
 70
0
 10
150.155000
 20
181.611000
 30
0.0
 10
150.155000
 20
185.511000
 30
0.0
  0
LWPOLYLINE
  5
243
100
AcDbEntity
  8
View
 62
7
100
AcDbPolyline
 90
2
 70
0
 10
139.455000
 20
181.611000
 30
0.0
 10
150.155000
 20
181.611000
 30
0.0
  0
LWPOLYLINE
  5
244
100
AcDbEntity
  8
View
 62
7
100
AcDbPolyline
 90
2
 70
0
 10
139.455000
 20
185.511000
 30
0.0
 10
139.455000
 20
181.611000
 30
0.0
  0
SPLINE
  5
245
100
AcDbEntity
  8
View
 62
7
100
AcDbSpline
 70
8
 71
3
 72
8
 73
4
 74
0
 40
0
 40
0
 40
0
 40
0
 40
1
 40
1
 40
1
 40
1
 10
192.055000
 20
193.561000
 30
0.0
 10
192.055000
 20
194.221941
 30
0.0
 10
191.702392
 20
194.832676
 30
0.0
 10
191.130000
 20
195.163147
 30
0.0
  0
SPLINE
  5
246
100
AcDbEntity
  8
View
 62
7
100
AcDbSpline
 70
8
 71
3
 72
8
 73
4
 74
0
 40
0
 40
0
 40
0
 40
0
 40
1
 40
1
 40
1
 40
1
 10
191.130000
 20
195.163147
 30
0.0
 10
190.557608
 20
195.493618
 30
0.0
 10
189.852392
 20
195.493618
 30
0.0
 10
189.280000
 20
195.163147
 30
0.0
  0
SPLINE
  5
247
100
AcDbEntity
  8
View
 62
7
100
AcDbSpline
 70
8
 71
3
 72
8
 73
4
 74
0
 40
0
 40
0
 40
0
 40
0
 40
1
 40
1
 40
1
 40
1
 10
189.280000
 20
195.163147
 30
0.0
 10
188.707608
 20
194.832676
 30
0.0
 10
188.355000
 20
194.221941
 30
0.0
 10
188.355000
 20
193.561000
 30
0.0
  0
SPLINE
  5
248
100
AcDbEntity
  8
View
 62
7
100
AcDbSpline
 70
8
 71
3
 72
8
 73
4
 74
0
 40
0
 40
0
 40
0
 40
0
 40
1
 40
1
 40
1
 40
1
 10
188.355000
 20
193.561000
 30
0.0
 10
188.355000
 20
192.900059
 30
0.0
 10
188.707608
 20
192.289324
 30
0.0
 10
189.280000
 20
191.958853
 30
0.0
  0
SPLINE
  5
249
100
AcDbEntity
  8
View
 62
7
100
AcDbSpline
 70
8
 71
3
 72
8
 73
4
 74
0
 40
0
 40
0
 40
0
 40
0
 40
1
 40
1
 40
1
 40
1
 10
189.280000
 20
191.958853
 30
0.0
 10
189.852392
 20
191.628382
 30
0.0
 10
190.557608
 20
191.628382
 30
0.0
 10
191.130000
 20
191.958853
 30
0.0
  0
SPLINE
  5
24a
100
AcDbEntity
  8
View
 62
7
100
AcDbSpline
 70
8
 71
3
 72
8
 73
4
 74
0
 40
0
 40
0
 40
0
 40
0
 40
1
 40
1
 40
1
 40
1
 10
191.130000
 20
191.958853
 30
0.0
 10
191.702392
 20
192.289324
 30
0.0
 10
192.055000
 20
192.900059
 30
0.0
 10
192.055000
 20
193.561000
 30
0.0
  0
LWPOLYLINE
  5
24b
100
AcDbEntity
  8
View
 62
7
100
AcDbPolyline
 90
2
 70
0
 10
139.455000
 20
185.511000
 30
0.0
 10
150.155000
 20
185.511000
 30
0.0
  0
LWPOLYLINE
  5
24c
100
AcDbEntity
  8
View
 62
7
100
AcDbPolyline
 90
1
 70
1
 10
192.055000
 20
193.561000
 30
0.0
  0
LWPOLYLINE
  5
24d
100
AcDbEntity
  8
Dimension
 62
7
100
AcDbPolyline
 90
2
 70
0
 10
23.682859
 20
262.743774
 30
0.0
 10
23.682859
 20
253.543775
 30
0.0
  0
LWPOLYLINE
  5
24e
100
AcDbEntity
  8
Dimension
 62
7
100
AcDbPolyline
 90
2
 70
0
 10
27.682857
 20
262.743774
 30
0.0
 10
23.782860
 20
262.743774
 30
0.0
  0
LWPOLYLINE
  5
24f
100
AcDbEntity
  8
Dimension
 62
7
100
AcDbPolyline
 90
2
 70
0
 10
27.682857
 20
253.543775
 30
0.0
 10
27.682857
 20
262.743774
 30
0.0
  0
LWPOLYLINE
  5
250
100
AcDbEntity
  8
Dimension
 62
7
100
AcDbPolyline
 90
2
 70
0
 10
23.782860
 20
253.543775
 30
0.0
 10
27.682857
 20
253.543775
 30
0.0
  0
LWPOLYLINE
  5
251
100
AcDbEntity
  8
Dimension
 62
7
100
AcDbPolyline
 90
2
 70
0
 10
23.682859
 20
243.743778
 30
0.0
 10
23.682859
 20
234.543765
 30
0.0
  0
LWPOLYLINE
  5
252
100
AcDbEntity
  8
Dimension
 62
7
100
AcDbPolyline
 90
2
 70
0
 10
27.682857
 20
243.743778
 30
0.0
 10
23.782860
 20
243.743778
 30
0.0
  0
LWPOLYLINE
  5
253
100
AcDbEntity
  8
Dimension
 62
7
100
AcDbPolyline
 90
2
 70
0
 10
27.682857
 20
234.543765
 30
0.0
 10
27.682857
 20
243.743778
 30
0.0
  0
LWPOLYLINE
  5
254
100
AcDbEntity
  8
Dimension
 62
7
100
AcDbPolyline
 90
2
 70
0
 10
23.782860
 20
234.543765
 30
0.0
 10
27.682857
 20
234.543765
 30
0.0
  0
LWPOLYLINE
  5
255
100
AcDbEntity
  8
Dimension
 62
7
100
AcDbPolyline
 90
2
 70
0
 10
27.682857
 20
272.543775
 30
0.0
 10
27.682857
 20
282.543777
 30
0.0
  0
LWPOLYLINE
  5
256
100
AcDbEntity
  8
Dimension
 62
7
100
AcDbPolyline
 90
2
 70
0
 10
23.782860
 20
272.543775
 30
0.0
 10
27.682857
 20
272.543775
 30
0.0
  0
LWPOLYLINE
  5
257
100
AcDbEntity
  8
Dimension
 62
7
100
AcDbPolyline
 90
2
 70
0
 10
23.682859
 20
282.543777
 30
0.0
 10
23.682859
 20
272.543775
 30
0.0
  0
LWPOLYLINE
  5
258
100
AcDbEntity
  8
Dimension
 62
7
100
AcDbPolyline
 90
2
 70
0
 10
19.982858
 20
282.543777
 30
0.0
 10
23.782860
 20
282.543777
 30
0.0
  0
LWPOLYLINE
  5
259
100
AcDbEntity
  8
Dimension
 62
7
100
AcDbPolyline
 90
2
 70
0
 10
19.982858
 20
286.543777
 30
0.0
 10
19.982858
 20
282.543777
 30
0.0
  0
LWPOLYLINE
  5
25a
100
AcDbEntity
  8
Dimension
 62
7
100
AcDbPolyline
 90
2
 70
0
 10
8.682859
 20
286.543777
 30
0.0
 10
19.982858
 20
286.543777
 30
0.0
  0
LWPOLYLINE
  5
25b
100
AcDbEntity
  8
Dimension
 62
7
100
AcDbPolyline
 90
2
 70
0
 10
8.682859
 20
282.393777
 30
0.0
 10
8.682859
 20
286.543777
 30
0.0
  0
LWPOLYLINE
  5
25c
100
AcDbEntity
  8
Dimension
 62
7
100
AcDbPolyline
 90
10
 70
0
 10
8.682859
 20
282.393777
 30
0.0
 10
8.682859
 20
278.243776
 30
0.0
 10
12.682858
 20
278.243776
 30
0.0
 10
12.682858
 20
268.543774
 30
0.0
 10
8.682859
 20
268.543774
 30
0.0
 10
8.682859
 20
258.243775
 30
0.0
 10
12.832859
 20
258.243775
 30
0.0
 10
13.682859
 20
258.243775
 30
0.0
 10
13.682859
 20
248.543774
 30
0.0
 10
12.832859
 20
248.543774
 30
0.0
  0
LWPOLYLINE
  5
25d
100
AcDbEntity
  8
Dimension
 62
7
100
AcDbPolyline
 90
2
 70
0
 10
8.682859
 20
248.543774
 30
0.0
 10
12.832859
 20
248.543774
 30
0.0
  0
LWPOLYLINE
  5
25e
100
AcDbEntity
  8
Dimension
 62
7
100
AcDbPolyline
 90
2
 70
0
 10
8.682859
 20
238.243778
 30
0.0
 10
8.682859
 20
248.543774
 30
0.0
  0
LWPOLYLINE
  5
25f
100
AcDbEntity
  8
Dimension
 62
7
100
AcDbPolyline
 90
2
 70
0
 10
12.682858
 20
238.243778
 30
0.0
 10
8.682859
 20
238.243778
 30
0.0
  0
LWPOLYLINE
  5
260
100
AcDbEntity
  8
Dimension
 62
7
100
AcDbPolyline
 90
2
 70
0
 10
12.682858
 20
228.543783
 30
0.0
 10
12.682858
 20
238.243778
 30
0.0
  0
LWPOLYLINE
  5
261
100
AcDbEntity
  8
Dimension
 62
7
100
AcDbPolyline
 90
2
 70
0
 10
8.682859
 20
228.543783
 30
0.0
 10
12.682858
 20
228.543783
 30
0.0
  0
LWPOLYLINE
  5
262
100
AcDbEntity
  8
Dimension
 62
7
100
AcDbPolyline
 90
10
 70
0
 10
8.682859
 20
228.543783
 30
0.0
 10
8.682859
 20
224.393767
 30
0.0
 10
8.682859
 20
220.243777
 30
0.0
 10
19.982858
 20
220.243777
 30
0.0
 10
19.982858
 20
224.243774
 30
0.0
 10
29.682858
 20
224.243774
 30
0.0
 10
29.682858
 20
220.243777
 30
0.0
 10
39.982857
 20
220.243777
 30
0.0
 10
39.982857
 20
224.243774
 30
0.0
 10
53.982459
 20
224.243774
 30
0.0
  0
LWPOLYLINE
  5
263
100
AcDbEntity
  8
Dimension
 62
7
100
AcDbPolyline
 90
2
 70
0
 10
53.982459
 20
235.543785
 30
0.0
 10
53.982459
 20
224.243774
 30
0.0
  0
LWPOLYLINE
  5
264
100
AcDbEntity
  8
Dimension
 62
7
100
AcDbPolyline
 90
2
 70
0
 10
49.982459
 20
235.543785
 30
0.0
 10
53.982459
 20
235.543785
 30
0.0
  0
LWPOLYLINE
  5
265
100
AcDbEntity
  8
Dimension
 62
7
100
AcDbPolyline
 90
2
 70
0
 10
49.982459
 20
246.543776
 30
0.0
 10
49.982459
 20
235.543785
 30
0.0
  0
LWPOLYLINE
  5
266
100
AcDbEntity
  8
Dimension
 62
7
100
AcDbPolyline
 90
2
 70
0
 10
47.982457
 20
246.543776
 30
0.0
 10
49.982459
 20
246.543776
 30
0.0
  0
LWPOLYLINE
  5
267
100
AcDbEntity
  8
Dimension
 62
7
100
AcDbPolyline
 90
2
 70
0
 10
47.982457
 20
259.643776
 30
0.0
 10
47.982457
 20
246.543776
 30
0.0
  0
LWPOLYLINE
  5
268
100
AcDbEntity
  8
Dimension
 62
7
100
AcDbPolyline
 90
2
 70
0
 10
49.832458
 20
259.643776
 30
0.0
 10
47.982457
 20
259.643776
 30
0.0
  0
LWPOLYLINE
  5
269
100
AcDbEntity
  8
Dimension
 62
7
100
AcDbPolyline
 90
2
 70
0
 10
53.982459
 20
259.643776
 30
0.0
 10
49.832458
 20
259.643776
 30
0.0
  0
LWPOLYLINE
  5
26a
100
AcDbEntity
  8
Dimension
 62
7
100
AcDbPolyline
 90
2
 70
0
 10
53.982459
 20
271.543774
 30
0.0
 10
53.982459
 20
259.643776
 30
0.0
  0
LWPOLYLINE
  5
26b
100
AcDbEntity
  8
Dimension
 62
7
100
AcDbPolyline
 90
2
 70
0
 10
49.982459
 20
271.543774
 30
0.0
 10
53.982459
 20
271.543774
 30
0.0
  0
LWPOLYLINE
  5
26c
100
AcDbEntity
  8
Dimension
 62
7
100
AcDbPolyline
 90
2
 70
0
 10
49.982459
 20
282.543777
 30
0.0
 10
49.982459
 20
271.543774
 30
0.0
  0
LWPOLYLINE
  5
26d
100
AcDbEntity
  8
Dimension
 62
7
100
AcDbPolyline
 90
2
 70
0
 10
39.982857
 20
282.543777
 30
0.0
 10
49.982459
 20
282.543777
 30
0.0
  0
LWPOLYLINE
  5
26e
100
AcDbEntity
  8
Dimension
 62
7
100
AcDbPolyline
 90
2
 70
0
 10
39.982857
 20
286.543777
 30
0.0
 10
39.982857
 20
282.543777
 30
0.0
  0
LWPOLYLINE
  5
26f
100
AcDbEntity
  8
Dimension
 62
7
100
AcDbPolyline
 90
2
 70
0
 10
29.682858
 20
286.543777
 30
0.0
 10
39.982857
 20
286.543777
 30
0.0
  0
LWPOLYLINE
  5
270
100
AcDbEntity
  8
Dimension
 62
7
100
AcDbPolyline
 90
2
 70
0
 10
29.682858
 20
282.543777
 30
0.0
 10
29.682858
 20
286.543777
 30
0.0
  0
LWPOLYLINE
  5
271
100
AcDbEntity
  8
Dimension
 62
7
100
AcDbPolyline
 90
2
 70
0
 10
29.682858
 20
282.543777
 30
0.0
 10
27.682857
 20
282.543777
 30
0.0
  0
LWPOLYLINE
  5
272
100
AcDbEntity
  8
Dimension
 62
7
100
AcDbPolyline
 90
2
 70
0
 10
76.364600
 20
262.141106
 30
0.0
 10
76.364600
 20
252.941107
 30
0.0
  0
LWPOLYLINE
  5
273
100
AcDbEntity
  8
Dimension
 62
7
100
AcDbPolyline
 90
2
 70
0
 10
80.364597
 20
262.141106
 30
0.0
 10
76.464599
 20
262.141106
 30
0.0
  0
LWPOLYLINE
  5
274
100
AcDbEntity
  8
Dimension
 62
7
100
AcDbPolyline
 90
2
 70
0
 10
80.464596
 20
252.941107
 30
0.0
 10
80.464596
 20
262.141106
 30
0.0
  0
LWPOLYLINE
  5
275
100
AcDbEntity
  8
Dimension
 62
7
100
AcDbPolyline
 90
2
 70
0
 10
76.464599
 20
252.941107
 30
0.0
 10
80.364597
 20
252.941107
 30
0.0
  0
LWPOLYLINE
  5
276
100
AcDbEntity
  8
Dimension
 62
7
100
AcDbPolyline
 90
2
 70
0
 10
76.364600
 20
243.141110
 30
0.0
 10
76.364600
 20
233.941097
 30
0.0
  0
LWPOLYLINE
  5
277
100
AcDbEntity
  8
Dimension
 62
7
100
AcDbPolyline
 90
2
 70
0
 10
80.364597
 20
243.141110
 30
0.0
 10
76.464599
 20
243.141110
 30
0.0
  0
LWPOLYLINE
  5
278
100
AcDbEntity
  8
Dimension
 62
7
100
AcDbPolyline
 90
2
 70
0
 10
80.464596
 20
233.941097
 30
0.0
 10
80.464596
 20
243.141110
 30
0.0
  0
LWPOLYLINE
  5
279
100
AcDbEntity
  8
Dimension
 62
7
100
AcDbPolyline
 90
2
 70
0
 10
76.464599
 20
233.941097
 30
0.0
 10
80.364597
 20
233.941097
 30
0.0
  0
LWPOLYLINE
  5
27a
100
AcDbEntity
  8
Dimension
 62
7
100
AcDbPolyline
 90
2
 70
0
 10
80.464596
 20
271.941106
 30
0.0
 10
80.464596
 20
281.941107
 30
0.0
  0
LWPOLYLINE
  5
27b
100
AcDbEntity
  8
Dimension
 62
7
100
AcDbPolyline
 90
2
 70
0
 10
76.464599
 20
271.941106
 30
0.0
 10
80.364597
 20
271.941106
 30
0.0
  0
LWPOLYLINE
  5
27c
100
AcDbEntity
  8
Dimension
 62
7
100
AcDbPolyline
 90
2
 70
0
 10
76.364600
 20
281.941107
 30
0.0
 10
76.364600
 20
271.941106
 30
0.0
  0
LWPOLYLINE
  5
27d
100
AcDbEntity
  8
Dimension
 62
7
100
AcDbPolyline
 90
2
 70
0
 10
72.664598
 20
281.941107
 30
0.0
 10
76.464599
 20
281.941107
 30
0.0
  0
LWPOLYLINE
  5
27e
100
AcDbEntity
  8
Dimension
 62
7
100
AcDbPolyline
 90
2
 70
0
 10
72.664598
 20
285.941107
 30
0.0
 10
72.664598
 20
281.941107
 30
0.0
  0
LWPOLYLINE
  5
27f
100
AcDbEntity
  8
Dimension
 62
7
100
AcDbPolyline
 90
2
 70
0
 10
61.364598
 20
285.941107
 30
0.0
 10
72.664598
 20
285.941107
 30
0.0
  0
LWPOLYLINE
  5
280
100
AcDbEntity
  8
Dimension
 62
7
100
AcDbPolyline
 90
2
 70
0
 10
61.364598
 20
281.791107
 30
0.0
 10
61.364598
 20
285.941107
 30
0.0
  0
LWPOLYLINE
  5
281
100
AcDbEntity
  8
Dimension
 62
7
100
AcDbPolyline
 90
10
 70
0
 10
61.364598
 20
281.791107
 30
0.0
 10
61.364598
 20
277.641107
 30
0.0
 10
65.364598
 20
277.641107
 30
0.0
 10
65.364598
 20
267.941106
 30
0.0
 10
61.364598
 20
267.941106
 30
0.0
 10
61.364598
 20
257.641107
 30
0.0
 10
65.514598
 20
257.641107
 30
0.0
 10
66.364599
 20
257.641107
 30
0.0
 10
66.364599
 20
247.941107
 30
0.0
 10
65.514598
 20
247.941107
 30
0.0
  0
LWPOLYLINE
  5
282
100
AcDbEntity
  8
Dimension
 62
7
100
AcDbPolyline
 90
2
 70
0
 10
61.364598
 20
247.941107
 30
0.0
 10
65.514598
 20
247.941107
 30
0.0
  0
LWPOLYLINE
  5
283
100
AcDbEntity
  8
Dimension
 62
7
100
AcDbPolyline
 90
2
 70
0
 10
61.364598
 20
237.641110
 30
0.0
 10
61.364598
 20
247.941107
 30
0.0
  0
LWPOLYLINE
  5
284
100
AcDbEntity
  8
Dimension
 62
7
100
AcDbPolyline
 90
2
 70
0
 10
65.364598
 20
237.641110
 30
0.0
 10
61.364598
 20
237.641110
 30
0.0
  0
LWPOLYLINE
  5
285
100
AcDbEntity
  8
Dimension
 62
7
100
AcDbPolyline
 90
2
 70
0
 10
65.364598
 20
227.941115
 30
0.0
 10
65.364598
 20
237.641110
 30
0.0
  0
LWPOLYLINE
  5
286
100
AcDbEntity
  8
Dimension
 62
7
100
AcDbPolyline
 90
2
 70
0
 10
61.364598
 20
227.941115
 30
0.0
 10
65.364598
 20
227.941115
 30
0.0
  0
LWPOLYLINE
  5
287
100
AcDbEntity
  8
Dimension
 62
7
100
AcDbPolyline
 90
10
 70
0
 10
61.364598
 20
227.941115
 30
0.0
 10
61.364598
 20
223.791099
 30
0.0
 10
61.364598
 20
219.641109
 30
0.0
 10
72.664598
 20
219.641109
 30
0.0
 10
72.664598
 20
223.641106
 30
0.0
 10
82.364599
 20
223.641106
 30
0.0
 10
82.364599
 20
219.641109
 30
0.0
 10
92.664598
 20
219.641109
 30
0.0
 10
92.664598
 20
223.641106
 30
0.0
 10
106.664199
 20
223.641106
 30
0.0
  0
LWPOLYLINE
  5
288
100
AcDbEntity
  8
Dimension
 62
7
100
AcDbPolyline
 90
2
 70
0
 10
106.664199
 20
234.941117
 30
0.0
 10
106.664199
 20
223.641106
 30
0.0
  0
LWPOLYLINE
  5
289
100
AcDbEntity
  8
Dimension
 62
7
100
AcDbPolyline
 90
2
 70
0
 10
102.664199
 20
234.941117
 30
0.0
 10
106.664199
 20
234.941117
 30
0.0
  0
LWPOLYLINE
  5
28a
100
AcDbEntity
  8
Dimension
 62
7
100
AcDbPolyline
 90
2
 70
0
 10
102.664199
 20
245.941108
 30
0.0
 10
102.664199
 20
234.941117
 30
0.0
  0
LWPOLYLINE
  5
28b
100
AcDbEntity
  8
Dimension
 62
7
100
AcDbPolyline
 90
2
 70
0
 10
100.664198
 20
245.941108
 30
0.0
 10
102.664199
 20
245.941108
 30
0.0
  0
LWPOLYLINE
  5
28c
100
AcDbEntity
  8
Dimension
 62
7
100
AcDbPolyline
 90
2
 70
0
 10
100.664198
 20
259.041108
 30
0.0
 10
100.664198
 20
245.941108
 30
0.0
  0
LWPOLYLINE
  5
28d
100
AcDbEntity
  8
Dimension
 62
7
100
AcDbPolyline
 90
2
 70
0
 10
102.514199
 20
259.041108
 30
0.0
 10
100.664198
 20
259.041108
 30
0.0
  0
LWPOLYLINE
  5
28e
100
AcDbEntity
  8
Dimension
 62
7
100
AcDbPolyline
 90
2
 70
0
 10
106.664199
 20
259.041108
 30
0.0
 10
102.514199
 20
259.041108
 30
0.0
  0
LWPOLYLINE
  5
28f
100
AcDbEntity
  8
Dimension
 62
7
100
AcDbPolyline
 90
2
 70
0
 10
106.664199
 20
270.941105
 30
0.0
 10
106.664199
 20
259.041108
 30
0.0
  0
LWPOLYLINE
  5
290
100
AcDbEntity
  8
Dimension
 62
7
100
AcDbPolyline
 90
2
 70
0
 10
102.664199
 20
270.941105
 30
0.0
 10
106.664199
 20
270.941105
 30
0.0
  0
LWPOLYLINE
  5
291
100
AcDbEntity
  8
Dimension
 62
7
100
AcDbPolyline
 90
2
 70
0
 10
102.664199
 20
281.941107
 30
0.0
 10
102.664199
 20
270.941105
 30
0.0
  0
LWPOLYLINE
  5
292
100
AcDbEntity
  8
Dimension
 62
7
100
AcDbPolyline
 90
2
 70
0
 10
92.664598
 20
281.941107
 30
0.0
 10
102.664199
 20
281.941107
 30
0.0
  0
LWPOLYLINE
  5
293
100
AcDbEntity
  8
Dimension
 62
7
100
AcDbPolyline
 90
2
 70
0
 10
92.664598
 20
285.941107
 30
0.0
 10
92.664598
 20
281.941107
 30
0.0
  0
LWPOLYLINE
  5
294
100
AcDbEntity
  8
Dimension
 62
7
100
AcDbPolyline
 90
2
 70
0
 10
82.364599
 20
285.941107
 30
0.0
 10
92.664598
 20
285.941107
 30
0.0
  0
LWPOLYLINE
  5
295
100
AcDbEntity
  8
Dimension
 62
7
100
AcDbPolyline
 90
2
 70
0
 10
82.364599
 20
281.941107
 30
0.0
 10
82.364599
 20
285.941107
 30
0.0
  0
LWPOLYLINE
  5
296
100
AcDbEntity
  8
Dimension
 62
7
100
AcDbPolyline
 90
2
 70
0
 10
82.364599
 20
281.941107
 30
0.0
 10
80.364597
 20
281.941107
 30
0.0
  0
LWPOLYLINE
  5
297
100
AcDbEntity
  8
Dimension
 62
7
100
AcDbPolyline
 90
2
 70
0
 10
40.384241
 20
275.947264
 30
0.0
 10
40.357914
 20
271.718494
 30
0.0
  0
LWPOLYLINE
  5
298
100
AcDbEntity
  8
Dimension
 62
7
100
AcDbPolyline
 90
2
 70
0
 10
90.222176
 20
272.680422
 30
0.0
 10
90.141621
 20
269.055423
 30
0.0
  0
LWPOLYLINE
  5
299
100
AcDbEntity
  8
Dimension
 62
7
100
AcDbPolyline
 90
2
 70
0
 10
91.752730
 20
272.438755
 30
0.0
 10
91.672175
 20
269.135980
 30
0.0
  0
LWPOLYLINE
  5
29a
100
AcDbEntity
  8
Dimension
 62
7
100
AcDbPolyline
 90
2
 70
0
 10
41.980514
 20
275.749904
 30
0.0
 10
41.923555
 20
271.819570
 30
0.0
  0
LWPOLYLINE
  5
29b
100
AcDbEntity
  8
Dimension
 62
7
100
AcDbPolyline
 90
2
 70
0
 10
93.188769
 20
272.517347
 30
0.0
 10
93.174534
 20
269.042704
 30
0.0
  0
LWPOLYLINE
  5
29c
100
AcDbEntity
  8
Dimension
 62
7
100
AcDbPolyline
 90
2
 70
0
 10
91.188842
 20
61.624976
 30
0.0
 10
91.108287
 20
58.161088
 30
0.0
  0
LWPOLYLINE
  5
29d
100
AcDbEntity
  8
Dimension
 62
7
100
AcDbPolyline
 90
2
 70
0
 10
129.443790
 20
263.989133
 30
0.0
 10
129.443790
 20
254.789134
 30
0.0
  0
LWPOLYLINE
  5
29e
100
AcDbEntity
  8
Dimension
 62
7
100
AcDbPolyline
 90
2
 70
0
 10
133.493788
 20
263.989133
 30
0.0
 10
129.593790
 20
263.989133
 30
0.0
  0
LWPOLYLINE
  5
29f
100
AcDbEntity
  8
Dimension
 62
7
100
AcDbPolyline
 90
2
 70
0
 10
133.643788
 20
254.789134
 30
0.0
 10
133.643788
 20
263.989133
 30
0.0
  0
LWPOLYLINE
  5
2a0
100
AcDbEntity
  8
Dimension
 62
7
100
AcDbPolyline
 90
2
 70
0
 10
129.593790
 20
254.789134
 30
0.0
 10
133.493788
 20
254.789134
 30
0.0
  0
LWPOLYLINE
  5
2a1
100
AcDbEntity
  8
Dimension
 62
7
100
AcDbPolyline
 90
2
 70
0
 10
129.443790
 20
244.989137
 30
0.0
 10
129.443790
 20
235.789125
 30
0.0
  0
LWPOLYLINE
  5
2a2
100
AcDbEntity
  8
Dimension
 62
7
100
AcDbPolyline
 90
2
 70
0
 10
133.493788
 20
244.989137
 30
0.0
 10
129.593790
 20
244.989137
 30
0.0
  0
LWPOLYLINE
  5
2a3
100
AcDbEntity
  8
Dimension
 62
7
100
AcDbPolyline
 90
2
 70
0
 10
133.643788
 20
235.789125
 30
0.0
 10
133.643788
 20
244.989137
 30
0.0
  0
LWPOLYLINE
  5
2a4
100
AcDbEntity
  8
Dimension
 62
7
100
AcDbPolyline
 90
2
 70
0
 10
129.593790
 20
235.789125
 30
0.0
 10
133.493788
 20
235.789125
 30
0.0
  0
LWPOLYLINE
  5
2a5
100
AcDbEntity
  8
Dimension
 62
7
100
AcDbPolyline
 90
2
 70
0
 10
133.643788
 20
273.789132
 30
0.0
 10
133.643788
 20
283.789133
 30
0.0
  0
LWPOLYLINE
  5
2a6
100
AcDbEntity
  8
Dimension
 62
7
100
AcDbPolyline
 90
2
 70
0
 10
129.593790
 20
273.789132
 30
0.0
 10
133.493788
 20
273.789132
 30
0.0
  0
LWPOLYLINE
  5
2a7
100
AcDbEntity
  8
Dimension
 62
7
100
AcDbPolyline
 90
2
 70
0
 10
129.443790
 20
283.789133
 30
0.0
 10
129.443790
 20
273.789132
 30
0.0
  0
LWPOLYLINE
  5
2a8
100
AcDbEntity
  8
Dimension
 62
7
100
AcDbPolyline
 90
2
 70
0
 10
125.793788
 20
283.789133
 30
0.0
 10
129.593790
 20
283.789133
 30
0.0
  0
LWPOLYLINE
  5
2a9
100
AcDbEntity
  8
Dimension
 62
7
100
AcDbPolyline
 90
2
 70
0
 10
125.793788
 20
287.789133
 30
0.0
 10
125.793788
 20
283.789133
 30
0.0
  0
LWPOLYLINE
  5
2aa
100
AcDbEntity
  8
Dimension
 62
7
100
AcDbPolyline
 90
2
 70
0
 10
114.493789
 20
287.789133
 30
0.0
 10
125.793788
 20
287.789133
 30
0.0
  0
LWPOLYLINE
  5
2ab
100
AcDbEntity
  8
Dimension
 62
7
100
AcDbPolyline
 90
2
 70
0
 10
114.493789
 20
283.639132
 30
0.0
 10
114.493789
 20
287.789133
 30
0.0
  0
LWPOLYLINE
  5
2ac
100
AcDbEntity
  8
Dimension
 62
7
100
AcDbPolyline
 90
10
 70
0
 10
114.493789
 20
283.639132
 30
0.0
 10
114.493789
 20
279.489132
 30
0.0
 10
118.493789
 20
279.489132
 30
0.0
 10
118.493789
 20
269.789133
 30
0.0
 10
114.493789
 20
269.789133
 30
0.0
 10
114.493789
 20
259.489134
 30
0.0
 10
118.643789
 20
259.489134
 30
0.0
 10
119.493789
 20
259.489134
 30
0.0
 10
119.493789
 20
249.789134
 30
0.0
 10
118.643789
 20
249.789134
 30
0.0
  0
LWPOLYLINE
  5
2ad
100
AcDbEntity
  8
Dimension
 62
7
100
AcDbPolyline
 90
2
 70
0
 10
114.493789
 20
249.789134
 30
0.0
 10
118.643789
 20
249.789134
 30
0.0
  0
LWPOLYLINE
  5
2ae
100
AcDbEntity
  8
Dimension
 62
7
100
AcDbPolyline
 90
2
 70
0
 10
114.493789
 20
239.489137
 30
0.0
 10
114.493789
 20
249.789134
 30
0.0
  0
LWPOLYLINE
  5
2af
100
AcDbEntity
  8
Dimension
 62
7
100
AcDbPolyline
 90
2
 70
0
 10
118.493789
 20
239.489137
 30
0.0
 10
114.493789
 20
239.489137
 30
0.0
  0
LWPOLYLINE
  5
2b0
100
AcDbEntity
  8
Dimension
 62
7
100
AcDbPolyline
 90
2
 70
0
 10
118.493789
 20
229.789142
 30
0.0
 10
118.493789
 20
239.489137
 30
0.0
  0
LWPOLYLINE
  5
2b1
100
AcDbEntity
  8
Dimension
 62
7
100
AcDbPolyline
 90
2
 70
0
 10
114.493789
 20
229.789142
 30
0.0
 10
118.493789
 20
229.789142
 30
0.0
  0
LWPOLYLINE
  5
2b2
100
AcDbEntity
  8
Dimension
 62
7
100
AcDbPolyline
 90
10
 70
0
 10
114.493789
 20
229.789142
 30
0.0
 10
114.493789
 20
225.639126
 30
0.0
 10
114.493789
 20
221.489136
 30
0.0
 10
125.793788
 20
221.489136
 30
0.0
 10
125.793788
 20
225.489134
 30
0.0
 10
135.493789
 20
225.489134
 30
0.0
 10
135.493789
 20
221.489136
 30
0.0
 10
145.793785
 20
221.489136
 30
0.0
 10
145.793785
 20
225.489134
 30
0.0
 10
159.793387
 20
225.489134
 30
0.0
  0
LWPOLYLINE
  5
2b3
100
AcDbEntity
  8
Dimension
 62
7
100
AcDbPolyline
 90
2
 70
0
 10
159.793387
 20
236.789144
 30
0.0
 10
159.793387
 20
225.489134
 30
0.0
  0
LWPOLYLINE
  5
2b4
100
AcDbEntity
  8
Dimension
 62
7
100
AcDbPolyline
 90
2
 70
0
 10
155.793387
 20
236.789144
 30
0.0
 10
159.793387
 20
236.789144
 30
0.0
  0
LWPOLYLINE
  5
2b5
100
AcDbEntity
  8
Dimension
 62
7
100
AcDbPolyline
 90
2
 70
0
 10
155.793387
 20
247.789135
 30
0.0
 10
155.793387
 20
236.789144
 30
0.0
  0
LWPOLYLINE
  5
2b6
100
AcDbEntity
  8
Dimension
 62
7
100
AcDbPolyline
 90
2
 70
0
 10
153.793386
 20
247.789135
 30
0.0
 10
155.793387
 20
247.789135
 30
0.0
  0
LWPOLYLINE
  5
2b7
100
AcDbEntity
  8
Dimension
 62
7
100
AcDbPolyline
 90
2
 70
0
 10
153.793386
 20
260.889135
 30
0.0
 10
153.793386
 20
247.789135
 30
0.0
  0
LWPOLYLINE
  5
2b8
100
AcDbEntity
  8
Dimension
 62
7
100
AcDbPolyline
 90
2
 70
0
 10
155.643387
 20
260.889135
 30
0.0
 10
153.793386
 20
260.889135
 30
0.0
  0
LWPOLYLINE
  5
2b9
100
AcDbEntity
  8
Dimension
 62
7
100
AcDbPolyline
 90
2
 70
0
 10
159.793387
 20
260.889135
 30
0.0
 10
155.643387
 20
260.889135
 30
0.0
  0
LWPOLYLINE
  5
2ba
100
AcDbEntity
  8
Dimension
 62
7
100
AcDbPolyline
 90
2
 70
0
 10
159.793387
 20
272.789131
 30
0.0
 10
159.793387
 20
260.889135
 30
0.0
  0
LWPOLYLINE
  5
2bb
100
AcDbEntity
  8
Dimension
 62
7
100
AcDbPolyline
 90
2
 70
0
 10
155.793387
 20
272.789131
 30
0.0
 10
159.793387
 20
272.789131
 30
0.0
  0
LWPOLYLINE
  5
2bc
100
AcDbEntity
  8
Dimension
 62
7
100
AcDbPolyline
 90
2
 70
0
 10
155.793387
 20
283.789133
 30
0.0
 10
155.793387
 20
272.789131
 30
0.0
  0
LWPOLYLINE
  5
2bd
100
AcDbEntity
  8
Dimension
 62
7
100
AcDbPolyline
 90
2
 70
0
 10
145.793785
 20
283.789133
 30
0.0
 10
155.793387
 20
283.789133
 30
0.0
  0
LWPOLYLINE
  5
2be
100
AcDbEntity
  8
Dimension
 62
7
100
AcDbPolyline
 90
2
 70
0
 10
145.793785
 20
287.789133
 30
0.0
 10
145.793785
 20
283.789133
 30
0.0
  0
LWPOLYLINE
  5
2bf
100
AcDbEntity
  8
Dimension
 62
7
100
AcDbPolyline
 90
2
 70
0
 10
135.493789
 20
287.789133
 30
0.0
 10
145.793785
 20
287.789133
 30
0.0
  0
LWPOLYLINE
  5
2c0
100
AcDbEntity
  8
Dimension
 62
7
100
AcDbPolyline
 90
2
 70
0
 10
135.493789
 20
283.789133
 30
0.0
 10
135.493789
 20
287.789133
 30
0.0
  0
LWPOLYLINE
  5
2c1
100
AcDbEntity
  8
Dimension
 62
7
100
AcDbPolyline
 90
2
 70
0
 10
135.493789
 20
283.789133
 30
0.0
 10
133.493788
 20
283.789133
 30
0.0
  0
LWPOLYLINE
  5
2c2
100
AcDbEntity
  8
Dimension
 62
7
100
AcDbPolyline
 90
2
 70
0
 10
144.461227
 20
276.561708
 30
0.0
 10
144.380672
 20
273.097820
 30
0.0
  0
LWPOLYLINE
  5
2c3
100
AcDbEntity
  8
Dimension
 62
7
100
AcDbPolyline
 90
3
 70
0
 10
145.325714
 20
276.418725
 30
0.0
 10
146.177034
 20
273.202629
 30
0.0
 10
147.383069
 20
276.276839
 30
0.0
  0
ENDSEC
  0
SECTION
  2
OBJECTS
  0
DICTIONARY
  5
C
330
0
100
AcDbDictionary
  3
ACAD_GROUP
350
D
  3
ACAD_MLINESTYLE
350
17
  0
DICTIONARY
  5
D
330
C
100
AcDbDictionary
  0
DICTIONARY
  5
1A
330
C
100
AcDbDictionary
  0
DICTIONARY
  5
17
330
C
100
AcDbDictionary
  3
STANDARD
350
18
  0
DICTIONARY
  5
19
330
C
100
AcDbDictionary
  0
ENDSEC
  0
EOF
