  0
SECTION
  2
HEADER
  9
$ACADVER
  1
AC1014
  9
$HANDSEED
  5
FFFF
  9
$MEASUREMENT
 70
     1
  0
ENDSEC
  0
SECTION
  2
TABLES
  0
TABLE
  2
VPORT
  5
8
330
0
100
AcDbSymbolTable
 70
     4
  0
VPORT
  5
2E
330
8
100
AcDbSymbolTableRecord
100
AcDbViewportTableRecord
  2
*ACTIVE
 70
     0
 10
0.0
 20
0.0
 11
1.0
 21
1.0
 12
210.0
 22
148.5
 13
0.0
 23
0.0
 14
10.0
 24
10.0
 15
10.0
 25
10.0
 16
0.0
 26
0.0
 36
1.0
 17
0.0
 27
0.0
 37
0.0
 40
341.0
 41
1.24
 42
50.0
 43
0.0
 44
0.0
 50
0.0
 51
0.0
 71
     0
 72
   100
 73
     1
 74
     3
 75
     0
 76
     0
 77
     0
 78
     0
  0
ENDTAB
  0
TABLE
  2
LTYPE
  5
5
330
0
100
AcDbSymbolTable
 70
     1
  0
LTYPE
  5
14
330
5
100
AcDbSymbolTableRecord
100
AcDbLinetypeTableRecord
  2
BYBLOCK
 70
     0
  3

 72
    65
 73
     0
 40
0.0
  0
LTYPE
  5
15
330
5
100
AcDbSymbolTableRecord
100
AcDbLinetypeTableRecord
  2
BYLAYER
 70
     0
  3

 72
    65
 73
     0
 40
0.0
  0
LTYPE
  5
16
330
5
100
AcDbSymbolTableRecord
100
AcDbLinetypeTableRecord
  2
CONTINUOUS
 70
     0
  3
Solid line
 72
    65
 73
     0
 40
0.0
  0
ENDTAB
  0
TABLE
  2
LAYER
  5
2
100
AcDbSymbolTable
 70
50
  0
LAYER
  5
50
100
AcDbSymbolTableRecord
100
AcDbLayerTableRecord
  2
0
 70
0
  6
CONTINUOUS
  0
LAYER
  5
51
100
AcDbSymbolTableRecord
100
AcDbLayerTableRecord
  2
View
 70
0
  6
CONTINUOUS
  0
LAYER
  5
52
100
AcDbSymbolTableRecord
100
AcDbLayerTableRecord
  2
RPi_case___Side_L001_contour
 70
0
  6
CONTINUOUS
  0
LAYER
  5
53
100
AcDbSymbolTableRecord
100
AcDbLayerTableRecord
  2
RPi_case___Side_T001_contour
 70
0
  6
CONTINUOUS
  0
LAYER
  5
54
100
AcDbSymbolTableRecord
100
AcDbLayerTableRecord
  2
RPi_case___Side_F001_contour
 70
0
  6
CONTINUOUS
  0
LAYER
  5
55
100
AcDbSymbolTableRecord
100
AcDbLayerTableRecord
  2
RPi_case___Side_R001_contour
 70
0
  6
CONTINUOUS
  0
LAYER
  5
56
100
AcDbSymbolTableRecord
100
AcDbLayerTableRecord
  2
RPi_case___Side_B001_contour
 70
0
  6
CONTINUOUS
  0
LAYER
  5
57
100
AcDbSymbolTableRecord
100
AcDbLayerTableRecord
  2
RPi_case___Back_support001_contour
 70
0
  6
CONTINUOUS
  0
LAYER
  5
58
100
AcDbSymbolTableRecord
100
AcDbLayerTableRecord
  2
Dimension
 70
0
  6
CONTINUOUS
  0
LAYER
  5
59
100
AcDbSymbolTableRecord
100
AcDbLayerTableRecord
  2
Enclosure___Back_contour
 70
0
  6
CONTINUOUS
  0
LAYER
  5
5a
100
AcDbSymbolTableRecord
100
AcDbLayerTableRecord
  2
Enclosure___Top_contour
 70
0
  6
CONTINUOUS
  0
LAYER
  5
5b
100
AcDbSymbolTableRecord
100
AcDbLayerTableRecord
  2
Enclosure___Right_contour
 70
0
  6
CONTINUOUS
  0
LAYER
  5
5c
100
AcDbSymbolTableRecord
100
AcDbLayerTableRecord
  2
Enclosure___Left_contour
 70
0
  6
CONTINUOUS
  0
LAYER
  5
5d
100
AcDbSymbolTableRecord
100
AcDbLayerTableRecord
  2
Enclosure___Bottom_contour
 70
0
  6
CONTINUOUS
  0
LAYER
  5
5e
100
AcDbSymbolTableRecord
100
AcDbLayerTableRecord
  2
OLED_window_1mm_polycarbonate_contour
 70
0
  6
CONTINUOUS
  0
LAYER
  5
5f
100
AcDbSymbolTableRecord
100
AcDbLayerTableRecord
  2
Enclosure___Card_reader_Left_contour
 70
0
  6
CONTINUOUS
  0
LAYER
  5
60
100
AcDbSymbolTableRecord
100
AcDbLayerTableRecord
  2
Enclosure___Card_reader_Right_contour
 70
0
  6
CONTINUOUS
  0
LAYER
  5
61
100
AcDbSymbolTableRecord
100
AcDbLayerTableRecord
  2
Enclosure___Card_reader_Bottom_contour
 70
0
  6
CONTINUOUS
  0
LAYER
  5
62
100
AcDbSymbolTableRecord
100
AcDbLayerTableRecord
  2
Enclosure___Card_reader_Back_beam_contour
 70
0
  6
CONTINUOUS
  0
LAYER
  5
63
100
AcDbSymbolTableRecord
100
AcDbLayerTableRecord
  2
Enclosure___Card_reader_peg_001_contour
 70
0
  6
CONTINUOUS
  0
LAYER
  5
64
100
AcDbSymbolTableRecord
100
AcDbLayerTableRecord
  2
Enclosure___Card_reader_peg_002_contour
 70
0
  6
CONTINUOUS
  0
LAYER
  5
65
100
AcDbSymbolTableRecord
100
AcDbLayerTableRecord
  2
Enclosure___Card_reader_peg_003_contour
 70
0
  6
CONTINUOUS
  0
LAYER
  5
66
100
AcDbSymbolTableRecord
100
AcDbLayerTableRecord
  2
Enclosure___Card_reader_peg_004_contour
 70
0
  6
CONTINUOUS
  0
LAYER
  5
67
100
AcDbSymbolTableRecord
100
AcDbLayerTableRecord
  2
Enclosure___Lid_Nut_holder_pull_plate_contour
 70
0
  6
CONTINUOUS
  0
LAYER
  5
68
100
AcDbSymbolTableRecord
100
AcDbLayerTableRecord
  2
Enclosure___Lid_nut_holder_nut_mount_contour
 70
0
  6
CONTINUOUS
  0
LAYER
  5
69
100
AcDbSymbolTableRecord
100
AcDbLayerTableRecord
  2
Enclosure___Lid_nut_holder_banana_peg_contour
 70
0
  6
CONTINUOUS
  0
LAYER
  5
6a
100
AcDbSymbolTableRecord
100
AcDbLayerTableRecord
  2
Enclosure___Lid_nut_holder_base_contour
 70
0
  6
CONTINUOUS
  0
LAYER
  5
6b
100
AcDbSymbolTableRecord
100
AcDbLayerTableRecord
  2
Enclosure___Lid_Nut_holder_pull_plate001_contour
 70
0
  6
CONTINUOUS
  0
LAYER
  5
6c
100
AcDbSymbolTableRecord
100
AcDbLayerTableRecord
  2
Enclosure___Lid_nut_holder_nut_mount001_contour
 70
0
  6
CONTINUOUS
  0
LAYER
  5
6d
100
AcDbSymbolTableRecord
100
AcDbLayerTableRecord
  2
Enclosure___Lid_nut_holder_banana_peg001_contour
 70
0
  6
CONTINUOUS
  0
LAYER
  5
6e
100
AcDbSymbolTableRecord
100
AcDbLayerTableRecord
  2
Enclosure___Lid_nut_holder_base001_contour
 70
0
  6
CONTINUOUS
  0
LAYER
  5
6f
100
AcDbSymbolTableRecord
100
AcDbLayerTableRecord
  2
Enclosure___Lid_Nut_holder_pull_plate002_contour
 70
0
  6
CONTINUOUS
  0
LAYER
  5
70
100
AcDbSymbolTableRecord
100
AcDbLayerTableRecord
  2
Enclosure___Lid_nut_holder_banana_peg002_contour
 70
0
  6
CONTINUOUS
  0
LAYER
  5
71
100
AcDbSymbolTableRecord
100
AcDbLayerTableRecord
  2
Enclosure___Lid_nut_holder_base002_contour
 70
0
  6
CONTINUOUS
  0
LAYER
  5
72
100
AcDbSymbolTableRecord
100
AcDbLayerTableRecord
  2
Enclosure___Lid_nut_holder_nut_mount002_contour
 70
0
  6
CONTINUOUS
  0
LAYER
  5
73
100
AcDbSymbolTableRecord
100
AcDbLayerTableRecord
  2
Enclosure___Lid_Nut_holder_pull_plate003_contour
 70
0
  6
CONTINUOUS
  0
LAYER
  5
74
100
AcDbSymbolTableRecord
100
AcDbLayerTableRecord
  2
Enclosure___Lid_nut_holder_nut_mount003_contour
 70
0
  6
CONTINUOUS
  0
LAYER
  5
75
100
AcDbSymbolTableRecord
100
AcDbLayerTableRecord
  2
Enclosure___Lid_nut_holder_banana_peg003_contour
 70
0
  6
CONTINUOUS
  0
LAYER
  5
76
100
AcDbSymbolTableRecord
100
AcDbLayerTableRecord
  2
Enclosure___Lid_nut_holder_base003_contour
 70
0
  6
CONTINUOUS
  0
LAYER
  5
77
100
AcDbSymbolTableRecord
100
AcDbLayerTableRecord
  2
View001
 70
0
  6
CONTINUOUS
  0
LAYER
  5
78
100
AcDbSymbolTableRecord
100
AcDbLayerTableRecord
  2
View002
 70
0
  6
CONTINUOUS
  0
LAYER
  5
79
100
AcDbSymbolTableRecord
100
AcDbLayerTableRecord
  2
OLED_stand_L_002_contour
 70
0
  6
CONTINUOUS
  0
LAYER
  5
7a
100
AcDbSymbolTableRecord
100
AcDbLayerTableRecord
  2
OLED_stand_beam_contour
 70
0
  6
CONTINUOUS
  0
LAYER
  5
7b
100
AcDbSymbolTableRecord
100
AcDbLayerTableRecord
  2
Base_pole_001_contour
 70
0
  6
CONTINUOUS
  0
LAYER
  5
7c
100
AcDbSymbolTableRecord
100
AcDbLayerTableRecord
  2
Base_pole_003_contour
 70
0
  6
CONTINUOUS
  0
LAYER
  5
7d
100
AcDbSymbolTableRecord
100
AcDbLayerTableRecord
  2
Reader_mount_002_contour
 70
0
  6
CONTINUOUS
  0
LAYER
  5
7e
100
AcDbSymbolTableRecord
100
AcDbLayerTableRecord
  2
Base_pole_004_contour
 70
0
  6
CONTINUOUS
  0
LAYER
  5
7f
100
AcDbSymbolTableRecord
100
AcDbLayerTableRecord
  2
Base_pole_005_contour
 70
0
  6
CONTINUOUS
  0
LAYER
  5
80
100
AcDbSymbolTableRecord
100
AcDbLayerTableRecord
  2
Base_pole_002_contour
 70
0
  6
CONTINUOUS
  0
LAYER
  5
81
100
AcDbSymbolTableRecord
100
AcDbLayerTableRecord
  2
View003
 70
0
  6
CONTINUOUS
  0
ENDTAB
  0
TABLE
  2
STYLE
  5
3
330
0
100
AcDbSymbolTable
 70
     1
  0
STYLE
  5
11
330
3
100
AcDbSymbolTableRecord
100
AcDbTextStyleTableRecord
  2
STANDARD
 70
     0
 40
0.0
 41
1.0
 50
0.0
 71
     0
 42
2.5
  3
txt
  4

  0
ENDTAB
  0
TABLE
  2
VIEW
  5
6
330
0
100
AcDbSymbolTable
 70
     0
  0
ENDTAB
  0
TABLE
  2
UCS
  5
7
330
0
100
AcDbSymbolTable
 70
     0
  0
ENDTAB
  0
TABLE
  2
APPID
  5
9
330
0
100
AcDbSymbolTable
 70
     2
  0
APPID
  5
12
330
9
100
AcDbSymbolTableRecord
100
AcDbRegAppTableRecord
  2
ACAD
 70
     0
  0
ENDTAB
  0
TABLE
  2
DIMSTYLE
  5
A
330
0
100
AcDbSymbolTable
 70
     1
  0
DIMSTYLE
105
27
330
A
100
AcDbSymbolTableRecord
100
AcDbDimStyleTableRecord
  2
ISO-25
 70
     0
  3

  4

  5

  6

  7

 40
1.0
 41
2.5
 42
0.625
 43
3.75
 44
1.25
 45
0.0
 46
0.0
 47
0.0
 48
0.0
140
2.5
141
2.5
142
0.0
143
0.03937007874016
144
1.0
145
0.0
146
1.0
147
0.625
 71
     0
 72
     0
 73
     0
 74
     0
 75
     0
 76
     0
 77
     1
 78
     8
170
     0
171
     3
172
     1
173
     0
174
     0
175
     0
176
     0
177
     0
178
     0
270
     2
271
     2
272
     2
273
     2
274
     3
340
11
275
     0
280
     0
281
     0
282
     0
283
     0
284
     8
285
     0
286
     0
287
     3
288
     0
  0
ENDTAB
  0
TABLE
  2
BLOCK_RECORD
  5
1
330
0
100
AcDbSymbolTable
 70
     1
  0
BLOCK_RECORD
  5
1F
330
1
100
AcDbSymbolTableRecord
100
AcDbBlockTableRecord
  2
*MODEL_SPACE
  0
BLOCK_RECORD
  5
1B
330
1
100
AcDbSymbolTableRecord
100
AcDbBlockTableRecord
  2
*PAPER_SPACE
  0
ENDTAB
  0
ENDSEC
  0
SECTION
  2
BLOCKS
  0
BLOCK
  5
20
330
1F
100
AcDbEntity
  8
0
100
AcDbBlockBegin
  2
*MODEL_SPACE
 70
     0
 10
0.0
 20
0.0
 30
0.0
  3
*MODEL_SPACE
  1

  0
ENDBLK
  5
21
330
1F
100
AcDbEntity
  8
0
100
AcDbBlockEnd
  0
BLOCK
  5
1C
330
1B
100
AcDbEntity
 67
     1
  8
0
100
AcDbBlockBegin
  2
*PAPER_SPACE
  1

  0
ENDBLK
  5
1D
330
1B
100
AcDbEntity
 67
     1
  8
0
100
AcDbBlockEnd
  0
ENDSEC
  0
SECTION
  2
ENTITIES
  0
LWPOLYLINE
  5
100
100
AcDbEntity
  8
Enclosure___Card_reader_Back_beam_contour
 62
7
100
AcDbPolyline
 90
2
 70
0
 10
110.064854
 20
127.043562
 30
0.0
 10
109.466753
 20
124.103563
 30
0.0
  0
LWPOLYLINE
  5
101
100
AcDbEntity
  8
Enclosure___Card_reader_Back_beam_contour
 62
7
100
AcDbPolyline
 90
2
 70
0
 10
113.368952
 20
123.309561
 30
0.0
 10
109.466753
 20
124.103563
 30
0.0
  0
LWPOLYLINE
  5
102
100
AcDbEntity
  8
Enclosure___Card_reader_Back_beam_contour
 62
7
100
AcDbPolyline
 90
2
 70
0
 10
113.368952
 20
123.309561
 30
0.0
 10
112.656752
 20
108.372562
 30
0.0
  0
LWPOLYLINE
  5
103
100
AcDbEntity
  8
Enclosure___Card_reader_Back_beam_contour
 62
7
100
AcDbPolyline
 90
2
 70
0
 10
111.452554
 20
105.465561
 30
0.0
 10
112.656752
 20
108.372562
 30
0.0
  0
LWPOLYLINE
  5
104
100
AcDbEntity
  8
Enclosure___Card_reader_Back_beam_contour
 62
7
100
AcDbPolyline
 90
2
 70
0
 10
107.526053
 20
107.092561
 30
0.0
 10
111.452554
 20
105.465561
 30
0.0
  0
LWPOLYLINE
  5
105
100
AcDbEntity
  8
Enclosure___Card_reader_Back_beam_contour
 62
7
100
AcDbPolyline
 90
2
 70
0
 10
108.674053
 20
109.863563
 30
0.0
 10
107.526053
 20
107.092561
 30
0.0
  0
LWPOLYLINE
  5
106
100
AcDbEntity
  8
Enclosure___Card_reader_Back_beam_contour
 62
7
100
AcDbPolyline
 90
2
 70
0
 10
106.880054
 20
127.691561
 30
0.0
 10
110.064854
 20
127.043562
 30
0.0
  0
LWPOLYLINE
  5
107
100
AcDbEntity
  8
Enclosure___Card_reader_Back_beam_contour
 62
7
100
AcDbPolyline
 90
2
 70
0
 10
108.674053
 20
109.863563
 30
0.0
 10
105.008754
 20
111.381563
 30
0.0
  0
LWPOLYLINE
  5
108
100
AcDbEntity
  8
Enclosure___Card_reader_Back_beam_contour
 62
7
100
AcDbPolyline
 90
2
 70
0
 10
106.880054
 20
127.691561
 30
0.0
 10
106.255754
 20
124.622561
 30
0.0
  0
LWPOLYLINE
  5
109
100
AcDbEntity
  8
Enclosure___Card_reader_Back_beam_contour
 62
7
100
AcDbPolyline
 90
2
 70
0
 10
105.008754
 20
111.381563
 30
0.0
 10
106.255754
 20
124.622561
 30
0.0
  0
LWPOLYLINE
  5
10a
100
AcDbEntity
  8
Enclosure___Card_reader_peg_001_contour
 62
7
100
AcDbPolyline
 90
8
 70
1
 10
133.343377
 20
105.054333
 30
0.0
 10
130.093395
 20
105.111332
 30
0.0
 10
130.146391
 20
108.110334
 30
0.0
 10
129.146398
 20
108.128325
 30
0.0
 10
129.202384
 20
111.377332
 30
0.0
 10
134.452379
 20
111.286334
 30
0.0
 10
134.395387
 20
108.036332
 30
0.0
 10
133.395395
 20
108.054324
 30
0.0
  0
LWPOLYLINE
  5
10b
100
AcDbEntity
  8
Enclosure___Card_reader_peg_002_contour
 62
7
100
AcDbPolyline
 90
8
 70
1
 10
123.168640
 20
117.087254
 30
0.0
 10
119.919141
 20
117.144254
 30
0.0
 10
119.971540
 20
120.143255
 30
0.0
 10
118.971642
 20
120.161247
 30
0.0
 10
119.028340
 20
123.410254
 30
0.0
 10
124.277541
 20
123.319256
 30
0.0
 10
124.220840
 20
120.069254
 30
0.0
 10
123.221041
 20
120.087246
 30
0.0
  0
LWPOLYLINE
  5
10c
100
AcDbEntity
  8
Enclosure___Card_reader_peg_003_contour
 62
7
100
AcDbPolyline
 90
8
 70
1
 10
119.968140
 20
111.064692
 30
0.0
 10
123.218123
 20
111.121691
 30
0.0
 10
123.270140
 20
108.121692
 30
0.0
 10
124.270132
 20
108.139684
 30
0.0
 10
124.327124
 20
104.889690
 30
0.0
 10
119.078134
 20
104.797692
 30
0.0
 10
119.021143
 20
108.047691
 30
0.0
 10
120.021136
 20
108.064704
 30
0.0
  0
LWPOLYLINE
  5
10d
100
AcDbEntity
  8
Enclosure___Card_reader_peg_004_contour
 62
7
100
AcDbPolyline
 90
8
 70
1
 10
130.193068
 20
122.899663
 30
0.0
 10
133.442067
 20
122.956663
 30
0.0
 10
133.495068
 20
119.957663
 30
0.0
 10
134.495069
 20
119.974650
 30
0.0
 10
134.551068
 20
116.725664
 30
0.0
 10
129.302068
 20
116.633663
 30
0.0
 10
129.245069
 20
119.882665
 30
0.0
 10
130.245067
 20
119.900656
 30
0.0
  0
LWPOLYLINE
  5
10e
100
AcDbEntity
  8
Enclosure___Lid_Nut_holder_pull_plate002_contour
 62
7
100
AcDbPolyline
 90
2
 70
0
 10
183.028564
 20
227.246335
 30
0.0
 10
182.979065
 20
226.854355
 30
0.0
  0
LWPOLYLINE
  5
10f
100
AcDbEntity
  8
Enclosure___Lid_Nut_holder_pull_plate002_contour
 62
7
100
AcDbPolyline
 90
2
 70
0
 10
183.173965
 20
227.613338
 30
0.0
 10
183.028564
 20
227.246335
 30
0.0
  0
LWPOLYLINE
  5
110
100
AcDbEntity
  8
Enclosure___Lid_Nut_holder_pull_plate002_contour
 62
7
100
AcDbPolyline
 90
2
 70
0
 10
183.405965
 20
227.932346
 30
0.0
 10
183.173965
 20
227.613338
 30
0.0
  0
LWPOLYLINE
  5
111
100
AcDbEntity
  8
Enclosure___Lid_Nut_holder_pull_plate002_contour
 62
7
100
AcDbPolyline
 90
2
 70
0
 10
183.710165
 20
228.184441
 30
0.0
 10
183.405965
 20
227.932346
 30
0.0
  0
LWPOLYLINE
  5
112
100
AcDbEntity
  8
Enclosure___Lid_Nut_holder_pull_plate002_contour
 62
7
100
AcDbPolyline
 90
2
 70
0
 10
184.067365
 20
228.352531
 30
0.0
 10
183.710165
 20
228.184441
 30
0.0
  0
LWPOLYLINE
  5
113
100
AcDbEntity
  8
Enclosure___Lid_Nut_holder_pull_plate002_contour
 62
7
100
AcDbPolyline
 90
2
 70
0
 10
184.455165
 20
228.426535
 30
0.0
 10
184.067365
 20
228.352531
 30
0.0
  0
LWPOLYLINE
  5
114
100
AcDbEntity
  8
Enclosure___Lid_Nut_holder_pull_plate002_contour
 62
7
100
AcDbPolyline
 90
2
 70
0
 10
184.849265
 20
228.401744
 30
0.0
 10
184.455165
 20
228.426615
 30
0.0
  0
LWPOLYLINE
  5
115
100
AcDbEntity
  8
Enclosure___Lid_Nut_holder_pull_plate002_contour
 62
7
100
AcDbPolyline
 90
2
 70
0
 10
185.224663
 20
228.279744
 30
0.0
 10
184.849265
 20
228.401744
 30
0.0
  0
LWPOLYLINE
  5
116
100
AcDbEntity
  8
Enclosure___Lid_Nut_holder_pull_plate002_contour
 62
7
100
AcDbPolyline
 90
2
 70
0
 10
185.558065
 20
228.068342
 30
0.0
 10
185.224663
 20
228.279744
 30
0.0
  0
LWPOLYLINE
  5
117
100
AcDbEntity
  8
Enclosure___Lid_Nut_holder_pull_plate002_contour
 62
7
100
AcDbPolyline
 90
2
 70
0
 10
185.828265
 20
227.780343
 30
0.0
 10
185.558065
 20
228.068342
 30
0.0
  0
LWPOLYLINE
  5
118
100
AcDbEntity
  8
Enclosure___Lid_Nut_holder_pull_plate002_contour
 62
7
100
AcDbPolyline
 90
2
 70
0
 10
186.018464
 20
227.434348
 30
0.0
 10
185.828265
 20
227.780343
 30
0.0
  0
LWPOLYLINE
  5
119
100
AcDbEntity
  8
Enclosure___Lid_Nut_holder_pull_plate002_contour
 62
7
100
AcDbPolyline
 90
2
 70
0
 10
186.116664
 20
227.052342
 30
0.0
 10
186.018464
 20
227.434348
 30
0.0
  0
LWPOLYLINE
  5
11a
100
AcDbEntity
  8
Enclosure___Lid_Nut_holder_pull_plate002_contour
 62
7
100
AcDbPolyline
 90
2
 70
0
 10
186.116664
 20
226.657346
 30
0.0
 10
186.116664
 20
227.052342
 30
0.0
  0
LWPOLYLINE
  5
11b
100
AcDbEntity
  8
Enclosure___Lid_Nut_holder_pull_plate002_contour
 62
7
100
AcDbPolyline
 90
2
 70
0
 10
186.018464
 20
226.275340
 30
0.0
 10
186.116664
 20
226.657346
 30
0.0
  0
LWPOLYLINE
  5
11c
100
AcDbEntity
  8
Enclosure___Lid_Nut_holder_pull_plate002_contour
 62
7
100
AcDbPolyline
 90
2
 70
0
 10
185.828265
 20
225.929345
 30
0.0
 10
186.018464
 20
226.275340
 30
0.0
  0
LWPOLYLINE
  5
11d
100
AcDbEntity
  8
Enclosure___Lid_Nut_holder_pull_plate002_contour
 62
7
100
AcDbPolyline
 90
2
 70
0
 10
185.558065
 20
225.641346
 30
0.0
 10
185.828265
 20
225.929345
 30
0.0
  0
LWPOLYLINE
  5
11e
100
AcDbEntity
  8
Enclosure___Lid_Nut_holder_pull_plate002_contour
 62
7
100
AcDbPolyline
 90
2
 70
0
 10
185.224663
 20
225.429335
 30
0.0
 10
185.558065
 20
225.641346
 30
0.0
  0
LWPOLYLINE
  5
11f
100
AcDbEntity
  8
Enclosure___Lid_Nut_holder_pull_plate002_contour
 62
7
100
AcDbPolyline
 90
2
 70
0
 10
184.849265
 20
225.307336
 30
0.0
 10
185.224663
 20
225.429335
 30
0.0
  0
LWPOLYLINE
  5
120
100
AcDbEntity
  8
Enclosure___Lid_Nut_holder_pull_plate002_contour
 62
7
100
AcDbPolyline
 90
2
 70
0
 10
184.455165
 20
225.282333
 30
0.0
 10
184.849265
 20
225.307468
 30
0.0
  0
LWPOLYLINE
  5
121
100
AcDbEntity
  8
Enclosure___Lid_Nut_holder_pull_plate002_contour
 62
7
100
AcDbPolyline
 90
2
 70
0
 10
184.067365
 20
225.356337
 30
0.0
 10
184.455165
 20
225.282333
 30
0.0
  0
LWPOLYLINE
  5
122
100
AcDbEntity
  8
Enclosure___Lid_Nut_holder_pull_plate002_contour
 62
7
100
AcDbPolyline
 90
2
 70
0
 10
183.710165
 20
225.524347
 30
0.0
 10
184.067365
 20
225.356337
 30
0.0
  0
LWPOLYLINE
  5
123
100
AcDbEntity
  8
Enclosure___Lid_Nut_holder_pull_plate002_contour
 62
7
100
AcDbPolyline
 90
2
 70
0
 10
183.405965
 20
225.776336
 30
0.0
 10
183.710165
 20
225.524347
 30
0.0
  0
LWPOLYLINE
  5
124
100
AcDbEntity
  8
Enclosure___Lid_Nut_holder_pull_plate002_contour
 62
7
100
AcDbPolyline
 90
2
 70
0
 10
183.173965
 20
226.096350
 30
0.0
 10
183.405965
 20
225.776336
 30
0.0
  0
LWPOLYLINE
  5
125
100
AcDbEntity
  8
Enclosure___Lid_Nut_holder_pull_plate002_contour
 62
7
100
AcDbPolyline
 90
2
 70
0
 10
183.028564
 20
226.463353
 30
0.0
 10
183.173965
 20
226.096350
 30
0.0
  0
LWPOLYLINE
  5
126
100
AcDbEntity
  8
Enclosure___Lid_Nut_holder_pull_plate002_contour
 62
7
100
AcDbPolyline
 90
2
 70
0
 10
182.979065
 20
226.854355
 30
0.0
 10
183.028564
 20
226.463353
 30
0.0
  0
LWPOLYLINE
  5
127
100
AcDbEntity
  8
Enclosure___Lid_Nut_holder_pull_plate002_contour
 62
7
100
AcDbPolyline
 90
3
 70
0
 10
191.679065
 20
220.729330
 30
0.0
 10
188.554064
 20
220.729330
 30
0.0
 10
184.929066
 20
220.729330
 30
0.0
  0
LWPOLYLINE
  5
128
100
AcDbEntity
  8
Enclosure___Lid_Nut_holder_pull_plate002_contour
 62
7
100
AcDbPolyline
 90
2
 70
0
 10
184.929066
 20
221.729349
 30
0.0
 10
184.929066
 20
220.729330
 30
0.0
  0
LWPOLYLINE
  5
129
100
AcDbEntity
  8
Enclosure___Lid_Nut_holder_pull_plate002_contour
 62
7
100
AcDbPolyline
 90
2
 70
0
 10
182.179066
 20
221.729349
 30
0.0
 10
184.929066
 20
221.729349
 30
0.0
  0
LWPOLYLINE
  5
12a
100
AcDbEntity
  8
Enclosure___Lid_Nut_holder_pull_plate002_contour
 62
7
100
AcDbPolyline
 90
2
 70
0
 10
182.179066
 20
220.729330
 30
0.0
 10
182.179066
 20
221.729349
 30
0.0
  0
LWPOLYLINE
  5
12b
100
AcDbEntity
  8
Enclosure___Lid_Nut_holder_pull_plate002_contour
 62
7
100
AcDbPolyline
 90
3
 70
0
 10
182.179066
 20
220.729330
 30
0.0
 10
178.429065
 20
220.729330
 30
0.0
 10
178.429065
 20
224.479349
 30
0.0
  0
LWPOLYLINE
  5
12c
100
AcDbEntity
  8
Enclosure___Lid_Nut_holder_pull_plate002_contour
 62
7
100
AcDbPolyline
 90
2
 70
0
 10
179.429063
 20
224.479349
 30
0.0
 10
178.429065
 20
224.479349
 30
0.0
  0
LWPOLYLINE
  5
12d
100
AcDbEntity
  8
Enclosure___Lid_Nut_holder_pull_plate002_contour
 62
7
100
AcDbPolyline
 90
2
 70
0
 10
179.429063
 20
227.229349
 30
0.0
 10
179.429063
 20
224.479349
 30
0.0
  0
LWPOLYLINE
  5
12e
100
AcDbEntity
  8
Enclosure___Lid_Nut_holder_pull_plate002_contour
 62
7
100
AcDbPolyline
 90
2
 70
0
 10
178.429065
 20
227.229349
 30
0.0
 10
179.429063
 20
227.229349
 30
0.0
  0
LWPOLYLINE
  5
12f
100
AcDbEntity
  8
Enclosure___Lid_Nut_holder_pull_plate002_contour
 62
7
100
AcDbPolyline
 90
2
 70
0
 10
178.429065
 20
227.229349
 30
0.0
 10
178.429065
 20
230.854643
 30
0.0
  0
LWPOLYLINE
  5
130
100
AcDbEntity
  8
Enclosure___Lid_Nut_holder_pull_plate002_contour
 62
7
100
AcDbPolyline
 90
2
 70
0
 10
178.429065
 20
233.979637
 30
0.0
 10
178.429065
 20
230.854643
 30
0.0
  0
LWPOLYLINE
  5
131
100
AcDbEntity
  8
Enclosure___Lid_Nut_holder_pull_plate002_contour
 62
7
100
AcDbPolyline
 90
2
 70
0
 10
191.679065
 20
230.979632
 30
0.0
 10
191.679065
 20
220.729330
 30
0.0
  0
LWPOLYLINE
  5
132
100
AcDbEntity
  8
Enclosure___Lid_Nut_holder_pull_plate002_contour
 62
7
100
AcDbPolyline
 90
2
 70
0
 10
178.429065
 20
233.979637
 30
0.0
 10
188.679063
 20
233.979637
 30
0.0
  0
LWPOLYLINE
  5
133
100
AcDbEntity
  8
Enclosure___Lid_Nut_holder_pull_plate002_contour
 62
7
100
AcDbPolyline
 90
2
 70
0
 10
191.679065
 20
230.979632
 30
0.0
 10
188.679063
 20
230.979632
 30
0.0
  0
LWPOLYLINE
  5
134
100
AcDbEntity
  8
Enclosure___Lid_Nut_holder_pull_plate002_contour
 62
7
100
AcDbPolyline
 90
2
 70
0
 10
188.679063
 20
233.979637
 30
0.0
 10
188.679063
 20
230.979632
 30
0.0
  0
LWPOLYLINE
  5
135
100
AcDbEntity
  8
Enclosure___Lid_nut_holder_banana_peg002_contour
 62
7
100
AcDbPolyline
 90
9
 70
1
 10
199.647352
 20
233.487168
 30
0.0
 10
203.772352
 20
233.487168
 30
0.0
 10
203.772352
 20
215.237162
 30
0.0
 10
196.222353
 20
215.237162
 30
0.0
 10
196.222353
 20
219.487164
 30
0.0
 10
199.522353
 20
219.487164
 30
0.0
 10
199.522353
 20
228.237173
 30
0.0
 10
196.222353
 20
228.237173
 30
0.0
 10
196.222353
 20
233.487168
 30
0.0
  0
LWPOLYLINE
  5
136
100
AcDbEntity
  8
Enclosure___Lid_nut_holder_base002_contour
 62
7
100
AcDbPolyline
 90
2
 70
0
 10
183.206334
 20
245.093147
 30
0.0
 10
183.156836
 20
245.484863
 30
0.0
  0
LWPOLYLINE
  5
137
100
AcDbEntity
  8
Enclosure___Lid_nut_holder_base002_contour
 62
7
100
AcDbPolyline
 90
2
 70
0
 10
183.351636
 20
244.726144
 30
0.0
 10
183.206334
 20
245.093147
 30
0.0
  0
LWPOLYLINE
  5
138
100
AcDbEntity
  8
Enclosure___Lid_nut_holder_base002_contour
 62
7
100
AcDbPolyline
 90
2
 70
0
 10
183.583636
 20
244.406765
 30
0.0
 10
183.351636
 20
244.726144
 30
0.0
  0
LWPOLYLINE
  5
139
100
AcDbEntity
  8
Enclosure___Lid_nut_holder_base002_contour
 62
7
100
AcDbPolyline
 90
2
 70
0
 10
183.887835
 20
244.155041
 30
0.0
 10
183.583636
 20
244.406765
 30
0.0
  0
LWPOLYLINE
  5
13a
100
AcDbEntity
  8
Enclosure___Lid_nut_holder_base002_contour
 62
7
100
AcDbPolyline
 90
2
 70
0
 10
184.245136
 20
243.986951
 30
0.0
 10
183.887835
 20
244.155041
 30
0.0
  0
LWPOLYLINE
  5
13b
100
AcDbEntity
  8
Enclosure___Lid_nut_holder_base002_contour
 62
7
100
AcDbPolyline
 90
2
 70
0
 10
184.632936
 20
243.912947
 30
0.0
 10
184.245136
 20
243.986951
 30
0.0
  0
LWPOLYLINE
  5
13c
100
AcDbEntity
  8
Enclosure___Lid_nut_holder_base002_contour
 62
7
100
AcDbPolyline
 90
2
 70
0
 10
185.026935
 20
243.937765
 30
0.0
 10
184.632936
 20
243.912894
 30
0.0
  0
LWPOLYLINE
  5
13d
100
AcDbEntity
  8
Enclosure___Lid_nut_holder_base002_contour
 62
7
100
AcDbPolyline
 90
2
 70
0
 10
185.402434
 20
244.059764
 30
0.0
 10
185.026935
 20
243.937765
 30
0.0
  0
LWPOLYLINE
  5
13e
100
AcDbEntity
  8
Enclosure___Lid_nut_holder_base002_contour
 62
7
100
AcDbPolyline
 90
2
 70
0
 10
185.735735
 20
244.271352
 30
0.0
 10
185.402434
 20
244.059764
 30
0.0
  0
LWPOLYLINE
  5
13f
100
AcDbEntity
  8
Enclosure___Lid_nut_holder_base002_contour
 62
7
100
AcDbPolyline
 90
2
 70
0
 10
186.006036
 20
244.559165
 30
0.0
 10
185.735735
 20
244.271352
 30
0.0
  0
LWPOLYLINE
  5
140
100
AcDbEntity
  8
Enclosure___Lid_nut_holder_base002_contour
 62
7
100
AcDbPolyline
 90
2
 70
0
 10
186.196235
 20
244.905055
 30
0.0
 10
186.006036
 20
244.559165
 30
0.0
  0
LWPOLYLINE
  5
141
100
AcDbEntity
  8
Enclosure___Lid_nut_holder_base002_contour
 62
7
100
AcDbPolyline
 90
2
 70
0
 10
186.294435
 20
245.287457
 30
0.0
 10
186.196235
 20
244.905055
 30
0.0
  0
LWPOLYLINE
  5
142
100
AcDbEntity
  8
Enclosure___Lid_nut_holder_base002_contour
 62
7
100
AcDbPolyline
 90
2
 70
0
 10
186.294435
 20
245.682242
 30
0.0
 10
186.294435
 20
245.287457
 30
0.0
  0
LWPOLYLINE
  5
143
100
AcDbEntity
  8
Enclosure___Lid_nut_holder_base002_contour
 62
7
100
AcDbPolyline
 90
2
 70
0
 10
186.196235
 20
246.064644
 30
0.0
 10
186.294435
 20
245.682242
 30
0.0
  0
LWPOLYLINE
  5
144
100
AcDbEntity
  8
Enclosure___Lid_nut_holder_base002_contour
 62
7
100
AcDbPolyline
 90
2
 70
0
 10
186.006036
 20
246.410640
 30
0.0
 10
186.196235
 20
246.064644
 30
0.0
  0
LWPOLYLINE
  5
145
100
AcDbEntity
  8
Enclosure___Lid_nut_holder_base002_contour
 62
7
100
AcDbPolyline
 90
2
 70
0
 10
185.735735
 20
246.698454
 30
0.0
 10
186.006036
 20
246.410640
 30
0.0
  0
LWPOLYLINE
  5
146
100
AcDbEntity
  8
Enclosure___Lid_nut_holder_base002_contour
 62
7
100
AcDbPolyline
 90
2
 70
0
 10
185.402434
 20
246.909962
 30
0.0
 10
185.735735
 20
246.698454
 30
0.0
  0
LWPOLYLINE
  5
147
100
AcDbEntity
  8
Enclosure___Lid_nut_holder_base002_contour
 62
7
100
AcDbPolyline
 90
2
 70
0
 10
185.026935
 20
247.031961
 30
0.0
 10
185.402434
 20
246.909962
 30
0.0
  0
LWPOLYLINE
  5
148
100
AcDbEntity
  8
Enclosure___Lid_nut_holder_base002_contour
 62
7
100
AcDbPolyline
 90
2
 70
0
 10
184.632936
 20
247.056753
 30
0.0
 10
185.026935
 20
247.031882
 30
0.0
  0
LWPOLYLINE
  5
149
100
AcDbEntity
  8
Enclosure___Lid_nut_holder_base002_contour
 62
7
100
AcDbPolyline
 90
2
 70
0
 10
184.245136
 20
246.982749
 30
0.0
 10
184.632936
 20
247.056753
 30
0.0
  0
LWPOLYLINE
  5
14a
100
AcDbEntity
  8
Enclosure___Lid_nut_holder_base002_contour
 62
7
100
AcDbPolyline
 90
2
 70
0
 10
183.887835
 20
246.814659
 30
0.0
 10
184.245136
 20
246.982749
 30
0.0
  0
LWPOLYLINE
  5
14b
100
AcDbEntity
  8
Enclosure___Lid_nut_holder_base002_contour
 62
7
100
AcDbPolyline
 90
2
 70
0
 10
183.583636
 20
246.563040
 30
0.0
 10
183.887835
 20
246.814659
 30
0.0
  0
LWPOLYLINE
  5
14c
100
AcDbEntity
  8
Enclosure___Lid_nut_holder_base002_contour
 62
7
100
AcDbPolyline
 90
2
 70
0
 10
183.351636
 20
246.243662
 30
0.0
 10
183.583636
 20
246.563040
 30
0.0
  0
LWPOLYLINE
  5
14d
100
AcDbEntity
  8
Enclosure___Lid_nut_holder_base002_contour
 62
7
100
AcDbPolyline
 90
2
 70
0
 10
183.206334
 20
245.876552
 30
0.0
 10
183.351636
 20
246.243662
 30
0.0
  0
LWPOLYLINE
  5
14e
100
AcDbEntity
  8
Enclosure___Lid_nut_holder_base002_contour
 62
7
100
AcDbPolyline
 90
2
 70
0
 10
183.156836
 20
245.484863
 30
0.0
 10
183.206334
 20
245.876552
 30
0.0
  0
LWPOLYLINE
  5
14f
100
AcDbEntity
  8
Enclosure___Lid_nut_holder_base002_contour
 62
7
100
AcDbPolyline
 90
2
 70
0
 10
185.106837
 20
240.359857
 30
0.0
 10
185.106837
 20
239.359865
 30
0.0
  0
LWPOLYLINE
  5
150
100
AcDbEntity
  8
Enclosure___Lid_nut_holder_base002_contour
 62
7
100
AcDbPolyline
 90
2
 70
0
 10
182.356837
 20
240.359857
 30
0.0
 10
185.106837
 20
240.359857
 30
0.0
  0
LWPOLYLINE
  5
151
100
AcDbEntity
  8
Enclosure___Lid_nut_holder_base002_contour
 62
7
100
AcDbPolyline
 90
2
 70
0
 10
182.356837
 20
239.359865
 30
0.0
 10
182.356837
 20
240.359857
 30
0.0
  0
LWPOLYLINE
  5
152
100
AcDbEntity
  8
Enclosure___Lid_nut_holder_base002_contour
 62
7
100
AcDbPolyline
 90
2
 70
0
 10
178.606836
 20
239.359865
 30
0.0
 10
182.356837
 20
239.359865
 30
0.0
  0
LWPOLYLINE
  5
153
100
AcDbEntity
  8
Enclosure___Lid_nut_holder_base002_contour
 62
7
100
AcDbPolyline
 90
2
 70
0
 10
178.606836
 20
243.109857
 30
0.0
 10
178.606836
 20
239.359865
 30
0.0
  0
LWPOLYLINE
  5
154
100
AcDbEntity
  8
Enclosure___Lid_nut_holder_base002_contour
 62
7
100
AcDbPolyline
 90
2
 70
0
 10
179.606834
 20
243.109857
 30
0.0
 10
178.606836
 20
243.109857
 30
0.0
  0
LWPOLYLINE
  5
155
100
AcDbEntity
  8
Enclosure___Lid_nut_holder_base002_contour
 62
7
100
AcDbPolyline
 90
2
 70
0
 10
179.606834
 20
245.859857
 30
0.0
 10
179.606834
 20
243.109857
 30
0.0
  0
LWPOLYLINE
  5
156
100
AcDbEntity
  8
Enclosure___Lid_nut_holder_base002_contour
 62
7
100
AcDbPolyline
 90
2
 70
0
 10
178.606836
 20
245.859857
 30
0.0
 10
179.606834
 20
245.859857
 30
0.0
  0
LWPOLYLINE
  5
157
100
AcDbEntity
  8
Enclosure___Lid_nut_holder_base002_contour
 62
7
100
AcDbPolyline
 90
2
 70
0
 10
185.106837
 20
239.359865
 30
0.0
 10
188.856834
 20
239.359865
 30
0.0
  0
LWPOLYLINE
  5
158
100
AcDbEntity
  8
Enclosure___Lid_nut_holder_base002_contour
 62
7
100
AcDbPolyline
 90
2
 70
0
 10
178.606836
 20
245.859857
 30
0.0
 10
178.606836
 20
249.609849
 30
0.0
  0
LWPOLYLINE
  5
159
100
AcDbEntity
  8
Enclosure___Lid_nut_holder_base002_contour
 62
7
100
AcDbPolyline
 90
2
 70
0
 10
188.856834
 20
249.609849
 30
0.0
 10
188.856834
 20
239.359865
 30
0.0
  0
LWPOLYLINE
  5
15a
100
AcDbEntity
  8
Enclosure___Lid_nut_holder_base002_contour
 62
7
100
AcDbPolyline
 90
2
 70
0
 10
178.606836
 20
249.609849
 30
0.0
 10
188.856834
 20
249.609849
 30
0.0
  0
LWPOLYLINE
  5
15b
100
AcDbEntity
  8
Enclosure___Lid_nut_holder_nut_mount002_contour
 62
7
100
AcDbPolyline
 90
2
 70
0
 10
202.177552
 20
246.724674
 30
0.0
 10
199.733651
 20
248.405175
 30
0.0
  0
LWPOLYLINE
  5
15c
100
AcDbEntity
  8
Enclosure___Lid_nut_holder_nut_mount002_contour
 62
7
100
AcDbPolyline
 90
2
 70
0
 10
202.177552
 20
243.758774
 30
0.0
 10
202.177552
 20
246.724674
 30
0.0
  0
LWPOLYLINE
  5
15d
100
AcDbEntity
  8
Enclosure___Lid_nut_holder_nut_mount002_contour
 62
7
100
AcDbPolyline
 90
2
 70
0
 10
199.561151
 20
242.382571
 30
0.0
 10
202.177552
 20
243.758774
 30
0.0
  0
LWPOLYLINE
  5
15e
100
AcDbEntity
  8
Enclosure___Lid_nut_holder_nut_mount002_contour
 62
7
100
AcDbPolyline
 90
2
 70
0
 10
197.117250
 20
244.063177
 30
0.0
 10
199.561151
 20
242.382571
 30
0.0
  0
LWPOLYLINE
  5
15f
100
AcDbEntity
  8
Enclosure___Lid_nut_holder_nut_mount002_contour
 62
7
100
AcDbPolyline
 90
2
 70
0
 10
197.117250
 20
247.029077
 30
0.0
 10
197.117250
 20
244.063177
 30
0.0
  0
LWPOLYLINE
  5
160
100
AcDbEntity
  8
Enclosure___Lid_nut_holder_nut_mount002_contour
 62
7
100
AcDbPolyline
 90
2
 70
0
 10
199.733651
 20
248.405175
 30
0.0
 10
197.117250
 20
247.029077
 30
0.0
  0
LWPOLYLINE
  5
161
100
AcDbEntity
  8
Enclosure___Lid_nut_holder_nut_mount002_contour
 62
7
100
AcDbPolyline
 90
4
 70
0
 10
194.522352
 20
245.768893
 30
0.0
 10
194.522352
 20
243.018893
 30
0.0
 10
193.522351
 20
243.018893
 30
0.0
 10
193.522351
 20
239.268874
 30
0.0
  0
LWPOLYLINE
  5
162
100
AcDbEntity
  8
Enclosure___Lid_nut_holder_nut_mount002_contour
 62
7
100
AcDbPolyline
 90
2
 70
0
 10
197.272352
 20
239.268874
 30
0.0
 10
193.522351
 20
239.268874
 30
0.0
  0
LWPOLYLINE
  5
163
100
AcDbEntity
  8
Enclosure___Lid_nut_holder_nut_mount002_contour
 62
7
100
AcDbPolyline
 90
2
 70
0
 10
197.272352
 20
240.268894
 30
0.0
 10
197.272352
 20
239.268874
 30
0.0
  0
LWPOLYLINE
  5
164
100
AcDbEntity
  8
Enclosure___Lid_nut_holder_nut_mount002_contour
 62
7
100
AcDbPolyline
 90
2
 70
0
 10
200.022352
 20
240.268894
 30
0.0
 10
197.272352
 20
240.268894
 30
0.0
  0
LWPOLYLINE
  5
165
100
AcDbEntity
  8
Enclosure___Lid_nut_holder_nut_mount002_contour
 62
7
100
AcDbPolyline
 90
2
 70
0
 10
200.022352
 20
239.268874
 30
0.0
 10
200.022352
 20
240.268894
 30
0.0
  0
LWPOLYLINE
  5
166
100
AcDbEntity
  8
Enclosure___Lid_nut_holder_nut_mount002_contour
 62
7
100
AcDbPolyline
 90
2
 70
0
 10
203.772352
 20
239.268874
 30
0.0
 10
200.022352
 20
239.268874
 30
0.0
  0
LWPOLYLINE
  5
167
100
AcDbEntity
  8
Enclosure___Lid_nut_holder_nut_mount002_contour
 62
7
100
AcDbPolyline
 90
2
 70
0
 10
203.772352
 20
249.518886
 30
0.0
 10
203.772352
 20
239.268874
 30
0.0
  0
LWPOLYLINE
  5
168
100
AcDbEntity
  8
Enclosure___Lid_nut_holder_nut_mount002_contour
 62
7
100
AcDbPolyline
 90
2
 70
0
 10
203.772352
 20
249.518886
 30
0.0
 10
193.522351
 20
249.518886
 30
0.0
  0
LWPOLYLINE
  5
169
100
AcDbEntity
  8
Enclosure___Lid_nut_holder_nut_mount002_contour
 62
7
100
AcDbPolyline
 90
2
 70
0
 10
193.522351
 20
245.768893
 30
0.0
 10
193.522351
 20
249.518886
 30
0.0
  0
LWPOLYLINE
  5
16a
100
AcDbEntity
  8
Enclosure___Lid_nut_holder_nut_mount002_contour
 62
7
100
AcDbPolyline
 90
2
 70
0
 10
194.522352
 20
245.768893
 30
0.0
 10
193.522351
 20
245.768893
 30
0.0
  0
LWPOLYLINE
  5
16b
100
AcDbEntity
  8
View002
 62
7
100
AcDbPolyline
 90
3
 70
0
 10
98.822155
 20
6.572167
 30
0.0
 10
98.822155
 20
41.915153
 30
0.0
 10
93.929155
 20
41.915153
 30
0.0
  0
LWPOLYLINE
  5
16c
100
AcDbEntity
  8
View002
 62
7
100
AcDbPolyline
 90
2
 70
0
 10
98.822155
 20
101.822151
 30
0.0
 10
98.822155
 20
86.665153
 30
0.0
  0
LWPOLYLINE
  5
16d
100
AcDbEntity
  8
View002
 62
7
100
AcDbPolyline
 90
2
 70
0
 10
95.822154
 20
101.822151
 30
0.0
 10
98.822155
 20
101.822151
 30
0.0
  0
LWPOLYLINE
  5
16e
100
AcDbEntity
  8
View002
 62
7
100
AcDbPolyline
 90
2
 70
0
 10
95.822154
 20
106.572152
 30
0.0
 10
95.822154
 20
101.822151
 30
0.0
  0
LWPOLYLINE
  5
16f
100
AcDbEntity
  8
View002
 62
7
100
AcDbPolyline
 90
2
 70
0
 10
98.822155
 20
106.572152
 30
0.0
 10
95.822154
 20
106.572152
 30
0.0
  0
LWPOLYLINE
  5
170
100
AcDbEntity
  8
View002
 62
7
100
AcDbPolyline
 90
2
 70
0
 10
98.822155
 20
111.822152
 30
0.0
 10
98.822155
 20
106.572152
 30
0.0
  0
LWPOLYLINE
  5
171
100
AcDbEntity
  8
View002
 62
7
100
AcDbPolyline
 90
2
 70
0
 10
95.822154
 20
111.822152
 30
0.0
 10
98.822155
 20
111.822152
 30
0.0
  0
LWPOLYLINE
  5
172
100
AcDbEntity
  8
View002
 62
7
100
AcDbPolyline
 90
2
 70
0
 10
95.822154
 20
118.572152
 30
0.0
 10
95.822154
 20
111.822152
 30
0.0
  0
LWPOLYLINE
  5
173
100
AcDbEntity
  8
View002
 62
7
100
AcDbPolyline
 90
2
 70
0
 10
98.822155
 20
118.572152
 30
0.0
 10
95.822154
 20
118.572152
 30
0.0
  0
LWPOLYLINE
  5
174
100
AcDbEntity
  8
View002
 62
7
100
AcDbPolyline
 90
2
 70
0
 10
98.822155
 20
130.822154
 30
0.0
 10
98.822155
 20
118.572152
 30
0.0
  0
LWPOLYLINE
  5
175
100
AcDbEntity
  8
View002
 62
7
100
AcDbPolyline
 90
2
 70
0
 10
6.572153
 20
130.822154
 30
0.0
 10
98.822155
 20
130.822154
 30
0.0
  0
LWPOLYLINE
  5
176
100
AcDbEntity
  8
View002
 62
7
100
AcDbPolyline
 90
2
 70
0
 10
6.572153
 20
118.572152
 30
0.0
 10
6.572153
 20
130.822154
 30
0.0
  0
LWPOLYLINE
  5
177
100
AcDbEntity
  8
View002
 62
7
100
AcDbPolyline
 90
2
 70
0
 10
9.572152
 20
118.572152
 30
0.0
 10
6.572153
 20
118.572152
 30
0.0
  0
LWPOLYLINE
  5
178
100
AcDbEntity
  8
View002
 62
7
100
AcDbPolyline
 90
2
 70
0
 10
9.572152
 20
111.822152
 30
0.0
 10
9.572152
 20
118.572152
 30
0.0
  0
LWPOLYLINE
  5
179
100
AcDbEntity
  8
View002
 62
7
100
AcDbPolyline
 90
2
 70
0
 10
6.572153
 20
111.822152
 30
0.0
 10
9.572152
 20
111.822152
 30
0.0
  0
LWPOLYLINE
  5
17a
100
AcDbEntity
  8
View002
 62
7
100
AcDbPolyline
 90
2
 70
0
 10
6.572153
 20
106.572152
 30
0.0
 10
6.572153
 20
111.822152
 30
0.0
  0
LWPOLYLINE
  5
17b
100
AcDbEntity
  8
View002
 62
7
100
AcDbPolyline
 90
2
 70
0
 10
9.572152
 20
106.572152
 30
0.0
 10
6.572153
 20
106.572152
 30
0.0
  0
LWPOLYLINE
  5
17c
100
AcDbEntity
  8
View002
 62
7
100
AcDbPolyline
 90
2
 70
0
 10
9.572152
 20
101.822151
 30
0.0
 10
9.572152
 20
106.572152
 30
0.0
  0
LWPOLYLINE
  5
17d
100
AcDbEntity
  8
View002
 62
7
100
AcDbPolyline
 90
2
 70
0
 10
6.572153
 20
101.822151
 30
0.0
 10
9.572152
 20
101.822151
 30
0.0
  0
LWPOLYLINE
  5
17e
100
AcDbEntity
  8
View002
 62
7
100
AcDbPolyline
 90
2
 70
0
 10
6.572153
 20
86.321153
 30
0.0
 10
6.572153
 20
101.822151
 30
0.0
  0
LWPOLYLINE
  5
17f
100
AcDbEntity
  8
View002
 62
7
100
AcDbPolyline
 90
2
 70
0
 10
11.349152
 20
86.321153
 30
0.0
 10
6.572153
 20
86.321153
 30
0.0
  0
LWPOLYLINE
  5
180
100
AcDbEntity
  8
View002
 62
7
100
AcDbPolyline
 90
2
 70
0
 10
11.349152
 20
81.571151
 30
0.0
 10
11.349152
 20
86.321153
 30
0.0
  0
LWPOLYLINE
  5
181
100
AcDbEntity
  8
View002
 62
7
100
AcDbPolyline
 90
2
 70
0
 10
6.572153
 20
81.571151
 30
0.0
 10
11.349152
 20
81.571151
 30
0.0
  0
LWPOLYLINE
  5
182
100
AcDbEntity
  8
View002
 62
7
100
AcDbPolyline
 90
2
 70
0
 10
6.572153
 20
66.321153
 30
0.0
 10
6.572153
 20
81.571151
 30
0.0
  0
LWPOLYLINE
  5
183
100
AcDbEntity
  8
View002
 62
7
100
AcDbPolyline
 90
2
 70
0
 10
11.349152
 20
66.321153
 30
0.0
 10
6.572153
 20
66.321153
 30
0.0
  0
LWPOLYLINE
  5
184
100
AcDbEntity
  8
View002
 62
7
100
AcDbPolyline
 90
2
 70
0
 10
11.349152
 20
61.571152
 30
0.0
 10
11.349152
 20
66.321153
 30
0.0
  0
LWPOLYLINE
  5
185
100
AcDbEntity
  8
View002
 62
7
100
AcDbPolyline
 90
2
 70
0
 10
6.572153
 20
61.571152
 30
0.0
 10
11.349152
 20
61.571152
 30
0.0
  0
LWPOLYLINE
  5
186
100
AcDbEntity
  8
View002
 62
7
100
AcDbPolyline
 90
2
 70
0
 10
6.572153
 20
46.321153
 30
0.0
 10
6.572153
 20
61.571152
 30
0.0
  0
LWPOLYLINE
  5
187
100
AcDbEntity
  8
View002
 62
7
100
AcDbPolyline
 90
2
 70
0
 10
11.349152
 20
46.321153
 30
0.0
 10
6.572153
 20
46.321153
 30
0.0
  0
LWPOLYLINE
  5
188
100
AcDbEntity
  8
View002
 62
7
100
AcDbPolyline
 90
2
 70
0
 10
11.349152
 20
41.571152
 30
0.0
 10
11.349152
 20
46.321153
 30
0.0
  0
LWPOLYLINE
  5
189
100
AcDbEntity
  8
View002
 62
7
100
AcDbPolyline
 90
2
 70
0
 10
6.572153
 20
41.571152
 30
0.0
 10
11.349152
 20
41.571152
 30
0.0
  0
LWPOLYLINE
  5
18a
100
AcDbEntity
  8
View002
 62
7
100
AcDbPolyline
 90
2
 70
0
 10
6.572153
 20
6.572167
 30
0.0
 10
6.572153
 20
41.571152
 30
0.0
  0
LWPOLYLINE
  5
18b
100
AcDbEntity
  8
View002
 62
7
100
AcDbPolyline
 90
2
 70
0
 10
41.168153
 20
6.572167
 30
0.0
 10
6.572153
 20
6.572167
 30
0.0
  0
LWPOLYLINE
  5
18c
100
AcDbEntity
  8
View002
 62
7
100
AcDbPolyline
 90
2
 70
0
 10
41.168153
 20
11.496168
 30
0.0
 10
41.168153
 20
6.572167
 30
0.0
  0
LWPOLYLINE
  5
18d
100
AcDbEntity
  8
View002
 62
7
100
AcDbPolyline
 90
2
 70
0
 10
45.918154
 20
11.496168
 30
0.0
 10
41.168153
 20
11.496168
 30
0.0
  0
LWPOLYLINE
  5
18e
100
AcDbEntity
  8
View002
 62
7
100
AcDbPolyline
 90
2
 70
0
 10
45.918154
 20
6.572167
 30
0.0
 10
45.918154
 20
11.496168
 30
0.0
  0
LWPOLYLINE
  5
18f
100
AcDbEntity
  8
View002
 62
7
100
AcDbPolyline
 90
2
 70
0
 10
45.918154
 20
6.572167
 30
0.0
 10
98.822155
 20
6.572167
 30
0.0
  0
LWPOLYLINE
  5
190
100
AcDbEntity
  8
View002
 62
7
100
AcDbPolyline
 90
2
 70
0
 10
93.929155
 20
46.665151
 30
0.0
 10
93.929155
 20
41.915153
 30
0.0
  0
LWPOLYLINE
  5
191
100
AcDbEntity
  8
View002
 62
7
100
AcDbPolyline
 90
2
 70
0
 10
98.822155
 20
46.665151
 30
0.0
 10
93.929155
 20
46.665151
 30
0.0
  0
LWPOLYLINE
  5
192
100
AcDbEntity
  8
View002
 62
7
100
AcDbPolyline
 90
2
 70
0
 10
98.822155
 20
61.915152
 30
0.0
 10
98.822155
 20
46.665151
 30
0.0
  0
LWPOLYLINE
  5
193
100
AcDbEntity
  8
View002
 62
7
100
AcDbPolyline
 90
2
 70
0
 10
93.929155
 20
61.915152
 30
0.0
 10
98.822155
 20
61.915152
 30
0.0
  0
LWPOLYLINE
  5
194
100
AcDbEntity
  8
View002
 62
7
100
AcDbPolyline
 90
2
 70
0
 10
93.929155
 20
66.665154
 30
0.0
 10
93.929155
 20
61.915152
 30
0.0
  0
LWPOLYLINE
  5
195
100
AcDbEntity
  8
View002
 62
7
100
AcDbPolyline
 90
2
 70
0
 10
98.822155
 20
66.665154
 30
0.0
 10
93.929155
 20
66.665154
 30
0.0
  0
LWPOLYLINE
  5
196
100
AcDbEntity
  8
View002
 62
7
100
AcDbPolyline
 90
2
 70
0
 10
98.822155
 20
81.915152
 30
0.0
 10
98.822155
 20
66.665154
 30
0.0
  0
LWPOLYLINE
  5
197
100
AcDbEntity
  8
View002
 62
7
100
AcDbPolyline
 90
2
 70
0
 10
93.929155
 20
81.915152
 30
0.0
 10
98.822155
 20
81.915152
 30
0.0
  0
LWPOLYLINE
  5
198
100
AcDbEntity
  8
View002
 62
7
100
AcDbPolyline
 90
2
 70
0
 10
93.929155
 20
86.665153
 30
0.0
 10
93.929155
 20
81.915152
 30
0.0
  0
LWPOLYLINE
  5
199
100
AcDbEntity
  8
View002
 62
7
100
AcDbPolyline
 90
2
 70
0
 10
98.822155
 20
86.665153
 30
0.0
 10
93.929155
 20
86.665153
 30
0.0
  0
LWPOLYLINE
  5
19a
100
AcDbEntity
  8
View002
 62
7
100
AcDbPolyline
 90
2
 70
0
 10
12.122153
 20
78.822152
 30
0.0
 10
14.872153
 20
78.822152
 30
0.0
  0
LWPOLYLINE
  5
19b
100
AcDbEntity
  8
View002
 62
7
100
AcDbPolyline
 90
2
 70
0
 10
12.122153
 20
81.572152
 30
0.0
 10
12.122153
 20
78.822152
 30
0.0
  0
LWPOLYLINE
  5
19c
100
AcDbEntity
  8
View002
 62
7
100
AcDbPolyline
 90
2
 70
0
 10
14.872153
 20
81.572152
 30
0.0
 10
12.122153
 20
81.572152
 30
0.0
  0
LWPOLYLINE
  5
19d
100
AcDbEntity
  8
View002
 62
7
100
AcDbPolyline
 90
2
 70
0
 10
14.872153
 20
78.822152
 30
0.0
 10
14.872153
 20
81.572152
 30
0.0
  0
LWPOLYLINE
  5
19e
100
AcDbEntity
  8
View002
 62
7
100
AcDbPolyline
 90
2
 70
0
 10
73.929155
 20
81.915152
 30
0.0
 10
78.679154
 20
81.915152
 30
0.0
  0
LWPOLYLINE
  5
19f
100
AcDbEntity
  8
View002
 62
7
100
AcDbPolyline
 90
2
 70
0
 10
73.929155
 20
86.665153
 30
0.0
 10
73.929155
 20
81.915152
 30
0.0
  0
LWPOLYLINE
  5
1a0
100
AcDbEntity
  8
View002
 62
7
100
AcDbPolyline
 90
2
 70
0
 10
78.679154
 20
86.665153
 30
0.0
 10
73.929155
 20
86.665153
 30
0.0
  0
SPLINE
  5
1a1
100
AcDbEntity
  8
View002
 62
7
100
AcDbSpline
 70
8
 71
3
 72
8
 73
4
 74
0
 40
0
 40
0
 40
0
 40
0
 40
1
 40
1
 40
1
 40
1
 10
88.022155
 20
101.197152
 30
0.0
 10
88.022155
 20
101.724119
 30
0.0
 10
87.741021
 20
102.211056
 30
0.0
 10
87.284655
 20
102.474540
 30
0.0
  0
SPLINE
  5
1a2
100
AcDbEntity
  8
View002
 62
7
100
AcDbSpline
 70
8
 71
3
 72
8
 73
4
 74
0
 40
0
 40
0
 40
0
 40
0
 40
1
 40
1
 40
1
 40
1
 10
87.284655
 20
102.474540
 30
0.0
 10
86.828288
 20
102.738023
 30
0.0
 10
86.266021
 20
102.738023
 30
0.0
 10
85.809654
 20
102.474540
 30
0.0
  0
SPLINE
  5
1a3
100
AcDbEntity
  8
View002
 62
7
100
AcDbSpline
 70
8
 71
3
 72
8
 73
4
 74
0
 40
0
 40
0
 40
0
 40
0
 40
1
 40
1
 40
1
 40
1
 10
85.809654
 20
102.474540
 30
0.0
 10
85.353287
 20
102.211056
 30
0.0
 10
85.072154
 20
101.724119
 30
0.0
 10
85.072154
 20
101.197152
 30
0.0
  0
SPLINE
  5
1a4
100
AcDbEntity
  8
View002
 62
7
100
AcDbSpline
 70
8
 71
3
 72
8
 73
4
 74
0
 40
0
 40
0
 40
0
 40
0
 40
1
 40
1
 40
1
 40
1
 10
85.072154
 20
101.197152
 30
0.0
 10
85.072154
 20
100.670185
 30
0.0
 10
85.353287
 20
100.183248
 30
0.0
 10
85.809654
 20
99.919764
 30
0.0
  0
SPLINE
  5
1a5
100
AcDbEntity
  8
View002
 62
7
100
AcDbSpline
 70
8
 71
3
 72
8
 73
4
 74
0
 40
0
 40
0
 40
0
 40
0
 40
1
 40
1
 40
1
 40
1
 10
85.809654
 20
99.919764
 30
0.0
 10
86.266021
 20
99.656281
 30
0.0
 10
86.828288
 20
99.656281
 30
0.0
 10
87.284655
 20
99.919764
 30
0.0
  0
SPLINE
  5
1a6
100
AcDbEntity
  8
View002
 62
7
100
AcDbSpline
 70
8
 71
3
 72
8
 73
4
 74
0
 40
0
 40
0
 40
0
 40
0
 40
1
 40
1
 40
1
 40
1
 10
87.284655
 20
99.919764
 30
0.0
 10
87.741021
 20
100.183248
 30
0.0
 10
88.022155
 20
100.670185
 30
0.0
 10
88.022155
 20
101.197152
 30
0.0
  0
LWPOLYLINE
  5
1a7
100
AcDbEntity
  8
View002
 62
7
100
AcDbPolyline
 90
2
 70
0
 10
78.679154
 20
81.915152
 30
0.0
 10
78.679154
 20
86.665153
 30
0.0
  0
LWPOLYLINE
  5
1a8
100
AcDbEntity
  8
View002
 62
7
100
AcDbPolyline
 90
1
 70
1
 10
88.022155
 20
101.197152
 30
0.0
  0
LWPOLYLINE
  5
1a9
100
AcDbEntity
  8
View002
 62
7
100
AcDbPolyline
 90
2
 70
0
 10
87.872155
 20
13.322164
 30
0.0
 10
87.872155
 20
16.072164
 30
0.0
  0
LWPOLYLINE
  5
1aa
100
AcDbEntity
  8
View002
 62
7
100
AcDbPolyline
 90
2
 70
0
 10
85.122155
 20
13.322164
 30
0.0
 10
87.872155
 20
13.322164
 30
0.0
  0
LWPOLYLINE
  5
1ab
100
AcDbEntity
  8
View002
 62
7
100
AcDbPolyline
 90
2
 70
0
 10
85.122155
 20
16.072164
 30
0.0
 10
85.122155
 20
13.322164
 30
0.0
  0
LWPOLYLINE
  5
1ac
100
AcDbEntity
  8
View002
 62
7
100
AcDbPolyline
 90
2
 70
0
 10
87.872155
 20
16.072164
 30
0.0
 10
85.122155
 20
16.072164
 30
0.0
  0
LWPOLYLINE
  5
1ad
100
AcDbEntity
  8
View002
 62
7
100
AcDbPolyline
 90
2
 70
0
 10
14.872153
 20
13.322164
 30
0.0
 10
14.872153
 20
16.072164
 30
0.0
  0
LWPOLYLINE
  5
1ae
100
AcDbEntity
  8
View002
 62
7
100
AcDbPolyline
 90
2
 70
0
 10
12.122153
 20
13.322164
 30
0.0
 10
14.872153
 20
13.322164
 30
0.0
  0
LWPOLYLINE
  5
1af
100
AcDbEntity
  8
View002
 62
7
100
AcDbPolyline
 90
2
 70
0
 10
12.122153
 20
16.072164
 30
0.0
 10
12.122153
 20
13.322164
 30
0.0
  0
LWPOLYLINE
  5
1b0
100
AcDbEntity
  8
View002
 62
7
100
AcDbPolyline
 90
2
 70
0
 10
14.872153
 20
16.072164
 30
0.0
 10
12.122153
 20
16.072164
 30
0.0
  0
SPLINE
  5
1b1
100
AcDbEntity
  8
View002
 62
7
100
AcDbSpline
 70
8
 71
3
 72
8
 73
4
 74
0
 40
0
 40
0
 40
0
 40
0
 40
1
 40
1
 40
1
 40
1
 10
19.922152
 20
125.197152
 30
0.0
 10
19.922367
 20
125.688535
 30
0.0
 10
19.660341
 20
126.142685
 30
0.0
 10
19.234826
 20
126.388439
 30
0.0
  0
SPLINE
  5
1b2
100
AcDbEntity
  8
View002
 62
7
100
AcDbSpline
 70
8
 71
3
 72
8
 73
4
 74
0
 40
0
 40
0
 40
0
 40
0
 40
1
 40
1
 40
1
 40
1
 10
19.234826
 20
126.388439
 30
0.0
 10
18.809311
 20
126.634193
 30
0.0
 10
18.284993
 20
126.634193
 30
0.0
 10
17.859478
 20
126.388439
 30
0.0
  0
SPLINE
  5
1b3
100
AcDbEntity
  8
View002
 62
7
100
AcDbSpline
 70
8
 71
3
 72
8
 73
4
 74
0
 40
0
 40
0
 40
0
 40
0
 40
1
 40
1
 40
1
 40
1
 10
17.859478
 20
126.388439
 30
0.0
 10
17.433963
 20
126.142685
 30
0.0
 10
17.171937
 20
125.688535
 30
0.0
 10
17.172152
 20
125.197152
 30
0.0
  0
SPLINE
  5
1b4
100
AcDbEntity
  8
View002
 62
7
100
AcDbSpline
 70
8
 71
3
 72
8
 73
4
 74
0
 40
0
 40
0
 40
0
 40
0
 40
1
 40
1
 40
1
 40
1
 10
17.172152
 20
125.197152
 30
0.0
 10
17.171937
 20
124.705768
 30
0.0
 10
17.433963
 20
124.251618
 30
0.0
 10
17.859478
 20
124.005864
 30
0.0
  0
SPLINE
  5
1b5
100
AcDbEntity
  8
View002
 62
7
100
AcDbSpline
 70
8
 71
3
 72
8
 73
4
 74
0
 40
0
 40
0
 40
0
 40
0
 40
1
 40
1
 40
1
 40
1
 10
17.859478
 20
124.005864
 30
0.0
 10
18.284993
 20
123.760110
 30
0.0
 10
18.809311
 20
123.760110
 30
0.0
 10
19.234826
 20
124.005864
 30
0.0
  0
SPLINE
  5
1b6
100
AcDbEntity
  8
View002
 62
7
100
AcDbSpline
 70
8
 71
3
 72
8
 73
4
 74
0
 40
0
 40
0
 40
0
 40
0
 40
1
 40
1
 40
1
 40
1
 10
19.234826
 20
124.005864
 30
0.0
 10
19.660341
 20
124.251618
 30
0.0
 10
19.922367
 20
124.705768
 30
0.0
 10
19.922152
 20
125.197152
 30
0.0
  0
LWPOLYLINE
  5
1b7
100
AcDbEntity
  8
View002
 62
7
100
AcDbPolyline
 90
4
 70
1
 10
51.372154
 20
129.072152
 30
0.0
 10
51.372154
 20
126.322152
 30
0.0
 10
48.622154
 20
126.322152
 30
0.0
 10
48.622154
 20
129.072152
 30
0.0
  0
SPLINE
  5
1b8
100
AcDbEntity
  8
View002
 62
7
100
AcDbSpline
 70
8
 71
3
 72
8
 73
4
 74
0
 40
0
 40
0
 40
0
 40
0
 40
1
 40
1
 40
1
 40
1
 10
20.022154
 20
101.197152
 30
0.0
 10
20.022154
 20
101.724119
 30
0.0
 10
19.741020
 20
102.211057
 30
0.0
 10
19.284654
 20
102.474540
 30
0.0
  0
SPLINE
  5
1b9
100
AcDbEntity
  8
View002
 62
7
100
AcDbSpline
 70
8
 71
3
 72
8
 73
4
 74
0
 40
0
 40
0
 40
0
 40
0
 40
1
 40
1
 40
1
 40
1
 10
19.284654
 20
102.474540
 30
0.0
 10
18.828287
 20
102.738023
 30
0.0
 10
18.266020
 20
102.738023
 30
0.0
 10
17.809653
 20
102.474540
 30
0.0
  0
SPLINE
  5
1ba
100
AcDbEntity
  8
View002
 62
7
100
AcDbSpline
 70
8
 71
3
 72
8
 73
4
 74
0
 40
0
 40
0
 40
0
 40
0
 40
1
 40
1
 40
1
 40
1
 10
17.809653
 20
102.474540
 30
0.0
 10
17.353286
 20
102.211057
 30
0.0
 10
17.072153
 20
101.724119
 30
0.0
 10
17.072153
 20
101.197152
 30
0.0
  0
SPLINE
  5
1bb
100
AcDbEntity
  8
View002
 62
7
100
AcDbSpline
 70
8
 71
3
 72
8
 73
4
 74
0
 40
0
 40
0
 40
0
 40
0
 40
1
 40
1
 40
1
 40
1
 10
17.072153
 20
101.197152
 30
0.0
 10
17.072153
 20
100.670185
 30
0.0
 10
17.353286
 20
100.183248
 30
0.0
 10
17.809653
 20
99.919764
 30
0.0
  0
SPLINE
  5
1bc
100
AcDbEntity
  8
View002
 62
7
100
AcDbSpline
 70
8
 71
3
 72
8
 73
4
 74
0
 40
0
 40
0
 40
0
 40
0
 40
1
 40
1
 40
1
 40
1
 10
17.809653
 20
99.919764
 30
0.0
 10
18.266020
 20
99.656281
 30
0.0
 10
18.828287
 20
99.656281
 30
0.0
 10
19.284654
 20
99.919764
 30
0.0
  0
SPLINE
  5
1bd
100
AcDbEntity
  8
View002
 62
7
100
AcDbSpline
 70
8
 71
3
 72
8
 73
4
 74
0
 40
0
 40
0
 40
0
 40
0
 40
1
 40
1
 40
1
 40
1
 10
19.284654
 20
99.919764
 30
0.0
 10
19.741020
 20
100.183248
 30
0.0
 10
20.022154
 20
100.670185
 30
0.0
 10
20.022154
 20
101.197152
 30
0.0
  0
LWPOLYLINE
  5
1be
100
AcDbEntity
  8
View002
 62
7
100
AcDbPolyline
 90
1
 70
1
 10
19.922152
 20
125.197152
 30
0.0
  0
LWPOLYLINE
  5
1bf
100
AcDbEntity
  8
View002
 62
7
100
AcDbPolyline
 90
1
 70
1
 10
20.022154
 20
101.197152
 30
0.0
  0
LWPOLYLINE
  5
1c0
100
AcDbEntity
  8
View002
 62
7
100
AcDbPolyline
 90
2
 70
0
 10
31.349154
 20
46.321153
 30
0.0
 10
26.599155
 20
46.321153
 30
0.0
  0
LWPOLYLINE
  5
1c1
100
AcDbEntity
  8
View002
 62
7
100
AcDbPolyline
 90
2
 70
0
 10
31.349154
 20
41.571152
 30
0.0
 10
31.349154
 20
46.321153
 30
0.0
  0
LWPOLYLINE
  5
1c2
100
AcDbEntity
  8
View002
 62
7
100
AcDbPolyline
 90
2
 70
0
 10
26.599155
 20
41.571152
 30
0.0
 10
31.349154
 20
41.571152
 30
0.0
  0
LWPOLYLINE
  5
1c3
100
AcDbEntity
  8
View002
 62
7
100
AcDbPolyline
 90
2
 70
0
 10
26.599155
 20
46.321153
 30
0.0
 10
26.599155
 20
41.571152
 30
0.0
  0
LWPOLYLINE
  5
1c4
100
AcDbEntity
  8
View002
 62
7
100
AcDbPolyline
 90
2
 70
0
 10
41.168153
 20
36.821151
 30
0.0
 10
45.918154
 20
36.821151
 30
0.0
  0
LWPOLYLINE
  5
1c5
100
AcDbEntity
  8
View002
 62
7
100
AcDbPolyline
 90
2
 70
0
 10
41.168153
 20
41.571152
 30
0.0
 10
41.168153
 20
36.821151
 30
0.0
  0
SPLINE
  5
1c6
100
AcDbEntity
  8
View002
 62
7
100
AcDbSpline
 70
8
 71
3
 72
8
 73
4
 74
0
 40
0
 40
0
 40
0
 40
0
 40
1
 40
1
 40
1
 40
1
 10
45.918252
 20
39.513694
 30
0.0
 10
51.982209
 20
37.396658
 30
0.0
 10
58.657857
 20
40.270748
 30
0.0
 10
61.287473
 20
46.130657
 30
0.0
  0
SPLINE
  5
1c7
100
AcDbEntity
  8
View002
 62
7
100
AcDbSpline
 70
8
 71
3
 72
8
 73
4
 74
0
 40
0
 40
0
 40
0
 40
0
 40
1
 40
1
 40
1
 40
1
 10
61.287473
 20
46.130657
 30
0.0
 10
63.917089
 20
51.990566
 30
0.0
 10
61.626485
 20
58.888233
 30
0.0
 10
56.013859
 20
62.011027
 30
0.0
  0
SPLINE
  5
1c8
100
AcDbEntity
  8
View002
 62
7
100
AcDbSpline
 70
8
 71
3
 72
8
 73
4
 74
0
 40
0
 40
0
 40
0
 40
0
 40
1
 40
1
 40
1
 40
1
 10
56.013859
 20
62.011027
 30
0.0
 10
50.401233
 20
65.133821
 30
0.0
 10
43.332440
 20
63.443604
 30
0.0
 10
39.739508
 20
58.119672
 30
0.0
  0
SPLINE
  5
1c9
100
AcDbEntity
  8
View002
 62
7
100
AcDbSpline
 70
8
 71
3
 72
8
 73
4
 74
0
 40
0
 40
0
 40
0
 40
0
 40
1
 40
1
 40
1
 40
1
 10
39.739508
 20
58.119672
 30
0.0
 10
36.146576
 20
52.795740
 30
0.0
 10
37.223936
 20
45.607975
 30
0.0
 10
42.219893
 20
41.571414
 30
0.0
  0
LWPOLYLINE
  5
1ca
100
AcDbEntity
  8
View002
 62
7
100
AcDbPolyline
 90
2
 70
0
 10
42.220155
 20
41.571152
 30
0.0
 10
41.168153
 20
41.571152
 30
0.0
  0
SPLINE
  5
1cb
100
AcDbEntity
  8
View002
 62
7
100
AcDbSpline
 70
8
 71
3
 72
8
 73
4
 74
0
 40
0
 40
0
 40
0
 40
0
 40
1
 40
1
 40
1
 40
1
 10
13.872152
 20
73.197152
 30
0.0
 10
13.872152
 20
73.867026
 30
0.0
 10
13.514779
 20
74.486014
 30
0.0
 10
12.934652
 20
74.820950
 30
0.0
  0
SPLINE
  5
1cc
100
AcDbEntity
  8
View002
 62
7
100
AcDbSpline
 70
8
 71
3
 72
8
 73
4
 74
0
 40
0
 40
0
 40
0
 40
0
 40
1
 40
1
 40
1
 40
1
 10
12.934652
 20
74.820950
 30
0.0
 10
12.354525
 20
75.155887
 30
0.0
 10
11.639779
 20
75.155887
 30
0.0
 10
11.059652
 20
74.820950
 30
0.0
  0
SPLINE
  5
1cd
100
AcDbEntity
  8
View002
 62
7
100
AcDbSpline
 70
8
 71
3
 72
8
 73
4
 74
0
 40
0
 40
0
 40
0
 40
0
 40
1
 40
1
 40
1
 40
1
 10
11.059652
 20
74.820950
 30
0.0
 10
10.479525
 20
74.486014
 30
0.0
 10
10.122152
 20
73.867026
 30
0.0
 10
10.122152
 20
73.197152
 30
0.0
  0
SPLINE
  5
1ce
100
AcDbEntity
  8
View002
 62
7
100
AcDbSpline
 70
8
 71
3
 72
8
 73
4
 74
0
 40
0
 40
0
 40
0
 40
0
 40
1
 40
1
 40
1
 40
1
 10
10.122152
 20
73.197152
 30
0.0
 10
10.122152
 20
72.527279
 30
0.0
 10
10.479525
 20
71.908291
 30
0.0
 10
11.059652
 20
71.573355
 30
0.0
  0
SPLINE
  5
1cf
100
AcDbEntity
  8
View002
 62
7
100
AcDbSpline
 70
8
 71
3
 72
8
 73
4
 74
0
 40
0
 40
0
 40
0
 40
0
 40
1
 40
1
 40
1
 40
1
 10
11.059652
 20
71.573355
 30
0.0
 10
11.639779
 20
71.238418
 30
0.0
 10
12.354525
 20
71.238418
 30
0.0
 10
12.934652
 20
71.573355
 30
0.0
  0
SPLINE
  5
1d0
100
AcDbEntity
  8
View002
 62
7
100
AcDbSpline
 70
8
 71
3
 72
8
 73
4
 74
0
 40
0
 40
0
 40
0
 40
0
 40
1
 40
1
 40
1
 40
1
 10
12.934652
 20
71.573355
 30
0.0
 10
13.514779
 20
71.908291
 30
0.0
 10
13.872152
 20
72.527279
 30
0.0
 10
13.872152
 20
73.197152
 30
0.0
  0
LWPOLYLINE
  5
1d1
100
AcDbEntity
  8
View002
 62
7
100
AcDbPolyline
 90
2
 70
0
 10
45.918154
 20
36.821151
 30
0.0
 10
45.918154
 20
39.513152
 30
0.0
  0
LWPOLYLINE
  5
1d2
100
AcDbEntity
  8
View002
 62
7
100
AcDbPolyline
 90
1
 70
1
 10
13.872152
 20
73.197152
 30
0.0
  0
LWPOLYLINE
  5
1d3
100
AcDbEntity
  8
View002
 62
7
100
AcDbPolyline
 90
2
 70
0
 10
26.599155
 20
61.571152
 30
0.0
 10
31.349154
 20
61.571152
 30
0.0
  0
LWPOLYLINE
  5
1d4
100
AcDbEntity
  8
View002
 62
7
100
AcDbPolyline
 90
2
 70
0
 10
26.599155
 20
66.321153
 30
0.0
 10
26.599155
 20
61.571152
 30
0.0
  0
LWPOLYLINE
  5
1d5
100
AcDbEntity
  8
View002
 62
7
100
AcDbPolyline
 90
2
 70
0
 10
31.349154
 20
66.321153
 30
0.0
 10
26.599155
 20
66.321153
 30
0.0
  0
LWPOLYLINE
  5
1d6
100
AcDbEntity
  8
View002
 62
7
100
AcDbPolyline
 90
2
 70
0
 10
31.349154
 20
61.571152
 30
0.0
 10
31.349154
 20
66.321153
 30
0.0
  0
LWPOLYLINE
  5
1d7
100
AcDbEntity
  8
View002
 62
7
100
AcDbPolyline
 90
2
 70
0
 10
26.599155
 20
81.571151
 30
0.0
 10
31.349154
 20
81.571151
 30
0.0
  0
LWPOLYLINE
  5
1d8
100
AcDbEntity
  8
View002
 62
7
100
AcDbPolyline
 90
2
 70
0
 10
26.599155
 20
86.321153
 30
0.0
 10
26.599155
 20
81.571151
 30
0.0
  0
LWPOLYLINE
  5
1d9
100
AcDbEntity
  8
View002
 62
7
100
AcDbPolyline
 90
2
 70
0
 10
31.349154
 20
86.321153
 30
0.0
 10
26.599155
 20
86.321153
 30
0.0
  0
LWPOLYLINE
  5
1da
100
AcDbEntity
  8
View002
 62
7
100
AcDbPolyline
 90
2
 70
0
 10
31.349154
 20
81.571151
 30
0.0
 10
31.349154
 20
86.321153
 30
0.0
  0
LWPOLYLINE
  5
1db
100
AcDbEntity
  8
View002
 62
7
100
AcDbPolyline
 90
2
 70
0
 10
85.122155
 20
78.822152
 30
0.0
 10
87.872155
 20
78.822152
 30
0.0
  0
LWPOLYLINE
  5
1dc
100
AcDbEntity
  8
View002
 62
7
100
AcDbPolyline
 90
2
 70
0
 10
85.122155
 20
81.572152
 30
0.0
 10
85.122155
 20
78.822152
 30
0.0
  0
LWPOLYLINE
  5
1dd
100
AcDbEntity
  8
View002
 62
7
100
AcDbPolyline
 90
2
 70
0
 10
87.872155
 20
81.572152
 30
0.0
 10
85.122155
 20
81.572152
 30
0.0
  0
LWPOLYLINE
  5
1de
100
AcDbEntity
  8
View002
 62
7
100
AcDbPolyline
 90
2
 70
0
 10
87.872155
 20
78.822152
 30
0.0
 10
87.872155
 20
81.572152
 30
0.0
  0
LWPOLYLINE
  5
1df
100
AcDbEntity
  8
View002
 62
7
100
AcDbPolyline
 90
2
 70
0
 10
73.929155
 20
66.665154
 30
0.0
 10
73.929155
 20
61.915152
 30
0.0
  0
LWPOLYLINE
  5
1e0
100
AcDbEntity
  8
View002
 62
7
100
AcDbPolyline
 90
2
 70
0
 10
78.679154
 20
66.665154
 30
0.0
 10
73.929155
 20
66.665154
 30
0.0
  0
LWPOLYLINE
  5
1e1
100
AcDbEntity
  8
View002
 62
7
100
AcDbPolyline
 90
2
 70
0
 10
78.679154
 20
61.915152
 30
0.0
 10
78.679154
 20
66.665154
 30
0.0
  0
LWPOLYLINE
  5
1e2
100
AcDbEntity
  8
View002
 62
7
100
AcDbPolyline
 90
2
 70
0
 10
73.929155
 20
61.915152
 30
0.0
 10
78.679154
 20
61.915152
 30
0.0
  0
LWPOLYLINE
  5
1e3
100
AcDbEntity
  8
View002
 62
7
100
AcDbPolyline
 90
2
 70
0
 10
78.679154
 20
46.665151
 30
0.0
 10
73.929155
 20
46.665151
 30
0.0
  0
LWPOLYLINE
  5
1e4
100
AcDbEntity
  8
View002
 62
7
100
AcDbPolyline
 90
2
 70
0
 10
78.679154
 20
41.915153
 30
0.0
 10
78.679154
 20
46.665151
 30
0.0
  0
LWPOLYLINE
  5
1e5
100
AcDbEntity
  8
View002
 62
7
100
AcDbPolyline
 90
2
 70
0
 10
73.929155
 20
41.915153
 30
0.0
 10
78.679154
 20
41.915153
 30
0.0
  0
SPLINE
  5
1e6
100
AcDbEntity
  8
View002
 62
7
100
AcDbSpline
 70
8
 71
3
 72
8
 73
4
 74
0
 40
0
 40
0
 40
0
 40
0
 40
1
 40
1
 40
1
 40
1
 10
87.922156
 20
125.197152
 30
0.0
 10
87.922156
 20
125.688392
 30
0.0
 10
87.660082
 20
126.142316
 30
0.0
 10
87.234656
 20
126.387937
 30
0.0
  0
SPLINE
  5
1e7
100
AcDbEntity
  8
View002
 62
7
100
AcDbSpline
 70
8
 71
3
 72
8
 73
4
 74
0
 40
0
 40
0
 40
0
 40
0
 40
1
 40
1
 40
1
 40
1
 10
87.234656
 20
126.387937
 30
0.0
 10
86.809229
 20
126.633557
 30
0.0
 10
86.285082
 20
126.633557
 30
0.0
 10
85.859656
 20
126.387937
 30
0.0
  0
SPLINE
  5
1e8
100
AcDbEntity
  8
View002
 62
7
100
AcDbSpline
 70
8
 71
3
 72
8
 73
4
 74
0
 40
0
 40
0
 40
0
 40
0
 40
1
 40
1
 40
1
 40
1
 10
85.859656
 20
126.387937
 30
0.0
 10
85.434229
 20
126.142316
 30
0.0
 10
85.172156
 20
125.688392
 30
0.0
 10
85.172156
 20
125.197152
 30
0.0
  0
SPLINE
  5
1e9
100
AcDbEntity
  8
View002
 62
7
100
AcDbSpline
 70
8
 71
3
 72
8
 73
4
 74
0
 40
0
 40
0
 40
0
 40
0
 40
1
 40
1
 40
1
 40
1
 10
85.172156
 20
125.197152
 30
0.0
 10
85.172156
 20
124.705912
 30
0.0
 10
85.434229
 20
124.251987
 30
0.0
 10
85.859656
 20
124.006367
 30
0.0
  0
SPLINE
  5
1ea
100
AcDbEntity
  8
View002
 62
7
100
AcDbSpline
 70
8
 71
3
 72
8
 73
4
 74
0
 40
0
 40
0
 40
0
 40
0
 40
1
 40
1
 40
1
 40
1
 10
85.859656
 20
124.006367
 30
0.0
 10
86.285082
 20
123.760747
 30
0.0
 10
86.809229
 20
123.760747
 30
0.0
 10
87.234656
 20
124.006367
 30
0.0
  0
SPLINE
  5
1eb
100
AcDbEntity
  8
View002
 62
7
100
AcDbSpline
 70
8
 71
3
 72
8
 73
4
 74
0
 40
0
 40
0
 40
0
 40
0
 40
1
 40
1
 40
1
 40
1
 10
87.234656
 20
124.006367
 30
0.0
 10
87.660082
 20
124.251987
 30
0.0
 10
87.922156
 20
124.705912
 30
0.0
 10
87.922156
 20
125.197152
 30
0.0
  0
LWPOLYLINE
  5
1ec
100
AcDbEntity
  8
View002
 62
7
100
AcDbPolyline
 90
2
 70
0
 10
73.929155
 20
46.665151
 30
0.0
 10
73.929155
 20
41.915153
 30
0.0
  0
SPLINE
  5
1ed
100
AcDbEntity
  8
View002
 62
7
100
AcDbSpline
 70
8
 71
3
 72
8
 73
4
 74
0
 40
0
 40
0
 40
0
 40
0
 40
1
 40
1
 40
1
 40
1
 10
89.872156
 20
73.197152
 30
0.0
 10
89.872156
 20
73.867026
 30
0.0
 10
89.514783
 20
74.486014
 30
0.0
 10
88.934656
 20
74.820950
 30
0.0
  0
SPLINE
  5
1ee
100
AcDbEntity
  8
View002
 62
7
100
AcDbSpline
 70
8
 71
3
 72
8
 73
4
 74
0
 40
0
 40
0
 40
0
 40
0
 40
1
 40
1
 40
1
 40
1
 10
88.934656
 20
74.820950
 30
0.0
 10
88.354529
 20
75.155887
 30
0.0
 10
87.639783
 20
75.155887
 30
0.0
 10
87.059656
 20
74.820950
 30
0.0
  0
SPLINE
  5
1ef
100
AcDbEntity
  8
View002
 62
7
100
AcDbSpline
 70
8
 71
3
 72
8
 73
4
 74
0
 40
0
 40
0
 40
0
 40
0
 40
1
 40
1
 40
1
 40
1
 10
87.059656
 20
74.820950
 30
0.0
 10
86.479528
 20
74.486014
 30
0.0
 10
86.122155
 20
73.867026
 30
0.0
 10
86.122155
 20
73.197152
 30
0.0
  0
SPLINE
  5
1f0
100
AcDbEntity
  8
View002
 62
7
100
AcDbSpline
 70
8
 71
3
 72
8
 73
4
 74
0
 40
0
 40
0
 40
0
 40
0
 40
1
 40
1
 40
1
 40
1
 10
86.122155
 20
73.197152
 30
0.0
 10
86.122155
 20
72.527279
 30
0.0
 10
86.479528
 20
71.908291
 30
0.0
 10
87.059656
 20
71.573355
 30
0.0
  0
SPLINE
  5
1f1
100
AcDbEntity
  8
View002
 62
7
100
AcDbSpline
 70
8
 71
3
 72
8
 73
4
 74
0
 40
0
 40
0
 40
0
 40
0
 40
1
 40
1
 40
1
 40
1
 10
87.059656
 20
71.573355
 30
0.0
 10
87.639783
 20
71.238418
 30
0.0
 10
88.354529
 20
71.238418
 30
0.0
 10
88.934656
 20
71.573355
 30
0.0
  0
SPLINE
  5
1f2
100
AcDbEntity
  8
View002
 62
7
100
AcDbSpline
 70
8
 71
3
 72
8
 73
4
 74
0
 40
0
 40
0
 40
0
 40
0
 40
1
 40
1
 40
1
 40
1
 10
88.934656
 20
71.573355
 30
0.0
 10
89.514783
 20
71.908291
 30
0.0
 10
89.872156
 20
72.527279
 30
0.0
 10
89.872156
 20
73.197152
 30
0.0
  0
LWPOLYLINE
  5
1f3
100
AcDbEntity
  8
View002
 62
7
100
AcDbPolyline
 90
1
 70
1
 10
87.922156
 20
125.197152
 30
0.0
  0
LWPOLYLINE
  5
1f4
100
AcDbEntity
  8
View002
 62
7
100
AcDbPolyline
 90
1
 70
1
 10
89.872156
 20
73.197152
 30
0.0
  0
LWPOLYLINE
  5
1f5
100
AcDbEntity
  8
OLED_stand_L_002_contour
 62
7
100
AcDbPolyline
 90
2
 70
0
 10
195.522353
 20
116.705659
 30
0.0
 10
195.522353
 20
119.455659
 30
0.0
  0
LWPOLYLINE
  5
1f6
100
AcDbEntity
  8
OLED_stand_L_002_contour
 62
7
100
AcDbPolyline
 90
2
 70
0
 10
190.772354
 20
116.705659
 30
0.0
 10
195.522353
 20
116.705659
 30
0.0
  0
LWPOLYLINE
  5
1f7
100
AcDbEntity
  8
OLED_stand_L_002_contour
 62
7
100
AcDbPolyline
 90
2
 70
0
 10
190.772354
 20
119.455659
 30
0.0
 10
190.772354
 20
116.705659
 30
0.0
  0
LWPOLYLINE
  5
1f8
100
AcDbEntity
  8
OLED_stand_L_002_contour
 62
7
100
AcDbPolyline
 90
2
 70
0
 10
195.522353
 20
119.455659
 30
0.0
 10
190.772354
 20
119.455659
 30
0.0
  0
LWPOLYLINE
  5
1f9
100
AcDbEntity
  8
OLED_stand_L_002_contour
 62
7
100
AcDbPolyline
 90
4
 70
0
 10
182.772354
 20
85.705660
 30
0.0
 10
182.772354
 20
88.455660
 30
0.0
 10
187.522353
 20
88.455660
 30
0.0
 10
187.522353
 20
85.705660
 30
0.0
  0
LWPOLYLINE
  5
1fa
100
AcDbEntity
  8
OLED_stand_L_002_contour
 62
7
100
AcDbPolyline
 90
2
 70
0
 10
182.772354
 20
85.705660
 30
0.0
 10
187.522353
 20
85.705660
 30
0.0
  0
LWPOLYLINE
  5
1fb
100
AcDbEntity
  8
OLED_stand_L_002_contour
 62
7
100
AcDbPolyline
 90
2
 70
0
 10
181.522354
 20
116.705659
 30
0.0
 10
181.522354
 20
119.455659
 30
0.0
  0
LWPOLYLINE
  5
1fc
100
AcDbEntity
  8
OLED_stand_L_002_contour
 62
7
100
AcDbPolyline
 90
2
 70
0
 10
175.772352
 20
116.705659
 30
0.0
 10
181.522354
 20
116.705659
 30
0.0
  0
LWPOLYLINE
  5
1fd
100
AcDbEntity
  8
OLED_stand_L_002_contour
 62
7
100
AcDbPolyline
 90
2
 70
0
 10
175.772352
 20
119.455659
 30
0.0
 10
175.772352
 20
116.705659
 30
0.0
  0
LWPOLYLINE
  5
1fe
100
AcDbEntity
  8
OLED_stand_L_002_contour
 62
7
100
AcDbPolyline
 90
2
 70
0
 10
181.522354
 20
119.455659
 30
0.0
 10
175.772352
 20
119.455659
 30
0.0
  0
LWPOLYLINE
  5
1ff
100
AcDbEntity
  8
OLED_stand_L_002_contour
 62
7
100
AcDbPolyline
 90
13
 70
0
 10
203.772352
 20
147.073661
 30
0.0
 10
203.772352
 20
150.080661
 30
0.0
 10
203.772352
 20
152.205660
 30
0.0
 10
200.522353
 20
152.205660
 30
0.0
 10
200.522353
 20
150.205661
 30
0.0
 10
186.272353
 20
150.205661
 30
0.0
 10
186.272353
 20
145.205660
 30
0.0
 10
183.522353
 20
145.205660
 30
0.0
 10
183.522353
 20
150.205661
 30
0.0
 10
169.272357
 20
150.205661
 30
0.0
 10
169.272357
 20
152.205660
 30
0.0
 10
166.022348
 20
152.205660
 30
0.0
 10
166.022348
 20
150.080661
 30
0.0
  0
LWPOLYLINE
  5
200
100
AcDbEntity
  8
OLED_stand_L_002_contour
 62
7
100
AcDbPolyline
 90
2
 70
0
 10
166.022348
 20
148.071661
 30
0.0
 10
166.022348
 20
150.080661
 30
0.0
  0
LWPOLYLINE
  5
201
100
AcDbEntity
  8
OLED_stand_L_002_contour
 62
7
100
AcDbPolyline
 90
2
 70
0
 10
170.522355
 20
118.571660
 30
0.0
 10
166.022348
 20
148.071661
 30
0.0
  0
LWPOLYLINE
  5
202
100
AcDbEntity
  8
OLED_stand_L_002_contour
 62
7
100
AcDbPolyline
 90
9
 70
0
 10
170.522355
 20
118.571660
 30
0.0
 10
170.522355
 20
88.455660
 30
0.0
 10
175.522353
 20
88.455660
 30
0.0
 10
175.522353
 20
85.705660
 30
0.0
 10
170.522355
 20
85.705660
 30
0.0
 10
170.522355
 20
82.455659
 30
0.0
 10
200.772353
 20
82.455659
 30
0.0
 10
200.772353
 20
85.705660
 30
0.0
 10
192.772353
 20
85.705660
 30
0.0
  0
LWPOLYLINE
  5
203
100
AcDbEntity
  8
OLED_stand_L_002_contour
 62
7
100
AcDbPolyline
 90
2
 70
0
 10
200.772353
 20
118.573660
 30
0.0
 10
203.772352
 20
147.073661
 30
0.0
  0
LWPOLYLINE
  5
204
100
AcDbEntity
  8
OLED_stand_L_002_contour
 62
7
100
AcDbPolyline
 90
2
 70
0
 10
192.772353
 20
88.455660
 30
0.0
 10
192.772353
 20
85.705660
 30
0.0
  0
LWPOLYLINE
  5
205
100
AcDbEntity
  8
OLED_stand_L_002_contour
 62
7
100
AcDbPolyline
 90
2
 70
0
 10
200.772353
 20
88.455660
 30
0.0
 10
200.772353
 20
118.573660
 30
0.0
  0
LWPOLYLINE
  5
206
100
AcDbEntity
  8
OLED_stand_L_002_contour
 62
7
100
AcDbPolyline
 90
2
 70
0
 10
200.772353
 20
88.455660
 30
0.0
 10
192.772353
 20
88.455660
 30
0.0
  0
LWPOLYLINE
  5
207
100
AcDbEntity
  8
OLED_stand_beam_contour
 62
7
100
AcDbPolyline
 90
2
 70
0
 10
150.045394
 20
6.572167
 30
0.0
 10
160.170389
 20
6.572167
 30
0.0
  0
LWPOLYLINE
  5
208
100
AcDbEntity
  8
OLED_stand_beam_contour
 62
7
100
AcDbPolyline
 90
2
 70
0
 10
150.045394
 20
9.822150
 30
0.0
 10
150.045394
 20
6.572167
 30
0.0
  0
LWPOLYLINE
  5
209
100
AcDbEntity
  8
OLED_stand_beam_contour
 62
7
100
AcDbPolyline
 90
2
 70
0
 10
155.045384
 20
9.822150
 30
0.0
 10
150.045394
 20
9.822150
 30
0.0
  0
LWPOLYLINE
  5
20a
100
AcDbEntity
  8
OLED_stand_beam_contour
 62
7
100
AcDbPolyline
 90
2
 70
0
 10
155.045384
 20
12.572149
 30
0.0
 10
155.045384
 20
9.822150
 30
0.0
  0
LWPOLYLINE
  5
20b
100
AcDbEntity
  8
OLED_stand_beam_contour
 62
7
100
AcDbPolyline
 90
2
 70
0
 10
150.045394
 20
12.572149
 30
0.0
 10
155.045384
 20
12.572149
 30
0.0
  0
LWPOLYLINE
  5
20c
100
AcDbEntity
  8
OLED_stand_beam_contour
 62
7
100
AcDbPolyline
 90
2
 70
0
 10
150.045394
 20
28.822170
 30
0.0
 10
150.045394
 20
12.572149
 30
0.0
  0
LWPOLYLINE
  5
20d
100
AcDbEntity
  8
OLED_stand_beam_contour
 62
7
100
AcDbPolyline
 90
2
 70
0
 10
153.045398
 20
28.822170
 30
0.0
 10
150.045394
 20
28.822170
 30
0.0
  0
LWPOLYLINE
  5
20e
100
AcDbEntity
  8
OLED_stand_beam_contour
 62
7
100
AcDbPolyline
 90
2
 70
0
 10
153.045398
 20
78.572158
 30
0.0
 10
153.045398
 20
28.822170
 30
0.0
  0
LWPOLYLINE
  5
20f
100
AcDbEntity
  8
OLED_stand_beam_contour
 62
7
100
AcDbPolyline
 90
2
 70
0
 10
150.045394
 20
78.572158
 30
0.0
 10
153.045398
 20
78.572158
 30
0.0
  0
LWPOLYLINE
  5
210
100
AcDbEntity
  8
OLED_stand_beam_contour
 62
7
100
AcDbPolyline
 90
14
 70
0
 10
150.045394
 20
78.572158
 30
0.0
 10
150.045394
 20
98.822157
 30
0.0
 10
155.045384
 20
98.822157
 30
0.0
 10
155.045384
 20
101.572157
 30
0.0
 10
150.045394
 20
101.572157
 30
0.0
 10
150.045394
 20
104.822158
 30
0.0
 10
160.170389
 20
104.822158
 30
0.0
 10
163.295383
 20
104.822158
 30
0.0
 10
163.295383
 20
101.572157
 30
0.0
 10
160.295405
 20
101.572157
 30
0.0
 10
160.295405
 20
9.822150
 30
0.0
 10
163.295383
 20
9.822150
 30
0.0
 10
163.295383
 20
6.572167
 30
0.0
 10
160.170389
 20
6.572167
 30
0.0
  0
LWPOLYLINE
  5
211
100
AcDbEntity
  8
Base_pole_001_contour
 62
7
100
AcDbPolyline
 90
2
 70
0
 10
185.250209
 20
160.680399
 30
0.0
 10
182.250210
 20
160.680399
 30
0.0
  0
LWPOLYLINE
  5
212
100
AcDbEntity
  8
Base_pole_001_contour
 62
7
100
AcDbPolyline
 90
10
 70
0
 10
185.250209
 20
160.680399
 30
0.0
 10
188.375211
 20
160.680399
 30
0.0
 10
188.375211
 20
168.930599
 30
0.0
 10
185.375209
 20
168.930599
 30
0.0
 10
185.375209
 20
171.930598
 30
0.0
 10
182.125210
 20
171.930598
 30
0.0
 10
182.125210
 20
168.930599
 30
0.0
 10
179.125211
 20
168.930599
 30
0.0
 10
179.125211
 20
160.680399
 30
0.0
 10
182.250210
 20
160.680399
 30
0.0
  0
LWPOLYLINE
  5
213
100
AcDbEntity
  8
Base_pole_003_contour
 62
7
100
AcDbPolyline
 90
2
 70
0
 10
185.449530
 20
189.619526
 30
0.0
 10
182.449531
 20
189.619526
 30
0.0
  0
LWPOLYLINE
  5
214
100
AcDbEntity
  8
Base_pole_003_contour
 62
7
100
AcDbPolyline
 90
10
 70
0
 10
185.449530
 20
189.619526
 30
0.0
 10
188.574532
 20
189.619526
 30
0.0
 10
188.574532
 20
181.369527
 30
0.0
 10
185.574533
 20
181.369527
 30
0.0
 10
185.574533
 20
178.369525
 30
0.0
 10
182.324531
 20
178.369525
 30
0.0
 10
182.324531
 20
181.369527
 30
0.0
 10
179.324532
 20
181.369527
 30
0.0
 10
179.324532
 20
189.619526
 30
0.0
 10
182.449531
 20
189.619526
 30
0.0
  0
LWPOLYLINE
  5
215
100
AcDbEntity
  8
Reader_mount_002_contour
 62
7
100
AcDbPolyline
 90
2
 70
0
 10
140.035722
 20
68.055155
 30
0.0
 10
139.992722
 20
68.397156
 30
0.0
  0
LWPOLYLINE
  5
216
100
AcDbEntity
  8
Reader_mount_002_contour
 62
7
100
AcDbPolyline
 90
2
 70
0
 10
140.162722
 20
67.734155
 30
0.0
 10
140.035722
 20
68.055155
 30
0.0
  0
LWPOLYLINE
  5
217
100
AcDbEntity
  8
Reader_mount_002_contour
 62
7
100
AcDbPolyline
 90
2
 70
0
 10
140.365723
 20
67.455157
 30
0.0
 10
140.162722
 20
67.734155
 30
0.0
  0
LWPOLYLINE
  5
218
100
AcDbEntity
  8
Reader_mount_002_contour
 62
7
100
AcDbPolyline
 90
2
 70
0
 10
140.630722
 20
67.236156
 30
0.0
 10
140.365723
 20
67.455157
 30
0.0
  0
LWPOLYLINE
  5
219
100
AcDbEntity
  8
Reader_mount_002_contour
 62
7
100
AcDbPolyline
 90
2
 70
0
 10
140.942721
 20
67.089156
 30
0.0
 10
140.630722
 20
67.236156
 30
0.0
  0
LWPOLYLINE
  5
21a
100
AcDbEntity
  8
Reader_mount_002_contour
 62
7
100
AcDbPolyline
 90
2
 70
0
 10
141.281724
 20
67.024156
 30
0.0
 10
140.942721
 20
67.089156
 30
0.0
  0
LWPOLYLINE
  5
21b
100
AcDbEntity
  8
Reader_mount_002_contour
 62
7
100
AcDbPolyline
 90
2
 70
0
 10
141.625722
 20
67.046156
 30
0.0
 10
141.281724
 20
67.024143
 30
0.0
  0
LWPOLYLINE
  5
21c
100
AcDbEntity
  8
Reader_mount_002_contour
 62
7
100
AcDbPolyline
 90
2
 70
0
 10
141.952723
 20
67.152156
 30
0.0
 10
141.625722
 20
67.046156
 30
0.0
  0
LWPOLYLINE
  5
21d
100
AcDbEntity
  8
Reader_mount_002_contour
 62
7
100
AcDbPolyline
 90
2
 70
0
 10
142.243723
 20
67.337156
 30
0.0
 10
141.952723
 20
67.152156
 30
0.0
  0
LWPOLYLINE
  5
21e
100
AcDbEntity
  8
Reader_mount_002_contour
 62
7
100
AcDbPolyline
 90
2
 70
0
 10
142.479723
 20
67.588155
 30
0.0
 10
142.243723
 20
67.337156
 30
0.0
  0
LWPOLYLINE
  5
21f
100
AcDbEntity
  8
Reader_mount_002_contour
 62
7
100
AcDbPolyline
 90
2
 70
0
 10
142.645723
 20
67.890156
 30
0.0
 10
142.479723
 20
67.588155
 30
0.0
  0
LWPOLYLINE
  5
220
100
AcDbEntity
  8
Reader_mount_002_contour
 62
7
100
AcDbPolyline
 90
2
 70
0
 10
142.731723
 20
68.224155
 30
0.0
 10
142.645723
 20
67.890156
 30
0.0
  0
LWPOLYLINE
  5
221
100
AcDbEntity
  8
Reader_mount_002_contour
 62
7
100
AcDbPolyline
 90
2
 70
0
 10
142.731723
 20
68.569156
 30
0.0
 10
142.731723
 20
68.224155
 30
0.0
  0
LWPOLYLINE
  5
222
100
AcDbEntity
  8
Reader_mount_002_contour
 62
7
100
AcDbPolyline
 90
2
 70
0
 10
142.645723
 20
68.903155
 30
0.0
 10
142.731723
 20
68.569156
 30
0.0
  0
LWPOLYLINE
  5
223
100
AcDbEntity
  8
Reader_mount_002_contour
 62
7
100
AcDbPolyline
 90
2
 70
0
 10
142.479723
 20
69.205156
 30
0.0
 10
142.645723
 20
68.903155
 30
0.0
  0
LWPOLYLINE
  5
224
100
AcDbEntity
  8
Reader_mount_002_contour
 62
7
100
AcDbPolyline
 90
2
 70
0
 10
142.243723
 20
69.456156
 30
0.0
 10
142.479723
 20
69.205156
 30
0.0
  0
LWPOLYLINE
  5
225
100
AcDbEntity
  8
Reader_mount_002_contour
 62
7
100
AcDbPolyline
 90
2
 70
0
 10
141.952723
 20
69.641155
 30
0.0
 10
142.243723
 20
69.456156
 30
0.0
  0
LWPOLYLINE
  5
226
100
AcDbEntity
  8
Reader_mount_002_contour
 62
7
100
AcDbPolyline
 90
2
 70
0
 10
141.625722
 20
69.747155
 30
0.0
 10
141.952723
 20
69.641155
 30
0.0
  0
LWPOLYLINE
  5
227
100
AcDbEntity
  8
Reader_mount_002_contour
 62
7
100
AcDbPolyline
 90
2
 70
0
 10
141.281724
 20
69.769155
 30
0.0
 10
141.625722
 20
69.747142
 30
0.0
  0
LWPOLYLINE
  5
228
100
AcDbEntity
  8
Reader_mount_002_contour
 62
7
100
AcDbPolyline
 90
2
 70
0
 10
140.942721
 20
69.704155
 30
0.0
 10
141.281724
 20
69.769155
 30
0.0
  0
LWPOLYLINE
  5
229
100
AcDbEntity
  8
Reader_mount_002_contour
 62
7
100
AcDbPolyline
 90
2
 70
0
 10
140.630722
 20
69.558155
 30
0.0
 10
140.942721
 20
69.704155
 30
0.0
  0
LWPOLYLINE
  5
22a
100
AcDbEntity
  8
Reader_mount_002_contour
 62
7
100
AcDbPolyline
 90
2
 70
0
 10
140.365723
 20
69.338157
 30
0.0
 10
140.630722
 20
69.558155
 30
0.0
  0
LWPOLYLINE
  5
22b
100
AcDbEntity
  8
Reader_mount_002_contour
 62
7
100
AcDbPolyline
 90
2
 70
0
 10
140.162722
 20
69.059156
 30
0.0
 10
140.365723
 20
69.338157
 30
0.0
  0
LWPOLYLINE
  5
22c
100
AcDbEntity
  8
Reader_mount_002_contour
 62
7
100
AcDbPolyline
 90
2
 70
0
 10
140.035722
 20
68.739156
 30
0.0
 10
140.162722
 20
69.059156
 30
0.0
  0
LWPOLYLINE
  5
22d
100
AcDbEntity
  8
Reader_mount_002_contour
 62
7
100
AcDbPolyline
 90
2
 70
0
 10
139.992722
 20
68.397156
 30
0.0
 10
140.035722
 20
68.739156
 30
0.0
  0
LWPOLYLINE
  5
22e
100
AcDbEntity
  8
Reader_mount_002_contour
 62
7
100
AcDbPolyline
 90
2
 70
0
 10
114.992724
 20
42.772157
 30
0.0
 10
114.992724
 20
40.022157
 30
0.0
  0
LWPOLYLINE
  5
22f
100
AcDbEntity
  8
Reader_mount_002_contour
 62
7
100
AcDbPolyline
 90
2
 70
0
 10
117.742724
 20
42.772157
 30
0.0
 10
114.992724
 20
42.772157
 30
0.0
  0
LWPOLYLINE
  5
230
100
AcDbEntity
  8
Reader_mount_002_contour
 62
7
100
AcDbPolyline
 90
2
 70
0
 10
117.742724
 20
40.022157
 30
0.0
 10
117.742724
 20
42.772157
 30
0.0
  0
LWPOLYLINE
  5
231
100
AcDbEntity
  8
Reader_mount_002_contour
 62
7
100
AcDbPolyline
 90
2
 70
0
 10
114.992724
 20
40.022157
 30
0.0
 10
117.742724
 20
40.022157
 30
0.0
  0
LWPOLYLINE
  5
232
100
AcDbEntity
  8
Reader_mount_002_contour
 62
7
100
AcDbPolyline
 90
2
 70
0
 10
140.035722
 20
41.055156
 30
0.0
 10
139.992722
 20
41.397157
 30
0.0
  0
LWPOLYLINE
  5
233
100
AcDbEntity
  8
Reader_mount_002_contour
 62
7
100
AcDbPolyline
 90
2
 70
0
 10
140.162722
 20
40.734156
 30
0.0
 10
140.035722
 20
41.055156
 30
0.0
  0
LWPOLYLINE
  5
234
100
AcDbEntity
  8
Reader_mount_002_contour
 62
7
100
AcDbPolyline
 90
2
 70
0
 10
140.365723
 20
40.455155
 30
0.0
 10
140.162722
 20
40.734156
 30
0.0
  0
LWPOLYLINE
  5
235
100
AcDbEntity
  8
Reader_mount_002_contour
 62
7
100
AcDbPolyline
 90
2
 70
0
 10
140.630722
 20
40.236157
 30
0.0
 10
140.365723
 20
40.455155
 30
0.0
  0
LWPOLYLINE
  5
236
100
AcDbEntity
  8
Reader_mount_002_contour
 62
7
100
AcDbPolyline
 90
2
 70
0
 10
140.942721
 20
40.089157
 30
0.0
 10
140.630722
 20
40.236157
 30
0.0
  0
LWPOLYLINE
  5
237
100
AcDbEntity
  8
Reader_mount_002_contour
 62
7
100
AcDbPolyline
 90
2
 70
0
 10
141.281724
 20
40.024157
 30
0.0
 10
140.942721
 20
40.089157
 30
0.0
  0
LWPOLYLINE
  5
238
100
AcDbEntity
  8
Reader_mount_002_contour
 62
7
100
AcDbPolyline
 90
2
 70
0
 10
141.625722
 20
40.046157
 30
0.0
 10
141.281724
 20
40.024144
 30
0.0
  0
LWPOLYLINE
  5
239
100
AcDbEntity
  8
Reader_mount_002_contour
 62
7
100
AcDbPolyline
 90
2
 70
0
 10
141.952723
 20
40.152157
 30
0.0
 10
141.625722
 20
40.046157
 30
0.0
  0
LWPOLYLINE
  5
23a
100
AcDbEntity
  8
Reader_mount_002_contour
 62
7
100
AcDbPolyline
 90
2
 70
0
 10
142.243723
 20
40.337157
 30
0.0
 10
141.952723
 20
40.152157
 30
0.0
  0
LWPOLYLINE
  5
23b
100
AcDbEntity
  8
Reader_mount_002_contour
 62
7
100
AcDbPolyline
 90
2
 70
0
 10
142.479723
 20
40.588156
 30
0.0
 10
142.243723
 20
40.337157
 30
0.0
  0
LWPOLYLINE
  5
23c
100
AcDbEntity
  8
Reader_mount_002_contour
 62
7
100
AcDbPolyline
 90
2
 70
0
 10
142.645723
 20
40.890157
 30
0.0
 10
142.479723
 20
40.588156
 30
0.0
  0
LWPOLYLINE
  5
23d
100
AcDbEntity
  8
Reader_mount_002_contour
 62
7
100
AcDbPolyline
 90
2
 70
0
 10
142.731723
 20
41.224156
 30
0.0
 10
142.645723
 20
40.890157
 30
0.0
  0
LWPOLYLINE
  5
23e
100
AcDbEntity
  8
Reader_mount_002_contour
 62
7
100
AcDbPolyline
 90
2
 70
0
 10
142.731723
 20
41.569157
 30
0.0
 10
142.731723
 20
41.224156
 30
0.0
  0
LWPOLYLINE
  5
23f
100
AcDbEntity
  8
Reader_mount_002_contour
 62
7
100
AcDbPolyline
 90
2
 70
0
 10
142.645723
 20
41.903157
 30
0.0
 10
142.731723
 20
41.569157
 30
0.0
  0
LWPOLYLINE
  5
240
100
AcDbEntity
  8
Reader_mount_002_contour
 62
7
100
AcDbPolyline
 90
2
 70
0
 10
142.479723
 20
42.205157
 30
0.0
 10
142.645723
 20
41.903157
 30
0.0
  0
LWPOLYLINE
  5
241
100
AcDbEntity
  8
Reader_mount_002_contour
 62
7
100
AcDbPolyline
 90
2
 70
0
 10
142.243723
 20
42.456157
 30
0.0
 10
142.479723
 20
42.205157
 30
0.0
  0
LWPOLYLINE
  5
242
100
AcDbEntity
  8
Reader_mount_002_contour
 62
7
100
AcDbPolyline
 90
2
 70
0
 10
141.952723
 20
42.641156
 30
0.0
 10
142.243723
 20
42.456157
 30
0.0
  0
LWPOLYLINE
  5
243
100
AcDbEntity
  8
Reader_mount_002_contour
 62
7
100
AcDbPolyline
 90
2
 70
0
 10
141.625722
 20
42.747156
 30
0.0
 10
141.952723
 20
42.641156
 30
0.0
  0
LWPOLYLINE
  5
244
100
AcDbEntity
  8
Reader_mount_002_contour
 62
7
100
AcDbPolyline
 90
2
 70
0
 10
141.281724
 20
42.769156
 30
0.0
 10
141.625722
 20
42.747169
 30
0.0
  0
LWPOLYLINE
  5
245
100
AcDbEntity
  8
Reader_mount_002_contour
 62
7
100
AcDbPolyline
 90
2
 70
0
 10
140.942721
 20
42.704156
 30
0.0
 10
141.281724
 20
42.769156
 30
0.0
  0
LWPOLYLINE
  5
246
100
AcDbEntity
  8
Reader_mount_002_contour
 62
7
100
AcDbPolyline
 90
2
 70
0
 10
140.630722
 20
42.558156
 30
0.0
 10
140.942721
 20
42.704156
 30
0.0
  0
LWPOLYLINE
  5
247
100
AcDbEntity
  8
Reader_mount_002_contour
 62
7
100
AcDbPolyline
 90
2
 70
0
 10
140.365723
 20
42.338155
 30
0.0
 10
140.630722
 20
42.558156
 30
0.0
  0
LWPOLYLINE
  5
248
100
AcDbEntity
  8
Reader_mount_002_contour
 62
7
100
AcDbPolyline
 90
2
 70
0
 10
140.162722
 20
42.059158
 30
0.0
 10
140.365723
 20
42.338155
 30
0.0
  0
LWPOLYLINE
  5
249
100
AcDbEntity
  8
Reader_mount_002_contour
 62
7
100
AcDbPolyline
 90
2
 70
0
 10
140.035722
 20
41.739157
 30
0.0
 10
140.162722
 20
42.059158
 30
0.0
  0
LWPOLYLINE
  5
24a
100
AcDbEntity
  8
Reader_mount_002_contour
 62
7
100
AcDbPolyline
 90
2
 70
0
 10
139.992722
 20
41.397157
 30
0.0
 10
140.035722
 20
41.739157
 30
0.0
  0
LWPOLYLINE
  5
24b
100
AcDbEntity
  8
Reader_mount_002_contour
 62
7
100
AcDbPolyline
 90
11
 70
0
 10
133.492724
 20
15.322149
 30
0.0
 10
133.492724
 20
27.645171
 30
0.0
 10
135.544721
 20
29.697173
 30
0.0
 10
133.492724
 20
31.748170
 30
0.0
 10
133.492724
 20
36.072155
 30
0.0
 10
141.242722
 20
36.072155
 30
0.0
 10
141.242722
 20
34.572156
 30
0.0
 10
143.492723
 20
34.572156
 30
0.0
 10
143.492723
 20
70.822155
 30
0.0
 10
137.492724
 20
70.822155
 30
0.0
 10
137.492724
 20
95.822155
 30
0.0
  0
LWPOLYLINE
  5
24c
100
AcDbEntity
  8
Reader_mount_002_contour
 62
7
100
AcDbPolyline
 90
2
 70
0
 10
132.492724
 20
95.822155
 30
0.0
 10
137.492724
 20
95.822155
 30
0.0
  0
LWPOLYLINE
  5
24d
100
AcDbEntity
  8
Reader_mount_002_contour
 62
7
100
AcDbPolyline
 90
2
 70
0
 10
132.492724
 20
98.822157
 30
0.0
 10
132.492724
 20
95.822155
 30
0.0
  0
LWPOLYLINE
  5
24e
100
AcDbEntity
  8
Reader_mount_002_contour
 62
7
100
AcDbPolyline
 90
2
 70
0
 10
127.242723
 20
98.822157
 30
0.0
 10
132.492724
 20
98.822157
 30
0.0
  0
LWPOLYLINE
  5
24f
100
AcDbEntity
  8
Reader_mount_002_contour
 62
7
100
AcDbPolyline
 90
2
 70
0
 10
127.242723
 20
95.822155
 30
0.0
 10
127.242723
 20
98.822157
 30
0.0
  0
LWPOLYLINE
  5
250
100
AcDbEntity
  8
Reader_mount_002_contour
 62
7
100
AcDbPolyline
 90
2
 70
0
 10
118.492722
 20
95.822155
 30
0.0
 10
127.242723
 20
95.822155
 30
0.0
  0
LWPOLYLINE
  5
251
100
AcDbEntity
  8
Reader_mount_002_contour
 62
7
100
AcDbPolyline
 90
2
 70
0
 10
118.492722
 20
98.822157
 30
0.0
 10
118.492722
 20
95.822155
 30
0.0
  0
LWPOLYLINE
  5
252
100
AcDbEntity
  8
Reader_mount_002_contour
 62
7
100
AcDbPolyline
 90
2
 70
0
 10
112.242722
 20
98.822157
 30
0.0
 10
118.492722
 20
98.822157
 30
0.0
  0
LWPOLYLINE
  5
253
100
AcDbEntity
  8
Reader_mount_002_contour
 62
7
100
AcDbPolyline
 90
2
 70
0
 10
112.242722
 20
95.822155
 30
0.0
 10
112.242722
 20
98.822157
 30
0.0
  0
LWPOLYLINE
  5
254
100
AcDbEntity
  8
Reader_mount_002_contour
 62
7
100
AcDbPolyline
 90
2
 70
0
 10
107.242724
 20
95.822155
 30
0.0
 10
112.242722
 20
95.822155
 30
0.0
  0
LWPOLYLINE
  5
255
100
AcDbEntity
  8
Reader_mount_002_contour
 62
7
100
AcDbPolyline
 90
9
 70
0
 10
107.242724
 20
95.822155
 30
0.0
 10
107.242724
 20
9.572171
 30
0.0
 10
112.242722
 20
9.572171
 30
0.0
 10
112.242722
 20
6.572167
 30
0.0
 10
118.492722
 20
6.572167
 30
0.0
 10
118.492722
 20
9.572171
 30
0.0
 10
127.242723
 20
9.572171
 30
0.0
 10
127.242723
 20
6.572167
 30
0.0
 10
132.492724
 20
6.572167
 30
0.0
  0
LWPOLYLINE
  5
256
100
AcDbEntity
  8
Reader_mount_002_contour
 62
7
100
AcDbPolyline
 90
2
 70
0
 10
137.492724
 20
15.322149
 30
0.0
 10
133.492724
 20
15.322149
 30
0.0
  0
LWPOLYLINE
  5
257
100
AcDbEntity
  8
Reader_mount_002_contour
 62
7
100
AcDbPolyline
 90
2
 70
0
 10
132.492724
 20
9.572171
 30
0.0
 10
132.492724
 20
6.572167
 30
0.0
  0
LWPOLYLINE
  5
258
100
AcDbEntity
  8
Reader_mount_002_contour
 62
7
100
AcDbPolyline
 90
2
 70
0
 10
137.492724
 20
9.572171
 30
0.0
 10
137.492724
 20
15.322149
 30
0.0
  0
LWPOLYLINE
  5
259
100
AcDbEntity
  8
Reader_mount_002_contour
 62
7
100
AcDbPolyline
 90
2
 70
0
 10
137.492724
 20
9.572171
 30
0.0
 10
132.492724
 20
9.572171
 30
0.0
  0
LWPOLYLINE
  5
25a
100
AcDbEntity
  8
Base_pole_004_contour
 62
7
100
AcDbPolyline
 90
2
 70
0
 10
185.710632
 20
207.222200
 30
0.0
 10
182.710632
 20
207.222200
 30
0.0
  0
LWPOLYLINE
  5
25b
100
AcDbEntity
  8
Base_pole_004_contour
 62
7
100
AcDbPolyline
 90
10
 70
0
 10
185.710632
 20
207.222200
 30
0.0
 10
188.835631
 20
207.222200
 30
0.0
 10
188.835631
 20
198.972200
 30
0.0
 10
185.835631
 20
198.972200
 30
0.0
 10
185.835631
 20
195.972199
 30
0.0
 10
182.585633
 20
195.972199
 30
0.0
 10
182.585633
 20
198.972200
 30
0.0
 10
179.585631
 20
198.972200
 30
0.0
 10
179.585631
 20
207.222200
 30
0.0
 10
182.710632
 20
207.222200
 30
0.0
  0
LWPOLYLINE
  5
25c
100
AcDbEntity
  8
Base_pole_005_contour
 62
7
100
AcDbPolyline
 90
2
 70
0
 10
200.646845
 20
207.062167
 30
0.0
 10
197.646846
 20
207.062167
 30
0.0
  0
LWPOLYLINE
  5
25d
100
AcDbEntity
  8
Base_pole_005_contour
 62
7
100
AcDbPolyline
 90
10
 70
0
 10
200.646845
 20
207.062167
 30
0.0
 10
203.771847
 20
207.062167
 30
0.0
 10
203.771847
 20
198.812167
 30
0.0
 10
200.771847
 20
198.812167
 30
0.0
 10
200.771847
 20
195.812168
 30
0.0
 10
197.521846
 20
195.812168
 30
0.0
 10
197.521846
 20
198.812167
 30
0.0
 10
194.521847
 20
198.812167
 30
0.0
 10
194.521847
 20
207.062167
 30
0.0
 10
197.646846
 20
207.062167
 30
0.0
  0
LWPOLYLINE
  5
25e
100
AcDbEntity
  8
Base_pole_002_contour
 62
7
100
AcDbPolyline
 90
2
 70
0
 10
200.647350
 20
189.371998
 30
0.0
 10
197.647351
 20
189.371998
 30
0.0
  0
LWPOLYLINE
  5
25f
100
AcDbEntity
  8
Base_pole_002_contour
 62
7
100
AcDbPolyline
 90
10
 70
0
 10
200.647350
 20
189.371998
 30
0.0
 10
203.772352
 20
189.371998
 30
0.0
 10
203.772352
 20
181.121996
 30
0.0
 10
200.772353
 20
181.121996
 30
0.0
 10
200.772353
 20
178.121997
 30
0.0
 10
197.522351
 20
178.121997
 30
0.0
 10
197.522351
 20
181.121996
 30
0.0
 10
194.522352
 20
181.121996
 30
0.0
 10
194.522352
 20
189.371998
 30
0.0
 10
197.647351
 20
189.371998
 30
0.0
  0
LWPOLYLINE
  5
260
100
AcDbEntity
  8
View003
 62
7
100
AcDbPolyline
 90
2
 70
0
 10
200.849931
 20
12.572149
 30
0.0
 10
192.849931
 20
12.572149
 30
0.0
  0
LWPOLYLINE
  5
261
100
AcDbEntity
  8
View003
 62
7
100
AcDbPolyline
 90
2
 70
0
 10
200.849931
 20
12.572149
 30
0.0
 10
200.849931
 20
42.690157
 30
0.0
  0
LWPOLYLINE
  5
262
100
AcDbEntity
  8
View003
 62
7
100
AcDbPolyline
 90
2
 70
0
 10
192.849931
 20
12.572149
 30
0.0
 10
192.849931
 20
9.822150
 30
0.0
  0
LWPOLYLINE
  5
263
100
AcDbEntity
  8
View003
 62
7
100
AcDbPolyline
 90
2
 70
0
 10
200.849931
 20
42.690157
 30
0.0
 10
203.849930
 20
71.190158
 30
0.0
  0
LWPOLYLINE
  5
264
100
AcDbEntity
  8
View003
 62
7
100
AcDbPolyline
 90
2
 70
0
 10
200.849931
 20
9.822150
 30
0.0
 10
192.849931
 20
9.822150
 30
0.0
  0
LWPOLYLINE
  5
265
100
AcDbEntity
  8
View003
 62
7
100
AcDbPolyline
 90
2
 70
0
 10
200.849931
 20
6.572167
 30
0.0
 10
200.849931
 20
9.822150
 30
0.0
  0
LWPOLYLINE
  5
266
100
AcDbEntity
  8
View003
 62
7
100
AcDbPolyline
 90
2
 70
0
 10
170.599931
 20
6.572167
 30
0.0
 10
200.849931
 20
6.572167
 30
0.0
  0
LWPOLYLINE
  5
267
100
AcDbEntity
  8
View003
 62
7
100
AcDbPolyline
 90
2
 70
0
 10
170.599931
 20
9.822150
 30
0.0
 10
170.599931
 20
6.572167
 30
0.0
  0
LWPOLYLINE
  5
268
100
AcDbEntity
  8
View003
 62
7
100
AcDbPolyline
 90
2
 70
0
 10
175.599931
 20
9.822150
 30
0.0
 10
170.599931
 20
9.822150
 30
0.0
  0
LWPOLYLINE
  5
269
100
AcDbEntity
  8
View003
 62
7
100
AcDbPolyline
 90
2
 70
0
 10
175.599931
 20
12.572149
 30
0.0
 10
175.599931
 20
9.822150
 30
0.0
  0
LWPOLYLINE
  5
26a
100
AcDbEntity
  8
View003
 62
7
100
AcDbPolyline
 90
2
 70
0
 10
170.599931
 20
12.572149
 30
0.0
 10
175.599931
 20
12.572149
 30
0.0
  0
LWPOLYLINE
  5
26b
100
AcDbEntity
  8
View003
 62
7
100
AcDbPolyline
 90
2
 70
0
 10
170.599931
 20
42.694158
 30
0.0
 10
170.599931
 20
12.572149
 30
0.0
  0
LWPOLYLINE
  5
26c
100
AcDbEntity
  8
View003
 62
7
100
AcDbPolyline
 90
3
 70
0
 10
170.599931
 20
42.694158
 30
0.0
 10
169.093930
 20
74.322158
 30
0.0
 10
183.599931
 20
74.322158
 30
0.0
  0
LWPOLYLINE
  5
26d
100
AcDbEntity
  8
View003
 62
7
100
AcDbPolyline
 90
2
 70
0
 10
183.599931
 20
69.322158
 30
0.0
 10
183.599931
 20
74.322158
 30
0.0
  0
LWPOLYLINE
  5
26e
100
AcDbEntity
  8
View003
 62
7
100
AcDbPolyline
 90
2
 70
0
 10
186.349931
 20
69.322158
 30
0.0
 10
183.599931
 20
69.322158
 30
0.0
  0
LWPOLYLINE
  5
26f
100
AcDbEntity
  8
View003
 62
7
100
AcDbPolyline
 90
2
 70
0
 10
186.349931
 20
74.322158
 30
0.0
 10
186.349931
 20
69.322158
 30
0.0
  0
LWPOLYLINE
  5
270
100
AcDbEntity
  8
View003
 62
7
100
AcDbPolyline
 90
2
 70
0
 10
186.349931
 20
74.322158
 30
0.0
 10
200.599932
 20
74.322158
 30
0.0
  0
LWPOLYLINE
  5
271
100
AcDbEntity
  8
View003
 62
7
100
AcDbPolyline
 90
2
 70
0
 10
200.599932
 20
76.322157
 30
0.0
 10
200.599932
 20
74.322158
 30
0.0
  0
LWPOLYLINE
  5
272
100
AcDbEntity
  8
View003
 62
7
100
AcDbPolyline
 90
2
 70
0
 10
203.849930
 20
76.322157
 30
0.0
 10
200.599932
 20
76.322157
 30
0.0
  0
LWPOLYLINE
  5
273
100
AcDbEntity
  8
View003
 62
7
100
AcDbPolyline
 90
2
 70
0
 10
203.849930
 20
76.322157
 30
0.0
 10
203.849930
 20
71.190158
 30
0.0
  0
LWPOLYLINE
  5
274
100
AcDbEntity
  8
View003
 62
7
100
AcDbPolyline
 90
4
 70
1
 10
195.599931
 20
40.822156
 30
0.0
 10
195.599931
 20
43.572156
 30
0.0
 10
190.849930
 20
43.572156
 30
0.0
 10
190.849930
 20
40.822156
 30
0.0
  0
LWPOLYLINE
  5
275
100
AcDbEntity
  8
View003
 62
7
100
AcDbPolyline
 90
4
 70
1
 10
175.849931
 20
40.822156
 30
0.0
 10
181.599930
 20
40.822156
 30
0.0
 10
181.599930
 20
43.572156
 30
0.0
 10
175.849931
 20
43.572156
 30
0.0
  0
LWPOLYLINE
  5
276
100
AcDbEntity
  8
View003
 62
7
100
AcDbPolyline
 90
2
 70
0
 10
182.849930
 20
12.572149
 30
0.0
 10
187.599931
 20
12.572149
 30
0.0
  0
LWPOLYLINE
  5
277
100
AcDbEntity
  8
View003
 62
7
100
AcDbPolyline
 90
2
 70
0
 10
182.849930
 20
9.822150
 30
0.0
 10
182.849930
 20
12.572149
 30
0.0
  0
LWPOLYLINE
  5
278
100
AcDbEntity
  8
View003
 62
7
100
AcDbPolyline
 90
2
 70
0
 10
182.849930
 20
9.822150
 30
0.0
 10
187.599931
 20
9.822150
 30
0.0
  0
LWPOLYLINE
  5
279
100
AcDbEntity
  8
View003
 62
7
100
AcDbPolyline
 90
2
 70
0
 10
187.599931
 20
12.572149
 30
0.0
 10
187.599931
 20
9.822150
 30
0.0
  0
LWPOLYLINE
  5
27a
100
AcDbEntity
  8
View003
 62
7
100
AcDbPolyline
 90
2
 70
0
 10
153.007478
 20
227.174368
 30
0.0
 10
152.957980
 20
226.782388
 30
0.0
  0
LWPOLYLINE
  5
27b
100
AcDbEntity
  8
View003
 62
7
100
AcDbPolyline
 90
2
 70
0
 10
153.152880
 20
227.541372
 30
0.0
 10
153.007478
 20
227.174368
 30
0.0
  0
LWPOLYLINE
  5
27c
100
AcDbEntity
  8
View003
 62
7
100
AcDbPolyline
 90
2
 70
0
 10
153.384880
 20
227.860380
 30
0.0
 10
153.152880
 20
227.541372
 30
0.0
  0
LWPOLYLINE
  5
27d
100
AcDbEntity
  8
View003
 62
7
100
AcDbPolyline
 90
2
 70
0
 10
153.689079
 20
228.112475
 30
0.0
 10
153.384880
 20
227.860380
 30
0.0
  0
LWPOLYLINE
  5
27e
100
AcDbEntity
  8
View003
 62
7
100
AcDbPolyline
 90
2
 70
0
 10
154.046280
 20
228.280565
 30
0.0
 10
153.689079
 20
228.112475
 30
0.0
  0
LWPOLYLINE
  5
27f
100
AcDbEntity
  8
View003
 62
7
100
AcDbPolyline
 90
2
 70
0
 10
154.434080
 20
228.354569
 30
0.0
 10
154.046280
 20
228.280565
 30
0.0
  0
LWPOLYLINE
  5
280
100
AcDbEntity
  8
View003
 62
7
100
AcDbPolyline
 90
2
 70
0
 10
154.828179
 20
228.329777
 30
0.0
 10
154.434080
 20
228.354648
 30
0.0
  0
LWPOLYLINE
  5
281
100
AcDbEntity
  8
View003
 62
7
100
AcDbPolyline
 90
2
 70
0
 10
155.203578
 20
228.207778
 30
0.0
 10
154.828179
 20
228.329777
 30
0.0
  0
LWPOLYLINE
  5
282
100
AcDbEntity
  8
View003
 62
7
100
AcDbPolyline
 90
2
 70
0
 10
155.536979
 20
227.996376
 30
0.0
 10
155.203578
 20
228.207778
 30
0.0
  0
LWPOLYLINE
  5
283
100
AcDbEntity
  8
View003
 62
7
100
AcDbPolyline
 90
2
 70
0
 10
155.807180
 20
227.708377
 30
0.0
 10
155.536979
 20
227.996376
 30
0.0
  0
LWPOLYLINE
  5
284
100
AcDbEntity
  8
View003
 62
7
100
AcDbPolyline
 90
2
 70
0
 10
155.997378
 20
227.362381
 30
0.0
 10
155.807180
 20
227.708377
 30
0.0
  0
LWPOLYLINE
  5
285
100
AcDbEntity
  8
View003
 62
7
100
AcDbPolyline
 90
2
 70
0
 10
156.095578
 20
226.980376
 30
0.0
 10
155.997378
 20
227.362381
 30
0.0
  0
LWPOLYLINE
  5
286
100
AcDbEntity
  8
View003
 62
7
100
AcDbPolyline
 90
2
 70
0
 10
156.095578
 20
226.585379
 30
0.0
 10
156.095578
 20
226.980376
 30
0.0
  0
LWPOLYLINE
  5
287
100
AcDbEntity
  8
View003
 62
7
100
AcDbPolyline
 90
2
 70
0
 10
155.997378
 20
226.203374
 30
0.0
 10
156.095578
 20
226.585379
 30
0.0
  0
LWPOLYLINE
  5
288
100
AcDbEntity
  8
View003
 62
7
100
AcDbPolyline
 90
2
 70
0
 10
155.807180
 20
225.857378
 30
0.0
 10
155.997378
 20
226.203374
 30
0.0
  0
LWPOLYLINE
  5
289
100
AcDbEntity
  8
View003
 62
7
100
AcDbPolyline
 90
2
 70
0
 10
155.536979
 20
225.569379
 30
0.0
 10
155.807180
 20
225.857378
 30
0.0
  0
LWPOLYLINE
  5
28a
100
AcDbEntity
  8
View003
 62
7
100
AcDbPolyline
 90
2
 70
0
 10
155.203578
 20
225.357369
 30
0.0
 10
155.536979
 20
225.569379
 30
0.0
  0
LWPOLYLINE
  5
28b
100
AcDbEntity
  8
View003
 62
7
100
AcDbPolyline
 90
2
 70
0
 10
154.828179
 20
225.235369
 30
0.0
 10
155.203578
 20
225.357369
 30
0.0
  0
LWPOLYLINE
  5
28c
100
AcDbEntity
  8
View003
 62
7
100
AcDbPolyline
 90
2
 70
0
 10
154.434080
 20
225.210366
 30
0.0
 10
154.828179
 20
225.235501
 30
0.0
  0
LWPOLYLINE
  5
28d
100
AcDbEntity
  8
View003
 62
7
100
AcDbPolyline
 90
2
 70
0
 10
154.046280
 20
225.284370
 30
0.0
 10
154.434080
 20
225.210366
 30
0.0
  0
LWPOLYLINE
  5
28e
100
AcDbEntity
  8
View003
 62
7
100
AcDbPolyline
 90
2
 70
0
 10
153.689079
 20
225.452380
 30
0.0
 10
154.046280
 20
225.284370
 30
0.0
  0
LWPOLYLINE
  5
28f
100
AcDbEntity
  8
View003
 62
7
100
AcDbPolyline
 90
2
 70
0
 10
153.384880
 20
225.704370
 30
0.0
 10
153.689079
 20
225.452380
 30
0.0
  0
LWPOLYLINE
  5
290
100
AcDbEntity
  8
View003
 62
7
100
AcDbPolyline
 90
2
 70
0
 10
153.152880
 20
226.024383
 30
0.0
 10
153.384880
 20
225.704370
 30
0.0
  0
LWPOLYLINE
  5
291
100
AcDbEntity
  8
View003
 62
7
100
AcDbPolyline
 90
2
 70
0
 10
153.007478
 20
226.391387
 30
0.0
 10
153.152880
 20
226.024383
 30
0.0
  0
LWPOLYLINE
  5
292
100
AcDbEntity
  8
View003
 62
7
100
AcDbPolyline
 90
2
 70
0
 10
152.957980
 20
226.782388
 30
0.0
 10
153.007478
 20
226.391387
 30
0.0
  0
LWPOLYLINE
  5
293
100
AcDbEntity
  8
View003
 62
7
100
AcDbPolyline
 90
3
 70
0
 10
161.657980
 20
220.657363
 30
0.0
 10
158.532978
 20
220.657363
 30
0.0
 10
154.907980
 20
220.657363
 30
0.0
  0
LWPOLYLINE
  5
294
100
AcDbEntity
  8
View003
 62
7
100
AcDbPolyline
 90
2
 70
0
 10
154.907980
 20
221.657382
 30
0.0
 10
154.907980
 20
220.657363
 30
0.0
  0
LWPOLYLINE
  5
295
100
AcDbEntity
  8
View003
 62
7
100
AcDbPolyline
 90
2
 70
0
 10
152.157980
 20
221.657382
 30
0.0
 10
154.907980
 20
221.657382
 30
0.0
  0
LWPOLYLINE
  5
296
100
AcDbEntity
  8
View003
 62
7
100
AcDbPolyline
 90
2
 70
0
 10
152.157980
 20
220.657363
 30
0.0
 10
152.157980
 20
221.657382
 30
0.0
  0
LWPOLYLINE
  5
297
100
AcDbEntity
  8
View003
 62
7
100
AcDbPolyline
 90
3
 70
0
 10
152.157980
 20
220.657363
 30
0.0
 10
148.407980
 20
220.657363
 30
0.0
 10
148.407980
 20
224.407382
 30
0.0
  0
LWPOLYLINE
  5
298
100
AcDbEntity
  8
View003
 62
7
100
AcDbPolyline
 90
2
 70
0
 10
149.407978
 20
224.407382
 30
0.0
 10
148.407980
 20
224.407382
 30
0.0
  0
LWPOLYLINE
  5
299
100
AcDbEntity
  8
View003
 62
7
100
AcDbPolyline
 90
2
 70
0
 10
149.407978
 20
227.157382
 30
0.0
 10
149.407978
 20
224.407382
 30
0.0
  0
LWPOLYLINE
  5
29a
100
AcDbEntity
  8
View003
 62
7
100
AcDbPolyline
 90
2
 70
0
 10
148.407980
 20
227.157382
 30
0.0
 10
149.407978
 20
227.157382
 30
0.0
  0
LWPOLYLINE
  5
29b
100
AcDbEntity
  8
View003
 62
7
100
AcDbPolyline
 90
2
 70
0
 10
148.407980
 20
227.157382
 30
0.0
 10
148.407980
 20
230.782676
 30
0.0
  0
LWPOLYLINE
  5
29c
100
AcDbEntity
  8
View003
 62
7
100
AcDbPolyline
 90
2
 70
0
 10
148.407980
 20
233.907670
 30
0.0
 10
148.407980
 20
230.782676
 30
0.0
  0
LWPOLYLINE
  5
29d
100
AcDbEntity
  8
View003
 62
7
100
AcDbPolyline
 90
2
 70
0
 10
161.657980
 20
230.907665
 30
0.0
 10
161.657980
 20
220.657363
 30
0.0
  0
LWPOLYLINE
  5
29e
100
AcDbEntity
  8
View003
 62
7
100
AcDbPolyline
 90
2
 70
0
 10
148.407980
 20
233.907670
 30
0.0
 10
158.657978
 20
233.907670
 30
0.0
  0
LWPOLYLINE
  5
29f
100
AcDbEntity
  8
View003
 62
7
100
AcDbPolyline
 90
2
 70
0
 10
161.657980
 20
230.907665
 30
0.0
 10
158.657978
 20
230.907665
 30
0.0
  0
LWPOLYLINE
  5
2a0
100
AcDbEntity
  8
View003
 62
7
100
AcDbPolyline
 90
2
 70
0
 10
158.657978
 20
233.907670
 30
0.0
 10
158.657978
 20
230.907665
 30
0.0
  0
LWPOLYLINE
  5
2a1
100
AcDbEntity
  8
View003
 62
7
100
AcDbPolyline
 90
9
 70
1
 10
169.626267
 20
233.415201
 30
0.0
 10
173.751266
 20
233.415201
 30
0.0
 10
173.751266
 20
215.165195
 30
0.0
 10
166.201267
 20
215.165195
 30
0.0
 10
166.201267
 20
219.415197
 30
0.0
 10
169.501267
 20
219.415197
 30
0.0
 10
169.501267
 20
228.165206
 30
0.0
 10
166.201267
 20
228.165206
 30
0.0
 10
166.201267
 20
233.415201
 30
0.0
  0
LWPOLYLINE
  5
2a2
100
AcDbEntity
  8
View003
 62
7
100
AcDbPolyline
 90
2
 70
0
 10
153.185249
 20
245.021181
 30
0.0
 10
153.135751
 20
245.412896
 30
0.0
  0
LWPOLYLINE
  5
2a3
100
AcDbEntity
  8
View003
 62
7
100
AcDbPolyline
 90
2
 70
0
 10
153.330550
 20
244.654177
 30
0.0
 10
153.185249
 20
245.021181
 30
0.0
  0
LWPOLYLINE
  5
2a4
100
AcDbEntity
  8
View003
 62
7
100
AcDbPolyline
 90
2
 70
0
 10
153.562550
 20
244.334799
 30
0.0
 10
153.330550
 20
244.654177
 30
0.0
  0
LWPOLYLINE
  5
2a5
100
AcDbEntity
  8
View003
 62
7
100
AcDbPolyline
 90
2
 70
0
 10
153.866749
 20
244.083074
 30
0.0
 10
153.562550
 20
244.334799
 30
0.0
  0
LWPOLYLINE
  5
2a6
100
AcDbEntity
  8
View003
 62
7
100
AcDbPolyline
 90
2
 70
0
 10
154.224051
 20
243.914984
 30
0.0
 10
153.866749
 20
244.083074
 30
0.0
  0
LWPOLYLINE
  5
2a7
100
AcDbEntity
  8
View003
 62
7
100
AcDbPolyline
 90
2
 70
0
 10
154.611851
 20
243.840980
 30
0.0
 10
154.224051
 20
243.914984
 30
0.0
  0
LWPOLYLINE
  5
2a8
100
AcDbEntity
  8
View003
 62
7
100
AcDbPolyline
 90
2
 70
0
 10
155.005850
 20
243.865798
 30
0.0
 10
154.611851
 20
243.840927
 30
0.0
  0
LWPOLYLINE
  5
2a9
100
AcDbEntity
  8
View003
 62
7
100
AcDbPolyline
 90
2
 70
0
 10
155.381349
 20
243.987798
 30
0.0
 10
155.005850
 20
243.865798
 30
0.0
  0
LWPOLYLINE
  5
2aa
100
AcDbEntity
  8
View003
 62
7
100
AcDbPolyline
 90
2
 70
0
 10
155.714650
 20
244.199385
 30
0.0
 10
155.381349
 20
243.987798
 30
0.0
  0
LWPOLYLINE
  5
2ab
100
AcDbEntity
  8
View003
 62
7
100
AcDbPolyline
 90
2
 70
0
 10
155.984951
 20
244.487199
 30
0.0
 10
155.714650
 20
244.199385
 30
0.0
  0
LWPOLYLINE
  5
2ac
100
AcDbEntity
  8
View003
 62
7
100
AcDbPolyline
 90
2
 70
0
 10
156.175149
 20
244.833088
 30
0.0
 10
155.984951
 20
244.487199
 30
0.0
  0
LWPOLYLINE
  5
2ad
100
AcDbEntity
  8
View003
 62
7
100
AcDbPolyline
 90
2
 70
0
 10
156.273349
 20
245.215491
 30
0.0
 10
156.175149
 20
244.833088
 30
0.0
  0
LWPOLYLINE
  5
2ae
100
AcDbEntity
  8
View003
 62
7
100
AcDbPolyline
 90
2
 70
0
 10
156.273349
 20
245.610276
 30
0.0
 10
156.273349
 20
245.215491
 30
0.0
  0
LWPOLYLINE
  5
2af
100
AcDbEntity
  8
View003
 62
7
100
AcDbPolyline
 90
2
 70
0
 10
156.175149
 20
245.992678
 30
0.0
 10
156.273349
 20
245.610276
 30
0.0
  0
LWPOLYLINE
  5
2b0
100
AcDbEntity
  8
View003
 62
7
100
AcDbPolyline
 90
2
 70
0
 10
155.984951
 20
246.338673
 30
0.0
 10
156.175149
 20
245.992678
 30
0.0
  0
LWPOLYLINE
  5
2b1
100
AcDbEntity
  8
View003
 62
7
100
AcDbPolyline
 90
2
 70
0
 10
155.714650
 20
246.626487
 30
0.0
 10
155.984951
 20
246.338673
 30
0.0
  0
LWPOLYLINE
  5
2b2
100
AcDbEntity
  8
View003
 62
7
100
AcDbPolyline
 90
2
 70
0
 10
155.381349
 20
246.837995
 30
0.0
 10
155.714650
 20
246.626487
 30
0.0
  0
LWPOLYLINE
  5
2b3
100
AcDbEntity
  8
View003
 62
7
100
AcDbPolyline
 90
2
 70
0
 10
155.005850
 20
246.959994
 30
0.0
 10
155.381349
 20
246.837995
 30
0.0
  0
LWPOLYLINE
  5
2b4
100
AcDbEntity
  8
View003
 62
7
100
AcDbPolyline
 90
2
 70
0
 10
154.611851
 20
246.984786
 30
0.0
 10
155.005850
 20
246.959915
 30
0.0
  0
LWPOLYLINE
  5
2b5
100
AcDbEntity
  8
View003
 62
7
100
AcDbPolyline
 90
2
 70
0
 10
154.224051
 20
246.910782
 30
0.0
 10
154.611851
 20
246.984786
 30
0.0
  0
LWPOLYLINE
  5
2b6
100
AcDbEntity
  8
View003
 62
7
100
AcDbPolyline
 90
2
 70
0
 10
153.866749
 20
246.742692
 30
0.0
 10
154.224051
 20
246.910782
 30
0.0
  0
LWPOLYLINE
  5
2b7
100
AcDbEntity
  8
View003
 62
7
100
AcDbPolyline
 90
2
 70
0
 10
153.562550
 20
246.491073
 30
0.0
 10
153.866749
 20
246.742692
 30
0.0
  0
LWPOLYLINE
  5
2b8
100
AcDbEntity
  8
View003
 62
7
100
AcDbPolyline
 90
2
 70
0
 10
153.330550
 20
246.171695
 30
0.0
 10
153.562550
 20
246.491073
 30
0.0
  0
LWPOLYLINE
  5
2b9
100
AcDbEntity
  8
View003
 62
7
100
AcDbPolyline
 90
2
 70
0
 10
153.185249
 20
245.804586
 30
0.0
 10
153.330550
 20
246.171695
 30
0.0
  0
LWPOLYLINE
  5
2ba
100
AcDbEntity
  8
View003
 62
7
100
AcDbPolyline
 90
2
 70
0
 10
153.135751
 20
245.412896
 30
0.0
 10
153.185249
 20
245.804586
 30
0.0
  0
LWPOLYLINE
  5
2bb
100
AcDbEntity
  8
View003
 62
7
100
AcDbPolyline
 90
2
 70
0
 10
155.085751
 20
240.287891
 30
0.0
 10
155.085751
 20
239.287898
 30
0.0
  0
LWPOLYLINE
  5
2bc
100
AcDbEntity
  8
View003
 62
7
100
AcDbPolyline
 90
2
 70
0
 10
152.335751
 20
240.287891
 30
0.0
 10
155.085751
 20
240.287891
 30
0.0
  0
LWPOLYLINE
  5
2bd
100
AcDbEntity
  8
View003
 62
7
100
AcDbPolyline
 90
2
 70
0
 10
152.335751
 20
239.287898
 30
0.0
 10
152.335751
 20
240.287891
 30
0.0
  0
LWPOLYLINE
  5
2be
100
AcDbEntity
  8
View003
 62
7
100
AcDbPolyline
 90
2
 70
0
 10
148.585751
 20
239.287898
 30
0.0
 10
152.335751
 20
239.287898
 30
0.0
  0
LWPOLYLINE
  5
2bf
100
AcDbEntity
  8
View003
 62
7
100
AcDbPolyline
 90
2
 70
0
 10
148.585751
 20
243.037891
 30
0.0
 10
148.585751
 20
239.287898
 30
0.0
  0
LWPOLYLINE
  5
2c0
100
AcDbEntity
  8
View003
 62
7
100
AcDbPolyline
 90
2
 70
0
 10
149.585749
 20
243.037891
 30
0.0
 10
148.585751
 20
243.037891
 30
0.0
  0
LWPOLYLINE
  5
2c1
100
AcDbEntity
  8
View003
 62
7
100
AcDbPolyline
 90
2
 70
0
 10
149.585749
 20
245.787890
 30
0.0
 10
149.585749
 20
243.037891
 30
0.0
  0
LWPOLYLINE
  5
2c2
100
AcDbEntity
  8
View003
 62
7
100
AcDbPolyline
 90
2
 70
0
 10
148.585751
 20
245.787890
 30
0.0
 10
149.585749
 20
245.787890
 30
0.0
  0
LWPOLYLINE
  5
2c3
100
AcDbEntity
  8
View003
 62
7
100
AcDbPolyline
 90
2
 70
0
 10
155.085751
 20
239.287898
 30
0.0
 10
158.835749
 20
239.287898
 30
0.0
  0
LWPOLYLINE
  5
2c4
100
AcDbEntity
  8
View003
 62
7
100
AcDbPolyline
 90
2
 70
0
 10
148.585751
 20
245.787890
 30
0.0
 10
148.585751
 20
249.537883
 30
0.0
  0
LWPOLYLINE
  5
2c5
100
AcDbEntity
  8
View003
 62
7
100
AcDbPolyline
 90
2
 70
0
 10
158.835749
 20
249.537883
 30
0.0
 10
158.835749
 20
239.287898
 30
0.0
  0
LWPOLYLINE
  5
2c6
100
AcDbEntity
  8
View003
 62
7
100
AcDbPolyline
 90
2
 70
0
 10
148.585751
 20
249.537883
 30
0.0
 10
158.835749
 20
249.537883
 30
0.0
  0
LWPOLYLINE
  5
2c7
100
AcDbEntity
  8
View003
 62
7
100
AcDbPolyline
 90
2
 70
0
 10
172.156467
 20
246.652707
 30
0.0
 10
169.712566
 20
248.333208
 30
0.0
  0
LWPOLYLINE
  5
2c8
100
AcDbEntity
  8
View003
 62
7
100
AcDbPolyline
 90
2
 70
0
 10
172.156467
 20
243.686808
 30
0.0
 10
172.156467
 20
246.652707
 30
0.0
  0
LWPOLYLINE
  5
2c9
100
AcDbEntity
  8
View003
 62
7
100
AcDbPolyline
 90
2
 70
0
 10
169.540066
 20
242.310604
 30
0.0
 10
172.156467
 20
243.686808
 30
0.0
  0
LWPOLYLINE
  5
2ca
100
AcDbEntity
  8
View003
 62
7
100
AcDbPolyline
 90
2
 70
0
 10
167.096165
 20
243.991211
 30
0.0
 10
169.540066
 20
242.310604
 30
0.0
  0
LWPOLYLINE
  5
2cb
100
AcDbEntity
  8
View003
 62
7
100
AcDbPolyline
 90
2
 70
0
 10
167.096165
 20
246.957111
 30
0.0
 10
167.096165
 20
243.991211
 30
0.0
  0
LWPOLYLINE
  5
2cc
100
AcDbEntity
  8
View003
 62
7
100
AcDbPolyline
 90
2
 70
0
 10
169.712566
 20
248.333208
 30
0.0
 10
167.096165
 20
246.957111
 30
0.0
  0
LWPOLYLINE
  5
2cd
100
AcDbEntity
  8
View003
 62
7
100
AcDbPolyline
 90
4
 70
0
 10
164.501266
 20
245.696927
 30
0.0
 10
164.501266
 20
242.946927
 30
0.0
 10
163.501266
 20
242.946927
 30
0.0
 10
163.501266
 20
239.196908
 30
0.0
  0
LWPOLYLINE
  5
2ce
100
AcDbEntity
  8
View003
 62
7
100
AcDbPolyline
 90
2
 70
0
 10
167.251266
 20
239.196908
 30
0.0
 10
163.501266
 20
239.196908
 30
0.0
  0
LWPOLYLINE
  5
2cf
100
AcDbEntity
  8
View003
 62
7
100
AcDbPolyline
 90
2
 70
0
 10
167.251266
 20
240.196927
 30
0.0
 10
167.251266
 20
239.196908
 30
0.0
  0
LWPOLYLINE
  5
2d0
100
AcDbEntity
  8
View003
 62
7
100
AcDbPolyline
 90
2
 70
0
 10
170.001266
 20
240.196927
 30
0.0
 10
167.251266
 20
240.196927
 30
0.0
  0
LWPOLYLINE
  5
2d1
100
AcDbEntity
  8
View003
 62
7
100
AcDbPolyline
 90
2
 70
0
 10
170.001266
 20
239.196908
 30
0.0
 10
170.001266
 20
240.196927
 30
0.0
  0
LWPOLYLINE
  5
2d2
100
AcDbEntity
  8
View003
 62
7
100
AcDbPolyline
 90
2
 70
0
 10
173.751266
 20
239.196908
 30
0.0
 10
170.001266
 20
239.196908
 30
0.0
  0
LWPOLYLINE
  5
2d3
100
AcDbEntity
  8
View003
 62
7
100
AcDbPolyline
 90
2
 70
0
 10
173.751266
 20
249.446919
 30
0.0
 10
173.751266
 20
239.196908
 30
0.0
  0
LWPOLYLINE
  5
2d4
100
AcDbEntity
  8
View003
 62
7
100
AcDbPolyline
 90
2
 70
0
 10
173.751266
 20
249.446919
 30
0.0
 10
163.501266
 20
249.446919
 30
0.0
  0
LWPOLYLINE
  5
2d5
100
AcDbEntity
  8
View003
 62
7
100
AcDbPolyline
 90
2
 70
0
 10
163.501266
 20
245.696927
 30
0.0
 10
163.501266
 20
249.446919
 30
0.0
  0
LWPOLYLINE
  5
2d6
100
AcDbEntity
  8
View003
 62
7
100
AcDbPolyline
 90
2
 70
0
 10
164.501266
 20
245.696927
 30
0.0
 10
163.501266
 20
245.696927
 30
0.0
  0
LWPOLYLINE
  5
2d7
100
AcDbEntity
  8
View003
 62
7
100
AcDbPolyline
 90
2
 70
0
 10
152.791710
 20
267.468333
 30
0.0
 10
152.742212
 20
267.076353
 30
0.0
  0
LWPOLYLINE
  5
2d8
100
AcDbEntity
  8
View003
 62
7
100
AcDbPolyline
 90
2
 70
0
 10
152.937112
 20
267.835336
 30
0.0
 10
152.791710
 20
267.468333
 30
0.0
  0
LWPOLYLINE
  5
2d9
100
AcDbEntity
  8
View003
 62
7
100
AcDbPolyline
 90
2
 70
0
 10
153.169112
 20
268.154344
 30
0.0
 10
152.937112
 20
267.835336
 30
0.0
  0
LWPOLYLINE
  5
2da
100
AcDbEntity
  8
View003
 62
7
100
AcDbPolyline
 90
2
 70
0
 10
153.473311
 20
268.406439
 30
0.0
 10
153.169112
 20
268.154344
 30
0.0
  0
LWPOLYLINE
  5
2db
100
AcDbEntity
  8
View003
 62
7
100
AcDbPolyline
 90
2
 70
0
 10
153.830512
 20
268.574529
 30
0.0
 10
153.473311
 20
268.406439
 30
0.0
  0
LWPOLYLINE
  5
2dc
100
AcDbEntity
  8
View003
 62
7
100
AcDbPolyline
 90
2
 70
0
 10
154.218312
 20
268.648533
 30
0.0
 10
153.830512
 20
268.574529
 30
0.0
  0
LWPOLYLINE
  5
2dd
100
AcDbEntity
  8
View003
 62
7
100
AcDbPolyline
 90
2
 70
0
 10
154.612411
 20
268.623742
 30
0.0
 10
154.218312
 20
268.648613
 30
0.0
  0
LWPOLYLINE
  5
2de
100
AcDbEntity
  8
View003
 62
7
100
AcDbPolyline
 90
2
 70
0
 10
154.987810
 20
268.501742
 30
0.0
 10
154.612411
 20
268.623742
 30
0.0
  0
LWPOLYLINE
  5
2df
100
AcDbEntity
  8
View003
 62
7
100
AcDbPolyline
 90
2
 70
0
 10
155.321212
 20
268.290340
 30
0.0
 10
154.987810
 20
268.501742
 30
0.0
  0
LWPOLYLINE
  5
2e0
100
AcDbEntity
  8
View003
 62
7
100
AcDbPolyline
 90
2
 70
0
 10
155.591412
 20
268.002341
 30
0.0
 10
155.321212
 20
268.290340
 30
0.0
  0
LWPOLYLINE
  5
2e1
100
AcDbEntity
  8
View003
 62
7
100
AcDbPolyline
 90
2
 70
0
 10
155.781610
 20
267.656346
 30
0.0
 10
155.591412
 20
268.002341
 30
0.0
  0
LWPOLYLINE
  5
2e2
100
AcDbEntity
  8
View003
 62
7
100
AcDbPolyline
 90
2
 70
0
 10
155.879811
 20
267.274340
 30
0.0
 10
155.781610
 20
267.656346
 30
0.0
  0
LWPOLYLINE
  5
2e3
100
AcDbEntity
  8
View003
 62
7
100
AcDbPolyline
 90
2
 70
0
 10
155.879811
 20
266.879344
 30
0.0
 10
155.879811
 20
267.274340
 30
0.0
  0
LWPOLYLINE
  5
2e4
100
AcDbEntity
  8
View003
 62
7
100
AcDbPolyline
 90
2
 70
0
 10
155.781610
 20
266.497338
 30
0.0
 10
155.879811
 20
266.879344
 30
0.0
  0
LWPOLYLINE
  5
2e5
100
AcDbEntity
  8
View003
 62
7
100
AcDbPolyline
 90
2
 70
0
 10
155.591412
 20
266.151343
 30
0.0
 10
155.781610
 20
266.497338
 30
0.0
  0
LWPOLYLINE
  5
2e6
100
AcDbEntity
  8
View003
 62
7
100
AcDbPolyline
 90
2
 70
0
 10
155.321212
 20
265.863344
 30
0.0
 10
155.591412
 20
266.151343
 30
0.0
  0
LWPOLYLINE
  5
2e7
100
AcDbEntity
  8
View003
 62
7
100
AcDbPolyline
 90
2
 70
0
 10
154.987810
 20
265.651333
 30
0.0
 10
155.321212
 20
265.863344
 30
0.0
  0
LWPOLYLINE
  5
2e8
100
AcDbEntity
  8
View003
 62
7
100
AcDbPolyline
 90
2
 70
0
 10
154.612411
 20
265.529334
 30
0.0
 10
154.987810
 20
265.651333
 30
0.0
  0
LWPOLYLINE
  5
2e9
100
AcDbEntity
  8
View003
 62
7
100
AcDbPolyline
 90
2
 70
0
 10
154.218312
 20
265.504331
 30
0.0
 10
154.612411
 20
265.529466
 30
0.0
  0
LWPOLYLINE
  5
2ea
100
AcDbEntity
  8
View003
 62
7
100
AcDbPolyline
 90
2
 70
0
 10
153.830512
 20
265.578335
 30
0.0
 10
154.218312
 20
265.504331
 30
0.0
  0
LWPOLYLINE
  5
2eb
100
AcDbEntity
  8
View003
 62
7
100
AcDbPolyline
 90
2
 70
0
 10
153.473311
 20
265.746345
 30
0.0
 10
153.830512
 20
265.578335
 30
0.0
  0
LWPOLYLINE
  5
2ec
100
AcDbEntity
  8
View003
 62
7
100
AcDbPolyline
 90
2
 70
0
 10
153.169112
 20
265.998334
 30
0.0
 10
153.473311
 20
265.746345
 30
0.0
  0
LWPOLYLINE
  5
2ed
100
AcDbEntity
  8
View003
 62
7
100
AcDbPolyline
 90
2
 70
0
 10
152.937112
 20
266.318348
 30
0.0
 10
153.169112
 20
265.998334
 30
0.0
  0
LWPOLYLINE
  5
2ee
100
AcDbEntity
  8
View003
 62
7
100
AcDbPolyline
 90
2
 70
0
 10
152.791710
 20
266.685351
 30
0.0
 10
152.937112
 20
266.318348
 30
0.0
  0
LWPOLYLINE
  5
2ef
100
AcDbEntity
  8
View003
 62
7
100
AcDbPolyline
 90
2
 70
0
 10
152.742212
 20
267.076353
 30
0.0
 10
152.791710
 20
266.685351
 30
0.0
  0
LWPOLYLINE
  5
2f0
100
AcDbEntity
  8
View003
 62
7
100
AcDbPolyline
 90
3
 70
0
 10
161.442212
 20
260.951328
 30
0.0
 10
158.317210
 20
260.951328
 30
0.0
 10
154.692212
 20
260.951328
 30
0.0
  0
LWPOLYLINE
  5
2f1
100
AcDbEntity
  8
View003
 62
7
100
AcDbPolyline
 90
2
 70
0
 10
154.692212
 20
261.951347
 30
0.0
 10
154.692212
 20
260.951328
 30
0.0
  0
LWPOLYLINE
  5
2f2
100
AcDbEntity
  8
View003
 62
7
100
AcDbPolyline
 90
2
 70
0
 10
151.942213
 20
261.951347
 30
0.0
 10
154.692212
 20
261.951347
 30
0.0
  0
LWPOLYLINE
  5
2f3
100
AcDbEntity
  8
View003
 62
7
100
AcDbPolyline
 90
2
 70
0
 10
151.942213
 20
260.951328
 30
0.0
 10
151.942213
 20
261.951347
 30
0.0
  0
LWPOLYLINE
  5
2f4
100
AcDbEntity
  8
View003
 62
7
100
AcDbPolyline
 90
3
 70
0
 10
151.942213
 20
260.951328
 30
0.0
 10
148.192212
 20
260.951328
 30
0.0
 10
148.192212
 20
264.701347
 30
0.0
  0
LWPOLYLINE
  5
2f5
100
AcDbEntity
  8
View003
 62
7
100
AcDbPolyline
 90
2
 70
0
 10
149.192210
 20
264.701347
 30
0.0
 10
148.192212
 20
264.701347
 30
0.0
  0
LWPOLYLINE
  5
2f6
100
AcDbEntity
  8
View003
 62
7
100
AcDbPolyline
 90
2
 70
0
 10
149.192210
 20
267.451347
 30
0.0
 10
149.192210
 20
264.701347
 30
0.0
  0
LWPOLYLINE
  5
2f7
100
AcDbEntity
  8
View003
 62
7
100
AcDbPolyline
 90
2
 70
0
 10
148.192212
 20
267.451347
 30
0.0
 10
149.192210
 20
267.451347
 30
0.0
  0
LWPOLYLINE
  5
2f8
100
AcDbEntity
  8
View003
 62
7
100
AcDbPolyline
 90
2
 70
0
 10
148.192212
 20
267.451347
 30
0.0
 10
148.192212
 20
271.076640
 30
0.0
  0
LWPOLYLINE
  5
2f9
100
AcDbEntity
  8
View003
 62
7
100
AcDbPolyline
 90
2
 70
0
 10
148.192212
 20
274.201634
 30
0.0
 10
148.192212
 20
271.076640
 30
0.0
  0
LWPOLYLINE
  5
2fa
100
AcDbEntity
  8
View003
 62
7
100
AcDbPolyline
 90
2
 70
0
 10
161.442212
 20
271.201629
 30
0.0
 10
161.442212
 20
260.951328
 30
0.0
  0
LWPOLYLINE
  5
2fb
100
AcDbEntity
  8
View003
 62
7
100
AcDbPolyline
 90
2
 70
0
 10
148.192212
 20
274.201634
 30
0.0
 10
158.442210
 20
274.201634
 30
0.0
  0
LWPOLYLINE
  5
2fc
100
AcDbEntity
  8
View003
 62
7
100
AcDbPolyline
 90
2
 70
0
 10
161.442212
 20
271.201629
 30
0.0
 10
158.442210
 20
271.201629
 30
0.0
  0
LWPOLYLINE
  5
2fd
100
AcDbEntity
  8
View003
 62
7
100
AcDbPolyline
 90
2
 70
0
 10
158.442210
 20
274.201634
 30
0.0
 10
158.442210
 20
271.201629
 30
0.0
  0
LWPOLYLINE
  5
2fe
100
AcDbEntity
  8
View003
 62
7
100
AcDbPolyline
 90
9
 70
1
 10
169.410499
 20
273.709165
 30
0.0
 10
173.535499
 20
273.709165
 30
0.0
 10
173.535499
 20
255.459160
 30
0.0
 10
165.985500
 20
255.459160
 30
0.0
 10
165.985500
 20
259.709162
 30
0.0
 10
169.285499
 20
259.709162
 30
0.0
 10
169.285499
 20
268.459171
 30
0.0
 10
165.985500
 20
268.459171
 30
0.0
 10
165.985500
 20
273.709165
 30
0.0
  0
LWPOLYLINE
  5
2ff
100
AcDbEntity
  8
View003
 62
7
100
AcDbPolyline
 90
2
 70
0
 10
152.919441
 20
285.425180
 30
0.0
 10
152.869942
 20
285.816895
 30
0.0
  0
LWPOLYLINE
  5
300
100
AcDbEntity
  8
View003
 62
7
100
AcDbPolyline
 90
2
 70
0
 10
153.064742
 20
285.058176
 30
0.0
 10
152.919441
 20
285.425180
 30
0.0
  0
LWPOLYLINE
  5
301
100
AcDbEntity
  8
View003
 62
7
100
AcDbPolyline
 90
2
 70
0
 10
153.296742
 20
284.738797
 30
0.0
 10
153.064742
 20
285.058176
 30
0.0
  0
LWPOLYLINE
  5
302
100
AcDbEntity
  8
View003
 62
7
100
AcDbPolyline
 90
2
 70
0
 10
153.600941
 20
284.487073
 30
0.0
 10
153.296742
 20
284.738797
 30
0.0
  0
LWPOLYLINE
  5
303
100
AcDbEntity
  8
View003
 62
7
100
AcDbPolyline
 90
2
 70
0
 10
153.958242
 20
284.318983
 30
0.0
 10
153.600941
 20
284.487073
 30
0.0
  0
LWPOLYLINE
  5
304
100
AcDbEntity
  8
View003
 62
7
100
AcDbPolyline
 90
2
 70
0
 10
154.346042
 20
284.244979
 30
0.0
 10
153.958242
 20
284.318983
 30
0.0
  0
LWPOLYLINE
  5
305
100
AcDbEntity
  8
View003
 62
7
100
AcDbPolyline
 90
2
 70
0
 10
154.740041
 20
284.269797
 30
0.0
 10
154.346042
 20
284.244926
 30
0.0
  0
LWPOLYLINE
  5
306
100
AcDbEntity
  8
View003
 62
7
100
AcDbPolyline
 90
2
 70
0
 10
155.115540
 20
284.391796
 30
0.0
 10
154.740041
 20
284.269797
 30
0.0
  0
LWPOLYLINE
  5
307
100
AcDbEntity
  8
View003
 62
7
100
AcDbPolyline
 90
2
 70
0
 10
155.448841
 20
284.603384
 30
0.0
 10
155.115540
 20
284.391796
 30
0.0
  0
LWPOLYLINE
  5
308
100
AcDbEntity
  8
View003
 62
7
100
AcDbPolyline
 90
2
 70
0
 10
155.719142
 20
284.891197
 30
0.0
 10
155.448841
 20
284.603384
 30
0.0
  0
LWPOLYLINE
  5
309
100
AcDbEntity
  8
View003
 62
7
100
AcDbPolyline
 90
2
 70
0
 10
155.909341
 20
285.237087
 30
0.0
 10
155.719142
 20
284.891197
 30
0.0
  0
LWPOLYLINE
  5
30a
100
AcDbEntity
  8
View003
 62
7
100
AcDbPolyline
 90
2
 70
0
 10
156.007541
 20
285.619490
 30
0.0
 10
155.909341
 20
285.237087
 30
0.0
  0
LWPOLYLINE
  5
30b
100
AcDbEntity
  8
View003
 62
7
100
AcDbPolyline
 90
2
 70
0
 10
156.007541
 20
286.014274
 30
0.0
 10
156.007541
 20
285.619490
 30
0.0
  0
LWPOLYLINE
  5
30c
100
AcDbEntity
  8
View003
 62
7
100
AcDbPolyline
 90
2
 70
0
 10
155.909341
 20
286.396677
 30
0.0
 10
156.007541
 20
286.014274
 30
0.0
  0
LWPOLYLINE
  5
30d
100
AcDbEntity
  8
View003
 62
7
100
AcDbPolyline
 90
2
 70
0
 10
155.719142
 20
286.742672
 30
0.0
 10
155.909341
 20
286.396677
 30
0.0
  0
LWPOLYLINE
  5
30e
100
AcDbEntity
  8
View003
 62
7
100
AcDbPolyline
 90
2
 70
0
 10
155.448841
 20
287.030486
 30
0.0
 10
155.719142
 20
286.742672
 30
0.0
  0
LWPOLYLINE
  5
30f
100
AcDbEntity
  8
View003
 62
7
100
AcDbPolyline
 90
2
 70
0
 10
155.115540
 20
287.241994
 30
0.0
 10
155.448841
 20
287.030486
 30
0.0
  0
LWPOLYLINE
  5
310
100
AcDbEntity
  8
View003
 62
7
100
AcDbPolyline
 90
2
 70
0
 10
154.740041
 20
287.363993
 30
0.0
 10
155.115540
 20
287.241994
 30
0.0
  0
LWPOLYLINE
  5
311
100
AcDbEntity
  8
View003
 62
7
100
AcDbPolyline
 90
2
 70
0
 10
154.346042
 20
287.388785
 30
0.0
 10
154.740041
 20
287.363914
 30
0.0
  0
LWPOLYLINE
  5
312
100
AcDbEntity
  8
View003
 62
7
100
AcDbPolyline
 90
2
 70
0
 10
153.958242
 20
287.314781
 30
0.0
 10
154.346042
 20
287.388785
 30
0.0
  0
LWPOLYLINE
  5
313
100
AcDbEntity
  8
View003
 62
7
100
AcDbPolyline
 90
2
 70
0
 10
153.600941
 20
287.146691
 30
0.0
 10
153.958242
 20
287.314781
 30
0.0
  0
LWPOLYLINE
  5
314
100
AcDbEntity
  8
View003
 62
7
100
AcDbPolyline
 90
2
 70
0
 10
153.296742
 20
286.895072
 30
0.0
 10
153.600941
 20
287.146691
 30
0.0
  0
LWPOLYLINE
  5
315
100
AcDbEntity
  8
View003
 62
7
100
AcDbPolyline
 90
2
 70
0
 10
153.064742
 20
286.575694
 30
0.0
 10
153.296742
 20
286.895072
 30
0.0
  0
LWPOLYLINE
  5
316
100
AcDbEntity
  8
View003
 62
7
100
AcDbPolyline
 90
2
 70
0
 10
152.919441
 20
286.208584
 30
0.0
 10
153.064742
 20
286.575694
 30
0.0
  0
LWPOLYLINE
  5
317
100
AcDbEntity
  8
View003
 62
7
100
AcDbPolyline
 90
2
 70
0
 10
152.869942
 20
285.816895
 30
0.0
 10
152.919441
 20
286.208584
 30
0.0
  0
LWPOLYLINE
  5
318
100
AcDbEntity
  8
View003
 62
7
100
AcDbPolyline
 90
2
 70
0
 10
154.819943
 20
280.691890
 30
0.0
 10
154.819943
 20
279.691897
 30
0.0
  0
LWPOLYLINE
  5
319
100
AcDbEntity
  8
View003
 62
7
100
AcDbPolyline
 90
2
 70
0
 10
152.069943
 20
280.691890
 30
0.0
 10
154.819943
 20
280.691890
 30
0.0
  0
LWPOLYLINE
  5
31a
100
AcDbEntity
  8
View003
 62
7
100
AcDbPolyline
 90
2
 70
0
 10
152.069943
 20
279.691897
 30
0.0
 10
152.069943
 20
280.691890
 30
0.0
  0
LWPOLYLINE
  5
31b
100
AcDbEntity
  8
View003
 62
7
100
AcDbPolyline
 90
2
 70
0
 10
148.319942
 20
279.691897
 30
0.0
 10
152.069943
 20
279.691897
 30
0.0
  0
LWPOLYLINE
  5
31c
100
AcDbEntity
  8
View003
 62
7
100
AcDbPolyline
 90
2
 70
0
 10
148.319942
 20
283.441889
 30
0.0
 10
148.319942
 20
279.691897
 30
0.0
  0
LWPOLYLINE
  5
31d
100
AcDbEntity
  8
View003
 62
7
100
AcDbPolyline
 90
2
 70
0
 10
149.319940
 20
283.441889
 30
0.0
 10
148.319942
 20
283.441889
 30
0.0
  0
LWPOLYLINE
  5
31e
100
AcDbEntity
  8
View003
 62
7
100
AcDbPolyline
 90
2
 70
0
 10
149.319940
 20
286.191889
 30
0.0
 10
149.319940
 20
283.441889
 30
0.0
  0
LWPOLYLINE
  5
31f
100
AcDbEntity
  8
View003
 62
7
100
AcDbPolyline
 90
2
 70
0
 10
148.319942
 20
286.191889
 30
0.0
 10
149.319940
 20
286.191889
 30
0.0
  0
LWPOLYLINE
  5
320
100
AcDbEntity
  8
View003
 62
7
100
AcDbPolyline
 90
2
 70
0
 10
154.819943
 20
279.691897
 30
0.0
 10
158.569940
 20
279.691897
 30
0.0
  0
LWPOLYLINE
  5
321
100
AcDbEntity
  8
View003
 62
7
100
AcDbPolyline
 90
2
 70
0
 10
148.319942
 20
286.191889
 30
0.0
 10
148.319942
 20
289.941882
 30
0.0
  0
LWPOLYLINE
  5
322
100
AcDbEntity
  8
View003
 62
7
100
AcDbPolyline
 90
2
 70
0
 10
158.569940
 20
289.941882
 30
0.0
 10
158.569940
 20
279.691897
 30
0.0
  0
LWPOLYLINE
  5
323
100
AcDbEntity
  8
View003
 62
7
100
AcDbPolyline
 90
2
 70
0
 10
148.319942
 20
289.941882
 30
0.0
 10
158.569940
 20
289.941882
 30
0.0
  0
LWPOLYLINE
  5
324
100
AcDbEntity
  8
View003
 62
7
100
AcDbPolyline
 90
2
 70
0
 10
171.890658
 20
287.056706
 30
0.0
 10
169.446758
 20
288.737207
 30
0.0
  0
LWPOLYLINE
  5
325
100
AcDbEntity
  8
View003
 62
7
100
AcDbPolyline
 90
2
 70
0
 10
171.890658
 20
284.090806
 30
0.0
 10
171.890658
 20
287.056706
 30
0.0
  0
LWPOLYLINE
  5
326
100
AcDbEntity
  8
View003
 62
7
100
AcDbPolyline
 90
2
 70
0
 10
169.274257
 20
282.714603
 30
0.0
 10
171.890658
 20
284.090806
 30
0.0
  0
LWPOLYLINE
  5
327
100
AcDbEntity
  8
View003
 62
7
100
AcDbPolyline
 90
2
 70
0
 10
166.830356
 20
284.395210
 30
0.0
 10
169.274257
 20
282.714603
 30
0.0
  0
LWPOLYLINE
  5
328
100
AcDbEntity
  8
View003
 62
7
100
AcDbPolyline
 90
2
 70
0
 10
166.830356
 20
287.361109
 30
0.0
 10
166.830356
 20
284.395210
 30
0.0
  0
LWPOLYLINE
  5
329
100
AcDbEntity
  8
View003
 62
7
100
AcDbPolyline
 90
2
 70
0
 10
169.446758
 20
288.737207
 30
0.0
 10
166.830356
 20
287.361109
 30
0.0
  0
LWPOLYLINE
  5
32a
100
AcDbEntity
  8
View003
 62
7
100
AcDbPolyline
 90
4
 70
0
 10
164.235458
 20
286.100925
 30
0.0
 10
164.235458
 20
283.350926
 30
0.0
 10
163.235457
 20
283.350926
 30
0.0
 10
163.235457
 20
279.600907
 30
0.0
  0
LWPOLYLINE
  5
32b
100
AcDbEntity
  8
View003
 62
7
100
AcDbPolyline
 90
2
 70
0
 10
166.985458
 20
279.600907
 30
0.0
 10
163.235457
 20
279.600907
 30
0.0
  0
LWPOLYLINE
  5
32c
100
AcDbEntity
  8
View003
 62
7
100
AcDbPolyline
 90
2
 70
0
 10
166.985458
 20
280.600926
 30
0.0
 10
166.985458
 20
279.600907
 30
0.0
  0
LWPOLYLINE
  5
32d
100
AcDbEntity
  8
View003
 62
7
100
AcDbPolyline
 90
2
 70
0
 10
169.735458
 20
280.600926
 30
0.0
 10
166.985458
 20
280.600926
 30
0.0
  0
LWPOLYLINE
  5
32e
100
AcDbEntity
  8
View003
 62
7
100
AcDbPolyline
 90
2
 70
0
 10
169.735458
 20
279.600907
 30
0.0
 10
169.735458
 20
280.600926
 30
0.0
  0
LWPOLYLINE
  5
32f
100
AcDbEntity
  8
View003
 62
7
100
AcDbPolyline
 90
2
 70
0
 10
173.485458
 20
279.600907
 30
0.0
 10
169.735458
 20
279.600907
 30
0.0
  0
LWPOLYLINE
  5
330
100
AcDbEntity
  8
View003
 62
7
100
AcDbPolyline
 90
2
 70
0
 10
173.485458
 20
289.850918
 30
0.0
 10
173.485458
 20
279.600907
 30
0.0
  0
LWPOLYLINE
  5
331
100
AcDbEntity
  8
View003
 62
7
100
AcDbPolyline
 90
2
 70
0
 10
173.485458
 20
289.850918
 30
0.0
 10
163.235457
 20
289.850918
 30
0.0
  0
LWPOLYLINE
  5
332
100
AcDbEntity
  8
View003
 62
7
100
AcDbPolyline
 90
2
 70
0
 10
163.235457
 20
286.100925
 30
0.0
 10
163.235457
 20
289.850918
 30
0.0
  0
LWPOLYLINE
  5
333
100
AcDbEntity
  8
View003
 62
7
100
AcDbPolyline
 90
2
 70
0
 10
164.235458
 20
286.100925
 30
0.0
 10
163.235457
 20
286.100925
 30
0.0
  0
LWPOLYLINE
  5
334
100
AcDbEntity
  8
View003
 62
7
100
AcDbPolyline
 90
2
 70
0
 10
183.078604
 20
267.734001
 30
0.0
 10
183.029106
 20
267.342021
 30
0.0
  0
LWPOLYLINE
  5
335
100
AcDbEntity
  8
View003
 62
7
100
AcDbPolyline
 90
2
 70
0
 10
183.224006
 20
268.101004
 30
0.0
 10
183.078604
 20
267.734001
 30
0.0
  0
LWPOLYLINE
  5
336
100
AcDbEntity
  8
View003
 62
7
100
AcDbPolyline
 90
2
 70
0
 10
183.456006
 20
268.420013
 30
0.0
 10
183.224006
 20
268.101004
 30
0.0
  0
LWPOLYLINE
  5
337
100
AcDbEntity
  8
View003
 62
7
100
AcDbPolyline
 90
2
 70
0
 10
183.760205
 20
268.672108
 30
0.0
 10
183.456006
 20
268.420013
 30
0.0
  0
LWPOLYLINE
  5
338
100
AcDbEntity
  8
View003
 62
7
100
AcDbPolyline
 90
2
 70
0
 10
184.117406
 20
268.840197
 30
0.0
 10
183.760205
 20
268.672108
 30
0.0
  0
LWPOLYLINE
  5
339
100
AcDbEntity
  8
View003
 62
7
100
AcDbPolyline
 90
2
 70
0
 10
184.505206
 20
268.914201
 30
0.0
 10
184.117406
 20
268.840197
 30
0.0
  0
LWPOLYLINE
  5
33a
100
AcDbEntity
  8
View003
 62
7
100
AcDbPolyline
 90
2
 70
0
 10
184.899305
 20
268.889410
 30
0.0
 10
184.505206
 20
268.914281
 30
0.0
  0
LWPOLYLINE
  5
33b
100
AcDbEntity
  8
View003
 62
7
100
AcDbPolyline
 90
2
 70
0
 10
185.274704
 20
268.767411
 30
0.0
 10
184.899305
 20
268.889410
 30
0.0
  0
LWPOLYLINE
  5
33c
100
AcDbEntity
  8
View003
 62
7
100
AcDbPolyline
 90
2
 70
0
 10
185.608106
 20
268.556008
 30
0.0
 10
185.274704
 20
268.767411
 30
0.0
  0
LWPOLYLINE
  5
33d
100
AcDbEntity
  8
View003
 62
7
100
AcDbPolyline
 90
2
 70
0
 10
185.878306
 20
268.268009
 30
0.0
 10
185.608106
 20
268.556008
 30
0.0
  0
LWPOLYLINE
  5
33e
100
AcDbEntity
  8
View003
 62
7
100
AcDbPolyline
 90
2
 70
0
 10
186.068504
 20
267.922014
 30
0.0
 10
185.878306
 20
268.268009
 30
0.0
  0
LWPOLYLINE
  5
33f
100
AcDbEntity
  8
View003
 62
7
100
AcDbPolyline
 90
2
 70
0
 10
186.166704
 20
267.540008
 30
0.0
 10
186.068504
 20
267.922014
 30
0.0
  0
LWPOLYLINE
  5
340
100
AcDbEntity
  8
View003
 62
7
100
AcDbPolyline
 90
2
 70
0
 10
186.166704
 20
267.145012
 30
0.0
 10
186.166704
 20
267.540008
 30
0.0
  0
LWPOLYLINE
  5
341
100
AcDbEntity
  8
View003
 62
7
100
AcDbPolyline
 90
2
 70
0
 10
186.068504
 20
266.763007
 30
0.0
 10
186.166704
 20
267.145012
 30
0.0
  0
LWPOLYLINE
  5
342
100
AcDbEntity
  8
View003
 62
7
100
AcDbPolyline
 90
2
 70
0
 10
185.878306
 20
266.417011
 30
0.0
 10
186.068504
 20
266.763007
 30
0.0
  0
LWPOLYLINE
  5
343
100
AcDbEntity
  8
View003
 62
7
100
AcDbPolyline
 90
2
 70
0
 10
185.608106
 20
266.129012
 30
0.0
 10
185.878306
 20
266.417011
 30
0.0
  0
LWPOLYLINE
  5
344
100
AcDbEntity
  8
View003
 62
7
100
AcDbPolyline
 90
2
 70
0
 10
185.274704
 20
265.917001
 30
0.0
 10
185.608106
 20
266.129012
 30
0.0
  0
LWPOLYLINE
  5
345
100
AcDbEntity
  8
View003
 62
7
100
AcDbPolyline
 90
2
 70
0
 10
184.899305
 20
265.795002
 30
0.0
 10
185.274704
 20
265.917001
 30
0.0
  0
LWPOLYLINE
  5
346
100
AcDbEntity
  8
View003
 62
7
100
AcDbPolyline
 90
2
 70
0
 10
184.505206
 20
265.769999
 30
0.0
 10
184.899305
 20
265.795134
 30
0.0
  0
LWPOLYLINE
  5
347
100
AcDbEntity
  8
View003
 62
7
100
AcDbPolyline
 90
2
 70
0
 10
184.117406
 20
265.844003
 30
0.0
 10
184.505206
 20
265.769999
 30
0.0
  0
LWPOLYLINE
  5
348
100
AcDbEntity
  8
View003
 62
7
100
AcDbPolyline
 90
2
 70
0
 10
183.760205
 20
266.012013
 30
0.0
 10
184.117406
 20
265.844003
 30
0.0
  0
LWPOLYLINE
  5
349
100
AcDbEntity
  8
View003
 62
7
100
AcDbPolyline
 90
2
 70
0
 10
183.456006
 20
266.264002
 30
0.0
 10
183.760205
 20
266.012013
 30
0.0
  0
LWPOLYLINE
  5
34a
100
AcDbEntity
  8
View003
 62
7
100
AcDbPolyline
 90
2
 70
0
 10
183.224006
 20
266.584016
 30
0.0
 10
183.456006
 20
266.264002
 30
0.0
  0
LWPOLYLINE
  5
34b
100
AcDbEntity
  8
View003
 62
7
100
AcDbPolyline
 90
2
 70
0
 10
183.078604
 20
266.951019
 30
0.0
 10
183.224006
 20
266.584016
 30
0.0
  0
LWPOLYLINE
  5
34c
100
AcDbEntity
  8
View003
 62
7
100
AcDbPolyline
 90
2
 70
0
 10
183.029106
 20
267.342021
 30
0.0
 10
183.078604
 20
266.951019
 30
0.0
  0
LWPOLYLINE
  5
34d
100
AcDbEntity
  8
View003
 62
7
100
AcDbPolyline
 90
3
 70
0
 10
191.729106
 20
261.216996
 30
0.0
 10
188.604104
 20
261.216996
 30
0.0
 10
184.979106
 20
261.216996
 30
0.0
  0
LWPOLYLINE
  5
34e
100
AcDbEntity
  8
View003
 62
7
100
AcDbPolyline
 90
2
 70
0
 10
184.979106
 20
262.217015
 30
0.0
 10
184.979106
 20
261.216996
 30
0.0
  0
LWPOLYLINE
  5
34f
100
AcDbEntity
  8
View003
 62
7
100
AcDbPolyline
 90
2
 70
0
 10
182.229106
 20
262.217015
 30
0.0
 10
184.979106
 20
262.217015
 30
0.0
  0
LWPOLYLINE
  5
350
100
AcDbEntity
  8
View003
 62
7
100
AcDbPolyline
 90
2
 70
0
 10
182.229106
 20
261.216996
 30
0.0
 10
182.229106
 20
262.217015
 30
0.0
  0
LWPOLYLINE
  5
351
100
AcDbEntity
  8
View003
 62
7
100
AcDbPolyline
 90
3
 70
0
 10
182.229106
 20
261.216996
 30
0.0
 10
178.479106
 20
261.216996
 30
0.0
 10
178.479106
 20
264.967015
 30
0.0
  0
LWPOLYLINE
  5
352
100
AcDbEntity
  8
View003
 62
7
100
AcDbPolyline
 90
2
 70
0
 10
179.479104
 20
264.967015
 30
0.0
 10
178.479106
 20
264.967015
 30
0.0
  0
LWPOLYLINE
  5
353
100
AcDbEntity
  8
View003
 62
7
100
AcDbPolyline
 90
2
 70
0
 10
179.479104
 20
267.717015
 30
0.0
 10
179.479104
 20
264.967015
 30
0.0
  0
LWPOLYLINE
  5
354
100
AcDbEntity
  8
View003
 62
7
100
AcDbPolyline
 90
2
 70
0
 10
178.479106
 20
267.717015
 30
0.0
 10
179.479104
 20
267.717015
 30
0.0
  0
LWPOLYLINE
  5
355
100
AcDbEntity
  8
View003
 62
7
100
AcDbPolyline
 90
2
 70
0
 10
178.479106
 20
267.717015
 30
0.0
 10
178.479106
 20
271.342308
 30
0.0
  0
LWPOLYLINE
  5
356
100
AcDbEntity
  8
View003
 62
7
100
AcDbPolyline
 90
2
 70
0
 10
178.479106
 20
274.467302
 30
0.0
 10
178.479106
 20
271.342308
 30
0.0
  0
LWPOLYLINE
  5
357
100
AcDbEntity
  8
View003
 62
7
100
AcDbPolyline
 90
2
 70
0
 10
191.729106
 20
271.467297
 30
0.0
 10
191.729106
 20
261.216996
 30
0.0
  0
LWPOLYLINE
  5
358
100
AcDbEntity
  8
View003
 62
7
100
AcDbPolyline
 90
2
 70
0
 10
178.479106
 20
274.467302
 30
0.0
 10
188.729104
 20
274.467302
 30
0.0
  0
LWPOLYLINE
  5
359
100
AcDbEntity
  8
View003
 62
7
100
AcDbPolyline
 90
2
 70
0
 10
191.729106
 20
271.467297
 30
0.0
 10
188.729104
 20
271.467297
 30
0.0
  0
LWPOLYLINE
  5
35a
100
AcDbEntity
  8
View003
 62
7
100
AcDbPolyline
 90
2
 70
0
 10
188.729104
 20
274.467302
 30
0.0
 10
188.729104
 20
271.467297
 30
0.0
  0
LWPOLYLINE
  5
35b
100
AcDbEntity
  8
View003
 62
7
100
AcDbPolyline
 90
9
 70
1
 10
199.697393
 20
273.974833
 30
0.0
 10
203.822393
 20
273.974833
 30
0.0
 10
203.822393
 20
255.724828
 30
0.0
 10
196.272393
 20
255.724828
 30
0.0
 10
196.272393
 20
259.974830
 30
0.0
 10
199.572393
 20
259.974830
 30
0.0
 10
199.572393
 20
268.724839
 30
0.0
 10
196.272393
 20
268.724839
 30
0.0
 10
196.272393
 20
273.974833
 30
0.0
  0
LWPOLYLINE
  5
35c
100
AcDbEntity
  8
View003
 62
7
100
AcDbPolyline
 90
2
 70
0
 10
183.206334
 20
285.690848
 30
0.0
 10
183.156836
 20
286.082563
 30
0.0
  0
LWPOLYLINE
  5
35d
100
AcDbEntity
  8
View003
 62
7
100
AcDbPolyline
 90
2
 70
0
 10
183.351636
 20
285.323844
 30
0.0
 10
183.206334
 20
285.690848
 30
0.0
  0
LWPOLYLINE
  5
35e
100
AcDbEntity
  8
View003
 62
7
100
AcDbPolyline
 90
2
 70
0
 10
183.583636
 20
285.004466
 30
0.0
 10
183.351636
 20
285.323844
 30
0.0
  0
LWPOLYLINE
  5
35f
100
AcDbEntity
  8
View003
 62
7
100
AcDbPolyline
 90
2
 70
0
 10
183.887835
 20
284.752741
 30
0.0
 10
183.583636
 20
285.004466
 30
0.0
  0
LWPOLYLINE
  5
360
100
AcDbEntity
  8
View003
 62
7
100
AcDbPolyline
 90
2
 70
0
 10
184.245136
 20
284.584651
 30
0.0
 10
183.887835
 20
284.752741
 30
0.0
  0
LWPOLYLINE
  5
361
100
AcDbEntity
  8
View003
 62
7
100
AcDbPolyline
 90
2
 70
0
 10
184.632936
 20
284.510647
 30
0.0
 10
184.245136
 20
284.584651
 30
0.0
  0
LWPOLYLINE
  5
362
100
AcDbEntity
  8
View003
 62
7
100
AcDbPolyline
 90
2
 70
0
 10
185.026935
 20
284.535465
 30
0.0
 10
184.632936
 20
284.510594
 30
0.0
  0
LWPOLYLINE
  5
363
100
AcDbEntity
  8
View003
 62
7
100
AcDbPolyline
 90
2
 70
0
 10
185.402434
 20
284.657465
 30
0.0
 10
185.026935
 20
284.535465
 30
0.0
  0
LWPOLYLINE
  5
364
100
AcDbEntity
  8
View003
 62
7
100
AcDbPolyline
 90
2
 70
0
 10
185.735735
 20
284.869052
 30
0.0
 10
185.402434
 20
284.657465
 30
0.0
  0
LWPOLYLINE
  5
365
100
AcDbEntity
  8
View003
 62
7
100
AcDbPolyline
 90
2
 70
0
 10
186.006036
 20
285.156866
 30
0.0
 10
185.735735
 20
284.869052
 30
0.0
  0
LWPOLYLINE
  5
366
100
AcDbEntity
  8
View003
 62
7
100
AcDbPolyline
 90
2
 70
0
 10
186.196235
 20
285.502755
 30
0.0
 10
186.006036
 20
285.156866
 30
0.0
  0
LWPOLYLINE
  5
367
100
AcDbEntity
  8
View003
 62
7
100
AcDbPolyline
 90
2
 70
0
 10
186.294435
 20
285.885158
 30
0.0
 10
186.196235
 20
285.502755
 30
0.0
  0
LWPOLYLINE
  5
368
100
AcDbEntity
  8
View003
 62
7
100
AcDbPolyline
 90
2
 70
0
 10
186.294435
 20
286.279942
 30
0.0
 10
186.294435
 20
285.885158
 30
0.0
  0
LWPOLYLINE
  5
369
100
AcDbEntity
  8
View003
 62
7
100
AcDbPolyline
 90
2
 70
0
 10
186.196235
 20
286.662345
 30
0.0
 10
186.294435
 20
286.279942
 30
0.0
  0
LWPOLYLINE
  5
36a
100
AcDbEntity
  8
View003
 62
7
100
AcDbPolyline
 90
2
 70
0
 10
186.006036
 20
287.008340
 30
0.0
 10
186.196235
 20
286.662345
 30
0.0
  0
LWPOLYLINE
  5
36b
100
AcDbEntity
  8
View003
 62
7
100
AcDbPolyline
 90
2
 70
0
 10
185.735735
 20
287.296154
 30
0.0
 10
186.006036
 20
287.008340
 30
0.0
  0
LWPOLYLINE
  5
36c
100
AcDbEntity
  8
View003
 62
7
100
AcDbPolyline
 90
2
 70
0
 10
185.402434
 20
287.507662
 30
0.0
 10
185.735735
 20
287.296154
 30
0.0
  0
LWPOLYLINE
  5
36d
100
AcDbEntity
  8
View003
 62
7
100
AcDbPolyline
 90
2
 70
0
 10
185.026935
 20
287.629661
 30
0.0
 10
185.402434
 20
287.507662
 30
0.0
  0
LWPOLYLINE
  5
36e
100
AcDbEntity
  8
View003
 62
7
100
AcDbPolyline
 90
2
 70
0
 10
184.632936
 20
287.654453
 30
0.0
 10
185.026935
 20
287.629582
 30
0.0
  0
LWPOLYLINE
  5
36f
100
AcDbEntity
  8
View003
 62
7
100
AcDbPolyline
 90
2
 70
0
 10
184.245136
 20
287.580449
 30
0.0
 10
184.632936
 20
287.654453
 30
0.0
  0
LWPOLYLINE
  5
370
100
AcDbEntity
  8
View003
 62
7
100
AcDbPolyline
 90
2
 70
0
 10
183.887835
 20
287.412359
 30
0.0
 10
184.245136
 20
287.580449
 30
0.0
  0
LWPOLYLINE
  5
371
100
AcDbEntity
  8
View003
 62
7
100
AcDbPolyline
 90
2
 70
0
 10
183.583636
 20
287.160740
 30
0.0
 10
183.887835
 20
287.412359
 30
0.0
  0
LWPOLYLINE
  5
372
100
AcDbEntity
  8
View003
 62
7
100
AcDbPolyline
 90
2
 70
0
 10
183.351636
 20
286.841362
 30
0.0
 10
183.583636
 20
287.160740
 30
0.0
  0
LWPOLYLINE
  5
373
100
AcDbEntity
  8
View003
 62
7
100
AcDbPolyline
 90
2
 70
0
 10
183.206334
 20
286.474252
 30
0.0
 10
183.351636
 20
286.841362
 30
0.0
  0
LWPOLYLINE
  5
374
100
AcDbEntity
  8
View003
 62
7
100
AcDbPolyline
 90
2
 70
0
 10
183.156836
 20
286.082563
 30
0.0
 10
183.206334
 20
286.474252
 30
0.0
  0
LWPOLYLINE
  5
375
100
AcDbEntity
  8
View003
 62
7
100
AcDbPolyline
 90
2
 70
0
 10
185.106837
 20
280.957558
 30
0.0
 10
185.106837
 20
279.957565
 30
0.0
  0
LWPOLYLINE
  5
376
100
AcDbEntity
  8
View003
 62
7
100
AcDbPolyline
 90
2
 70
0
 10
182.356837
 20
280.957558
 30
0.0
 10
185.106837
 20
280.957558
 30
0.0
  0
LWPOLYLINE
  5
377
100
AcDbEntity
  8
View003
 62
7
100
AcDbPolyline
 90
2
 70
0
 10
182.356837
 20
279.957565
 30
0.0
 10
182.356837
 20
280.957558
 30
0.0
  0
LWPOLYLINE
  5
378
100
AcDbEntity
  8
View003
 62
7
100
AcDbPolyline
 90
2
 70
0
 10
178.606836
 20
279.957565
 30
0.0
 10
182.356837
 20
279.957565
 30
0.0
  0
LWPOLYLINE
  5
379
100
AcDbEntity
  8
View003
 62
7
100
AcDbPolyline
 90
2
 70
0
 10
178.606836
 20
283.707557
 30
0.0
 10
178.606836
 20
279.957565
 30
0.0
  0
LWPOLYLINE
  5
37a
100
AcDbEntity
  8
View003
 62
7
100
AcDbPolyline
 90
2
 70
0
 10
179.606834
 20
283.707557
 30
0.0
 10
178.606836
 20
283.707557
 30
0.0
  0
LWPOLYLINE
  5
37b
100
AcDbEntity
  8
View003
 62
7
100
AcDbPolyline
 90
2
 70
0
 10
179.606834
 20
286.457557
 30
0.0
 10
179.606834
 20
283.707557
 30
0.0
  0
LWPOLYLINE
  5
37c
100
AcDbEntity
  8
View003
 62
7
100
AcDbPolyline
 90
2
 70
0
 10
178.606836
 20
286.457557
 30
0.0
 10
179.606834
 20
286.457557
 30
0.0
  0
LWPOLYLINE
  5
37d
100
AcDbEntity
  8
View003
 62
7
100
AcDbPolyline
 90
2
 70
0
 10
185.106837
 20
279.957565
 30
0.0
 10
188.856834
 20
279.957565
 30
0.0
  0
LWPOLYLINE
  5
37e
100
AcDbEntity
  8
View003
 62
7
100
AcDbPolyline
 90
2
 70
0
 10
178.606836
 20
286.457557
 30
0.0
 10
178.606836
 20
290.207550
 30
0.0
  0
LWPOLYLINE
  5
37f
100
AcDbEntity
  8
View003
 62
7
100
AcDbPolyline
 90
2
 70
0
 10
188.856834
 20
290.207550
 30
0.0
 10
188.856834
 20
279.957565
 30
0.0
  0
LWPOLYLINE
  5
380
100
AcDbEntity
  8
View003
 62
7
100
AcDbPolyline
 90
2
 70
0
 10
178.606836
 20
290.207550
 30
0.0
 10
188.856834
 20
290.207550
 30
0.0
  0
LWPOLYLINE
  5
381
100
AcDbEntity
  8
View003
 62
7
100
AcDbPolyline
 90
2
 70
0
 10
202.177552
 20
287.322374
 30
0.0
 10
199.733651
 20
289.002875
 30
0.0
  0
LWPOLYLINE
  5
382
100
AcDbEntity
  8
View003
 62
7
100
AcDbPolyline
 90
2
 70
0
 10
202.177552
 20
284.356475
 30
0.0
 10
202.177552
 20
287.322374
 30
0.0
  0
LWPOLYLINE
  5
383
100
AcDbEntity
  8
View003
 62
7
100
AcDbPolyline
 90
2
 70
0
 10
199.561151
 20
282.980271
 30
0.0
 10
202.177552
 20
284.356475
 30
0.0
  0
LWPOLYLINE
  5
384
100
AcDbEntity
  8
View003
 62
7
100
AcDbPolyline
 90
2
 70
0
 10
197.117250
 20
284.660878
 30
0.0
 10
199.561151
 20
282.980271
 30
0.0
  0
LWPOLYLINE
  5
385
100
AcDbEntity
  8
View003
 62
7
100
AcDbPolyline
 90
2
 70
0
 10
197.117250
 20
287.626777
 30
0.0
 10
197.117250
 20
284.660878
 30
0.0
  0
LWPOLYLINE
  5
386
100
AcDbEntity
  8
View003
 62
7
100
AcDbPolyline
 90
2
 70
0
 10
199.733651
 20
289.002875
 30
0.0
 10
197.117250
 20
287.626777
 30
0.0
  0
LWPOLYLINE
  5
387
100
AcDbEntity
  8
View003
 62
7
100
AcDbPolyline
 90
4
 70
0
 10
194.522352
 20
286.366593
 30
0.0
 10
194.522352
 20
283.616594
 30
0.0
 10
193.522351
 20
283.616594
 30
0.0
 10
193.522351
 20
279.866575
 30
0.0
  0
LWPOLYLINE
  5
388
100
AcDbEntity
  8
View003
 62
7
100
AcDbPolyline
 90
2
 70
0
 10
197.272352
 20
279.866575
 30
0.0
 10
193.522351
 20
279.866575
 30
0.0
  0
LWPOLYLINE
  5
389
100
AcDbEntity
  8
View003
 62
7
100
AcDbPolyline
 90
2
 70
0
 10
197.272352
 20
280.866594
 30
0.0
 10
197.272352
 20
279.866575
 30
0.0
  0
LWPOLYLINE
  5
38a
100
AcDbEntity
  8
View003
 62
7
100
AcDbPolyline
 90
2
 70
0
 10
200.022352
 20
280.866594
 30
0.0
 10
197.272352
 20
280.866594
 30
0.0
  0
LWPOLYLINE
  5
38b
100
AcDbEntity
  8
View003
 62
7
100
AcDbPolyline
 90
2
 70
0
 10
200.022352
 20
279.866575
 30
0.0
 10
200.022352
 20
280.866594
 30
0.0
  0
LWPOLYLINE
  5
38c
100
AcDbEntity
  8
View003
 62
7
100
AcDbPolyline
 90
2
 70
0
 10
203.772352
 20
279.866575
 30
0.0
 10
200.022352
 20
279.866575
 30
0.0
  0
LWPOLYLINE
  5
38d
100
AcDbEntity
  8
View003
 62
7
100
AcDbPolyline
 90
2
 70
0
 10
203.772352
 20
290.116586
 30
0.0
 10
203.772352
 20
279.866575
 30
0.0
  0
LWPOLYLINE
  5
38e
100
AcDbEntity
  8
View003
 62
7
100
AcDbPolyline
 90
2
 70
0
 10
203.772352
 20
290.116586
 30
0.0
 10
193.522351
 20
290.116586
 30
0.0
  0
LWPOLYLINE
  5
38f
100
AcDbEntity
  8
View003
 62
7
100
AcDbPolyline
 90
2
 70
0
 10
193.522351
 20
286.366593
 30
0.0
 10
193.522351
 20
290.116586
 30
0.0
  0
LWPOLYLINE
  5
390
100
AcDbEntity
  8
View003
 62
7
100
AcDbPolyline
 90
2
 70
0
 10
194.522352
 20
286.366593
 30
0.0
 10
193.522351
 20
286.366593
 30
0.0
  0
LWPOLYLINE
  5
391
100
AcDbEntity
  8
View003
 62
7
100
AcDbPolyline
 90
2
 70
0
 10
9.822162
 20
265.461841
 30
0.0
 10
12.572162
 20
265.461841
 30
0.0
  0
LWPOLYLINE
  5
392
100
AcDbEntity
  8
View003
 62
7
100
AcDbPolyline
 90
2
 70
0
 10
9.822162
 20
262.711839
 30
0.0
 10
9.822162
 20
265.461841
 30
0.0
  0
LWPOLYLINE
  5
393
100
AcDbEntity
  8
View003
 62
7
100
AcDbPolyline
 90
2
 70
0
 10
12.572162
 20
262.711839
 30
0.0
 10
9.822162
 20
262.711839
 30
0.0
  0
LWPOLYLINE
  5
394
100
AcDbEntity
  8
View003
 62
7
100
AcDbPolyline
 90
2
 70
0
 10
12.572162
 20
265.461841
 30
0.0
 10
12.572162
 20
262.711839
 30
0.0
  0
LWPOLYLINE
  5
395
100
AcDbEntity
  8
View003
 62
7
100
AcDbPolyline
 90
2
 70
0
 10
9.822162
 20
253.461841
 30
0.0
 10
12.572162
 20
253.461841
 30
0.0
  0
LWPOLYLINE
  5
396
100
AcDbEntity
  8
View003
 62
7
100
AcDbPolyline
 90
2
 70
0
 10
9.822162
 20
250.711842
 30
0.0
 10
9.822162
 20
253.461841
 30
0.0
  0
LWPOLYLINE
  5
397
100
AcDbEntity
  8
View003
 62
7
100
AcDbPolyline
 90
2
 70
0
 10
12.572162
 20
250.711842
 30
0.0
 10
9.822162
 20
250.711842
 30
0.0
  0
LWPOLYLINE
  5
398
100
AcDbEntity
  8
View003
 62
7
100
AcDbPolyline
 90
2
 70
0
 10
12.572162
 20
253.461841
 30
0.0
 10
12.572162
 20
250.711842
 30
0.0
  0
LWPOLYLINE
  5
399
100
AcDbEntity
  8
View003
 62
7
100
AcDbPolyline
 90
2
 70
0
 10
27.033149
 20
259.249840
 30
0.0
 10
29.729147
 20
259.788839
 30
0.0
  0
LWPOLYLINE
  5
39a
100
AcDbEntity
  8
View003
 62
7
100
AcDbPolyline
 90
2
 70
0
 10
28.160168
 20
253.611842
 30
0.0
 10
27.033149
 20
259.249840
 30
0.0
  0
LWPOLYLINE
  5
39b
100
AcDbEntity
  8
View003
 62
7
100
AcDbPolyline
 90
2
 70
0
 10
30.857145
 20
254.150840
 30
0.0
 10
28.160168
 20
253.611842
 30
0.0
  0
LWPOLYLINE
  5
39c
100
AcDbEntity
  8
View003
 62
7
100
AcDbPolyline
 90
2
 70
0
 10
29.729147
 20
259.788839
 30
0.0
 10
30.857145
 20
254.150840
 30
0.0
  0
LWPOLYLINE
  5
39d
100
AcDbEntity
  8
View003
 62
7
100
AcDbPolyline
 90
2
 70
0
 10
23.502152
 20
276.900839
 30
0.0
 10
26.199156
 20
277.439840
 30
0.0
  0
LWPOLYLINE
  5
39e
100
AcDbEntity
  8
View003
 62
7
100
AcDbPolyline
 90
2
 70
0
 10
25.022157
 20
269.300840
 30
0.0
 10
23.502152
 20
276.900839
 30
0.0
  0
LWPOLYLINE
  5
39f
100
AcDbEntity
  8
View003
 62
7
100
AcDbPolyline
 90
2
 70
0
 10
27.719160
 20
269.839841
 30
0.0
 10
25.022157
 20
269.300840
 30
0.0
  0
LWPOLYLINE
  5
3a0
100
AcDbEntity
  8
View003
 62
7
100
AcDbPolyline
 90
2
 70
0
 10
26.199156
 20
277.439840
 30
0.0
 10
27.719160
 20
269.839841
 30
0.0
  0
LWPOLYLINE
  5
3a1
100
AcDbEntity
  8
View003
 62
7
100
AcDbPolyline
 90
2
 70
0
 10
29.697159
 20
245.461842
 30
0.0
 10
32.697163
 20
245.461842
 30
0.0
  0
LWPOLYLINE
  5
3a2
100
AcDbEntity
  8
View003
 62
7
100
AcDbPolyline
 90
2
 70
0
 10
15.572166
 20
245.461842
 30
0.0
 10
29.697159
 20
245.461842
 30
0.0
  0
LWPOLYLINE
  5
3a3
100
AcDbEntity
  8
View003
 62
7
100
AcDbPolyline
 90
10
 70
0
 10
15.572166
 20
245.461842
 30
0.0
 10
15.572166
 20
247.461840
 30
0.0
 10
6.572153
 20
247.461840
 30
0.0
 10
6.572153
 20
256.711840
 30
0.0
 10
15.572166
 20
256.711840
 30
0.0
 10
15.572166
 20
259.461840
 30
0.0
 10
6.572153
 20
259.461840
 30
0.0
 10
6.572153
 20
268.711840
 30
0.0
 10
15.572166
 20
268.711840
 30
0.0
 10
15.572166
 20
285.711840
 30
0.0
  0
LWPOLYLINE
  5
3a4
100
AcDbEntity
  8
View003
 62
7
100
AcDbPolyline
 90
2
 70
0
 10
21.697165
 20
285.711840
 30
0.0
 10
15.572166
 20
285.711840
 30
0.0
  0
LWPOLYLINE
  5
3a5
100
AcDbEntity
  8
View003
 62
7
100
AcDbPolyline
 90
2
 70
0
 10
24.697170
 20
285.711840
 30
0.0
 10
21.697165
 20
285.711840
 30
0.0
  0
LWPOLYLINE
  5
3a6
100
AcDbEntity
  8
View003
 62
7
100
AcDbPolyline
 90
2
 70
0
 10
27.800149
 20
285.711840
 30
0.0
 10
24.697170
 20
285.711840
 30
0.0
  0
LWPOLYLINE
  5
3a7
100
AcDbEntity
  8
View003
 62
7
100
AcDbPolyline
 90
2
 70
0
 10
35.850150
 20
245.461842
 30
0.0
 10
27.800149
 20
285.711840
 30
0.0
  0
LWPOLYLINE
  5
3a8
100
AcDbEntity
  8
View003
 62
7
100
AcDbPolyline
 90
2
 70
0
 10
32.697163
 20
245.461842
 30
0.0
 10
35.850150
 20
245.461842
 30
0.0
  0
LWPOLYLINE
  5
3a9
100
AcDbEntity
  8
View003
 62
7
100
AcDbPolyline
 90
2
 70
0
 10
9.822162
 20
218.374707
 30
0.0
 10
12.572162
 20
218.374707
 30
0.0
  0
LWPOLYLINE
  5
3aa
100
AcDbEntity
  8
View003
 62
7
100
AcDbPolyline
 90
2
 70
0
 10
9.822162
 20
215.624708
 30
0.0
 10
9.822162
 20
218.374707
 30
0.0
  0
LWPOLYLINE
  5
3ab
100
AcDbEntity
  8
View003
 62
7
100
AcDbPolyline
 90
2
 70
0
 10
12.572162
 20
215.624708
 30
0.0
 10
9.822162
 20
215.624708
 30
0.0
  0
LWPOLYLINE
  5
3ac
100
AcDbEntity
  8
View003
 62
7
100
AcDbPolyline
 90
2
 70
0
 10
12.572162
 20
218.374707
 30
0.0
 10
12.572162
 20
215.624708
 30
0.0
  0
LWPOLYLINE
  5
3ad
100
AcDbEntity
  8
View003
 62
7
100
AcDbPolyline
 90
2
 70
0
 10
9.822162
 20
206.374708
 30
0.0
 10
12.572162
 20
206.374708
 30
0.0
  0
LWPOLYLINE
  5
3ae
100
AcDbEntity
  8
View003
 62
7
100
AcDbPolyline
 90
2
 70
0
 10
9.822162
 20
203.624708
 30
0.0
 10
9.822162
 20
206.374708
 30
0.0
  0
LWPOLYLINE
  5
3af
100
AcDbEntity
  8
View003
 62
7
100
AcDbPolyline
 90
2
 70
0
 10
12.572162
 20
203.624708
 30
0.0
 10
9.822162
 20
203.624708
 30
0.0
  0
LWPOLYLINE
  5
3b0
100
AcDbEntity
  8
View003
 62
7
100
AcDbPolyline
 90
2
 70
0
 10
12.572162
 20
206.374708
 30
0.0
 10
12.572162
 20
203.624708
 30
0.0
  0
LWPOLYLINE
  5
3b1
100
AcDbEntity
  8
View003
 62
7
100
AcDbPolyline
 90
2
 70
0
 10
27.033149
 20
212.162706
 30
0.0
 10
29.729147
 20
212.701707
 30
0.0
  0
LWPOLYLINE
  5
3b2
100
AcDbEntity
  8
View003
 62
7
100
AcDbPolyline
 90
2
 70
0
 10
28.160168
 20
206.524708
 30
0.0
 10
27.033149
 20
212.162706
 30
0.0
  0
LWPOLYLINE
  5
3b3
100
AcDbEntity
  8
View003
 62
7
100
AcDbPolyline
 90
2
 70
0
 10
30.857145
 20
207.063706
 30
0.0
 10
28.160168
 20
206.524708
 30
0.0
  0
LWPOLYLINE
  5
3b4
100
AcDbEntity
  8
View003
 62
7
100
AcDbPolyline
 90
2
 70
0
 10
29.729147
 20
212.701707
 30
0.0
 10
30.857145
 20
207.063706
 30
0.0
  0
LWPOLYLINE
  5
3b5
100
AcDbEntity
  8
View003
 62
7
100
AcDbPolyline
 90
2
 70
0
 10
23.502152
 20
229.812708
 30
0.0
 10
26.199156
 20
230.352707
 30
0.0
  0
LWPOLYLINE
  5
3b6
100
AcDbEntity
  8
View003
 62
7
100
AcDbPolyline
 90
2
 70
0
 10
25.022157
 20
222.213708
 30
0.0
 10
23.502152
 20
229.812708
 30
0.0
  0
LWPOLYLINE
  5
3b7
100
AcDbEntity
  8
View003
 62
7
100
AcDbPolyline
 90
2
 70
0
 10
27.719160
 20
222.752710
 30
0.0
 10
25.022157
 20
222.213708
 30
0.0
  0
LWPOLYLINE
  5
3b8
100
AcDbEntity
  8
View003
 62
7
100
AcDbPolyline
 90
2
 70
0
 10
26.199156
 20
230.352707
 30
0.0
 10
27.719160
 20
222.752710
 30
0.0
  0
LWPOLYLINE
  5
3b9
100
AcDbEntity
  8
View003
 62
7
100
AcDbPolyline
 90
2
 70
0
 10
29.697159
 20
198.374708
 30
0.0
 10
32.697163
 20
198.374708
 30
0.0
  0
LWPOLYLINE
  5
3ba
100
AcDbEntity
  8
View003
 62
7
100
AcDbPolyline
 90
2
 70
0
 10
15.572166
 20
198.374708
 30
0.0
 10
29.697159
 20
198.374708
 30
0.0
  0
LWPOLYLINE
  5
3bb
100
AcDbEntity
  8
View003
 62
7
100
AcDbPolyline
 90
10
 70
0
 10
15.572166
 20
198.374708
 30
0.0
 10
15.572166
 20
200.374706
 30
0.0
 10
6.572153
 20
200.374706
 30
0.0
 10
6.572153
 20
209.624706
 30
0.0
 10
15.572166
 20
209.624706
 30
0.0
 10
15.572166
 20
212.374706
 30
0.0
 10
6.572153
 20
212.374706
 30
0.0
 10
6.572153
 20
221.624709
 30
0.0
 10
15.572166
 20
221.624709
 30
0.0
 10
15.572166
 20
238.624709
 30
0.0
  0
LWPOLYLINE
  5
3bc
100
AcDbEntity
  8
View003
 62
7
100
AcDbPolyline
 90
2
 70
0
 10
21.697165
 20
238.624709
 30
0.0
 10
15.572166
 20
238.624709
 30
0.0
  0
LWPOLYLINE
  5
3bd
100
AcDbEntity
  8
View003
 62
7
100
AcDbPolyline
 90
2
 70
0
 10
24.697170
 20
238.624709
 30
0.0
 10
21.697165
 20
238.624709
 30
0.0
  0
LWPOLYLINE
  5
3be
100
AcDbEntity
  8
View003
 62
7
100
AcDbPolyline
 90
2
 70
0
 10
27.800149
 20
238.624709
 30
0.0
 10
24.697170
 20
238.624709
 30
0.0
  0
LWPOLYLINE
  5
3bf
100
AcDbEntity
  8
View003
 62
7
100
AcDbPolyline
 90
2
 70
0
 10
35.850150
 20
198.374708
 30
0.0
 10
27.800149
 20
238.624709
 30
0.0
  0
LWPOLYLINE
  5
3c0
100
AcDbEntity
  8
View003
 62
7
100
AcDbPolyline
 90
2
 70
0
 10
32.697163
 20
198.374708
 30
0.0
 10
35.850150
 20
198.374708
 30
0.0
  0
LWPOLYLINE
  5
3c1
100
AcDbEntity
  8
View003
 62
7
100
AcDbPolyline
 90
4
 70
1
 10
50.051314
 20
240.616588
 30
0.0
 10
47.301314
 20
240.616588
 30
0.0
 10
47.301314
 20
243.366588
 30
0.0
 10
50.051314
 20
243.366588
 30
0.0
  0
LWPOLYLINE
  5
3c2
100
AcDbEntity
  8
View003
 62
7
100
AcDbPolyline
 90
11
 70
0
 10
84.501334
 20
287.116587
 30
0.0
 10
76.351320
 20
287.116587
 30
0.0
 10
76.351320
 20
290.116586
 30
0.0
 10
68.101321
 20
290.116586
 30
0.0
 10
68.101321
 20
287.116587
 30
0.0
 10
58.351319
 20
287.116587
 30
0.0
 10
58.351319
 20
290.116586
 30
0.0
 10
52.101332
 20
290.116586
 30
0.0
 10
52.101332
 20
287.116587
 30
0.0
 10
43.051312
 20
287.116587
 30
0.0
 10
43.051312
 20
196.866588
 30
0.0
  0
LWPOLYLINE
  5
3c3
100
AcDbEntity
  8
View003
 62
7
100
AcDbPolyline
 90
2
 70
0
 10
52.101332
 20
196.866588
 30
0.0
 10
43.051312
 20
196.866588
 30
0.0
  0
LWPOLYLINE
  5
3c4
100
AcDbEntity
  8
View003
 62
7
100
AcDbPolyline
 90
2
 70
0
 10
52.101332
 20
193.866589
 30
0.0
 10
52.101332
 20
196.866588
 30
0.0
  0
LWPOLYLINE
  5
3c5
100
AcDbEntity
  8
View003
 62
7
100
AcDbPolyline
 90
2
 70
0
 10
58.351319
 20
193.866589
 30
0.0
 10
52.101332
 20
193.866589
 30
0.0
  0
LWPOLYLINE
  5
3c6
100
AcDbEntity
  8
View003
 62
7
100
AcDbPolyline
 90
2
 70
0
 10
58.351319
 20
196.866588
 30
0.0
 10
58.351319
 20
193.866589
 30
0.0
  0
LWPOLYLINE
  5
3c7
100
AcDbEntity
  8
View003
 62
7
100
AcDbPolyline
 90
2
 70
0
 10
68.101321
 20
196.866588
 30
0.0
 10
58.351319
 20
196.866588
 30
0.0
  0
LWPOLYLINE
  5
3c8
100
AcDbEntity
  8
View003
 62
7
100
AcDbPolyline
 90
2
 70
0
 10
68.101321
 20
193.866589
 30
0.0
 10
68.101321
 20
196.866588
 30
0.0
  0
LWPOLYLINE
  5
3c9
100
AcDbEntity
  8
View003
 62
7
100
AcDbPolyline
 90
2
 70
0
 10
76.351320
 20
193.866589
 30
0.0
 10
68.101321
 20
193.866589
 30
0.0
  0
LWPOLYLINE
  5
3ca
100
AcDbEntity
  8
View003
 62
7
100
AcDbPolyline
 90
2
 70
0
 10
76.351320
 20
196.866588
 30
0.0
 10
76.351320
 20
193.866589
 30
0.0
  0
LWPOLYLINE
  5
3cb
100
AcDbEntity
  8
View003
 62
7
100
AcDbPolyline
 90
2
 70
0
 10
84.501334
 20
196.866588
 30
0.0
 10
76.351320
 20
196.866588
 30
0.0
  0
LWPOLYLINE
  5
3cc
100
AcDbEntity
  8
View003
 62
7
100
AcDbPolyline
 90
2
 70
0
 10
84.501334
 20
196.866588
 30
0.0
 10
84.501334
 20
287.116587
 30
0.0
  0
ENDSEC
  0
SECTION
  2
OBJECTS
  0
DICTIONARY
  5
C
330
0
100
AcDbDictionary
  3
ACAD_GROUP
350
D
  3
ACAD_MLINESTYLE
350
17
  0
DICTIONARY
  5
D
330
C
100
AcDbDictionary
  0
DICTIONARY
  5
1A
330
C
100
AcDbDictionary
  0
DICTIONARY
  5
17
330
C
100
AcDbDictionary
  3
STANDARD
350
18
  0
DICTIONARY
  5
19
330
C
100
AcDbDictionary
  0
ENDSEC
  0
EOF
