<?xml version="1.0" encoding="UTF-8" standalone="no"?>
<!-- Created with Inkscape (http://www.inkscape.org/) -->

<svg
   xmlns:dc="http://purl.org/dc/elements/1.1/"
   xmlns:cc="http://creativecommons.org/ns#"
   xmlns:rdf="http://www.w3.org/1999/02/22-rdf-syntax-ns#"
   xmlns:svg="http://www.w3.org/2000/svg"
   xmlns="http://www.w3.org/2000/svg"
   xmlns:sodipodi="http://sodipodi.sourceforge.net/DTD/sodipodi-0.dtd"
   xmlns:inkscape="http://www.inkscape.org/namespaces/inkscape"
   width="210mm"
   height="297mm"
   viewBox="0 0 744.09448819 1052.3622047"
   id="svg2"
   version="1.1"
   inkscape:version="0.91 r13725"
   sodipodi:docname="cotter.dk-screen_protectors.svg">
  <defs
     id="defs4">
    <inkscape:path-effect
       effect="spiro"
       id="path-effect4154"
       is_visible="true" />
    <inkscape:path-effect
       effect="spiro"
       id="path-effect4154-3"
       is_visible="true" />
    <inkscape:path-effect
       effect="spiro"
       id="path-effect4154-7"
       is_visible="true" />
    <inkscape:path-effect
       effect="spiro"
       id="path-effect4154-35"
       is_visible="true" />
    <inkscape:path-effect
       effect="spiro"
       id="path-effect4154-35-2"
       is_visible="true" />
    <inkscape:path-effect
       effect="spiro"
       id="path-effect4154-1"
       is_visible="true" />
    <inkscape:path-effect
       effect="spiro"
       id="path-effect4154-70"
       is_visible="true" />
    <inkscape:path-effect
       effect="spiro"
       id="path-effect4154-36"
       is_visible="true" />
    <inkscape:path-effect
       effect="spiro"
       id="path-effect4154-6"
       is_visible="true" />
    <inkscape:path-effect
       effect="spiro"
       id="path-effect4154-61"
       is_visible="true" />
    <inkscape:path-effect
       effect="spiro"
       id="path-effect4154-79"
       is_visible="true" />
    <inkscape:path-effect
       effect="spiro"
       id="path-effect4154-0"
       is_visible="true" />
    <inkscape:path-effect
       effect="spiro"
       id="path-effect4154-75"
       is_visible="true" />
    <inkscape:path-effect
       effect="spiro"
       id="path-effect4154-0-2"
       is_visible="true" />
    <inkscape:path-effect
       effect="spiro"
       id="path-effect4154-0-8"
       is_visible="true" />
    <inkscape:path-effect
       effect="spiro"
       id="path-effect4154-0-2-7"
       is_visible="true" />
    <inkscape:path-effect
       effect="spiro"
       id="path-effect4154-0-8-3"
       is_visible="true" />
    <inkscape:path-effect
       effect="spiro"
       id="path-effect4154-0-2-2"
       is_visible="true" />
    <inkscape:path-effect
       effect="spiro"
       id="path-effect4154-0-8-9"
       is_visible="true" />
    <inkscape:path-effect
       effect="spiro"
       id="path-effect4154-0-2-4"
       is_visible="true" />
    <inkscape:path-effect
       effect="spiro"
       id="path-effect4154-0-8-7"
       is_visible="true" />
    <inkscape:path-effect
       effect="spiro"
       id="path-effect4154-0-5"
       is_visible="true" />
    <inkscape:path-effect
       effect="spiro"
       id="path-effect4154-75-0"
       is_visible="true" />
  </defs>
  <sodipodi:namedview
     id="base"
     pagecolor="#ffffff"
     bordercolor="#666666"
     borderopacity="1.0"
     inkscape:pageopacity="0.0"
     inkscape:pageshadow="2"
     inkscape:zoom="0.70710678"
     inkscape:cx="462.91527"
     inkscape:cy="515.11024"
     inkscape:document-units="mm"
     inkscape:current-layer="layer1"
     showgrid="true"
     showguides="true"
     inkscape:guide-bbox="true"
     inkscape:snap-global="true"
     inkscape:window-width="1920"
     inkscape:window-height="1015"
     inkscape:window-x="0"
     inkscape:window-y="0"
     inkscape:window-maximized="1"
     inkscape:snap-bbox="true"
     inkscape:snap-center="true"
     inkscape:snap-object-midpoints="true">
    <sodipodi:guide
       position="-5.0507628,1096.0155"
       orientation="0,1"
       id="guide3340" />
    <inkscape:grid
       type="xygrid"
       id="grid3342"
       units="mm"
       spacingx="3.5433071"
       spacingy="3.5433072" />
  </sodipodi:namedview>
  <metadata
     id="metadata7">
    <rdf:RDF>
      <cc:Work
         rdf:about="">
        <dc:format>image/svg+xml</dc:format>
        <dc:type
           rdf:resource="http://purl.org/dc/dcmitype/StillImage" />
        <dc:title></dc:title>
      </cc:Work>
    </rdf:RDF>
  </metadata>
  <g
     inkscape:label="Layer 1"
     inkscape:groupmode="layer"
     id="layer1">
    <path
       style="fill:none;fill-rule:evenodd;stroke:#0000ff;stroke-width:0.25;stroke-linecap:butt;stroke-linejoin:miter;stroke-miterlimit:4;stroke-dasharray:none;stroke-opacity:1"
       d="m 17.833842,17.735221 -0.106934,1016.914679 708.647642,0 L 726.5,17.72158 Z"
       id="path3350"
       inkscape:connector-curvature="0"
       sodipodi:nodetypes="ccccc" />
    <path
       style="fill:none;fill-rule:evenodd;stroke:#000000;stroke-width:0.25;stroke-linecap:butt;stroke-linejoin:miter;stroke-miterlimit:4;stroke-dasharray:none;stroke-opacity:1"
       d="m 47.813122,173.64223 c 0.05863,-7.23477 -3.017923,-14.44134 -8.283412,-19.4032 -4.883645,-4.60203 -11.577635,-7.22904 -18.287773,-7.17692 l 0.0064,-125.804433 125.793223,0.0047 c 8.02956,8.882251 19.90796,14.158329 31.88161,14.160993 11.97576,0.0027 23.85854,-5.270079 31.89216,-14.151508 l 125.78268,0.0046 -0.009,125.765248 c -6.94416,0.008 -13.84288,2.865 -18.75895,7.76946 -4.93178,4.92012 -7.80716,11.84072 -7.81397,18.80707 m -99.17205,0.004 c -11.84198,0.001 -23.68396,0.003 -35.52594,0.006 -9.41989,0.002 -18.83979,0.004 -28.25968,0.007"
       id="path4152"
       inkscape:path-effect="#path-effect4154"
       inkscape:original-d="m 47.813122,173.64223 c 0,0 -3.819004,-14.9509 -8.283412,-19.4032 -4.391248,-4.37934 -18.287773,-7.17692 -18.287773,-7.17692 0,0 10.566984,-132.729305 0.0064,-125.804433 l 125.793223,0.0047 c 0,0 20.25324,14.158835 31.88161,14.160993 11.6303,0.0022 31.89216,-14.151508 31.89216,-14.151508 l 125.78268,0.0046 -0.009,125.765253 c -12.81021,0 -14.01898,3.02948 -18.75895,7.76945 -4.81131,4.81131 -7.81397,8.27557 -7.81397,18.80708 m -99.17205,0.004 c -22.59375,0.002 -13.09932,0.004 -35.52594,0.006 -22.42662,0.002 -6.86476,0.005 -28.25968,0.007"
       inkscape:connector-curvature="0"
       sodipodi:nodetypes="cscccscccsccsc"
       inkscape:transform-center-x="-157.66013"
       inkscape:transform-center-y="76.189622" />
    <path
       style="fill:none;fill-rule:evenodd;stroke:#000000;stroke-width:0.25;stroke-linecap:butt;stroke-linejoin:miter;stroke-miterlimit:4;stroke-dasharray:none;stroke-opacity:1"
       d="m 336.60227,21.256492 125.79322,0.005 c 8.02956,8.882254 19.90796,14.158336 31.88161,14.161 11.97576,0.0027 23.85854,-5.270079 31.89216,-14.15151 l 125.78308,0.0043 -0.009,125.765258 c -6.94416,0.008 -13.84288,2.865 -18.75895,7.76945 -4.93178,4.92012 -7.80716,11.84073 -7.81397,18.80708 m -99.17205,0.004 c -11.84198,0.001 -23.68396,0.003 -35.52594,0.006 -9.41989,0.002 -18.83979,0.004 -28.25968,0.007 m -99.2453,0.007 c 0.0586,-7.23477 -3.01792,-14.44134 -8.28341,-19.4032 -4.88364,-4.60203 -11.57763,-7.22904 -18.28777,-7.17692"
       id="path4152-2"
       inkscape:path-effect="#path-effect4154-79"
       inkscape:original-d="m 336.60227,21.256492 125.79322,0.005 c 0,0 20.25324,14.15884 31.88161,14.161 11.6303,0.002 31.89216,-14.15151 31.89216,-14.15151 l 125.78308,0.0043 -0.009,125.765258 c -12.81021,0 -14.01898,3.02948 -18.75895,7.76945 -4.81131,4.81131 -7.81397,8.27557 -7.81397,18.80708 m -99.17205,0.004 c -22.59375,0.002 -13.09932,0.004 -35.52594,0.006 -22.42662,0.002 -6.86476,0.005 -28.25968,0.007 m -99.2453,0.007 c 0,0 -3.819,-14.9509 -8.28341,-19.4032 -4.39125,-4.37934 -18.28777,-7.17692 -18.28777,-7.17692"
       inkscape:connector-curvature="0"
       sodipodi:nodetypes="ccscccsccsccsc"
       inkscape:transform-center-x="-157.66013"
       inkscape:transform-center-y="76.189622" />
    <path
       style="fill:none;fill-rule:evenodd;stroke:#000000;stroke-width:0.25;stroke-linecap:butt;stroke-linejoin:miter;stroke-miterlimit:4;stroke-dasharray:none;stroke-opacity:1"
       d="m 336.59801,173.63747 -0.009,125.76526 c -6.94416,0.008 -13.84288,2.865 -18.75895,7.76945 -4.93178,4.92012 -7.80716,11.84073 -7.81397,18.80708 -33.05735,-0.001 -66.1147,-1.4e-4 -99.17205,0.004 -11.84198,0.001 -23.68396,0.003 -35.52594,0.006 -9.41989,0.002 -18.83979,0.005 -28.25968,0.007 -33.08177,0.008 -66.163533,0.0101 -99.245299,0.007 0.05863,-7.23477 -3.017922,-14.44134 -8.283411,-19.4032 -4.883645,-4.60203 -11.577635,-7.22904 -18.287773,-7.17692 l 0.0064,-125.80444 125.793223,0.005 c 8.02957,8.88225 19.90796,14.15833 31.88161,14.16099 11.97576,0.003 23.85853,-5.27007 31.89216,-14.1515 l 125.78268,0.004 z"
       id="path4152-23"
       inkscape:path-effect="#path-effect4154-0"
       inkscape:original-d="m 336.59801,173.63747 -0.009,125.76526 c -12.81021,0 -14.01898,3.02948 -18.75895,7.76945 -4.81131,4.81131 -7.81397,8.27557 -7.81397,18.80708 -21.89634,7.5e-4 -76.57829,0.002 -99.17205,0.004 -22.59375,0.002 -13.09932,0.004 -35.52594,0.006 -22.42662,0.002 -6.86476,0.005 -28.25968,0.007 -21.39492,0.002 -79.746632,0.005 -99.245299,0.007 0,0 -3.819003,-14.9509 -8.283411,-19.4032 -4.391248,-4.37934 -18.287773,-7.17692 -18.287773,-7.17692 0,0 10.566984,-132.72931 0.0064,-125.80444 l 125.793223,0.005 c 0,0 20.25324,14.15884 31.88161,14.16099 11.6303,0.002 31.89216,-14.1515 31.89216,-14.1515 z"
       inkscape:connector-curvature="0"
       sodipodi:nodetypes="ccscssscscccscc"
       inkscape:transform-center-x="-157.66013"
       inkscape:transform-center-y="76.189622" />
    <path
       style="fill:none;fill-rule:evenodd;stroke:#000000;stroke-width:0.25;stroke-linecap:butt;stroke-linejoin:miter;stroke-miterlimit:4;stroke-dasharray:none;stroke-opacity:1"
       d="m 336.60227,173.6187 125.79322,0.005 c 8.02956,8.88225 19.90796,14.15834 31.88161,14.161 11.97576,0.003 23.85854,-5.27008 31.89216,-14.15151 l 125.78308,0.004 -0.009,125.76526 c -6.94416,0.008 -13.84288,2.865 -18.75895,7.76945 -4.93178,4.92012 -7.80716,11.84073 -7.81397,18.80708 -33.05735,-0.001 -66.1147,-1.4e-4 -99.17205,0.004 -11.84198,0.001 -23.68396,0.003 -35.52594,0.006 -9.41989,0.002 -18.83979,0.005 -28.25968,0.007 -33.08177,0.008 -66.16353,0.0101 -99.2453,0.007 0.0586,-7.23477 -3.01792,-14.44134 -8.28341,-19.4032 -4.88364,-4.60203 -11.57763,-7.22904 -18.28777,-7.17692"
       id="path4152-9"
       inkscape:path-effect="#path-effect4154-75"
       inkscape:original-d="m 336.60227,173.6187 125.79322,0.005 c 0,0 20.25324,14.15884 31.88161,14.161 11.6303,0.002 31.89216,-14.15151 31.89216,-14.15151 l 125.78308,0.004 -0.009,125.76526 c -12.81021,0 -14.01898,3.02948 -18.75895,7.76945 -4.81131,4.81131 -7.81397,8.27557 -7.81397,18.80708 -21.89634,7.5e-4 -76.57829,0.002 -99.17205,0.004 -22.59375,0.002 -13.09932,0.004 -35.52594,0.006 -22.42662,0.002 -6.86476,0.005 -28.25968,0.007 -21.39492,0.002 -79.74663,0.005 -99.2453,0.007 0,0 -3.819,-14.9509 -8.28341,-19.4032 -4.39125,-4.37934 -18.28777,-7.17692 -18.28777,-7.17692"
       inkscape:connector-curvature="0"
       sodipodi:nodetypes="ccscccscssscsc"
       inkscape:transform-center-x="-157.66013"
       inkscape:transform-center-y="76.189622" />
    <path
       style="fill:none;fill-rule:evenodd;stroke:#000000;stroke-width:0.25;stroke-linecap:butt;stroke-linejoin:miter;stroke-miterlimit:4;stroke-dasharray:none;stroke-opacity:1"
       d="m 350.77124,520.88156 -0.009,125.76526 c -6.94416,0.008 -13.84288,2.865 -18.75895,7.76945 -4.93178,4.92012 -7.80716,11.84073 -7.81397,18.80708 -33.05735,-0.001 -66.11471,-1.4e-4 -99.17206,0.004 -11.84198,0.001 -23.68396,0.003 -35.52594,0.006 -9.41989,0.002 -18.83979,0.005 -28.25968,0.007 -33.08176,0.008 -66.163531,0.0101 -99.245296,0.007 0.05863,-7.23477 -3.017921,-14.44134 -8.28341,-19.4032 -4.883644,-4.60203 -11.577633,-7.22904 -18.28777,-7.17692 l 0.006,-125.80444 125.793216,0.005 c 8.02957,8.88225 19.90796,14.15833 31.88161,14.16099 11.97576,0.003 23.85853,-5.27007 31.89216,-14.1515 l 125.78309,0.004 z"
       id="path4152-23-2-6"
       inkscape:path-effect="#path-effect4154-0-2-7"
       inkscape:original-d="m 350.77124,520.88156 -0.009,125.76526 c -12.81021,0 -14.01898,3.02948 -18.75895,7.76945 -4.81131,4.81131 -7.81397,8.27557 -7.81397,18.80708 -21.89635,7.5e-4 -76.5783,0.002 -99.17206,0.004 -22.59375,0.002 -13.09932,0.004 -35.52594,0.006 -22.42662,0.002 -6.86476,0.005 -28.25968,0.007 -21.39492,0.002 -79.746626,0.005 -99.245296,0.007 0,0 -3.819,-14.9509 -8.28341,-19.4032 -4.39125,-4.37934 -18.28777,-7.17692 -18.28777,-7.17692 0,0 10.56698,-132.72931 0.006,-125.80444 l 125.793216,0.005 c 0,0 20.25324,14.15884 31.88161,14.16099 11.6303,0.002 31.89216,-14.1515 31.89216,-14.1515 z"
       inkscape:connector-curvature="0"
       sodipodi:nodetypes="ccscssscscccscc"
       inkscape:transform-center-x="-157.66013"
       inkscape:transform-center-y="76.189622" />
    <path
       style="fill:none;fill-rule:evenodd;stroke:#000000;stroke-width:0.25;stroke-linecap:butt;stroke-linejoin:miter;stroke-miterlimit:4;stroke-dasharray:none;stroke-opacity:1"
       d="m 701.55864,520.88157 -0.009,125.76525 c -6.94416,0.008 -13.84288,2.865 -18.75895,7.76945 -4.93178,4.92012 -7.80716,11.84073 -7.81397,18.80708 -33.05735,-0.001 -66.1147,-1.4e-4 -99.17205,0.004 -11.84198,0.001 -23.68396,0.003 -35.52594,0.006 -9.41989,0.002 -18.83979,0.005 -28.25968,0.007 -33.08177,0.008 -66.16353,0.0101 -99.2453,0.007 0.0586,-7.23477 -3.01792,-14.44134 -8.28341,-19.4032 -4.88364,-4.60203 -11.57763,-7.22904 -18.28777,-7.17692 l 0.006,-125.80443 125.79322,0.005 c 8.02957,8.88225 19.90796,14.15833 31.88161,14.16099 11.97576,0.003 23.85853,-5.27007 31.89216,-14.1515 l 125.78308,0.004 z"
       id="path4152-23-9-1"
       inkscape:path-effect="#path-effect4154-0-8-3"
       inkscape:original-d="m 701.55864,520.88157 -0.009,125.76525 c -12.81021,0 -14.01898,3.02948 -18.75895,7.76945 -4.81131,4.81131 -7.81397,8.27557 -7.81397,18.80708 -21.89634,7.5e-4 -76.57829,0.002 -99.17205,0.004 -22.59375,0.002 -13.09932,0.004 -35.52594,0.006 -22.42662,0.002 -6.86476,0.005 -28.25968,0.007 -21.39492,0.002 -79.74663,0.005 -99.2453,0.007 0,0 -3.819,-14.9509 -8.28341,-19.4032 -4.39125,-4.37934 -18.28777,-7.17692 -18.28777,-7.17692 0,0 10.56698,-132.7293 0.006,-125.80443 l 125.79322,0.005 c 0,0 20.25324,14.15884 31.88161,14.16099 11.6303,0.002 31.89216,-14.1515 31.89216,-14.1515 z"
       inkscape:connector-curvature="0"
       sodipodi:nodetypes="ccscssscscccscc"
       inkscape:transform-center-x="-157.66013"
       inkscape:transform-center-y="76.189622" />
    <path
       style="fill:none;fill-rule:evenodd;stroke:#000000;stroke-width:0.25;stroke-linecap:butt;stroke-linejoin:miter;stroke-miterlimit:4;stroke-dasharray:none;stroke-opacity:1"
       d="m 350.77124,694.50361 -0.009,125.76526 c -6.94416,0.008 -13.84288,2.865 -18.75895,7.76945 -4.93178,4.92012 -7.80716,11.84073 -7.81397,18.80708 -33.05735,-0.001 -66.1147,-1.4e-4 -99.17205,0.004 -11.84198,0.001 -23.68396,0.003 -35.52594,0.006 -9.41989,0.002 -18.83979,0.005 -28.25968,0.007 -33.08177,0.008 -66.163537,0.0101 -99.245306,0.007 0.05863,-7.23477 -3.017921,-14.44134 -8.28341,-19.4032 -4.883644,-4.60203 -11.577633,-7.22904 -18.28777,-7.17692 l 0.006,-125.80444 125.793226,0.005 c 8.02957,8.88225 19.90796,14.15833 31.88161,14.16099 11.97576,0.003 23.85853,-5.27007 31.89216,-14.1515 l 125.78308,0.004 z"
       id="path4152-23-2-3"
       inkscape:path-effect="#path-effect4154-0-2-2"
       inkscape:original-d="m 350.77124,694.50361 -0.009,125.76526 c -12.81021,0 -14.01898,3.02948 -18.75895,7.76945 -4.81131,4.81131 -7.81397,8.27557 -7.81397,18.80708 -21.89634,7.5e-4 -76.57829,0.002 -99.17205,0.004 -22.59375,0.002 -13.09932,0.004 -35.52594,0.006 -22.42662,0.002 -6.86476,0.005 -28.25968,0.007 -21.39492,0.002 -79.74664,0.005 -99.245306,0.007 0,0 -3.819,-14.9509 -8.28341,-19.4032 -4.39125,-4.37934 -18.28777,-7.17692 -18.28777,-7.17692 0,0 10.56698,-132.72931 0.006,-125.80444 l 125.793226,0.005 c 0,0 20.25324,14.15884 31.88161,14.16099 11.6303,0.002 31.89216,-14.1515 31.89216,-14.1515 z"
       inkscape:connector-curvature="0"
       sodipodi:nodetypes="ccscssscscccscc"
       inkscape:transform-center-x="-157.66013"
       inkscape:transform-center-y="76.189622" />
    <path
       style="fill:none;fill-rule:evenodd;stroke:#000000;stroke-width:0.25;stroke-linecap:butt;stroke-linejoin:miter;stroke-miterlimit:4;stroke-dasharray:none;stroke-opacity:1"
       d="m 701.55864,694.50362 -0.009,125.76525 c -6.94416,0.008 -13.84288,2.865 -18.75895,7.76945 -4.93178,4.92012 -7.80716,11.84073 -7.81397,18.80708 -33.05735,-0.001 -66.1147,-1.4e-4 -99.17205,0.004 -11.84198,0.001 -23.68396,0.003 -35.52594,0.006 -9.41989,0.002 -18.83979,0.005 -28.25968,0.007 -33.08177,0.008 -66.16353,0.0101 -99.2453,0.007 0.0586,-7.23477 -3.01792,-14.44134 -8.28341,-19.4032 -4.88364,-4.60203 -11.57763,-7.22904 -18.28777,-7.17692 l 0.006,-125.80443 125.79322,0.005 c 8.02957,8.88225 19.90796,14.15833 31.88161,14.16099 11.97576,0.003 23.85853,-5.27007 31.89216,-14.1515 l 125.78308,0.004 z"
       id="path4152-23-9-19"
       inkscape:path-effect="#path-effect4154-0-8-9"
       inkscape:original-d="m 701.55864,694.50362 -0.009,125.76525 c -12.81021,0 -14.01898,3.02948 -18.75895,7.76945 -4.81131,4.81131 -7.81397,8.27557 -7.81397,18.80708 -21.89634,7.5e-4 -76.57829,0.002 -99.17205,0.004 -22.59375,0.002 -13.09932,0.004 -35.52594,0.006 -22.42662,0.002 -6.86476,0.005 -28.25968,0.007 -21.39492,0.002 -79.74663,0.005 -99.2453,0.007 0,0 -3.819,-14.9509 -8.28341,-19.4032 -4.39125,-4.37934 -18.28777,-7.17692 -18.28777,-7.17692 0,0 10.56698,-132.7293 0.006,-125.80443 l 125.79322,0.005 c 0,0 20.25324,14.15884 31.88161,14.16099 11.6303,0.002 31.89216,-14.1515 31.89216,-14.1515 z"
       inkscape:connector-curvature="0"
       sodipodi:nodetypes="ccscssscscccscc"
       inkscape:transform-center-x="-157.66013"
       inkscape:transform-center-y="76.189622" />
    <path
       style="fill:none;fill-rule:evenodd;stroke:#000000;stroke-width:0.25;stroke-linecap:butt;stroke-linejoin:miter;stroke-miterlimit:4;stroke-dasharray:none;stroke-opacity:1"
       d="m 350.77124,868.11952 -0.009,125.76525 c -6.94417,0.008 -13.84288,2.86506 -18.75895,7.76953 -4.93175,4.9201 -7.80712,11.8407 -7.81397,18.807 -33.05735,-0.01 -66.1147,-0.01 -99.17205,0 -11.84198,0 -23.68396,0.01 -35.52594,0.01 -9.41989,0 -18.83979,0.01 -28.25968,0.01 -33.08177,0.011 -66.163538,0.014 -99.245308,0.01 0.05858,-7.2347 -3.017964,-14.4413 -8.28341,-19.4031 -4.883638,-4.60205 -11.57762,-7.2291 -18.28777,-7.17703 l 0.006,-125.80442 125.793228,0.005 c 8.02957,8.88225 19.90796,14.15833 31.88161,14.16099 11.97576,0.003 23.85853,-5.27007 31.89216,-14.1515 l 125.78308,-0.002 z"
       id="path4152-23-2-8"
       inkscape:path-effect="#path-effect4154-0-2-4"
       inkscape:original-d="m 350.77124,868.11952 -0.009,125.76525 c -12.81021,0 -14.01898,3.0295 -18.75895,7.76953 -4.81131,4.8113 -7.81397,8.2756 -7.81397,18.807 -21.89634,8e-4 -76.57829,0 -99.17205,0 -22.59375,0 -13.09932,0 -35.52594,0.01 -22.42662,0 -6.86476,0 -28.25968,0.01 -21.39492,0 -79.746638,0 -99.245308,0.01 0,0 -3.819,-14.9508 -8.28341,-19.4031 -4.39125,-4.37943 -18.28777,-7.17703 -18.28777,-7.17703 0,0 10.56698,-132.72929 0.006,-125.80442 l 125.793228,0.005 c 0,0 20.25324,14.15884 31.88161,14.16099 11.6303,0.002 31.89216,-14.1515 31.89216,-14.1515 z"
       inkscape:connector-curvature="0"
       sodipodi:nodetypes="ccscssscscccscc"
       inkscape:transform-center-x="-157.66013"
       inkscape:transform-center-y="76.189622" />
    <path
       style="fill:none;fill-rule:evenodd;stroke:#000000;stroke-width:0.25;stroke-linecap:butt;stroke-linejoin:miter;stroke-miterlimit:4;stroke-dasharray:none;stroke-opacity:1"
       d="m 701.55864,868.11953 -0.009,125.76524 c -6.94417,0.008 -13.84288,2.86506 -18.75895,7.76953 -4.93175,4.9201 -7.80712,11.8407 -7.81397,18.807 -33.05735,-0.01 -66.1147,-0.01 -99.17205,0 -11.84198,0 -23.68396,0.01 -35.52594,0.01 -9.41989,0 -18.83979,0.01 -28.25968,0.01 -33.08177,0.011 -66.16353,0.014 -99.2453,0.01 0.0586,-7.2347 -3.01796,-14.4413 -8.28341,-19.4031 -4.88364,-4.60205 -11.57762,-7.2291 -18.28777,-7.17703 l 0.006,-125.80441 125.79322,0.005 c 8.02957,8.88225 19.90796,14.15833 31.88161,14.16099 11.97576,0.003 23.85853,-5.27007 31.89216,-14.1515 l 125.78308,-0.002 z"
       id="path4152-23-9-4"
       inkscape:path-effect="#path-effect4154-0-8-7"
       inkscape:original-d="m 701.55864,868.11953 -0.009,125.76524 c -12.81021,0 -14.01898,3.0295 -18.75895,7.76953 -4.81131,4.8113 -7.81397,8.2756 -7.81397,18.807 -21.89634,8e-4 -76.57829,0 -99.17205,0 -22.59375,0 -13.09932,0 -35.52594,0.01 -22.42662,0 -6.86476,0 -28.25968,0.01 -21.39492,0 -79.74663,0 -99.2453,0.01 0,0 -3.819,-14.9508 -8.28341,-19.4031 -4.39125,-4.37943 -18.28777,-7.17703 -18.28777,-7.17703 0,0 10.56698,-132.72928 0.006,-125.80441 l 125.79322,0.005 c 0,0 20.25324,14.15884 31.88161,14.16099 11.6303,0.002 31.89216,-14.1515 31.89216,-14.1515 z"
       inkscape:connector-curvature="0"
       sodipodi:nodetypes="ccscssscscccscc"
       inkscape:transform-center-x="-157.66013"
       inkscape:transform-center-y="76.189622" />
    <path
       style="fill:none;fill-rule:evenodd;stroke:#000000;stroke-width:0.25;stroke-linecap:butt;stroke-linejoin:miter;stroke-miterlimit:4;stroke-dasharray:none;stroke-opacity:1"
       d="m 336.59801,325.99968 -0.009,125.76525 c -6.94416,0.008 -13.84288,2.865 -18.75895,7.76945 -4.93178,4.92012 -7.80716,11.84073 -7.81397,18.80708 -33.05735,-0.001 -66.1147,-1.4e-4 -99.17205,0.004 -11.84198,0.001 -23.68396,0.003 -35.52594,0.006 -9.41989,0.002 -18.83979,0.005 -28.25968,0.007 -33.08177,0.008 -66.163535,0.0101 -99.245302,0.007 0.05863,-7.23477 -3.017921,-14.44134 -8.28341,-19.4032 -4.883644,-4.60203 -11.577633,-7.22904 -18.28777,-7.17692 l 0.006,-125.80443 125.793222,0.005 c 8.02957,8.88225 19.90796,14.15833 31.88161,14.16099 11.97576,0.003 23.85853,-5.27007 31.89216,-14.1515 l 125.78308,0.004 z"
       id="path4152-23-3"
       inkscape:path-effect="#path-effect4154-0-5"
       inkscape:original-d="m 336.59801,325.99968 -0.009,125.76525 c -12.81021,0 -14.01898,3.02948 -18.75895,7.76945 -4.81131,4.81131 -7.81397,8.27557 -7.81397,18.80708 -21.89634,7.5e-4 -76.57829,0.002 -99.17205,0.004 -22.59375,0.002 -13.09932,0.004 -35.52594,0.006 -22.42662,0.002 -6.86476,0.005 -28.25968,0.007 -21.39492,0.002 -79.746632,0.005 -99.245302,0.007 0,0 -3.819,-14.9509 -8.28341,-19.4032 -4.39125,-4.37934 -18.28777,-7.17692 -18.28777,-7.17692 0,0 10.56698,-132.7293 0.006,-125.80443 l 125.793222,0.005 c 0,0 20.25324,14.15884 31.88161,14.16099 11.6303,0.002 31.89216,-14.1515 31.89216,-14.1515 z"
       inkscape:connector-curvature="0"
       sodipodi:nodetypes="ccscssscscccscc"
       inkscape:transform-center-x="-157.66013"
       inkscape:transform-center-y="76.189622" />
    <path
       style="fill:none;fill-rule:evenodd;stroke:#000000;stroke-width:0.25;stroke-linecap:butt;stroke-linejoin:miter;stroke-miterlimit:4;stroke-dasharray:none;stroke-opacity:1"
       d="m 336.60227,325.98091 125.79322,0.005 c 8.02956,8.88225 19.90796,14.15834 31.88161,14.161 11.97576,0.003 23.85854,-5.27008 31.89216,-14.15151 l 125.78308,0.004 -0.009,125.76525 c -6.94416,0.008 -13.84288,2.865 -18.75895,7.76945 -4.93178,4.92012 -7.80716,11.84073 -7.81397,18.80708 -33.05735,-0.001 -66.1147,-1.4e-4 -99.17205,0.004 -11.84198,0.001 -23.68396,0.003 -35.52594,0.006 -9.41989,0.002 -18.83979,0.005 -28.25968,0.007 -33.08177,0.008 -66.16353,0.0101 -99.2453,0.007 0.0586,-7.23477 -3.01792,-14.44134 -8.28341,-19.4032 -4.88364,-4.60203 -11.57763,-7.22904 -18.28777,-7.17692"
       id="path4152-9-6"
       inkscape:path-effect="#path-effect4154-75-0"
       inkscape:original-d="m 336.60227,325.98091 125.79322,0.005 c 0,0 20.25324,14.15884 31.88161,14.161 11.6303,0.002 31.89216,-14.15151 31.89216,-14.15151 l 125.78308,0.004 -0.009,125.76525 c -12.81021,0 -14.01898,3.02948 -18.75895,7.76945 -4.81131,4.81131 -7.81397,8.27557 -7.81397,18.80708 -21.89634,7.5e-4 -76.57829,0.002 -99.17205,0.004 -22.59375,0.002 -13.09932,0.004 -35.52594,0.006 -22.42662,0.002 -6.86476,0.005 -28.25968,0.007 -21.39492,0.002 -79.74663,0.005 -99.2453,0.007 0,0 -3.819,-14.9509 -8.28341,-19.4032 -4.39125,-4.37934 -18.28777,-7.17692 -18.28777,-7.17692"
       inkscape:connector-curvature="0"
       sodipodi:nodetypes="ccscccscssscsc"
       inkscape:transform-center-x="-157.66013"
       inkscape:transform-center-y="76.189622" />
  </g>
</svg>
