<?xml version="1.0" encoding="UTF-8" standalone="no"?>
<!-- Created with Inkscape (http://www.inkscape.org/) -->

<svg
   xmlns:dc="http://purl.org/dc/elements/1.1/"
   xmlns:cc="http://creativecommons.org/ns#"
   xmlns:rdf="http://www.w3.org/1999/02/22-rdf-syntax-ns#"
   xmlns:svg="http://www.w3.org/2000/svg"
   xmlns="http://www.w3.org/2000/svg"
   xmlns:sodipodi="http://sodipodi.sourceforge.net/DTD/sodipodi-0.dtd"
   xmlns:inkscape="http://www.inkscape.org/namespaces/inkscape"
   width="210mm"
   height="297mm"
   viewBox="0 0 744.09448819 1052.3622047"
   id="svg5018"
   version="1.1"
   inkscape:version="0.91 r13725"
   sodipodi:docname="cotter.dk-card-reader.svg">
  <defs
     id="defs5020">
    <inkscape:path-effect
       effect="spiro"
       id="path-effect5030"
       is_visible="true" />
    <inkscape:path-effect
       effect="spiro"
       id="path-effect5030-1"
       is_visible="true" />
    <inkscape:path-effect
       effect="spiro"
       id="path-effect5030-1-7"
       is_visible="true" />
    <inkscape:path-effect
       effect="spiro"
       id="path-effect5030-1-7-6"
       is_visible="true" />
    <inkscape:path-effect
       effect="spiro"
       id="path-effect5030-1-9"
       is_visible="true" />
    <inkscape:path-effect
       effect="spiro"
       id="path-effect5030-1-7-2"
       is_visible="true" />
    <inkscape:path-effect
       effect="spiro"
       id="path-effect5030-1-7-0"
       is_visible="true" />
    <inkscape:path-effect
       effect="spiro"
       id="path-effect5030-0"
       is_visible="true" />
    <inkscape:path-effect
       effect="spiro"
       id="path-effect5030-1-9-8"
       is_visible="true" />
    <inkscape:path-effect
       effect="spiro"
       id="path-effect5030-1-5"
       is_visible="true" />
    <inkscape:path-effect
       effect="spiro"
       id="path-effect5030-6"
       is_visible="true" />
    <inkscape:path-effect
       effect="spiro"
       id="path-effect5030-6-0"
       is_visible="true" />
    <inkscape:path-effect
       effect="spiro"
       id="path-effect5030-1-5-4"
       is_visible="true" />
    <inkscape:path-effect
       effect="spiro"
       id="path-effect5030-1-9-8-4"
       is_visible="true" />
    <inkscape:path-effect
       effect="spiro"
       id="path-effect5030-1-5-4-6"
       is_visible="true" />
    <inkscape:path-effect
       effect="spiro"
       id="path-effect5030-1-5-4-6-1"
       is_visible="true" />
    <inkscape:path-effect
       effect="spiro"
       id="path-effect5030-1-5-4-8"
       is_visible="true" />
    <inkscape:path-effect
       effect="spiro"
       id="path-effect5030-6-0-5"
       is_visible="true" />
    <inkscape:path-effect
       effect="spiro"
       id="path-effect5030-1-9-8-4-7"
       is_visible="true" />
  </defs>
  <sodipodi:namedview
     id="base"
     pagecolor="#ffffff"
     bordercolor="#666666"
     borderopacity="1.0"
     inkscape:pageopacity="0.0"
     inkscape:pageshadow="2"
     inkscape:zoom="0.44947576"
     inkscape:cx="256.86089"
     inkscape:cy="597.97518"
     inkscape:document-units="mm"
     inkscape:current-layer="layer1"
     showgrid="true"
     showguides="false"
     inkscape:snap-bbox="true"
     inkscape:bbox-nodes="false"
     inkscape:snap-bbox-edge-midpoints="true"
     inkscape:window-width="1920"
     inkscape:window-height="1015"
     inkscape:window-x="0"
     inkscape:window-y="0"
     inkscape:window-maximized="1">
    <inkscape:grid
       type="xygrid"
       id="grid5026"
       units="mm"
       spacingx="3.5433071"
       spacingy="3.5433072" />
  </sodipodi:namedview>
  <metadata
     id="metadata5023">
    <rdf:RDF>
      <cc:Work
         rdf:about="">
        <dc:format>image/svg+xml</dc:format>
        <dc:type
           rdf:resource="http://purl.org/dc/dcmitype/StillImage" />
        <dc:title></dc:title>
      </cc:Work>
    </rdf:RDF>
  </metadata>
  <g
     inkscape:label="Layer 1"
     inkscape:groupmode="layer"
     id="layer1">
    <path
       style="fill:none;fill-rule:evenodd;stroke:#000000;stroke-width:0.88582677;stroke-linecap:butt;stroke-linejoin:miter;stroke-miterlimit:4;stroke-dasharray:none;stroke-opacity:1"
       d="m 83.674272,498.28743 0.009,-362.35842 195.780218,7.1282 2.8e-4,348.11836 -195.789498,7.11186 z"
       id="path5028"
       inkscape:path-effect="#path-effect5030"
       inkscape:original-d="m 83.674272,498.28743 0.009,-362.35842 195.780218,7.1282 2.8e-4,348.11836 z"
       inkscape:connector-curvature="0"
       sodipodi:nodetypes="ccccc" />
    <circle
       style="fill:none;stroke:#000000;stroke-width:0.88582677;stroke-linecap:butt;stroke-linejoin:bevel;stroke-miterlimit:4;stroke-dasharray:none"
       id="path5572"
       cx="-396.83197"
       cy="242.85385"
       r="4.7244096"
       transform="matrix(0,-1,1,0,0,0)" />
    <circle
       style="fill:none;stroke:#000000;stroke-width:0.88582677;stroke-linecap:butt;stroke-linejoin:bevel;stroke-miterlimit:4;stroke-dasharray:none"
       id="path5572-1"
       cx="-237.40157"
       cy="242.86417"
       r="4.7244096"
       transform="matrix(0,-1,1,0,0,0)" />
    <path
       style="fill:none;fill-rule:evenodd;stroke:#000000;stroke-width:0.88567042;stroke-linecap:butt;stroke-linejoin:miter;stroke-miterlimit:4;stroke-dasharray:none;stroke-opacity:1"
       d="m 21.719053,391.09291 29.21802,10e-4 0.0179,131.08385 c 50.633117,-0.0102 101.266227,-0.0148 151.899347,-0.0136 50.63636,0.001 101.27272,0.008 151.90908,0.0206 l -0.058,-131.08483 29.2839,0.001 -7.1265,195.75861 -348.033917,3e-4 -7.10983,-195.76693 z"
       id="path5028-5"
       inkscape:path-effect="#path-effect5030-1"
       inkscape:original-d="m 21.719053,391.09291 29.21802,10e-4 0.0179,131.08385 151.899347,-0.0136 151.90908,0.0206 -0.058,-131.08483 29.2839,0.001 -7.1265,195.75861 -348.033917,3e-4 z"
       inkscape:connector-curvature="0"
       sodipodi:nodetypes="cccccccccc" />
    <circle
       style="fill:none;stroke:#000000;stroke-width:0.88582677;stroke-linecap:butt;stroke-linejoin:bevel;stroke-miterlimit:4;stroke-dasharray:none"
       id="path5572-9"
       cx="120.47244"
       cy="550.97162"
       r="4.8593926" />
    <circle
       style="fill:none;stroke:#000000;stroke-width:0.88582677;stroke-linecap:butt;stroke-linejoin:bevel;stroke-miterlimit:4;stroke-dasharray:none"
       id="path5572-1-7"
       cx="279.92484"
       cy="550.98193"
       r="4.8593926" />
    <path
       style="fill:none;fill-rule:evenodd;stroke:#000000;stroke-width:0.88567042;stroke-linecap:butt;stroke-linejoin:miter;stroke-miterlimit:4;stroke-dasharray:none;stroke-opacity:1"
       d="m 356.52066,919.97315 c -0.006,15.04168 -0.001,30.08337 0.0144,45.12504 -50.63638,-0.0126 -101.27275,-0.0194 -151.90913,-0.0206 -50.63311,-0.001 -101.26623,0.003 -151.899339,0.0136 -0.0054,-15.0416 -0.0069,-30.0832 -0.0045,-45.1248 0.0023,-14.18057 0.0081,-28.36114 0.01741,-42.54171 l 303.825859,0.007 c -0.0243,14.18048 -0.0392,28.36097 -0.0447,42.54147 z m 0.0444,-85.95978 c 9.73205,3.2e-4 19.46411,6.5e-4 29.19616,10e-4 l -7.12647,195.75853 -348.033899,3e-4 -7.11013,-195.76685 29.261403,10e-4 c 101.270976,6.7e-4 202.541956,0.003 303.812936,0.006 z"
       id="path5028-5-6"
       inkscape:path-effect="#path-effect5030-1-7"
       inkscape:original-d="m 356.52066,919.97315 0.0144,45.12504 -151.90913,-0.0206 -151.899339,0.0136 -0.0045,-45.1248 0.01741,-42.54171 303.825859,0.007 z m 0.0444,-85.95978 29.19616,10e-4 -7.12647,195.75853 -348.033899,3e-4 -7.11013,-195.76685 c 9.73934,3.3e-4 46.416373,32.0177 29.261403,10e-4 z"
       inkscape:connector-curvature="0"
       sodipodi:nodetypes="ccccccccccccccc" />
    <circle
       style="fill:none;stroke:#000000;stroke-width:0.88582677;stroke-linecap:butt;stroke-linejoin:bevel;stroke-miterlimit:4;stroke-dasharray:none"
       id="path5572-9-7"
       cx="122.23144"
       cy="995.66931"
       r="4.8593926" />
    <circle
       style="fill:none;stroke:#000000;stroke-width:0.88582677;stroke-linecap:butt;stroke-linejoin:bevel;stroke-miterlimit:4;stroke-dasharray:none"
       id="path5572-1-7-3"
       cx="281.68378"
       cy="995.67963"
       r="4.8593926" />
    <path
       style="fill:none;fill-rule:evenodd;stroke:#000000;stroke-width:0.88567042;stroke-linecap:butt;stroke-linejoin:miter;stroke-miterlimit:4;stroke-dasharray:none;stroke-opacity:1"
       d="m 384.87642,231.82954 -29.21802,-0.001 -0.0179,-131.08385 c -50.63312,0.0102 -101.26623,0.0148 -151.89935,0.0136 -50.63636,-0.001 -101.27272,-0.008 -151.909079,-0.0206 l 0.058,131.08483 -29.2839,-0.001 7.1265,-195.758608 348.033919,-3e-4 7.10983,195.766928 z"
       id="path5028-5-4"
       inkscape:path-effect="#path-effect5030-1-9"
       inkscape:original-d="m 384.87642,231.82954 -29.21802,-0.001 -0.0179,-131.08385 -151.89935,0.0136 -151.909079,-0.0206 0.058,131.08483 -29.2839,-0.001 7.1265,-195.758608 348.033919,-3e-4 z"
       inkscape:connector-curvature="0"
       sodipodi:nodetypes="cccccccccc" />
    <circle
       style="fill:none;stroke:#000000;stroke-width:0.88582677;stroke-linecap:butt;stroke-linejoin:bevel;stroke-miterlimit:4;stroke-dasharray:none"
       id="path5572-9-8"
       cx="-283.46814"
       cy="-72.660751"
       r="4.8593926"
       transform="scale(-1,-1)" />
    <circle
       style="fill:none;stroke:#000000;stroke-width:0.88582677;stroke-linecap:butt;stroke-linejoin:bevel;stroke-miterlimit:4;stroke-dasharray:none"
       id="path5572-1-7-1"
       cx="-124.01575"
       cy="-72.650436"
       r="4.8593926"
       transform="scale(-1,-1)" />
    <path
       style="fill:none;fill-rule:evenodd;stroke:#000000;stroke-width:0.88567042;stroke-linecap:butt;stroke-linejoin:miter;stroke-miterlimit:4;stroke-dasharray:none;stroke-opacity:1"
       d="m 501.86291,54.502947 c 15.04168,0.0059 30.08337,0.0011 45.12504,-0.0144 -0.0126,50.636373 -0.0194,101.272753 -0.0206,151.909133 -0.001,50.63311 0.003,101.26623 0.0136,151.89934 -15.0416,0.005 -30.0832,0.007 -45.1248,0.004 -14.18057,-0.002 -28.36114,-0.008 -42.54171,-0.0174 l 0.007,-303.825863 c 14.18048,0.02457 28.36097,0.03963 42.54147,0.04519 z m -85.95978,-0.0444 c 3.2e-4,-9.732053 6.5e-4,-19.464107 0.001,-29.19616 l 195.75853,7.12647 3e-4,348.033903 -195.76685,7.11013 10e-4,-29.2614 c 6.7e-4,-101.27098 0.003,-202.54196 0.006,-303.812943 z"
       id="path5028-5-6-9"
       inkscape:path-effect="#path-effect5030-1-7-2"
       inkscape:original-d="m 501.86291,54.502947 45.12504,-0.0144 -0.0206,151.909133 0.0136,151.89934 -45.1248,0.004 -42.54171,-0.0174 0.007,-303.825863 z m -85.95978,-0.0444 0.001,-29.19616 195.75853,7.12647 3e-4,348.033903 -195.76685,7.11013 c 3.3e-4,-9.73934 32.0177,-46.41637 10e-4,-29.2614 z"
       inkscape:connector-curvature="0"
       sodipodi:nodetypes="ccccccccccccccc" />
    <circle
       style="fill:none;stroke:#000000;stroke-width:0.88582677;stroke-linecap:butt;stroke-linejoin:bevel;stroke-miterlimit:4;stroke-dasharray:none"
       id="path5572-9-7-3"
       cx="-286.12463"
       cy="575.06494"
       r="4.8593926"
       transform="matrix(0,-1,1,0,0,0)" />
    <circle
       style="fill:none;stroke:#000000;stroke-width:0.88582677;stroke-linecap:butt;stroke-linejoin:bevel;stroke-miterlimit:4;stroke-dasharray:none"
       id="path5572-1-7-3-9"
       cx="-126.67231"
       cy="575.07526"
       r="4.8593926"
       transform="matrix(0,-1,1,0,0,0)" />
    <path
       style="fill:none;fill-rule:evenodd;stroke:#000000;stroke-width:0.88567042;stroke-linecap:butt;stroke-linejoin:miter;stroke-miterlimit:4;stroke-dasharray:none;stroke-opacity:1"
       d="m 360.06397,700.2881 c -0.006,15.04168 -9.1e-4,30.08337 0.0144,45.12505 -50.63638,-0.0128 -101.27275,-0.0198 -151.90913,-0.021 -50.63311,-0.001 -101.26623,0.004 -151.899339,0.014 -0.0057,-15.0416 -0.0074,-30.08321 -0.005,-45.12481 0.0022,-14.18057 0.008,-28.36114 0.0174,-42.54171 l 303.825859,0.007 c -0.0241,14.18048 -0.0388,28.36097 -0.0442,42.54147 z m 0.0444,-85.95978 c 9.73205,3.2e-4 19.46411,6.5e-4 29.19616,0.001 l -7.12647,195.75853 -348.033899,3e-4 -7.11013,-195.76685 29.26141,0.001 c 101.270979,6.7e-4 202.541949,0.003 303.812929,0.006 z"
       id="path5028-5-6-8"
       inkscape:path-effect="#path-effect5030-1-7-0"
       inkscape:original-d="m 360.06397,700.2881 0.0144,45.12505 -151.90913,-0.021 -151.899339,0.014 -0.005,-45.12481 0.0174,-42.54171 303.825859,0.007 z m 0.0444,-85.95978 29.19616,0.001 -7.12647,195.75853 -348.033899,3e-4 -7.11013,-195.76685 c 9.73934,3.3e-4 46.41638,32.0177 29.26141,0.001 z"
       inkscape:connector-curvature="0"
       sodipodi:nodetypes="ccccccccccccccc" />
    <circle
       style="fill:none;stroke:#000000;stroke-width:0.88582677;stroke-linecap:butt;stroke-linejoin:bevel;stroke-miterlimit:4;stroke-dasharray:none"
       id="path5572-9-7-8"
       cx="123.12732"
       cy="777.03345"
       r="4.8593926" />
    <circle
       style="fill:none;stroke:#000000;stroke-width:0.88582677;stroke-linecap:butt;stroke-linejoin:bevel;stroke-miterlimit:4;stroke-dasharray:none"
       id="path5572-1-7-3-5"
       cx="282.57968"
       cy="777.0437"
       r="4.8593926" />
    <path
       style="fill:none;fill-rule:evenodd;stroke:#000000;stroke-width:0.88582677;stroke-linecap:butt;stroke-linejoin:miter;stroke-miterlimit:4;stroke-dasharray:none;stroke-opacity:1"
       d="m 426.5147,788.0146 0.009,-362.35842 195.78022,7.1282 2.8e-4,348.11836 -195.7895,7.11186 z"
       id="path5028-9"
       inkscape:path-effect="#path-effect5030-0"
       inkscape:original-d="m 426.5147,788.0146 0.009,-362.35842 195.78022,7.1282 2.8e-4,348.11836 z"
       inkscape:connector-curvature="0"
       sodipodi:nodetypes="ccccc" />
    <circle
       style="fill:none;stroke:#000000;stroke-width:0.88582677;stroke-linecap:butt;stroke-linejoin:bevel;stroke-miterlimit:4;stroke-dasharray:none"
       id="path5572-6"
       cx="-675.9292"
       cy="575.06433"
       r="4.7244096"
       transform="matrix(0,-1,1,0,0,0)" />
    <circle
       style="fill:none;stroke:#000000;stroke-width:0.88582677;stroke-linecap:butt;stroke-linejoin:bevel;stroke-miterlimit:4;stroke-dasharray:none"
       id="path5572-1-3"
       cx="-516.49878"
       cy="575.07465"
       r="4.7244096"
       transform="matrix(0,-1,1,0,0,0)" />
  </g>
</svg>
