  0
SECTION
  2
HEADER
  9
$ACADVER
  1
AC1009
  9
$INSBASE
 10
0.0
 20
0.0
 30
0.0
  9
$EXTMIN
 10
0.0
 20
0.0
 30
0.0
  9
$EXTMAX
 10
0.0
 20
0.0
 30
0.0
  0
ENDSEC
  0
SECTION
  2
TABLES
  0
TABLE
  2
VPORT
 70
1
  0
VPORT
  2
*ACTIVE
 70
0
 10
0.0
 20
0.0
 11
1.0
 21
1.0
 12
-5.0
 22
1.0
 13
0.0
 23
0.0
 14
0.1
 24
0.1
 15
0.1
 25
0.1
 16
0.0
 26
0.0
 36
1.0
 17
0.0
 27
0.0
 37
0.0
 40
10.0
 41
1.0
 42
50.0
 43
0.0
 44
0.0
 50
0.0
 51
0.0
 71
0
 72
100
 73
1
 74
1
 75
0
 76
0
 77
0
 78
0
  0
ENDTAB
  0
TABLE
  2
LTYPE
 70
8
  0
LTYPE
  2
CONTINUOUS
 70
0
  3
Solid line
 72
65
 73
0
 40
0.0
  0
LTYPE
  2
DOT
 70
0
  3
. . . . . . .
 72
65
 73
2
 40
0.25
 49
0.0
 49
-0.25
  0
LTYPE
  2
DASHED
 70
0
  3
__ __ __ __ __
 72
65
 73
2
 40
0.8
 49
0.5
 49
-0.3
  0
LTYPE
  2
DASHDOT
 70
0
  3
__ . __ . __ .
 72
65
 73
4
 40
1.0
 49
0.5
 49
-0.25
 49
0.0
 49
-0.25
  0
LTYPE
  2
DIVIDE
 70
0
  3
____ . . ____ . . 
 72
65
 73
6
 40
1.25
 49
0.5
 49
-0.25
 49
0.0
 49
-0.25
 49
0.0
 49
-0.25
  0
LTYPE
  2
BORDER
 70
0
  3
__ __ . __ __ . 
 72
65
 73
6
 40
1.75
 49
0.5
 49
-0.25
 49
0.5
 49
-0.25
 49
0.0
 49
-0.25
  0
LTYPE
  2
HIDDEN
 70
0
  3
__ __ __ __ __
 72
65
 73
2
 40
0.4
 49
0.25
 49
-0.25
  0
LTYPE
  2
CENTER
 70
0
  3
____ _ ____ _ __
 72
65
 73
4
 40
2.0
 49
1.25
 49
-0.25
 49
0.25
 49
-0.25
  0
ENDTAB
  0
TABLE
  2
LAYER
 70
1
  0
LAYER
  2
PYDXF
 70
64
 62
7
  6
continuous
  0
ENDTAB
  0
TABLE
  2
STYLE
 70
1
  0
STYLE
  2
STANDARD
 70
0
 40
0
 41
1.0
 50
0.0
 71
0
 42
1
 3
ARIAL.TTF
 4

  0
ENDTAB
  0
TABLE
  2
VIEW
 70
1
  0
VIEW
  2
BF_TOPVIEW
 70
0
 40
120.0
 10
0.0
 20
0.0
 41
200.0
 11
0.0
 21
0.0
 31
1.0
 12
0.0
 22
0.0
 32
0.0
 42
50.0
 43
0.0
 44
0.0
 50
0.0
 71
0
  0
ENDTAB
  0
ENDSEC
  0
SECTION
  2
BLOCKS
  0
ENDSEC
  0
SECTION
  2
ENTITIES
  0
3DFACE
  8
0
 10
-50.96263122558594
 20
-189.23550415039062
 30
19.999996185302734
 11
-50.96263122558594
 21
-209.2354736328125
 31
19.999996185302734
 12
-52.000003814697266
 22
-209.2354736328125
 32
55.0
 13
-52.000003814697266
 23
-189.23550415039062
 33
55.0
  0
3DFACE
  8
0
 10
-50.96263122558594
 20
-189.23550415039062
 30
19.999996185302734
 11
-52.000003814697266
 21
-189.23550415039062
 31
55.0
 12
-44.0
 22
-189.23550415039062
 32
55.0
 13
-44.0
 23
-189.23550415039062
 33
55.0
  0
3DFACE
  8
0
 10
-44.0
 20
-189.23550415039062
 30
43.0
 11
-44.0
 21
-189.23550415039062
 31
19.999996185302734
 12
-50.96263122558594
 22
-189.23550415039062
 32
19.999996185302734
 13
-50.96263122558594
 23
-189.23550415039062
 33
19.999996185302734
  0
3DFACE
  8
0
 10
-44.0
 20
-189.23550415039062
 30
55.0
 11
-44.0
 21
-189.23550415039062
 31
43.0
 12
-50.96263122558594
 22
-189.23550415039062
 32
19.999996185302734
 13
-50.96263122558594
 23
-189.23550415039062
 33
19.999996185302734
  0
3DFACE
  8
0
 10
-44.0
 20
-189.23550415039062
 30
43.0
 11
-44.0
 21
-209.2354736328125
 31
43.0
 12
-44.0
 22
-209.2354736328125
 32
19.999996185302734
 13
-44.0
 23
-189.23550415039062
 33
19.999996185302734
  0
3DFACE
  8
0
 10
-44.0
 20
-209.2354736328125
 30
43.0
 11
-44.0
 21
-209.2354736328125
 31
55.0
 12
-52.000003814697266
 22
-209.2354736328125
 32
55.0
 13
-52.000003814697266
 23
-209.2354736328125
 33
55.0
  0
3DFACE
  8
0
 10
-52.000003814697266
 20
-209.2354736328125
 30
55.0
 11
-50.96263122558594
 21
-209.2354736328125
 31
19.999996185302734
 12
-44.0
 22
-209.2354736328125
 32
19.999996185302734
 13
-44.0
 23
-209.2354736328125
 33
19.999996185302734
  0
3DFACE
  8
0
 10
-52.000003814697266
 20
-209.2354736328125
 30
55.0
 11
-44.0
 21
-209.2354736328125
 31
19.999996185302734
 12
-44.0
 22
-209.2354736328125
 32
43.0
 13
-44.0
 23
-209.2354736328125
 33
43.0
  0
3DFACE
  8
0
 10
-50.491172790527344
 20
-189.23550415039062
 30
-1.9073486328125e-06
 11
-50.96263122558594
 21
-189.23550415039062
 31
19.999996185302734
 12
-44.0
 22
-189.23550415039062
 32
19.999996185302734
 13
-44.0
 23
-189.23550415039062
 33
19.999996185302734
  0
3DFACE
  8
0
 10
-44.0
 20
-189.23550415039062
 30
13.333328247070312
 11
-44.0
 21
-189.23550415039062
 31
6.666664123535156
 12
-44.0
 22
-189.23550415039062
 32
-1.9073486328125e-06
 13
-44.0
 23
-189.23550415039062
 33
-1.9073486328125e-06
  0
3DFACE
  8
0
 10
-50.491172790527344
 20
-189.23550415039062
 30
-1.9073486328125e-06
 11
-44.0
 21
-189.23550415039062
 31
19.999996185302734
 12
-44.0
 22
-189.23550415039062
 32
13.333328247070312
 13
-44.0
 23
-189.23550415039062
 33
13.333328247070312
  0
3DFACE
  8
0
 10
-44.0
 20
-189.23550415039062
 30
13.333328247070312
 11
-44.0
 21
-189.23550415039062
 31
-1.9073486328125e-06
 12
-50.491172790527344
 22
-189.23550415039062
 32
-1.9073486328125e-06
 13
-50.491172790527344
 23
-189.23550415039062
 33
-1.9073486328125e-06
  0
3DFACE
  8
0
 10
-44.0
 20
-209.2354736328125
 30
55.0
 11
-44.0
 21
-189.23550415039062
 31
55.0
 12
-52.000003814697266
 22
-189.23550415039062
 32
55.0
 13
-52.000003814697266
 23
-209.2354736328125
 33
55.0
  0
3DFACE
  8
0
 10
-50.491172790527344
 20
-209.2354736328125
 30
-1.9073486328125e-06
 11
-50.491172790527344
 21
-189.23550415039062
 31
-1.9073486328125e-06
 12
-44.0
 22
-189.23550415039062
 32
-1.9073486328125e-06
 13
-44.0
 23
-209.2354736328125
 33
-1.9073486328125e-06
  0
3DFACE
  8
0
 10
-44.0
 20
-209.2354736328125
 30
13.333330154418945
 11
-44.0
 21
-209.2354736328125
 31
19.999996185302734
 12
-50.96263122558594
 22
-209.2354736328125
 32
19.999996185302734
 13
-50.96263122558594
 23
-209.2354736328125
 33
19.999996185302734
  0
3DFACE
  8
0
 10
-50.96263122558594
 20
-209.2354736328125
 30
19.999996185302734
 11
-50.491172790527344
 21
-209.2354736328125
 31
-1.9073486328125e-06
 12
-44.0
 22
-209.2354736328125
 32
-1.9073486328125e-06
 13
-44.0
 23
-209.2354736328125
 33
-1.9073486328125e-06
  0
3DFACE
  8
0
 10
-44.0
 20
-209.2354736328125
 30
6.666664123535156
 11
-44.0
 21
-209.2354736328125
 31
13.333330154418945
 12
-50.96263122558594
 22
-209.2354736328125
 32
19.999996185302734
 13
-50.96263122558594
 23
-209.2354736328125
 33
19.999996185302734
  0
3DFACE
  8
0
 10
-50.96263122558594
 20
-209.2354736328125
 30
19.999996185302734
 11
-44.0
 21
-209.2354736328125
 31
-1.9073486328125e-06
 12
-44.0
 22
-209.2354736328125
 32
6.666664123535156
 13
-44.0
 23
-209.2354736328125
 33
6.666664123535156
  0
3DFACE
  8
0
 10
-14.666667938232422
 20
-189.23550415039062
 30
19.999996185302734
 11
-44.0
 21
-189.23550415039062
 31
19.999996185302734
 12
-44.0
 22
-209.2354736328125
 32
19.999996185302734
 13
-44.0
 23
-209.2354736328125
 33
19.999996185302734
  0
3DFACE
  8
0
 10
-14.666666030883789
 20
-209.2354736328125
 30
19.999996185302734
 11
14.666667938232422
 21
-209.2354736328125
 31
19.999996185302734
 12
44.0
 22
-209.2354736328125
 32
19.999996185302734
 13
44.0
 23
-209.2354736328125
 33
19.999996185302734
  0
3DFACE
  8
0
 10
-14.666667938232422
 20
-189.23550415039062
 30
19.999996185302734
 11
-44.0
 21
-209.2354736328125
 31
19.999996185302734
 12
-14.666666030883789
 22
-209.2354736328125
 32
19.999996185302734
 13
-14.666666030883789
 23
-209.2354736328125
 33
19.999996185302734
  0
3DFACE
  8
0
 10
44.0
 20
-209.2354736328125
 30
19.999996185302734
 11
44.0
 21
-189.23550415039062
 31
19.999996185302734
 12
14.666666030883789
 22
-189.23550415039062
 32
19.999996185302734
 13
14.666666030883789
 23
-189.23550415039062
 33
19.999996185302734
  0
3DFACE
  8
0
 10
14.666666030883789
 20
-189.23550415039062
 30
19.999996185302734
 11
-14.666667938232422
 21
-189.23550415039062
 31
19.999996185302734
 12
-14.666666030883789
 22
-209.2354736328125
 32
19.999996185302734
 13
-14.666666030883789
 23
-209.2354736328125
 33
19.999996185302734
  0
3DFACE
  8
0
 10
-14.666666030883789
 20
-209.2354736328125
 30
19.999996185302734
 11
44.0
 21
-209.2354736328125
 31
19.999996185302734
 12
14.666666030883789
 22
-189.23550415039062
 32
19.999996185302734
 13
14.666666030883789
 23
-189.23550415039062
 33
19.999996185302734
  0
3DFACE
  8
0
 10
-50.96263122558594
 20
-209.2354736328125
 30
19.999996185302734
 11
-50.96263122558594
 21
-189.23550415039062
 31
19.999996185302734
 12
-50.491172790527344
 22
-189.23550415039062
 32
-1.9073486328125e-06
 13
-50.491172790527344
 23
-209.2354736328125
 33
-1.9073486328125e-06
  0
3DFACE
  8
0
 10
50.47428894042969
 20
-189.23550415039062
 30
-1.9073486328125e-06
 11
44.0
 21
-189.23550415039062
 31
-1.9073486328125e-06
 12
44.0
 22
-189.23550415039062
 32
6.666664123535156
 13
44.0
 23
-189.23550415039062
 33
6.666664123535156
  0
3DFACE
  8
0
 10
44.0
 20
-189.23550415039062
 30
13.333328247070312
 11
44.0
 21
-189.23550415039062
 31
19.999996185302734
 12
50.96263122558594
 22
-189.23550415039062
 32
19.999996185302734
 13
50.96263122558594
 23
-189.23550415039062
 33
19.999996185302734
  0
3DFACE
  8
0
 10
50.47428894042969
 20
-189.23550415039062
 30
-1.9073486328125e-06
 11
44.0
 21
-189.23550415039062
 31
6.666664123535156
 12
44.0
 22
-189.23550415039062
 32
13.333328247070312
 13
44.0
 23
-189.23550415039062
 33
13.333328247070312
  0
3DFACE
  8
0
 10
44.0
 20
-189.23550415039062
 30
13.333328247070312
 11
50.96263122558594
 21
-189.23550415039062
 31
19.999996185302734
 12
50.47428894042969
 22
-189.23550415039062
 32
-1.9073486328125e-06
 13
50.47428894042969
 23
-189.23550415039062
 33
-1.9073486328125e-06
  0
3DFACE
  8
0
 10
14.666667938232422
 20
-189.23550415039062
 30
13.333328247070312
 11
14.666666030883789
 21
-189.23550415039062
 31
19.999996185302734
 12
44.0
 22
-189.23550415039062
 32
19.999996185302734
 13
44.0
 23
-189.23550415039062
 33
13.333328247070312
  0
3DFACE
  8
0
 10
-14.666667938232422
 20
-209.2354736328125
 30
-1.9073486328125e-06
 11
-44.0
 21
-209.2354736328125
 31
-1.9073486328125e-06
 12
-44.0
 22
-189.23550415039062
 32
-1.9073486328125e-06
 13
-44.0
 23
-189.23550415039062
 33
-1.9073486328125e-06
  0
3DFACE
  8
0
 10
-14.666667938232422
 20
-189.23550415039062
 30
-1.9073486328125e-06
 11
14.666666030883789
 21
-189.23550415039062
 31
-1.9073486328125e-06
 12
44.0
 22
-189.23550415039062
 32
-1.9073486328125e-06
 13
44.0
 23
-189.23550415039062
 33
-1.9073486328125e-06
  0
3DFACE
  8
0
 10
-14.666667938232422
 20
-209.2354736328125
 30
-1.9073486328125e-06
 11
-44.0
 21
-189.23550415039062
 31
-1.9073486328125e-06
 12
-14.666667938232422
 22
-189.23550415039062
 32
-1.9073486328125e-06
 13
-14.666667938232422
 23
-189.23550415039062
 33
-1.9073486328125e-06
  0
3DFACE
  8
0
 10
44.0
 20
-189.23550415039062
 30
-1.9073486328125e-06
 11
44.0
 21
-209.2354736328125
 31
-1.9073486328125e-06
 12
14.666666030883789
 22
-209.2354736328125
 32
-1.9073486328125e-06
 13
14.666666030883789
 23
-209.2354736328125
 33
-1.9073486328125e-06
  0
3DFACE
  8
0
 10
14.666666030883789
 20
-209.2354736328125
 30
-1.9073486328125e-06
 11
-14.666667938232422
 21
-209.2354736328125
 31
-1.9073486328125e-06
 12
-14.666667938232422
 22
-189.23550415039062
 32
-1.9073486328125e-06
 13
-14.666667938232422
 23
-189.23550415039062
 33
-1.9073486328125e-06
  0
3DFACE
  8
0
 10
-14.666667938232422
 20
-189.23550415039062
 30
-1.9073486328125e-06
 11
44.0
 21
-189.23550415039062
 31
-1.9073486328125e-06
 12
14.666666030883789
 22
-209.2354736328125
 32
-1.9073486328125e-06
 13
14.666666030883789
 23
-209.2354736328125
 33
-1.9073486328125e-06
  0
3DFACE
  8
0
 10
14.666667938232422
 20
-209.2354736328125
 30
6.666664123535156
 11
14.666666030883789
 21
-209.2354736328125
 31
-1.9073486328125e-06
 12
44.0
 22
-209.2354736328125
 32
-1.9073486328125e-06
 13
44.0
 23
-209.2354736328125
 33
6.666664123535156
  0
3DFACE
  8
0
 10
50.96263122558594
 20
-189.23550415039062
 30
19.999996185302734
 11
50.96263122558594
 21
-209.2354736328125
 31
19.999996185302734
 12
50.47428894042969
 22
-209.2354736328125
 32
-1.9073486328125e-06
 13
50.47428894042969
 23
-189.23550415039062
 33
-1.9073486328125e-06
  0
3DFACE
  8
0
 10
50.96263122558594
 20
-209.2354736328125
 30
19.999996185302734
 11
50.96263122558594
 21
-189.23550415039062
 31
19.999996185302734
 12
52.000003814697266
 22
-189.23550415039062
 32
54.99999237060547
 13
52.000003814697266
 23
-209.2354736328125
 33
54.99999237060547
  0
3DFACE
  8
0
 10
50.96263122558594
 20
-209.2354736328125
 30
19.999996185302734
 11
44.0
 21
-209.2354736328125
 31
19.999996185302734
 12
44.0
 22
-209.2354736328125
 32
13.333330154418945
 13
44.0
 23
-209.2354736328125
 33
13.333330154418945
  0
3DFACE
  8
0
 10
44.0
 20
-209.2354736328125
 30
6.666664123535156
 11
44.0
 21
-209.2354736328125
 31
-1.9073486328125e-06
 12
50.47428894042969
 22
-209.2354736328125
 32
-1.9073486328125e-06
 13
50.47428894042969
 23
-209.2354736328125
 33
-1.9073486328125e-06
  0
3DFACE
  8
0
 10
50.96263122558594
 20
-209.2354736328125
 30
19.999996185302734
 11
44.0
 21
-209.2354736328125
 31
13.333330154418945
 12
44.0
 22
-209.2354736328125
 32
6.666664123535156
 13
44.0
 23
-209.2354736328125
 33
6.666664123535156
  0
3DFACE
  8
0
 10
44.0
 20
-209.2354736328125
 30
6.666664123535156
 11
50.47428894042969
 21
-209.2354736328125
 31
-1.9073486328125e-06
 12
50.96263122558594
 22
-209.2354736328125
 32
19.999996185302734
 13
50.96263122558594
 23
-209.2354736328125
 33
19.999996185302734
  0
3DFACE
  8
0
 10
44.0
 20
-209.2354736328125
 30
-1.9073486328125e-06
 11
44.0
 21
-189.23550415039062
 31
-1.9073486328125e-06
 12
50.47428894042969
 22
-189.23550415039062
 32
-1.9073486328125e-06
 13
50.47428894042969
 23
-209.2354736328125
 33
-1.9073486328125e-06
  0
3DFACE
  8
0
 10
44.0
 20
-189.23550415039062
 30
54.99999237060547
 11
44.0
 21
-209.2354736328125
 31
54.99999237060547
 12
52.000003814697266
 22
-209.2354736328125
 32
54.99999237060547
 13
52.000003814697266
 23
-189.23550415039062
 33
54.99999237060547
  0
3DFACE
  8
0
 10
44.0
 20
-189.23550415039062
 30
42.999996185302734
 11
44.0
 21
-209.2354736328125
 31
42.999996185302734
 12
44.0
 22
-209.2354736328125
 32
54.99999237060547
 13
44.0
 23
-189.23550415039062
 33
54.99999237060547
  0
3DFACE
  8
0
 10
44.0
 20
-209.2354736328125
 30
42.999996185302734
 11
44.0
 21
-209.2354736328125
 31
19.999996185302734
 12
50.96263122558594
 22
-209.2354736328125
 32
19.999996185302734
 13
50.96263122558594
 23
-209.2354736328125
 33
19.999996185302734
  0
3DFACE
  8
0
 10
50.96263122558594
 20
-209.2354736328125
 30
19.999996185302734
 11
52.000003814697266
 21
-209.2354736328125
 31
54.99999237060547
 12
44.0
 22
-209.2354736328125
 32
54.99999237060547
 13
44.0
 23
-209.2354736328125
 33
54.99999237060547
  0
3DFACE
  8
0
 10
50.96263122558594
 20
-209.2354736328125
 30
19.999996185302734
 11
44.0
 21
-209.2354736328125
 31
54.99999237060547
 12
44.0
 22
-209.2354736328125
 32
42.999996185302734
 13
44.0
 23
-209.2354736328125
 33
42.999996185302734
  0
3DFACE
  8
0
 10
52.000003814697266
 20
-189.23550415039062
 30
54.99999237060547
 11
50.96263122558594
 21
-189.23550415039062
 31
19.999996185302734
 12
44.0
 22
-189.23550415039062
 32
19.999996185302734
 13
44.0
 23
-189.23550415039062
 33
19.999996185302734
  0
3DFACE
  8
0
 10
44.0
 20
-189.23550415039062
 30
42.999996185302734
 11
44.0
 21
-189.23550415039062
 31
54.99999237060547
 12
52.000003814697266
 22
-189.23550415039062
 32
54.99999237060547
 13
52.000003814697266
 23
-189.23550415039062
 33
54.99999237060547
  0
3DFACE
  8
0
 10
44.0
 20
-189.23550415039062
 30
19.999996185302734
 11
44.0
 21
-189.23550415039062
 31
42.999996185302734
 12
52.000003814697266
 22
-189.23550415039062
 32
54.99999237060547
 13
52.000003814697266
 23
-189.23550415039062
 33
54.99999237060547
  0
3DFACE
  8
0
 10
44.0
 20
-189.23550415039062
 30
19.999996185302734
 11
44.0
 21
-209.2354736328125
 31
19.999996185302734
 12
44.0
 22
-209.2354736328125
 32
42.999996185302734
 13
44.0
 23
-189.23550415039062
 33
42.999996185302734
  0
3DFACE
  8
0
 10
-44.0
 20
-189.23550415039062
 30
55.0
 11
-44.0
 21
-209.2354736328125
 31
55.0
 12
-44.0
 22
-209.2354736328125
 32
43.0
 13
-44.0
 23
-189.23550415039062
 33
43.0
  0
3DFACE
  8
0
 10
-44.0
 20
-189.23550415039062
 30
55.0
 11
44.0
 21
-189.23550415039062
 31
54.99999237060547
 12
44.0
 22
-209.2354736328125
 32
54.99999237060547
 13
-44.0
 23
-209.2354736328125
 33
55.0
  0
3DFACE
  8
0
 10
44.0
 20
-209.2354736328125
 30
42.999996185302734
 11
-44.0
 21
-209.2354736328125
 31
43.0
 12
-44.0
 22
-209.2354736328125
 32
55.0
 13
44.0
 23
-209.2354736328125
 33
54.99999237060547
  0
3DFACE
  8
0
 10
-44.0
 20
-209.2354736328125
 30
43.0
 11
44.0
 21
-209.2354736328125
 31
42.999996185302734
 12
44.0
 22
-189.23550415039062
 32
42.999996185302734
 13
-44.0
 23
-189.23550415039062
 33
43.0
  0
3DFACE
  8
0
 10
44.0
 20
-189.23550415039062
 30
54.99999237060547
 11
-44.0
 21
-189.23550415039062
 31
55.0
 12
-44.0
 22
-189.23550415039062
 32
43.0
 13
44.0
 23
-189.23550415039062
 33
42.999996185302734
  0
3DFACE
  8
0
 10
14.666667938232422
 20
-209.2354736328125
 30
19.999996185302734
 11
14.666667938232422
 21
-209.2354736328125
 31
13.333330154418945
 12
44.0
 22
-209.2354736328125
 32
13.333330154418945
 13
44.0
 23
-209.2354736328125
 33
19.999996185302734
  0
3DFACE
  8
0
 10
21.000003814697266
 20
-209.2354736328125
 30
10.000017166137695
 11
14.666667938232422
 21
-209.2354736328125
 31
13.333330154418945
 12
14.666667938232422
 22
-209.2354736328125
 32
6.666664123535156
 13
14.666667938232422
 23
-209.2354736328125
 33
6.666664123535156
  0
3DFACE
  8
0
 10
44.0
 20
-209.2354736328125
 30
6.666664123535156
 11
23.999996185302734
 21
-209.2354736328125
 31
10.000015258789062
 12
23.971179962158203
 22
-209.2354736328125
 32
9.707382202148438
 13
23.971179962158203
 23
-209.2354736328125
 33
9.707382202148438
  0
3DFACE
  8
0
 10
44.0
 20
-209.2354736328125
 30
6.666664123535156
 11
23.971179962158203
 21
-209.2354736328125
 31
9.707382202148438
 12
23.885814666748047
 22
-209.2354736328125
 32
9.425989151000977
 13
23.885814666748047
 23
-209.2354736328125
 33
9.425989151000977
  0
3DFACE
  8
0
 10
21.028820037841797
 20
-209.2354736328125
 30
9.707378387451172
 11
21.000003814697266
 21
-209.2354736328125
 31
10.000017166137695
 12
14.666667938232422
 22
-209.2354736328125
 32
6.666664123535156
 13
14.666667938232422
 23
-209.2354736328125
 33
6.666664123535156
  0
3DFACE
  8
0
 10
21.114185333251953
 20
-209.2354736328125
 30
9.425989151000977
 11
21.028820037841797
 21
-209.2354736328125
 31
9.707378387451172
 12
14.666667938232422
 22
-209.2354736328125
 32
6.666664123535156
 13
14.666667938232422
 23
-209.2354736328125
 33
6.666664123535156
  0
3DFACE
  8
0
 10
44.0
 20
-209.2354736328125
 30
6.666664123535156
 11
23.885814666748047
 21
-209.2354736328125
 31
9.425989151000977
 12
23.747209548950195
 22
-209.2354736328125
 32
9.166664123535156
 13
23.747209548950195
 23
-209.2354736328125
 33
9.166664123535156
  0
3DFACE
  8
0
 10
44.0
 20
-209.2354736328125
 30
6.666664123535156
 11
23.747209548950195
 21
-209.2354736328125
 31
9.166664123535156
 12
23.5606632232666
 22
-209.2354736328125
 32
8.939355850219727
 13
23.5606632232666
 23
-209.2354736328125
 33
8.939355850219727
  0
3DFACE
  8
0
 10
21.25279998779297
 20
-209.2354736328125
 30
9.166658401489258
 11
21.114185333251953
 21
-209.2354736328125
 31
9.425989151000977
 12
14.666667938232422
 22
-209.2354736328125
 32
6.666664123535156
 13
14.666667938232422
 23
-209.2354736328125
 33
6.666664123535156
  0
3DFACE
  8
0
 10
21.439346313476562
 20
-209.2354736328125
 30
8.939355850219727
 11
21.25279998779297
 21
-209.2354736328125
 31
9.166658401489258
 12
14.666667938232422
 22
-209.2354736328125
 32
6.666664123535156
 13
14.666667938232422
 23
-209.2354736328125
 33
6.666664123535156
  0
3DFACE
  8
0
 10
44.0
 20
-209.2354736328125
 30
6.666664123535156
 11
23.5606632232666
 21
-209.2354736328125
 31
8.939355850219727
 12
23.33334732055664
 22
-209.2354736328125
 32
8.752817153930664
 13
23.33334732055664
 23
-209.2354736328125
 33
8.752817153930664
  0
3DFACE
  8
0
 10
44.0
 20
-209.2354736328125
 30
6.666664123535156
 11
23.33334732055664
 21
-209.2354736328125
 31
8.752817153930664
 12
23.07402801513672
 22
-209.2354736328125
 32
8.614198684692383
 13
23.07402801513672
 23
-209.2354736328125
 33
8.614198684692383
  0
3DFACE
  8
0
 10
21.66664695739746
 20
-209.2354736328125
 30
8.752817153930664
 11
21.439346313476562
 21
-209.2354736328125
 31
8.939355850219727
 12
14.666667938232422
 22
-209.2354736328125
 32
6.666664123535156
 13
14.666667938232422
 23
-209.2354736328125
 33
6.666664123535156
  0
3DFACE
  8
0
 10
21.925975799560547
 20
-209.2354736328125
 30
8.61419677734375
 11
21.66664695739746
 21
-209.2354736328125
 31
8.752817153930664
 12
14.666667938232422
 22
-209.2354736328125
 32
6.666664123535156
 13
14.666667938232422
 23
-209.2354736328125
 33
6.666664123535156
  0
3DFACE
  8
0
 10
44.0
 20
-209.2354736328125
 30
6.666664123535156
 11
23.07402801513672
 21
-209.2354736328125
 31
8.614198684692383
 12
22.792633056640625
 22
-209.2354736328125
 32
8.528839111328125
 13
22.792633056640625
 23
-209.2354736328125
 33
8.528839111328125
  0
3DFACE
  8
0
 10
44.0
 20
-209.2354736328125
 30
6.666664123535156
 11
22.792633056640625
 21
-209.2354736328125
 31
8.528839111328125
 12
22.499998092651367
 22
-209.2354736328125
 32
8.500017166137695
 13
22.499998092651367
 23
-209.2354736328125
 33
8.500017166137695
  0
3DFACE
  8
0
 10
22.207368850708008
 20
-209.2354736328125
 30
8.528837203979492
 11
21.925975799560547
 21
-209.2354736328125
 31
8.61419677734375
 12
14.666667938232422
 22
-209.2354736328125
 32
6.666664123535156
 13
14.666667938232422
 23
-209.2354736328125
 33
6.666664123535156
  0
3DFACE
  8
0
 10
14.666667938232422
 20
-209.2354736328125
 30
6.666664123535156
 11
44.0
 21
-209.2354736328125
 31
6.666664123535156
 12
22.499998092651367
 22
-209.2354736328125
 32
8.500017166137695
 13
22.499998092651367
 23
-209.2354736328125
 33
8.500017166137695
  0
3DFACE
  8
0
 10
14.666667938232422
 20
-209.2354736328125
 30
6.666664123535156
 11
22.499998092651367
 21
-209.2354736328125
 31
8.500017166137695
 12
22.207368850708008
 22
-209.2354736328125
 32
8.528837203979492
 13
22.207368850708008
 23
-209.2354736328125
 33
8.528837203979492
  0
3DFACE
  8
0
 10
-44.0
 20
-209.2354736328125
 30
19.999996185302734
 11
-44.0
 21
-209.2354736328125
 31
13.333330154418945
 12
-14.666666030883789
 22
-209.2354736328125
 32
13.333330154418945
 13
-14.666666030883789
 23
-209.2354736328125
 33
19.999996185302734
  0
3DFACE
  8
0
 10
-14.666666030883789
 20
-209.2354736328125
 30
19.999996185302734
 11
-14.666666030883789
 21
-209.2354736328125
 31
13.333330154418945
 12
14.666667938232422
 22
-209.2354736328125
 32
13.333330154418945
 13
14.666667938232422
 23
-209.2354736328125
 33
19.999996185302734
  0
3DFACE
  8
0
 10
-14.666666030883789
 20
-209.2354736328125
 30
13.333330154418945
 11
-44.0
 21
-209.2354736328125
 31
13.333330154418945
 12
-44.0
 22
-209.2354736328125
 32
6.666664123535156
 13
-44.0
 23
-209.2354736328125
 33
6.666664123535156
  0
3DFACE
  8
0
 10
-44.0
 20
-209.2354736328125
 30
6.666664123535156
 11
-23.999998092651367
 21
-209.2354736328125
 31
10.000020980834961
 12
-23.971174240112305
 22
-209.2354736328125
 32
10.292655944824219
 13
-23.971174240112305
 23
-209.2354736328125
 33
10.292655944824219
  0
3DFACE
  8
0
 10
-44.0
 20
-209.2354736328125
 30
6.666664123535156
 11
-23.971174240112305
 21
-209.2354736328125
 31
10.292655944824219
 12
-23.88581657409668
 22
-209.2354736328125
 32
10.574047088623047
 13
-23.88581657409668
 23
-209.2354736328125
 33
10.574047088623047
  0
3DFACE
  8
0
 10
-21.02881622314453
 20
-209.2354736328125
 30
10.292661666870117
 11
-20.999996185302734
 21
-209.2354736328125
 31
10.000017166137695
 12
-14.666666030883789
 22
-209.2354736328125
 32
13.333330154418945
 13
-14.666666030883789
 23
-209.2354736328125
 33
13.333330154418945
  0
3DFACE
  8
0
 10
-21.114177703857422
 20
-209.2354736328125
 30
10.574047088623047
 11
-21.02881622314453
 21
-209.2354736328125
 31
10.292661666870117
 12
-14.666666030883789
 22
-209.2354736328125
 32
13.333330154418945
 13
-14.666666030883789
 23
-209.2354736328125
 33
13.333330154418945
  0
3DFACE
  8
0
 10
-44.0
 20
-209.2354736328125
 30
6.666664123535156
 11
-23.88581657409668
 21
-209.2354736328125
 31
10.574047088623047
 12
-23.747207641601562
 22
-209.2354736328125
 32
10.833379745483398
 13
-23.747207641601562
 23
-209.2354736328125
 33
10.833379745483398
  0
3DFACE
  8
0
 10
-44.0
 20
-209.2354736328125
 30
6.666664123535156
 11
-23.747207641601562
 21
-209.2354736328125
 31
10.833379745483398
 12
-23.56065559387207
 22
-209.2354736328125
 32
11.060686111450195
 13
-23.56065559387207
 23
-209.2354736328125
 33
11.060686111450195
  0
3DFACE
  8
0
 10
-21.252790451049805
 20
-209.2354736328125
 30
10.833383560180664
 11
-21.114177703857422
 21
-209.2354736328125
 31
10.574047088623047
 12
-14.666666030883789
 22
-209.2354736328125
 32
13.333330154418945
 13
-14.666666030883789
 23
-209.2354736328125
 33
13.333330154418945
  0
3DFACE
  8
0
 10
-21.43933868408203
 20
-209.2354736328125
 30
11.060686111450195
 11
-21.252790451049805
 21
-209.2354736328125
 31
10.833383560180664
 12
-14.666666030883789
 22
-209.2354736328125
 32
13.333330154418945
 13
-14.666666030883789
 23
-209.2354736328125
 33
13.333330154418945
  0
3DFACE
  8
0
 10
-44.0
 20
-209.2354736328125
 30
6.666664123535156
 11
-23.56065559387207
 21
-209.2354736328125
 31
11.060686111450195
 12
-23.333354949951172
 22
-209.2354736328125
 32
11.247228622436523
 13
-23.333354949951172
 23
-209.2354736328125
 33
11.247228622436523
  0
3DFACE
  8
0
 10
-44.0
 20
-209.2354736328125
 30
6.666664123535156
 11
-23.333354949951172
 21
-209.2354736328125
 31
11.247228622436523
 12
-23.074024200439453
 22
-209.2354736328125
 32
11.38583755493164
 13
-23.074024200439453
 23
-209.2354736328125
 33
11.38583755493164
  0
3DFACE
  8
0
 10
-21.666641235351562
 20
-209.2354736328125
 30
11.247228622436523
 11
-21.43933868408203
 21
-209.2354736328125
 31
11.060686111450195
 12
-14.666666030883789
 22
-209.2354736328125
 32
13.333330154418945
 13
-14.666666030883789
 23
-209.2354736328125
 33
13.333330154418945
  0
3DFACE
  8
0
 10
-21.925973892211914
 20
-209.2354736328125
 30
11.385839462280273
 11
-21.666641235351562
 21
-209.2354736328125
 31
11.247228622436523
 12
-14.666666030883789
 22
-209.2354736328125
 32
13.333330154418945
 13
-14.666666030883789
 23
-209.2354736328125
 33
13.333330154418945
  0
3DFACE
  8
0
 10
-44.0
 20
-209.2354736328125
 30
6.666664123535156
 11
-23.074024200439453
 21
-209.2354736328125
 31
11.38583755493164
 12
-22.792633056640625
 22
-209.2354736328125
 32
11.471199035644531
 13
-22.792633056640625
 23
-209.2354736328125
 33
11.471199035644531
  0
3DFACE
  8
0
 10
-14.666666030883789
 20
-209.2354736328125
 30
13.333330154418945
 11
-44.0
 21
-209.2354736328125
 31
6.666664123535156
 12
-22.792633056640625
 22
-209.2354736328125
 32
11.471199035644531
 13
-22.792633056640625
 23
-209.2354736328125
 33
11.471199035644531
  0
3DFACE
  8
0
 10
-22.20736312866211
 20
-209.2354736328125
 30
11.471197128295898
 11
-21.925973892211914
 21
-209.2354736328125
 31
11.385839462280273
 12
-14.666666030883789
 22
-209.2354736328125
 32
13.333330154418945
 13
-14.666666030883789
 23
-209.2354736328125
 33
13.333330154418945
  0
3DFACE
  8
0
 10
-14.666666030883789
 20
-209.2354736328125
 30
13.333330154418945
 11
-22.792633056640625
 21
-209.2354736328125
 31
11.471199035644531
 12
-22.499996185302734
 22
-209.2354736328125
 32
11.500020027160645
 13
-22.499996185302734
 23
-209.2354736328125
 33
11.500020027160645
  0
3DFACE
  8
0
 10
-22.499996185302734
 20
-209.2354736328125
 30
11.500020027160645
 11
-22.20736312866211
 21
-209.2354736328125
 31
11.471197128295898
 12
-14.666666030883789
 22
-209.2354736328125
 32
13.333330154418945
 13
-14.666666030883789
 23
-209.2354736328125
 33
13.333330154418945
  0
3DFACE
  8
0
 10
-14.666666030883789
 20
-209.2354736328125
 30
13.333330154418945
 11
-14.666666030883789
 21
-209.2354736328125
 31
6.666664123535156
 12
14.666667938232422
 22
-209.2354736328125
 32
6.666664123535156
 13
14.666667938232422
 23
-209.2354736328125
 33
13.333330154418945
  0
3DFACE
  8
0
 10
-44.0
 20
-209.2354736328125
 30
6.666664123535156
 11
-44.0
 21
-209.2354736328125
 31
-1.9073486328125e-06
 12
-14.666667938232422
 22
-209.2354736328125
 32
-1.9073486328125e-06
 13
-14.666666030883789
 23
-209.2354736328125
 33
6.666664123535156
  0
3DFACE
  8
0
 10
-14.666666030883789
 20
-209.2354736328125
 30
6.666664123535156
 11
-14.666667938232422
 21
-209.2354736328125
 31
-1.9073486328125e-06
 12
14.666666030883789
 22
-209.2354736328125
 32
-1.9073486328125e-06
 13
14.666667938232422
 23
-209.2354736328125
 33
6.666664123535156
  0
3DFACE
  8
0
 10
14.666666030883789
 20
-189.23550415039062
 30
-1.9073486328125e-06
 11
14.666667938232422
 21
-189.23550415039062
 31
6.666664123535156
 12
44.0
 22
-189.23550415039062
 32
6.666664123535156
 13
44.0
 23
-189.23550415039062
 33
-1.9073486328125e-06
  0
3DFACE
  8
0
 10
14.666667938232422
 20
-189.23550415039062
 30
6.666664123535156
 11
14.666667938232422
 21
-189.23550415039062
 31
13.333328247070312
 12
21.000003814697266
 22
-189.2354736328125
 32
10.000017166137695
 13
21.000003814697266
 23
-189.2354736328125
 33
10.000017166137695
  0
3DFACE
  8
0
 10
14.666667938232422
 20
-189.23550415039062
 30
6.666664123535156
 11
21.000003814697266
 21
-189.2354736328125
 31
10.000017166137695
 12
21.028820037841797
 22
-189.2354736328125
 32
9.707380294799805
 13
21.028820037841797
 23
-189.2354736328125
 33
9.707380294799805
  0
3DFACE
  8
0
 10
44.0
 20
-189.23550415039062
 30
13.333328247070312
 11
44.0
 21
-189.23550415039062
 31
6.666664123535156
 12
14.666667938232422
 22
-189.23550415039062
 32
6.666664123535156
 13
14.666667938232422
 23
-189.23550415039062
 33
6.666664123535156
  0
3DFACE
  8
0
 10
23.971181869506836
 20
-189.2354736328125
 30
9.707382202148438
 11
23.999996185302734
 21
-189.2354736328125
 31
10.000015258789062
 12
44.0
 22
-189.23550415039062
 32
13.333328247070312
 13
44.0
 23
-189.23550415039062
 33
13.333328247070312
  0
3DFACE
  8
0
 10
23.885814666748047
 20
-189.2354736328125
 30
9.42599105834961
 11
23.971181869506836
 21
-189.2354736328125
 31
9.707382202148438
 12
44.0
 22
-189.23550415039062
 32
13.333328247070312
 13
44.0
 23
-189.23550415039062
 33
13.333328247070312
  0
3DFACE
  8
0
 10
14.666667938232422
 20
-189.23550415039062
 30
6.666664123535156
 11
21.028820037841797
 21
-189.2354736328125
 31
9.707380294799805
 12
21.114185333251953
 22
-189.2354736328125
 32
9.42599105834961
 13
21.114185333251953
 23
-189.2354736328125
 33
9.42599105834961
  0
3DFACE
  8
0
 10
14.666667938232422
 20
-189.23550415039062
 30
6.666664123535156
 11
21.114185333251953
 21
-189.2354736328125
 31
9.42599105834961
 12
21.252798080444336
 22
-189.2354736328125
 32
9.16666030883789
 13
21.252798080444336
 23
-189.2354736328125
 33
9.16666030883789
  0
3DFACE
  8
0
 10
23.747207641601562
 20
-189.2354736328125
 30
9.166666030883789
 11
23.885814666748047
 21
-189.2354736328125
 31
9.42599105834961
 12
44.0
 22
-189.23550415039062
 32
13.333328247070312
 13
44.0
 23
-189.23550415039062
 33
13.333328247070312
  0
3DFACE
  8
0
 10
23.5606632232666
 20
-189.2354736328125
 30
8.939355850219727
 11
23.747207641601562
 21
-189.2354736328125
 31
9.166666030883789
 12
44.0
 22
-189.23550415039062
 32
13.333328247070312
 13
44.0
 23
-189.23550415039062
 33
13.333328247070312
  0
3DFACE
  8
0
 10
14.666667938232422
 20
-189.23550415039062
 30
6.666664123535156
 11
21.252798080444336
 21
-189.2354736328125
 31
9.16666030883789
 12
21.439346313476562
 22
-189.2354736328125
 32
8.939355850219727
 13
21.439346313476562
 23
-189.2354736328125
 33
8.939355850219727
  0
3DFACE
  8
0
 10
14.666667938232422
 20
-189.23550415039062
 30
6.666664123535156
 11
21.439346313476562
 21
-189.2354736328125
 31
8.939355850219727
 12
21.666650772094727
 22
-189.2354736328125
 32
8.752815246582031
 13
21.666650772094727
 23
-189.2354736328125
 33
8.752815246582031
  0
3DFACE
  8
0
 10
23.333351135253906
 20
-189.2354736328125
 30
8.752815246582031
 11
23.5606632232666
 21
-189.2354736328125
 31
8.939355850219727
 12
44.0
 22
-189.23550415039062
 32
13.333328247070312
 13
44.0
 23
-189.23550415039062
 33
13.333328247070312
  0
3DFACE
  8
0
 10
23.07402801513672
 20
-189.2354736328125
 30
8.61419677734375
 11
23.333351135253906
 21
-189.2354736328125
 31
8.752815246582031
 12
44.0
 22
-189.23550415039062
 32
13.333328247070312
 13
44.0
 23
-189.23550415039062
 33
13.333328247070312
  0
3DFACE
  8
0
 10
14.666667938232422
 20
-189.23550415039062
 30
6.666664123535156
 11
21.666650772094727
 21
-189.2354736328125
 31
8.752815246582031
 12
21.925975799560547
 22
-189.2354736328125
 32
8.61419677734375
 13
21.925975799560547
 23
-189.2354736328125
 33
8.61419677734375
  0
3DFACE
  8
0
 10
14.666667938232422
 20
-189.23550415039062
 30
6.666664123535156
 11
21.925975799560547
 21
-189.2354736328125
 31
8.61419677734375
 12
22.207368850708008
 22
-189.2354736328125
 32
8.528837203979492
 13
22.207368850708008
 23
-189.2354736328125
 33
8.528837203979492
  0
3DFACE
  8
0
 10
22.792631149291992
 20
-189.2354736328125
 30
8.528839111328125
 11
23.07402801513672
 21
-189.2354736328125
 31
8.61419677734375
 12
44.0
 22
-189.23550415039062
 32
13.333328247070312
 13
44.0
 23
-189.23550415039062
 33
13.333328247070312
  0
3DFACE
  8
0
 10
14.666667938232422
 20
-189.23550415039062
 30
6.666664123535156
 11
22.207368850708008
 21
-189.2354736328125
 31
8.528837203979492
 12
22.499998092651367
 22
-189.2354736328125
 32
8.500015258789062
 13
22.499998092651367
 23
-189.2354736328125
 33
8.500015258789062
  0
3DFACE
  8
0
 10
22.792631149291992
 20
-189.2354736328125
 30
8.528839111328125
 11
44.0
 21
-189.23550415039062
 31
13.333328247070312
 12
14.666667938232422
 22
-189.23550415039062
 32
6.666664123535156
 13
14.666667938232422
 23
-189.23550415039062
 33
6.666664123535156
  0
3DFACE
  8
0
 10
14.666667938232422
 20
-189.23550415039062
 30
6.666664123535156
 11
22.499998092651367
 21
-189.2354736328125
 31
8.500015258789062
 12
22.792631149291992
 22
-189.2354736328125
 32
8.528839111328125
 13
22.792631149291992
 23
-189.2354736328125
 33
8.528839111328125
  0
3DFACE
  8
0
 10
-44.0
 20
-189.23550415039062
 30
-1.9073486328125e-06
 11
-44.0
 21
-189.23550415039062
 31
6.666664123535156
 12
-14.666666030883789
 22
-189.23550415039062
 32
6.666664123535156
 13
-14.666667938232422
 23
-189.23550415039062
 33
-1.9073486328125e-06
  0
3DFACE
  8
0
 10
-14.666667938232422
 20
-189.23550415039062
 30
-1.9073486328125e-06
 11
-14.666666030883789
 21
-189.23550415039062
 31
6.666664123535156
 12
14.666667938232422
 22
-189.23550415039062
 32
6.666664123535156
 13
14.666666030883789
 23
-189.23550415039062
 33
-1.9073486328125e-06
  0
3DFACE
  8
0
 10
-14.666666030883789
 20
-189.23550415039062
 30
6.666664123535156
 11
-44.0
 21
-189.23550415039062
 31
6.666664123535156
 12
-44.0
 22
-189.23550415039062
 32
13.333328247070312
 13
-44.0
 23
-189.23550415039062
 33
13.333328247070312
  0
3DFACE
  8
0
 10
-44.0
 20
-189.23550415039062
 30
13.333328247070312
 11
-23.999998092651367
 21
-189.2355194091797
 31
10.000020980834961
 12
-23.97117805480957
 22
-189.2355194091797
 32
9.70738410949707
 13
-23.97117805480957
 23
-189.2355194091797
 33
9.70738410949707
  0
3DFACE
  8
0
 10
-44.0
 20
-189.23550415039062
 30
13.333328247070312
 11
-23.97117805480957
 21
-189.2355194091797
 31
9.70738410949707
 12
-23.88581657409668
 22
-189.2355194091797
 32
9.42599868774414
 13
-23.88581657409668
 23
-189.2355194091797
 33
9.42599868774414
  0
3DFACE
  8
0
 10
-20.9999942779541
 20
-189.2355194091797
 30
10.000019073486328
 11
-14.666666030883789
 21
-189.23550415039062
 31
13.333328247070312
 12
-14.666666030883789
 22
-189.23550415039062
 32
6.666664123535156
 13
-14.666666030883789
 23
-189.23550415039062
 33
6.666664123535156
  0
3DFACE
  8
0
 10
-21.0288143157959
 20
-189.2355194091797
 30
9.707389831542969
 11
-20.9999942779541
 21
-189.2355194091797
 31
10.000019073486328
 12
-14.666666030883789
 22
-189.23550415039062
 32
6.666664123535156
 13
-14.666666030883789
 23
-189.23550415039062
 33
6.666664123535156
  0
3DFACE
  8
0
 10
-44.0
 20
-189.23550415039062
 30
13.333328247070312
 11
-23.88581657409668
 21
-189.2355194091797
 31
9.42599868774414
 12
-23.74720573425293
 22
-189.2355194091797
 32
9.166666030883789
 13
-23.74720573425293
 23
-189.2355194091797
 33
9.166666030883789
  0
3DFACE
  8
0
 10
-44.0
 20
-189.23550415039062
 30
13.333328247070312
 11
-23.74720573425293
 21
-189.2355194091797
 31
9.166666030883789
 12
-23.56065559387207
 22
-189.2355194091797
 32
8.93936538696289
 13
-23.56065559387207
 23
-189.2355194091797
 33
8.93936538696289
  0
3DFACE
  8
0
 10
-21.11417579650879
 20
-189.2355194091797
 30
9.42599868774414
 11
-21.0288143157959
 21
-189.2355194091797
 31
9.707389831542969
 12
-14.666666030883789
 22
-189.23550415039062
 32
6.666664123535156
 13
-14.666666030883789
 23
-189.23550415039062
 33
6.666664123535156
  0
3DFACE
  8
0
 10
-21.252790451049805
 20
-189.2355194091797
 30
9.166669845581055
 11
-21.11417579650879
 21
-189.2355194091797
 31
9.42599868774414
 12
-14.666666030883789
 22
-189.23550415039062
 32
6.666664123535156
 13
-14.666666030883789
 23
-189.23550415039062
 33
6.666664123535156
  0
3DFACE
  8
0
 10
-44.0
 20
-189.23550415039062
 30
13.333328247070312
 11
-23.56065559387207
 21
-189.2355194091797
 31
8.93936538696289
 12
-23.333354949951172
 22
-189.2355194091797
 32
8.752822875976562
 13
-23.333354949951172
 23
-189.2355194091797
 33
8.752822875976562
  0
3DFACE
  8
0
 10
-44.0
 20
-189.23550415039062
 30
13.333328247070312
 11
-23.333354949951172
 21
-189.2355194091797
 31
8.752822875976562
 12
-23.07402229309082
 22
-189.2355194091797
 32
8.614204406738281
 13
-23.07402229309082
 23
-189.2355194091797
 33
8.614204406738281
  0
3DFACE
  8
0
 10
-21.4393367767334
 20
-189.2355194091797
 30
8.93936538696289
 11
-21.252790451049805
 21
-189.2355194091797
 31
9.166669845581055
 12
-14.666666030883789
 22
-189.23550415039062
 32
6.666664123535156
 13
-14.666666030883789
 23
-189.23550415039062
 33
6.666664123535156
  0
3DFACE
  8
0
 10
-21.666641235351562
 20
-189.2355194091797
 30
8.752822875976562
 11
-21.4393367767334
 21
-189.2355194091797
 31
8.93936538696289
 12
-14.666666030883789
 22
-189.23550415039062
 32
6.666664123535156
 13
-14.666666030883789
 23
-189.23550415039062
 33
6.666664123535156
  0
3DFACE
  8
0
 10
-44.0
 20
-189.23550415039062
 30
13.333328247070312
 11
-23.07402229309082
 21
-189.2355194091797
 31
8.614204406738281
 12
-22.792634963989258
 22
-189.2355194091797
 32
8.528844833374023
 13
-22.792634963989258
 23
-189.2355194091797
 33
8.528844833374023
  0
3DFACE
  8
0
 10
-14.666666030883789
 20
-189.23550415039062
 30
6.666664123535156
 11
-44.0
 21
-189.23550415039062
 31
13.333328247070312
 12
-22.792634963989258
 22
-189.2355194091797
 32
8.528844833374023
 13
-22.792634963989258
 23
-189.2355194091797
 33
8.528844833374023
  0
3DFACE
  8
0
 10
-21.92597007751465
 20
-189.2355194091797
 30
8.614204406738281
 11
-21.666641235351562
 21
-189.2355194091797
 31
8.752822875976562
 12
-14.666666030883789
 22
-189.23550415039062
 32
6.666664123535156
 13
-14.666666030883789
 23
-189.23550415039062
 33
6.666664123535156
  0
3DFACE
  8
0
 10
-22.20736312866211
 20
-189.2355194091797
 30
8.52884292602539
 11
-21.92597007751465
 21
-189.2355194091797
 31
8.614204406738281
 12
-14.666666030883789
 22
-189.23550415039062
 32
6.666664123535156
 13
-14.666666030883789
 23
-189.23550415039062
 33
6.666664123535156
  0
3DFACE
  8
0
 10
-14.666666030883789
 20
-189.23550415039062
 30
6.666664123535156
 11
-22.792634963989258
 21
-189.2355194091797
 31
8.528844833374023
 12
-22.4999942779541
 22
-189.2355194091797
 32
8.500022888183594
 13
-22.4999942779541
 23
-189.2355194091797
 33
8.500022888183594
  0
3DFACE
  8
0
 10
-22.4999942779541
 20
-189.2355194091797
 30
8.500022888183594
 11
-22.20736312866211
 21
-189.2355194091797
 31
8.52884292602539
 12
-14.666666030883789
 22
-189.23550415039062
 32
6.666664123535156
 13
-14.666666030883789
 23
-189.23550415039062
 33
6.666664123535156
  0
3DFACE
  8
0
 10
-14.666666030883789
 20
-189.23550415039062
 30
6.666664123535156
 11
-14.666666030883789
 21
-189.23550415039062
 31
13.333328247070312
 12
14.666667938232422
 22
-189.23550415039062
 32
13.333328247070312
 13
14.666667938232422
 23
-189.23550415039062
 33
6.666664123535156
  0
3DFACE
  8
0
 10
-44.0
 20
-189.23550415039062
 30
13.333328247070312
 11
-44.0
 21
-189.23550415039062
 31
19.999996185302734
 12
-14.666667938232422
 22
-189.23550415039062
 32
19.999996185302734
 13
-14.666666030883789
 23
-189.23550415039062
 33
13.333328247070312
  0
3DFACE
  8
0
 10
-14.666666030883789
 20
-189.23550415039062
 30
13.333328247070312
 11
-14.666667938232422
 21
-189.23550415039062
 31
19.999996185302734
 12
14.666666030883789
 22
-189.23550415039062
 32
19.999996185302734
 13
14.666667938232422
 23
-189.23550415039062
 33
13.333328247070312
  0
3DFACE
  8
0
 10
-21.252790451049805
 20
-209.2354736328125
 30
10.833383560180664
 11
-21.252790451049805
 21
-189.2355194091797
 31
10.833381652832031
 12
-21.114179611206055
 22
-189.2355194091797
 32
10.574047088623047
 13
-21.114177703857422
 23
-209.2354736328125
 33
10.574047088623047
  0
3DFACE
  8
0
 10
-14.666666030883789
 20
-209.2354736328125
 30
6.666664123535156
 11
-14.666666030883789
 21
-209.2354736328125
 31
13.333330154418945
 12
-20.999996185302734
 22
-209.2354736328125
 32
10.000017166137695
 13
-20.999996185302734
 23
-209.2354736328125
 33
10.000017166137695
  0
3DFACE
  8
0
 10
-14.666666030883789
 20
-209.2354736328125
 30
6.666664123535156
 11
-20.999996185302734
 21
-209.2354736328125
 31
10.000017166137695
 12
-21.02881622314453
 22
-209.2354736328125
 32
9.707389831542969
 13
-21.02881622314453
 23
-209.2354736328125
 33
9.707389831542969
  0
3DFACE
  8
0
 10
-23.971174240112305
 20
-209.2354736328125
 30
9.707387924194336
 11
-23.999998092651367
 21
-209.2354736328125
 31
10.000020980834961
 12
-44.0
 22
-209.2354736328125
 32
6.666664123535156
 13
-44.0
 23
-209.2354736328125
 33
6.666664123535156
  0
3DFACE
  8
0
 10
-23.88581657409668
 20
-209.2354736328125
 30
9.425994873046875
 11
-23.971174240112305
 21
-209.2354736328125
 31
9.707387924194336
 12
-44.0
 22
-209.2354736328125
 32
6.666664123535156
 13
-44.0
 23
-209.2354736328125
 33
6.666664123535156
  0
3DFACE
  8
0
 10
-14.666666030883789
 20
-209.2354736328125
 30
6.666664123535156
 11
-21.02881622314453
 21
-209.2354736328125
 31
9.707389831542969
 12
-21.11417579650879
 22
-209.2354736328125
 32
9.425996780395508
 13
-21.11417579650879
 23
-209.2354736328125
 33
9.425996780395508
  0
3DFACE
  8
0
 10
-14.666666030883789
 20
-209.2354736328125
 30
6.666664123535156
 11
-21.11417579650879
 21
-209.2354736328125
 31
9.425996780395508
 12
-21.252792358398438
 22
-209.2354736328125
 32
9.166669845581055
 13
-21.252792358398438
 23
-209.2354736328125
 33
9.166669845581055
  0
3DFACE
  8
0
 10
-23.747207641601562
 20
-209.2354736328125
 30
9.166664123535156
 11
-23.88581657409668
 21
-209.2354736328125
 31
9.425994873046875
 12
-44.0
 22
-209.2354736328125
 32
6.666664123535156
 13
-44.0
 23
-209.2354736328125
 33
6.666664123535156
  0
3DFACE
  8
0
 10
-23.56065559387207
 20
-209.2354736328125
 30
8.939361572265625
 11
-23.747207641601562
 21
-209.2354736328125
 31
9.166664123535156
 12
-44.0
 22
-209.2354736328125
 32
6.666664123535156
 13
-44.0
 23
-209.2354736328125
 33
6.666664123535156
  0
3DFACE
  8
0
 10
-14.666666030883789
 20
-209.2354736328125
 30
6.666664123535156
 11
-21.252792358398438
 21
-209.2354736328125
 31
9.166669845581055
 12
-21.43933868408203
 22
-209.2354736328125
 32
8.939363479614258
 13
-21.43933868408203
 23
-209.2354736328125
 33
8.939363479614258
  0
3DFACE
  8
0
 10
-14.666666030883789
 20
-209.2354736328125
 30
6.666664123535156
 11
-21.43933868408203
 21
-209.2354736328125
 31
8.939363479614258
 12
-21.666641235351562
 22
-209.2354736328125
 32
8.752822875976562
 13
-21.666641235351562
 23
-209.2354736328125
 33
8.752822875976562
  0
3DFACE
  8
0
 10
-23.333354949951172
 20
-209.2354736328125
 30
8.752822875976562
 11
-23.56065559387207
 21
-209.2354736328125
 31
8.939361572265625
 12
-44.0
 22
-209.2354736328125
 32
6.666664123535156
 13
-44.0
 23
-209.2354736328125
 33
6.666664123535156
  0
3DFACE
  8
0
 10
-23.07402229309082
 20
-209.2354736328125
 30
8.614204406738281
 11
-23.333354949951172
 21
-209.2354736328125
 31
8.752822875976562
 12
-44.0
 22
-209.2354736328125
 32
6.666664123535156
 13
-44.0
 23
-209.2354736328125
 33
6.666664123535156
  0
3DFACE
  8
0
 10
-14.666666030883789
 20
-209.2354736328125
 30
6.666664123535156
 11
-21.666641235351562
 21
-209.2354736328125
 31
8.752822875976562
 12
-21.92597007751465
 22
-209.2354736328125
 32
8.614206314086914
 13
-21.92597007751465
 23
-209.2354736328125
 33
8.614206314086914
  0
3DFACE
  8
0
 10
-14.666666030883789
 20
-209.2354736328125
 30
6.666664123535156
 11
-21.92597007751465
 21
-209.2354736328125
 31
8.614206314086914
 12
-22.207365036010742
 22
-209.2354736328125
 32
8.528841018676758
 13
-22.207365036010742
 23
-209.2354736328125
 33
8.528841018676758
  0
3DFACE
  8
0
 10
-22.792631149291992
 20
-209.2354736328125
 30
8.52884292602539
 11
-23.07402229309082
 21
-209.2354736328125
 31
8.614204406738281
 12
-44.0
 22
-209.2354736328125
 32
6.666664123535156
 13
-44.0
 23
-209.2354736328125
 33
6.666664123535156
  0
3DFACE
  8
0
 10
-14.666666030883789
 20
-209.2354736328125
 30
6.666664123535156
 11
-22.207365036010742
 21
-209.2354736328125
 31
8.528841018676758
 12
-22.499996185302734
 22
-209.2354736328125
 32
8.500020980834961
 13
-22.499996185302734
 23
-209.2354736328125
 33
8.500020980834961
  0
3DFACE
  8
0
 10
-22.499996185302734
 20
-209.2354736328125
 30
8.500020980834961
 11
-22.792631149291992
 21
-209.2354736328125
 31
8.52884292602539
 12
-44.0
 22
-209.2354736328125
 32
6.666664123535156
 13
-44.0
 23
-209.2354736328125
 33
6.666664123535156
  0
3DFACE
  8
0
 10
-22.499996185302734
 20
-209.2354736328125
 30
8.500020980834961
 11
-44.0
 21
-209.2354736328125
 31
6.666664123535156
 12
-14.666666030883789
 22
-209.2354736328125
 32
6.666664123535156
 13
-14.666666030883789
 23
-209.2354736328125
 33
6.666664123535156
  0
3DFACE
  8
0
 10
-21.43933868408203
 20
-209.2354736328125
 30
11.060686111450195
 11
-21.43933868408203
 21
-189.2355194091797
 31
11.060686111450195
 12
-21.252790451049805
 22
-189.2355194091797
 32
10.833381652832031
 13
-21.252790451049805
 23
-209.2354736328125
 33
10.833383560180664
  0
3DFACE
  8
0
 10
-21.666641235351562
 20
-209.2354736328125
 30
11.247228622436523
 11
-21.66663932800293
 21
-189.2355194091797
 31
11.247230529785156
 12
-21.43933868408203
 22
-189.2355194091797
 32
11.060686111450195
 13
-21.43933868408203
 23
-209.2354736328125
 33
11.060686111450195
  0
3DFACE
  8
0
 10
23.971179962158203
 20
-209.2354736328125
 30
10.292654037475586
 11
23.999996185302734
 21
-209.2354736328125
 31
10.000015258789062
 12
44.0
 22
-209.2354736328125
 32
6.666664123535156
 13
44.0
 23
-209.2354736328125
 33
6.666664123535156
  0
3DFACE
  8
0
 10
44.0
 20
-209.2354736328125
 30
6.666664123535156
 11
44.0
 21
-209.2354736328125
 31
13.333330154418945
 12
14.666667938232422
 22
-209.2354736328125
 32
13.333330154418945
 13
14.666667938232422
 23
-209.2354736328125
 33
13.333330154418945
  0
3DFACE
  8
0
 10
14.666667938232422
 20
-209.2354736328125
 30
13.333330154418945
 11
21.000003814697266
 21
-209.2354736328125
 31
10.000017166137695
 12
21.028820037841797
 22
-209.2354736328125
 32
10.292648315429688
 13
21.028820037841797
 23
-209.2354736328125
 33
10.292648315429688
  0
3DFACE
  8
0
 10
14.666667938232422
 20
-209.2354736328125
 30
13.333330154418945
 11
21.028820037841797
 21
-209.2354736328125
 31
10.292648315429688
 12
21.114185333251953
 22
-209.2354736328125
 32
10.574041366577148
 13
21.114185333251953
 23
-209.2354736328125
 33
10.574041366577148
  0
3DFACE
  8
0
 10
23.885814666748047
 20
-209.2354736328125
 30
10.574041366577148
 11
23.971179962158203
 21
-209.2354736328125
 31
10.292654037475586
 12
44.0
 22
-209.2354736328125
 32
6.666664123535156
 13
44.0
 23
-209.2354736328125
 33
6.666664123535156
  0
3DFACE
  8
0
 10
23.747209548950195
 20
-209.2354736328125
 30
10.833375930786133
 11
23.885814666748047
 21
-209.2354736328125
 31
10.574041366577148
 12
44.0
 22
-209.2354736328125
 32
6.666664123535156
 13
44.0
 23
-209.2354736328125
 33
6.666664123535156
  0
3DFACE
  8
0
 10
14.666667938232422
 20
-209.2354736328125
 30
13.333330154418945
 11
21.114185333251953
 21
-209.2354736328125
 31
10.574041366577148
 12
21.2528018951416
 22
-209.2354736328125
 32
10.833372116088867
 13
21.2528018951416
 23
-209.2354736328125
 33
10.833372116088867
  0
3DFACE
  8
0
 10
14.666667938232422
 20
-209.2354736328125
 30
13.333330154418945
 11
21.2528018951416
 21
-209.2354736328125
 31
10.833372116088867
 12
21.439346313476562
 22
-209.2354736328125
 32
11.060680389404297
 13
21.439346313476562
 23
-209.2354736328125
 33
11.060680389404297
  0
3DFACE
  8
0
 10
23.5606632232666
 20
-209.2354736328125
 30
11.060680389404297
 11
23.747209548950195
 21
-209.2354736328125
 31
10.833375930786133
 12
44.0
 22
-209.2354736328125
 32
6.666664123535156
 13
44.0
 23
-209.2354736328125
 33
6.666664123535156
  0
3DFACE
  8
0
 10
23.333351135253906
 20
-209.2354736328125
 30
11.247222900390625
 11
23.5606632232666
 21
-209.2354736328125
 31
11.060680389404297
 12
44.0
 22
-209.2354736328125
 32
6.666664123535156
 13
44.0
 23
-209.2354736328125
 33
6.666664123535156
  0
3DFACE
  8
0
 10
14.666667938232422
 20
-209.2354736328125
 30
13.333330154418945
 11
21.439346313476562
 21
-209.2354736328125
 31
11.060680389404297
 12
21.666650772094727
 22
-209.2354736328125
 32
11.247222900390625
 13
21.666650772094727
 23
-209.2354736328125
 33
11.247222900390625
  0
3DFACE
  8
0
 10
14.666667938232422
 20
-209.2354736328125
 30
13.333330154418945
 11
21.666650772094727
 21
-209.2354736328125
 31
11.247222900390625
 12
21.925973892211914
 22
-209.2354736328125
 32
11.385831832885742
 13
21.925973892211914
 23
-209.2354736328125
 33
11.385831832885742
  0
3DFACE
  8
0
 10
23.07402229309082
 20
-209.2354736328125
 30
11.385831832885742
 11
23.333351135253906
 21
-209.2354736328125
 31
11.247222900390625
 12
44.0
 22
-209.2354736328125
 32
6.666664123535156
 13
44.0
 23
-209.2354736328125
 33
6.666664123535156
  0
3DFACE
  8
0
 10
22.792633056640625
 20
-209.2354736328125
 30
11.471193313598633
 11
23.07402229309082
 21
-209.2354736328125
 31
11.385831832885742
 12
44.0
 22
-209.2354736328125
 32
6.666664123535156
 13
44.0
 23
-209.2354736328125
 33
6.666664123535156
  0
3DFACE
  8
0
 10
14.666667938232422
 20
-209.2354736328125
 30
13.333330154418945
 11
21.925973892211914
 21
-209.2354736328125
 31
11.385831832885742
 12
22.207359313964844
 22
-209.2354736328125
 32
11.471193313598633
 13
22.207359313964844
 23
-209.2354736328125
 33
11.471193313598633
  0
3DFACE
  8
0
 10
14.666667938232422
 20
-209.2354736328125
 30
13.333330154418945
 11
22.207359313964844
 21
-209.2354736328125
 31
11.471193313598633
 12
22.499998092651367
 22
-209.2354736328125
 32
11.50001049041748
 13
22.499998092651367
 23
-209.2354736328125
 33
11.50001049041748
  0
3DFACE
  8
0
 10
22.792633056640625
 20
-209.2354736328125
 30
11.471193313598633
 11
44.0
 21
-209.2354736328125
 31
6.666664123535156
 12
14.666667938232422
 22
-209.2354736328125
 32
13.333330154418945
 13
14.666667938232422
 23
-209.2354736328125
 33
13.333330154418945
  0
3DFACE
  8
0
 10
22.499998092651367
 20
-209.2354736328125
 30
11.50001049041748
 11
22.792633056640625
 21
-209.2354736328125
 31
11.471193313598633
 12
14.666667938232422
 22
-209.2354736328125
 32
13.333330154418945
 13
14.666667938232422
 23
-209.2354736328125
 33
13.333330154418945
  0
3DFACE
  8
0
 10
-14.666666030883789
 20
-189.23550415039062
 30
13.333328247070312
 11
-20.9999942779541
 21
-189.2355194091797
 31
10.000019073486328
 12
-21.0288143157959
 22
-189.2355194091797
 32
10.292661666870117
 13
-21.0288143157959
 23
-189.2355194091797
 33
10.292661666870117
  0
3DFACE
  8
0
 10
-14.666666030883789
 20
-189.23550415039062
 30
13.333328247070312
 11
-21.0288143157959
 21
-189.2355194091797
 31
10.292661666870117
 12
-21.114179611206055
 22
-189.2355194091797
 32
10.574047088623047
 13
-21.114179611206055
 23
-189.2355194091797
 33
10.574047088623047
  0
3DFACE
  8
0
 10
-23.971174240112305
 20
-189.2355194091797
 30
10.292655944824219
 11
-23.999998092651367
 21
-189.2355194091797
 31
10.000020980834961
 12
-44.0
 22
-189.23550415039062
 32
13.333328247070312
 13
-44.0
 23
-189.23550415039062
 33
13.333328247070312
  0
3DFACE
  8
0
 10
-23.885818481445312
 20
-189.2355194091797
 30
10.57404899597168
 11
-23.971174240112305
 21
-189.2355194091797
 31
10.292655944824219
 12
-44.0
 22
-189.23550415039062
 32
13.333328247070312
 13
-44.0
 23
-189.23550415039062
 33
13.333328247070312
  0
3DFACE
  8
0
 10
-14.666666030883789
 20
-189.23550415039062
 30
13.333328247070312
 11
-21.114179611206055
 21
-189.2355194091797
 31
10.574047088623047
 12
-21.252790451049805
 22
-189.2355194091797
 32
10.833381652832031
 13
-21.252790451049805
 23
-189.2355194091797
 33
10.833381652832031
  0
3DFACE
  8
0
 10
-14.666666030883789
 20
-189.23550415039062
 30
13.333328247070312
 11
-21.252790451049805
 21
-189.2355194091797
 31
10.833381652832031
 12
-21.43933868408203
 22
-189.2355194091797
 32
11.060686111450195
 13
-21.43933868408203
 23
-189.2355194091797
 33
11.060686111450195
  0
3DFACE
  8
0
 10
-23.747207641601562
 20
-189.2355194091797
 30
10.833377838134766
 11
-23.885818481445312
 21
-189.2355194091797
 31
10.57404899597168
 12
-44.0
 22
-189.23550415039062
 32
13.333328247070312
 13
-44.0
 23
-189.23550415039062
 33
13.333328247070312
  0
3DFACE
  8
0
 10
-23.560657501220703
 20
-189.2355194091797
 30
11.060686111450195
 11
-23.747207641601562
 21
-189.2355194091797
 31
10.833377838134766
 12
-44.0
 22
-189.23550415039062
 32
13.333328247070312
 13
-44.0
 23
-189.23550415039062
 33
13.333328247070312
  0
3DFACE
  8
0
 10
-14.666666030883789
 20
-189.23550415039062
 30
13.333328247070312
 11
-21.43933868408203
 21
-189.2355194091797
 31
11.060686111450195
 12
-21.66663932800293
 22
-189.2355194091797
 32
11.247230529785156
 13
-21.66663932800293
 23
-189.2355194091797
 33
11.247230529785156
  0
3DFACE
  8
0
 10
-14.666666030883789
 20
-189.23550415039062
 30
13.333328247070312
 11
-21.66663932800293
 21
-189.2355194091797
 31
11.247230529785156
 12
-21.925975799560547
 22
-189.2355194091797
 32
11.38583755493164
 13
-21.925975799560547
 23
-189.2355194091797
 33
11.38583755493164
  0
3DFACE
  8
0
 10
-23.33335304260254
 20
-189.2355194091797
 30
11.247230529785156
 11
-23.560657501220703
 21
-189.2355194091797
 31
11.060686111450195
 12
-44.0
 22
-189.23550415039062
 32
13.333328247070312
 13
-44.0
 23
-189.23550415039062
 33
13.333328247070312
  0
3DFACE
  8
0
 10
-23.074024200439453
 20
-189.2355194091797
 30
11.385839462280273
 11
-23.33335304260254
 21
-189.2355194091797
 31
11.247230529785156
 12
-44.0
 22
-189.23550415039062
 32
13.333328247070312
 13
-44.0
 23
-189.23550415039062
 33
13.333328247070312
  0
3DFACE
  8
0
 10
-14.666666030883789
 20
-189.23550415039062
 30
13.333328247070312
 11
-21.925975799560547
 21
-189.2355194091797
 31
11.38583755493164
 12
-22.207361221313477
 22
-189.2355194091797
 32
11.471197128295898
 13
-22.207361221313477
 23
-189.2355194091797
 33
11.471197128295898
  0
3DFACE
  8
0
 10
-14.666666030883789
 20
-189.23550415039062
 30
13.333328247070312
 11
-22.207361221313477
 21
-189.2355194091797
 31
11.471197128295898
 12
-22.499998092651367
 22
-189.2355194091797
 32
11.500018119812012
 13
-22.499998092651367
 23
-189.2355194091797
 33
11.500018119812012
  0
3DFACE
  8
0
 10
-22.792633056640625
 20
-189.2355194091797
 30
11.471199035644531
 11
-23.074024200439453
 21
-189.2355194091797
 31
11.385839462280273
 12
-44.0
 22
-189.23550415039062
 32
13.333328247070312
 13
-44.0
 23
-189.23550415039062
 33
13.333328247070312
  0
3DFACE
  8
0
 10
-14.666666030883789
 20
-189.23550415039062
 30
13.333328247070312
 11
-22.499998092651367
 21
-189.2355194091797
 31
11.500018119812012
 12
-22.792633056640625
 22
-189.2355194091797
 32
11.471199035644531
 13
-22.792633056640625
 23
-189.2355194091797
 33
11.471199035644531
  0
3DFACE
  8
0
 10
-14.666666030883789
 20
-189.23550415039062
 30
13.333328247070312
 11
-22.792633056640625
 21
-189.2355194091797
 31
11.471199035644531
 12
-44.0
 22
-189.23550415039062
 32
13.333328247070312
 13
-44.0
 23
-189.23550415039062
 33
13.333328247070312
  0
3DFACE
  8
0
 10
-21.925973892211914
 20
-209.2354736328125
 30
11.385839462280273
 11
-21.925975799560547
 21
-189.2355194091797
 31
11.38583755493164
 12
-21.66663932800293
 22
-189.2355194091797
 32
11.247230529785156
 13
-21.666641235351562
 23
-209.2354736328125
 33
11.247228622436523
  0
3DFACE
  8
0
 10
44.0
 20
-189.23550415039062
 30
13.333328247070312
 11
23.999996185302734
 21
-189.2354736328125
 31
10.000015258789062
 12
23.971181869506836
 22
-189.2354736328125
 32
10.292652130126953
 13
23.971181869506836
 23
-189.2354736328125
 33
10.292652130126953
  0
3DFACE
  8
0
 10
44.0
 20
-189.23550415039062
 30
13.333328247070312
 11
23.971181869506836
 21
-189.2354736328125
 31
10.292652130126953
 12
23.885814666748047
 22
-189.2354736328125
 32
10.574041366577148
 13
23.885814666748047
 23
-189.2354736328125
 33
10.574041366577148
  0
3DFACE
  8
0
 10
21.028820037841797
 20
-189.2354736328125
 30
10.29265022277832
 11
21.000003814697266
 21
-189.2354736328125
 31
10.000017166137695
 12
14.666667938232422
 22
-189.23550415039062
 32
13.333328247070312
 13
14.666667938232422
 23
-189.23550415039062
 33
13.333328247070312
  0
3DFACE
  8
0
 10
21.114185333251953
 20
-189.2354736328125
 30
10.574041366577148
 11
21.028820037841797
 21
-189.2354736328125
 31
10.29265022277832
 12
14.666667938232422
 22
-189.23550415039062
 32
13.333328247070312
 13
14.666667938232422
 23
-189.23550415039062
 33
13.333328247070312
  0
3DFACE
  8
0
 10
44.0
 20
-189.23550415039062
 30
13.333328247070312
 11
23.885814666748047
 21
-189.2354736328125
 31
10.574041366577148
 12
23.747207641601562
 22
-189.2354736328125
 32
10.833375930786133
 13
23.747207641601562
 23
-189.2354736328125
 33
10.833375930786133
  0
3DFACE
  8
0
 10
44.0
 20
-189.23550415039062
 30
13.333328247070312
 11
23.747207641601562
 21
-189.2354736328125
 31
10.833375930786133
 12
23.5606632232666
 22
-189.2354736328125
 32
11.060680389404297
 13
23.5606632232666
 23
-189.2354736328125
 33
11.060680389404297
  0
3DFACE
  8
0
 10
21.25279998779297
 20
-189.2354736328125
 30
10.8333740234375
 11
21.114185333251953
 21
-189.2354736328125
 31
10.574041366577148
 12
14.666667938232422
 22
-189.23550415039062
 32
13.333328247070312
 13
14.666667938232422
 23
-189.23550415039062
 33
13.333328247070312
  0
3DFACE
  8
0
 10
21.439346313476562
 20
-189.2354736328125
 30
11.060680389404297
 11
21.25279998779297
 21
-189.2354736328125
 31
10.8333740234375
 12
14.666667938232422
 22
-189.23550415039062
 32
13.333328247070312
 13
14.666667938232422
 23
-189.23550415039062
 33
13.333328247070312
  0
3DFACE
  8
0
 10
44.0
 20
-189.23550415039062
 30
13.333328247070312
 11
23.5606632232666
 21
-189.2354736328125
 31
11.060680389404297
 12
23.333349227905273
 22
-189.2354736328125
 32
11.247222900390625
 13
23.333349227905273
 23
-189.2354736328125
 33
11.247222900390625
  0
3DFACE
  8
0
 10
44.0
 20
-189.23550415039062
 30
13.333328247070312
 11
23.333349227905273
 21
-189.2354736328125
 31
11.247222900390625
 12
23.074024200439453
 22
-189.2354736328125
 32
11.385831832885742
 13
23.074024200439453
 23
-189.2354736328125
 33
11.385831832885742
  0
3DFACE
  8
0
 10
21.66664695739746
 20
-189.2354736328125
 30
11.247222900390625
 11
21.439346313476562
 21
-189.2354736328125
 31
11.060680389404297
 12
14.666667938232422
 22
-189.23550415039062
 32
13.333328247070312
 13
14.666667938232422
 23
-189.23550415039062
 33
13.333328247070312
  0
3DFACE
  8
0
 10
21.925975799560547
 20
-189.2354736328125
 30
11.385831832885742
 11
21.66664695739746
 21
-189.2354736328125
 31
11.247222900390625
 12
14.666667938232422
 22
-189.23550415039062
 32
13.333328247070312
 13
14.666667938232422
 23
-189.23550415039062
 33
13.333328247070312
  0
3DFACE
  8
0
 10
44.0
 20
-189.23550415039062
 30
13.333328247070312
 11
23.074024200439453
 21
-189.2354736328125
 31
11.385831832885742
 12
22.792633056640625
 22
-189.2354736328125
 32
11.471193313598633
 13
22.792633056640625
 23
-189.2354736328125
 33
11.471193313598633
  0
3DFACE
  8
0
 10
44.0
 20
-189.23550415039062
 30
13.333328247070312
 11
22.792633056640625
 21
-189.2354736328125
 31
11.471193313598633
 12
22.499998092651367
 22
-189.2354736328125
 32
11.500011444091797
 13
22.499998092651367
 23
-189.2354736328125
 33
11.500011444091797
  0
3DFACE
  8
0
 10
22.207359313964844
 20
-189.2354736328125
 30
11.471193313598633
 11
21.925975799560547
 21
-189.2354736328125
 31
11.385831832885742
 12
14.666667938232422
 22
-189.23550415039062
 32
13.333328247070312
 13
14.666667938232422
 23
-189.23550415039062
 33
13.333328247070312
  0
3DFACE
  8
0
 10
14.666667938232422
 20
-189.23550415039062
 30
13.333328247070312
 11
44.0
 21
-189.23550415039062
 31
13.333328247070312
 12
22.499998092651367
 22
-189.2354736328125
 32
11.500011444091797
 13
22.499998092651367
 23
-189.2354736328125
 33
11.500011444091797
  0
3DFACE
  8
0
 10
22.499998092651367
 20
-189.2354736328125
 30
11.500011444091797
 11
22.207359313964844
 21
-189.2354736328125
 31
11.471193313598633
 12
14.666667938232422
 22
-189.23550415039062
 32
13.333328247070312
 13
14.666667938232422
 23
-189.23550415039062
 33
13.333328247070312
  0
3DFACE
  8
0
 10
-22.20736312866211
 20
-209.2354736328125
 30
11.471197128295898
 11
-22.207361221313477
 21
-189.2355194091797
 31
11.471197128295898
 12
-21.925975799560547
 22
-189.2355194091797
 32
11.38583755493164
 13
-21.925973892211914
 23
-209.2354736328125
 33
11.385839462280273
  0
3DFACE
  8
0
 10
-21.114177703857422
 20
-209.2354736328125
 30
10.574047088623047
 11
-21.114179611206055
 21
-189.2355194091797
 31
10.574047088623047
 12
-21.0288143157959
 22
-189.2355194091797
 32
10.292661666870117
 13
-21.02881622314453
 23
-209.2354736328125
 33
10.292661666870117
  0
3DFACE
  8
0
 10
-21.02881622314453
 20
-209.2354736328125
 30
10.292661666870117
 11
-21.0288143157959
 21
-189.2355194091797
 31
10.292661666870117
 12
-20.9999942779541
 22
-189.2355194091797
 32
10.000019073486328
 13
-20.999996185302734
 23
-209.2354736328125
 33
10.000017166137695
  0
3DFACE
  8
0
 10
-20.999996185302734
 20
-209.2354736328125
 30
10.000017166137695
 11
-20.9999942779541
 21
-189.2355194091797
 31
10.000019073486328
 12
-21.0288143157959
 22
-189.2355194091797
 32
9.707389831542969
 13
-21.02881622314453
 23
-209.2354736328125
 33
9.707389831542969
  0
3DFACE
  8
0
 10
-21.02881622314453
 20
-209.2354736328125
 30
9.707389831542969
 11
-21.0288143157959
 21
-189.2355194091797
 31
9.707389831542969
 12
-21.11417579650879
 22
-189.2355194091797
 32
9.42599868774414
 13
-21.11417579650879
 23
-209.2354736328125
 33
9.425996780395508
  0
3DFACE
  8
0
 10
-21.11417579650879
 20
-209.2354736328125
 30
9.425996780395508
 11
-21.11417579650879
 21
-189.2355194091797
 31
9.42599868774414
 12
-21.252790451049805
 22
-189.2355194091797
 32
9.166669845581055
 13
-21.252792358398438
 23
-209.2354736328125
 33
9.166669845581055
  0
3DFACE
  8
0
 10
-21.252792358398438
 20
-209.2354736328125
 30
9.166669845581055
 11
-21.252790451049805
 21
-189.2355194091797
 31
9.166669845581055
 12
-21.4393367767334
 22
-189.2355194091797
 32
8.93936538696289
 13
-21.43933868408203
 23
-209.2354736328125
 33
8.939363479614258
  0
3DFACE
  8
0
 10
-21.43933868408203
 20
-209.2354736328125
 30
8.939363479614258
 11
-21.4393367767334
 21
-189.2355194091797
 31
8.93936538696289
 12
-21.666641235351562
 22
-189.2355194091797
 32
8.752822875976562
 13
-21.666641235351562
 23
-209.2354736328125
 33
8.752822875976562
  0
3DFACE
  8
0
 10
-21.666641235351562
 20
-209.2354736328125
 30
8.752822875976562
 11
-21.666641235351562
 21
-189.2355194091797
 31
8.752822875976562
 12
-21.92597007751465
 22
-189.2355194091797
 32
8.614204406738281
 13
-21.92597007751465
 23
-209.2354736328125
 33
8.614206314086914
  0
3DFACE
  8
0
 10
-21.92597007751465
 20
-209.2354736328125
 30
8.614206314086914
 11
-21.92597007751465
 21
-189.2355194091797
 31
8.614204406738281
 12
-22.20736312866211
 22
-189.2355194091797
 32
8.52884292602539
 13
-22.207365036010742
 23
-209.2354736328125
 33
8.528841018676758
  0
3DFACE
  8
0
 10
-22.207365036010742
 20
-209.2354736328125
 30
8.528841018676758
 11
-22.20736312866211
 21
-189.2355194091797
 31
8.52884292602539
 12
-22.4999942779541
 22
-189.2355194091797
 32
8.500022888183594
 13
-22.499996185302734
 23
-209.2354736328125
 33
8.500020980834961
  0
3DFACE
  8
0
 10
-22.499996185302734
 20
-209.2354736328125
 30
8.500020980834961
 11
-22.4999942779541
 21
-189.2355194091797
 31
8.500022888183594
 12
-22.792634963989258
 22
-189.2355194091797
 32
8.528844833374023
 13
-22.792631149291992
 23
-209.2354736328125
 33
8.52884292602539
  0
3DFACE
  8
0
 10
-22.792631149291992
 20
-209.2354736328125
 30
8.52884292602539
 11
-22.792634963989258
 21
-189.2355194091797
 31
8.528844833374023
 12
-23.07402229309082
 22
-189.2355194091797
 32
8.614204406738281
 13
-23.07402229309082
 23
-209.2354736328125
 33
8.614204406738281
  0
3DFACE
  8
0
 10
-23.07402229309082
 20
-209.2354736328125
 30
8.614204406738281
 11
-23.07402229309082
 21
-189.2355194091797
 31
8.614204406738281
 12
-23.333354949951172
 22
-189.2355194091797
 32
8.752822875976562
 13
-23.333354949951172
 23
-209.2354736328125
 33
8.752822875976562
  0
3DFACE
  8
0
 10
-23.333354949951172
 20
-209.2354736328125
 30
8.752822875976562
 11
-23.333354949951172
 21
-189.2355194091797
 31
8.752822875976562
 12
-23.56065559387207
 22
-189.2355194091797
 32
8.93936538696289
 13
-23.56065559387207
 23
-209.2354736328125
 33
8.939361572265625
  0
3DFACE
  8
0
 10
-23.56065559387207
 20
-209.2354736328125
 30
8.939361572265625
 11
-23.56065559387207
 21
-189.2355194091797
 31
8.93936538696289
 12
-23.74720573425293
 22
-189.2355194091797
 32
9.166666030883789
 13
-23.747207641601562
 23
-209.2354736328125
 33
9.166664123535156
  0
3DFACE
  8
0
 10
-23.747207641601562
 20
-209.2354736328125
 30
9.166664123535156
 11
-23.74720573425293
 21
-189.2355194091797
 31
9.166666030883789
 12
-23.88581657409668
 22
-189.2355194091797
 32
9.42599868774414
 13
-23.88581657409668
 23
-209.2354736328125
 33
9.425994873046875
  0
3DFACE
  8
0
 10
-23.88581657409668
 20
-209.2354736328125
 30
9.425994873046875
 11
-23.88581657409668
 21
-189.2355194091797
 31
9.42599868774414
 12
-23.97117805480957
 22
-189.2355194091797
 32
9.70738410949707
 13
-23.971174240112305
 23
-209.2354736328125
 33
9.707387924194336
  0
3DFACE
  8
0
 10
-23.971174240112305
 20
-209.2354736328125
 30
9.707387924194336
 11
-23.97117805480957
 21
-189.2355194091797
 31
9.70738410949707
 12
-23.999998092651367
 22
-189.2355194091797
 32
10.000020980834961
 13
-23.999998092651367
 23
-209.2354736328125
 33
10.000020980834961
  0
3DFACE
  8
0
 10
-23.999998092651367
 20
-209.2354736328125
 30
10.000020980834961
 11
-23.999998092651367
 21
-189.2355194091797
 31
10.000020980834961
 12
-23.971174240112305
 22
-189.2355194091797
 32
10.292655944824219
 13
-23.971174240112305
 23
-209.2354736328125
 33
10.292655944824219
  0
3DFACE
  8
0
 10
-23.971174240112305
 20
-209.2354736328125
 30
10.292655944824219
 11
-23.971174240112305
 21
-189.2355194091797
 31
10.292655944824219
 12
-23.885818481445312
 22
-189.2355194091797
 32
10.57404899597168
 13
-23.88581657409668
 23
-209.2354736328125
 33
10.574047088623047
  0
3DFACE
  8
0
 10
-23.88581657409668
 20
-209.2354736328125
 30
10.574047088623047
 11
-23.885818481445312
 21
-189.2355194091797
 31
10.57404899597168
 12
-23.747207641601562
 22
-189.2355194091797
 32
10.833377838134766
 13
-23.747207641601562
 23
-209.2354736328125
 33
10.833379745483398
  0
3DFACE
  8
0
 10
-23.747207641601562
 20
-209.2354736328125
 30
10.833379745483398
 11
-23.747207641601562
 21
-189.2355194091797
 31
10.833377838134766
 12
-23.560657501220703
 22
-189.2355194091797
 32
11.060686111450195
 13
-23.56065559387207
 23
-209.2354736328125
 33
11.060686111450195
  0
3DFACE
  8
0
 10
-23.56065559387207
 20
-209.2354736328125
 30
11.060686111450195
 11
-23.560657501220703
 21
-189.2355194091797
 31
11.060686111450195
 12
-23.33335304260254
 22
-189.2355194091797
 32
11.247230529785156
 13
-23.333354949951172
 23
-209.2354736328125
 33
11.247228622436523
  0
3DFACE
  8
0
 10
-23.333354949951172
 20
-209.2354736328125
 30
11.247228622436523
 11
-23.33335304260254
 21
-189.2355194091797
 31
11.247230529785156
 12
-23.074024200439453
 22
-189.2355194091797
 32
11.385839462280273
 13
-23.074024200439453
 23
-209.2354736328125
 33
11.38583755493164
  0
3DFACE
  8
0
 10
-23.074024200439453
 20
-209.2354736328125
 30
11.38583755493164
 11
-23.074024200439453
 21
-189.2355194091797
 31
11.385839462280273
 12
-22.792633056640625
 22
-189.2355194091797
 32
11.471199035644531
 13
-22.792633056640625
 23
-209.2354736328125
 33
11.471199035644531
  0
3DFACE
  8
0
 10
-22.792633056640625
 20
-209.2354736328125
 30
11.471199035644531
 11
-22.792633056640625
 21
-189.2355194091797
 31
11.471199035644531
 12
-22.499998092651367
 22
-189.2355194091797
 32
11.500018119812012
 13
-22.499996185302734
 23
-209.2354736328125
 33
11.500020027160645
  0
3DFACE
  8
0
 10
-22.499996185302734
 20
-209.2354736328125
 30
11.500020027160645
 11
-22.499998092651367
 21
-189.2355194091797
 31
11.500018119812012
 12
-22.207361221313477
 22
-189.2355194091797
 32
11.471197128295898
 13
-22.20736312866211
 23
-209.2354736328125
 33
11.471197128295898
  0
3DFACE
  8
0
 10
22.792633056640625
 20
-209.2354736328125
 30
11.471193313598633
 11
22.792633056640625
 21
-189.2354736328125
 31
11.471193313598633
 12
23.074024200439453
 22
-189.2354736328125
 32
11.385831832885742
 13
23.07402229309082
 23
-209.2354736328125
 33
11.385831832885742
  0
3DFACE
  8
0
 10
23.07402229309082
 20
-209.2354736328125
 30
11.385831832885742
 11
23.074024200439453
 21
-189.2354736328125
 31
11.385831832885742
 12
23.333349227905273
 22
-189.2354736328125
 32
11.247222900390625
 13
23.333351135253906
 23
-209.2354736328125
 33
11.247222900390625
  0
3DFACE
  8
0
 10
23.333351135253906
 20
-209.2354736328125
 30
11.247222900390625
 11
23.333349227905273
 21
-189.2354736328125
 31
11.247222900390625
 12
23.5606632232666
 22
-189.2354736328125
 32
11.060680389404297
 13
23.5606632232666
 23
-209.2354736328125
 33
11.060680389404297
  0
3DFACE
  8
0
 10
23.5606632232666
 20
-209.2354736328125
 30
11.060680389404297
 11
23.5606632232666
 21
-189.2354736328125
 31
11.060680389404297
 12
23.747207641601562
 22
-189.2354736328125
 32
10.833375930786133
 13
23.747209548950195
 23
-209.2354736328125
 33
10.833375930786133
  0
3DFACE
  8
0
 10
23.747209548950195
 20
-209.2354736328125
 30
10.833375930786133
 11
23.747207641601562
 21
-189.2354736328125
 31
10.833375930786133
 12
23.885814666748047
 22
-189.2354736328125
 32
10.574041366577148
 13
23.885814666748047
 23
-209.2354736328125
 33
10.574041366577148
  0
3DFACE
  8
0
 10
23.885814666748047
 20
-209.2354736328125
 30
10.574041366577148
 11
23.885814666748047
 21
-189.2354736328125
 31
10.574041366577148
 12
23.971181869506836
 22
-189.2354736328125
 32
10.292652130126953
 13
23.971179962158203
 23
-209.2354736328125
 33
10.292654037475586
  0
3DFACE
  8
0
 10
23.971179962158203
 20
-209.2354736328125
 30
10.292654037475586
 11
23.971181869506836
 21
-189.2354736328125
 31
10.292652130126953
 12
23.999996185302734
 22
-189.2354736328125
 32
10.000015258789062
 13
23.999996185302734
 23
-209.2354736328125
 33
10.000015258789062
  0
3DFACE
  8
0
 10
23.999996185302734
 20
-209.2354736328125
 30
10.000015258789062
 11
23.999996185302734
 21
-189.2354736328125
 31
10.000015258789062
 12
23.971181869506836
 22
-189.2354736328125
 32
9.707382202148438
 13
23.971179962158203
 23
-209.2354736328125
 33
9.707382202148438
  0
3DFACE
  8
0
 10
23.971179962158203
 20
-209.2354736328125
 30
9.707382202148438
 11
23.971181869506836
 21
-189.2354736328125
 31
9.707382202148438
 12
23.885814666748047
 22
-189.2354736328125
 32
9.42599105834961
 13
23.885814666748047
 23
-209.2354736328125
 33
9.425989151000977
  0
3DFACE
  8
0
 10
23.885814666748047
 20
-209.2354736328125
 30
9.425989151000977
 11
23.885814666748047
 21
-189.2354736328125
 31
9.42599105834961
 12
23.747207641601562
 22
-189.2354736328125
 32
9.166666030883789
 13
23.747209548950195
 23
-209.2354736328125
 33
9.166664123535156
  0
3DFACE
  8
0
 10
23.747209548950195
 20
-209.2354736328125
 30
9.166664123535156
 11
23.747207641601562
 21
-189.2354736328125
 31
9.166666030883789
 12
23.5606632232666
 22
-189.2354736328125
 32
8.939355850219727
 13
23.5606632232666
 23
-209.2354736328125
 33
8.939355850219727
  0
3DFACE
  8
0
 10
23.5606632232666
 20
-209.2354736328125
 30
8.939355850219727
 11
23.5606632232666
 21
-189.2354736328125
 31
8.939355850219727
 12
23.333351135253906
 22
-189.2354736328125
 32
8.752815246582031
 13
23.33334732055664
 23
-209.2354736328125
 33
8.752817153930664
  0
3DFACE
  8
0
 10
23.33334732055664
 20
-209.2354736328125
 30
8.752817153930664
 11
23.333351135253906
 21
-189.2354736328125
 31
8.752815246582031
 12
23.07402801513672
 22
-189.2354736328125
 32
8.61419677734375
 13
23.07402801513672
 23
-209.2354736328125
 33
8.614198684692383
  0
3DFACE
  8
0
 10
23.07402801513672
 20
-209.2354736328125
 30
8.614198684692383
 11
23.07402801513672
 21
-189.2354736328125
 31
8.61419677734375
 12
22.792631149291992
 22
-189.2354736328125
 32
8.528839111328125
 13
22.792633056640625
 23
-209.2354736328125
 33
8.528839111328125
  0
3DFACE
  8
0
 10
22.792633056640625
 20
-209.2354736328125
 30
8.528839111328125
 11
22.792631149291992
 21
-189.2354736328125
 31
8.528839111328125
 12
22.499998092651367
 22
-189.2354736328125
 32
8.500015258789062
 13
22.499998092651367
 23
-209.2354736328125
 33
8.500017166137695
  0
3DFACE
  8
0
 10
22.499998092651367
 20
-209.2354736328125
 30
8.500017166137695
 11
22.499998092651367
 21
-189.2354736328125
 31
8.500015258789062
 12
22.207368850708008
 22
-189.2354736328125
 32
8.528837203979492
 13
22.207368850708008
 23
-209.2354736328125
 33
8.528837203979492
  0
3DFACE
  8
0
 10
22.207368850708008
 20
-209.2354736328125
 30
8.528837203979492
 11
22.207368850708008
 21
-189.2354736328125
 31
8.528837203979492
 12
21.925975799560547
 22
-189.2354736328125
 32
8.61419677734375
 13
21.925975799560547
 23
-209.2354736328125
 33
8.61419677734375
  0
3DFACE
  8
0
 10
21.925975799560547
 20
-209.2354736328125
 30
8.61419677734375
 11
21.925975799560547
 21
-189.2354736328125
 31
8.61419677734375
 12
21.666650772094727
 22
-189.2354736328125
 32
8.752815246582031
 13
21.66664695739746
 23
-209.2354736328125
 33
8.752817153930664
  0
3DFACE
  8
0
 10
21.66664695739746
 20
-209.2354736328125
 30
8.752817153930664
 11
21.666650772094727
 21
-189.2354736328125
 31
8.752815246582031
 12
21.439346313476562
 22
-189.2354736328125
 32
8.939355850219727
 13
21.439346313476562
 23
-209.2354736328125
 33
8.939355850219727
  0
3DFACE
  8
0
 10
21.439346313476562
 20
-209.2354736328125
 30
8.939355850219727
 11
21.439346313476562
 21
-189.2354736328125
 31
8.939355850219727
 12
21.252798080444336
 22
-189.2354736328125
 32
9.16666030883789
 13
21.25279998779297
 23
-209.2354736328125
 33
9.166658401489258
  0
3DFACE
  8
0
 10
21.25279998779297
 20
-209.2354736328125
 30
9.166658401489258
 11
21.252798080444336
 21
-189.2354736328125
 31
9.16666030883789
 12
21.114185333251953
 22
-189.2354736328125
 32
9.42599105834961
 13
21.114185333251953
 23
-209.2354736328125
 33
9.425989151000977
  0
3DFACE
  8
0
 10
21.114185333251953
 20
-209.2354736328125
 30
9.425989151000977
 11
21.114185333251953
 21
-189.2354736328125
 31
9.42599105834961
 12
21.028820037841797
 22
-189.2354736328125
 32
9.707380294799805
 13
21.028820037841797
 23
-209.2354736328125
 33
9.707378387451172
  0
3DFACE
  8
0
 10
21.028820037841797
 20
-209.2354736328125
 30
9.707378387451172
 11
21.028820037841797
 21
-189.2354736328125
 31
9.707380294799805
 12
21.000003814697266
 22
-189.2354736328125
 32
10.000017166137695
 13
21.000003814697266
 23
-209.2354736328125
 33
10.000017166137695
  0
3DFACE
  8
0
 10
21.000003814697266
 20
-209.2354736328125
 30
10.000017166137695
 11
21.000003814697266
 21
-189.2354736328125
 31
10.000017166137695
 12
21.028820037841797
 22
-189.2354736328125
 32
10.29265022277832
 13
21.028820037841797
 23
-209.2354736328125
 33
10.292648315429688
  0
3DFACE
  8
0
 10
21.028820037841797
 20
-209.2354736328125
 30
10.292648315429688
 11
21.028820037841797
 21
-189.2354736328125
 31
10.29265022277832
 12
21.114185333251953
 22
-189.2354736328125
 32
10.574041366577148
 13
21.114185333251953
 23
-209.2354736328125
 33
10.574041366577148
  0
3DFACE
  8
0
 10
21.114185333251953
 20
-209.2354736328125
 30
10.574041366577148
 11
21.114185333251953
 21
-189.2354736328125
 31
10.574041366577148
 12
21.25279998779297
 22
-189.2354736328125
 32
10.8333740234375
 13
21.2528018951416
 23
-209.2354736328125
 33
10.833372116088867
  0
3DFACE
  8
0
 10
21.2528018951416
 20
-209.2354736328125
 30
10.833372116088867
 11
21.25279998779297
 21
-189.2354736328125
 31
10.8333740234375
 12
21.439346313476562
 22
-189.2354736328125
 32
11.060680389404297
 13
21.439346313476562
 23
-209.2354736328125
 33
11.060680389404297
  0
3DFACE
  8
0
 10
21.439346313476562
 20
-209.2354736328125
 30
11.060680389404297
 11
21.439346313476562
 21
-189.2354736328125
 31
11.060680389404297
 12
21.66664695739746
 22
-189.2354736328125
 32
11.247222900390625
 13
21.666650772094727
 23
-209.2354736328125
 33
11.247222900390625
  0
3DFACE
  8
0
 10
21.666650772094727
 20
-209.2354736328125
 30
11.247222900390625
 11
21.66664695739746
 21
-189.2354736328125
 31
11.247222900390625
 12
21.925975799560547
 22
-189.2354736328125
 32
11.385831832885742
 13
21.925973892211914
 23
-209.2354736328125
 33
11.385831832885742
  0
3DFACE
  8
0
 10
21.925973892211914
 20
-209.2354736328125
 30
11.385831832885742
 11
21.925975799560547
 21
-189.2354736328125
 31
11.385831832885742
 12
22.207359313964844
 22
-189.2354736328125
 32
11.471193313598633
 13
22.207359313964844
 23
-209.2354736328125
 33
11.471193313598633
  0
3DFACE
  8
0
 10
22.207359313964844
 20
-209.2354736328125
 30
11.471193313598633
 11
22.207359313964844
 21
-189.2354736328125
 31
11.471193313598633
 12
22.499998092651367
 22
-189.2354736328125
 32
11.500011444091797
 13
22.499998092651367
 23
-209.2354736328125
 33
11.50001049041748
  0
3DFACE
  8
0
 10
22.499998092651367
 20
-209.2354736328125
 30
11.50001049041748
 11
22.499998092651367
 21
-189.2354736328125
 31
11.500011444091797
 12
22.792633056640625
 22
-189.2354736328125
 32
11.471193313598633
 13
22.792633056640625
 23
-209.2354736328125
 33
11.471193313598633
  0
ENDSEC
  0
EOF
