  0
SECTION
  2
HEADER
  9
$ACADVER
  1
AC1009
  9
$INSBASE
 10
0.0
 20
0.0
 30
0.0
  9
$EXTMIN
 10
0.0
 20
0.0
 30
0.0
  9
$EXTMAX
 10
0.0
 20
0.0
 30
0.0
  0
ENDSEC
  0
SECTION
  2
TABLES
  0
TABLE
  2
VPORT
 70
1
  0
VPORT
  2
*ACTIVE
 70
0
 10
0.0
 20
0.0
 11
1.0
 21
1.0
 12
-5.0
 22
1.0
 13
0.0
 23
0.0
 14
0.1
 24
0.1
 15
0.1
 25
0.1
 16
0.0
 26
0.0
 36
1.0
 17
0.0
 27
0.0
 37
0.0
 40
10.0
 41
1.0
 42
50.0
 43
0.0
 44
0.0
 50
0.0
 51
0.0
 71
0
 72
100
 73
1
 74
1
 75
0
 76
0
 77
0
 78
0
  0
ENDTAB
  0
TABLE
  2
LTYPE
 70
8
  0
LTYPE
  2
CONTINUOUS
 70
0
  3
Solid line
 72
65
 73
0
 40
0.0
  0
LTYPE
  2
DOT
 70
0
  3
. . . . . . .
 72
65
 73
2
 40
0.25
 49
0.0
 49
-0.25
  0
LTYPE
  2
DASHED
 70
0
  3
__ __ __ __ __
 72
65
 73
2
 40
0.8
 49
0.5
 49
-0.3
  0
LTYPE
  2
DASHDOT
 70
0
  3
__ . __ . __ .
 72
65
 73
4
 40
1.0
 49
0.5
 49
-0.25
 49
0.0
 49
-0.25
  0
LTYPE
  2
DIVIDE
 70
0
  3
____ . . ____ . . 
 72
65
 73
6
 40
1.25
 49
0.5
 49
-0.25
 49
0.0
 49
-0.25
 49
0.0
 49
-0.25
  0
LTYPE
  2
BORDER
 70
0
  3
__ __ . __ __ . 
 72
65
 73
6
 40
1.75
 49
0.5
 49
-0.25
 49
0.5
 49
-0.25
 49
0.0
 49
-0.25
  0
LTYPE
  2
HIDDEN
 70
0
  3
__ __ __ __ __
 72
65
 73
2
 40
0.4
 49
0.25
 49
-0.25
  0
LTYPE
  2
CENTER
 70
0
  3
____ _ ____ _ __
 72
65
 73
4
 40
2.0
 49
1.25
 49
-0.25
 49
0.25
 49
-0.25
  0
ENDTAB
  0
TABLE
  2
LAYER
 70
1
  0
LAYER
  2
PYDXF
 70
64
 62
7
  6
continuous
  0
ENDTAB
  0
TABLE
  2
STYLE
 70
1
  0
STYLE
  2
STANDARD
 70
0
 40
0
 41
1.0
 50
0.0
 71
0
 42
1
 3
ARIAL.TTF
 4

  0
ENDTAB
  0
TABLE
  2
VIEW
 70
1
  0
VIEW
  2
BF_TOPVIEW
 70
0
 40
120.0
 10
0.0
 20
0.0
 41
200.0
 11
0.0
 21
0.0
 31
1.0
 12
0.0
 22
0.0
 32
0.0
 42
50.0
 43
0.0
 44
0.0
 50
0.0
 71
0
  0
ENDTAB
  0
ENDSEC
  0
SECTION
  2
BLOCKS
  0
ENDSEC
  0
SECTION
  2
ENTITIES
  0
3DFACE
  8
0
 10
51.000003814697266
 20
-368.3947448730469
 30
36.06275939941406
 11
49.46193313598633
 21
-368.370849609375
 31
-18.91615104675293
 12
33.08590316772461
 22
-368.370849609375
 32
-18.91615867614746
 13
33.08590316772461
 23
-368.370849609375
 33
-18.91615867614746
  0
3DFACE
  8
0
 10
33.08590316772461
 20
-368.370849609375
 30
-18.91615867614746
 11
23.95965003967285
 21
-368.37530517578125
 31
-8.9132661819458
 12
23.93082618713379
 22
-368.37542724609375
 32
-8.61909294128418
 13
23.93082618713379
 23
-368.37542724609375
 33
-8.61909294128418
  0
3DFACE
  8
0
 10
33.08590316772461
 20
-368.370849609375
 30
-18.91615867614746
 11
23.93082618713379
 21
-368.37542724609375
 31
-8.61909294128418
 12
23.845462799072266
 22
-368.37554931640625
 32
-8.336207389831543
 13
23.845462799072266
 23
-368.37554931640625
 33
-8.336207389831543
  0
3DFACE
  8
0
 10
-49.536949157714844
 20
-368.370849609375
 30
-18.91615867614746
 11
-51.000003814697266
 21
-368.3947448730469
 31
36.06275939941406
 12
51.000003814697266
 22
-368.3947448730469
 32
36.06275939941406
 13
51.000003814697266
 23
-368.3947448730469
 33
36.06275939941406
  0
3DFACE
  8
0
 10
-24.04035186767578
 20
-368.37530517578125
 30
-8.913270950317383
 11
-33.08589172363281
 21
-368.370849609375
 31
-18.91615104675293
 12
-49.536949157714844
 22
-368.370849609375
 32
-18.91615867614746
 13
-49.536949157714844
 23
-368.370849609375
 33
-18.91615867614746
  0
3DFACE
  8
0
 10
-24.01152992248535
 20
-368.37542724609375
 30
-8.61909008026123
 11
-24.04035186767578
 21
-368.37530517578125
 31
-8.913270950317383
 12
-49.536949157714844
 22
-368.370849609375
 32
-18.91615867614746
 13
-49.536949157714844
 23
-368.370849609375
 33
-18.91615867614746
  0
3DFACE
  8
0
 10
51.000003814697266
 20
-368.3947448730469
 30
36.06275939941406
 11
33.08590316772461
 21
-368.370849609375
 31
-18.91615867614746
 12
23.845462799072266
 22
-368.37554931640625
 32
-8.336207389831543
 13
23.845462799072266
 23
-368.37554931640625
 33
-8.336207389831543
  0
3DFACE
  8
0
 10
51.000003814697266
 20
-368.3947448730469
 30
36.06275939941406
 11
23.845462799072266
 21
-368.37554931640625
 31
-8.336207389831543
 12
23.706846237182617
 22
-368.37567138671875
 32
-8.075505256652832
 13
23.706846237182617
 23
-368.37567138671875
 33
-8.075505256652832
  0
3DFACE
  8
0
 10
-23.92617416381836
 20
-368.37554931640625
 30
-8.336213111877441
 11
-24.01152992248535
 21
-368.37542724609375
 31
-8.61909008026123
 12
-49.536949157714844
 22
-368.370849609375
 32
-18.91615867614746
 13
-49.536949157714844
 23
-368.370849609375
 33
-18.91615867614746
  0
3DFACE
  8
0
 10
-23.78756332397461
 20
-368.37567138671875
 30
-8.075510025024414
 11
-23.92617416381836
 21
-368.37554931640625
 31
-8.336213111877441
 12
-49.536949157714844
 22
-368.370849609375
 32
-18.91615867614746
 13
-49.536949157714844
 23
-368.370849609375
 33
-18.91615867614746
  0
3DFACE
  8
0
 10
51.000003814697266
 20
-368.3947448730469
 30
36.06275939941406
 11
23.706846237182617
 21
-368.37567138671875
 31
-8.075505256652832
 12
23.52030372619629
 22
-368.3757629394531
 32
-7.847000598907471
 13
23.52030372619629
 23
-368.3757629394531
 33
-7.847000598907471
  0
3DFACE
  8
0
 10
51.000003814697266
 20
-368.3947448730469
 30
36.06275939941406
 11
23.52030372619629
 21
-368.3757629394531
 31
-7.847000598907471
 12
23.293001174926758
 22
-368.3758544921875
 32
-7.659469127655029
 13
23.293001174926758
 23
-368.3758544921875
 33
-7.659469127655029
  0
3DFACE
  8
0
 10
-23.601016998291016
 20
-368.3757629394531
 30
-7.84699821472168
 11
-23.78756332397461
 21
-368.37567138671875
 31
-8.075510025024414
 12
-49.536949157714844
 22
-368.370849609375
 32
-18.91615867614746
 13
-49.536949157714844
 23
-368.370849609375
 33
-18.91615867614746
  0
3DFACE
  8
0
 10
-23.37370491027832
 20
-368.3758544921875
 30
-7.65946626663208
 11
-23.601016998291016
 21
-368.3757629394531
 31
-7.84699821472168
 12
-49.536949157714844
 22
-368.370849609375
 32
-18.91615867614746
 13
-49.536949157714844
 23
-368.370849609375
 33
-18.91615867614746
  0
3DFACE
  8
0
 10
51.000003814697266
 20
-368.3947448730469
 30
36.06275939941406
 11
23.293001174926758
 21
-368.3758544921875
 31
-7.659469127655029
 12
23.03366470336914
 22
-368.37591552734375
 32
-7.52012300491333
 13
23.03366470336914
 23
-368.37591552734375
 33
-7.52012300491333
  0
3DFACE
  8
0
 10
51.000003814697266
 20
-368.3947448730469
 30
36.06275939941406
 11
23.03366470336914
 21
-368.37591552734375
 31
-7.52012300491333
 12
22.752283096313477
 22
-368.3759460449219
 32
-7.434312343597412
 13
22.752283096313477
 23
-368.3759460449219
 33
-7.434312343597412
  0
3DFACE
  8
0
 10
-23.37370491027832
 20
-368.3758544921875
 30
-7.65946626663208
 11
-49.536949157714844
 21
-368.370849609375
 31
-18.91615867614746
 12
51.000003814697266
 22
-368.3947448730469
 32
36.06275939941406
 13
51.000003814697266
 23
-368.3947448730469
 33
36.06275939941406
  0
3DFACE
  8
0
 10
-23.114383697509766
 20
-368.37591552734375
 30
-7.5201215744018555
 11
-23.37370491027832
 21
-368.3758544921875
 31
-7.65946626663208
 12
51.000003814697266
 22
-368.3947448730469
 32
36.06275939941406
 13
51.000003814697266
 23
-368.3947448730469
 33
36.06275939941406
  0
3DFACE
  8
0
 10
51.000003814697266
 20
-368.3947448730469
 30
36.06275939941406
 11
22.752283096313477
 21
-368.3759460449219
 31
-7.434312343597412
 12
22.45964241027832
 22
-368.3759765625
 32
-7.40533971786499
 13
22.45964241027832
 23
-368.3759765625
 33
-7.40533971786499
  0
3DFACE
  8
0
 10
51.000003814697266
 20
-368.3947448730469
 30
36.06275939941406
 11
22.45964241027832
 21
-368.3759765625
 31
-7.40533971786499
 12
22.167009353637695
 22
-368.3759460449219
 32
-7.434322834014893
 13
22.167009353637695
 23
-368.3759460449219
 33
-7.434322834014893
  0
3DFACE
  8
0
 10
-22.832992553710938
 20
-368.3759460449219
 30
-7.43432092666626
 11
-23.114383697509766
 21
-368.37591552734375
 31
-7.5201215744018555
 12
51.000003814697266
 22
-368.3947448730469
 32
36.06275939941406
 13
51.000003814697266
 23
-368.3947448730469
 33
36.06275939941406
  0
3DFACE
  8
0
 10
-22.540355682373047
 20
-368.3759765625
 30
-7.405338764190674
 11
-22.832992553710938
 21
-368.3759460449219
 31
-7.43432092666626
 12
51.000003814697266
 22
-368.3947448730469
 32
36.06275939941406
 13
51.000003814697266
 23
-368.3947448730469
 33
36.06275939941406
  0
3DFACE
  8
0
 10
51.000003814697266
 20
-368.3947448730469
 30
36.06275939941406
 11
22.167009353637695
 21
-368.3759460449219
 31
-7.434322834014893
 12
21.885622024536133
 22
-368.37591552734375
 32
-7.52012300491333
 13
21.885622024536133
 23
-368.37591552734375
 33
-7.52012300491333
  0
3DFACE
  8
0
 10
51.000003814697266
 20
-368.3947448730469
 30
36.06275939941406
 11
21.885622024536133
 21
-368.37591552734375
 31
-7.52012300491333
 12
21.62628746032715
 22
-368.3758544921875
 32
-7.659467697143555
 13
21.62628746032715
 23
-368.3758544921875
 33
-7.659467697143555
  0
3DFACE
  8
0
 10
-22.247718811035156
 20
-368.3759460449219
 30
-7.4343109130859375
 11
-22.540355682373047
 21
-368.3759765625
 31
-7.405338764190674
 12
51.000003814697266
 22
-368.3947448730469
 32
36.06275939941406
 13
51.000003814697266
 23
-368.3947448730469
 33
36.06275939941406
  0
3DFACE
  8
0
 10
-21.966327667236328
 20
-368.37591552734375
 30
-7.520120620727539
 11
-22.247718811035156
 21
-368.3759460449219
 31
-7.4343109130859375
 12
51.000003814697266
 22
-368.3947448730469
 32
36.06275939941406
 13
51.000003814697266
 23
-368.3947448730469
 33
36.06275939941406
  0
3DFACE
  8
0
 10
51.000003814697266
 20
-368.3947448730469
 30
36.06275939941406
 11
21.62628746032715
 21
-368.3758544921875
 31
-7.659467697143555
 12
21.398988723754883
 22
-368.3757629394531
 32
-7.847000598907471
 13
21.398988723754883
 23
-368.3757629394531
 33
-7.847000598907471
  0
3DFACE
  8
0
 10
51.000003814697266
 20
-368.3947448730469
 30
36.06275939941406
 11
21.398988723754883
 21
-368.3757629394531
 31
-7.847000598907471
 12
21.212444305419922
 22
-368.37567138671875
 32
-8.075511932373047
 13
21.212444305419922
 23
-368.37567138671875
 33
-8.075511932373047
  0
3DFACE
  8
0
 10
-21.706998825073242
 20
-368.3758544921875
 30
-7.659465312957764
 11
-21.966327667236328
 21
-368.37591552734375
 31
-7.520120620727539
 12
51.000003814697266
 22
-368.3947448730469
 32
36.06275939941406
 13
51.000003814697266
 23
-368.3947448730469
 33
36.06275939941406
  0
3DFACE
  8
0
 10
-21.479692459106445
 20
-368.3757629394531
 30
-7.846999168395996
 11
-21.706998825073242
 21
-368.3758544921875
 31
-7.659465312957764
 12
51.000003814697266
 22
-368.3947448730469
 32
36.06275939941406
 13
51.000003814697266
 23
-368.3947448730469
 33
36.06275939941406
  0
3DFACE
  8
0
 10
-21.479692459106445
 20
-368.3757629394531
 30
-7.846999168395996
 11
51.000003814697266
 21
-368.3947448730469
 31
36.06275939941406
 12
21.212444305419922
 22
-368.37567138671875
 32
-8.075511932373047
 13
21.212444305419922
 23
-368.37567138671875
 33
-8.075511932373047
  0
3DFACE
  8
0
 10
-21.293149948120117
 20
-368.37567138671875
 30
-8.07550048828125
 11
-21.479692459106445
 21
-368.3757629394531
 31
-7.846999168395996
 12
21.212444305419922
 22
-368.37567138671875
 32
-8.075511932373047
 13
21.212444305419922
 23
-368.37567138671875
 33
-8.075511932373047
  0
3DFACE
  8
0
 10
-21.293149948120117
 20
-368.37567138671875
 30
-8.07550048828125
 11
21.212444305419922
 21
-368.37567138671875
 31
-8.075511932373047
 12
21.073822021484375
 22
-368.37554931640625
 32
-8.33621883392334
 13
21.073822021484375
 23
-368.37554931640625
 33
-8.33621883392334
  0
3DFACE
  8
0
 10
-21.15453338623047
 20
-368.37554931640625
 30
-8.336213111877441
 11
-21.293149948120117
 21
-368.37567138671875
 31
-8.07550048828125
 12
21.073822021484375
 22
-368.37554931640625
 32
-8.33621883392334
 13
21.073822021484375
 23
-368.37554931640625
 33
-8.33621883392334
  0
3DFACE
  8
0
 10
20.98847770690918
 20
-368.37542724609375
 30
-8.619091033935547
 11
20.95964241027832
 21
-368.37530517578125
 31
-8.913275718688965
 12
-21.040355682373047
 22
-368.37530517578125
 32
-8.913263320922852
 13
-21.040355682373047
 23
-368.37530517578125
 33
-8.913263320922852
  0
3DFACE
  8
0
 10
-21.15453338623047
 20
-368.37554931640625
 30
-8.336213111877441
 11
21.073822021484375
 21
-368.37554931640625
 31
-8.33621883392334
 12
20.98847770690918
 22
-368.37542724609375
 32
-8.619091033935547
 13
20.98847770690918
 23
-368.37542724609375
 33
-8.619091033935547
  0
3DFACE
  8
0
 10
20.98847770690918
 20
-368.37542724609375
 30
-8.619091033935547
 11
-21.040355682373047
 21
-368.37530517578125
 31
-8.913263320922852
 12
-21.06917953491211
 22
-368.37542724609375
 32
-8.619091033935547
 13
-21.06917953491211
 23
-368.37542724609375
 33
-8.619091033935547
  0
3DFACE
  8
0
 10
20.98847770690918
 20
-368.37542724609375
 30
-8.619091033935547
 11
-21.06917953491211
 21
-368.37542724609375
 31
-8.619091033935547
 12
-21.15453338623047
 22
-368.37554931640625
 32
-8.336213111877441
 13
-21.15453338623047
 23
-368.37554931640625
 33
-8.336213111877441
  0
3DFACE
  8
0
 10
-33.08589172363281
 20
-368.370849609375
 30
-18.91615104675293
 11
-24.04035186767578
 21
-368.37530517578125
 31
-8.913270950317383
 12
-24.01152801513672
 22
-368.37518310546875
 32
-9.207446098327637
 13
-24.01152801513672
 23
-368.37518310546875
 33
-9.207446098327637
  0
3DFACE
  8
0
 10
-33.08589172363281
 20
-368.370849609375
 30
-18.91615104675293
 11
-24.01152801513672
 21
-368.37518310546875
 31
-9.207446098327637
 12
-23.926176071166992
 22
-368.37506103515625
 32
-9.49033260345459
 13
-23.926176071166992
 23
-368.37506103515625
 33
-9.49033260345459
  0
3DFACE
  8
0
 10
23.930824279785156
 20
-368.37518310546875
 30
-9.207449913024902
 11
23.95965003967285
 21
-368.37530517578125
 31
-8.9132661819458
 12
33.08590316772461
 22
-368.370849609375
 32
-18.91615867614746
 13
33.08590316772461
 23
-368.370849609375
 33
-18.91615867614746
  0
3DFACE
  8
0
 10
23.845468521118164
 20
-368.37506103515625
 30
-9.490324974060059
 11
23.930824279785156
 21
-368.37518310546875
 31
-9.207449913024902
 12
33.08590316772461
 22
-368.370849609375
 32
-18.91615867614746
 13
33.08590316772461
 23
-368.370849609375
 33
-18.91615867614746
  0
3DFACE
  8
0
 10
-33.08589172363281
 20
-368.370849609375
 30
-18.91615104675293
 11
-23.926176071166992
 21
-368.37506103515625
 31
-9.49033260345459
 12
-23.787565231323242
 22
-368.37493896484375
 32
-9.751031875610352
 13
-23.787565231323242
 23
-368.37493896484375
 33
-9.751031875610352
  0
3DFACE
  8
0
 10
-33.08589172363281
 20
-368.370849609375
 30
-18.91615104675293
 11
-23.787565231323242
 21
-368.37493896484375
 31
-9.751031875610352
 12
-23.601016998291016
 22
-368.3748474121094
 32
-9.979534149169922
 13
-23.601016998291016
 23
-368.3748474121094
 33
-9.979534149169922
  0
3DFACE
  8
0
 10
23.706844329833984
 20
-368.37493896484375
 30
-9.751033782958984
 11
23.845468521118164
 21
-368.37506103515625
 31
-9.490324974060059
 12
33.08590316772461
 22
-368.370849609375
 32
-18.91615867614746
 13
33.08590316772461
 23
-368.370849609375
 33
-18.91615867614746
  0
3DFACE
  8
0
 10
23.520305633544922
 20
-368.3748474121094
 30
-9.979537010192871
 11
23.706844329833984
 21
-368.37493896484375
 31
-9.751033782958984
 12
33.08590316772461
 22
-368.370849609375
 32
-18.91615867614746
 13
33.08590316772461
 23
-368.370849609375
 33
-18.91615867614746
  0
3DFACE
  8
0
 10
-33.08589172363281
 20
-368.370849609375
 30
-18.91615104675293
 11
-23.601016998291016
 21
-368.3748474121094
 31
-9.979534149169922
 12
-23.37371253967285
 22
-368.374755859375
 32
-10.167076110839844
 13
-23.37371253967285
 23
-368.374755859375
 33
-10.167076110839844
  0
3DFACE
  8
0
 10
-33.08589172363281
 20
-368.370849609375
 30
-18.91615104675293
 11
-23.37371253967285
 21
-368.374755859375
 31
-10.167076110839844
 12
-23.114381790161133
 22
-368.37469482421875
 32
-10.306412696838379
 13
-23.114381790161133
 23
-368.37469482421875
 33
-10.306412696838379
  0
3DFACE
  8
0
 10
23.293012619018555
 20
-368.374755859375
 30
-10.16706657409668
 11
23.520305633544922
 21
-368.3748474121094
 31
-9.979537010192871
 12
33.08590316772461
 22
-368.370849609375
 32
-18.91615867614746
 13
33.08590316772461
 23
-368.370849609375
 33
-18.91615867614746
  0
3DFACE
  8
0
 10
23.033674240112305
 20
-368.37469482421875
 30
-10.306414604187012
 11
23.293012619018555
 21
-368.374755859375
 31
-10.16706657409668
 12
33.08590316772461
 22
-368.370849609375
 32
-18.91615867614746
 13
33.08590316772461
 23
-368.370849609375
 33
-18.91615867614746
  0
3DFACE
  8
0
 10
-33.08589172363281
 20
-368.370849609375
 30
-18.91615104675293
 11
-23.114381790161133
 21
-368.37469482421875
 31
-10.306412696838379
 12
-22.832992553710938
 22
-368.3746643066406
 32
-10.392230033874512
 13
-22.832992553710938
 23
-368.3746643066406
 33
-10.392230033874512
  0
3DFACE
  8
0
 10
-33.08589172363281
 20
-368.370849609375
 30
-18.91615104675293
 11
-22.832992553710938
 21
-368.3746643066406
 31
-10.392230033874512
 12
-22.540355682373047
 22
-368.3746337890625
 32
-10.4212007522583
 13
-22.540355682373047
 23
-368.3746337890625
 33
-10.4212007522583
  0
3DFACE
  8
0
 10
22.752281188964844
 20
-368.3746643066406
 30
-10.392229080200195
 11
23.033674240112305
 21
-368.37469482421875
 31
-10.306414604187012
 12
33.08590316772461
 22
-368.370849609375
 32
-18.91615867614746
 13
33.08590316772461
 23
-368.370849609375
 33
-18.91615867614746
  0
3DFACE
  8
0
 10
22.459640502929688
 20
-368.3746643066406
 30
-10.421205520629883
 11
22.752281188964844
 21
-368.3746643066406
 31
-10.392229080200195
 12
33.08590316772461
 22
-368.370849609375
 32
-18.91615867614746
 13
33.08590316772461
 23
-368.370849609375
 33
-18.91615867614746
  0
3DFACE
  8
0
 10
33.08590316772461
 20
-368.370849609375
 30
-18.91615867614746
 11
-33.08589172363281
 21
-368.370849609375
 31
-18.91615104675293
 12
-22.540355682373047
 22
-368.3746337890625
 32
-10.4212007522583
 13
-22.540355682373047
 23
-368.3746337890625
 33
-10.4212007522583
  0
3DFACE
  8
0
 10
33.08590316772461
 20
-368.370849609375
 30
-18.91615867614746
 11
-22.540355682373047
 21
-368.3746337890625
 31
-10.4212007522583
 12
-22.247718811035156
 22
-368.3746643066406
 32
-10.392229080200195
 13
-22.247718811035156
 23
-368.3746643066406
 33
-10.392229080200195
  0
3DFACE
  8
0
 10
22.167009353637695
 20
-368.3746643066406
 30
-10.392230033874512
 11
22.459640502929688
 21
-368.3746643066406
 31
-10.421205520629883
 12
33.08590316772461
 22
-368.370849609375
 32
-18.91615867614746
 13
33.08590316772461
 23
-368.370849609375
 33
-18.91615867614746
  0
3DFACE
  8
0
 10
21.885622024536133
 20
-368.37469482421875
 30
-10.306414604187012
 11
22.167009353637695
 21
-368.3746643066406
 31
-10.392230033874512
 12
33.08590316772461
 22
-368.370849609375
 32
-18.91615867614746
 13
33.08590316772461
 23
-368.370849609375
 33
-18.91615867614746
  0
3DFACE
  8
0
 10
33.08590316772461
 20
-368.370849609375
 30
-18.91615867614746
 11
-22.247718811035156
 21
-368.3746643066406
 31
-10.392229080200195
 12
-21.966327667236328
 22
-368.37469482421875
 32
-10.306413650512695
 13
-21.966327667236328
 23
-368.37469482421875
 33
-10.306413650512695
  0
3DFACE
  8
0
 10
33.08590316772461
 20
-368.370849609375
 30
-18.91615867614746
 11
-21.966327667236328
 21
-368.37469482421875
 31
-10.306413650512695
 12
-21.707000732421875
 22
-368.374755859375
 32
-10.16706657409668
 13
-21.707000732421875
 23
-368.374755859375
 33
-10.16706657409668
  0
3DFACE
  8
0
 10
21.62628936767578
 20
-368.374755859375
 30
-10.167076110839844
 11
21.885622024536133
 21
-368.37469482421875
 31
-10.306414604187012
 12
33.08590316772461
 22
-368.370849609375
 32
-18.91615867614746
 13
33.08590316772461
 23
-368.370849609375
 33
-18.91615867614746
  0
3DFACE
  8
0
 10
21.62628936767578
 20
-368.374755859375
 30
-10.167076110839844
 11
33.08590316772461
 21
-368.370849609375
 31
-18.91615867614746
 12
-21.707000732421875
 22
-368.374755859375
 32
-10.16706657409668
 13
-21.707000732421875
 23
-368.374755859375
 33
-10.16706657409668
  0
3DFACE
  8
0
 10
21.62628936767578
 20
-368.374755859375
 30
-10.167076110839844
 11
-21.707000732421875
 21
-368.374755859375
 31
-10.16706657409668
 12
-21.479694366455078
 22
-368.3748474121094
 32
-9.979537010192871
 13
-21.479694366455078
 23
-368.3748474121094
 33
-9.979537010192871
  0
3DFACE
  8
0
 10
21.398988723754883
 20
-368.3748474121094
 30
-9.979537010192871
 11
21.62628936767578
 21
-368.374755859375
 31
-10.167076110839844
 12
-21.479694366455078
 22
-368.3748474121094
 32
-9.979537010192871
 13
-21.479694366455078
 23
-368.3748474121094
 33
-9.979537010192871
  0
3DFACE
  8
0
 10
21.398988723754883
 20
-368.3748474121094
 30
-9.979537010192871
 11
-21.479694366455078
 21
-368.3748474121094
 31
-9.979537010192871
 12
-21.293153762817383
 22
-368.37493896484375
 32
-9.751030921936035
 13
-21.293153762817383
 23
-368.37493896484375
 33
-9.751030921936035
  0
3DFACE
  8
0
 10
21.212444305419922
 20
-368.37493896484375
 30
-9.751033782958984
 11
21.398988723754883
 21
-368.3748474121094
 31
-9.979537010192871
 12
-21.293153762817383
 22
-368.37493896484375
 32
-9.751030921936035
 13
-21.293153762817383
 23
-368.37493896484375
 33
-9.751030921936035
  0
3DFACE
  8
0
 10
21.212444305419922
 20
-368.37493896484375
 30
-9.751033782958984
 11
-21.293153762817383
 21
-368.37493896484375
 31
-9.751030921936035
 12
-21.154537200927734
 22
-368.37506103515625
 32
-9.49032211303711
 13
-21.154537200927734
 23
-368.37506103515625
 33
-9.49032211303711
  0
3DFACE
  8
0
 10
21.073822021484375
 20
-368.37506103515625
 30
-9.490334510803223
 11
21.212444305419922
 21
-368.37493896484375
 31
-9.751033782958984
 12
-21.154537200927734
 22
-368.37506103515625
 32
-9.49032211303711
 13
-21.154537200927734
 23
-368.37506103515625
 33
-9.49032211303711
  0
3DFACE
  8
0
 10
-21.069175720214844
 20
-368.37518310546875
 30
-9.207446098327637
 11
-21.040355682373047
 21
-368.37530517578125
 31
-8.913263320922852
 12
20.95964241027832
 22
-368.37530517578125
 32
-8.913275718688965
 13
20.95964241027832
 23
-368.37530517578125
 33
-8.913275718688965
  0
3DFACE
  8
0
 10
21.073822021484375
 20
-368.37506103515625
 30
-9.490334510803223
 11
-21.154537200927734
 21
-368.37506103515625
 31
-9.49032211303711
 12
-21.069175720214844
 22
-368.37518310546875
 32
-9.207446098327637
 13
-21.069175720214844
 23
-368.37518310546875
 33
-9.207446098327637
  0
3DFACE
  8
0
 10
-21.069175720214844
 20
-368.37518310546875
 30
-9.207446098327637
 11
20.95964241027832
 21
-368.37530517578125
 31
-8.913275718688965
 12
20.988475799560547
 22
-368.37518310546875
 32
-9.207448959350586
 13
20.988475799560547
 23
-368.37518310546875
 33
-9.207448959350586
  0
3DFACE
  8
0
 10
-21.069175720214844
 20
-368.37518310546875
 30
-9.207446098327637
 11
20.988475799560547
 21
-368.37518310546875
 31
-9.207448959350586
 12
21.073822021484375
 22
-368.37506103515625
 32
-9.490334510803223
 13
21.073822021484375
 23
-368.37506103515625
 33
-9.490334510803223
  0
ENDSEC
  0
EOF
