  0
SECTION
  2
HEADER
  9
$ACADVER
  1
AC1009
  9
$INSBASE
 10
0.0
 20
0.0
 30
0.0
  9
$EXTMIN
 10
0.0
 20
0.0
 30
0.0
  9
$EXTMAX
 10
0.0
 20
0.0
 30
0.0
  0
ENDSEC
  0
SECTION
  2
TABLES
  0
TABLE
  2
VPORT
 70
1
  0
VPORT
  2
*ACTIVE
 70
0
 10
0.0
 20
0.0
 11
1.0
 21
1.0
 12
-5.0
 22
1.0
 13
0.0
 23
0.0
 14
0.1
 24
0.1
 15
0.1
 25
0.1
 16
0.0
 26
0.0
 36
1.0
 17
0.0
 27
0.0
 37
0.0
 40
10.0
 41
1.0
 42
50.0
 43
0.0
 44
0.0
 50
0.0
 51
0.0
 71
0
 72
100
 73
1
 74
1
 75
0
 76
0
 77
0
 78
0
  0
ENDTAB
  0
TABLE
  2
LTYPE
 70
8
  0
LTYPE
  2
CONTINUOUS
 70
0
  3
Solid line
 72
65
 73
0
 40
0.0
  0
LTYPE
  2
DOT
 70
0
  3
. . . . . . .
 72
65
 73
2
 40
0.25
 49
0.0
 49
-0.25
  0
LTYPE
  2
DASHED
 70
0
  3
__ __ __ __ __
 72
65
 73
2
 40
0.8
 49
0.5
 49
-0.3
  0
LTYPE
  2
DASHDOT
 70
0
  3
__ . __ . __ .
 72
65
 73
4
 40
1.0
 49
0.5
 49
-0.25
 49
0.0
 49
-0.25
  0
LTYPE
  2
DIVIDE
 70
0
  3
____ . . ____ . . 
 72
65
 73
6
 40
1.25
 49
0.5
 49
-0.25
 49
0.0
 49
-0.25
 49
0.0
 49
-0.25
  0
LTYPE
  2
BORDER
 70
0
  3
__ __ . __ __ . 
 72
65
 73
6
 40
1.75
 49
0.5
 49
-0.25
 49
0.5
 49
-0.25
 49
0.0
 49
-0.25
  0
LTYPE
  2
HIDDEN
 70
0
  3
__ __ __ __ __
 72
65
 73
2
 40
0.4
 49
0.25
 49
-0.25
  0
LTYPE
  2
CENTER
 70
0
  3
____ _ ____ _ __
 72
65
 73
4
 40
2.0
 49
1.25
 49
-0.25
 49
0.25
 49
-0.25
  0
ENDTAB
  0
TABLE
  2
LAYER
 70
1
  0
LAYER
  2
PYDXF
 70
64
 62
7
  6
continuous
  0
ENDTAB
  0
TABLE
  2
STYLE
 70
1
  0
STYLE
  2
STANDARD
 70
0
 40
0
 41
1.0
 50
0.0
 71
0
 42
1
 3
ARIAL.TTF
 4

  0
ENDTAB
  0
TABLE
  2
VIEW
 70
1
  0
VIEW
  2
BF_TOPVIEW
 70
0
 40
120.0
 10
0.0
 20
0.0
 41
200.0
 11
0.0
 21
0.0
 31
1.0
 12
0.0
 22
0.0
 32
0.0
 42
50.0
 43
0.0
 44
0.0
 50
0.0
 71
0
  0
ENDTAB
  0
ENDSEC
  0
SECTION
  2
BLOCKS
  0
ENDSEC
  0
SECTION
  2
ENTITIES
  0
3DFACE
  8
0
 10
249.03736877441406
 20
-358.237060546875
 30
19.999996185302734
 11
249.03736877441406
 21
-364.237060546875
 31
19.999996185302734
 12
248.0
 22
-364.237060546875
 32
55.0
 13
248.0
 23
-358.237060546875
 33
55.0
  0
3DFACE
  8
0
 10
248.0
 20
-358.237060546875
 30
55.0
 11
256.0
 21
-358.237060546875
 31
55.0
 12
256.0
 22
-358.237060546875
 32
19.999996185302734
 13
249.03736877441406
 23
-358.237060546875
 33
19.999996185302734
  0
3DFACE
  8
0
 10
256.0
 20
-358.237060546875
 30
55.0
 11
256.0
 21
-364.237060546875
 31
55.0
 12
256.0
 22
-364.237060546875
 32
19.999996185302734
 13
256.0
 23
-358.237060546875
 33
19.999996185302734
  0
3DFACE
  8
0
 10
249.03736877441406
 20
-364.237060546875
 30
19.999996185302734
 11
256.0
 21
-364.237060546875
 31
19.999996185302734
 12
256.0
 22
-364.237060546875
 32
55.0
 13
248.0
 23
-364.237060546875
 33
55.0
  0
3DFACE
  8
0
 10
249.50881958007812
 20
-358.237060546875
 30
0.0
 11
249.03736877441406
 21
-358.237060546875
 31
19.999996185302734
 12
256.0
 22
-358.237060546875
 32
19.999996185302734
 13
256.0
 23
-358.237060546875
 33
19.999996185302734
  0
3DFACE
  8
0
 10
256.0
 20
-358.237060546875
 30
13.333330154418945
 11
256.0
 21
-358.237060546875
 31
6.666666030883789
 12
256.0
 22
-358.237060546875
 32
0.0
 13
256.0
 23
-358.237060546875
 33
0.0
  0
3DFACE
  8
0
 10
249.50881958007812
 20
-358.237060546875
 30
0.0
 11
256.0
 21
-358.237060546875
 31
19.999996185302734
 12
256.0
 22
-358.237060546875
 32
13.333330154418945
 13
256.0
 23
-358.237060546875
 33
13.333330154418945
  0
3DFACE
  8
0
 10
256.0
 20
-358.237060546875
 30
13.333330154418945
 11
256.0
 21
-358.237060546875
 31
0.0
 12
249.50881958007812
 22
-358.237060546875
 32
0.0
 13
249.50881958007812
 23
-358.237060546875
 33
0.0
  0
3DFACE
  8
0
 10
256.0
 20
-364.237060546875
 30
55.0
 11
256.0
 21
-358.237060546875
 31
55.0
 12
248.0
 22
-358.237060546875
 32
55.0
 13
248.0
 23
-364.237060546875
 33
55.0
  0
3DFACE
  8
0
 10
249.50881958007812
 20
-364.237060546875
 30
0.0
 11
249.50881958007812
 21
-358.237060546875
 31
0.0
 12
256.0
 22
-358.237060546875
 32
0.0
 13
256.0
 23
-364.237060546875
 33
0.0
  0
3DFACE
  8
0
 10
256.0
 20
-364.237060546875
 30
13.333332061767578
 11
256.0
 21
-364.237060546875
 31
19.999996185302734
 12
249.03736877441406
 22
-364.237060546875
 32
19.999996185302734
 13
249.03736877441406
 23
-364.237060546875
 33
19.999996185302734
  0
3DFACE
  8
0
 10
249.03736877441406
 20
-364.237060546875
 30
19.999996185302734
 11
249.50881958007812
 21
-364.237060546875
 31
0.0
 12
256.0
 22
-364.237060546875
 32
0.0
 13
256.0
 23
-364.237060546875
 33
0.0
  0
3DFACE
  8
0
 10
256.0
 20
-364.237060546875
 30
6.666666030883789
 11
256.0
 21
-364.237060546875
 31
13.333332061767578
 12
249.03736877441406
 22
-364.237060546875
 32
19.999996185302734
 13
249.03736877441406
 23
-364.237060546875
 33
19.999996185302734
  0
3DFACE
  8
0
 10
249.03736877441406
 20
-364.237060546875
 30
19.999996185302734
 11
256.0
 21
-364.237060546875
 31
0.0
 12
256.0
 22
-364.237060546875
 32
6.666666030883789
 13
256.0
 23
-364.237060546875
 33
6.666666030883789
  0
3DFACE
  8
0
 10
314.6666564941406
 20
-358.237060546875
 30
19.999996185302734
 11
314.6666564941406
 21
-364.237060546875
 31
19.999996185302734
 12
344.0
 22
-364.237060546875
 32
19.999996185302734
 13
344.0
 23
-358.237060546875
 33
19.999996185302734
  0
3DFACE
  8
0
 10
249.03736877441406
 20
-364.237060546875
 30
19.999996185302734
 11
249.03736877441406
 21
-358.237060546875
 31
19.999996185302734
 12
249.50881958007812
 22
-358.237060546875
 32
0.0
 13
249.50881958007812
 23
-364.237060546875
 33
0.0
  0
3DFACE
  8
0
 10
350.47430419921875
 20
-358.237060546875
 30
0.0
 11
344.0
 21
-358.237060546875
 31
0.0
 12
344.0
 22
-358.237060546875
 32
6.666666030883789
 13
344.0
 23
-358.237060546875
 33
6.666666030883789
  0
3DFACE
  8
0
 10
344.0
 20
-358.237060546875
 30
13.333330154418945
 11
344.0
 21
-358.237060546875
 31
19.999996185302734
 12
350.962646484375
 22
-358.237060546875
 32
19.999996185302734
 13
350.962646484375
 23
-358.237060546875
 33
19.999996185302734
  0
3DFACE
  8
0
 10
350.47430419921875
 20
-358.237060546875
 30
0.0
 11
344.0
 21
-358.237060546875
 31
6.666666030883789
 12
344.0
 22
-358.237060546875
 32
13.333330154418945
 13
344.0
 23
-358.237060546875
 33
13.333330154418945
  0
3DFACE
  8
0
 10
344.0
 20
-358.237060546875
 30
13.333330154418945
 11
350.962646484375
 21
-358.237060546875
 31
19.999996185302734
 12
350.47430419921875
 22
-358.237060546875
 32
0.0
 13
350.47430419921875
 23
-358.237060546875
 33
0.0
  0
3DFACE
  8
0
 10
314.6666564941406
 20
-358.237060546875
 30
13.333330154418945
 11
314.6666564941406
 21
-358.237060546875
 31
19.999996185302734
 12
344.0
 22
-358.237060546875
 32
19.999996185302734
 13
344.0
 23
-358.237060546875
 33
13.333330154418945
  0
3DFACE
  8
0
 10
314.6666564941406
 20
-364.237060546875
 30
0.0
 11
314.6666564941406
 21
-358.237060546875
 31
0.0
 12
344.0
 22
-358.237060546875
 32
0.0
 13
344.0
 23
-364.237060546875
 33
0.0
  0
3DFACE
  8
0
 10
314.6666564941406
 20
-364.237060546875
 30
6.666666030883789
 11
314.6666564941406
 21
-364.237060546875
 31
0.0
 12
344.0
 22
-364.237060546875
 32
0.0
 13
344.0
 23
-364.237060546875
 33
6.666666030883789
  0
3DFACE
  8
0
 10
350.962646484375
 20
-358.237060546875
 30
19.999996185302734
 11
350.962646484375
 21
-364.237060546875
 31
19.999996185302734
 12
350.47430419921875
 22
-364.237060546875
 32
0.0
 13
350.47430419921875
 23
-358.237060546875
 33
0.0
  0
3DFACE
  8
0
 10
350.962646484375
 20
-364.237060546875
 30
19.999996185302734
 11
350.962646484375
 21
-358.237060546875
 31
19.999996185302734
 12
352.0
 22
-358.237060546875
 32
54.99999237060547
 13
352.0
 23
-364.237060546875
 33
54.99999237060547
  0
3DFACE
  8
0
 10
350.962646484375
 20
-364.237060546875
 30
19.999996185302734
 11
344.0
 21
-364.237060546875
 31
19.999996185302734
 12
344.0
 22
-364.237060546875
 32
13.333332061767578
 13
344.0
 23
-364.237060546875
 33
13.333332061767578
  0
3DFACE
  8
0
 10
344.0
 20
-364.237060546875
 30
6.666666030883789
 11
344.0
 21
-364.237060546875
 31
0.0
 12
350.47430419921875
 22
-364.237060546875
 32
0.0
 13
350.47430419921875
 23
-364.237060546875
 33
0.0
  0
3DFACE
  8
0
 10
350.962646484375
 20
-364.237060546875
 30
19.999996185302734
 11
344.0
 21
-364.237060546875
 31
13.333332061767578
 12
344.0
 22
-364.237060546875
 32
6.666666030883789
 13
344.0
 23
-364.237060546875
 33
6.666666030883789
  0
3DFACE
  8
0
 10
344.0
 20
-364.237060546875
 30
6.666666030883789
 11
350.47430419921875
 21
-364.237060546875
 31
0.0
 12
350.962646484375
 22
-364.237060546875
 32
19.999996185302734
 13
350.962646484375
 23
-364.237060546875
 33
19.999996185302734
  0
3DFACE
  8
0
 10
344.0
 20
-364.237060546875
 30
0.0
 11
344.0
 21
-358.237060546875
 31
0.0
 12
350.47430419921875
 22
-358.237060546875
 32
0.0
 13
350.47430419921875
 23
-364.237060546875
 33
0.0
  0
3DFACE
  8
0
 10
344.0
 20
-358.237060546875
 30
54.99999237060547
 11
344.0
 21
-364.237060546875
 31
54.99999237060547
 12
352.0
 22
-364.237060546875
 32
54.99999237060547
 13
352.0
 23
-358.237060546875
 33
54.99999237060547
  0
3DFACE
  8
0
 10
344.0
 20
-358.237060546875
 30
19.999996185302734
 11
344.0
 21
-364.237060546875
 31
19.999996185302734
 12
344.0
 22
-364.237060546875
 32
54.99999237060547
 13
344.0
 23
-358.237060546875
 33
54.99999237060547
  0
3DFACE
  8
0
 10
344.0
 20
-364.237060546875
 30
19.999996185302734
 11
350.962646484375
 21
-364.237060546875
 31
19.999996185302734
 12
352.0
 22
-364.237060546875
 32
54.99999237060547
 13
344.0
 23
-364.237060546875
 33
54.99999237060547
  0
3DFACE
  8
0
 10
350.962646484375
 20
-358.237060546875
 30
19.999996185302734
 11
344.0
 21
-358.237060546875
 31
19.999996185302734
 12
344.0
 22
-358.237060546875
 32
54.99999237060547
 13
352.0
 23
-358.237060546875
 33
54.99999237060547
  0
3DFACE
  8
0
 10
314.6666564941406
 20
-364.237060546875
 30
19.999996185302734
 11
314.6666564941406
 21
-364.237060546875
 31
13.333332061767578
 12
344.0
 22
-364.237060546875
 32
13.333332061767578
 13
344.0
 23
-364.237060546875
 33
19.999996185302734
  0
3DFACE
  8
0
 10
321.0089111328125
 20
-364.237060546875
 30
10.005435943603516
 11
314.6666564941406
 21
-364.237060546875
 31
13.333332061767578
 12
314.6666564941406
 22
-364.237060546875
 32
6.666666030883789
 13
314.6666564941406
 23
-364.237060546875
 33
6.666666030883789
  0
3DFACE
  8
0
 10
314.6666564941406
 20
-364.237060546875
 30
6.666666030883789
 11
344.0
 21
-364.237060546875
 31
6.666666030883789
 12
344.0
 22
-364.237060546875
 32
13.333332061767578
 13
344.0
 23
-364.237060546875
 33
13.333332061767578
  0
3DFACE
  8
0
 10
344.0
 20
-364.237060546875
 30
13.333332061767578
 11
324.0089111328125
 21
-364.237060546875
 31
10.005435943603516
 12
323.9800720214844
 22
-364.237060546875
 32
9.71280288696289
 13
323.9800720214844
 23
-364.237060546875
 33
9.71280288696289
  0
3DFACE
  8
0
 10
344.0
 20
-364.237060546875
 30
13.333332061767578
 11
323.9800720214844
 21
-364.237060546875
 31
9.71280288696289
 12
323.89471435546875
 22
-364.237060546875
 32
9.431407928466797
 13
323.89471435546875
 23
-364.237060546875
 33
9.431407928466797
  0
3DFACE
  8
0
 10
321.0377197265625
 20
-364.237060546875
 30
9.71279525756836
 11
321.0089111328125
 21
-364.237060546875
 31
10.005435943603516
 12
314.6666564941406
 22
-364.237060546875
 32
6.666666030883789
 13
314.6666564941406
 23
-364.237060546875
 33
6.666666030883789
  0
3DFACE
  8
0
 10
321.1230773925781
 20
-364.237060546875
 30
9.431407928466797
 11
321.0377197265625
 21
-364.237060546875
 31
9.71279525756836
 12
314.6666564941406
 22
-364.237060546875
 32
6.666666030883789
 13
314.6666564941406
 23
-364.237060546875
 33
6.666666030883789
  0
3DFACE
  8
0
 10
344.0
 20
-364.237060546875
 30
13.333332061767578
 11
323.89471435546875
 21
-364.237060546875
 31
9.431407928466797
 12
323.756103515625
 22
-364.237060546875
 32
9.172082901000977
 13
323.756103515625
 23
-364.237060546875
 33
9.172082901000977
  0
3DFACE
  8
0
 10
344.0
 20
-364.237060546875
 30
13.333332061767578
 11
323.756103515625
 21
-364.237060546875
 31
9.172082901000977
 12
323.5695495605469
 22
-364.237060546875
 32
8.94477653503418
 13
323.5695495605469
 23
-364.237060546875
 33
8.94477653503418
  0
3DFACE
  8
0
 10
321.2616882324219
 20
-364.237060546875
 30
9.172080993652344
 11
321.1230773925781
 21
-364.237060546875
 31
9.431407928466797
 12
314.6666564941406
 22
-364.237060546875
 32
6.666666030883789
 13
314.6666564941406
 23
-364.237060546875
 33
6.666666030883789
  0
3DFACE
  8
0
 10
321.4482421875
 20
-364.237060546875
 30
8.94477653503418
 11
321.2616882324219
 21
-364.237060546875
 31
9.172080993652344
 12
314.6666564941406
 22
-364.237060546875
 32
6.666666030883789
 13
314.6666564941406
 23
-364.237060546875
 33
6.666666030883789
  0
3DFACE
  8
0
 10
344.0
 20
-364.237060546875
 30
13.333332061767578
 11
323.5695495605469
 21
-364.237060546875
 31
8.94477653503418
 12
323.3422546386719
 22
-364.237060546875
 32
8.758230209350586
 13
323.3422546386719
 23
-364.237060546875
 33
8.758230209350586
  0
3DFACE
  8
0
 10
344.0
 20
-364.237060546875
 30
13.333332061767578
 11
323.3422546386719
 21
-364.237060546875
 31
8.758230209350586
 12
323.0829162597656
 22
-364.237060546875
 32
8.619617462158203
 13
323.0829162597656
 23
-364.237060546875
 33
8.619617462158203
  0
3DFACE
  8
0
 10
321.675537109375
 20
-364.237060546875
 30
8.758230209350586
 11
321.4482421875
 21
-364.237060546875
 31
8.94477653503418
 12
314.6666564941406
 22
-364.237060546875
 32
6.666666030883789
 13
314.6666564941406
 23
-364.237060546875
 33
6.666666030883789
  0
3DFACE
  8
0
 10
321.93487548828125
 20
-364.237060546875
 30
8.619617462158203
 11
321.675537109375
 21
-364.237060546875
 31
8.758230209350586
 12
314.6666564941406
 22
-364.237060546875
 32
6.666666030883789
 13
314.6666564941406
 23
-364.237060546875
 33
6.666666030883789
  0
3DFACE
  8
0
 10
344.0
 20
-364.237060546875
 30
13.333332061767578
 11
323.0829162597656
 21
-364.237060546875
 31
8.619617462158203
 12
322.8015441894531
 22
-364.237060546875
 32
8.534255981445312
 13
322.8015441894531
 23
-364.237060546875
 33
8.534255981445312
  0
3DFACE
  8
0
 10
314.6666564941406
 20
-364.237060546875
 30
6.666666030883789
 11
344.0
 21
-364.237060546875
 31
13.333332061767578
 12
322.8015441894531
 22
-364.237060546875
 32
8.534255981445312
 13
322.8015441894531
 23
-364.237060546875
 33
8.534255981445312
  0
3DFACE
  8
0
 10
322.21624755859375
 20
-364.237060546875
 30
8.534255981445312
 11
321.93487548828125
 21
-364.237060546875
 31
8.619617462158203
 12
314.6666564941406
 22
-364.237060546875
 32
6.666666030883789
 13
314.6666564941406
 23
-364.237060546875
 33
6.666666030883789
  0
3DFACE
  8
0
 10
314.6666564941406
 20
-364.237060546875
 30
6.666666030883789
 11
322.8015441894531
 21
-364.237060546875
 31
8.534255981445312
 12
322.5089111328125
 22
-364.237060546875
 32
8.50543212890625
 13
322.5089111328125
 23
-364.237060546875
 33
8.50543212890625
  0
3DFACE
  8
0
 10
314.6666564941406
 20
-364.237060546875
 30
6.666666030883789
 11
322.5089111328125
 21
-364.237060546875
 31
8.50543212890625
 12
322.21624755859375
 22
-364.237060546875
 32
8.534255981445312
 13
322.21624755859375
 23
-364.237060546875
 33
8.534255981445312
  0
3DFACE
  8
0
 10
256.0
 20
-364.237060546875
 30
19.999996185302734
 11
256.0
 21
-364.237060546875
 31
13.333332061767578
 12
285.3333435058594
 22
-364.237060546875
 32
13.333332061767578
 13
285.3333435058594
 23
-364.237060546875
 33
19.999996185302734
  0
3DFACE
  8
0
 10
285.3333435058594
 20
-364.237060546875
 30
19.999996185302734
 11
285.3333435058594
 21
-364.237060546875
 31
13.333332061767578
 12
314.6666564941406
 22
-364.237060546875
 32
13.333332061767578
 13
314.6666564941406
 23
-364.237060546875
 33
19.999996185302734
  0
3DFACE
  8
0
 10
256.0
 20
-364.237060546875
 30
13.333332061767578
 11
276.0089111328125
 21
-364.237060546875
 31
10.00543212890625
 12
276.0377197265625
 22
-364.237060546875
 32
10.298067092895508
 13
276.0377197265625
 23
-364.237060546875
 33
10.298067092895508
  0
3DFACE
  8
0
 10
256.0
 20
-364.237060546875
 30
13.333332061767578
 11
276.0377197265625
 21
-364.237060546875
 31
10.298067092895508
 12
276.1230773925781
 22
-364.237060546875
 32
10.579458236694336
 13
276.1230773925781
 23
-364.237060546875
 33
10.579458236694336
  0
3DFACE
  8
0
 10
278.9800720214844
 20
-364.237060546875
 30
10.298065185546875
 11
279.0089111328125
 21
-364.237060546875
 31
10.00543212890625
 12
285.3333435058594
 22
-364.237060546875
 32
13.333332061767578
 13
285.3333435058594
 23
-364.237060546875
 33
13.333332061767578
  0
3DFACE
  8
0
 10
278.89471435546875
 20
-364.237060546875
 30
10.579458236694336
 11
278.9800720214844
 21
-364.237060546875
 31
10.298065185546875
 12
285.3333435058594
 22
-364.237060546875
 32
13.333332061767578
 13
285.3333435058594
 23
-364.237060546875
 33
13.333332061767578
  0
3DFACE
  8
0
 10
256.0
 20
-364.237060546875
 30
13.333332061767578
 11
276.1230773925781
 21
-364.237060546875
 31
10.579458236694336
 12
276.2616882324219
 22
-364.237060546875
 32
10.838785171508789
 13
276.2616882324219
 23
-364.237060546875
 33
10.838785171508789
  0
3DFACE
  8
0
 10
256.0
 20
-364.237060546875
 30
13.333332061767578
 11
276.2616882324219
 21
-364.237060546875
 31
10.838785171508789
 12
276.4482421875
 22
-364.237060546875
 32
11.066093444824219
 13
276.4482421875
 23
-364.237060546875
 33
11.066093444824219
  0
3DFACE
  8
0
 10
278.756103515625
 20
-364.237060546875
 30
10.838787078857422
 11
278.89471435546875
 21
-364.237060546875
 31
10.579458236694336
 12
285.3333435058594
 22
-364.237060546875
 32
13.333332061767578
 13
285.3333435058594
 23
-364.237060546875
 33
13.333332061767578
  0
3DFACE
  8
0
 10
278.5695495605469
 20
-364.237060546875
 30
11.066091537475586
 11
278.756103515625
 21
-364.237060546875
 31
10.838787078857422
 12
285.3333435058594
 22
-364.237060546875
 32
13.333332061767578
 13
285.3333435058594
 23
-364.237060546875
 33
13.333332061767578
  0
3DFACE
  8
0
 10
256.0
 20
-364.237060546875
 30
13.333332061767578
 11
276.4482421875
 21
-364.237060546875
 31
11.066093444824219
 12
276.675537109375
 22
-364.237060546875
 32
11.252634048461914
 13
276.675537109375
 23
-364.237060546875
 33
11.252634048461914
  0
3DFACE
  8
0
 10
256.0
 20
-364.237060546875
 30
13.333332061767578
 11
276.675537109375
 21
-364.237060546875
 31
11.252634048461914
 12
276.93487548828125
 22
-364.237060546875
 32
11.391246795654297
 13
276.93487548828125
 23
-364.237060546875
 33
11.391246795654297
  0
3DFACE
  8
0
 10
278.3422546386719
 20
-364.237060546875
 30
11.252634048461914
 11
278.5695495605469
 21
-364.237060546875
 31
11.066091537475586
 12
285.3333435058594
 22
-364.237060546875
 32
13.333332061767578
 13
285.3333435058594
 23
-364.237060546875
 33
13.333332061767578
  0
3DFACE
  8
0
 10
278.0829162597656
 20
-364.237060546875
 30
11.391246795654297
 11
278.3422546386719
 21
-364.237060546875
 31
11.252634048461914
 12
285.3333435058594
 22
-364.237060546875
 32
13.333332061767578
 13
285.3333435058594
 23
-364.237060546875
 33
13.333332061767578
  0
3DFACE
  8
0
 10
256.0
 20
-364.237060546875
 30
13.333332061767578
 11
276.93487548828125
 21
-364.237060546875
 31
11.391246795654297
 12
277.21624755859375
 22
-364.237060546875
 32
11.476608276367188
 13
277.21624755859375
 23
-364.237060546875
 33
11.476608276367188
  0
3DFACE
  8
0
 10
256.0
 20
-364.237060546875
 30
13.333332061767578
 11
277.21624755859375
 21
-364.237060546875
 31
11.476608276367188
 12
277.5089111328125
 22
-364.237060546875
 32
11.505431175231934
 13
277.5089111328125
 23
-364.237060546875
 33
11.505431175231934
  0
3DFACE
  8
0
 10
277.8015441894531
 20
-364.237060546875
 30
11.476608276367188
 11
278.0829162597656
 21
-364.237060546875
 31
11.391246795654297
 12
285.3333435058594
 22
-364.237060546875
 32
13.333332061767578
 13
285.3333435058594
 23
-364.237060546875
 33
13.333332061767578
  0
3DFACE
  8
0
 10
285.3333435058594
 20
-364.237060546875
 30
13.333332061767578
 11
256.0
 21
-364.237060546875
 31
13.333332061767578
 12
277.5089111328125
 22
-364.237060546875
 32
11.505431175231934
 13
277.5089111328125
 23
-364.237060546875
 33
11.505431175231934
  0
3DFACE
  8
0
 10
277.5089111328125
 20
-364.237060546875
 30
11.505431175231934
 11
277.8015441894531
 21
-364.237060546875
 31
11.476608276367188
 12
285.3333435058594
 22
-364.237060546875
 32
13.333332061767578
 13
285.3333435058594
 23
-364.237060546875
 33
13.333332061767578
  0
3DFACE
  8
0
 10
285.3333435058594
 20
-364.237060546875
 30
13.333332061767578
 11
285.3333435058594
 21
-364.237060546875
 31
6.666666030883789
 12
314.6666564941406
 22
-364.237060546875
 32
6.666666030883789
 13
314.6666564941406
 23
-364.237060546875
 33
13.333332061767578
  0
3DFACE
  8
0
 10
256.0
 20
-364.237060546875
 30
6.666666030883789
 11
256.0
 21
-364.237060546875
 31
0.0
 12
285.3333435058594
 22
-364.237060546875
 32
0.0
 13
285.3333435058594
 23
-364.237060546875
 33
6.666666030883789
  0
3DFACE
  8
0
 10
285.3333435058594
 20
-364.237060546875
 30
6.666666030883789
 11
285.3333435058594
 21
-364.237060546875
 31
0.0
 12
314.6666564941406
 22
-364.237060546875
 32
0.0
 13
314.6666564941406
 23
-364.237060546875
 33
6.666666030883789
  0
3DFACE
  8
0
 10
256.0
 20
-364.237060546875
 30
0.0
 11
256.0
 21
-358.237060546875
 31
0.0
 12
285.3333435058594
 22
-358.237060546875
 32
0.0
 13
285.3333435058594
 23
-364.237060546875
 33
0.0
  0
3DFACE
  8
0
 10
285.3333435058594
 20
-364.237060546875
 30
0.0
 11
285.3333435058594
 21
-358.237060546875
 31
0.0
 12
314.6666564941406
 22
-358.237060546875
 32
0.0
 13
314.6666564941406
 23
-364.237060546875
 33
0.0
  0
3DFACE
  8
0
 10
314.6666564941406
 20
-358.237060546875
 30
0.0
 11
314.6666564941406
 21
-358.237060546875
 31
6.666666030883789
 12
344.0
 22
-358.237060546875
 32
6.666666030883789
 13
344.0
 23
-358.237060546875
 33
0.0
  0
3DFACE
  8
0
 10
314.6666564941406
 20
-358.237060546875
 30
6.666666030883789
 11
314.6666564941406
 21
-358.237060546875
 31
13.333330154418945
 12
321.0089111328125
 22
-358.237060546875
 32
10.005435943603516
 13
321.0089111328125
 23
-358.237060546875
 33
10.005435943603516
  0
3DFACE
  8
0
 10
314.6666564941406
 20
-358.237060546875
 30
6.666666030883789
 11
321.0089111328125
 21
-358.237060546875
 31
10.005435943603516
 12
321.0377197265625
 22
-358.237060546875
 32
9.712797164916992
 13
321.0377197265625
 23
-358.237060546875
 33
9.712797164916992
  0
3DFACE
  8
0
 10
344.0
 20
-358.237060546875
 30
13.333330154418945
 11
344.0
 21
-358.237060546875
 31
6.666666030883789
 12
314.6666564941406
 22
-358.237060546875
 32
6.666666030883789
 13
314.6666564941406
 23
-358.237060546875
 33
6.666666030883789
  0
3DFACE
  8
0
 10
323.9800720214844
 20
-358.237060546875
 30
9.71280288696289
 11
324.0089111328125
 21
-358.237060546875
 31
10.005435943603516
 12
344.0
 22
-358.237060546875
 32
13.333330154418945
 13
344.0
 23
-358.237060546875
 33
13.333330154418945
  0
3DFACE
  8
0
 10
323.89471435546875
 20
-358.237060546875
 30
9.431406021118164
 11
323.9800720214844
 21
-358.237060546875
 31
9.71280288696289
 12
344.0
 22
-358.237060546875
 32
13.333330154418945
 13
344.0
 23
-358.237060546875
 33
13.333330154418945
  0
3DFACE
  8
0
 10
314.6666564941406
 20
-358.237060546875
 30
6.666666030883789
 11
321.0377197265625
 21
-358.237060546875
 31
9.712797164916992
 12
321.1230773925781
 22
-358.237060546875
 32
9.431406021118164
 13
321.1230773925781
 23
-358.237060546875
 33
9.431406021118164
  0
3DFACE
  8
0
 10
314.6666564941406
 20
-358.237060546875
 30
6.666666030883789
 11
321.1230773925781
 21
-358.237060546875
 31
9.431406021118164
 12
321.2616882324219
 22
-358.237060546875
 32
9.172080993652344
 13
321.2616882324219
 23
-358.237060546875
 33
9.172080993652344
  0
3DFACE
  8
0
 10
323.756103515625
 20
-358.237060546875
 30
9.172082901000977
 11
323.89471435546875
 21
-358.237060546875
 31
9.431406021118164
 12
344.0
 22
-358.237060546875
 32
13.333330154418945
 13
344.0
 23
-358.237060546875
 33
13.333330154418945
  0
3DFACE
  8
0
 10
323.5695495605469
 20
-358.237060546875
 30
8.94477653503418
 11
323.756103515625
 21
-358.237060546875
 31
9.172082901000977
 12
344.0
 22
-358.237060546875
 32
13.333330154418945
 13
344.0
 23
-358.237060546875
 33
13.333330154418945
  0
3DFACE
  8
0
 10
314.6666564941406
 20
-358.237060546875
 30
6.666666030883789
 11
321.2616882324219
 21
-358.237060546875
 31
9.172080993652344
 12
321.4482421875
 22
-358.237060546875
 32
8.94477653503418
 13
321.4482421875
 23
-358.237060546875
 33
8.94477653503418
  0
3DFACE
  8
0
 10
314.6666564941406
 20
-358.237060546875
 30
6.666666030883789
 11
321.4482421875
 21
-358.237060546875
 31
8.94477653503418
 12
321.675537109375
 22
-358.237060546875
 32
8.758232116699219
 13
321.675537109375
 23
-358.237060546875
 33
8.758232116699219
  0
3DFACE
  8
0
 10
323.3422546386719
 20
-358.237060546875
 30
8.758230209350586
 11
323.5695495605469
 21
-358.237060546875
 31
8.94477653503418
 12
344.0
 22
-358.237060546875
 32
13.333330154418945
 13
344.0
 23
-358.237060546875
 33
13.333330154418945
  0
3DFACE
  8
0
 10
323.0829162597656
 20
-358.237060546875
 30
8.619619369506836
 11
323.3422546386719
 21
-358.237060546875
 31
8.758230209350586
 12
344.0
 22
-358.237060546875
 32
13.333330154418945
 13
344.0
 23
-358.237060546875
 33
13.333330154418945
  0
3DFACE
  8
0
 10
314.6666564941406
 20
-358.237060546875
 30
6.666666030883789
 11
321.675537109375
 21
-358.237060546875
 31
8.758232116699219
 12
321.93487548828125
 22
-358.237060546875
 32
8.619619369506836
 13
321.93487548828125
 23
-358.237060546875
 33
8.619619369506836
  0
3DFACE
  8
0
 10
314.6666564941406
 20
-358.237060546875
 30
6.666666030883789
 11
321.93487548828125
 21
-358.237060546875
 31
8.619619369506836
 12
322.21624755859375
 22
-358.237060546875
 32
8.534257888793945
 13
322.21624755859375
 23
-358.237060546875
 33
8.534257888793945
  0
3DFACE
  8
0
 10
322.8015441894531
 20
-358.237060546875
 30
8.534255981445312
 11
323.0829162597656
 21
-358.237060546875
 31
8.619619369506836
 12
344.0
 22
-358.237060546875
 32
13.333330154418945
 13
344.0
 23
-358.237060546875
 33
13.333330154418945
  0
3DFACE
  8
0
 10
314.6666564941406
 20
-358.237060546875
 30
6.666666030883789
 11
322.21624755859375
 21
-358.237060546875
 31
8.534257888793945
 12
322.5089111328125
 22
-358.237060546875
 32
8.505434036254883
 13
322.5089111328125
 23
-358.237060546875
 33
8.505434036254883
  0
3DFACE
  8
0
 10
322.8015441894531
 20
-358.237060546875
 30
8.534255981445312
 11
344.0
 21
-358.237060546875
 31
13.333330154418945
 12
314.6666564941406
 22
-358.237060546875
 32
6.666666030883789
 13
314.6666564941406
 23
-358.237060546875
 33
6.666666030883789
  0
3DFACE
  8
0
 10
314.6666564941406
 20
-358.237060546875
 30
6.666666030883789
 11
322.5089111328125
 21
-358.237060546875
 31
8.505434036254883
 12
322.8015441894531
 22
-358.237060546875
 32
8.534255981445312
 13
322.8015441894531
 23
-358.237060546875
 33
8.534255981445312
  0
3DFACE
  8
0
 10
256.0
 20
-358.237060546875
 30
0.0
 11
256.0
 21
-358.237060546875
 31
6.666666030883789
 12
285.3333435058594
 22
-358.237060546875
 32
6.666666030883789
 13
285.3333435058594
 23
-358.237060546875
 33
0.0
  0
3DFACE
  8
0
 10
285.3333435058594
 20
-358.237060546875
 30
0.0
 11
285.3333435058594
 21
-358.237060546875
 31
6.666666030883789
 12
314.6666564941406
 22
-358.237060546875
 32
6.666666030883789
 13
314.6666564941406
 23
-358.237060546875
 33
0.0
  0
3DFACE
  8
0
 10
285.3333435058594
 20
-358.237060546875
 30
6.666666030883789
 11
256.0
 21
-358.237060546875
 31
6.666666030883789
 12
256.0
 22
-358.237060546875
 32
13.333330154418945
 13
256.0
 23
-358.237060546875
 33
13.333330154418945
  0
3DFACE
  8
0
 10
256.0
 20
-358.237060546875
 30
13.333330154418945
 11
276.0089111328125
 21
-358.237060546875
 31
10.00543212890625
 12
276.0377197265625
 22
-358.237060546875
 32
9.712791442871094
 13
276.0377197265625
 23
-358.237060546875
 33
9.712791442871094
  0
3DFACE
  8
0
 10
256.0
 20
-358.237060546875
 30
13.333330154418945
 11
276.0377197265625
 21
-358.237060546875
 31
9.712791442871094
 12
276.1230773925781
 22
-358.237060546875
 32
9.431404113769531
 13
276.1230773925781
 23
-358.237060546875
 33
9.431404113769531
  0
3DFACE
  8
0
 10
279.0089111328125
 20
-358.237060546875
 30
10.005434036254883
 11
285.3333435058594
 21
-358.237060546875
 31
13.333330154418945
 12
285.3333435058594
 22
-358.237060546875
 32
6.666666030883789
 13
285.3333435058594
 23
-358.237060546875
 33
6.666666030883789
  0
3DFACE
  8
0
 10
278.9800720214844
 20
-358.237060546875
 30
9.712799072265625
 11
279.0089111328125
 21
-358.237060546875
 31
10.005434036254883
 12
285.3333435058594
 22
-358.237060546875
 32
6.666666030883789
 13
285.3333435058594
 23
-358.237060546875
 33
6.666666030883789
  0
3DFACE
  8
0
 10
256.0
 20
-358.237060546875
 30
13.333330154418945
 11
276.1230773925781
 21
-358.237060546875
 31
9.431404113769531
 12
276.2616882324219
 22
-358.237060546875
 32
9.172079086303711
 13
276.2616882324219
 23
-358.237060546875
 33
9.172079086303711
  0
3DFACE
  8
0
 10
256.0
 20
-358.237060546875
 30
13.333330154418945
 11
276.2616882324219
 21
-358.237060546875
 31
9.172079086303711
 12
276.4482421875
 22
-358.237060546875
 32
8.944772720336914
 13
276.4482421875
 23
-358.237060546875
 33
8.944772720336914
  0
3DFACE
  8
0
 10
278.89471435546875
 20
-358.237060546875
 30
9.431404113769531
 11
278.9800720214844
 21
-358.237060546875
 31
9.712799072265625
 12
285.3333435058594
 22
-358.237060546875
 32
6.666666030883789
 13
285.3333435058594
 23
-358.237060546875
 33
6.666666030883789
  0
3DFACE
  8
0
 10
278.756103515625
 20
-358.237060546875
 30
9.172080993652344
 11
278.89471435546875
 21
-358.237060546875
 31
9.431404113769531
 12
285.3333435058594
 22
-358.237060546875
 32
6.666666030883789
 13
285.3333435058594
 23
-358.237060546875
 33
6.666666030883789
  0
3DFACE
  8
0
 10
256.0
 20
-358.237060546875
 30
13.333330154418945
 11
276.4482421875
 21
-358.237060546875
 31
8.944772720336914
 12
276.675537109375
 22
-358.237060546875
 32
8.75822639465332
 13
276.675537109375
 23
-358.237060546875
 33
8.75822639465332
  0
3DFACE
  8
0
 10
256.0
 20
-358.237060546875
 30
13.333330154418945
 11
276.675537109375
 21
-358.237060546875
 31
8.75822639465332
 12
276.93487548828125
 22
-358.237060546875
 32
8.61961555480957
 13
276.93487548828125
 23
-358.237060546875
 33
8.61961555480957
  0
3DFACE
  8
0
 10
278.5695495605469
 20
-358.237060546875
 30
8.944772720336914
 11
278.756103515625
 21
-358.237060546875
 31
9.172080993652344
 12
285.3333435058594
 22
-358.237060546875
 32
6.666666030883789
 13
285.3333435058594
 23
-358.237060546875
 33
6.666666030883789
  0
3DFACE
  8
0
 10
278.3422546386719
 20
-358.237060546875
 30
8.75822639465332
 11
278.5695495605469
 21
-358.237060546875
 31
8.944772720336914
 12
285.3333435058594
 22
-358.237060546875
 32
6.666666030883789
 13
285.3333435058594
 23
-358.237060546875
 33
6.666666030883789
  0
3DFACE
  8
0
 10
256.0
 20
-358.237060546875
 30
13.333330154418945
 11
276.93487548828125
 21
-358.237060546875
 31
8.61961555480957
 12
277.21624755859375
 22
-358.237060546875
 32
8.534252166748047
 13
277.21624755859375
 23
-358.237060546875
 33
8.534252166748047
  0
3DFACE
  8
0
 10
285.3333435058594
 20
-358.237060546875
 30
6.666666030883789
 11
256.0
 21
-358.237060546875
 31
13.333330154418945
 12
277.21624755859375
 22
-358.237060546875
 32
8.534252166748047
 13
277.21624755859375
 23
-358.237060546875
 33
8.534252166748047
  0
3DFACE
  8
0
 10
278.0829162597656
 20
-358.237060546875
 30
8.61961555480957
 11
278.3422546386719
 21
-358.237060546875
 31
8.75822639465332
 12
285.3333435058594
 22
-358.237060546875
 32
6.666666030883789
 13
285.3333435058594
 23
-358.237060546875
 33
6.666666030883789
  0
3DFACE
  8
0
 10
277.8015441894531
 20
-358.237060546875
 30
8.534252166748047
 11
278.0829162597656
 21
-358.237060546875
 31
8.61961555480957
 12
285.3333435058594
 22
-358.237060546875
 32
6.666666030883789
 13
285.3333435058594
 23
-358.237060546875
 33
6.666666030883789
  0
3DFACE
  8
0
 10
285.3333435058594
 20
-358.237060546875
 30
6.666666030883789
 11
277.21624755859375
 21
-358.237060546875
 31
8.534252166748047
 12
277.5089111328125
 22
-358.237060546875
 32
8.505426406860352
 13
277.5089111328125
 23
-358.237060546875
 33
8.505426406860352
  0
3DFACE
  8
0
 10
277.5089111328125
 20
-358.237060546875
 30
8.505426406860352
 11
277.8015441894531
 21
-358.237060546875
 31
8.534252166748047
 12
285.3333435058594
 22
-358.237060546875
 32
6.666666030883789
 13
285.3333435058594
 23
-358.237060546875
 33
6.666666030883789
  0
3DFACE
  8
0
 10
285.3333435058594
 20
-358.237060546875
 30
6.666666030883789
 11
285.3333435058594
 21
-358.237060546875
 31
13.333330154418945
 12
314.6666564941406
 22
-358.237060546875
 32
13.333330154418945
 13
314.6666564941406
 23
-358.237060546875
 33
6.666666030883789
  0
3DFACE
  8
0
 10
256.0
 20
-358.237060546875
 30
13.333330154418945
 11
256.0
 21
-358.237060546875
 31
19.999996185302734
 12
285.3333435058594
 22
-358.237060546875
 32
19.999996185302734
 13
285.3333435058594
 23
-358.237060546875
 33
13.333330154418945
  0
3DFACE
  8
0
 10
285.3333435058594
 20
-358.237060546875
 30
13.333330154418945
 11
285.3333435058594
 21
-358.237060546875
 31
19.999996185302734
 12
314.6666564941406
 22
-358.237060546875
 32
19.999996185302734
 13
314.6666564941406
 23
-358.237060546875
 33
13.333330154418945
  0
3DFACE
  8
0
 10
256.0
 20
-358.237060546875
 30
19.999996185302734
 11
256.0
 21
-364.237060546875
 31
19.999996185302734
 12
285.3333435058594
 22
-364.237060546875
 32
19.999996185302734
 13
285.3333435058594
 23
-358.237060546875
 33
19.999996185302734
  0
3DFACE
  8
0
 10
285.3333435058594
 20
-358.237060546875
 30
19.999996185302734
 11
285.3333435058594
 21
-364.237060546875
 31
19.999996185302734
 12
314.6666564941406
 22
-364.237060546875
 32
19.999996185302734
 13
314.6666564941406
 23
-358.237060546875
 33
19.999996185302734
  0
3DFACE
  8
0
 10
276.4482421875
 20
-358.237060546875
 30
11.066093444824219
 11
276.4482421875
 21
-364.237060546875
 31
11.066093444824219
 12
276.2616882324219
 22
-364.237060546875
 32
10.838785171508789
 13
276.2616882324219
 23
-358.237060546875
 33
10.838787078857422
  0
3DFACE
  8
0
 10
285.3333435058594
 20
-358.237060546875
 30
13.333330154418945
 11
279.0089111328125
 21
-358.237060546875
 31
10.005434036254883
 12
278.9800720214844
 22
-358.237060546875
 32
10.298065185546875
 13
278.9800720214844
 23
-358.237060546875
 33
10.298065185546875
  0
3DFACE
  8
0
 10
285.3333435058594
 20
-358.237060546875
 30
13.333330154418945
 11
278.9800720214844
 21
-358.237060546875
 31
10.298065185546875
 12
278.89471435546875
 22
-358.237060546875
 32
10.579460144042969
 13
278.89471435546875
 23
-358.237060546875
 33
10.579460144042969
  0
3DFACE
  8
0
 10
276.0377197265625
 20
-358.237060546875
 30
10.298065185546875
 11
276.0089111328125
 21
-358.237060546875
 31
10.00543212890625
 12
256.0
 22
-358.237060546875
 32
13.333330154418945
 13
256.0
 23
-358.237060546875
 33
13.333330154418945
  0
3DFACE
  8
0
 10
276.1230773925781
 20
-358.237060546875
 30
10.579458236694336
 11
276.0377197265625
 21
-358.237060546875
 31
10.298065185546875
 12
256.0
 22
-358.237060546875
 32
13.333330154418945
 13
256.0
 23
-358.237060546875
 33
13.333330154418945
  0
3DFACE
  8
0
 10
285.3333435058594
 20
-358.237060546875
 30
13.333330154418945
 11
278.89471435546875
 21
-358.237060546875
 31
10.579460144042969
 12
278.756103515625
 22
-358.237060546875
 32
10.838787078857422
 13
278.756103515625
 23
-358.237060546875
 33
10.838787078857422
  0
3DFACE
  8
0
 10
285.3333435058594
 20
-358.237060546875
 30
13.333330154418945
 11
278.756103515625
 21
-358.237060546875
 31
10.838787078857422
 12
278.5695495605469
 22
-358.237060546875
 32
11.066091537475586
 13
278.5695495605469
 23
-358.237060546875
 33
11.066091537475586
  0
3DFACE
  8
0
 10
276.2616882324219
 20
-358.237060546875
 30
10.838787078857422
 11
276.1230773925781
 21
-358.237060546875
 31
10.579458236694336
 12
256.0
 22
-358.237060546875
 32
13.333330154418945
 13
256.0
 23
-358.237060546875
 33
13.333330154418945
  0
3DFACE
  8
0
 10
276.4482421875
 20
-358.237060546875
 30
11.066093444824219
 11
276.2616882324219
 21
-358.237060546875
 31
10.838787078857422
 12
256.0
 22
-358.237060546875
 32
13.333330154418945
 13
256.0
 23
-358.237060546875
 33
13.333330154418945
  0
3DFACE
  8
0
 10
285.3333435058594
 20
-358.237060546875
 30
13.333330154418945
 11
278.5695495605469
 21
-358.237060546875
 31
11.066091537475586
 12
278.3422546386719
 22
-358.237060546875
 32
11.252635955810547
 13
278.3422546386719
 23
-358.237060546875
 33
11.252635955810547
  0
3DFACE
  8
0
 10
285.3333435058594
 20
-358.237060546875
 30
13.333330154418945
 11
278.3422546386719
 21
-358.237060546875
 31
11.252635955810547
 12
278.0829162597656
 22
-358.237060546875
 32
11.391246795654297
 13
278.0829162597656
 23
-358.237060546875
 33
11.391246795654297
  0
3DFACE
  8
0
 10
276.675537109375
 20
-358.237060546875
 30
11.252634048461914
 11
276.4482421875
 21
-358.237060546875
 31
11.066093444824219
 12
256.0
 22
-358.237060546875
 32
13.333330154418945
 13
256.0
 23
-358.237060546875
 33
13.333330154418945
  0
3DFACE
  8
0
 10
276.93487548828125
 20
-358.237060546875
 30
11.391246795654297
 11
276.675537109375
 21
-358.237060546875
 31
11.252634048461914
 12
256.0
 22
-358.237060546875
 32
13.333330154418945
 13
256.0
 23
-358.237060546875
 33
13.333330154418945
  0
3DFACE
  8
0
 10
285.3333435058594
 20
-358.237060546875
 30
13.333330154418945
 11
278.0829162597656
 21
-358.237060546875
 31
11.391246795654297
 12
277.8015441894531
 22
-358.237060546875
 32
11.47661018371582
 13
277.8015441894531
 23
-358.237060546875
 33
11.47661018371582
  0
3DFACE
  8
0
 10
285.3333435058594
 20
-358.237060546875
 30
13.333330154418945
 11
277.8015441894531
 21
-358.237060546875
 31
11.47661018371582
 12
277.5089111328125
 22
-358.237060546875
 32
11.505431175231934
 13
277.5089111328125
 23
-358.237060546875
 33
11.505431175231934
  0
3DFACE
  8
0
 10
277.21624755859375
 20
-358.237060546875
 30
11.47661018371582
 11
276.93487548828125
 21
-358.237060546875
 31
11.391246795654297
 12
256.0
 22
-358.237060546875
 32
13.333330154418945
 13
256.0
 23
-358.237060546875
 33
13.333330154418945
  0
3DFACE
  8
0
 10
285.3333435058594
 20
-358.237060546875
 30
13.333330154418945
 11
277.5089111328125
 21
-358.237060546875
 31
11.505431175231934
 12
277.21624755859375
 22
-358.237060546875
 32
11.47661018371582
 13
277.21624755859375
 23
-358.237060546875
 33
11.47661018371582
  0
3DFACE
  8
0
 10
285.3333435058594
 20
-358.237060546875
 30
13.333330154418945
 11
277.21624755859375
 21
-358.237060546875
 31
11.47661018371582
 12
256.0
 22
-358.237060546875
 32
13.333330154418945
 13
256.0
 23
-358.237060546875
 33
13.333330154418945
  0
3DFACE
  8
0
 10
276.675537109375
 20
-358.237060546875
 30
11.252634048461914
 11
276.675537109375
 21
-364.237060546875
 31
11.252634048461914
 12
276.4482421875
 22
-364.237060546875
 32
11.066093444824219
 13
276.4482421875
 23
-358.237060546875
 33
11.066093444824219
  0
3DFACE
  8
0
 10
285.3333435058594
 20
-364.237060546875
 30
6.666666030883789
 11
285.3333435058594
 21
-364.237060546875
 31
13.333332061767578
 12
279.0089111328125
 22
-364.237060546875
 32
10.00543212890625
 13
279.0089111328125
 23
-364.237060546875
 33
10.00543212890625
  0
3DFACE
  8
0
 10
285.3333435058594
 20
-364.237060546875
 30
6.666666030883789
 11
279.0089111328125
 21
-364.237060546875
 31
10.00543212890625
 12
278.9800720214844
 22
-364.237060546875
 32
9.712799072265625
 13
278.9800720214844
 23
-364.237060546875
 33
9.712799072265625
  0
3DFACE
  8
0
 10
256.0
 20
-364.237060546875
 30
13.333332061767578
 11
256.0
 21
-364.237060546875
 31
6.666666030883789
 12
285.3333435058594
 22
-364.237060546875
 32
6.666666030883789
 13
285.3333435058594
 23
-364.237060546875
 33
6.666666030883789
  0
3DFACE
  8
0
 10
276.0377197265625
 20
-364.237060546875
 30
9.712791442871094
 11
276.0089111328125
 21
-364.237060546875
 31
10.00543212890625
 12
256.0
 22
-364.237060546875
 32
13.333332061767578
 13
256.0
 23
-364.237060546875
 33
13.333332061767578
  0
3DFACE
  8
0
 10
276.1230773925781
 20
-364.237060546875
 30
9.431404113769531
 11
276.0377197265625
 21
-364.237060546875
 31
9.712791442871094
 12
256.0
 22
-364.237060546875
 32
13.333332061767578
 13
256.0
 23
-364.237060546875
 33
13.333332061767578
  0
3DFACE
  8
0
 10
285.3333435058594
 20
-364.237060546875
 30
6.666666030883789
 11
278.9800720214844
 21
-364.237060546875
 31
9.712799072265625
 12
278.89471435546875
 22
-364.237060546875
 32
9.431404113769531
 13
278.89471435546875
 23
-364.237060546875
 33
9.431404113769531
  0
3DFACE
  8
0
 10
285.3333435058594
 20
-364.237060546875
 30
6.666666030883789
 11
278.89471435546875
 21
-364.237060546875
 31
9.431404113769531
 12
278.756103515625
 22
-364.237060546875
 32
9.172079086303711
 13
278.756103515625
 23
-364.237060546875
 33
9.172079086303711
  0
3DFACE
  8
0
 10
276.2616882324219
 20
-364.237060546875
 30
9.172079086303711
 11
276.1230773925781
 21
-364.237060546875
 31
9.431404113769531
 12
256.0
 22
-364.237060546875
 32
13.333332061767578
 13
256.0
 23
-364.237060546875
 33
13.333332061767578
  0
3DFACE
  8
0
 10
276.4482421875
 20
-364.237060546875
 30
8.944772720336914
 11
276.2616882324219
 21
-364.237060546875
 31
9.172079086303711
 12
256.0
 22
-364.237060546875
 32
13.333332061767578
 13
256.0
 23
-364.237060546875
 33
13.333332061767578
  0
3DFACE
  8
0
 10
285.3333435058594
 20
-364.237060546875
 30
6.666666030883789
 11
278.756103515625
 21
-364.237060546875
 31
9.172079086303711
 12
278.5695495605469
 22
-364.237060546875
 32
8.944770812988281
 13
278.5695495605469
 23
-364.237060546875
 33
8.944770812988281
  0
3DFACE
  8
0
 10
285.3333435058594
 20
-364.237060546875
 30
6.666666030883789
 11
278.5695495605469
 21
-364.237060546875
 31
8.944770812988281
 12
278.3422546386719
 22
-364.237060546875
 32
8.758228302001953
 13
278.3422546386719
 23
-364.237060546875
 33
8.758228302001953
  0
3DFACE
  8
0
 10
276.675537109375
 20
-364.237060546875
 30
8.758228302001953
 11
276.4482421875
 21
-364.237060546875
 31
8.944772720336914
 12
256.0
 22
-364.237060546875
 32
13.333332061767578
 13
256.0
 23
-364.237060546875
 33
13.333332061767578
  0
3DFACE
  8
0
 10
276.93487548828125
 20
-364.237060546875
 30
8.619613647460938
 11
276.675537109375
 21
-364.237060546875
 31
8.758228302001953
 12
256.0
 22
-364.237060546875
 32
13.333332061767578
 13
256.0
 23
-364.237060546875
 33
13.333332061767578
  0
3DFACE
  8
0
 10
285.3333435058594
 20
-364.237060546875
 30
6.666666030883789
 11
278.3422546386719
 21
-364.237060546875
 31
8.758228302001953
 12
278.0829162597656
 22
-364.237060546875
 32
8.619613647460938
 13
278.0829162597656
 23
-364.237060546875
 33
8.619613647460938
  0
3DFACE
  8
0
 10
285.3333435058594
 20
-364.237060546875
 30
6.666666030883789
 11
278.0829162597656
 21
-364.237060546875
 31
8.619613647460938
 12
277.8015441894531
 22
-364.237060546875
 32
8.534252166748047
 13
277.8015441894531
 23
-364.237060546875
 33
8.534252166748047
  0
3DFACE
  8
0
 10
277.21624755859375
 20
-364.237060546875
 30
8.534252166748047
 11
276.93487548828125
 21
-364.237060546875
 31
8.619613647460938
 12
256.0
 22
-364.237060546875
 32
13.333332061767578
 13
256.0
 23
-364.237060546875
 33
13.333332061767578
  0
3DFACE
  8
0
 10
285.3333435058594
 20
-364.237060546875
 30
6.666666030883789
 11
277.8015441894531
 21
-364.237060546875
 31
8.534252166748047
 12
277.5089111328125
 22
-364.237060546875
 32
8.505428314208984
 13
277.5089111328125
 23
-364.237060546875
 33
8.505428314208984
  0
3DFACE
  8
0
 10
277.21624755859375
 20
-364.237060546875
 30
8.534252166748047
 11
256.0
 21
-364.237060546875
 31
13.333332061767578
 12
285.3333435058594
 22
-364.237060546875
 32
6.666666030883789
 13
285.3333435058594
 23
-364.237060546875
 33
6.666666030883789
  0
3DFACE
  8
0
 10
277.5089111328125
 20
-364.237060546875
 30
8.505428314208984
 11
277.21624755859375
 21
-364.237060546875
 31
8.534252166748047
 12
285.3333435058594
 22
-364.237060546875
 32
6.666666030883789
 13
285.3333435058594
 23
-364.237060546875
 33
6.666666030883789
  0
3DFACE
  8
0
 10
276.93487548828125
 20
-358.237060546875
 30
11.391246795654297
 11
276.93487548828125
 21
-364.237060546875
 31
11.391246795654297
 12
276.675537109375
 22
-364.237060546875
 32
11.252634048461914
 13
276.675537109375
 23
-358.237060546875
 33
11.252634048461914
  0
3DFACE
  8
0
 10
344.0
 20
-358.237060546875
 30
13.333330154418945
 11
324.0089111328125
 21
-358.237060546875
 31
10.005435943603516
 12
323.9800720214844
 22
-358.237060546875
 32
10.298070907592773
 13
323.9800720214844
 23
-358.237060546875
 33
10.298070907592773
  0
3DFACE
  8
0
 10
344.0
 20
-358.237060546875
 30
13.333330154418945
 11
323.9800720214844
 21
-358.237060546875
 31
10.298070907592773
 12
323.89471435546875
 22
-358.237060546875
 32
10.579462051391602
 13
323.89471435546875
 23
-358.237060546875
 33
10.579462051391602
  0
3DFACE
  8
0
 10
321.0377197265625
 20
-358.237060546875
 30
10.298070907592773
 11
321.0089111328125
 21
-358.237060546875
 31
10.005435943603516
 12
314.6666564941406
 22
-358.237060546875
 32
13.333330154418945
 13
314.6666564941406
 23
-358.237060546875
 33
13.333330154418945
  0
3DFACE
  8
0
 10
321.1230773925781
 20
-358.237060546875
 30
10.579462051391602
 11
321.0377197265625
 21
-358.237060546875
 31
10.298070907592773
 12
314.6666564941406
 22
-358.237060546875
 32
13.333330154418945
 13
314.6666564941406
 23
-358.237060546875
 33
13.333330154418945
  0
3DFACE
  8
0
 10
344.0
 20
-358.237060546875
 30
13.333330154418945
 11
323.89471435546875
 21
-358.237060546875
 31
10.579462051391602
 12
323.756103515625
 22
-358.237060546875
 32
10.838788986206055
 13
323.756103515625
 23
-358.237060546875
 33
10.838788986206055
  0
3DFACE
  8
0
 10
344.0
 20
-358.237060546875
 30
13.333330154418945
 11
323.756103515625
 21
-358.237060546875
 31
10.838788986206055
 12
323.5695495605469
 22
-358.237060546875
 32
11.066095352172852
 13
323.5695495605469
 23
-358.237060546875
 33
11.066095352172852
  0
3DFACE
  8
0
 10
321.2616882324219
 20
-358.237060546875
 30
10.838787078857422
 11
321.1230773925781
 21
-358.237060546875
 31
10.579462051391602
 12
314.6666564941406
 22
-358.237060546875
 32
13.333330154418945
 13
314.6666564941406
 23
-358.237060546875
 33
13.333330154418945
  0
3DFACE
  8
0
 10
321.4482421875
 20
-358.237060546875
 30
11.066095352172852
 11
321.2616882324219
 21
-358.237060546875
 31
10.838787078857422
 12
314.6666564941406
 22
-358.237060546875
 32
13.333330154418945
 13
314.6666564941406
 23
-358.237060546875
 33
13.333330154418945
  0
3DFACE
  8
0
 10
344.0
 20
-358.237060546875
 30
13.333330154418945
 11
323.5695495605469
 21
-358.237060546875
 31
11.066095352172852
 12
323.3422546386719
 22
-358.237060546875
 32
11.25263786315918
 13
323.3422546386719
 23
-358.237060546875
 33
11.25263786315918
  0
3DFACE
  8
0
 10
344.0
 20
-358.237060546875
 30
13.333330154418945
 11
323.3422546386719
 21
-358.237060546875
 31
11.25263786315918
 12
323.0829162597656
 22
-358.237060546875
 32
11.39124870300293
 13
323.0829162597656
 23
-358.237060546875
 33
11.39124870300293
  0
3DFACE
  8
0
 10
321.675537109375
 20
-358.237060546875
 30
11.252639770507812
 11
321.4482421875
 21
-358.237060546875
 31
11.066095352172852
 12
314.6666564941406
 22
-358.237060546875
 32
13.333330154418945
 13
314.6666564941406
 23
-358.237060546875
 33
13.333330154418945
  0
3DFACE
  8
0
 10
321.93487548828125
 20
-358.237060546875
 30
11.39124870300293
 11
321.675537109375
 21
-358.237060546875
 31
11.252639770507812
 12
314.6666564941406
 22
-358.237060546875
 32
13.333330154418945
 13
314.6666564941406
 23
-358.237060546875
 33
13.333330154418945
  0
3DFACE
  8
0
 10
344.0
 20
-358.237060546875
 30
13.333330154418945
 11
323.0829162597656
 21
-358.237060546875
 31
11.39124870300293
 12
322.8015441894531
 22
-358.237060546875
 32
11.476612091064453
 13
322.8015441894531
 23
-358.237060546875
 33
11.476612091064453
  0
3DFACE
  8
0
 10
344.0
 20
-358.237060546875
 30
13.333330154418945
 11
322.8015441894531
 21
-358.237060546875
 31
11.476612091064453
 12
322.5089111328125
 22
-358.237060546875
 32
11.505434036254883
 13
322.5089111328125
 23
-358.237060546875
 33
11.505434036254883
  0
3DFACE
  8
0
 10
322.21624755859375
 20
-358.237060546875
 30
11.476612091064453
 11
321.93487548828125
 21
-358.237060546875
 31
11.39124870300293
 12
314.6666564941406
 22
-358.237060546875
 32
13.333330154418945
 13
314.6666564941406
 23
-358.237060546875
 33
13.333330154418945
  0
3DFACE
  8
0
 10
314.6666564941406
 20
-358.237060546875
 30
13.333330154418945
 11
344.0
 21
-358.237060546875
 31
13.333330154418945
 12
322.5089111328125
 22
-358.237060546875
 32
11.505434036254883
 13
322.5089111328125
 23
-358.237060546875
 33
11.505434036254883
  0
3DFACE
  8
0
 10
322.5089111328125
 20
-358.237060546875
 30
11.505434036254883
 11
322.21624755859375
 21
-358.237060546875
 31
11.476612091064453
 12
314.6666564941406
 22
-358.237060546875
 32
13.333330154418945
 13
314.6666564941406
 23
-358.237060546875
 33
13.333330154418945
  0
3DFACE
  8
0
 10
277.21624755859375
 20
-358.237060546875
 30
11.47661018371582
 11
277.21624755859375
 21
-364.237060546875
 31
11.476608276367188
 12
276.93487548828125
 22
-364.237060546875
 32
11.391246795654297
 13
276.93487548828125
 23
-358.237060546875
 33
11.391246795654297
  0
3DFACE
  8
0
 10
277.5089111328125
 20
-358.237060546875
 30
11.505431175231934
 11
277.5089111328125
 21
-364.237060546875
 31
11.505431175231934
 12
277.21624755859375
 22
-364.237060546875
 32
11.476608276367188
 13
277.21624755859375
 23
-358.237060546875
 33
11.47661018371582
  0
3DFACE
  8
0
 10
323.9800720214844
 20
-364.237060546875
 30
10.298070907592773
 11
324.0089111328125
 21
-364.237060546875
 31
10.005435943603516
 12
344.0
 22
-364.237060546875
 32
13.333332061767578
 13
344.0
 23
-364.237060546875
 33
13.333332061767578
  0
3DFACE
  8
0
 10
314.6666564941406
 20
-364.237060546875
 30
13.333332061767578
 11
321.0089111328125
 21
-364.237060546875
 31
10.005435943603516
 12
321.0377197265625
 22
-364.237060546875
 32
10.298070907592773
 13
321.0377197265625
 23
-364.237060546875
 33
10.298070907592773
  0
3DFACE
  8
0
 10
314.6666564941406
 20
-364.237060546875
 30
13.333332061767578
 11
321.0377197265625
 21
-364.237060546875
 31
10.298070907592773
 12
321.1230773925781
 22
-364.237060546875
 32
10.579460144042969
 13
321.1230773925781
 23
-364.237060546875
 33
10.579460144042969
  0
3DFACE
  8
0
 10
323.89471435546875
 20
-364.237060546875
 30
10.579460144042969
 11
323.9800720214844
 21
-364.237060546875
 31
10.298070907592773
 12
344.0
 22
-364.237060546875
 32
13.333332061767578
 13
344.0
 23
-364.237060546875
 33
13.333332061767578
  0
3DFACE
  8
0
 10
323.756103515625
 20
-364.237060546875
 30
10.838787078857422
 11
323.89471435546875
 21
-364.237060546875
 31
10.579460144042969
 12
344.0
 22
-364.237060546875
 32
13.333332061767578
 13
344.0
 23
-364.237060546875
 33
13.333332061767578
  0
3DFACE
  8
0
 10
314.6666564941406
 20
-364.237060546875
 30
13.333332061767578
 11
321.1230773925781
 21
-364.237060546875
 31
10.579460144042969
 12
321.2616882324219
 22
-364.237060546875
 32
10.838788986206055
 13
321.2616882324219
 23
-364.237060546875
 33
10.838788986206055
  0
3DFACE
  8
0
 10
314.6666564941406
 20
-364.237060546875
 30
13.333332061767578
 11
321.2616882324219
 21
-364.237060546875
 31
10.838788986206055
 12
321.4482421875
 22
-364.237060546875
 32
11.066095352172852
 13
321.4482421875
 23
-364.237060546875
 33
11.066095352172852
  0
3DFACE
  8
0
 10
323.5695495605469
 20
-364.237060546875
 30
11.066095352172852
 11
323.756103515625
 21
-364.237060546875
 31
10.838787078857422
 12
344.0
 22
-364.237060546875
 32
13.333332061767578
 13
344.0
 23
-364.237060546875
 33
13.333332061767578
  0
3DFACE
  8
0
 10
323.3422546386719
 20
-364.237060546875
 30
11.25263786315918
 11
323.5695495605469
 21
-364.237060546875
 31
11.066095352172852
 12
344.0
 22
-364.237060546875
 32
13.333332061767578
 13
344.0
 23
-364.237060546875
 33
13.333332061767578
  0
3DFACE
  8
0
 10
314.6666564941406
 20
-364.237060546875
 30
13.333332061767578
 11
321.4482421875
 21
-364.237060546875
 31
11.066095352172852
 12
321.675537109375
 22
-364.237060546875
 32
11.252641677856445
 13
321.675537109375
 23
-364.237060546875
 33
11.252641677856445
  0
3DFACE
  8
0
 10
314.6666564941406
 20
-364.237060546875
 30
13.333332061767578
 11
321.675537109375
 21
-364.237060546875
 31
11.252641677856445
 12
321.93487548828125
 22
-364.237060546875
 32
11.39124870300293
 13
321.93487548828125
 23
-364.237060546875
 33
11.39124870300293
  0
3DFACE
  8
0
 10
323.0829162597656
 20
-364.237060546875
 30
11.39124870300293
 11
323.3422546386719
 21
-364.237060546875
 31
11.25263786315918
 12
344.0
 22
-364.237060546875
 32
13.333332061767578
 13
344.0
 23
-364.237060546875
 33
13.333332061767578
  0
3DFACE
  8
0
 10
322.8015441894531
 20
-364.237060546875
 30
11.476612091064453
 11
323.0829162597656
 21
-364.237060546875
 31
11.39124870300293
 12
344.0
 22
-364.237060546875
 32
13.333332061767578
 13
344.0
 23
-364.237060546875
 33
13.333332061767578
  0
3DFACE
  8
0
 10
314.6666564941406
 20
-364.237060546875
 30
13.333332061767578
 11
321.93487548828125
 21
-364.237060546875
 31
11.39124870300293
 12
322.21624755859375
 22
-364.237060546875
 32
11.476612091064453
 13
322.21624755859375
 23
-364.237060546875
 33
11.476612091064453
  0
3DFACE
  8
0
 10
322.5089111328125
 20
-364.237060546875
 30
11.505434036254883
 11
322.8015441894531
 21
-364.237060546875
 31
11.476612091064453
 12
344.0
 22
-364.237060546875
 32
13.333332061767578
 13
344.0
 23
-364.237060546875
 33
13.333332061767578
  0
3DFACE
  8
0
 10
314.6666564941406
 20
-364.237060546875
 30
13.333332061767578
 11
322.21624755859375
 21
-364.237060546875
 31
11.476612091064453
 12
322.5089111328125
 22
-364.237060546875
 32
11.505434036254883
 13
322.5089111328125
 23
-364.237060546875
 33
11.505434036254883
  0
3DFACE
  8
0
 10
322.5089111328125
 20
-364.237060546875
 30
11.505434036254883
 11
344.0
 21
-364.237060546875
 31
13.333332061767578
 12
314.6666564941406
 22
-364.237060546875
 32
13.333332061767578
 13
314.6666564941406
 23
-364.237060546875
 33
13.333332061767578
  0
3DFACE
  8
0
 10
276.2616882324219
 20
-358.237060546875
 30
10.838787078857422
 11
276.2616882324219
 21
-364.237060546875
 31
10.838785171508789
 12
276.1230773925781
 22
-364.237060546875
 32
10.579458236694336
 13
276.1230773925781
 23
-358.237060546875
 33
10.579458236694336
  0
3DFACE
  8
0
 10
276.1230773925781
 20
-358.237060546875
 30
10.579458236694336
 11
276.1230773925781
 21
-364.237060546875
 31
10.579458236694336
 12
276.0377197265625
 22
-364.237060546875
 32
10.298067092895508
 13
276.0377197265625
 23
-358.237060546875
 33
10.298065185546875
  0
3DFACE
  8
0
 10
276.0377197265625
 20
-358.237060546875
 30
10.298065185546875
 11
276.0377197265625
 21
-364.237060546875
 31
10.298067092895508
 12
276.0089111328125
 22
-364.237060546875
 32
10.00543212890625
 13
276.0089111328125
 23
-358.237060546875
 33
10.00543212890625
  0
3DFACE
  8
0
 10
276.0089111328125
 20
-358.237060546875
 30
10.00543212890625
 11
276.0089111328125
 21
-364.237060546875
 31
10.00543212890625
 12
276.0377197265625
 22
-364.237060546875
 32
9.712791442871094
 13
276.0377197265625
 23
-358.237060546875
 33
9.712791442871094
  0
3DFACE
  8
0
 10
276.0377197265625
 20
-358.237060546875
 30
9.712791442871094
 11
276.0377197265625
 21
-364.237060546875
 31
9.712791442871094
 12
276.1230773925781
 22
-364.237060546875
 32
9.431404113769531
 13
276.1230773925781
 23
-358.237060546875
 33
9.431404113769531
  0
3DFACE
  8
0
 10
276.1230773925781
 20
-358.237060546875
 30
9.431404113769531
 11
276.1230773925781
 21
-364.237060546875
 31
9.431404113769531
 12
276.2616882324219
 22
-364.237060546875
 32
9.172079086303711
 13
276.2616882324219
 23
-358.237060546875
 33
9.172079086303711
  0
3DFACE
  8
0
 10
276.2616882324219
 20
-358.237060546875
 30
9.172079086303711
 11
276.2616882324219
 21
-364.237060546875
 31
9.172079086303711
 12
276.4482421875
 22
-364.237060546875
 32
8.944772720336914
 13
276.4482421875
 23
-358.237060546875
 33
8.944772720336914
  0
3DFACE
  8
0
 10
276.4482421875
 20
-358.237060546875
 30
8.944772720336914
 11
276.4482421875
 21
-364.237060546875
 31
8.944772720336914
 12
276.675537109375
 22
-364.237060546875
 32
8.758228302001953
 13
276.675537109375
 23
-358.237060546875
 33
8.75822639465332
  0
3DFACE
  8
0
 10
276.675537109375
 20
-358.237060546875
 30
8.75822639465332
 11
276.675537109375
 21
-364.237060546875
 31
8.758228302001953
 12
276.93487548828125
 22
-364.237060546875
 32
8.619613647460938
 13
276.93487548828125
 23
-358.237060546875
 33
8.61961555480957
  0
3DFACE
  8
0
 10
276.93487548828125
 20
-358.237060546875
 30
8.61961555480957
 11
276.93487548828125
 21
-364.237060546875
 31
8.619613647460938
 12
277.21624755859375
 22
-364.237060546875
 32
8.534252166748047
 13
277.21624755859375
 23
-358.237060546875
 33
8.534252166748047
  0
3DFACE
  8
0
 10
277.21624755859375
 20
-358.237060546875
 30
8.534252166748047
 11
277.21624755859375
 21
-364.237060546875
 31
8.534252166748047
 12
277.5089111328125
 22
-364.237060546875
 32
8.505428314208984
 13
277.5089111328125
 23
-358.237060546875
 33
8.505426406860352
  0
3DFACE
  8
0
 10
277.5089111328125
 20
-358.237060546875
 30
8.505426406860352
 11
277.5089111328125
 21
-364.237060546875
 31
8.505428314208984
 12
277.8015441894531
 22
-364.237060546875
 32
8.534252166748047
 13
277.8015441894531
 23
-358.237060546875
 33
8.534252166748047
  0
3DFACE
  8
0
 10
277.8015441894531
 20
-358.237060546875
 30
8.534252166748047
 11
277.8015441894531
 21
-364.237060546875
 31
8.534252166748047
 12
278.0829162597656
 22
-364.237060546875
 32
8.619613647460938
 13
278.0829162597656
 23
-358.237060546875
 33
8.61961555480957
  0
3DFACE
  8
0
 10
278.0829162597656
 20
-358.237060546875
 30
8.61961555480957
 11
278.0829162597656
 21
-364.237060546875
 31
8.619613647460938
 12
278.3422546386719
 22
-364.237060546875
 32
8.758228302001953
 13
278.3422546386719
 23
-358.237060546875
 33
8.75822639465332
  0
3DFACE
  8
0
 10
278.3422546386719
 20
-358.237060546875
 30
8.75822639465332
 11
278.3422546386719
 21
-364.237060546875
 31
8.758228302001953
 12
278.5695495605469
 22
-364.237060546875
 32
8.944770812988281
 13
278.5695495605469
 23
-358.237060546875
 33
8.944772720336914
  0
3DFACE
  8
0
 10
278.5695495605469
 20
-358.237060546875
 30
8.944772720336914
 11
278.5695495605469
 21
-364.237060546875
 31
8.944770812988281
 12
278.756103515625
 22
-364.237060546875
 32
9.172079086303711
 13
278.756103515625
 23
-358.237060546875
 33
9.172080993652344
  0
3DFACE
  8
0
 10
278.756103515625
 20
-358.237060546875
 30
9.172080993652344
 11
278.756103515625
 21
-364.237060546875
 31
9.172079086303711
 12
278.89471435546875
 22
-364.237060546875
 32
9.431404113769531
 13
278.89471435546875
 23
-358.237060546875
 33
9.431404113769531
  0
3DFACE
  8
0
 10
278.89471435546875
 20
-358.237060546875
 30
9.431404113769531
 11
278.89471435546875
 21
-364.237060546875
 31
9.431404113769531
 12
278.9800720214844
 22
-364.237060546875
 32
9.712799072265625
 13
278.9800720214844
 23
-358.237060546875
 33
9.712799072265625
  0
3DFACE
  8
0
 10
278.9800720214844
 20
-358.237060546875
 30
9.712799072265625
 11
278.9800720214844
 21
-364.237060546875
 31
9.712799072265625
 12
279.0089111328125
 22
-364.237060546875
 32
10.00543212890625
 13
279.0089111328125
 23
-358.237060546875
 33
10.005434036254883
  0
3DFACE
  8
0
 10
279.0089111328125
 20
-358.237060546875
 30
10.005434036254883
 11
279.0089111328125
 21
-364.237060546875
 31
10.00543212890625
 12
278.9800720214844
 22
-364.237060546875
 32
10.298065185546875
 13
278.9800720214844
 23
-358.237060546875
 33
10.298065185546875
  0
3DFACE
  8
0
 10
278.9800720214844
 20
-358.237060546875
 30
10.298065185546875
 11
278.9800720214844
 21
-364.237060546875
 31
10.298065185546875
 12
278.89471435546875
 22
-364.237060546875
 32
10.579458236694336
 13
278.89471435546875
 23
-358.237060546875
 33
10.579460144042969
  0
3DFACE
  8
0
 10
278.89471435546875
 20
-358.237060546875
 30
10.579460144042969
 11
278.89471435546875
 21
-364.237060546875
 31
10.579458236694336
 12
278.756103515625
 22
-364.237060546875
 32
10.838787078857422
 13
278.756103515625
 23
-358.237060546875
 33
10.838787078857422
  0
3DFACE
  8
0
 10
278.756103515625
 20
-358.237060546875
 30
10.838787078857422
 11
278.756103515625
 21
-364.237060546875
 31
10.838787078857422
 12
278.5695495605469
 22
-364.237060546875
 32
11.066091537475586
 13
278.5695495605469
 23
-358.237060546875
 33
11.066091537475586
  0
3DFACE
  8
0
 10
278.5695495605469
 20
-358.237060546875
 30
11.066091537475586
 11
278.5695495605469
 21
-364.237060546875
 31
11.066091537475586
 12
278.3422546386719
 22
-364.237060546875
 32
11.252634048461914
 13
278.3422546386719
 23
-358.237060546875
 33
11.252635955810547
  0
3DFACE
  8
0
 10
278.3422546386719
 20
-358.237060546875
 30
11.252635955810547
 11
278.3422546386719
 21
-364.237060546875
 31
11.252634048461914
 12
278.0829162597656
 22
-364.237060546875
 32
11.391246795654297
 13
278.0829162597656
 23
-358.237060546875
 33
11.391246795654297
  0
3DFACE
  8
0
 10
278.0829162597656
 20
-358.237060546875
 30
11.391246795654297
 11
278.0829162597656
 21
-364.237060546875
 31
11.391246795654297
 12
277.8015441894531
 22
-364.237060546875
 32
11.476608276367188
 13
277.8015441894531
 23
-358.237060546875
 33
11.47661018371582
  0
3DFACE
  8
0
 10
277.8015441894531
 20
-358.237060546875
 30
11.47661018371582
 11
277.8015441894531
 21
-364.237060546875
 31
11.476608276367188
 12
277.5089111328125
 22
-364.237060546875
 32
11.505431175231934
 13
277.5089111328125
 23
-358.237060546875
 33
11.505431175231934
  0
3DFACE
  8
0
 10
322.5089111328125
 20
-358.237060546875
 30
11.505434036254883
 11
322.5089111328125
 21
-364.237060546875
 31
11.505434036254883
 12
322.21624755859375
 22
-364.237060546875
 32
11.476612091064453
 13
322.21624755859375
 23
-358.237060546875
 33
11.476612091064453
  0
3DFACE
  8
0
 10
322.21624755859375
 20
-358.237060546875
 30
11.476612091064453
 11
322.21624755859375
 21
-364.237060546875
 31
11.476612091064453
 12
321.93487548828125
 22
-364.237060546875
 32
11.39124870300293
 13
321.93487548828125
 23
-358.237060546875
 33
11.39124870300293
  0
3DFACE
  8
0
 10
321.93487548828125
 20
-358.237060546875
 30
11.39124870300293
 11
321.93487548828125
 21
-364.237060546875
 31
11.39124870300293
 12
321.675537109375
 22
-364.237060546875
 32
11.252641677856445
 13
321.675537109375
 23
-358.237060546875
 33
11.252639770507812
  0
3DFACE
  8
0
 10
321.675537109375
 20
-358.237060546875
 30
11.252639770507812
 11
321.675537109375
 21
-364.237060546875
 31
11.252641677856445
 12
321.4482421875
 22
-364.237060546875
 32
11.066095352172852
 13
321.4482421875
 23
-358.237060546875
 33
11.066095352172852
  0
3DFACE
  8
0
 10
321.4482421875
 20
-358.237060546875
 30
11.066095352172852
 11
321.4482421875
 21
-364.237060546875
 31
11.066095352172852
 12
321.2616882324219
 22
-364.237060546875
 32
10.838788986206055
 13
321.2616882324219
 23
-358.237060546875
 33
10.838787078857422
  0
3DFACE
  8
0
 10
321.2616882324219
 20
-358.237060546875
 30
10.838787078857422
 11
321.2616882324219
 21
-364.237060546875
 31
10.838788986206055
 12
321.1230773925781
 22
-364.237060546875
 32
10.579460144042969
 13
321.1230773925781
 23
-358.237060546875
 33
10.579462051391602
  0
3DFACE
  8
0
 10
321.1230773925781
 20
-358.237060546875
 30
10.579462051391602
 11
321.1230773925781
 21
-364.237060546875
 31
10.579460144042969
 12
321.0377197265625
 22
-364.237060546875
 32
10.298070907592773
 13
321.0377197265625
 23
-358.237060546875
 33
10.298070907592773
  0
3DFACE
  8
0
 10
321.0377197265625
 20
-358.237060546875
 30
10.298070907592773
 11
321.0377197265625
 21
-364.237060546875
 31
10.298070907592773
 12
321.0089111328125
 22
-364.237060546875
 32
10.005435943603516
 13
321.0089111328125
 23
-358.237060546875
 33
10.005435943603516
  0
3DFACE
  8
0
 10
321.0089111328125
 20
-358.237060546875
 30
10.005435943603516
 11
321.0089111328125
 21
-364.237060546875
 31
10.005435943603516
 12
321.0377197265625
 22
-364.237060546875
 32
9.71279525756836
 13
321.0377197265625
 23
-358.237060546875
 33
9.712797164916992
  0
3DFACE
  8
0
 10
321.0377197265625
 20
-358.237060546875
 30
9.712797164916992
 11
321.0377197265625
 21
-364.237060546875
 31
9.71279525756836
 12
321.1230773925781
 22
-364.237060546875
 32
9.431407928466797
 13
321.1230773925781
 23
-358.237060546875
 33
9.431406021118164
  0
3DFACE
  8
0
 10
321.1230773925781
 20
-358.237060546875
 30
9.431406021118164
 11
321.1230773925781
 21
-364.237060546875
 31
9.431407928466797
 12
321.2616882324219
 22
-364.237060546875
 32
9.172080993652344
 13
321.2616882324219
 23
-358.237060546875
 33
9.172080993652344
  0
3DFACE
  8
0
 10
321.2616882324219
 20
-358.237060546875
 30
9.172080993652344
 11
321.2616882324219
 21
-364.237060546875
 31
9.172080993652344
 12
321.4482421875
 22
-364.237060546875
 32
8.94477653503418
 13
321.4482421875
 23
-358.237060546875
 33
8.94477653503418
  0
3DFACE
  8
0
 10
321.4482421875
 20
-358.237060546875
 30
8.94477653503418
 11
321.4482421875
 21
-364.237060546875
 31
8.94477653503418
 12
321.675537109375
 22
-364.237060546875
 32
8.758230209350586
 13
321.675537109375
 23
-358.237060546875
 33
8.758232116699219
  0
3DFACE
  8
0
 10
321.675537109375
 20
-358.237060546875
 30
8.758232116699219
 11
321.675537109375
 21
-364.237060546875
 31
8.758230209350586
 12
321.93487548828125
 22
-364.237060546875
 32
8.619617462158203
 13
321.93487548828125
 23
-358.237060546875
 33
8.619619369506836
  0
3DFACE
  8
0
 10
321.93487548828125
 20
-358.237060546875
 30
8.619619369506836
 11
321.93487548828125
 21
-364.237060546875
 31
8.619617462158203
 12
322.21624755859375
 22
-364.237060546875
 32
8.534255981445312
 13
322.21624755859375
 23
-358.237060546875
 33
8.534257888793945
  0
3DFACE
  8
0
 10
322.21624755859375
 20
-358.237060546875
 30
8.534257888793945
 11
322.21624755859375
 21
-364.237060546875
 31
8.534255981445312
 12
322.5089111328125
 22
-364.237060546875
 32
8.50543212890625
 13
322.5089111328125
 23
-358.237060546875
 33
8.505434036254883
  0
3DFACE
  8
0
 10
322.5089111328125
 20
-358.237060546875
 30
8.505434036254883
 11
322.5089111328125
 21
-364.237060546875
 31
8.50543212890625
 12
322.8015441894531
 22
-364.237060546875
 32
8.534255981445312
 13
322.8015441894531
 23
-358.237060546875
 33
8.534255981445312
  0
3DFACE
  8
0
 10
322.8015441894531
 20
-358.237060546875
 30
8.534255981445312
 11
322.8015441894531
 21
-364.237060546875
 31
8.534255981445312
 12
323.0829162597656
 22
-364.237060546875
 32
8.619617462158203
 13
323.0829162597656
 23
-358.237060546875
 33
8.619619369506836
  0
3DFACE
  8
0
 10
323.0829162597656
 20
-358.237060546875
 30
8.619619369506836
 11
323.0829162597656
 21
-364.237060546875
 31
8.619617462158203
 12
323.3422546386719
 22
-364.237060546875
 32
8.758230209350586
 13
323.3422546386719
 23
-358.237060546875
 33
8.758230209350586
  0
3DFACE
  8
0
 10
323.3422546386719
 20
-358.237060546875
 30
8.758230209350586
 11
323.3422546386719
 21
-364.237060546875
 31
8.758230209350586
 12
323.5695495605469
 22
-364.237060546875
 32
8.94477653503418
 13
323.5695495605469
 23
-358.237060546875
 33
8.94477653503418
  0
3DFACE
  8
0
 10
323.5695495605469
 20
-358.237060546875
 30
8.94477653503418
 11
323.5695495605469
 21
-364.237060546875
 31
8.94477653503418
 12
323.756103515625
 22
-364.237060546875
 32
9.172082901000977
 13
323.756103515625
 23
-358.237060546875
 33
9.172082901000977
  0
3DFACE
  8
0
 10
323.756103515625
 20
-358.237060546875
 30
9.172082901000977
 11
323.756103515625
 21
-364.237060546875
 31
9.172082901000977
 12
323.89471435546875
 22
-364.237060546875
 32
9.431407928466797
 13
323.89471435546875
 23
-358.237060546875
 33
9.431406021118164
  0
3DFACE
  8
0
 10
323.89471435546875
 20
-358.237060546875
 30
9.431406021118164
 11
323.89471435546875
 21
-364.237060546875
 31
9.431407928466797
 12
323.9800720214844
 22
-364.237060546875
 32
9.71280288696289
 13
323.9800720214844
 23
-358.237060546875
 33
9.71280288696289
  0
3DFACE
  8
0
 10
323.9800720214844
 20
-358.237060546875
 30
9.71280288696289
 11
323.9800720214844
 21
-364.237060546875
 31
9.71280288696289
 12
324.0089111328125
 22
-364.237060546875
 32
10.005435943603516
 13
324.0089111328125
 23
-358.237060546875
 33
10.005435943603516
  0
3DFACE
  8
0
 10
324.0089111328125
 20
-358.237060546875
 30
10.005435943603516
 11
324.0089111328125
 21
-364.237060546875
 31
10.005435943603516
 12
323.9800720214844
 22
-364.237060546875
 32
10.298070907592773
 13
323.9800720214844
 23
-358.237060546875
 33
10.298070907592773
  0
3DFACE
  8
0
 10
323.9800720214844
 20
-358.237060546875
 30
10.298070907592773
 11
323.9800720214844
 21
-364.237060546875
 31
10.298070907592773
 12
323.89471435546875
 22
-364.237060546875
 32
10.579460144042969
 13
323.89471435546875
 23
-358.237060546875
 33
10.579462051391602
  0
3DFACE
  8
0
 10
323.89471435546875
 20
-358.237060546875
 30
10.579462051391602
 11
323.89471435546875
 21
-364.237060546875
 31
10.579460144042969
 12
323.756103515625
 22
-364.237060546875
 32
10.838787078857422
 13
323.756103515625
 23
-358.237060546875
 33
10.838788986206055
  0
3DFACE
  8
0
 10
323.756103515625
 20
-358.237060546875
 30
10.838788986206055
 11
323.756103515625
 21
-364.237060546875
 31
10.838787078857422
 12
323.5695495605469
 22
-364.237060546875
 32
11.066095352172852
 13
323.5695495605469
 23
-358.237060546875
 33
11.066095352172852
  0
3DFACE
  8
0
 10
323.5695495605469
 20
-358.237060546875
 30
11.066095352172852
 11
323.5695495605469
 21
-364.237060546875
 31
11.066095352172852
 12
323.3422546386719
 22
-364.237060546875
 32
11.25263786315918
 13
323.3422546386719
 23
-358.237060546875
 33
11.25263786315918
  0
3DFACE
  8
0
 10
323.3422546386719
 20
-358.237060546875
 30
11.25263786315918
 11
323.3422546386719
 21
-364.237060546875
 31
11.25263786315918
 12
323.0829162597656
 22
-364.237060546875
 32
11.39124870300293
 13
323.0829162597656
 23
-358.237060546875
 33
11.39124870300293
  0
3DFACE
  8
0
 10
323.0829162597656
 20
-358.237060546875
 30
11.39124870300293
 11
323.0829162597656
 21
-364.237060546875
 31
11.39124870300293
 12
322.8015441894531
 22
-364.237060546875
 32
11.476612091064453
 13
322.8015441894531
 23
-358.237060546875
 33
11.476612091064453
  0
3DFACE
  8
0
 10
322.8015441894531
 20
-358.237060546875
 30
11.476612091064453
 11
322.8015441894531
 21
-364.237060546875
 31
11.476612091064453
 12
322.5089111328125
 22
-364.237060546875
 32
11.505434036254883
 13
322.5089111328125
 23
-358.237060546875
 33
11.505434036254883
  0
ENDSEC
  0
EOF
