  0
SECTION
  2
HEADER
  9
$ACADVER
  1
AC1009
  9
$INSBASE
 10
0.0
 20
0.0
 30
0.0
  9
$EXTMIN
 10
0.0
 20
0.0
 30
0.0
  9
$EXTMAX
 10
0.0
 20
0.0
 30
0.0
  0
ENDSEC
  0
SECTION
  2
TABLES
  0
TABLE
  2
VPORT
 70
1
  0
VPORT
  2
*ACTIVE
 70
0
 10
0.0
 20
0.0
 11
1.0
 21
1.0
 12
-5.0
 22
1.0
 13
0.0
 23
0.0
 14
0.1
 24
0.1
 15
0.1
 25
0.1
 16
0.0
 26
0.0
 36
1.0
 17
0.0
 27
0.0
 37
0.0
 40
10.0
 41
1.0
 42
50.0
 43
0.0
 44
0.0
 50
0.0
 51
0.0
 71
0
 72
100
 73
1
 74
1
 75
0
 76
0
 77
0
 78
0
  0
ENDTAB
  0
TABLE
  2
LTYPE
 70
8
  0
LTYPE
  2
CONTINUOUS
 70
0
  3
Solid line
 72
65
 73
0
 40
0.0
  0
LTYPE
  2
DOT
 70
0
  3
. . . . . . .
 72
65
 73
2
 40
0.25
 49
0.0
 49
-0.25
  0
LTYPE
  2
DASHED
 70
0
  3
__ __ __ __ __
 72
65
 73
2
 40
0.8
 49
0.5
 49
-0.3
  0
LTYPE
  2
DASHDOT
 70
0
  3
__ . __ . __ .
 72
65
 73
4
 40
1.0
 49
0.5
 49
-0.25
 49
0.0
 49
-0.25
  0
LTYPE
  2
DIVIDE
 70
0
  3
____ . . ____ . . 
 72
65
 73
6
 40
1.25
 49
0.5
 49
-0.25
 49
0.0
 49
-0.25
 49
0.0
 49
-0.25
  0
LTYPE
  2
BORDER
 70
0
  3
__ __ . __ __ . 
 72
65
 73
6
 40
1.75
 49
0.5
 49
-0.25
 49
0.5
 49
-0.25
 49
0.0
 49
-0.25
  0
LTYPE
  2
HIDDEN
 70
0
  3
__ __ __ __ __
 72
65
 73
2
 40
0.4
 49
0.25
 49
-0.25
  0
LTYPE
  2
CENTER
 70
0
  3
____ _ ____ _ __
 72
65
 73
4
 40
2.0
 49
1.25
 49
-0.25
 49
0.25
 49
-0.25
  0
ENDTAB
  0
TABLE
  2
LAYER
 70
1
  0
LAYER
  2
PYDXF
 70
64
 62
7
  6
continuous
  0
ENDTAB
  0
TABLE
  2
STYLE
 70
1
  0
STYLE
  2
STANDARD
 70
0
 40
0
 41
1.0
 50
0.0
 71
0
 42
1
 3
ARIAL.TTF
 4

  0
ENDTAB
  0
TABLE
  2
VIEW
 70
1
  0
VIEW
  2
BF_TOPVIEW
 70
0
 40
120.0
 10
0.0
 20
0.0
 41
200.0
 11
0.0
 21
0.0
 31
1.0
 12
0.0
 22
0.0
 32
0.0
 42
50.0
 43
0.0
 44
0.0
 50
0.0
 71
0
  0
ENDTAB
  0
ENDSEC
  0
SECTION
  2
BLOCKS
  0
ENDSEC
  0
SECTION
  2
ENTITIES
  0
3DFACE
  8
0
 10
355.0
 20
-200.3333282470703
 30
38.75
 11
325.3333435058594
 21
-200.3333282470703
 31
38.75
 12
325.3333435058594
 22
-186.0
 32
38.75
 13
325.3333435058594
 23
-186.0
 33
38.75
  0
3DFACE
  8
0
 10
325.3333435058594
 20
-186.0
 30
38.75
 11
348.5
 21
-186.0
 31
38.75
 12
348.5
 22
-186.25
 32
38.75
 13
348.5
 23
-186.25
 33
38.75
  0
3DFACE
  8
0
 10
325.3333435058594
 20
-186.0
 30
38.75
 11
348.5
 21
-186.25
 31
38.75
 12
348.6200866699219
 22
-187.4693145751953
 32
38.75
 13
348.6200866699219
 23
-187.4693145751953
 33
38.75
  0
3DFACE
  8
0
 10
354.75
 20
-192.5
 30
38.75
 11
355.0
 21
-192.5
 31
38.75
 12
355.0
 22
-200.3333282470703
 32
38.75
 13
355.0
 23
-200.3333282470703
 33
38.75
  0
3DFACE
  8
0
 10
353.53070068359375
 20
-192.37991333007812
 30
38.75
 11
354.75
 21
-192.5
 31
38.75
 12
355.0
 22
-200.3333282470703
 32
38.75
 13
355.0
 23
-200.3333282470703
 33
38.75
  0
3DFACE
  8
0
 10
325.3333435058594
 20
-186.0
 30
38.75
 11
348.6200866699219
 21
-187.4693145751953
 31
38.75
 12
348.97576904296875
 22
-188.6417694091797
 32
38.75
 13
348.97576904296875
 23
-188.6417694091797
 33
38.75
  0
3DFACE
  8
0
 10
325.3333435058594
 20
-186.0
 30
38.75
 11
348.97576904296875
 21
-188.6417694091797
 31
38.75
 12
349.5533142089844
 22
-189.72230529785156
 32
38.75
 13
349.5533142089844
 23
-189.72230529785156
 33
38.75
  0
3DFACE
  8
0
 10
353.53070068359375
 20
-192.37991333007812
 30
38.75
 11
355.0
 21
-200.3333282470703
 31
38.75
 12
325.3333435058594
 22
-186.0
 32
38.75
 13
325.3333435058594
 23
-186.0
 33
38.75
  0
3DFACE
  8
0
 10
352.3582458496094
 20
-192.0242462158203
 30
38.75
 11
353.53070068359375
 21
-192.37991333007812
 31
38.75
 12
325.3333435058594
 22
-186.0
 32
38.75
 13
325.3333435058594
 23
-186.0
 33
38.75
  0
3DFACE
  8
0
 10
325.3333435058594
 20
-186.0
 30
38.75
 11
349.5533142089844
 21
-189.72230529785156
 31
38.75
 12
350.33056640625
 22
-190.66941833496094
 32
38.75
 13
350.33056640625
 23
-190.66941833496094
 33
38.75
  0
3DFACE
  8
0
 10
351.2777099609375
 20
-191.44668579101562
 30
38.75
 11
352.3582458496094
 21
-192.0242462158203
 31
38.75
 12
325.3333435058594
 22
-186.0
 32
38.75
 13
325.3333435058594
 23
-186.0
 33
38.75
  0
3DFACE
  8
0
 10
325.3333435058594
 20
-186.0
 30
38.75
 11
350.33056640625
 21
-190.66941833496094
 31
38.75
 12
351.2777099609375
 22
-191.44668579101562
 32
38.75
 13
351.2777099609375
 23
-191.44668579101562
 33
38.75
  0
3DFACE
  8
0
 10
295.6666564941406
 20
-200.3333282470703
 30
38.75
 11
266.0
 21
-200.3333282470703
 31
38.75
 12
266.0
 22
-192.42613220214844
 32
38.75
 13
266.0
 23
-192.42613220214844
 33
38.75
  0
3DFACE
  8
0
 10
295.6666564941406
 20
-200.3333282470703
 30
38.75
 11
266.0
 21
-192.42613220214844
 31
38.75
 12
266.4693298339844
 22
-192.37991333007812
 32
38.749046325683594
 13
266.4693298339844
 23
-192.37991333007812
 33
38.749046325683594
  0
3DFACE
  8
0
 10
271.5
 20
-186.0
 30
38.75
 11
295.6666564941406
 21
-186.0
 31
38.75
 12
295.6666564941406
 22
-200.3333282470703
 32
38.75
 13
295.6666564941406
 23
-200.3333282470703
 33
38.75
  0
3DFACE
  8
0
 10
271.5
 20
-186.25001525878906
 30
38.749046325683594
 11
271.5
 21
-186.0
 31
38.75
 12
295.6666564941406
 22
-200.3333282470703
 32
38.75
 13
295.6666564941406
 23
-200.3333282470703
 33
38.75
  0
3DFACE
  8
0
 10
295.6666564941406
 20
-200.3333282470703
 30
38.75
 11
266.4693298339844
 21
-192.37991333007812
 31
38.749046325683594
 12
267.64178466796875
 22
-192.02426147460938
 32
38.749046325683594
 13
267.64178466796875
 23
-192.02426147460938
 33
38.749046325683594
  0
3DFACE
  8
0
 10
295.6666564941406
 20
-200.3333282470703
 30
38.75
 11
267.64178466796875
 21
-192.02426147460938
 31
38.749046325683594
 12
268.7223205566406
 22
-191.4467010498047
 32
38.749046325683594
 13
268.7223205566406
 23
-191.4467010498047
 33
38.749046325683594
  0
3DFACE
  8
0
 10
271.3799133300781
 20
-187.46932983398438
 30
38.749046325683594
 11
271.5
 21
-186.25001525878906
 31
38.749046325683594
 12
295.6666564941406
 22
-200.3333282470703
 32
38.75
 13
295.6666564941406
 23
-200.3333282470703
 33
38.75
  0
3DFACE
  8
0
 10
271.0242614746094
 20
-188.64178466796875
 30
38.749046325683594
 11
271.3799133300781
 21
-187.46932983398438
 31
38.749046325683594
 12
295.6666564941406
 22
-200.3333282470703
 32
38.75
 13
295.6666564941406
 23
-200.3333282470703
 33
38.75
  0
3DFACE
  8
0
 10
295.6666564941406
 20
-200.3333282470703
 30
38.75
 11
268.7223205566406
 21
-191.4467010498047
 31
38.749046325683594
 12
269.6694030761719
 22
-190.66943359375
 32
38.749046325683594
 13
269.6694030761719
 23
-190.66943359375
 33
38.749046325683594
  0
3DFACE
  8
0
 10
270.4466857910156
 20
-189.7223358154297
 30
38.749046325683594
 11
271.0242614746094
 21
-188.64178466796875
 31
38.749046325683594
 12
295.6666564941406
 22
-200.3333282470703
 32
38.75
 13
295.6666564941406
 23
-200.3333282470703
 33
38.75
  0
3DFACE
  8
0
 10
269.6694030761719
 20
-190.66943359375
 30
38.749046325683594
 11
270.4466857910156
 21
-189.7223358154297
 31
38.749046325683594
 12
295.6666564941406
 22
-200.3333282470703
 32
38.75
 13
295.6666564941406
 23
-200.3333282470703
 33
38.75
  0
3DFACE
  8
0
 10
295.6666564941406
 20
-200.3333282470703
 30
38.75
 11
295.6666564941406
 21
-186.0
 31
38.75
 12
325.3333435058594
 22
-186.0
 32
38.75
 13
325.3333435058594
 23
-200.3333282470703
 33
38.75
  0
3DFACE
  8
0
 10
266.0
 20
-229.0
 30
38.75
 11
266.0
 21
-214.6666717529297
 31
38.75
 12
295.6666564941406
 22
-214.6666717529297
 32
38.75
 13
295.6666564941406
 23
-229.0
 33
38.75
  0
3DFACE
  8
0
 10
266.0
 20
-214.6666717529297
 30
38.75
 11
266.0
 21
-200.3333282470703
 31
38.75
 12
295.6666564941406
 22
-200.3333282470703
 32
38.75
 13
295.6666564941406
 23
-214.6666717529297
 33
38.75
  0
3DFACE
  8
0
 10
295.6666564941406
 20
-229.0
 30
38.75
 11
295.6666564941406
 21
-214.6666717529297
 31
38.75
 12
325.3333435058594
 22
-214.6666717529297
 32
38.75
 13
325.3333435058594
 23
-229.0
 33
38.75
  0
3DFACE
  8
0
 10
295.6666564941406
 20
-214.6666717529297
 30
38.75
 11
295.6666564941406
 21
-200.3333282470703
 31
38.75
 12
325.3333435058594
 22
-200.3333282470703
 32
38.75
 13
325.3333435058594
 23
-214.6666717529297
 33
38.75
  0
3DFACE
  8
0
 10
325.3333435058594
 20
-229.0
 30
38.75
 11
325.3333435058594
 21
-214.6666717529297
 31
38.75
 12
355.0
 22
-214.6666717529297
 32
38.75
 13
355.0
 23
-229.0
 33
38.75
  0
3DFACE
  8
0
 10
325.3333435058594
 20
-214.6666717529297
 30
38.75
 11
325.3333435058594
 21
-200.3333282470703
 31
38.75
 12
355.0
 22
-200.3333282470703
 32
38.75
 13
355.0
 23
-214.6666717529297
 33
38.75
  0
ENDSEC
  0
EOF
